<?xml version="1.0" encoding="utf-8"?>
<!-- Generator: Adobe Illustrator 24.1.3, SVG Export Plug-In . SVG Version: 6.00 Build 0)  -->
<svg version="1.1" id="Слой_1" xmlns="http://www.w3.org/2000/svg" xmlns:xlink="http://www.w3.org/1999/xlink" x="0px" y="0px"
	 viewBox="0 0 96 96" style="enable-background:new 0 0 96 96;" xml:space="preserve">
<style type="text/css">
	.st0{fill:#E0E0E0;}
	.st1{fill:#7877A7;}
	.st2{fill-rule:evenodd;clip-rule:evenodd;fill:#F3CE63;stroke:#455A64;stroke-width:0.5;stroke-miterlimit:10;}
	.st3{fill-rule:evenodd;clip-rule:evenodd;fill:#7877A7;}
	.st4{fill-rule:evenodd;clip-rule:evenodd;fill:#263238;}
	.st5{fill:none;stroke:#455A64;stroke-width:0.5;stroke-miterlimit:10;}
</style>
<g>
	<g>
		<ellipse class="st0" cx="48" cy="49" rx="48" ry="46"/>
	</g>
</g>
<path class="st1" d="M39,95"/>
<g>
	<path class="st2" d="M43,12.6c24.3-7.7,40.9,2.1,37.5,11.9c-3.2,9.3-31.2,41.3-28,54.8H43C21.3,62,12,22.5,43,12.6z"/>
	<polygon class="st3" points="52.9,80 39.7,80 36.2,82.9 39,93 46.3,93 53.6,93 56.3,82.9 	"/>
	<polygon class="st4" points="51.9,80 39.7,80 36.2,82.9 37.3,86.7 56.1,83.8 56.3,82.9 53,80.1 	"/>
	<path class="st3" d="M56.3,76.3H36.2c-0.6,0-1.1,0.5-1.1,1v4.6c0,0.6,0.5,1,1.1,1h20.2c0.6,0,1.1-0.5,1.1-1v-4.6
		C57.5,76.7,56.9,76.3,56.3,76.3z"/>
	<line class="st5" x1="44.2" y1="18.4" x2="45.4" y2="24.4"/>
	<line class="st5" x1="67.1" y1="29.2" x2="71.9" y2="26.8"/>
	<line class="st5" x1="63.5" y1="6.5" x2="63.5" y2="11.3"/>
	<line class="st5" x1="51.4" y1="8.9" x2="53.9" y2="12.5"/>
	<line class="st5" x1="41.8" y1="11.3" x2="41.8" y2="16"/>
	<line class="st5" x1="33.4" y1="14.9" x2="35.8" y2="18.4"/>
	<line class="st5" x1="27.3" y1="22" x2="29.7" y2="23.2"/>
	<line class="st5" x1="29.7" y1="18.4" x2="30.9" y2="22"/>
	<line class="st5" x1="22.5" y1="31.6" x2="30.9" y2="31.6"/>
	<line class="st5" x1="22.5" y1="41.1" x2="26.1" y2="37.5"/>
	<line class="st5" x1="35.8" y1="36.3" x2="38.2" y2="41.1"/>
	<line class="st5" x1="51.4" y1="33.9" x2="49" y2="36.3"/>
	<line class="st5" x1="41.8" y1="31.6" x2="45.4" y2="32.7"/>
	<line class="st5" x1="64.7" y1="20.8" x2="63.5" y2="17.2"/>
	<line class="st5" x1="70.7" y1="17.2" x2="73.1" y2="13.7"/>
	<line class="st5" x1="69.5" y1="12.5" x2="69.5" y2="8.9"/>
	<line class="st5" x1="75.6" y1="19.6" x2="81.6" y2="14.9"/>
	<line class="st5" x1="70.7" y1="37.5" x2="74.4" y2="41.1"/>
	<line class="st5" x1="57.5" y1="39.9" x2="61.1" y2="38.7"/>
	<line class="st5" x1="63.5" y1="47.1" x2="67.1" y2="53"/>
	<line class="st5" x1="28.5" y1="47.1" x2="24.9" y2="51.8"/>
	<line class="st5" x1="47.8" y1="42.3" x2="47.8" y2="45.9"/>
	<line class="st5" x1="57.5" y1="29.2" x2="61.1" y2="25.6"/>
	<line class="st5" x1="53.9" y1="24.4" x2="51.4" y2="20.8"/>
	<line class="st5" x1="53.9" y1="57.8" x2="58.7" y2="62.6"/>
	<line class="st5" x1="40.6" y1="54.2" x2="39.4" y2="50.6"/>
	<line class="st5" x1="34.6" y1="56.6" x2="34.6" y2="60.2"/>
	<line class="st5" x1="29.7" y1="56.6" x2="26.1" y2="59"/>
	<line class="st5" x1="33.4" y1="63.8" x2="28.5" y2="66.2"/>
	<line class="st5" x1="34.6" y1="67.3" x2="34.6" y2="72.1"/>
	<line class="st5" x1="51.4" y1="68.5" x2="56.3" y2="69.7"/>
	<line class="st5" x1="53.9" y1="65" x2="56.3" y2="66.2"/>
	<line class="st5" x1="59.9" y1="54.2" x2="61.1" y2="55.4"/>
	<line class="st5" x1="64.7" y1="44.7" x2="69.5" y2="44.7"/>
	<line class="st5" x1="73.1" y1="32.7" x2="79.2" y2="32.7"/>
	<line class="st5" x1="75.6" y1="26.8" x2="84" y2="26.8"/>
	<line class="st5" x1="44.2" y1="61.4" x2="47.8" y2="60.2"/>
	<line class="st5" x1="52.6" y1="53" x2="53.9" y2="48.3"/>
	<line class="st5" x1="44.2" y1="66.2" x2="45.4" y2="70.9"/>
	<line class="st5" x1="40.6" y1="68.5" x2="39.4" y2="73.3"/>
	<line class="st5" x1="49" y1="73.3" x2="53.9" y2="72.1"/>
	<line class="st5" x1="33.4" y1="44.7" x2="35.8" y2="45.9"/>
	<line class="st5" x1="38.2" y1="23.2" x2="35.8" y2="31.6"/>
</g>
</svg>
