<?xml version="1.0" encoding="utf-8"?>
<!-- Generator: Adobe Illustrator 24.1.3, SVG Export Plug-In . SVG Version: 6.00 Build 0)  -->
<svg version="1.1" id="Слой_1" xmlns="http://www.w3.org/2000/svg" xmlns:xlink="http://www.w3.org/1999/xlink" x="0px" y="0px"
	 viewBox="0 0 96 96" style="enable-background:new 0 0 96 96;" xml:space="preserve">
<style type="text/css">
	.st0{fill:#E0E0E0;}
	.st1{fill:#F3CE63;}
	.st2{fill:#351A03;}
	.st3{fill:#455A64;}
	.st4{fill:#FFBE9D;}
	.st5{fill:#263238;}
	.st6{fill:#EB996E;}
	.st7{fill:#E8505B;}
	.st8{fill:#7877A7;}
	.st9{fill:#FFFFFF;}
</style>
<g>
	<g>
		<g>
			<ellipse class="st0" cx="48" cy="48" rx="48" ry="46"/>
		</g>
	</g>
	<g>
		<g>
			<g>
				<path class="st1" d="M11.2,77.5c1.3,1.4,2.6,2.8,4.1,4.1l2.4-6.6c0,0-1.2-2.4-2.3-4.9C13.9,72.9,12.4,75.6,11.2,77.5z"/>
			</g>
		</g>
		<g>
			<g>
				<path class="st1" d="M66.4,54.5c-4.5-1.1-13.2-2.4-13.2-2.4l-19.4,1.5c0,0-4.9,0.5-9.2,3c0.2,1.9,0.3,3.3,0.3,3.3
					s1.7,2.2,2.6,3.8c0.3,0.5,0.5,1,0.6,1.3c0.3,1.1-0.6,7.3-0.6,7.3l0.1,3l0.3,14.6C34,92.5,40.8,94,48,94c5.9,0,11.5-1,16.7-2.8
					l2.6-12l5.9,6.1c0.1-0.3,0.2-0.6,0.4-0.8c3.1-6.7,8.2-8.5,13.5-9.7c0,0,0.1-0.1,0.1-0.1c0.1-0.1,0.2-0.2,0.2-0.3
					C85.2,71.9,70.6,55.5,66.4,54.5z"/>
			</g>
		</g>
	</g>
	<g>
		<g>
			<g>
				<path class="st2" d="M73.9,35.5c-1.7-2-3.8-4-3.9-6.5c0-1.4,0.5-2.9-0.4-4c-0.7-0.9-2.2-1.1-3-2c-1.1-1.2-0.6-3-1-4.5
					c-0.4-1.7-1.9-2.9-3.6-3.5c-1.7-0.6-3.5-0.6-5.3-0.4l-1.7,35.1c0.8-0.9,2.9-1.2,4-0.8c1.1,0.4,2.2,1.1,3.4,1.2
					c2.7,0.2,4.6-2.4,6.9-3.7c2.2-1.3,5.2-1.7,6.4-3.9C77,40.2,75.6,37.5,73.9,35.5z"/>
			</g>
		</g>
	</g>
	<g>
		<g>
			<g>
				<g>
					<path class="st3" d="M68.8,46.6c0,0,0.4,0,0.9-0.4c0.3-0.2,0.5-0.4,0.7-0.8c0.2-0.4,0.2-0.9,0-1.4c-0.2-0.5-0.6-0.9-1.2-1.2
						c-0.3-0.2-0.6-0.4-0.8-0.7c-0.2-0.3-0.4-0.7-0.3-1.1c0-0.8,0.5-1.5,0.7-2.2c0.1-0.4,0.2-0.7,0.2-1.1c0-0.4-0.1-0.8-0.3-1.1
						c-0.5-0.7-1.2-1.1-1.8-1.6c-0.7-0.5-1.3-0.9-1.8-1.5c-1-1.1-1.5-2.4-1.8-3.5c-0.2-1.1-0.1-2,0-2.6c0.1-0.3,0.1-0.5,0.2-0.7
						c0.1-0.2,0.1-0.2,0.1-0.2c0,0-0.1,0.3-0.2,0.9c-0.1,0.6-0.1,1.5,0.1,2.5c0.2,1.1,0.8,2.3,1.8,3.3c0.5,0.5,1.1,1,1.8,1.4
						c0.7,0.5,1.4,0.9,1.9,1.7c0.3,0.4,0.4,0.8,0.4,1.3c0,0.4-0.1,0.9-0.3,1.2c-0.3,0.7-0.7,1.4-0.7,2.1c0,0.3,0.1,0.7,0.3,0.9
						c0.2,0.3,0.5,0.4,0.7,0.6c0.3,0.2,0.5,0.4,0.8,0.6c0.2,0.2,0.4,0.5,0.5,0.8c0.2,0.6,0.1,1.1-0.1,1.5c-0.2,0.4-0.5,0.7-0.8,0.8
						c-0.3,0.2-0.5,0.2-0.7,0.2C68.9,46.6,68.8,46.6,68.8,46.6z"/>
				</g>
			</g>
		</g>
	</g>
	<g>
		<g>
			<g>
				<g>
					<g>
						<g>
							<g>
								<g>
									<g>
										<g>
											<g>
												<g>
													<g>
														<g>
															<g>
																<g>
																	<path class="st4" d="M55.5,54.4l-0.1-5.9c0,0,6.1-0.9,7.5-8.4c0.7-3.8,0.6-10,0.4-15c-0.2-4.6-5.3-9.2-10-8.8
																		l-15.4,2.5l0,2.5l0.4,33.4c0.1,4.5,3.9,8.2,8.6,8.2l0,0C51.7,62.8,55.6,59,55.5,54.4z"/>
																</g>
															</g>
														</g>
													</g>
												</g>
											</g>
										</g>
									</g>
								</g>
								<g>
									<g>
										<g>
											<g>
												<g>
													<g>
														<g>
															<g>
																<g>
																	<g>
																		<path class="st5" d="M60.6,30c0,0.5-0.4,0.9-1,1c-0.6,0-1-0.4-1-0.9c0-0.5,0.4-0.9,1-1C60.1,29,60.6,29.4,60.6,30
																			z"/>
																	</g>
																</g>
															</g>
														</g>
													</g>
												</g>
											</g>
										</g>
									</g>
									<g>
										<g>
											<g>
												<g>
													<g>
														<g>
															<g>
																<g>
																	<g>
																		<g>
																			<path class="st5" d="M61.8,28.2c-0.1,0.1-0.9-0.4-2-0.5c-1.1,0-1.9,0.5-2,0.4c-0.1-0.1,0.1-0.3,0.4-0.5
																				c0.3-0.2,0.9-0.5,1.6-0.4c0.7,0,1.3,0.3,1.6,0.5C61.7,27.9,61.8,28.2,61.8,28.2z"/>
																		</g>
																	</g>
																</g>
															</g>
														</g>
													</g>
												</g>
											</g>
										</g>
									</g>
								</g>
								<g>
									<g>
										<g>
											<g>
												<g>
													<g>
														<g>
															<g>
																<g>
																	<g>
																		<path class="st5" d="M50,29.6c0,0.5-0.4,0.9-1,1c-0.6,0-1-0.4-1-0.9c0-0.5,0.4-0.9,1-1C49.6,28.7,50,29.1,50,29.6
																			z"/>
																	</g>
																</g>
															</g>
														</g>
													</g>
												</g>
											</g>
										</g>
									</g>
									<g>
										<g>
											<g>
												<g>
													<g>
														<g>
															<g>
																<g>
																	<g>
																		<g>
																			<path class="st5" d="M51,28.2c-0.1,0.1-0.9-0.4-2-0.5c-1.1,0-1.9,0.5-2,0.4c-0.1-0.1,0.1-0.3,0.4-0.5
																				c0.3-0.2,0.9-0.5,1.6-0.4c0.7,0,1.3,0.3,1.6,0.5C51,27.9,51.1,28.2,51,28.2z"/>
																		</g>
																	</g>
																</g>
															</g>
														</g>
													</g>
												</g>
											</g>
										</g>
									</g>
								</g>
								<g>
									<g>
										<g>
											<g>
												<g>
													<g>
														<g>
															<g>
																<g>
																	<g>
																		<path class="st5" d="M54.8,36.1c0-0.1,0.7-0.2,1.8-0.3c0.3,0,0.5-0.1,0.6-0.3c0.1-0.2,0-0.5-0.2-0.8
																			c-0.3-0.7-0.5-1.3-0.8-2.1c-1.1-2.9-1.9-5.3-1.8-5.4c0.1,0,1.1,2.3,2.2,5.2c0.3,0.7,0.5,1.4,0.8,2.1
																			c0.1,0.3,0.3,0.7,0.1,1.1c-0.1,0.2-0.3,0.3-0.5,0.4c-0.2,0-0.3,0-0.5,0.1C55.5,36.1,54.8,36.1,54.8,36.1z"/>
																	</g>
																</g>
															</g>
														</g>
													</g>
												</g>
											</g>
										</g>
									</g>
								</g>
								<g>
									<g>
										<g>
											<g>
												<g>
													<g>
														<g>
															<g>
																<g>
																	<path class="st6" d="M55.4,48.5c0,0-5.3,0.2-10.6-2.9c0,0,2.7,5.3,10.6,4.7L55.4,48.5z"/>
																</g>
															</g>
														</g>
													</g>
												</g>
											</g>
										</g>
									</g>
								</g>
								<g>
									<g>
										<g>
											<g>
												<g>
													<g>
														<g>
															<g>
																<g>
																	<path class="st7" d="M54.3,38.6c-0.4-0.5-1.1-0.8-1.8-0.7c-0.5,0-1,0.3-1.3,0.6c-0.3,0.4-0.4,0.9-0.1,1.2
																		c0.3,0.4,0.9,0.5,1.4,0.4c0.5-0.1,1-0.5,1.4-0.8c0.1-0.1,0.2-0.2,0.3-0.3C54.5,38.9,54.5,38.7,54.3,38.6"/>
																</g>
															</g>
														</g>
													</g>
												</g>
											</g>
										</g>
									</g>
								</g>
								<g>
									<g>
										<g>
											<g>
												<g>
													<g>
														<g>
															<g>
																<g>
																	<g>
																		<path class="st5" d="M51.6,36.8c0.2,0,0.2,1.1,1.2,2c1,0.8,2.3,0.7,2.3,0.9c0,0.1-0.3,0.2-0.8,0.2
																			c-0.5,0-1.3-0.2-1.9-0.7c-0.6-0.5-0.9-1.2-0.9-1.6C51.4,37,51.5,36.7,51.6,36.8z"/>
																	</g>
																</g>
															</g>
														</g>
													</g>
												</g>
											</g>
										</g>
									</g>
								</g>
							</g>
						</g>
					</g>
					<g>
						<g>
							<g>
								<g>
									<g>
										<g>
											<g>
												<g>
													<g>
														<path class="st5" d="M51.4,24.1c-0.1,0.3-1.2,0.1-2.5,0.3c-1.3,0.1-2.3,0.4-2.5,0.2c-0.1-0.1,0.1-0.4,0.5-0.7
															c0.4-0.3,1.1-0.5,1.9-0.6c0.8-0.1,1.5,0.1,1.9,0.3C51.2,23.8,51.4,24,51.4,24.1z"/>
													</g>
												</g>
											</g>
										</g>
									</g>
								</g>
							</g>
						</g>
					</g>
					<g>
						<g>
							<g>
								<g>
									<g>
										<g>
											<g>
												<g>
													<g>
														<path class="st5" d="M61.4,25.2c-0.2,0.2-0.9,0-1.9-0.1c-0.9-0.1-1.7,0.1-1.9-0.1c-0.1-0.1,0.1-0.4,0.4-0.6
															c0.3-0.2,0.9-0.4,1.5-0.4c0.6,0,1.2,0.3,1.5,0.5C61.4,24.8,61.5,25.1,61.4,25.2z"/>
													</g>
												</g>
											</g>
										</g>
									</g>
								</g>
							</g>
						</g>
					</g>
				</g>
			</g>
		</g>
	</g>
	<g>
		<g>
			<g>
				<path class="st8" d="M41.8,27.7c2.6-3.1,10-8.6,13.6-10.1c0.6-0.2,1.1-0.8,1.5-0.8c0,0,1.1,0.5,2.1,1.4c1.9,1.6,3.5,5.4,4.2,7.8
					c1.1-2.9,0.7-7.1-1.4-9.5c-2.1-2.3-4.4-3.6-7.6-3.8c-3.2-0.2-5.7,0.5-8.4,2.2c-1.1,0.6-5,3.8-6.1,5.6L41.8,27.7z"/>
			</g>
		</g>
	</g>
	<g>
		<g>
			<g>
				<path class="st2" d="M55.7,12.9c0.5,0.1-3.1-2.8-5.3-3.2c-2.2-0.4-4.6,0.1-6.5,1.3c-1.3,0.8-2.4,2-3.8,2.6
					c-1.1,0.4-2.3,0.5-3.4,0.8c-3,0.8-5.3,3.6-5.5,6.5c-0.1,1.3,0.1,2.5,0.2,3.8c0,1.3-0.2,2.6-1.1,3.5c-0.8,0.8-1.9,1.2-2.9,1.8
					c-2.3,1.4-3.6,4.2-3.2,6.7c0.2,1.4,0.9,2.8,0.4,4.1c-0.3,0.9-1.1,1.5-1.6,2.3c-1.1,1.5-1,3.7,0.2,5.2c1.3,0.1,2.4,1.1,3.4,1.9
					c1,0.8,2.4,1.6,3.7,1.2c1.7-0.5,2.5-2.6,4.2-2.9c1.7-0.2,2.9,1.5,4.5,2.1c1.8,0.7,4-0.3,5.1-1.9c1.1-1.5,1.4-3.5,1.4-5.4
					c0.1-2.4-0.3-4.9-1.7-6.8c-1-1.4-2.7-2.5-2.7-4.2c0-1.6,1.5-2.9,1.8-4.5c0.2-1.4-0.6-2.8-1.2-4c-0.6-1.3-1.7-3.2-0.9-4.4
					C40.8,19.6,46.7,11.9,55.7,12.9z"/>
			</g>
		</g>
	</g>
	<g>
		<g>
			<g>
				<g>
					<path class="st5" d="M56.5,14.2c0,0,0.3,0.1,0.5,0.5c0.2,0.4,0.3,1.1,0,1.7c-0.3,0.6-0.9,1-1.4,1.1c-0.5,0.1-0.7,0-0.7,0
						c0-0.1,0.3-0.1,0.7-0.2c0.4-0.1,0.9-0.5,1.1-1c0.3-0.5,0.2-1.1,0-1.5C56.6,14.4,56.4,14.2,56.5,14.2z"/>
				</g>
			</g>
		</g>
	</g>
	<g>
		<g>
			<g>
				<g>
					<path class="st5" d="M58.7,17.4c0,0.1-0.6,0-1.1-0.4c-0.5-0.4-0.7-0.8-0.7-0.9c0.1,0,0.4,0.3,0.9,0.6
						C58.3,17.1,58.7,17.3,58.7,17.4z"/>
				</g>
			</g>
		</g>
	</g>
	<g>
		<g>
			<g>
				<g>
					<path class="st5" d="M53.4,15.4c0-0.1,0.5-0.1,1-0.2c0.5-0.1,0.9-0.4,1-0.3c0.1,0.1-0.3,0.4-0.9,0.6
						C53.9,15.7,53.4,15.5,53.4,15.4z"/>
				</g>
			</g>
		</g>
	</g>
	<g>
		<g>
			<g>
				<g>
					<path class="st5" d="M53.5,14c0-0.1,0.5-0.1,1,0c0.6,0.1,1,0.2,1,0.3c0,0.1-0.5,0.1-1,0C53.9,14.3,53.5,14.1,53.5,14z"/>
				</g>
			</g>
		</g>
	</g>
	<g>
		<g>
			<g>
				<g>
					<path class="st5" d="M58.9,14.5c0,0.1-0.2,0.2-0.4,0.2c-0.2,0-0.4,0-0.4-0.1c0-0.1,0.2-0.2,0.4-0.2S58.8,14.4,58.9,14.5z"/>
				</g>
			</g>
		</g>
	</g>
	<g>
		<g>
			<g>
				<g>
					<path class="st5" d="M58.9,15.4c0,0.1-0.3,0.2-0.6,0.2c-0.3,0-0.6-0.1-0.6-0.2c0-0.1,0.3-0.2,0.6-0.2
						C58.6,15.2,58.9,15.3,58.9,15.4z"/>
				</g>
			</g>
		</g>
	</g>
	<g>
		<g>
			<g>
				<g>
					<path class="st5" d="M44.9,20.5c0.1,0.1-0.8,0.9-1.6,2c-0.8,1.1-1.4,2.2-1.5,2.1c-0.1,0,0.3-1.1,1.2-2.3
						C43.9,21.2,44.9,20.4,44.9,20.5z"/>
				</g>
			</g>
		</g>
	</g>
	<g>
		<g>
			<g>
				<g>
					<path class="st5" d="M45.2,18.2c0.1,0.1-0.9,1.2-1.9,2.7c-1,1.5-1.6,2.9-1.7,2.8c-0.1,0,0.4-1.4,1.4-3
						C44.1,19.2,45.2,18.2,45.2,18.2z"/>
				</g>
			</g>
		</g>
	</g>
	<g>
		<g>
			<g>
				<g>
					<path class="st5" d="M23.8,29.1c0,0-0.1-0.1-0.2-0.2c-0.1-0.1-0.3-0.4-0.4-0.7c-0.2-0.6-0.3-1.7,0.4-2.7c0.7-1,2.4-1.6,4-1.2
						c0.8,0.2,1.5,0.8,2.2,1.2c0.4,0.2,0.7,0.4,1.1,0.5c0.4,0.1,0.8,0,1.2-0.2c0.3-0.2,0.5-0.6,0.7-1C33,24.4,33,24,33,23.6
						c-0.1-0.8-0.3-1.6-0.3-2.4c-0.1-1.6,0.3-3,1.1-4c0.8-0.9,1.8-1.3,2.5-1.4c0.3-0.1,0.6,0,0.8,0c0.2,0,0.3,0.1,0.3,0.1
						c0,0-0.4-0.1-1,0.1c-0.6,0.1-1.6,0.5-2.3,1.4c-0.7,0.9-1.1,2.3-1,3.8c0,0.8,0.2,1.5,0.3,2.4c0.1,0.8,0,1.9-0.8,2.5
						c-0.4,0.3-1,0.4-1.4,0.3c-0.5-0.1-0.9-0.3-1.3-0.6c-0.7-0.5-1.4-1-2.1-1.2c-1.5-0.4-3,0.1-3.7,1c-0.7,0.9-0.7,2-0.5,2.5
						C23.6,28.8,23.9,29,23.8,29.1z"/>
				</g>
			</g>
		</g>
	</g>
	<g>
		<g>
			<g>
				<g>
					<path class="st5" d="M72.6,29.6c0,0-0.1,0-0.3,0c-0.2,0-0.4,0.1-0.6,0.4c-0.2,0.2-0.3,0.7,0,1c0.3,0.3,0.9,0.5,1.4,0.3
						c0.5-0.2,0.9-0.8,1-1.5c0.1-0.7-0.1-1.4-0.4-2.1c-0.3-0.7-0.7-1.5-1.4-1.9c-0.4-0.2-0.8-0.3-1.2-0.2c-0.4,0-0.9,0.2-1.3,0.3
						c-0.5,0.1-0.9,0.2-1.4,0.2c-0.5,0-1-0.3-1.3-0.6c-0.6-0.7-0.7-1.7-0.6-2.4c0.1-0.8,0.3-1.5,0.3-2.2c0-0.7-0.1-1.3-0.4-1.8
						c-0.5-1.1-1.2-1.7-1.8-2.1c-0.6-0.4-0.9-0.5-0.9-0.5c0,0,0.1,0,0.3,0.1c0.2,0.1,0.4,0.2,0.7,0.3c0.6,0.3,1.4,1,1.9,2.1
						c0.3,0.5,0.4,1.2,0.4,1.9c0,0.7-0.2,1.5-0.3,2.2c-0.1,0.7,0,1.6,0.5,2.2c0.3,0.3,0.6,0.5,1.1,0.5c0.4,0,0.9-0.1,1.3-0.2
						c0.5-0.1,0.9-0.3,1.4-0.3c0.5,0,1,0,1.4,0.3c0.8,0.5,1.2,1.3,1.5,2.1c0.3,0.7,0.5,1.5,0.4,2.2c-0.1,0.7-0.5,1.4-1.2,1.6
						c-0.6,0.2-1.3,0-1.6-0.4c-0.2-0.2-0.2-0.5-0.2-0.7c0-0.2,0.1-0.4,0.2-0.5c0.2-0.3,0.5-0.4,0.7-0.3
						C72.5,29.6,72.6,29.6,72.6,29.6z"/>
				</g>
			</g>
		</g>
	</g>
	<g>
		<g>
			<g>
				<g>
					<path class="st5" d="M20.5,39.6c0,0,0.1,0,0.3,0c0.2,0,0.4-0.1,0.6-0.4c0.1-0.1,0.1-0.3,0.1-0.5c0-0.2-0.2-0.3-0.4-0.4
						c-0.4-0.2-0.9-0.2-1.3,0.2c-0.4,0.4-0.6,1-0.6,1.6c0,0.3,0.1,0.6,0.2,0.9c0.2,0.3,0.5,0.5,0.8,0.6c0.7,0.2,1.5,0,2-0.6
						c0.5-0.6,0.8-1.4,0.8-2.2c0-0.8-0.1-1.7-0.2-2.5c-0.1-0.8-0.1-1.6,0.1-2.4c0.2-0.8,0.6-1.4,1.1-1.9c0.5-0.5,1.1-0.8,1.6-1.1
						c1.1-0.5,2-0.7,2.7-0.8c0.6-0.1,1-0.2,1-0.2c0,0-0.3,0.1-1,0.3c-0.6,0.2-1.6,0.4-2.6,0.9c-0.5,0.3-1,0.6-1.5,1.1
						c-0.5,0.5-0.9,1.1-1,1.8c-0.2,0.7-0.1,1.5,0,2.3c0.1,0.8,0.3,1.6,0.3,2.5c0,0.9-0.3,1.8-0.9,2.4c-0.3,0.3-0.7,0.6-1.1,0.7
						c-0.4,0.1-0.9,0.1-1.3,0c-0.4-0.1-0.8-0.4-1-0.7c-0.2-0.3-0.3-0.7-0.3-1.1c0-0.7,0.3-1.3,0.7-1.8c0.5-0.4,1.2-0.5,1.6-0.2
						c0.2,0.1,0.4,0.3,0.4,0.5c0,0.2,0,0.4-0.1,0.5c-0.2,0.3-0.5,0.4-0.7,0.4C20.5,39.7,20.5,39.6,20.5,39.6z"/>
				</g>
			</g>
		</g>
	</g>
	<g>
		<g>
			<g>
				<g>
					<path class="st5" d="M42.6,10.6c0,0,0-0.1-0.1-0.2c-0.1-0.2-0.2-0.4-0.5-0.5c-0.3-0.1-0.7-0.2-1.2-0.1c-0.4,0.1-0.9,0.5-1,1
						c-0.2,1.1,1.1,2.5,2.7,2.2c0.8-0.1,1.5-0.5,2.2-1c0.7-0.5,1.2-1.2,1.8-1.9c0.6-0.7,1.1-1.4,1.8-2c0.7-0.5,1.5-1,2.4-1
						c0.8-0.1,1.7,0.2,2.3,0.6c0.6,0.4,1.1,0.9,1.4,1.4c0.7,1,0.8,2,1,2.6c0.1,0.3,0.1,0.6,0.1,0.8c0,0.2,0,0.3,0,0.3
						c0,0-0.1-0.4-0.2-1c-0.2-0.6-0.4-1.6-1-2.5c-0.3-0.5-0.8-0.9-1.4-1.3c-0.6-0.4-1.3-0.6-2.1-0.5c-0.8,0.1-1.5,0.5-2.2,1
						c-0.7,0.5-1.2,1.2-1.8,1.9c-0.6,0.7-1.1,1.4-1.8,2c-0.7,0.6-1.5,1-2.3,1.1c-0.8,0.1-1.7-0.2-2.2-0.7c-0.5-0.5-0.8-1.2-0.7-1.8
						c0.1-0.3,0.2-0.6,0.4-0.8c0.2-0.2,0.5-0.3,0.7-0.4c0.5-0.1,1,0,1.3,0.1c0.3,0.2,0.5,0.4,0.5,0.6C42.6,10.5,42.6,10.6,42.6,10.6
						z"/>
				</g>
			</g>
		</g>
	</g>
	<g>
		<g>
			<g>
				<g>
					<path class="st3" d="M52.4,12.7c0,0,0,0-0.1-0.1c0-0.1-0.1-0.2-0.2-0.3c-0.2-0.3-0.6-0.6-1.2-0.8c-0.6-0.2-1.4-0.3-2.3-0.3
						c-0.5,0-1,0.1-1.5,0.2c-0.5,0.1-1,0.4-1.4,0.8c-0.9,0.7-1.8,1.6-2.5,2.7c-0.2,0.3-0.3,0.6-0.5,0.9c-0.1,0.3-0.3,0.7-0.6,0.9
						c-0.5,0.5-1.2,0.9-2,1.2C39.8,18,39.3,18,39,18.1c-0.4,0.1-0.8,0.2-1.1,0.4c-0.7,0.3-1.4,0.8-1.8,1.5c-0.5,0.6-0.7,1.4-0.7,2.3
						c0,0.8,0.2,1.7,0.3,2.5c0.1,0.9,0.3,1.7,0.1,2.6c-0.1,0.9-0.6,1.7-1.3,2.2c-1.3,1.1-3,1.6-4.1,2.6c-0.6,0.5-1.1,1-1.3,1.7
						c-0.2,0.6-0.1,1.3,0.2,1.9c0.3,0.6,0.7,1.1,0.9,1.7c0.3,0.6,0.4,1.2,0.3,1.8c-0.2,0.6-0.6,1-1,1.3c-0.4,0.3-0.9,0.6-1.2,0.9
						c-0.7,0.6-0.8,1.4-0.7,2.1c0.1,0.6,0.2,1.1,0.3,1.4c0.1,0.3,0.1,0.5,0.1,0.5c0,0,0,0-0.1-0.1c0-0.1-0.1-0.2-0.1-0.4
						c-0.1-0.3-0.3-0.8-0.4-1.4c0-0.3,0-0.7,0.1-1.1c0.1-0.4,0.3-0.8,0.7-1.1c0.3-0.3,0.8-0.6,1.2-0.9c0.4-0.3,0.8-0.7,0.9-1.2
						c0.1-0.5,0-1.1-0.3-1.7c-0.3-0.5-0.7-1.1-1-1.7c-0.3-0.6-0.5-1.4-0.2-2.1c0.2-0.7,0.8-1.3,1.4-1.8c1.2-1,2.9-1.5,4.1-2.6
						c0.6-0.5,1.1-1.2,1.2-2.1c0.1-0.8,0-1.7-0.1-2.5c-0.1-0.9-0.3-1.7-0.3-2.6c0-0.9,0.2-1.7,0.7-2.4c0.5-0.7,1.2-1.2,2-1.6
						c0.4-0.2,0.8-0.3,1.2-0.4c0.4-0.1,0.8-0.1,1.2-0.2c0.7-0.2,1.4-0.6,1.9-1.1c0.2-0.3,0.4-0.5,0.5-0.8c0.1-0.3,0.3-0.6,0.5-0.9
						c0.7-1.2,1.7-2.1,2.6-2.8c0.5-0.3,1-0.7,1.5-0.8c0.5-0.1,1-0.2,1.5-0.2c1,0,1.8,0.1,2.4,0.4c0.6,0.2,1,0.6,1.2,0.9
						c0.1,0.1,0.1,0.3,0.1,0.4C52.4,12.7,52.4,12.7,52.4,12.7z"/>
				</g>
			</g>
		</g>
	</g>
	<g>
		<g>
			<path class="st9" d="M44.4,88c0.1-0.2,0.3-0.3,0.5-0.3c0.2,0,0.4,0,0.6,0c0.7,0.1,1.4-0.3,2.1-0.5c1-0.3,2-0.4,3-0.2
				c0.8,0.1,1.6,0.4,2.3,0.1c0.4-0.1,0.8-0.4,1.2-0.3c0.3,0,0.5,0.2,0.8,0.3c0.6,0.2,1.2-0.1,1.7-0.5c0.5-0.3,1-0.7,1.6-0.6
				c0.5,0.1,0.9,0.4,1.3,0.8s0.8,0.6,1.3,0.6c0.9-0.1,1.3-1.5,2.2-1.4c0.6,0,1,0.7,1.2,1.3c0.2,0.6,0.3,1.2,0.9,1.4l-0.5,2.2
				c-0.1,1-1.2,1.7-2.2,1.7c-1,0-2-0.6-2.7-1.3c-0.5-0.4-1-0.9-1.6-1.2c-1-0.5-2.3-0.4-3.4-0.4c-3.2,0.1-6.4-0.1-9.6-0.8
				c-0.2,0-0.4-0.1-0.6-0.2C44.5,88.4,44.3,88.2,44.4,88z"/>
		</g>
	</g>
	<g>
		<g>
			<path class="st9" d="M70.7,73.9c0.2-0.9,0.5-1.8,1.1-2.5c0.4-0.4,0.8-0.7,0.9-1.2c0-0.4-0.2-0.7-0.1-1.1c0.2-0.7,1.2-0.7,1.9-0.5
				c0.7,0.2,1.7,0.2,2-0.4c0.3-0.7-0.6-1.7-0.1-2.3c0.2-0.2,0.6-0.3,0.9-0.3c1-0.1,0.7-0.3,1.7-0.4l3.8,3.9
				c-0.4-0.7-3.6-0.3-4.1,0.4c-0.5,0.6-0.6,1.5-0.8,2.3c-0.3,0.8-1,1.5-1.8,1.4c-0.6-0.1-1.1-0.7-1.7-0.7c-0.6,0-1.1,0.6-1.2,1.2
				c-0.1,0.6-0.1,1.2-0.2,1.8c-0.1,0.6-0.6,1.2-1.3,1.2c-0.5,0-1-0.5-1.1-1C70.4,74.9,70.5,74.4,70.7,73.9z"/>
		</g>
	</g>
	<g>
		<g>
			<path class="st9" d="M25.7,56c1.1-0.1,2.5,0,3,1c0.3,0.6,0.1,1.5,0.5,2.1c0.4,0.6,1.3,0.7,2.1,0.8c0.8,0.1,1.7,0.3,2,1
				c0.3,0.7-0.2,1.5,0.2,2.1c0.5,0.7,1.6,0.5,2.5,0.7c1.7,0.3,2.7,2.1,4.3,2.4c0.8,0.1,1.6-0.1,2.4-0.2c0.8-0.2,1.6-0.2,2.3,0.2
				c0.7,0.4,1,1.4,0.4,1.9c-0.4,0.4-1,0.3-1.6,0.3c-1.6-0.2-3.2-0.3-4.8-0.5c-1.3-0.1-2.5-0.2-3.8-0.6c-1-0.3-2-0.6-2.9-1
				c-1.2-0.5-2.6-1-3.2-2.2c-0.2-0.5-0.3-1-0.7-1.5c-0.3-0.4-0.9-0.6-1.4-0.8c-1.4-0.5-2.9-1.1-4.3-1.6c-0.4-0.1-0.8-0.3-1-0.6
				c-0.2-0.3-0.2-0.9,0.1-1C22,58.4,24.8,56.1,25.7,56z"/>
		</g>
	</g>
	<g>
		<g>
			<path class="st9" d="M52.4,71.2c0.6-0.9,2-0.4,2.9-1c1.7-1-0.1-4,1.3-5.3c1.1-1,3.3-0.2,4.1-1.4c0.5-0.7,0.2-1.7,0.7-2.4
				c1.1-1.8,4.8,0.2,6-1.6c0.3-0.5,0.3-1.2,0.3-1.8c0-0.6,0-1.3,0.4-1.8c0.4-0.5,1.2,0.1,1.2,0.1c2.3,1.9,4.4,3.7,5.9,5.2
				c-1-0.2-2.1-0.5-2.8-0.2c-0.7,0.3-1.2,1-1.7,1.6c-0.5,0.6-1,1.3-1.8,1.6c-1.5,0.5-3.5-0.5-4.6,0.5c-0.7,0.6-0.6,1.6-0.9,2.5
				c-0.7,2-3.9,2.6-5.4,1.1c0.2,1.9-1.1,3.8-3,4.4c-0.6,0.2-1.4,0.3-2,0C52.4,72.5,52,71.7,52.4,71.2z"/>
		</g>
	</g>
	<g>
		<g>
			<path class="st9" d="M25.3,79.3c0.9-0.2,1.8-0.5,2.7-0.3c0.6,0.1,1.1,0.4,1.7,0.4c1.2-0.1,1.9-1.8,3.1-1.8c1.3,0.1,2,2,3.3,1.8
				c0.7-0.1,1.2-0.9,1.9-0.9c0.8,0,1.1,1,1.7,1.5c0.7,0.5,1.6,0.5,2.5,0.3c0.8-0.2,1.7-0.6,2.5-0.4c0.9,0.1,1.7,0.9,1.4,1.7l0.7-0.3
				c0.5-0.2,1,0.5,0.8,0.9s-0.8,0.7-1.4,0.8c-2,0.4-4.1,0-6.2-0.3c-1.6-0.3-3.1-0.5-4.7-0.8c-1.6-0.3-3.1-0.5-4.7-0.5
				c-1.2,0-2.4,0.2-3.5,0.6c-0.8,0.2-1.5,0.6-2.3,0.6c-0.8,0-1.7-0.5-1.8-1.2C22.9,80.3,24.2,79.6,25.3,79.3z"/>
		</g>
	</g>
	<g>
		<g>
			<path class="st4" d="M87.1,74.7c-5.3,1.1-10.4,2.9-13.5,9.7l1.5,1.6C79.7,82.9,83.8,79.1,87.1,74.7z"/>
		</g>
	</g>
	<g>
		<g>
			<polygon class="st0" points="17.7,75 15.3,81.6 15.3,81.6 			"/>
		</g>
	</g>
	<g>
		<g>
			<path class="st0" d="M13.7,66.4c0.4,1,1.1,2.4,1.7,3.7c0,0,0,0,0,0L13.7,66.4z"/>
		</g>
	</g>
	<g>
		<g>
			<path class="st0" d="M19.8,61.9c0.2,0,0.3,0.1,0.5,0.2c0.7-0.5,1.3-0.9,2-1.3c-0.1-0.2-0.2-0.5-0.4-0.7c-0.3-0.3-0.6-0.5-1-0.7
				c-0.6,0.7-1.2,1.5-1.6,2.4C19.5,61.9,19.7,61.9,19.8,61.9z"/>
		</g>
	</g>
	<g>
		<g>
			<path class="st0" d="M20.3,62.1C20.1,62,20,62,19.8,61.9c-0.1,0-0.3-0.1-0.4-0.1c-0.1,0.2-0.2,0.3-0.2,0.5
				c-0.1,0.3-0.3,0.6-0.4,0.9c0.1-0.1,0.2-0.2,0.3-0.3C19.5,62.7,19.9,62.4,20.3,62.1z"/>
		</g>
	</g>
	<g>
		<g>
			<path class="st0" d="M15.4,70.1c1.2,2.5,2.3,4.9,2.3,4.9L15.4,70.1C15.4,70.1,15.4,70.1,15.4,70.1z"/>
		</g>
	</g>
	<g>
		<g>
			<path class="st0" d="M18.8,63.3c-0.2,0.1-0.3,0.3-0.4,0.5c-0.1,0.2-0.2,0.4-0.2,0.6c0,0,0.1,0,0.1,0
				C18.4,63.9,18.6,63.6,18.8,63.3z"/>
		</g>
	</g>
	<g>
		<g>
			<path class="st0" d="M18.1,64.3c0,0.1,0,0.2,0,0.3c0-0.1,0.1-0.2,0.1-0.3C18.2,64.3,18.2,64.3,18.1,64.3z"/>
		</g>
	</g>
	<g>
		<g>
			<path class="st0" d="M21.5,69.4l0.9-4.2c-0.3,0.3-0.6,0.7-0.7,1.1C21.2,67.3,21.1,68.4,21.5,69.4z"/>
		</g>
	</g>
	<g>
		<g>
			<path class="st0" d="M21.1,62.9c0.2,0.6-0.3,1.2-0.9,1.4c-0.6,0.2-1.2,0.1-1.8,0c0,0,0,0,0,0c0,0.1-0.1,0.2-0.1,0.3
				c0,0,0,0.1,0,0.1c0.3,0.5,1,0.6,1.6,0.6c1-0.1,1.9-0.4,2.7-0.9l0.9-4.2c-0.4,0.2-0.7,0.4-1,0.6c0.1,0.2,0.1,0.4,0.1,0.5
				c0-0.2,0-0.4-0.1-0.5c-0.7,0.4-1.4,0.9-2,1.3C20.7,62.3,21,62.5,21.1,62.9z"/>
		</g>
	</g>
	<g>
		<g>
			<path class="st0" d="M23.8,64.2c-0.1-0.2-0.2-0.4-0.2-0.6c-0.3,0.3-0.7,0.5-1,0.8l-0.2,0.9C22.7,64.8,23.2,64.4,23.8,64.2z"/>
		</g>
	</g>
	<g>
		<g>
			<g>
				<path class="st4" d="M27.5,72.2c0,0,0.9-6.2,0.6-7.3c-0.1-0.3-0.3-0.7-0.6-1.3c-0.9-1.6-2.6-3.8-2.6-3.8s-0.1-1.4-0.3-3.3
					c-0.4-3.7-1.1-9.4-1.8-10.1c-0.6-0.6-2.3-0.9-2.3,2.6c0,3.5,0,7.3,0,7.3s-5.5-9.2-7.1-9.1c-1.5,0.1-1.6,0.8,0,3.6
					c1.5,2.6,3,6.7,3,6.7s-1.8,0.3-2.1,2.2c-0.3,2-0.3,2-0.3,2s-1.5,1.6-0.9,3.5c0.1,0.3,0.3,0.7,0.5,1.1l1.7,3.7l2.3,4.9l-2.4,6.6
					c1,0.9,2,1.7,3.1,2.6c2.2,1.7,4.6,3.1,7.1,4.4c0.8,0.4,1.6,0.8,2.5,1.2l-0.3-14.6L27.5,72.2z"/>
			</g>
		</g>
		<g>
			<g>
				<g>
					<path class="st6" d="M22.3,70.8c0,0-0.2-0.1-0.4-0.3c-0.2-0.2-0.6-0.6-0.8-1.2c-0.3-0.6-0.5-1.4-0.3-2.3
						c0.1-0.9,0.6-1.9,1.4-2.6l0.2,0.3c-0.9,0.4-1.9,0.9-3.1,0.9c-1.2,0.1-2.5-0.3-3.3-1.4c-0.1-0.1-0.1-0.2-0.1-0.2l-0.1-0.1
						l0.1-0.1c1.6-1,3.2-2,4.6-2.9c0.4-0.2,0.7-0.4,1.1-0.6c0.4-0.1,0.8-0.2,1.2-0.1c0.8,0.2,1.3,0.7,1.8,1.1c0.4,0.5,0.7,1,1,1.3
						c0.3,0.4,0.5,0.7,0.8,0.9c0.5,0.5,0.9,0.6,0.9,0.6c0,0-0.1,0-0.3-0.1c-0.2-0.1-0.4-0.2-0.7-0.4c-0.3-0.2-0.6-0.5-0.9-0.9
						c-0.3-0.4-0.6-0.9-1-1.3c-0.4-0.4-0.9-0.9-1.6-1c-0.7-0.2-1.4,0.2-2.1,0.7c-1.4,0.9-2.9,1.9-4.5,2.9l0.1-0.2
						c0,0.1,0.1,0.1,0.1,0.2c0.6,0.9,1.9,1.3,2.9,1.2c1.1-0.1,2.1-0.5,3-0.9l1-0.5l-0.8,0.7c-0.8,0.7-1.3,1.6-1.4,2.4
						c-0.1,0.8,0,1.6,0.2,2.2C21.7,70.3,22.4,70.7,22.3,70.8z"/>
				</g>
			</g>
		</g>
		<g>
			<g>
				<g>
					<path class="st6" d="M19.3,65.5c0,0,0.1,0.1,0.2,0.3c0.1,0.2,0.3,0.5,0.4,0.9c0.1,0.4,0,1-0.5,1.4c-0.3,0.2-0.7,0.2-1,0.1
						c-0.3-0.1-0.6-0.3-0.9-0.5c-2-1.6-3.6-3-3.5-3.1c0.1-0.1,1.7,1.2,3.7,2.8c0.5,0.4,1.1,0.6,1.5,0.4c0.4-0.3,0.5-0.8,0.5-1.1
						c0-0.4-0.2-0.7-0.3-0.9C19.3,65.6,19.2,65.5,19.3,65.5z"/>
				</g>
			</g>
		</g>
		<g>
			<g>
				<g>
					<path class="st6" d="M17.5,62.9c-0.1,0.1-0.6-0.4-1.3-0.8c-0.7-0.4-1.4-0.5-1.4-0.6c0-0.1,0.8-0.2,1.6,0.2
						C17.2,62.2,17.6,62.8,17.5,62.9z"/>
				</g>
			</g>
		</g>
		<g>
			<g>
				<g>
					<path class="st6" d="M20.3,60.8c-0.1,0.1-0.6-0.7-1.5-1.4c-0.4-0.4-0.9-0.7-1.2-0.8c-0.3-0.2-0.5-0.1-0.5-0.1
						c0,0,0-0.1,0.1-0.1c0.1-0.1,0.3,0,0.5,0c0.4,0.1,0.9,0.4,1.3,0.8C20,59.9,20.4,60.8,20.3,60.8z"/>
				</g>
			</g>
		</g>
	</g>
</g>
</svg>
