<?xml version="1.0" encoding="utf-8"?>
<!-- Generator: Adobe Illustrator 24.1.3, SVG Export Plug-In . SVG Version: 6.00 Build 0)  -->
<svg version="1.1" id="Слой_1" xmlns="http://www.w3.org/2000/svg" xmlns:xlink="http://www.w3.org/1999/xlink" x="0px" y="0px"
	 viewBox="0 0 96 96" style="enable-background:new 0 0 96 96;" xml:space="preserve">
<style type="text/css">
	.st0{fill:#E0E0E0;}
	.st1{fill:#FAFAFA;}
	.st2{fill:#7877A7;}
	.st3{fill:#263238;}
	.st4{fill:#351A03;}
	.st5{fill:#FFBE9D;}
	.st6{fill:#FFFFFF;}
	.st7{fill:#EB996E;}
	.st8{fill:#455A64;}
	.st9{fill:#F3CE63;}
	.st10{fill:#ECECEC;}
</style>
<g>
	<g>
		<ellipse class="st0" cx="48" cy="47" rx="48" ry="46"/>
	</g>
</g>
<g>
	<g>
		<polygon class="st0" points="17.7,75 15.3,81.6 15.3,81.6 		"/>
	</g>
</g>
<g>
	<g>
		<path class="st0" d="M13.7,66.4c0.4,1,1.1,2.4,1.7,3.7c0,0,0,0,0,0L13.7,66.4z"/>
	</g>
</g>
<g>
	<g>
		<path class="st0" d="M19.8,61.9c0.2,0,0.3,0.1,0.5,0.2c0.7-0.5,1.3-0.9,2-1.3c-0.1-0.2-0.2-0.5-0.4-0.7c-0.3-0.3-0.6-0.5-1-0.7
			c-0.6,0.7-1.2,1.5-1.6,2.4C19.5,61.9,19.7,61.9,19.8,61.9z"/>
	</g>
</g>
<g>
	<g>
		<path class="st0" d="M20.3,62.1C20.1,62,20,62,19.8,61.9c-0.1,0-0.3-0.1-0.4-0.1c-0.1,0.2-0.2,0.3-0.2,0.5
			c-0.1,0.3-0.3,0.6-0.4,0.9c0.1-0.1,0.2-0.2,0.3-0.3C19.5,62.7,19.9,62.4,20.3,62.1z"/>
	</g>
</g>
<g>
	<g>
		<path class="st0" d="M15.4,70.1c1.2,2.5,2.3,4.9,2.3,4.9L15.4,70.1C15.4,70.1,15.4,70.1,15.4,70.1z"/>
	</g>
</g>
<g>
	<g>
		<path class="st0" d="M18.8,63.3c-0.2,0.1-0.3,0.3-0.4,0.5c-0.1,0.2-0.2,0.4-0.2,0.6c0,0,0.1,0,0.1,0
			C18.4,63.9,18.6,63.6,18.8,63.3z"/>
	</g>
</g>
<g>
	<g>
		<path class="st0" d="M18.1,64.3c0,0.1,0,0.2,0,0.3c0-0.1,0.1-0.2,0.1-0.3C18.2,64.3,18.2,64.3,18.1,64.3z"/>
	</g>
</g>
<g>
	<g>
		<path class="st0" d="M21.5,69.4l0.9-4.2c-0.3,0.3-0.6,0.7-0.7,1.1C21.2,67.3,21.1,68.4,21.5,69.4z"/>
	</g>
</g>
<g>
	<g>
		<path class="st0" d="M21.1,62.9c0.2,0.6-0.3,1.2-0.9,1.4c-0.6,0.2-1.2,0.1-1.8,0c0,0,0,0,0,0c0,0.1-0.1,0.2-0.1,0.3
			c0,0,0,0.1,0,0.1c0.3,0.5,1,0.6,1.6,0.6c1-0.1,1.9-0.4,2.7-0.9l0.9-4.2c-0.4,0.2-0.7,0.4-1,0.6c0.1,0.2,0.1,0.4,0.1,0.5
			c0-0.2,0-0.4-0.1-0.5c-0.7,0.4-1.4,0.9-2,1.3C20.7,62.3,21,62.5,21.1,62.9z"/>
	</g>
</g>
<g>
	<g>
		<path class="st0" d="M23.8,64.2c-0.1-0.2-0.2-0.4-0.2-0.6c-0.3,0.3-0.7,0.5-1,0.8l-0.2,0.9C22.7,64.8,23.2,64.4,23.8,64.2z"/>
	</g>
</g>
<g>
	<g>
		<path class="st1" d="M16.9,65.7c0,0,0-0.8,0.1-1.9c0.1-1,0.2-1.9,0.2-1.9c0,0,0,0.8-0.1,1.9C17.1,64.8,17,65.7,16.9,65.7z"/>
	</g>
</g>
<g>
	<path class="st2" d="M80.1,60.7c-5.1-8.1-10.3-17.3-10.3-17.3c-4.6-5.8-8.3-7.8-15.5-8.1l0,0l-14-0.1c-2.8,0.2-9.2-1.3-15.1,7.5
		l0,0c0,0-5.3,9.1-10.3,17.3c-5.7,9.1-2.3,18.6,3.8,19.2c6.1,0.6,9.9,0.7,12,0.8L30.5,84L63,83.9l-0.3-4.6c3.3,0,12.3,0,13.6-0.2
		C82.4,78.4,85.8,69.8,80.1,60.7z M31.1,58.8l-0.2,9.5l-5.7,0L31.1,58.8z M63.3,69l0.9-9l5.6,9L63.3,69z"/>
</g>
<g>
	<g>
		<path class="st3" d="M53.8,34.8c0,0,0,0.1,0,0.2c0,0.1,0,0.3,0,0.6c0,0.3-0.1,0.6-0.2,0.9c-0.1,0.4-0.2,0.8-0.4,1.2
			c-0.4,0.9-1,1.8-1.9,2.6c-0.9,0.8-2.2,1.4-3.6,1.5c-1.4,0.1-2.7-0.3-3.7-1c-1-0.7-1.7-1.7-2.1-2.5c-0.4-0.9-0.6-1.6-0.6-2.1
			c0-0.3,0-0.5,0-0.6c0-0.1,0-0.2,0-0.2c0,0,0,0.1,0,0.2c0,0.1,0,0.3,0.1,0.6c0.1,0.5,0.3,1.3,0.7,2.1c0.4,0.8,1.1,1.7,2.1,2.4
			c1,0.7,2.3,1.1,3.7,1c1.4-0.1,2.6-0.6,3.5-1.4c0.9-0.8,1.5-1.7,1.9-2.6c0.2-0.4,0.3-0.8,0.4-1.2c0.1-0.4,0.2-0.7,0.2-0.9
			c0-0.3,0.1-0.5,0.1-0.6C53.8,34.9,53.8,34.8,53.8,34.8z"/>
	</g>
</g>
<g>
	<g>
		<path class="st3" d="M64.1,61.3c0,0,0.1-3.9,0.3-8.7c0.2-4.8,0.4-8.7,0.4-8.7c0,0-0.1,3.9-0.3,8.7C64.3,57.4,64.1,61.3,64.1,61.3z
			"/>
	</g>
</g>
<g>
	<g>
		<path class="st3" d="M31.8,43.9c0,0,0,0.1,0,0.2c0,0.1,0,0.3,0,0.4c0,0.4,0,0.9,0,1.6c0,1.4,0,3.3-0.1,5.4c-0.1,2.1-0.2,4-0.4,5.4
			c-0.1,0.7-0.1,1.2-0.2,1.6c0,0.2,0,0.3-0.1,0.4c0,0.1,0,0.2,0,0.2c0,0,0-0.1,0-0.2c0-0.1,0-0.3,0-0.4c0-0.4,0.1-1,0.1-1.6
			c0.1-1.4,0.2-3.3,0.3-5.4c0.1-2.1,0.1-4,0.2-5.4c0-0.7,0-1.2,0-1.6c0-0.2,0-0.3,0-0.4C31.8,44,31.8,43.9,31.8,43.9z"/>
	</g>
</g>
<g>
	<g>
		<path class="st3" d="M61.5,79c0,0,0-0.1,0-0.2c0-0.1,0-0.3-0.1-0.6c0-0.5-0.1-1.2-0.2-2.1c-0.1-1.8-0.3-4.3-0.5-7.1l0-0.1l0.1,0
			c1,0,2.1,0,3.2,0.1c3.5,0.1,6.7,0.1,9.1,0.2c1.2,0,2.1,0.1,2.7,0.1c0.3,0,0.6,0,0.7,0c0.1,0,0.1,0,0.2,0c0,0,0.1,0,0.1,0
			c0,0,0,0-0.1,0c-0.1,0-0.1,0-0.2,0c-0.2,0-0.4,0-0.7,0c-0.7,0-1.6,0-2.7,0c-2.3,0-5.5-0.1-9.1-0.1c-1.1,0-2.2,0-3.2-0.1l0.1-0.1
			c0.2,2.9,0.4,5.4,0.5,7.1c0.1,0.9,0.1,1.6,0.1,2.1c0,0.2,0,0.4,0,0.6C61.5,78.9,61.5,79,61.5,79z"/>
	</g>
</g>
<g>
	<g>
		<path class="st3" d="M75.5,67.4c0,0-0.4,0-0.9,0c-0.6,0-1.3,0.1-2.2,0.4c-0.8,0.3-1.5,0.6-2,0.9c-0.5,0.3-0.8,0.5-0.8,0.5
			c0,0,0.1-0.1,0.2-0.2c0.1-0.1,0.3-0.2,0.5-0.4c0.5-0.3,1.2-0.7,2-1c0.8-0.3,1.6-0.4,2.2-0.4c0.3,0,0.5,0,0.7,0
			C75.5,67.3,75.5,67.3,75.5,67.4z"/>
	</g>
</g>
<g>
	<g>
		<path class="st3" d="M32.5,80C32.5,80,32.5,80,32.5,80c0-0.1,0-0.2,0-0.2c0-0.2,0-0.4,0.1-0.7c0.1-0.6,0.2-1.4,0.3-2.5
			c0.3-2.1,0.7-5,1.1-8.3l0.1,0.1c-0.6,0-1.1,0-1.7,0c-3.6,0-6.8,0-9.2,0c-1.2,0-2.1,0-2.8,0c-0.3,0-0.6,0-0.8,0c-0.1,0-0.1,0-0.2,0
			c0,0-0.1,0-0.1,0c0,0,0,0,0.1,0c0.1,0,0.1,0,0.2,0c0.2,0,0.4,0,0.8,0c0.7,0,1.6,0,2.8,0c2.4,0,5.6-0.1,9.2-0.1c0.6,0,1.2,0,1.7,0
			l0.1,0l0,0.1c-0.5,3.3-0.9,6.2-1.2,8.3c-0.2,1-0.3,1.9-0.4,2.5c0,0.3-0.1,0.5-0.1,0.7C32.5,79.8,32.5,79.9,32.5,80
			C32.5,80,32.5,80,32.5,80z"/>
	</g>
</g>
<g>
	<g>
		<path class="st3" d="M25.1,68.5c0,0-0.2-0.2-0.5-0.4c-0.3-0.3-0.7-0.7-1.1-1.2c-0.4-0.5-0.7-1-1-1.3c-0.2-0.3-0.4-0.6-0.3-0.6
			c0,0,0.2,0.2,0.4,0.5c0.2,0.3,0.6,0.8,1,1.3c0.4,0.5,0.8,0.9,1,1.2C24.9,68.3,25.1,68.4,25.1,68.5z"/>
	</g>
</g>
<g>
	<g>
		<path class="st1" d="M39.6,46.5c0,0-0.5-0.9-1-2c-0.5-1.1-0.9-2-0.9-2c0,0,0.5,0.9,1,2C39.2,45.5,39.6,46.4,39.6,46.5z"/>
	</g>
</g>
<g>
	<g>
		<path class="st1" d="M53.5,46.3c0,0-0.2,0.2-0.5,0.5c-0.3,0.3-0.8,0.7-1.3,1.1c-0.5,0.4-1.1,0.7-1.4,1c-0.4,0.2-0.6,0.3-0.6,0.3
			c0,0,0.2-0.2,0.6-0.4c0.4-0.2,0.9-0.6,1.4-1c0.5-0.4,1-0.8,1.3-1.1C53.3,46.4,53.5,46.2,53.5,46.3z"/>
	</g>
</g>
<g>
	<g>
		<path class="st1" d="M60.2,45c0,0-0.7-0.8-1.4-1.8c-0.8-1-1.3-1.9-1.3-1.9c0,0,0.7,0.8,1.4,1.8C59.6,44.1,60.2,45,60.2,45z"/>
	</g>
</g>
<g>
	<g>
		<path class="st1" d="M59.7,54.1c0,0-0.6,0.4-1.5,0.9c-0.8,0.5-1.5,0.8-1.5,0.8c0,0,0.6-0.4,1.5-0.9C59,54.4,59.7,54,59.7,54.1z"/>
	</g>
</g>
<g>
	<g>
		<path class="st1" d="M59.7,54.1c0,0-0.6,0.4-1.5,0.9c-0.8,0.5-1.5,0.8-1.5,0.8c0,0,0.6-0.4,1.5-0.9C59,54.4,59.7,54,59.7,54.1z"/>
	</g>
</g>
<g>
	<g>
		<path class="st1" d="M69.4,54.8c0,0,0-1.1,0-2.5c0-1.4,0.1-2.5,0.1-2.5c0,0,0,1.1,0,2.5C69.5,53.7,69.4,54.8,69.4,54.8z"/>
	</g>
</g>
<g>
	<g>
		<path class="st1" d="M73.4,61.8c0,0-1.1,0.1-2.5,0.2c-1.4,0.1-2.5,0.1-2.5,0.1c0,0,1.1-0.1,2.5-0.2C72.2,61.8,73.4,61.8,73.4,61.8
			z"/>
	</g>
</g>
<g>
	<g>
		<path class="st1" d="M79.9,67c0,0-0.1-1.1-0.2-2.5c-0.1-1.4-0.1-2.5-0.1-2.5c0,0,0.1,1.1,0.2,2.5C79.8,65.9,79.9,67,79.9,67z"/>
	</g>
</g>
<g>
	<g>
		<path class="st1" d="M77.1,73.6c0,0-0.8,0.9-1.8,1.9c-1,1-1.9,1.8-1.9,1.8c0,0,0.8-0.9,1.8-1.9C76.3,74.4,77.1,73.6,77.1,73.6z"/>
	</g>
</g>
<g>
	<g>
		<path class="st1" d="M66.4,75.7c0,0-0.2-0.1-0.5-0.2c-0.3-0.2-0.6-0.4-1-0.7c-0.3-0.3-0.6-0.7-0.8-1c-0.2-0.3-0.3-0.5-0.2-0.5
			c0,0,0.4,0.7,1.1,1.3C65.7,75.3,66.4,75.6,66.4,75.7z"/>
	</g>
</g>
<g>
	<g>
		<path class="st1" d="M38.1,52.3c0,0-0.7,0.7-1.6,1.5c-0.9,0.8-1.7,1.5-1.7,1.4c0,0,0.7-0.7,1.6-1.5C37.3,52.9,38.1,52.3,38.1,52.3
			z"/>
	</g>
</g>
<g>
	<g>
		<path class="st1" d="M45,55.8c0,0-0.4-0.4-0.7-1.1c-0.3-0.7-0.4-1.2-0.3-1.2c0,0,0.2,0.5,0.4,1.2C44.7,55.3,45,55.8,45,55.8z"/>
	</g>
</g>
<g>
	<g>
		<path class="st1" d="M33,38c0,0-0.9,0.8-2.1,1.8c-1.2,1-2.1,1.7-2.1,1.7c0,0,0.9-0.8,2.1-1.8C32,38.8,32.9,38,33,38z"/>
	</g>
</g>
<g>
	<g>
		<path class="st1" d="M28.2,51.6c0,0-0.3-0.8-0.8-1.8c-0.5-1-0.9-1.8-0.9-1.8c0,0,0.2,0.2,0.3,0.5c0.2,0.3,0.4,0.7,0.7,1.3
			c0.2,0.5,0.4,1,0.5,1.3C28.2,51.3,28.2,51.6,28.2,51.6z"/>
	</g>
</g>
<g>
	<g>
		<path class="st1" d="M26.2,57.3c0,0-0.2,0.1-0.6,0.3c-0.4,0.1-0.9,0.3-1.6,0.4c-0.6,0.1-1.2,0.1-1.6,0.1c-0.4,0-0.7,0-0.7,0
			c0,0,0.3,0,0.7,0c0.4,0,1-0.1,1.6-0.2c0.6-0.1,1.2-0.3,1.6-0.4C26,57.3,26.2,57.2,26.2,57.3z"/>
	</g>
</g>
<g>
	<g>
		<path class="st1" d="M21,71.6c0,0-0.9,0.7-2.1,1.5c-1.2,0.8-2.2,1.4-2.2,1.4c0,0,0.9-0.7,2.1-1.5C20,72.2,21,71.6,21,71.6z"/>
	</g>
</g>
<g>
	<g>
		<path class="st1" d="M27.8,76.8c0,0-0.5-1.3-1.1-3c-0.6-1.7-1-3-1-3.1s0.5,1.3,1.1,3C27.4,75.4,27.8,76.8,27.8,76.8z"/>
	</g>
</g>
<g>
	<g>
		<path class="st1" d="M35.1,66c0,0-0.4-0.7-0.8-1.6c-0.4-0.9-0.7-1.7-0.7-1.7c0,0,0.4,0.7,0.8,1.6C34.8,65.2,35.1,66,35.1,66z"/>
	</g>
</g>
<g>
	<g>
		<path class="st1" d="M62.6,61.3c0,0-0.1,0.2-0.2,0.6c-0.1,0.4-0.3,0.8-0.5,1.4c-0.2,0.5-0.4,1-0.5,1.4c-0.1,0.4-0.2,0.6-0.2,0.6
			c0,0,0-0.2,0.1-0.6c0.1-0.4,0.3-0.9,0.5-1.4c0.2-0.5,0.4-1,0.6-1.4C62.4,61.5,62.6,61.3,62.6,61.3z"/>
	</g>
</g>
<g>
	<g>
		<path class="st1" d="M39.5,82.2c0,0-0.3,0-0.7,0c-0.4,0-1,0-1.6,0.1c-0.6,0.1-1.2,0.2-1.6,0.3c-0.4,0.1-0.7,0.2-0.7,0.1
			c0,0,0.2-0.1,0.6-0.2c0.4-0.1,1-0.3,1.6-0.3c0.6-0.1,1.2-0.1,1.7,0C39.2,82.2,39.5,82.2,39.5,82.2z"/>
	</g>
</g>
<g>
	<g>
		<path class="st1" d="M46.1,82.7c0,0-0.4-0.7-1.1-1.5c-0.6-0.8-1.3-1.3-1.2-1.3c0,0,0.2,0.1,0.4,0.3c0.3,0.2,0.6,0.5,0.9,0.9
			c0.3,0.4,0.6,0.8,0.7,1.1C46.1,82.5,46.1,82.7,46.1,82.7z"/>
	</g>
</g>
<g>
	<g>
		<path class="st1" d="M53.5,80.7c0,0-0.7,0.5-1.5,1c-0.9,0.5-1.6,0.9-1.6,0.9c0,0,0.7-0.5,1.5-1C52.8,81.1,53.5,80.7,53.5,80.7z"/>
	</g>
</g>
<g>
	<g>
		<path class="st1" d="M61.3,82.4c0,0-0.5,0-1.1-0.1c-0.6-0.1-1.1-0.1-1.1-0.2c0,0,0.5,0,1.1,0.1C60.8,82.2,61.3,82.3,61.3,82.4z"/>
	</g>
</g>
<g>
	<path class="st4" d="M51.9,17.2c-0.1,0.4,0.1,0.9,0.4,1.2c0.3,0.3,0.8,0.3,1.2,0.1c0.7-0.4,0.7-1.5,0.5-2.3
		c-0.2-0.8-0.5-1.7-0.2-2.5c0.2-0.6,0.8-1,1.2-1.5c0.7-0.9,1-2,0.8-3.1c-0.2-1.1-1.1-2-2.2-2.3c-1.1-0.2-2.4,0.2-3.2-0.6
		c-0.6-0.5-0.7-1.5-1.2-2.2c-0.7-1-2.2-1.1-3.4-0.9c-1.2,0.2-2.4,0.7-3.7,0.5c-1-0.2-1.9-0.9-2.8-1.3c-2.1-0.9-4.7-0.2-6.1,1.6
		c-1.5,1.8-1.7,4.6-0.5,6.6c0.4,0.7,1,1.4,1.8,1.6"/>
</g>
<g>
	<g>
		<g>
			<g>
				<path class="st5" d="M47.7,41.1L47.7,41.1c-3.4,0.3-6.4-2.3-6.7-5.9c-0.2-2-0.3-3.7-0.3-3.7s-5-0.4-5.4-5.5
					C35,20.9,35.1,9.8,35.1,9.8l0-0.7c5.5-3,12.1-2,17.3,1.5l0.1,1.1l1,22.9C53.5,38,51,40.9,47.7,41.1z"/>
			</g>
			<g>
				<g>
					<path class="st3" d="M37.5,17.8c0.6-0.3,0.6-1.1,0-1.4c-0.2-0.1-0.3-0.1-0.5,0c-0.6,0.3-0.6,1.1,0,1.4
						C37.1,17.9,37.3,17.9,37.5,17.8z"/>
				</g>
				<g>
					<g>
						<path class="st3" d="M35.7,16.7c0.1,0.1,0.5-0.3,1.2-0.4c0.7-0.1,1.2,0.3,1.3,0.2c0,0-0.1-0.2-0.3-0.4c-0.2-0.2-0.6-0.3-1-0.3
							c-0.4,0-0.8,0.2-1,0.4C35.7,16.5,35.7,16.7,35.7,16.7z"/>
					</g>
				</g>
			</g>
			<g>
				<g>
					<path class="st3" d="M43.9,16.6c-0.3,0.2-0.4,0.7-0.2,1c0.2,0.3,0.7,0.4,1,0.2c0.3-0.2,0.4-0.7,0.2-1
						C44.6,16.4,44.2,16.4,43.9,16.6z"/>
				</g>
				<g>
					<g>
						<path class="st3" d="M42.9,16.8c0.1,0.1,0.5-0.3,1.2-0.4c0.7-0.1,1.2,0.3,1.3,0.2c0,0-0.1-0.2-0.3-0.3c-0.2-0.2-0.6-0.3-1-0.3
							c-0.4,0-0.8,0.2-1,0.4C42.9,16.6,42.9,16.8,42.9,16.8z"/>
					</g>
				</g>
			</g>
			<g>
				<g>
					<path class="st3" d="M40.6,22.8c0-0.1-0.4-0.1-1.1-0.2c-0.2,0-0.3,0-0.3-0.1c0-0.1,0-0.3,0.1-0.5c0.1-0.5,0.3-1,0.4-1.5
						c0.6-2.1,1-3.8,0.9-3.8c-0.1,0-0.7,1.6-1.3,3.7c-0.1,0.5-0.3,1-0.4,1.5c-0.1,0.2-0.2,0.5,0,0.8c0.1,0.1,0.2,0.2,0.3,0.3
						c0.1,0,0.2,0,0.3,0C40.2,22.9,40.6,22.9,40.6,22.8z"/>
				</g>
			</g>
			<g>
				<path class="st6" d="M42.8,23.5c0.7-0.5-1.9,1.2-3.2,1.2c0,0,0.9,1.3,2.3,0.6C43.3,24.6,42.8,23.5,42.8,23.5z"/>
			</g>
			<g>
				<path class="st7" d="M40.8,31.5c0,0,3.1,0,6.3-2.4c0,0-1.3,3.8-6.2,3.7L40.8,31.5z"/>
			</g>
		</g>
	</g>
	<g>
		<g>
			<path class="st5" d="M52.4,15.2c0.1,0,3.6-0.6,3.3,3.8c-0.3,4.3-4.4,2.6-4.4,2.5C51.3,21.3,52.4,15.2,52.4,15.2z"/>
		</g>
		<g>
			<g>
				<path class="st7" d="M52.7,20c0,0,0.1,0.1,0.2,0.1c0.1,0.1,0.3,0.1,0.5,0.1c0.5-0.1,0.9-0.8,0.9-1.6c0-0.4,0-0.8-0.1-1.1
					c-0.1-0.3-0.3-0.6-0.5-0.6c-0.2-0.1-0.4,0.1-0.4,0.2c-0.1,0.1,0,0.2-0.1,0.2c0,0-0.1-0.1,0-0.3c0-0.1,0.1-0.2,0.2-0.3
					c0.1-0.1,0.3-0.1,0.4-0.1c0.3,0,0.6,0.4,0.7,0.7c0.1,0.4,0.2,0.8,0.2,1.2c-0.1,0.9-0.6,1.7-1.2,1.8c-0.3,0.1-0.5-0.1-0.7-0.2
					C52.7,20.1,52.7,20,52.7,20z"/>
			</g>
		</g>
	</g>
</g>
<g>
	<g>
		<path class="st3" d="M45.8,14.1c-0.1,0.2-0.8-0.2-1.8-0.2c-1,0-1.7,0.4-1.8,0.2c0-0.1,0.1-0.3,0.4-0.5c0.3-0.2,0.8-0.4,1.4-0.4
			c0.6,0,1.1,0.2,1.4,0.4C45.7,13.8,45.8,14,45.8,14.1z"/>
	</g>
</g>
<g>
	<g>
		<path class="st3" d="M38.1,14.4c0,0.2-0.6,0.2-1.2,0.2c-0.6,0-1.1,0-1.2-0.2c-0.1-0.2,0.5-0.5,1.2-0.5
			C37.6,13.9,38.1,14.2,38.1,14.4z"/>
	</g>
</g>
<g>
	<g>
		<path class="st4" d="M34,12c0,0,3,1.4,6.8-0.8c2.5-1.4,5.4-2.2,6.1-1.7c0.7,0.5,0.9,3.2,3.4,3.9c0,0,0,5.2,2,4.9
			c2-0.3,0.4-8.2,0.4-8.2l-4.7-3.2l-5.3-0.8L37,7l-3.2,2.2L34,12z"/>
	</g>
	<g>
		<g>
			<path class="st4" d="M53,5.8c0,0-0.5,0-1.1,0.3C51.3,6.3,51,6.8,51,6.7c0,0,0-0.1,0.2-0.3c0.1-0.2,0.4-0.4,0.7-0.5
				c0.3-0.1,0.6-0.2,0.8-0.2C52.8,5.8,53,5.8,53,5.8z"/>
		</g>
	</g>
	<g>
		<g>
			<path class="st4" d="M50.9,3.9c0,0,0.1,0.2,0.1,0.5c0,0.3,0.1,0.7,0,1.2c0,0.5-0.2,0.8-0.3,1.1C50.6,6.9,50.5,7,50.5,7
				c0,0,0.1-0.2,0.2-0.4c0.1-0.3,0.2-0.7,0.2-1.1c0-0.4,0-0.8,0-1.1C50.9,4,50.8,3.9,50.9,3.9z"/>
		</g>
	</g>
</g>
<g>
	<g>
		<path class="st8" d="M50.7,6.1c0,0,0,0,0,0.1c0,0.1-0.1,0.2-0.1,0.4c-0.1,0.3-0.4,0.8-1,1.2c-0.3,0.2-0.6,0.4-1,0.5
			c-0.4,0.1-0.9,0.1-1.3,0c-0.5-0.1-0.9-0.3-1.4-0.7c-0.4-0.4-0.8-0.9-0.9-1.5c-0.1-0.3-0.1-0.6-0.1-1c0.1-0.3,0.2-0.7,0.4-0.9
			c0.2-0.2,0.6-0.4,0.9-0.4c0.4,0,0.7,0.2,0.9,0.6c0.2,0.3,0.3,0.7,0.3,1.1c0,0.4-0.2,0.8-0.4,1.1c-0.5,0.6-1.1,1.1-1.9,1.4
			c-0.7,0.3-1.6,0.4-2.4,0.3c-0.8-0.1-1.7-0.4-2.4-0.9c-0.4-0.3-0.7-0.6-0.9-1c-0.1-0.2-0.2-0.4-0.2-0.7c0-0.2,0-0.5,0-0.7
			c0.1-0.2,0.2-0.5,0.3-0.6c0.1-0.2,0.3-0.3,0.6-0.4c0.5-0.2,1,0,1.3,0.3c0.4,0.3,0.7,0.7,0.8,1.1c0.2,0.4,0.2,0.9,0.1,1.4
			C42.3,7.8,41.7,8.5,41,9c-0.8,0.5-1.7,0.6-2.5,0.4c-0.8-0.1-1.6-0.5-2.2-1c-0.3-0.3-0.6-0.6-0.7-1c-0.2-0.4-0.2-0.8-0.2-1.2
			c0.1-0.4,0.2-0.8,0.5-1c0.3-0.3,0.7-0.4,1-0.4c0.4,0.1,0.7,0.3,0.9,0.6C38,5.8,38,6.1,38,6.5c0,0.7-0.4,1.3-1,1.6
			c-0.5,0.3-1.1,0.4-1.7,0.4c-0.5-0.1-1-0.2-1.5-0.5c-0.8-0.5-1.3-1.3-1.4-2c-0.1-0.7,0.2-1.2,0.4-1.5c0.1-0.1,0.2-0.2,0.3-0.3
			c0.1-0.1,0.1-0.1,0.1-0.1c0,0-0.2,0.1-0.4,0.4c-0.2,0.3-0.5,0.8-0.4,1.5C32.7,6.7,33.2,7.5,34,8c0.4,0.2,0.9,0.4,1.4,0.5
			c0.5,0,1.1,0,1.6-0.4c0.5-0.3,0.9-0.9,0.9-1.6c0-0.3-0.1-0.7-0.2-1C37.5,5.2,37.2,5,36.9,5c-0.3,0-0.7,0.1-0.9,0.3
			c-0.3,0.2-0.4,0.6-0.5,1c0,0.4,0,0.8,0.2,1.1c0.1,0.4,0.4,0.7,0.7,0.9c0.6,0.5,1.4,0.8,2.2,1c0.8,0.1,1.7,0,2.4-0.4
			c0.7-0.4,1.3-1.2,1.5-2.1c0.1-0.4,0-0.9-0.1-1.3c-0.2-0.4-0.4-0.8-0.8-1.1c-0.4-0.3-0.8-0.4-1.2-0.2c-0.2,0.1-0.4,0.2-0.5,0.4
			c-0.1,0.2-0.2,0.4-0.3,0.6c-0.1,0.2-0.1,0.4,0,0.7c0,0.2,0.1,0.4,0.2,0.6c0.2,0.4,0.5,0.7,0.9,1c0.7,0.5,1.5,0.8,2.3,0.9
			c0.8,0.1,1.6,0,2.4-0.3c0.7-0.3,1.4-0.7,1.8-1.3c0.2-0.3,0.4-0.7,0.4-1c0-0.4-0.1-0.7-0.3-1C46.9,4.2,46.6,4,46.2,4
			c-0.3,0-0.6,0.1-0.9,0.4C45.2,4.6,45,4.9,45,5.2c-0.1,0.3,0,0.6,0,0.9c0.1,0.6,0.5,1.1,0.9,1.5c0.4,0.4,0.9,0.6,1.3,0.7
			c0.5,0.1,0.9,0.1,1.3,0c0.4-0.1,0.7-0.3,1-0.5c0.5-0.4,0.8-0.9,1-1.2c0.1-0.2,0.1-0.3,0.1-0.4C50.6,6.1,50.7,6.1,50.7,6.1z"/>
	</g>
</g>
<g>
	<g>
		<path class="st8" d="M55.5,11.2C55.5,11.2,55.5,11.2,55.5,11.2c-0.1,0.1-0.1,0.1-0.1,0.1c-0.1,0.1-0.3,0.2-0.5,0.3
			c-0.2,0.1-0.5,0.2-0.9,0.2c-0.3,0-0.7-0.1-1.1-0.4c-0.4-0.3-0.7-0.6-0.8-1.2c-0.1-0.2-0.1-0.5-0.1-0.8c0-0.1,0.1-0.3,0.2-0.4
			c0.1-0.1,0.3-0.1,0.4-0.1C52.9,9,53,9.1,53.1,9.3c0.1,0.1,0.1,0.3,0.1,0.5c0,0.3-0.1,0.6-0.2,0.9c-0.3,0.6-0.8,1.1-1.5,1.1
			c-0.7,0.1-1.3-0.2-1.7-0.7c-0.2-0.2-0.3-0.6-0.3-0.9c0.1-0.3,0.3-0.6,0.6-0.6c0.3,0,0.6,0.1,0.8,0.3c0.2,0.2,0.2,0.5,0.2,0.8
			c0,0.5-0.3,1-0.6,1.3c-0.3,0.3-0.7,0.4-1.1,0.4c-0.3,0-0.6-0.2-0.8-0.3c-0.2-0.1-0.3-0.3-0.4-0.4c-0.1-0.1-0.1-0.2-0.1-0.2
			c0,0,0.1,0.3,0.5,0.5c0.2,0.1,0.5,0.3,0.8,0.3c0.3,0,0.7-0.1,1-0.4c0.3-0.3,0.6-0.7,0.6-1.2c0-0.2-0.1-0.5-0.2-0.7
			c-0.2-0.2-0.4-0.3-0.7-0.3c-0.3,0-0.5,0.3-0.5,0.5c-0.1,0.3,0,0.6,0.2,0.8c0.4,0.5,1,0.7,1.6,0.6c0.6-0.1,1.2-0.5,1.4-1.1
			C53,10.3,53,10,53,9.7c0-0.3-0.1-0.6-0.3-0.7c-0.1-0.1-0.2,0-0.3,0c-0.1,0.1-0.2,0.2-0.2,0.3c-0.1,0.3,0,0.5,0.1,0.8
			c0.1,0.5,0.4,0.9,0.8,1.1c0.3,0.3,0.7,0.4,1,0.4c0.3,0,0.6,0,0.8-0.1C55.3,11.4,55.5,11.1,55.5,11.2z"/>
	</g>
</g>
<path class="st2" d="M63,84c0.6,2,0.2,4.3-1,6c-1,1.5-3.2,3.1-15.5,3c-9.9-0.1-14.9-0.2-16.5-3c-1.5-2.6-0.3-6.1,1-8
	c3.5-5.4,11.4-5.1,15.5-5C48.5,77.1,61,77.4,63,84z"/>
<g>
	<polygon class="st9" points="37.2,62.9 58,63.3 58.2,78 36.7,77.3 	"/>
</g>
<g>
	<polyline class="st3" points="37.2,62.9 48,54.3 58,63.3 	"/>
</g>
<g>
	<g>
		<path class="st3" d="M36.7,77.3c0,0,1.7-1.9,3.8-4.1c2.1-2.3,3.9-4.1,3.9-4c0,0-1.7,1.9-3.8,4.1C38.5,75.5,36.7,77.3,36.7,77.3z"
			/>
	</g>
</g>
<g>
	<g>
		<path class="st3" d="M58.2,78c0,0-1.6-1.9-3.5-4.2c-1.9-2.4-3.5-4.3-3.4-4.3c0,0,1.6,1.9,3.5,4.2C56.7,76.1,58.2,78,58.2,78z"/>
	</g>
</g>
<g>
	<polyline class="st3" points="58,63.3 47.3,71.7 37.2,62.9 	"/>
</g>
<g>
	<polygon class="st10" points="38.2,63.7 38.3,57.4 56.6,57.4 56.6,64.3 47.3,71.6 	"/>
</g>
<g>
	<path class="st3" d="M42.8,64.4c0,0.1-0.1,0.1-0.1,0.1c0,0,0,0-0.1,0c0,0-0.1-0.1-0.1-0.1l0.3-2.3c0,0,0,0,0-0.1
		c0-0.1,0.1-0.1,0.1-0.1c0,0,0,0,0.1,0c0,0,0.1,0.1,0.1,0.1C42.9,63.5,42.8,64.3,42.8,64.4z"/>
	<path class="st3" d="M45,64.4c0,0.1-0.1,0.1-0.1,0.1c-0.1,0-0.1,0-0.1-0.1l-0.8-2c0,0.1,0,0.2,0,0.3c-0.1,0.9-0.2,1.5-0.2,1.6
		c0,0.1-0.1,0.1-0.1,0.1c0,0,0,0-0.1,0c0,0-0.1-0.1-0.1-0.1c0.2-1.6,0.3-2.3,0.3-2.3c0,0,0,0,0-0.1c0,0,0.1-0.1,0.1-0.1
		c0.1,0,0.1,0,0.1,0.1l0.8,1.9l0.3-1.9c0,0,0,0,0-0.1c0,0,0.1-0.1,0.1-0.1c0,0,0,0,0.1,0c0,0,0.1,0.1,0.1,0.1c0,0,0,0.1,0,0.1
		C45.1,63.5,45,64.3,45,64.4z"/>
	<path class="st3" d="M46.2,61.9C46.2,61.9,46.3,61.9,46.2,61.9c0.1,0,0.1,0.1,0.1,0.1c0,0.4-0.1,0.7-0.1,0.9
		c-0.1,0.5-0.1,0.8-0.1,0.9c0,0.3,0.1,0.4,0.2,0.4c0.3,0,0.5-0.1,0.7-0.4c0.2-0.2,0.3-0.5,0.4-0.8c-0.2,0-0.4-0.1-0.5-0.2
		c-0.1-0.1-0.2-0.3-0.2-0.5c0-0.1,0.1-0.3,0.2-0.4c0.1-0.1,0.2-0.1,0.3-0.1c0.2,0,0.3,0.1,0.4,0.2c0.1,0.1,0.2,0.3,0.2,0.5
		c0,0,0,0.1,0,0.2c0,0,0,0,0.1,0c0.1,0,0.1-0.1,0.2-0.1c0.1,0,0.1-0.1,0.2-0.1c0,0,0,0,0.1,0c0,0,0.1,0.1,0.1,0.1
		c0,0.1-0.1,0.1-0.2,0.2C48,62.9,47.9,63,47.7,63c0,0,0,0,0,0c-0.1,0.4-0.3,0.7-0.5,1c-0.3,0.4-0.6,0.5-1,0.5c-0.1,0-0.1,0-0.1,0
		c-0.2-0.1-0.3-0.3-0.3-0.7c0-0.2,0-0.5,0.1-0.8c0.1-0.3,0.1-0.6,0.1-0.7c-0.1,0.1-0.2,0.1-0.3,0.2c-0.1,0.1-0.2,0.1-0.2,0.1
		c0,0,0,0-0.1,0c0,0-0.1-0.1-0.1-0.1c0-0.1,0-0.1,0.1-0.1c0,0,0,0,0,0C45.9,62.1,46.1,61.9,46.2,61.9z M47,62.4c0,0.1,0,0.1,0,0.2
		c0.1,0.1,0.2,0.2,0.4,0.2c0-0.1,0-0.2,0-0.3c0-0.1,0-0.1,0-0.1c0-0.1-0.1-0.2-0.2-0.2c-0.1,0-0.1,0-0.1,0
		C47.1,62.3,47,62.3,47,62.4z"/>
	<path class="st3" d="M48.3,64.4c0,0.1-0.1,0.1-0.1,0.1c0,0,0,0-0.1,0c0,0-0.1-0.1-0.1-0.1l0.3-2.3c0,0,0,0,0-0.1
		c0-0.1,0.1-0.1,0.1-0.1c0,0,0,0,0.1,0c0,0,0.1,0.1,0.1,0.1C48.4,63.6,48.3,64.4,48.3,64.4z"/>
	<path class="st3" d="M50.9,62.1C50.9,62.1,50.9,62.1,50.9,62.1c0,0.1-0.1,0.1-0.1,0.1l-0.7,0c-0.2,1.4-0.3,2.2-0.3,2.2c0,0,0,0,0,0
		c0,0.1-0.1,0.1-0.1,0.1c0,0,0,0-0.1,0c0,0-0.1-0.1-0.1-0.1c0,0,0.1-0.5,0.2-1.6c0-0.3,0.1-0.6,0.1-0.7l-0.7,0c0,0,0,0-0.1,0
		c-0.1,0-0.1-0.1-0.1-0.1c0,0,0-0.1,0-0.1c0,0,0.1-0.1,0.1-0.1l1.7,0c0,0,0,0,0,0C50.9,62,50.9,62,50.9,62.1z"/>
	<path class="st3" d="M51.3,62l1.1,0c0,0,0,0,0.1,0c0.1,0,0.1,0.1,0.1,0.1c0,0,0,0,0,0.1c0,0-0.1,0.1-0.1,0.1l-0.9,0l-0.1,0.9l0.7,0
		c0,0,0.1,0,0.1,0c0.1,0,0.1,0.1,0.1,0.1c0,0,0,0,0,0c0,0.1-0.1,0.1-0.1,0.1l-0.7,0l-0.1,0.9l0.9,0c0,0,0,0,0.1,0
		c0.1,0,0.1,0.1,0.1,0.1c0,0,0,0,0,0c0,0.1-0.1,0.1-0.1,0.1l-1.1,0c0,0-0.1,0-0.1,0c0,0-0.1-0.1-0.1-0.1c0,0,0.1-0.8,0.3-2.3
		c0,0,0,0,0,0C51.2,62,51.2,62,51.3,62z"/>
</g>
<g>
	<g>
		<path class="st5" d="M37,68.2c0,0-0.3,3.3,0.4,3.3c1.3,0,6.4-1.4,6.8-0.4c0.4,1-1.3,2-1.3,2s1.6,0.3,0.8,1.2
			c-0.8,0.9-3.5,5.2-5.3,5.3c-2.5,0.1-5.8-0.8-5.8-0.8l1.3-9.6L37,68.2z"/>
	</g>
	<g>
		<g>
			<path class="st7" d="M43.6,72.6c0,0-0.1,0.1-0.2,0.2c-0.1,0.1-0.4,0.2-0.6,0.4c-0.5,0.3-1.3,0.7-2.2,1c-0.9,0.3-1.7,0.5-2.3,0.6
				c-0.3,0.1-0.5,0.1-0.7,0.1c-0.2,0-0.3,0-0.3,0c0,0,0.4-0.1,1-0.2c0.6-0.1,1.4-0.4,2.3-0.7c0.9-0.3,1.6-0.7,2.2-1
				C43.2,72.8,43.5,72.6,43.6,72.6z"/>
		</g>
	</g>
	<g>
		<g>
			<path class="st7" d="M43.4,74.9c0,0-0.1,0.1-0.2,0.2c-0.1,0.1-0.3,0.3-0.5,0.5c-0.5,0.4-1.2,0.9-2,1.3c-0.9,0.4-1.7,0.6-2.3,0.7
				c-0.3,0-0.5,0.1-0.7,0.1c-0.2,0-0.3,0-0.3,0c0,0,0.4-0.1,1-0.2c0.6-0.1,1.4-0.3,2.3-0.7c0.8-0.4,1.6-0.8,2-1.2
				C43.1,75.2,43.4,74.9,43.4,74.9z"/>
		</g>
	</g>
</g>
<g>
	<g>
		<path class="st5" d="M58.1,68.1c0,0,0.3,2.7-0.7,3.1c-1.3,0.5-6.4-1.4-6.8-0.4c-0.4,1,1.3,2,1.3,2s-1.6,0.3-0.8,1.2
			c0.8,0.9,3.5,5.2,5.3,5.3c2.5,0.1,5.2-0.4,5.2-0.4l-0.7-10L58.1,68.1z"/>
	</g>
	<g>
		<g>
			<path class="st7" d="M51.2,72.4c0,0,0.3,0.2,0.9,0.5c0.5,0.3,1.3,0.6,2.2,1c0.9,0.3,1.7,0.5,2.3,0.7c0.6,0.1,1,0.2,1,0.2
				c0,0-0.1,0-0.3,0c-0.2,0-0.4-0.1-0.7-0.1c-0.6-0.1-1.4-0.3-2.3-0.6c-0.9-0.3-1.6-0.7-2.2-1c-0.3-0.2-0.5-0.3-0.6-0.4
				C51.3,72.4,51.2,72.4,51.2,72.4z"/>
		</g>
	</g>
	<g>
		<g>
			<path class="st7" d="M51.5,74.7c0,0,0.3,0.2,0.8,0.6c0.5,0.4,1.2,0.8,2,1.2c0.8,0.4,1.6,0.6,2.2,0.7c0.6,0.1,1,0.1,0.9,0.2
				c0,0-0.1,0-0.3,0c-0.2,0-0.4,0-0.7-0.1c-0.6-0.1-1.4-0.3-2.2-0.7c-0.8-0.4-1.5-0.9-2-1.3c-0.2-0.2-0.4-0.4-0.5-0.5
				C51.6,74.8,51.5,74.7,51.5,74.7z"/>
		</g>
	</g>
</g>
<path class="st2" d="M39,95"/>
<g>
	<g>
		<path class="st1" d="M38,81.1c0,0.1-1.4,1.1-3.3,2.2c-1.9,1.1-3.4,2-3.4,1.9c0-0.1,1.4-1.1,3.3-2.2C36.4,81.9,38,81,38,81.1z"/>
	</g>
</g>
<g>
	<g>
		<path class="st1" d="M50.7,89.8c-0.1,0-0.1-1.3,0-2.9c0.1-1.6,0.2-2.9,0.3-2.9c0.1,0,0.1,1.3,0,2.9C50.9,88.5,50.8,89.8,50.7,89.8
			z"/>
	</g>
</g>
<g>
	<g>
		<path class="st1" d="M59.6,82.5c0,0-0.8,0.9-1.8,1.9c-1,1-1.9,1.8-1.9,1.8c0,0,0.8-0.9,1.8-1.9C58.7,83.3,59.6,82.5,59.6,82.5z"/>
	</g>
</g>
<g>
	<g>
		<path class="st1" d="M43,87.7c0,0-0.3,0.2-0.8,0.3c-0.5,0.2-1.2,0.4-1.9,0.5c-0.8,0.1-1.5,0.2-2,0.2c-0.5,0-0.8,0-0.8-0.1
			c0,0,0.3,0,0.8-0.1c0.5,0,1.2-0.1,2-0.2c0.8-0.1,1.4-0.3,1.9-0.5C42.7,87.8,43,87.7,43,87.7z"/>
	</g>
</g>
<g>
	<g>
		<path class="st1" d="M46.3,81.2c0,0-1.1,0.1-2.5,0.2c-1.4,0.1-2.5,0.1-2.5,0.1c0,0,1.1-0.1,2.5-0.2C45.1,81.2,46.3,81.1,46.3,81.2
			z"/>
	</g>
</g>
</svg>
