<?xml version="1.0" encoding="iso-8859-1"?>
<!-- Generator: Adobe Illustrator 24.1.2, SVG Export Plug-In . SVG Version: 6.00 Build 0)  -->
<svg version="1.1" id="&#x421;&#x43B;&#x43E;&#x439;_1"
	 xmlns="http://www.w3.org/2000/svg" xmlns:xlink="http://www.w3.org/1999/xlink" x="0px" y="0px" viewBox="0 0 500 500"
	 enable-background="new 0 0 500 500" xml:space="preserve">
<g>
	<g>
		<g>
			<g>
				<g>
					<path fill="#E0E0E0" d="M407.9,391.7c0,0,0.1-0.1,0.4-0.4c0.3-0.3,0.7-0.6,1.2-1.1c0.5-0.5,1.2-1.1,2-1.8
						c0.4-0.4,0.8-0.7,1.3-1.1c0.4-0.4,0.9-0.9,1.4-1.4c1-1,2.1-2,3.3-3.2c1.2-1.2,2.4-2.5,3.8-4c1.4-1.4,2.7-3,4.2-4.7
						c1.5-1.7,3-3.5,4.5-5.5c1.6-1.9,3.1-4.1,4.7-6.2c0.8-1.1,1.6-2.3,2.4-3.4c0.8-1.2,1.6-2.4,2.4-3.6c0.8-1.3,1.6-2.5,2.4-3.8
						c0.4-0.6,0.8-1.3,1.2-2c0.4-0.7,0.8-1.4,1.2-2c0.8-1.4,1.6-2.7,2.4-4.2c0.8-1.4,1.5-2.9,2.3-4.4c0.8-1.5,1.5-3,2.3-4.6
						c0.7-1.6,1.5-3.1,2.2-4.7c0.7-1.6,1.4-3.2,2.1-4.9c0.7-1.7,1.3-3.4,2-5.1c2.6-6.9,4.9-14.2,6.8-21.8c1.8-7.6,3.1-15.2,4-22.6
						c0.2-1.8,0.4-3.7,0.6-5.5c0.1-1.8,0.3-3.6,0.4-5.4c0.2-1.8,0.2-3.6,0.2-5.3c0-1.7,0.2-3.5,0.1-5.2c0-1.7,0-3.4,0-5.1
						c0-1.7-0.1-3.3-0.2-4.9c0-0.8-0.1-1.6-0.1-2.4c0-0.8-0.1-1.6-0.2-2.4c-0.1-1.6-0.2-3.1-0.3-4.6c-0.1-1.5-0.3-3-0.5-4.4
						c-0.2-1.5-0.3-2.9-0.5-4.3c-0.4-2.8-0.8-5.5-1.3-8c-0.5-2.5-0.9-5-1.4-7.2c-0.5-2.3-0.9-4.4-1.5-6.4c-0.5-2-1-3.8-1.5-5.5
						c-0.5-1.7-1-3.2-1.4-4.6c-0.2-0.7-0.4-1.3-0.6-1.9c-0.2-0.6-0.4-1.2-0.6-1.7c-0.4-1-0.7-1.9-0.9-2.6c-0.2-0.7-0.4-1.2-0.5-1.6
						c-0.1-0.4-0.2-0.6-0.2-0.6s0.1,0.2,0.2,0.5c0.1,0.4,0.3,0.9,0.6,1.6c0.3,0.7,0.6,1.6,0.9,2.6c0.2,0.5,0.4,1.1,0.6,1.7
						c0.2,0.6,0.4,1.3,0.6,1.9c0.4,1.4,0.9,2.9,1.4,4.6c0.5,1.7,1,3.5,1.5,5.5c0.6,2,1,4.1,1.5,6.4c0.6,2.3,1,4.7,1.5,7.2
						c0.5,2.5,0.9,5.2,1.3,8c0.2,1.4,0.4,2.8,0.5,4.3c0.2,1.5,0.3,2.9,0.5,4.5c0.1,1.5,0.2,3.1,0.4,4.6c0.1,0.8,0.1,1.6,0.2,2.4
						c0,0.8,0.1,1.6,0.1,2.4c0.1,1.6,0.1,3.3,0.2,4.9c0,1.7,0,3.4,0,5.1c0,1.7-0.1,3.4-0.1,5.2c-0.1,1.8-0.1,3.5-0.2,5.3
						c-0.1,1.8-0.3,3.6-0.4,5.4c-0.2,1.8-0.4,3.7-0.6,5.5c-0.9,7.4-2.2,15-4,22.6c-1.9,7.6-4.2,14.9-6.8,21.8
						c-0.7,1.7-1.3,3.4-2,5.1c-0.7,1.7-1.4,3.3-2.1,4.9c-0.7,1.6-1.5,3.2-2.2,4.7c-0.8,1.5-1.5,3.1-2.3,4.6
						c-0.8,1.5-1.6,2.9-2.3,4.4c-0.8,1.4-1.6,2.8-2.4,4.2c-0.4,0.7-0.8,1.4-1.2,2c-0.4,0.7-0.8,1.3-1.2,2c-0.8,1.3-1.6,2.6-2.4,3.8
						c-0.8,1.2-1.7,2.4-2.5,3.6c-0.8,1.2-1.6,2.3-2.4,3.4c-1.7,2.2-3.2,4.3-4.8,6.2c-1.6,1.9-3,3.8-4.6,5.5
						c-1.5,1.7-2.8,3.3-4.2,4.7c-1.4,1.4-2.6,2.8-3.8,4c-1.2,1.2-2.3,2.2-3.3,3.2c-0.5,0.5-1,0.9-1.4,1.3c-0.5,0.4-0.9,0.8-1.3,1.1
						c-0.8,0.7-1.5,1.3-2,1.8c-0.5,0.5-1,0.8-1.2,1.1C408,391.6,407.9,391.7,407.9,391.7z"/>
				</g>
			</g>
		</g>
		<g>
			<g>
				<g>
					<g>
						<path fill="#E0E0E0" d="M439.1,359.3c-6.4-5.3-8.8-15.1-7.4-23.8c1.4-8.7,6-16.4,11.2-23.1c4.8,6.6,7.7,16.2,6.6,24.5
							C448.4,345.2,444.1,352.1,439.1,359.3"/>
					</g>
				</g>
				<g>
					<g>
						<path fill="#EBEBEB" d="M439.1,359.3c-1.1-8.7,3.6-17.5,10.2-22.5c6.6-5.1,14.8-7,22.9-7.7c-0.9,8.4-5.1,17.4-11.2,22.4
							C454.8,356.5,447.2,358,439.1,359.3"/>
					</g>
				</g>
			</g>
			<g>
				<g>
					<g>
						<path fill="#E0E0E0" d="M461.2,313.2c-6.1-3.5-9.4-11.3-9.4-18.9c0-7.5,2.8-14.7,6.3-21.2c4.9,4.8,8.6,12.4,8.8,19.6
							C467.1,299.9,464.3,306.4,461.2,313.2"/>
					</g>
				</g>
				<g>
					<g>
						<path fill="#EBEBEB" d="M461.1,313.2c-2.1-7.2,0.7-15.3,5.6-20.6c4.9-5.3,11.6-8.2,18.2-10.1c0.4,7.2-1.9,15.4-6.5,20.7
							C474,308.4,467.8,310.9,461.1,313.2"/>
					</g>
				</g>
			</g>
			<g>
				<g>
					<g>
						<path fill="#E0E0E0" d="M470.5,267c-5.6-0.8-10-5.9-11.9-11.6c-1.9-5.8-1.5-12.1-0.5-18.1c4.9,2.2,9.7,6.9,11.6,12.4
							C471.7,255,471.2,260.8,470.5,267"/>
					</g>
				</g>
				<g>
					<g>
						<path fill="#EBEBEB" d="M470.5,267c-3.4-4.9-3.3-11.9-0.9-17.4c2.4-5.5,6.8-9.7,11.4-13.2c2.1,5.4,2.4,12.4,0.2,17.7
							C479.1,259.5,475,263.2,470.5,267"/>
					</g>
				</g>
			</g>
			<g>
				<g>
					<g>
						<path fill="#E0E0E0" d="M468.4,224c-5,0.4-9.7-3.1-12.3-7.7c-2.6-4.6-3.4-10.2-3.5-15.6c4.7,0.9,9.6,4,12.2,8.4
							C467.4,213.4,468,218.5,468.4,224"/>
					</g>
				</g>
				<g>
					<g>
						<path fill="#EBEBEB" d="M468.4,224.1c-3.8-3.5-4.9-9.6-3.7-14.9c1.2-5.3,4.2-9.8,7.6-13.7c2.7,4.2,4.2,10.2,3.2,15.3
							C474.6,215.8,471.7,219.8,468.4,224.1"/>
					</g>
				</g>
			</g>
			<g>
				<g>
					<path fill="#EBEBEB" d="M460.8,192.3c0,0,5.5-19.9-13.1-23.2C447.7,169.2,442.8,187.6,460.8,192.3z"/>
				</g>
			</g>
		</g>
	</g>
	<g>
		<g>
			<polygon fill="none" points="246.9,236.9 246.9,236.9 246.9,236.9 			"/>
		</g>
		<g>
			<polygon fill="none" points="246.8,236.9 246.9,236.9 246.9,236.9 			"/>
		</g>
		<g>
			<polygon fill="none" points="246.8,236.8 246.7,236.9 246.8,236.9 			"/>
		</g>
		<g>
			<polygon fill="none" points="246.7,236.8 246.7,236.8 246.7,236.8 			"/>
		</g>
		<g>
			<polygon fill="none" points="246.7,236.7 246.7,236.7 246.7,236.7 			"/>
		</g>
		<g>
			<polygon fill="none" points="246.9,236.8 246.9,236.8 246.9,236.9 			"/>
		</g>
		<g>
			<polygon fill="none" points="246.6,236.9 246.6,236.8 246.4,236.7 246.6,236.9 			"/>
		</g>
		<g>
			<polygon fill="none" points="246.7,236.8 246.6,236.9 246.7,236.8 			"/>
		</g>
		<g>
			<polygon fill="none" points="246.9,236.8 246.8,236.8 246.9,236.8 			"/>
		</g>
		<g>
			<polygon fill="none" points="246.8,236.9 246.8,236.9 246.8,236.9 			"/>
		</g>
		<g>
			<path fill="#F5F5F5" d="M223.5,61l11.6,88.3c0.1,0,0.2,0,0.3-0.1l11.3,86.6l11.2-86.6c0.1,0,0.1,0,0.2,0l11.2-86.9
				c-9-1.6-18.3-2.4-27.7-2.4C235.5,60,229.5,60.4,223.5,61z"/>
		</g>
		<g>
			<path fill="#F5F5F5" d="M352,103.5c-11.7-10.6-24.7-19.6-38.8-26.6l-33.1,79.5c0.1,0,0.1,0.1,0.2,0.1l-33.4,80.2L352,103.5z"/>
		</g>
		<g>
			<path fill="#F5F5F5" d="M169.2,212.1C169.2,212.1,169.2,212.1,169.2,212.1l77,24.6h-0.3l0.7,0.2l0,0l0,0l0,0l0,0l0,0l0.1,0l0,0
				l0,0l0,0l0,0l0,0l0-0.1l0.1,0.1l-0.1,0l0.1,0l0,0l0,0l0,0l0,0l0,0l0,0l0,0l0,0l0,0l0,0l0.3,0.1l-0.3-0.2l77.4,24.7
				c0,0.1,0,0.1,0,0.2l85.9,27.5c2.7-13.2,4.1-26.9,4.1-41c0-3.9-0.1-7.8-0.3-11.7h-86.4c0,0.1,0,0.1,0,0.2l-80.7,0.1h0l0,0l0,0
				l0-0.1l0.4-0.1l-0.3,0.2l0.7-0.2h-0.3l157.2-50.8c-5.2-16.3-12.5-31.5-21.4-45.4l-135.9,96.2H247l0.1-0.1l-0.2,0.1h0l0,0l0,0
				l0.1-0.5l-0.1,0.4l0,0.1l-0.1,0.1l0-0.1h-0.1l0-0.1l-0.1-0.3l0.1,0.4l0,0h0l0,0l-0.2-0.1l0.1,0.1h-0.3L103,136
				c-9.8,14.4-17.8,30.3-23.5,47.4L169.2,212.1z M246.9,236.9L246.9,236.9L246.9,236.9L246.9,236.9z M246.8,236.9L246.8,236.9
				L246.8,236.9L246.8,236.9z M246.9,236.8L246.9,236.8L246.9,236.8L246.9,236.8z M246.9,236.8L246.9,236.8L246.9,236.8L246.9,236.8
				z M246.8,236.9L246.8,236.9L246.8,236.9L246.8,236.9z M246.7,236.8L246.7,236.8L246.7,236.8L246.7,236.8z M246.7,236.7
				L246.7,236.7L246.7,236.7L246.7,236.7z M246.7,236.8L246.7,236.8L246.7,236.8L246.7,236.8z M246.6,236.8L246.6,236.8L246.6,236.8
				l-0.3-0.1L246.6,236.8z"/>
		</g>
		<g>
			<path fill="#F5F5F5" d="M193.8,170.1C193.8,170.1,193.8,170.1,193.8,170.1l52.8,66.5l-33.5-80.1c0,0,0,0,0,0l-35-83.3
				c-14.9,6.4-28.7,15-41.2,25.5L193.8,170.1z"/>
		</g>
		<g>
			<path fill="#F5F5F5" d="M314.8,284.7C314.8,284.7,314.8,284.7,314.8,284.7l-67.7-47.4l52.8,66.4c0,0-0.1,0.1-0.1,0.1l62.8,79.2
				c11.9-12.7,22.1-27.3,30.3-43.3L314.8,284.7z"/>
		</g>
		<g>
			<polygon fill="#F5F5F5" points="246.9,237.1 246.9,237.1 246.9,237.1 			"/>
		</g>
		<g>
			<polygon fill="#F5F5F5" points="246.7,236.9 246.7,236.9 246.7,236.9 246.7,237 246.7,237 246.7,237 246.7,237 246.7,237 
				246.7,236.9 246.7,236.9 246.7,236.9 246.7,236.9 246.6,236.9 			"/>
		</g>
		<g>
			<polygon fill="#F5F5F5" points="246.6,237 246.6,236.9 246.6,236.9 246.3,237.1 			"/>
		</g>
		<g>
			<path fill="#F5F5F5" d="M246.4,237.3L179,285c-0.1-0.1-0.1-0.2-0.2-0.3L93.4,345c9,16.4,20.2,31.1,33.2,43.8l77.5-97.9
				L246.4,237.3z"/>
		</g>
		<g>
			<path fill="#F5F5F5" d="M169.3,261.9l77.3-25l-177.3,0.2c-0.2,3.7-0.3,7.5-0.3,11.2c0,15.3,1.7,30.1,4.8,44.3L169.3,261.9
				C169.3,261.9,169.3,261.9,169.3,261.9z"/>
		</g>
		<g>
			<path fill="#F5F5F5" d="M246.6,237.6L170.5,420c15.7,7.8,32.7,13,50.5,15.4L246.6,237.6z"/>
		</g>
		<g>
			<polygon fill="#F5F5F5" points="246.9,236.9 246.9,237 246.9,237 			"/>
		</g>
		<g>
			<path fill="#F5F5F5" d="M247,237.6l25.6,196.1c17.3-3.4,33.7-9.6,48.8-18.2L247,237.6z"/>
		</g>
		<g>
			<polygon fill="#F5F5F5" points="246.7,237.2 246.8,237.9 246.9,237.3 246.8,237 			"/>
		</g>
		<g>
			<polygon fill="#F5F5F5" points="246.9,237 246.9,237 246.9,237 			"/>
		</g>
	</g>
	<g>
		<g>
			<g>
				<g>
					<path fill="#E0E0E0" d="M80.1,391.7c0,0-0.2-0.1-0.4-0.4c-0.3-0.3-0.7-0.6-1.2-1.1c-0.5-0.5-1.2-1.1-2-1.8
						c-0.4-0.4-0.8-0.7-1.3-1.1c-0.5-0.4-0.9-0.9-1.4-1.3c-1-1-2.1-2-3.3-3.2c-1.2-1.2-2.4-2.5-3.8-4c-1.4-1.4-2.7-3-4.2-4.7
						c-1.5-1.7-3-3.5-4.6-5.5c-1.6-1.9-3.1-4.1-4.8-6.2c-0.8-1.1-1.6-2.3-2.4-3.4c-0.8-1.2-1.6-2.4-2.5-3.6
						c-0.8-1.3-1.6-2.5-2.4-3.8c-0.4-0.6-0.8-1.3-1.2-2c-0.4-0.7-0.8-1.4-1.2-2c-0.8-1.4-1.6-2.8-2.4-4.2c-0.8-1.4-1.5-2.9-2.3-4.4
						c-0.8-1.5-1.5-3-2.3-4.6c-0.7-1.6-1.5-3.1-2.2-4.7c-0.7-1.6-1.4-3.3-2.1-4.9c-0.7-1.7-1.3-3.4-2-5.1
						c-2.6-6.9-4.9-14.2-6.8-21.8c-1.8-7.6-3.2-15.2-4-22.6c-0.2-1.9-0.4-3.7-0.6-5.5c-0.1-1.8-0.3-3.6-0.4-5.4
						c-0.2-1.8-0.2-3.6-0.2-5.3c0-1.8-0.1-3.5-0.1-5.2c0-1.7,0-3.4,0-5.1c0-1.7,0.1-3.3,0.2-4.9c0-0.8,0.1-1.6,0.1-2.4
						c0-0.8,0.1-1.6,0.2-2.4c0.1-1.6,0.2-3.1,0.4-4.6c0.1-1.5,0.3-3,0.5-4.5c0.2-1.5,0.3-2.9,0.5-4.3c0.4-2.8,0.8-5.5,1.3-8
						c0.5-2.5,0.9-5,1.5-7.2c0.5-2.3,1-4.4,1.5-6.4c0.5-2,1-3.8,1.5-5.5c0.5-1.7,1-3.2,1.4-4.6c0.2-0.7,0.4-1.3,0.6-1.9
						c0.2-0.6,0.4-1.2,0.6-1.7c0.4-1,0.7-1.9,0.9-2.6c0.3-0.7,0.4-1.2,0.6-1.6c0.1-0.4,0.2-0.5,0.2-0.5s-0.1,0.2-0.2,0.6
						c-0.1,0.4-0.3,0.9-0.5,1.6c-0.2,0.7-0.5,1.6-0.9,2.6c-0.2,0.5-0.4,1.1-0.6,1.7c-0.2,0.6-0.4,1.3-0.6,1.9
						c-0.4,1.4-0.9,2.9-1.4,4.6c-0.5,1.7-0.9,3.5-1.5,5.5c-0.6,2-1,4.1-1.5,6.4c-0.5,2.3-1,4.7-1.4,7.2c-0.5,2.5-0.8,5.2-1.3,8
						c-0.2,1.4-0.4,2.8-0.5,4.3c-0.2,1.5-0.3,2.9-0.5,4.4c-0.1,1.5-0.2,3.1-0.3,4.6c-0.1,0.8-0.1,1.6-0.2,2.4c0,0.8-0.1,1.6-0.1,2.4
						c-0.1,1.6-0.1,3.3-0.2,4.9c0,1.7,0,3.4,0,5.1c0,1.7,0.1,3.4,0.1,5.2c0.1,1.7,0.1,3.5,0.2,5.3c0.1,1.8,0.3,3.6,0.4,5.4
						c0.2,1.8,0.4,3.6,0.6,5.5c0.9,7.4,2.2,14.9,4,22.6c1.9,7.6,4.2,14.9,6.8,21.8c0.7,1.7,1.3,3.4,2,5.1c0.7,1.6,1.4,3.3,2.1,4.9
						c0.7,1.6,1.5,3.2,2.2,4.7c0.8,1.5,1.5,3.1,2.3,4.6c0.8,1.5,1.6,2.9,2.3,4.4c0.8,1.4,1.6,2.8,2.4,4.2c0.4,0.7,0.8,1.4,1.2,2
						c0.4,0.7,0.8,1.3,1.2,2c0.8,1.3,1.6,2.6,2.4,3.8c0.8,1.2,1.6,2.4,2.4,3.6c0.8,1.2,1.6,2.3,2.4,3.4c1.6,2.2,3.1,4.3,4.7,6.2
						c1.6,1.9,3,3.8,4.5,5.5c1.5,1.7,2.8,3.3,4.2,4.7c1.4,1.4,2.6,2.8,3.8,4c1.2,1.2,2.3,2.2,3.3,3.2c0.5,0.5,1,0.9,1.4,1.4
						c0.5,0.4,0.9,0.8,1.3,1.1c0.8,0.7,1.4,1.3,2,1.8c0.5,0.5,0.9,0.9,1.2,1.1C80,391.6,80.1,391.7,80.1,391.7z"/>
				</g>
			</g>
		</g>
		<g>
			<g>
				<g>
					<g>
						<path fill="#E0E0E0" d="M48.9,359.3c6.4-5.3,8.8-15.1,7.4-23.8c-1.4-8.7-6-16.4-11.2-23.1c-4.8,6.6-7.7,16.2-6.6,24.5
							C39.6,345.2,43.9,352.1,48.9,359.3"/>
					</g>
				</g>
				<g>
					<g>
						<path fill="#EBEBEB" d="M48.9,359.3c1.1-8.7-3.6-17.5-10.2-22.5c-6.6-5.1-14.8-7-22.9-7.7c0.9,8.4,5.1,17.4,11.2,22.4
							C33.2,356.5,40.8,358,48.9,359.3"/>
					</g>
				</g>
			</g>
			<g>
				<g>
					<g>
						<path fill="#E0E0E0" d="M26.8,313.2c6.1-3.5,9.4-11.3,9.4-18.9s-2.8-14.7-6.3-21.2c-4.9,4.8-8.6,12.4-8.8,19.6
							C20.9,299.9,23.7,306.4,26.8,313.2"/>
					</g>
				</g>
				<g>
					<g>
						<path fill="#EBEBEB" d="M26.9,313.2c2.1-7.2-0.7-15.3-5.6-20.6c-4.9-5.3-11.6-8.2-18.2-10.1c-0.4,7.2,1.9,15.4,6.5,20.7
							C14,308.4,20.2,310.9,26.9,313.2"/>
					</g>
				</g>
			</g>
			<g>
				<g>
					<g>
						<path fill="#E0E0E0" d="M17.5,267c5.6-0.8,10-5.9,11.9-11.6c1.9-5.8,1.5-12.1,0.5-18.1c-4.9,2.2-9.7,6.9-11.6,12.4
							C16.3,255,16.8,260.8,17.5,267"/>
					</g>
				</g>
				<g>
					<g>
						<path fill="#EBEBEB" d="M17.5,267c3.4-4.9,3.3-11.9,0.9-17.4c-2.4-5.5-6.8-9.7-11.4-13.2c-2.1,5.4-2.4,12.4-0.2,17.7
							C8.9,259.5,13,263.2,17.5,267"/>
					</g>
				</g>
			</g>
			<g>
				<g>
					<g>
						<path fill="#E0E0E0" d="M19.6,224c5,0.4,9.7-3.1,12.3-7.7c2.6-4.6,3.4-10.2,3.5-15.6c-4.7,0.9-9.6,4-12.2,8.4
							C20.6,213.4,20,218.5,19.6,224"/>
					</g>
				</g>
				<g>
					<g>
						<path fill="#EBEBEB" d="M19.6,224.1c3.8-3.5,4.9-9.6,3.7-14.9c-1.2-5.3-4.2-9.8-7.6-13.7c-2.7,4.2-4.2,10.2-3.2,15.3
							C13.4,215.8,16.3,219.8,19.6,224.1"/>
					</g>
				</g>
			</g>
			<g>
				<g>
					<path fill="#EBEBEB" d="M27.2,192.3c0,0-5.5-19.9,13.1-23.2C40.3,169.2,45.2,187.6,27.2,192.3z"/>
				</g>
			</g>
		</g>
	</g>
	<g>
		<g>
			<g>
				<path fill="#263238" d="M344.3,190.7c-0.8,5.9,1.4,12.2,5.6,15.9c4.3,3.7,10.4,4.7,15.5,2.6c6.5-2.8,10.8-10.1,17.5-12.4
					c2.9-1,6-1,8.9-2c3.4-1.3,6.4-4.4,7.2-8.2c0.8-3.9-1.1-8.4-4.4-9.8c-1.8-0.8-4-0.8-5.1-2.5c-1.6-2.4,0.4-5.6,0.9-8.6
					c0.7-4.2-2.3-8.5-6.1-9.7c-3.8-1.1-8,0.4-10.9,3.2c-2.5,2.4-5,4.7-8.4,5.3c-2.1,0.3-6.1-0.1-8.5-4.9"/>
			</g>
		</g>
		<g>
			<g>
				<g>
					<path fill="#263238" d="M371.4,156c0,0,0,0.1,0.1,0.4c0,0.3,0.1,0.7,0,1.2c-0.1,1-0.3,2.6-1.4,4.1c-0.5,0.8-1.2,1.5-2,2.1
						c-0.9,0.6-1.9,1-3.1,1.1c-1.1,0.1-2.4-0.1-3.5-0.6c-1.2-0.5-2.2-1.4-3-2.6c-0.8-1.1-1.4-2.4-1.9-3.6c-0.5-1.2-1.1-2.3-1.7-3.3
						c-1.3-1.9-3.2-3-4.7-3.5c-1.6-0.5-3-0.4-3.9-0.3c-0.9,0.2-1.4,0.4-1.4,0.3c0,0,0.1-0.1,0.4-0.2c0.2-0.1,0.6-0.2,1.1-0.3
						c0.9-0.2,2.3-0.3,4,0.2c1.6,0.5,3.6,1.5,5,3.5c1.4,2,2.2,4.6,3.7,6.8c0.7,1.1,1.7,2,2.8,2.5c1.1,0.5,2.3,0.7,3.3,0.6
						c1.1-0.1,2.1-0.4,2.9-1c0.8-0.5,1.5-1.3,2-2c1-1.5,1.3-3,1.4-4C371.5,156.6,371.4,156,371.4,156z"/>
				</g>
			</g>
		</g>
	</g>
	<g>
		<g>
			<g>
				<path fill="#936754" d="M388.4,150.2l-2.9,39.8l-24.9,17.6c0,0,3.6,23.9,3.8,24.4l30.6-25.5c3.8-3.1,6.2-8,6.3-13.2l-1.3-46"/>
			</g>
		</g>
		<g>
			<g>
				<g>
					<g>
						<path fill="#936754" d="M385.4,131.8c-0.2-0.1-3.3,8.8-3,10.2c0.3,1.4,3.3,5.5,4.6,6.3c2.4,1.5,0.8,7.1,1,8l12.3,0.7
							l-0.3-10.3l0.8-7c0.4-1.4,0.4-3,0-4.4c-0.4-1.6-1.1-3.3-2.2-3.1c-1.9,0.3-2.1,0.9-2.1,0.9s-1.3-2.1-2.3-0.3
							c0,0-1.8-2.3-3.3-0.3c0,0-2-2.2-3.5,1.2l-0.8,2.4C386.7,135.9,387.5,133.1,385.4,131.8z"/>
					</g>
				</g>
				<g>
					<g>
						<g>
							<path fill="#7C5142" d="M390.7,143.4c-0.1,0-0.3-0.6-1-1.5c-0.3-0.4-0.8-0.8-1.4-1.2c-0.6-0.3-1.3-0.5-2.1-0.6
								c-0.2,0-0.4,0-0.6,0l-0.3,0l0.1-0.3c0.4-1.5,0.7-2.9,1-3.9c0.3-1,0.4-1.6,0.5-1.5c0,0,0,0.6-0.2,1.6c-0.2,1-0.5,2.4-0.8,3.9
								l-0.2-0.3c0.2,0,0.4,0,0.7,0c0.8,0,1.6,0.3,2.3,0.7c0.6,0.4,1.1,0.9,1.5,1.3C390.6,142.6,390.8,143.4,390.7,143.4z"/>
						</g>
					</g>
				</g>
				<g>
					<g>
						<g>
							<path fill="#7C5142" d="M398.3,136c0,0-0.1,0.2-0.2,0.6c-0.1,0.4-0.4,0.9-0.3,1.5c0,0.2,0.1,0.3,0.2,0.5
								c0.1,0.2,0.2,0.4,0.2,0.6c0,0.5-0.2,1-0.6,1.3c-0.8,0.6-2.2,0.3-2.7-0.8c-0.2-0.6-0.2-1.2-0.2-1.7c0.1-0.5,0.2-1,0.3-1.5
								c0.2-0.9,0.5-1.7,0.8-2.4c0.2-0.7,0.5-1.2,0.8-1.5c0.3-0.3,0.5-0.3,0.5-0.3c0,0-0.2,0.1-0.4,0.4c-0.2,0.3-0.5,0.8-0.7,1.5
								c-0.2,0.7-0.5,1.5-0.7,2.4c-0.2,0.9-0.5,2-0.1,2.9c0.4,0.9,1.5,1.1,2.1,0.7c0.3-0.2,0.5-0.6,0.5-1c0-0.3-0.3-0.7-0.4-1.1
								c-0.1-0.8,0.2-1.3,0.4-1.7C398.1,136.2,398.3,136,398.3,136z"/>
						</g>
					</g>
				</g>
				<g>
					<g>
						<g>
							<path fill="#7C5142" d="M395.2,139.8c0,0,0,0.2-0.2,0.4c-0.2,0.2-0.6,0.5-1.1,0.5c-0.5,0-1.1-0.4-1.5-1.1
								c-0.4-0.7-0.4-1.5-0.3-2.3c0.2-1.7,0.9-3,1.5-3.9c0.6-0.9,1.1-1.2,1.1-1.2c0,0-0.4,0.5-0.9,1.4c-0.5,0.9-1.1,2.2-1.3,3.8
								c-0.1,0.8,0,1.5,0.3,2.1c0.3,0.6,0.7,0.9,1.2,1c0.4,0.1,0.8-0.1,1-0.3C395.1,139.9,395.1,139.8,395.2,139.8z"/>
						</g>
					</g>
				</g>
				<g>
					<g>
						<g>
							<path fill="#7C5142" d="M392.3,139.3c0,0,0,0.2-0.2,0.3c-0.2,0.2-0.6,0.4-1,0.4c-0.5,0-1.1-0.2-1.5-0.8
								c-0.4-0.5-0.6-1.3-0.6-2.1c0-0.8,0.3-1.5,0.5-2.1c0.2-0.6,0.5-1.1,0.7-1.5c0.4-0.8,0.7-1.4,0.8-1.3s-0.1,0.6-0.5,1.5
								c-0.3,0.9-1,2.1-1.1,3.4c0,0.7,0.2,1.3,0.5,1.8c0.3,0.5,0.8,0.7,1.2,0.7C391.9,139.8,392.3,139.2,392.3,139.3z"/>
						</g>
					</g>
				</g>
				<g>
					<g>
						<g>
							<path fill="#7C5142" d="M389.1,138.2c0,0,0,0.2-0.1,0.5c-0.1,0.3-0.3,0.7-0.7,1.1c-0.4,0.4-1.1,0.7-1.8,0.3
								c-0.7-0.4-0.9-1.4-0.7-2.3c0.3-1.6,0.9-3,1.3-3.9c0.4-1,0.8-1.5,0.9-1.5c0.1,0.1-1.1,2.4-1.8,5.5c-0.2,0.7,0,1.5,0.5,1.8
								c0.5,0.3,1.1,0.1,1.4-0.2c0.4-0.3,0.6-0.7,0.7-0.9C389,138.3,389.1,138.2,389.1,138.2z"/>
						</g>
					</g>
				</g>
			</g>
			<g>
				<g>
					<g>
						<path fill="#7C5142" d="M396.6,141.5c0,0.1-1.4-0.3-3,0.1c-1.6,0.4-2.6,1.5-2.7,1.4c0,0,0.2-0.4,0.6-0.8
							c0.4-0.4,1.1-0.8,2-1.1c0.9-0.2,1.7-0.2,2.2-0.1C396.3,141.3,396.6,141.4,396.6,141.5z"/>
					</g>
				</g>
			</g>
		</g>
	</g>
	<g>
		<g>
			<g>
				<path fill="#263238" d="M320,217.6c-7.4,0.7-13.8-5.1-14.9-8.7c-1.1-3.5,0.1-7.7,2.7-10c2.1-1.9,5.1-2.8,6.1-5.5
					c1.7-4.8-4.3-10.1-2.2-14.7c1.5-3.2,6-3.2,8.1-6c1.9-2.5,1.2-6.1,1.8-9.3c1-5.3,6-9.1,11-9.3c5-0.2,9.8,2.7,13.2,6.6
					c3.4,3.9,5.7,8.9,7.7,13.9c1.6,4,3.1,8.4,2.4,12.7c-1,6.4-6.4,10.8-11.6,14.1C336,207,329.7,218.5,320,217.6"/>
			</g>
		</g>
		<g>
			<g>
				<g>
					<path fill="#263238" d="M308.1,203.1c0,0,0,0-0.1,0c-0.1,0-0.2,0-0.4,0c-0.3,0-0.9-0.2-1.4-0.5c-0.6-0.3-1.2-0.9-1.7-1.9
						c-0.4-0.9-0.5-2.2-0.1-3.5c0.2-0.6,0.6-1.2,1.1-1.7c0.5-0.5,1.1-0.9,1.7-1.2c0.6-0.4,1.2-0.7,1.8-1.2c0.6-0.5,1.1-1.1,1.4-1.8
						c0.6-1.5,0.4-3.3,0-5c-0.4-1.7-1.2-3.5-1.5-5.4c-0.2-1-0.2-2-0.1-2.9c0.1-1,0.5-1.9,1.1-2.6c0.6-0.7,1.4-1.2,2.1-1.5
						c0.8-0.3,1.5-0.5,2.3-0.7c1.5-0.4,2.9-0.9,3.9-1.9c1-1,1.6-2.2,2-3.4c0.8-2.4,0.8-4.5,0.8-5.9c0-0.7,0-1.2,0-1.6
						c0-0.4,0-0.6,0-0.6c0,0,0,0.2,0.1,0.6c0,0.4,0.1,0.9,0.1,1.6c0,1.4,0.1,3.5-0.7,6c-0.4,1.2-1,2.5-2.1,3.5c-1,1.1-2.5,1.6-4,2
						c-1.5,0.4-3.1,0.8-4.2,2.1c-0.6,0.6-0.9,1.5-1,2.4c-0.1,0.9-0.1,1.9,0.1,2.8c0.3,1.9,1,3.6,1.5,5.4c0.4,1.8,0.6,3.7-0.1,5.3
						c-0.3,0.8-0.9,1.5-1.5,1.9c-0.6,0.5-1.3,0.8-1.9,1.2c-0.6,0.4-1.2,0.7-1.6,1.2c-0.5,0.4-0.8,1-1,1.6c-0.4,1.2-0.3,2.4,0,3.2
						c0.4,0.9,1,1.5,1.5,1.8C307.4,203.1,308.1,203,308.1,203.1z"/>
				</g>
			</g>
		</g>
	</g>
	<g>
		<g>
			<g>
				<g>
					<g>
						<g>
							<g>
								<g>
									<path fill="#455A64" d="M375,354.9l14.5-7.3c0,0,11.7,13.6,14.5,12.5L392,329l-23,10.4L375,354.9z"/>
								</g>
							</g>
						</g>
					</g>
					<g opacity="0.3">
						<g>
							<g>
								<g>
									<path d="M375,354.9l14.5-7.3c0,0,11.7,13.6,14.5,12.5L392,329l-23,10.4L375,354.9z"/>
								</g>
							</g>
						</g>
					</g>
					<g>
						<g>
							<g>
								<g>
									<g>
										<path fill="#E0E0E0" d="M384.6,338.5c-0.1-0.7,0.4-1.4,1-1.5c0.6-0.1,1.3,0.4,1.4,1.1c0.1,0.7-0.4,1.5-1.1,1.6
											c-0.6,0-1.4-0.6-1.3-1.3"/>
									</g>
								</g>
							</g>
						</g>
					</g>
					<g>
						<g>
							<g>
								<g>
									<path fill="#E0E0E0" d="M392,329l-2.3,1.1l12.4,29.4c0,0,1.1,1.1,1.9,0.6L392,329z"/>
								</g>
							</g>
						</g>
					</g>
					<g>
						<g>
							<g>
								<g>
									<g>
										<path fill="#263238" d="M389.6,348.1c0.1-0.1-0.1-0.9,0.1-1.8c0.1-1,0.6-1.6,0.5-1.7c-0.1-0.1-0.8,0.5-1,1.6
											C388.9,347.4,389.5,348.2,389.6,348.1z"/>
									</g>
								</g>
							</g>
						</g>
					</g>
					<g>
						<g>
							<g>
								<g>
									<g>
										<path fill="#263238" d="M392.1,350.8c0.1,0,0.1-0.8,0.5-1.6c0.4-0.8,1-1.2,0.9-1.4c0-0.2-0.9,0.1-1.4,1.1
											C391.6,350,391.9,350.9,392.1,350.8z"/>
									</g>
								</g>
							</g>
						</g>
					</g>
					<g>
						<g>
							<g>
								<g>
									<g>
										<path fill="#263238" d="M396.4,351c0-0.2-0.8,0-1.4,0.7c-0.6,0.7-0.6,1.6-0.5,1.6c0.1,0,0.4-0.6,0.9-1.2
											C395.8,351.5,396.4,351.2,396.4,351z"/>
									</g>
								</g>
							</g>
						</g>
					</g>
					<g>
						<g>
							<g>
								<g>
									<g>
										<path fill="#263238" d="M386.1,349.4c0.1-0.1-0.4-0.7-0.6-1.6c-0.3-0.9-0.3-1.7-0.4-1.7c-0.1,0-0.4,0.8-0.1,1.9
											C385.3,349,386,349.5,386.1,349.4z"/>
									</g>
								</g>
							</g>
						</g>
					</g>
				</g>
				<g>
					<g>
						<g>
							<g>
								<g>
									<path fill="#263238" d="M383.2,350.8c0.1,0-0.1-0.7-0.6-1.6c-0.3-0.4-0.6-0.9-1.1-1.4c-0.2-0.2-0.5-0.5-0.8-0.7
										c-0.1-0.1-0.3-0.2-0.5-0.3c-0.2-0.1-0.6,0-0.8,0.3c-0.2,0.3-0.1,0.6-0.1,0.8c0.1,0.2,0.2,0.4,0.3,0.6
										c0.2,0.3,0.4,0.6,0.7,0.8c0.5,0.5,1,0.8,1.4,1c0.9,0.4,1.5,0.4,1.5,0.4c0-0.1-0.6-0.2-1.3-0.7c-0.4-0.3-0.8-0.6-1.3-1.1
										c-0.2-0.2-0.4-0.5-0.6-0.8c-0.2-0.3-0.3-0.6-0.2-0.7c0-0.1,0.1-0.1,0.2,0c0.1,0,0.2,0.1,0.4,0.2c0.3,0.2,0.5,0.4,0.7,0.6
										c0.5,0.4,0.8,0.9,1.1,1.3C382.8,350.3,383.1,350.9,383.2,350.8z"/>
								</g>
							</g>
						</g>
					</g>
				</g>
				<g>
					<g>
						<g>
							<g>
								<g>
									<path fill="#263238" d="M383.3,350.5c0-0.1-0.6-0.1-1.5,0.2c-0.5,0.2-1,0.5-1.5,0.9c-0.2,0.2-0.5,0.5-0.7,0.8
										c-0.2,0.3-0.5,0.7-0.3,1.3c0.1,0.3,0.4,0.5,0.6,0.5c0.2,0,0.4,0,0.6-0.1c0.4-0.1,0.7-0.3,1-0.4c0.6-0.4,1-0.9,1.2-1.3
										c0.5-0.9,0.4-1.7,0.4-1.6c-0.1,0-0.2,0.6-0.7,1.4c-0.3,0.4-0.6,0.8-1.2,1.1c-0.3,0.2-0.5,0.3-0.8,0.3
										c-0.3,0.1-0.6,0.1-0.6-0.1c-0.1-0.2,0.1-0.5,0.3-0.8c0.2-0.3,0.4-0.5,0.6-0.7c0.4-0.4,0.9-0.7,1.3-1
										C382.7,350.7,383.3,350.6,383.3,350.5z"/>
								</g>
							</g>
						</g>
					</g>
				</g>
			</g>
		</g>
		<g>
			<g>
				<polygon fill="#263238" points="376.7,348.1 372.1,336.9 362.4,341.8 353.4,361.3 				"/>
			</g>
		</g>
	</g>
	<g>
		<g>
			<g>
				<g>
					<g>
						<g>
							<g>
								<path fill="#455A64" d="M391.1,361.4l14.7-6.8c0,0,11.3,14,14.1,13l-11.1-31.5l-23.3,9.6L391.1,361.4z"/>
							</g>
						</g>
					</g>
				</g>
				<g>
					<g>
						<g>
							<g>
								<g>
									<path fill="#E0E0E0" d="M401.1,345.4c-0.1-0.7,0.4-1.4,1-1.5c0.6-0.1,1.3,0.4,1.3,1.1c0.1,0.7-0.5,1.5-1.1,1.5
										c-0.6,0-1.3-0.6-1.3-1.3"/>
								</g>
							</g>
						</g>
					</g>
				</g>
				<g>
					<g>
						<g>
							<g>
								<path fill="#E0E0E0" d="M408.8,336.1l-2.3,1.1L418,367c0,0,1.1,1.2,1.9,0.6L408.8,336.1z"/>
							</g>
						</g>
					</g>
				</g>
				<g>
					<g>
						<g>
							<g>
								<g>
									<path fill="#263238" d="M405.9,355.2c0.1-0.1-0.1-0.9,0.1-1.8c0.2-1,0.6-1.6,0.5-1.7c-0.1-0.1-0.8,0.5-1,1.6
										C405.2,354.4,405.7,355.3,405.9,355.2z"/>
								</g>
							</g>
						</g>
					</g>
				</g>
				<g>
					<g>
						<g>
							<g>
								<g>
									<path fill="#263238" d="M408.3,358c0.1,0,0.2-0.8,0.6-1.6c0.4-0.8,1-1.2,0.9-1.3c0-0.2-0.9,0.1-1.4,1.1
										C407.9,357.1,408.1,358,408.3,358z"/>
								</g>
							</g>
						</g>
					</g>
				</g>
				<g>
					<g>
						<g>
							<g>
								<g>
									<path fill="#263238" d="M412.6,358.3c0-0.2-0.8-0.1-1.4,0.6c-0.6,0.7-0.7,1.6-0.5,1.6c0.1,0,0.4-0.6,0.9-1.2
										C412,358.8,412.6,358.5,412.6,358.3z"/>
								</g>
							</g>
						</g>
					</g>
				</g>
				<g>
					<g>
						<g>
							<g>
								<g>
									<path fill="#263238" d="M402.4,356.3c0.1-0.1-0.3-0.7-0.6-1.6c-0.3-0.9-0.2-1.7-0.4-1.7c-0.1,0-0.4,0.8-0.1,1.9
										C401.6,355.9,402.3,356.5,402.4,356.3z"/>
								</g>
							</g>
						</g>
					</g>
				</g>
			</g>
			<g>
				<g>
					<g>
						<g>
							<g>
								<path fill="#263238" d="M399.4,357.7c0.1,0-0.1-0.7-0.6-1.6c-0.2-0.5-0.6-1-1-1.5c-0.2-0.2-0.5-0.5-0.8-0.7
									c-0.1-0.1-0.3-0.2-0.5-0.3c-0.2-0.1-0.6,0-0.8,0.2c-0.2,0.3-0.2,0.6-0.1,0.8c0.1,0.2,0.2,0.4,0.3,0.6
									c0.2,0.3,0.4,0.6,0.7,0.9c0.5,0.5,1,0.9,1.4,1.1C398.8,357.6,399.4,357.6,399.4,357.7c0.1-0.2-0.5-0.4-1.2-0.9
									c-0.4-0.3-0.8-0.6-1.2-1.1c-0.2-0.2-0.4-0.5-0.6-0.8c-0.2-0.3-0.3-0.6-0.2-0.7c0-0.1,0.1-0.1,0.2,0c0.1,0,0.2,0.1,0.4,0.2
									c0.3,0.2,0.5,0.4,0.7,0.7c0.4,0.4,0.8,0.9,1.1,1.3C399,357.1,399.3,357.7,399.4,357.7z"/>
							</g>
						</g>
					</g>
				</g>
			</g>
			<g>
				<g>
					<g>
						<g>
							<g>
								<path fill="#263238" d="M399.5,357.4c0-0.1-0.6-0.2-1.5,0.2c-0.5,0.2-1,0.4-1.5,0.9c-0.3,0.2-0.5,0.5-0.7,0.8
									c-0.2,0.3-0.5,0.7-0.4,1.3c0.1,0.3,0.4,0.5,0.6,0.5c0.2,0,0.4,0,0.6-0.1c0.4-0.1,0.7-0.2,1-0.4c0.6-0.4,1-0.8,1.3-1.3
									c0.5-0.9,0.5-1.6,0.4-1.6c-0.1,0-0.2,0.6-0.7,1.4c-0.3,0.4-0.7,0.8-1.2,1.1c-0.3,0.1-0.5,0.3-0.8,0.3
									c-0.3,0.1-0.6,0.1-0.6-0.1c-0.1-0.2,0.1-0.5,0.3-0.8c0.2-0.3,0.4-0.5,0.6-0.7c0.5-0.4,0.9-0.7,1.3-0.9
									C398.9,357.5,399.5,357.5,399.5,357.4z"/>
							</g>
						</g>
					</g>
				</g>
			</g>
		</g>
	</g>
	<g>
		<g>
			<path fill="#E8505B" d="M317.8,300.4c0,0,36.3-5.5,43.8-11.5c7.4-6,7.1-7.8,7.1-7.8s1.2-6.2-3.4-7c-4.5-0.8-26,5.6-26,5.6
				l-12.6-3.5l-10.4,6.7l-7,9.4c0,0,1.9,5.5,4.6,6.4c2.7,0.9,3.9,1.1,3.9,1.1"/>
		</g>
	</g>
	<g>
		<path fill="#111142" d="M317.8,300.4c0,0,36.3-5.5,43.8-11.5c7.4-6,7.1-7.8,7.1-7.8s1.2-6.2-3.4-7c-4.5-0.8-26,5.6-26,5.6
			l-12.6-3.5l-10.4,6.7l-7,9.4c0,0,1.9,5.5,4.6,6.4c2.7,0.9,3.9,1.1,3.9,1.1"/>
	</g>
	<g>
		<g>
			<path fill="#936754" d="M319.5,293.1c-0.3-0.8-0.6-11-0.6-11s2.6-4.6,7.6-4.6c5-0.1,12.2,2.4,12.2,2.4l21.2-7.6l1.7,8.8
				c0,0-16,14.8-24.5,14.7C327.2,295.7,319.5,293.1,319.5,293.1z"/>
		</g>
	</g>
	<g>
		<g>
			<g>
				<path fill="#936754" d="M299.3,269.3L299.3,269.3c-2.4,0.9-4.7,0.8-7.1-0.1c-2.9-1.1-5.4-3.2-7.2-5.9l-1.9-2.6
					c-2.2-2.3-15.7-22.5-15.7-22.5l7.2-12.7l16.2,20.7l4.6-14l13.8,10.5l-3.7,16.8C304.6,263.8,303.1,267.8,299.3,269.3z"/>
			</g>
		</g>
		<g>
			<g>
				<path fill="#936754" d="M266.2,206.6c0,0,3.9,6.3,4.9,8.3c0.8,1.7,3.8,7.1,3.6,12.8l-7.3,10.3c0,0-3.5-2.9-4.1-4
					c-0.6-1.1,0-2.7,0-2.7s-1.1-1-1.6-1.2c0,0,0.3,2-1,2.3c-1.3,0.4-5.8-4.8-5.8-4.8s-0.3-2.2,0.9-2.3c0,0-0.9-3,0-3.9
					c0,0-1-2.4,0.2-3.5c0,0,0.6-2.8,1.5-3.8s10,2,10,2s-2.2-5.2-2.4-6.7C264.8,208,266.2,206.6,266.2,206.6z"/>
			</g>
		</g>
		<g>
			<g>
				<g>
					<path fill="#7C5142" d="M260.6,225.8c0,0,0.1,0.1,0.4,0.3c0.2,0.2,0.6,0.5,0.8,1c0.1,0.2,0.3,0.5,0.3,0.9c0,0.4,0,0.7-0.2,1.1
						c-0.1,0.4-0.5,0.7-0.9,0.8c-0.4,0.1-0.9-0.1-1.2-0.3c-0.7-0.5-1.2-1.1-1.7-1.6c-0.5-0.5-0.9-0.9-1.3-1.3
						c-0.7-0.8-1.2-1.3-1.1-1.3c0,0,0.5,0.4,1.3,1.1c0.4,0.4,0.9,0.8,1.3,1.3c0.5,0.5,1,1.1,1.6,1.5c0.6,0.4,1.4,0.3,1.6-0.3
						c0.1-0.3,0.2-0.6,0.2-0.9c0-0.3-0.1-0.5-0.2-0.8c-0.2-0.5-0.5-0.8-0.7-1C260.7,226,260.6,225.9,260.6,225.8z"/>
				</g>
			</g>
		</g>
		<g>
			<g>
				<g>
					<path fill="#7C5142" d="M260.1,217.1c0,0,0.7,0.6,1.7,1.6c0.2,0.3,0.5,0.5,0.8,0.8c0.3,0.3,0.6,0.7,0.8,1.2
						c0.2,0.5,0.1,1.2-0.2,1.6c-0.3,0.5-0.8,0.9-1.4,0.8c-0.6-0.1-1-0.5-1.4-0.8c-0.4-0.4-0.7-0.7-1-1c-0.6-0.6-1.2-1.2-1.7-1.8
						c-1-1-1.6-1.7-1.5-1.7c0,0,0.7,0.5,1.7,1.5c0.5,0.5,1.1,1.1,1.8,1.7c0.3,0.3,0.7,0.7,1,1c0.4,0.3,0.7,0.7,1.2,0.7
						c0.9,0.1,1.6-1.1,1.3-1.9c-0.3-0.8-1-1.4-1.4-1.9C260.6,217.8,260.1,217.1,260.1,217.1z"/>
				</g>
			</g>
		</g>
		<g>
			<g>
				<g>
					<path fill="#7C5142" d="M261.6,223.1c0,0,0.2,0,0.5,0.1c0.3,0.1,0.7,0.5,0.8,1.1c0.2,0.6-0.1,1.5-0.8,1.9
						c-0.3,0.2-0.8,0.3-1.2,0.1c-0.4-0.1-0.8-0.4-1.1-0.7c-1.3-1.1-2.3-2.2-3-3.1c-0.7-0.9-1.1-1.4-1-1.5c0.1-0.1,1.8,2.1,4.3,4.2
						c0.3,0.3,0.6,0.5,0.9,0.6c0.3,0.1,0.6,0.1,0.9-0.1c0.6-0.3,0.8-1,0.7-1.5c-0.1-0.5-0.4-0.9-0.6-1
						C261.8,223.2,261.6,223.2,261.6,223.1z"/>
				</g>
			</g>
		</g>
		<g>
			<g>
				<g>
					<path fill="#7C5142" d="M263.1,233c0,0,0-0.1,0-0.4c0-0.2,0.1-0.6,0.2-1.1c0.3-0.9,1-2.1,2.3-2.7l0.1,0.4l0,0h0l0,0l0,0l0-0.4
						l0,0l0,0l0,0l0,0l0,0h0h0l0,0.4h0h0l0,0l0,0l0,0l-0.1,0l-0.1-0.1c-0.4-0.8-0.7-1.7-0.9-2.6c-0.4-2.2,0-4.3,0.6-5.7
						c0.3-0.7,0.6-1.2,0.8-1.5c0.2-0.3,0.4-0.5,0.4-0.5c0.1,0.1-0.5,0.7-1,2.1c-0.5,1.3-0.8,3.3-0.5,5.5c0.2,0.9,0.5,1.8,0.8,2.5
						l-0.2-0.1l0,0l0,0l0,0l0,0h0l0,0.4h0h0l0,0l0,0l0,0l0,0h0l0-0.4l0,0h0l0,0l0,0l0.9,0l-0.8,0.3c-1.2,0.5-2,1.6-2.2,2.4
						C263.2,232.5,263.2,233.1,263.1,233z"/>
				</g>
			</g>
		</g>
		<g>
			<g>
				<g>
					<path fill="#7C5142" d="M292.6,254.5c-0.1,0-0.8-1.8-1.3-4.2c-0.5-2.4-0.5-4.4-0.4-4.5c0.1,0,0.3,2,0.8,4.4
						C292.2,252.6,292.7,254.5,292.6,254.5z"/>
				</g>
			</g>
		</g>
	</g>
	<g>
		<g>
			<g>
				<path fill="#263238" d="M319.5,293.1c-0.2,0.7-2.2,19.1-2.2,19.1s-14.3,38.6-16.4,50.2c-2,11.6-0.7,23.7,10.9,27.1
					c11.5,3.4,20.9-6.2,20.9-6.2s4.1,6.2,15,4.8c11.1-1.5,50-27.5,50-27.5l-6.6-18.8l-30.3,12.5c0,0,15.3-32.8,15.9-41.3
					c0.5-6.6-8.4-27.7-15.1-31.9c0,0-19,15.8-25.5,14.7C329.6,294.6,319.5,293.1,319.5,293.1z"/>
			</g>
		</g>
		<g>
			<g>
				<g>
					<path fill="#455A64" d="M341.2,312.2c0,0,0,0.1,0,0.2c0,0.2,0,0.4,0,0.6c0,0.5-0.1,1.3-0.3,2.3c-0.3,2-0.9,4.8-1.9,8.2
						c-1,3.4-2.5,7.3-4.2,11.6c-1.7,4.3-3.5,9.1-5,14.2c-0.8,2.6-1.4,5.1-1.9,7.6c-0.5,2.5-0.9,4.9-1,7.2c-0.3,4.7,0.4,8.9,1.7,12.1
						c1.2,3.3,2.9,5.6,4.1,7c0.6,0.7,1.1,1.3,1.5,1.6c0.2,0.2,0.3,0.3,0.4,0.4c0.1,0.1,0.1,0.1,0.1,0.2c0,0-0.1,0-0.2-0.1
						c-0.1-0.1-0.3-0.2-0.4-0.4c-0.4-0.3-0.9-0.9-1.5-1.6c-1.3-1.4-2.9-3.7-4.2-7c-1.3-3.3-2-7.6-1.8-12.3c0.1-2.4,0.5-4.8,1-7.3
						c0.5-2.5,1.1-5.1,1.9-7.7c1.5-5.2,3.3-9.9,5.1-14.2c1.7-4.3,3.2-8.2,4.2-11.6c1-3.4,1.7-6.2,2-8.1c0.2-1,0.3-1.7,0.3-2.3
						c0-0.2,0.1-0.4,0.1-0.6C341.2,312.3,341.2,312.2,341.2,312.2z"/>
				</g>
			</g>
		</g>
		<g>
			<g>
				<g>
					<path fill="#455A64" d="M391,341.7c0,0-0.1,0.1-0.4,0.2c-0.3,0.1-0.7,0.3-1.2,0.5c-1.1,0.4-2.5,1-4.3,1.7
						c-3.6,1.5-8.6,3.4-14.1,5.8c-5.5,2.4-10.4,4.6-13.6,6.8c-0.4,0.3-0.8,0.6-1.1,0.9c-0.3,0.3-0.7,0.6-0.9,0.9
						c-0.5,0.6-0.9,1.2-1.2,1.7c-0.2,0.5-0.4,0.9-0.6,1.2c-0.1,0.3-0.2,0.4-0.2,0.4c0,0,0-0.2,0.2-0.4c0.1-0.3,0.3-0.7,0.5-1.2
						c0.2-0.5,0.6-1.2,1.1-1.8c0.3-0.3,0.6-0.6,0.9-0.9c0.3-0.3,0.7-0.6,1.1-0.9c3.3-2.3,8.2-4.6,13.6-7c5.5-2.4,10.5-4.3,14.1-5.7
						c1.8-0.7,3.2-1.2,4.3-1.6c0.5-0.2,0.9-0.3,1.2-0.4C390.8,341.8,391,341.7,391,341.7z"/>
				</g>
			</g>
		</g>
		<g>
			<g>
				<g>
					<path fill="#455A64" d="M376.6,312.9c0,0,0,0.2,0,0.5c0,0.4-0.1,0.8-0.2,1.3c-0.2,1.1-0.6,2.8-1.2,4.7c-1.2,3.9-3.2,9.2-5.6,15
						c-2.4,5.7-4.7,10.9-6.5,14.5c-0.9,1.8-1.6,3.3-2.1,4.3c-0.2,0.5-0.4,0.9-0.6,1.2c-0.1,0.3-0.2,0.4-0.2,0.4c0,0,0-0.2,0.2-0.4
						c0.1-0.3,0.3-0.7,0.5-1.2c0.5-1.1,1.2-2.6,2-4.4c1.7-3.7,4-8.8,6.4-14.6c2.4-5.7,4.4-11,5.7-14.9c0.6-1.9,1-3.6,1.3-4.7
						c0.1-0.5,0.2-1,0.2-1.3C376.5,313.1,376.6,312.9,376.6,312.9z"/>
				</g>
			</g>
		</g>
		<g>
			<g>
				<g>
					<path fill="#455A64" d="M338.9,314.1c-0.1,0-0.9-4.1-1.7-9.2c-0.8-5.1-1.4-9.3-1.3-9.3c0.1,0,0.9,4.1,1.7,9.2
						C338.4,310,339,314.1,338.9,314.1z"/>
				</g>
			</g>
		</g>
		<g>
			<g>
				<g>
					<path fill="#455A64" d="M368.9,293c0,0-0.2,0.2-0.6,0.6c-0.4,0.3-1,0.8-1.8,1.2c-1.6,0.8-4.2,1.4-6.8,0.6
						c-2.7-0.8-4.5-2.8-5.5-4.5c-0.5-0.8-0.8-1.5-0.9-2c-0.2-0.5-0.2-0.8-0.2-0.8c0.1,0,0.4,1.1,1.4,2.7c1,1.5,2.8,3.4,5.4,4.2
						c2.5,0.8,5,0.3,6.6-0.5C368,293.7,368.8,292.9,368.9,293z"/>
				</g>
			</g>
		</g>
		<g>
			<g>
				<g>
					<path fill="#455A64" d="M329.8,295.5c0,0,0,0.3,0,0.8c0,0.5-0.1,1.3-0.3,2.2c-0.3,1.8-1.2,4.2-2.9,6.4
						c-1.7,2.2-3.7,3.5-5.3,4.2c-0.8,0.4-1.4,0.6-1.9,0.7c-0.5,0.1-0.7,0.1-0.7,0.1c0-0.1,1-0.3,2.5-1.1c1.5-0.7,3.5-2.1,5.1-4.2
						c1.6-2.1,2.5-4.5,2.9-6.2C329.7,296.7,329.8,295.5,329.8,295.5z"/>
				</g>
			</g>
		</g>
		<g>
			<g>
				<g>
					<path fill="#455A64" d="M340.4,296.7c0,0.1-0.6,0.1-0.9,0.8c-0.2,0.3-0.3,0.9-0.1,1.3c0.2,0.5,0.7,0.8,1.2,0.8
						c0.5,0,1-0.5,1.2-0.9c0.2-0.5,0-1-0.2-1.3c-0.5-0.7-1-0.7-1-0.7c0,0,0.1-0.1,0.4,0c0.2,0,0.6,0.2,0.9,0.6
						c0.3,0.3,0.5,1,0.3,1.6c-0.2,0.6-0.7,1.2-1.5,1.2c-0.7,0-1.3-0.5-1.6-1.1c-0.3-0.6-0.1-1.3,0.2-1.6c0.3-0.4,0.6-0.6,0.8-0.7
						C340.3,296.7,340.4,296.7,340.4,296.7z"/>
				</g>
			</g>
		</g>
	</g>
	<g>
		<g>
			<path fill="#7877A7" d="M327.8,204.7l-15.6,0.5c0,0-5,22.1-4.6,36.7c0.2,9,5.3,21.7,6.6,26.3c0.9,3.3-2.2,7.7-3,10.9
				c0,0,0,0.1,0,0.1c-1.3,4.7-7.2,20.9,7.5,20.9c0,0-7.6-4.6-3.8-12.8c3.7-7.9,10.9-11.3,17-7.4c6.1,3.9,8.1,2.2,13.7-0.3
				c5.6-2.5,25.4-8.8,22.8,2.2c0,0,3-6.4-3-11.1c-4.6-3.6-8.5-13.3-8.7-23.3c-0.1-5.3,2-10.9,5.8-14.1l6.7-5.4c0,0-7,0.4-4.9-11.2
				c2-11.6,3.5-13.9,3.5-13.9l-13.2,4.8c-0.5,0.1-0.9,0.2-1.4,0.2l-6.7-0.4L327.8,204.7z"/>
		</g>
	</g>
	<g>
		<g>
			<path fill="#7877A7" d="M294.1,233.2c0,0,7.2-20.2,10.2-23.5c2.7-3,7.9-4.5,7.9-4.5l-4.1,38L294.1,233.2z"/>
		</g>
	</g>
	<g>
		<g>
			<g>
				<path fill="#263238" d="M312.8,264.5c0,0-0.1-0.1-0.2-0.4c-0.1-0.3-0.2-0.7-0.4-1.1c-0.3-1-0.9-2.4-1.4-4.2
					c-1.1-3.6-2.6-8.6-3.4-14.3c-0.4-2.9-0.4-5.7-0.2-8.2c0.2-2.5,0.6-4.7,1-6.6c0.3-1.9,0.6-3.4,0.7-4.4c0.1-0.5,0.1-0.9,0.2-1.2
					c0-0.3,0.1-0.4,0.1-0.4c0,0,0,0.1,0,0.4c0,0.3-0.1,0.7-0.1,1.2c-0.1,1.1-0.3,2.6-0.6,4.4c-0.3,1.9-0.7,4.1-0.9,6.6
					c-0.2,2.5-0.1,5.2,0.2,8.1c0.8,5.7,2.2,10.7,3.3,14.3c0.5,1.8,1,3.2,1.3,4.2c0.1,0.5,0.2,0.8,0.3,1.2
					C312.8,264.3,312.8,264.5,312.8,264.5z"/>
			</g>
		</g>
	</g>
	<g>
		<g>
			<g>
				<path fill="#263238" d="M354,253.2c0,0-0.1-0.3-0.2-1c-0.1-0.6-0.2-1.6-0.3-2.8c-0.2-2.3-0.1-5.6,0.5-9.1
					c0.6-3.5,1.6-6.6,2.6-8.7c0.5-1.1,0.9-1.9,1.2-2.5c0.3-0.6,0.5-0.9,0.5-0.9c0.1,0-0.6,1.3-1.4,3.4c-0.8,2.1-1.8,5.2-2.4,8.7
					c-0.6,3.5-0.7,6.7-0.6,9.1C353.9,251.8,354.1,253.2,354,253.2z"/>
			</g>
		</g>
	</g>
	<g opacity="0.3">
		<g>
			<g>
				<path d="M354.1,250.1c0.5-3.3,1.1-6.5,2.2-9.6c1.1-3.1,2.9-5.9,5.5-7.7c0.6-0.4,1.2-0.7,1.6-1.2c0.5-0.5,0.8-1.3,0.5-2
					c-0.3-1.2-1.8-1.4-2.9-1c-2.2,0.6-3.9,2.5-5,4.7c-1.1,2.2-1.6,4.6-2,7.1c-0.5,2.9-0.8,5.9-0.4,8.8"/>
			</g>
		</g>
	</g>
	<g>
		<g>
			<g>
				<path fill="#263238" d="M368.5,276.8c0,0,0,0-0.1-0.1c-0.1-0.1-0.2-0.2-0.3-0.4c-0.3-0.4-0.8-0.9-1.4-1.5
					c-1.3-1.2-3.4-2.7-6.4-3.3c-1.5-0.3-3.2-0.4-4.9,0c-1.7,0.4-3.5,1.1-5.4,2c-1.8,0.9-3.7,2-5.7,2.9c-1,0.4-2.1,0.8-3.2,1.1
					c-1.1,0.2-2.3,0.3-3.5,0.2c-2.4-0.2-4.5-1.1-6.7-1.6c-2.1-0.5-4.2-0.6-6.2-0.2c-2,0.4-3.8,1.1-5.3,2.1c-1.5,1-2.8,2.2-3.8,3.4
					c-2,2.5-2.9,5.1-3.4,6.8c-0.2,0.9-0.3,1.6-0.4,2.1c0,0.2-0.1,0.4-0.1,0.6c0,0.1,0,0.2,0,0.2c0,0,0-1,0.4-2.9
					c0.4-1.8,1.3-4.4,3.3-7c1-1.3,2.3-2.5,3.8-3.5c1.6-1,3.4-1.8,5.4-2.2c2-0.4,4.2-0.3,6.4,0.2c2.2,0.5,4.3,1.3,6.6,1.6
					c1.1,0.1,2.3,0,3.4-0.2c1.1-0.2,2.2-0.6,3.2-1c2-0.9,3.9-2,5.7-2.9c1.8-0.9,3.7-1.7,5.4-2c1.8-0.3,3.5-0.3,5,0.1
					c3,0.7,5.2,2.2,6.5,3.5C368,276,368.5,276.8,368.5,276.8z"/>
			</g>
		</g>
	</g>
	<g>
		<g>
			<g>
				<path fill="#263238" d="M348.4,242.5c0,0,0,0.1,0,0.4c0,0.3,0,0.7,0,1.2c0,1-0.1,2.5-0.5,4.2c-0.6,3.5-2.3,8.3-5.6,12.5
					c-3.3,4.2-7.4,6.7-10.5,7.9c-1.5,0.6-2.8,1-3.8,1.1c-0.5,0.1-0.8,0.1-1,0.2c-0.2,0-0.4,0-0.4,0c0,0,0.5-0.1,1.4-0.4
					c0.9-0.2,2.2-0.6,3.7-1.3c3-1.3,7-3.8,10.3-7.9c3.3-4.1,4.9-8.8,5.6-12.3c0.4-1.7,0.5-3.2,0.6-4.2
					C348.4,243.1,348.4,242.5,348.4,242.5z"/>
			</g>
		</g>
	</g>
	<g opacity="0.3">
		<g>
			<g>
				<path d="M347.1,251c-0.8-0.2-1.7,0.4-2.2,1.1c-0.5,0.7-0.8,1.6-1.2,2.5c-1.8,4.4-5.1,8-9.2,9.8c-1.1,0.5-2.2,0.9-3.2,1.6
					c-1,0.7-1.7,1.9-1.6,3.2c0,0,7.2-1.5,12-7.9C346.5,254.8,347.1,251,347.1,251z"/>
			</g>
		</g>
	</g>
	<g>
		<g>
			<path fill="#FAFAFA" d="M319.9,218.9c-0.5-0.8-1-1.6-1.8-2c-1.4-0.6-2.9,0.8-4.4,0.8c-1.8,0-3-1.8-4.5-3c-1.9-1.5-4.3-2-6.6-2.3
				l-0.8,1.6c2,1.5,5.2-0.6,7.3,0.9c0.9,0.7,1.4,1.8,1.9,2.9c0.5,1.1,1.3,2.2,2.4,2.3c1.1,0.1,2-0.7,3.1-0.9
				c3.3-0.6,5.6,4.7,8.9,4.1C323.2,222.5,321.2,220.9,319.9,218.9z"/>
		</g>
	</g>
	<g>
		<g>
			<path fill="#FAFAFA" d="M307.2,239.5c1-1.4,2.8-1.9,4.5-1.7c1.6,0.2,3.2,0.9,4.8,1.5c1.6,0.5,3.3,0.8,4.9,0.1
				c0.7-0.3,1.4-0.9,2.2-1.1c1.1-0.3,2.2,0.2,3.2,0.6c2.2,0.8,4.6,1.1,6.9,0.9c0.9-0.1,1.8-0.2,2.7-0.2c0.9,0.1,1.8,0.4,2.4,1.1
				c1.1-0.7,2.3-1.2,3.6-1.4c-1.5,1.1-3,2.3-4.8,2.5c-2,0.3-4-0.7-6-1.2c-5.5-1.3-11.2,1.4-16.6,0.2c-1.3-0.3-2.5-0.8-3.8-0.9
				c-1.3-0.1-2.7,0.3-3.5,1.5"/>
		</g>
	</g>
	<g>
		<g>
			<path fill="#FAFAFA" d="M311,256.5c2.2,0.5,4.1-1.5,6.2-2.2c1.9-0.6,3.9-0.2,5.8,0.4c1.9,0.6,3.7,1.3,5.7,1.4
				c1.2,0,2.4-0.2,3.6,0.1c0.9,0.3,1.7,0.9,2.5,1.3c2.8,1.4,6,0.7,9-0.1c-2.2,1.4-4.7,1.9-7.3,1.8c-2.5-0.1-5-0.7-7.5-1.3
				c-2-0.5-4-1-6-1.5c-1.5-0.4-3.1-0.7-4.6-0.4c-2.6,0.5-4.7,2.9-7.3,2.6"/>
		</g>
	</g>
	<g>
		<g>
			<path fill="#FAFAFA" d="M333.9,268c1.6,0.2,3.2,0.3,4.8,0.4c1.3,0.1,2.6,0.1,3.8-0.2c2.1-0.6,3.9-2.1,6-2.3
				c2.2-0.2,4.3,1.2,6.5,1.3c2,0.2,4.1-0.8,5.4-2.4c-3.2,1-6.6,1.1-9.8,0.3c-1.5-0.4-3-1-4.5-0.6c-1.2,0.3-2.2,1.2-3.3,1.8
				c-2.7,1.6-5.9,1.5-8.9,1.5"/>
		</g>
	</g>
	<g>
		<g>
			<path fill="#FAFAFA" d="M346.7,238c0.2-1.9,6.3-3.6,8.8-6c-0.2,1.9-1.6,3.7-3.3,4.2c-0.9,0.3-1.9,0.3-2.9,0.4
				S347.3,237.1,346.7,238"/>
		</g>
	</g>
	<g>
		<g>
			<path fill="#FAFAFA" d="M335.8,224.6c1,0.9,2.5,0.6,3.7,0.2c1.2-0.4,2.5-1,3.8-0.7c1.2,0.3,2.2,1.4,3.3,2
				c1.5,0.8,3.4,0.7,4.9-0.2c1.5-0.8,2.7-2.3,3.4-4c0.3-0.8,0.6-1.7,1.2-2.2c0.7-0.6,1.7-0.5,2.5-0.8c1.3-0.5,2.3-1.8,3-3.1
				c0.7-1.3,1.5-2.7,2.7-3.5c-1.1-0.4-2.2,0.4-2.9,1.3c-0.7,0.9-1.3,2-2.3,2.6c-1,0.6-2.2,0.6-3.1,1.2c-1.7,1-2.3,3.4-3.5,5.1
				c-1.4,1.9-4,3-5.9,1.8c-1.1-0.6-2-1.8-3.2-1.8c-0.8,0-1.5,0.5-2.2,0.9c-1.6,0.9-3.5,1.3-5.3,1.1c0.1,0,0.3,0.1,0.4,0.1"/>
		</g>
	</g>
	<g>
		<g>
			<path fill="#FAFAFA" d="M308.8,290.7c-0.1-1.1,0.3-2.2,0.9-3.2c0.6-0.9,1.3-1.8,1.8-2.8c0.7-1.4,0.9-3,1.5-4.4
				c0.5-1.5,1.4-2.9,2.8-3.4c0.9-0.3,1.9-0.1,2.9-0.3c1.6-0.4,2.9-1.8,4.5-2.2c1.3-0.3,2.7,0.3,4,0.2c1.2-0.1,2.4-0.6,3.2-1.6
				c-1.1,0.7-2.4,0.6-3.6,0.3c-1.2-0.2-2.5-0.6-3.6-0.3c-0.8,0.2-1.5,0.7-2.3,0.9c-1.5,0.4-3,0-4.5,0.4c-2.1,0.6-3.5,2.8-4.4,5
				c-0.9,2.2-1,4-2.4,5.8C309.5,285.2,308.4,289.9,308.8,290.7z"/>
		</g>
	</g>
	<g>
		<g>
			<path fill="#FAFAFA" d="M321.7,207.6c-0.6-0.3-1.2-0.5-1.8-1c-0.5-0.4-1-0.9-1.1-1.6l-2.3,0.1c0.7,1.9,2.6,3.7,4.5,3.9
				c0.5,0.1,1.1,0,1.6,0.2c0.6,0.2,1,0.8,1.6,1.1c0.5,0.3,1.3,0.4,1.7-0.2C324.7,209.1,323.2,208.3,321.7,207.6z"/>
		</g>
	</g>
	<g>
		<g>
			<path fill="#FAFAFA" d="M307.2,227.4c-0.9-0.4-1.9-0.3-2.9-0.1c-1,0.2-2,0.4-2.9,0.1c-0.8-0.3-1.5-0.9-2.2-1.4
				c-0.7-0.5-1.3-1-2.2-0.8l-0.4,1.1c0,0.5,0.4,0.2,0.8,0.4c0.4,0.1,0.9,0.2,1.2,0.6c0.2,0.3,0.3,0.8,0.5,1.1c0.3,0.8,1.2,1.1,2,1
				c0.8-0.1,1.5-0.4,2.2-0.8c0.7-0.4,1.4-0.7,2.2-0.7c1.2,0,2.3,0.8,2.7,2C308.7,229,308.1,227.8,307.2,227.4z"/>
		</g>
	</g>
	<g>
		<g>
			<g>
				<path fill="none" stroke="#FFFFFF" stroke-miterlimit="10" d="M300.4,229.8"/>
			</g>
		</g>
	</g>
	<g>
		<g>
			<path fill="#263238" d="M357.1,204.6c0.9,1.4,2.7,1.7,4.2,1.4s2.9-1.2,4.3-1.9c1.4-0.7,3-1.2,4.5-0.7c1.8,0.6,3,2.5,4.6,3.5
				c2.3,1.3,5.4,0.4,6.9-1.9c0.7-1.3,1-2.8,1.5-4.2c0.4-1.4,1.2-2.9,2.4-3.5c1.5-0.7,3.2-0.1,4.7-0.6c2.1-0.6,3.3-3.2,3.6-5.6
				c0.6-4.4,2.8-13.1-12.9-14.3"/>
		</g>
	</g>
	<g>
		<g>
			<g>
				<g>
					<g>
						<g>
							<g>
								<g>
									<g>
										<g>
											<g>
												<path fill="#936754" d="M351.7,170.5c1-9-5-17.3-13.4-18.2c-7.9-0.8-15,5.6-16.2,14.2c-1,7.5-1.9,15.1-1.9,17.9
													c0.1,8.3,4.6,11.6,6.4,12.5c0.4,0.2,1.6,0.5,2,0.5l0,0c0,0,0,0,0,0.1l-1.7,9.6c-0.8,6.3,2.4,11.8,8.2,12.8
													c5.7,0.9,10.2-3.9,11.1-10.2L351.7,170.5z"/>
											</g>
										</g>
										<g>
											<g>
												<g>
													<g>
														<g>
															<g>
																<g>
																	<path fill="#263238" d="M323.5,171.5c0.1,0.2,1.1-0.4,2.4-0.2c1.3,0.2,2.1,1.1,2.3,0.9c0.1-0.1,0-0.4-0.4-0.8
																		c-0.4-0.4-1-0.8-1.8-0.9c-0.8-0.1-1.5,0.1-2,0.4C323.6,171.1,323.4,171.4,323.5,171.5z"/>
																</g>
															</g>
														</g>
													</g>
												</g>
											</g>
										</g>
										<g>
											<g>
												<g>
													<g>
														<g>
															<g>
																<g>
																	<path fill="#263238" d="M335.4,173.6c0.1,0.2,1.1-0.4,2.4-0.2c1.3,0.2,2.1,1.1,2.3,0.9c0.1-0.1,0-0.4-0.4-0.8
																		c-0.4-0.4-1-0.8-1.8-0.9c-0.8-0.1-1.5,0.1-2,0.4C335.6,173.2,335.4,173.5,335.4,173.6z"/>
																</g>
															</g>
														</g>
													</g>
												</g>
											</g>
										</g>
										<g>
											<g>
												<g>
													<g>
														<g>
															<g>
																<path fill="#263238" d="M330.5,180.8c0-0.1-0.8-0.4-2-0.7c-0.3-0.1-0.6-0.2-0.6-0.5c0-0.3,0.1-0.6,0.4-1
																	c0.4-0.8,0.9-1.7,1.3-2.6c1.9-3.7,3.3-6.7,3.1-6.8c-0.1-0.1-1.8,2.8-3.6,6.5c-0.5,0.9-0.9,1.8-1.3,2.6
																	c-0.2,0.4-0.5,0.8-0.4,1.4c0.1,0.3,0.3,0.5,0.5,0.6c0.2,0.1,0.4,0.1,0.5,0.2C329.7,180.7,330.5,180.9,330.5,180.8z"
																	/>
															</g>
														</g>
													</g>
												</g>
											</g>
										</g>
										<g>
											<g>
												<g>
													<g>
														<g>
															<path fill="#7C5142" d="M328.7,197.5c0,0,4.9,1.2,11.7-1.9c0,0-2.9,6.9-12.2,4.4L328.7,197.5z"/>
														</g>
													</g>
												</g>
											</g>
										</g>
										<g>
											<g>
												<g>
													<g>
														<g>
															<path fill="#7C5142" d="M330.6,184.3c0.6-0.6,1.4-0.8,2.2-0.6c0.6,0.2,1.1,0.5,1.4,1.1c0.3,0.6,0.3,1.3-0.1,1.7
																c-0.4,0.5-1.2,0.5-1.8,0.2c-0.6-0.3-1.1-0.8-1.5-1.3c-0.1-0.1-0.2-0.3-0.3-0.5C330.4,184.6,330.4,184.4,330.6,184.3"
																/>
														</g>
													</g>
												</g>
											</g>
										</g>
										<g>
											<g>
												<g>
													<g>
														<g>
															<g>
																<path fill="#263238" d="M334.2,182.4c-0.2,0-0.4,1.5-1.8,2.4c-1.3,0.9-2.8,0.5-2.9,0.7c0,0.1,0.3,0.3,0.9,0.5
																	c0.6,0.1,1.5,0,2.4-0.5c0.8-0.5,1.3-1.4,1.4-2C334.4,182.8,334.3,182.4,334.2,182.4z"/>
															</g>
														</g>
													</g>
												</g>
											</g>
										</g>
									</g>
								</g>
							</g>
							<g>
								<g>
									<g>
										<g>
											<g>
												<path fill="#263238" d="M336.3,168.5c0.1,0.4,1.4,0.4,2.9,0.9c1.5,0.4,2.7,1.1,2.9,0.8c0.1-0.2-0.1-0.5-0.5-1
													c-0.4-0.4-1.2-0.9-2.1-1.2c-0.9-0.3-1.7-0.2-2.3-0.1C336.6,168.1,336.3,168.3,336.3,168.5z"/>
											</g>
										</g>
									</g>
								</g>
							</g>
							<g>
								<g>
									<g>
										<g>
											<g>
												<path fill="#263238" d="M324.8,166c0.2,0.4,1.1,0.2,2.2,0.3c1.1,0.1,1.9,0.5,2.2,0.2c0.1-0.1,0-0.5-0.3-0.9
													c-0.3-0.4-1-0.7-1.7-0.8c-0.7-0.1-1.4,0.1-1.8,0.4C324.9,165.5,324.7,165.8,324.8,166z"/>
											</g>
										</g>
									</g>
								</g>
							</g>
						</g>
					</g>
				</g>
			</g>
		</g>
		<g>
			<g>
				<path fill="#263238" d="M362.1,193.3c0.5-1.2,0.9-2.3,1.1-3c0.9-2.8,0.9-7.3-0.4-9.9c-1.1-2.5-4-4.9-4.9-7.3
					c-1.3-3.7-0.3-4.6-1.3-12.3c-0.6-4.3-5.9-10.4-11.5-9.4c-1.8-2.2-4.2-3.4-6.7-3.9c-6-1.2-12.6,1.3-16.2,7.3
					c-1.7,2.7-2.7,6.4-1.7,9.7c1.6,2.6,6.6,1,9.6-0.8c3.2,2.3,7.6,1.3,9.8-2.2c0.6,0.9,1.5,1.3,2.4,1.4c0.1,1,0.2,1.8,0.3,2.3
					c0.3,2.4,3.6,5.9,3.6,8.3c0.1,4.6-3.1,4.8-4,9.2c-0.7,3.4,1.7,5.3,2.1,8.7c0.1,0.5-5.5,11.6,1.7,16.2c0,0,0.2,0.2,0.5,0.5
					c2.6,2.8,2.8,7.2,0.8,10.5c-1.9,3.1-3.9,8.1,0.9,10.9c0,0,1.4-4.9,3.4-5.8c5-2.4,10.2-2.8,8.1-14.7
					C357.8,197,360.6,198.4,362.1,193.3z"/>
			</g>
		</g>
	</g>
	<g>
		<g>
			<g>
				<g>
					<g>
						<g>
							<g>
								<g>
									<g>
										<g>
											<g>
												<path fill="#FFBE9D" d="M143.6,150.6l3.5,44.6l20.5-1.8c0.1-2.6,0-12.7,0-12.7s8.5-1.4,8.6-10.7
													c0.1-4.5-0.5-13.8-1.2-22.3c-0.7-9.3-8.1-16.3-16.6-15.8h0C149.6,132.5,142.9,140.9,143.6,150.6z"/>
											</g>
										</g>
									</g>
								</g>
							</g>
						</g>
					</g>
				</g>
			</g>
		</g>
		<g>
			<g>
				<g>
					<g>
						<g>
							<g>
								<g>
									<g>
										<g>
											<g>
												<g>
													<g>
														<g>
															<g>
																<path fill="#EB996E" d="M167.6,180.6c0,0-5.4,0.5-11.1-3.4c0,0,2.6,6.7,11.1,5.9L167.6,180.6z"/>
															</g>
														</g>
													</g>
												</g>
											</g>
										</g>
									</g>
								</g>
							</g>
						</g>
					</g>
				</g>
			</g>
			<g>
				<g>
					<g>
						<g>
							<g>
								<g>
									<g>
										<g>
											<g>
												<g>
													<g>
														<g>
															<g>
																<g>
																	<g>
																		<g>
																			<path fill="#263238" d="M172.1,153.9c0,0.7-0.5,1.3-1.2,1.3c-0.7,0-1.2-0.5-1.3-1.2c0-0.7,0.5-1.3,1.2-1.3
																				C171.5,152.6,172,153.2,172.1,153.9z"/>
																		</g>
																	</g>
																</g>
															</g>
														</g>
													</g>
												</g>
											</g>
										</g>
									</g>
									<g>
										<g>
											<g>
												<g>
													<g>
														<g>
															<g>
																<g>
																	<g>
																		<g>
																			<g>
																				<path fill="#263238" d="M173.2,152.4c-0.2,0.2-1.1-0.6-2.4-0.6c-1.3,0-2.3,0.7-2.4,0.5
																					c-0.1-0.1,0.1-0.4,0.5-0.7c0.4-0.3,1.1-0.7,1.9-0.6c0.8,0,1.5,0.3,1.9,0.7C173.2,152,173.3,152.3,173.2,152.4z"
																					/>
																			</g>
																		</g>
																	</g>
																</g>
															</g>
														</g>
													</g>
												</g>
											</g>
										</g>
									</g>
								</g>
								<g>
									<g>
										<g>
											<g>
												<g>
													<g>
														<g>
															<g>
																<g>
																	<g>
																		<g>
																			<path fill="#263238" d="M158.9,154.2c0,0.7-0.5,1.3-1.2,1.3c-0.7,0-1.2-0.5-1.3-1.2c0-0.7,0.5-1.3,1.2-1.3
																				C158.3,153,158.9,153.5,158.9,154.2z"/>
																		</g>
																	</g>
																</g>
															</g>
														</g>
													</g>
												</g>
											</g>
										</g>
									</g>
									<g>
										<g>
											<g>
												<g>
													<g>
														<g>
															<g>
																<g>
																	<g>
																		<g>
																			<g>
																				<path fill="#263238" d="M160.4,152.6c-0.2,0.2-1.1-0.6-2.4-0.6c-1.3,0-2.3,0.7-2.4,0.5
																					c-0.1-0.1,0.1-0.4,0.5-0.7c0.4-0.3,1.1-0.7,1.9-0.6c0.8,0,1.5,0.3,1.9,0.7C160.3,152.3,160.4,152.6,160.4,152.6
																					z"/>
																			</g>
																		</g>
																	</g>
																</g>
															</g>
														</g>
													</g>
												</g>
											</g>
										</g>
									</g>
								</g>
								<g>
									<g>
										<g>
											<g>
												<g>
													<g>
														<g>
															<g>
																<g>
																	<g>
																		<g>
																			<path fill="#263238" d="M165.1,163.2c0-0.1,0.8-0.2,2.1-0.4c0.3,0,0.7-0.1,0.7-0.4c0.1-0.3-0.1-0.7-0.2-1.1
																				c-0.3-0.9-0.6-1.8-1-2.8c-1.4-4-2.4-7.2-2.2-7.3c0.1-0.1,1.4,3.1,2.8,7.1c0.3,1,0.6,1.9,0.9,2.8
																				c0.1,0.4,0.3,0.9,0.2,1.4c-0.1,0.3-0.3,0.5-0.5,0.5c-0.2,0.1-0.4,0.1-0.6,0.1
																				C165.9,163.3,165.1,163.3,165.1,163.2z"/>
																		</g>
																	</g>
																</g>
															</g>
														</g>
													</g>
												</g>
											</g>
										</g>
									</g>
								</g>
								<g>
									<g>
										<g>
											<g>
												<g>
													<g>
														<g>
															<g>
																<g>
																	<g>
																		<g>
																			<path fill="#263238" d="M161.3,164.2c0.2,0,0.2,1.5,1.4,2.6c1.2,1.1,2.7,0.9,2.7,1.1c0,0.1-0.3,0.3-1,0.3
																				c-0.6,0-1.5-0.2-2.3-0.9c-0.7-0.7-1.1-1.6-1.1-2.2C161,164.6,161.2,164.2,161.3,164.2z"/>
																		</g>
																	</g>
																</g>
															</g>
														</g>
													</g>
												</g>
											</g>
										</g>
									</g>
								</g>
							</g>
						</g>
					</g>
					<g>
						<g>
							<g>
								<g>
									<g>
										<g>
											<g>
												<g>
													<g>
														<g>
															<path fill="#263238" d="M160.7,147c-0.1,0.4-1.4,0.2-3,0.4c-1.5,0.2-2.8,0.7-3,0.3c-0.1-0.2,0.1-0.5,0.6-0.9
																c0.5-0.4,1.3-0.7,2.2-0.8c0.9-0.1,1.8,0,2.3,0.3C160.5,146.6,160.8,146.9,160.7,147z"/>
														</g>
													</g>
												</g>
											</g>
										</g>
									</g>
								</g>
							</g>
						</g>
					</g>
					<g>
						<g>
							<g>
								<g>
									<g>
										<g>
											<g>
												<g>
													<g>
														<g>
															<path fill="#263238" d="M172.8,148.2c-0.2,0.3-1.1,0-2.2,0c-1.1-0.1-2,0.2-2.2-0.1c-0.1-0.2,0.1-0.5,0.5-0.8
																c0.4-0.3,1.1-0.6,1.8-0.5c0.7,0,1.4,0.3,1.8,0.7C172.7,147.7,172.9,148.1,172.8,148.2z"/>
														</g>
													</g>
												</g>
											</g>
										</g>
									</g>
								</g>
							</g>
						</g>
					</g>
				</g>
			</g>
			<g>
				<g>
					<g>
						<g>
							<path fill="#263238" d="M152.9,140.4C152.9,140.4,152.8,140.4,152.9,140.4c-1.4,1.2-2.3,2.9-2.5,4.8c0,0.1,0,0.1,0,0.2
								c-0.3,2.7-0.3,5.4-0.6,8c-0.4,2.6-1.2,5.3-3,7.2c-0.7,0.8-2,1.3-2.7,0.4c-0.2-0.3-0.3-0.8-0.3-1.2c-0.5-6.4-2.1-12.1-2-18.8
								c0-1.8,0.8-3.5,2.1-4.6c1.3-1,2.9-2,4.3-1.3c1.4,0.7,3.3,3.7,4.4,4.9"/>
						</g>
					</g>
				</g>
			</g>
			<g>
				<g>
					<g>
						<g>
							<g>
								<g>
									<g>
										<g>
											<g>
												<g>
													<g>
														<path fill="#FFBE9D" d="M146.5,154.8c-0.1-0.1-5.9-1.9-5.7,4.5c0.2,6.4,6,4.8,6,4.7
															C146.8,163.7,146.5,154.8,146.5,154.8z"/>
													</g>
												</g>
											</g>
										</g>
									</g>
								</g>
							</g>
						</g>
					</g>
				</g>
				<g>
					<g>
						<g>
							<g>
								<g>
									<g>
										<g>
											<g>
												<g>
													<g>
														<g>
															<path fill="#EB996E" d="M145,161.5c0,0-0.1,0.1-0.3,0.2c-0.2,0.1-0.5,0.2-0.8,0c-0.6-0.2-1.2-1.3-1.2-2.4
																c0-0.6,0.1-1.1,0.2-1.6c0.2-0.5,0.4-0.8,0.7-0.9c0.3-0.1,0.5,0.1,0.6,0.3c0.1,0.2,0.1,0.3,0.1,0.3
																c0,0,0.1-0.1,0.1-0.4c0-0.1-0.1-0.3-0.2-0.4c-0.1-0.1-0.4-0.2-0.6-0.1c-0.4,0-0.8,0.5-1,1c-0.2,0.5-0.3,1.1-0.3,1.8
																c0.1,1.3,0.7,2.5,1.6,2.7c0.4,0.1,0.8,0,0.9-0.2C145,161.7,145,161.5,145,161.5z"/>
														</g>
													</g>
												</g>
											</g>
										</g>
									</g>
								</g>
							</g>
						</g>
					</g>
				</g>
			</g>
			<g>
				<g>
					<g>
						<g>
							<path fill="#263238" d="M147.3,137c-1.8-2.3,1.6-6.5,4.3-8c2.7-1.5,6.7-0.6,9.6-0.1c1.9,0.3,3.8,0.9,5.7,0.5
								c1.3-0.3,2.4-1,3.5-1.6c1.1-0.7,2.3-1.3,3.6-1.4c1.3-0.1,2.7,0.4,3.3,1.6c0.7,1.2,0.2,3.1-1,3.5c1.5-1.2,3.9-0.4,4.5,1.5
								c0.5,1.9-1.1,4.2-2.9,4c0.7-0.8,2.1,0.1,2.2,1.2c0.1,1.1-0.8,2.1-1.6,2.7c-2.2,1.6-5.1,1.7-7.7,1.2c-2.6-0.5-5.1-1.5-7.7-2.1
								c-2.6-0.6-7-1.6-9.3-0.2c-1.7,1-2.6,3.6-3.7,3.3c-1.1-0.3-1.9-1.4-2.2-2.5C147.4,139.4,147.3,138.2,147.3,137"/>
						</g>
					</g>
				</g>
			</g>
			<g>
				<g>
					<g>
						<g>
							<g>
								<path fill="#455A64" d="M145,154.5c0,0,0.3-0.2,0.5-0.7c0.2-0.5,0.4-1.3,0.3-2.3c-0.1-2-1.8-4.2-2-7.1
									c-0.1-1.4,0.1-2.8,0.6-3.8c0.5-1,1.4-1.7,2.2-2c0.8-0.4,1.5-0.4,1.9-0.3c0.5,0.1,0.7,0.2,0.7,0.1c0,0-0.2-0.2-0.7-0.4
									c-0.5-0.1-1.3-0.2-2.1,0.1c-0.9,0.3-1.8,1-2.5,2.2c-0.6,1.1-0.9,2.6-0.8,4.1c0.1,1.5,0.6,2.9,1.1,4c0.5,1.1,0.9,2.2,1,3.1
									C145.7,153.4,144.9,154.5,145,154.5z"/>
							</g>
						</g>
					</g>
				</g>
			</g>
		</g>
		<g>
			<g>
				<g>
					<path fill="#263238" d="M170.3,121.8c0,0,0.1,0.1,0.2,0.3c0.1,0.2,0.3,0.5,0.4,0.9c0.3,0.8,0.3,2.3-0.5,3.6
						c-0.8,1.4-2.5,2.3-4.4,2.5c-1.9,0.2-4-0.5-6.1-1c-1.1-0.3-2.1-0.5-3.1-0.6c-1-0.1-2,0-2.9,0.3c-1.8,0.5-3.2,1.6-4.2,2.7
						c-1,1.1-1.5,2.2-1.9,3c-0.3,0.8-0.4,1.3-0.5,1.2c0,0,0-0.1,0.1-0.3c0-0.2,0.1-0.6,0.3-1c0.3-0.8,0.8-2,1.8-3.1
						c1-1.2,2.4-2.3,4.3-2.9c0.9-0.3,2-0.4,3-0.3c1,0.1,2.1,0.3,3.2,0.6c2.1,0.6,4.1,1.2,6,1.1c1.8-0.1,3.4-1,4.2-2.3
						c0.8-1.3,0.8-2.6,0.6-3.4C170.6,122.2,170.2,121.9,170.3,121.8z"/>
				</g>
			</g>
		</g>
	</g>
	<g>
		<g>
			<g>
				<g>
					<g>
						<g>
							<g>
								<path fill="#455A64" d="M139.5,347L128,331c0,0-18.8,7.4-21.2,4.6l27.6-25.4l18.8,24.1L139.5,347z"/>
							</g>
						</g>
					</g>
				</g>
				<g>
					<g>
						<g>
							<g>
								<g>
									<path fill="#E0E0E0" d="M137.6,324.5c0.4-0.7,0.3-1.6-0.3-2.1c-0.6-0.5-1.5-0.3-1.9,0.3c-0.4,0.6-0.3,1.8,0.3,2.2
										c0.6,0.4,1.7,0.2,2-0.6"/>
								</g>
							</g>
						</g>
					</g>
				</g>
				<g>
					<g>
						<g>
							<g>
								<path fill="#E0E0E0" d="M134.5,310.2l1.8,2.5l-27.2,23.4c0,0-1.7,0.5-2.3-0.5L134.5,310.2z"/>
							</g>
						</g>
					</g>
				</g>
				<g>
					<g>
						<g>
							<g>
								<g>
									<path fill="#263238" d="M127.7,331.6c-0.1-0.2,0.5-0.8,0.8-1.9c0.3-1.1,0.2-2,0.3-2.1c0.1-0.1,0.6,1,0.2,2.3
										C128.7,331.2,127.8,331.7,127.7,331.6z"/>
								</g>
							</g>
						</g>
					</g>
				</g>
				<g>
					<g>
						<g>
							<g>
								<g>
									<path fill="#263238" d="M123.8,332.9c-0.1-0.1,0.2-0.9,0.2-1.9c0-1-0.4-1.8-0.3-1.9c0.1-0.1,0.9,0.6,0.9,1.9
										C124.6,332.3,123.9,333.1,123.8,332.9z"/>
								</g>
							</g>
						</g>
					</g>
				</g>
				<g>
					<g>
						<g>
							<g>
								<g>
									<path fill="#263238" d="M119.2,330.7c0.1-0.1,0.9,0.4,1.1,1.5c0.3,1.1-0.1,2-0.3,2c-0.2-0.1-0.1-0.9-0.3-1.8
										C119.5,331.5,119.1,330.8,119.2,330.7z"/>
								</g>
							</g>
						</g>
					</g>
				</g>
				<g>
					<g>
						<g>
							<g>
								<g>
									<path fill="#263238" d="M130.7,334.9c0-0.2,0.7-0.6,1.4-1.3c0.7-0.7,1.1-1.6,1.3-1.5c0.2,0,0,1.1-0.9,2
										C131.7,335,130.7,335.1,130.7,334.9z"/>
								</g>
							</g>
						</g>
					</g>
				</g>
			</g>
			<g>
				<g>
					<g>
						<g>
							<g>
								<path fill="#263238" d="M133,338.1c0-0.1,0.4-0.6,1.4-1.3c0.5-0.3,1.1-0.6,1.8-0.8c0.4-0.1,0.7-0.2,1.2-0.3
									c0.2,0,0.4-0.1,0.7,0c0.3,0,0.7,0.3,0.7,0.7c0,0.4-0.1,0.7-0.3,0.9c-0.2,0.2-0.4,0.3-0.6,0.4c-0.4,0.2-0.7,0.4-1.1,0.5
									c-0.7,0.2-1.4,0.3-2,0.3c-1.1-0.1-1.8-0.4-1.8-0.5c0-0.1,0.7,0.1,1.8,0c0.5,0,1.2-0.1,1.8-0.4c0.3-0.1,0.7-0.3,1-0.5
									c0.4-0.2,0.6-0.4,0.6-0.6c0-0.1,0-0.1-0.2-0.1c-0.1,0-0.3,0-0.5,0c-0.4,0.1-0.7,0.1-1.1,0.2c-0.7,0.2-1.3,0.4-1.8,0.7
									C133.7,337.7,133.1,338.2,133,338.1z"/>
							</g>
						</g>
					</g>
				</g>
			</g>
			<g>
				<g>
					<g>
						<g>
							<g>
								<path fill="#263238" d="M133.1,337.7c0-0.1,0.7,0.2,1.5,1.1c0.4,0.5,0.8,1.1,1.1,1.8c0.1,0.4,0.3,0.8,0.4,1.2
									c0.1,0.4,0.2,1-0.3,1.6c-0.3,0.3-0.7,0.2-0.9,0.1c-0.2-0.1-0.4-0.3-0.6-0.4c-0.3-0.3-0.6-0.7-0.8-1
									c-0.4-0.7-0.6-1.5-0.6-2.1c-0.1-1.3,0.4-2,0.4-1.9c0.1,0-0.1,0.7,0,1.9c0.1,0.6,0.3,1.2,0.7,1.8c0.2,0.3,0.4,0.6,0.7,0.8
									c0.3,0.3,0.6,0.4,0.7,0.3c0.1-0.1,0.2-0.6,0.1-0.9c-0.1-0.4-0.2-0.8-0.3-1.1c-0.2-0.7-0.6-1.3-0.9-1.8
									C133.6,338.2,133,337.8,133.1,337.7z"/>
							</g>
						</g>
					</g>
				</g>
			</g>
		</g>
	</g>
	<g>
		<g>
			<g>
				<g>
					<g>
						<g>
							<g>
								<path fill="#455A64" d="M110.9,357.6l-11.5-16c0,0-18.8,7.4-21.2,4.6l27.6-25.4l18.8,24.1L110.9,357.6z"/>
							</g>
						</g>
					</g>
				</g>
				<g>
					<g>
						<g>
							<g>
								<g>
									<path fill="#E0E0E0" d="M109,335.1c0.4-0.7,0.3-1.6-0.3-2.1c-0.6-0.5-1.5-0.3-1.9,0.3c-0.4,0.6-0.3,1.8,0.3,2.2
										c0.6,0.4,1.7,0.2,2-0.6"/>
								</g>
							</g>
						</g>
					</g>
				</g>
				<g>
					<g>
						<g>
							<g>
								<path fill="#E0E0E0" d="M105.9,320.9l1.8,2.5l-27.2,23.4c0,0-1.7,0.5-2.3-0.5L105.9,320.9z"/>
							</g>
						</g>
					</g>
				</g>
				<g>
					<g>
						<g>
							<g>
								<g>
									<path fill="#263238" d="M99.1,342.2c-0.1-0.2,0.5-0.8,0.8-1.9c0.3-1.1,0.2-2,0.3-2.1c0.1-0.1,0.6,1,0.2,2.3
										C100.1,341.8,99.2,342.4,99.1,342.2z"/>
								</g>
							</g>
						</g>
					</g>
				</g>
				<g>
					<g>
						<g>
							<g>
								<g>
									<path fill="#263238" d="M95.2,343.6c-0.1-0.1,0.2-0.9,0.2-1.9c0-1-0.4-1.8-0.3-1.9c0.1-0.1,0.9,0.6,0.9,1.9
										C96,342.9,95.3,343.7,95.2,343.6z"/>
								</g>
							</g>
						</g>
					</g>
				</g>
				<g>
					<g>
						<g>
							<g>
								<g>
									<path fill="#263238" d="M90.6,341.3c0.1-0.1,0.9,0.4,1.1,1.5c0.3,1.1-0.1,2-0.3,2c-0.2-0.1-0.1-0.9-0.3-1.8
										C90.9,342.1,90.5,341.4,90.6,341.3z"/>
								</g>
							</g>
						</g>
					</g>
				</g>
				<g>
					<g>
						<g>
							<g>
								<g>
									<path fill="#263238" d="M102.1,345.5c0-0.2,0.7-0.6,1.4-1.3c0.7-0.7,1.1-1.6,1.3-1.5c0.2,0,0,1.1-0.9,2
										C103.1,345.6,102.1,345.7,102.1,345.5z"/>
								</g>
							</g>
						</g>
					</g>
				</g>
			</g>
			<g>
				<g>
					<g>
						<g>
							<g>
								<path fill="#263238" d="M104.5,348.7c0-0.1,0.4-0.6,1.4-1.3c0.5-0.3,1.1-0.6,1.8-0.8c0.4-0.1,0.7-0.2,1.2-0.3
									c0.2,0,0.4-0.1,0.7,0c0.3,0,0.7,0.3,0.7,0.7c0,0.4-0.1,0.7-0.3,0.9c-0.2,0.2-0.4,0.3-0.6,0.4c-0.4,0.2-0.7,0.4-1.1,0.5
									c-0.7,0.2-1.4,0.3-2,0.3c-1.1-0.1-1.8-0.4-1.8-0.5c0-0.1,0.7,0.1,1.8,0c0.5,0,1.2-0.1,1.8-0.4c0.3-0.1,0.7-0.3,1-0.5
									c0.4-0.2,0.6-0.4,0.6-0.6c0-0.1,0-0.1-0.2-0.1c-0.1,0-0.3,0-0.5,0c-0.4,0.1-0.7,0.1-1.1,0.2c-0.7,0.2-1.3,0.4-1.8,0.7
									C105.1,348.4,104.5,348.8,104.5,348.7z"/>
							</g>
						</g>
					</g>
				</g>
			</g>
			<g>
				<g>
					<g>
						<g>
							<g>
								<path fill="#263238" d="M104.5,348.3c0-0.1,0.7,0.2,1.5,1.1c0.4,0.5,0.8,1.1,1.1,1.8c0.1,0.4,0.3,0.8,0.4,1.2
									c0.1,0.4,0.2,1-0.3,1.6c-0.3,0.3-0.7,0.2-0.9,0.1c-0.2-0.1-0.4-0.3-0.6-0.4c-0.3-0.3-0.6-0.7-0.8-1
									c-0.4-0.7-0.6-1.5-0.6-2.1c-0.1-1.3,0.4-2,0.4-1.9c0.1,0-0.1,0.7,0,1.9c0.1,0.6,0.3,1.2,0.7,1.8c0.2,0.3,0.4,0.6,0.7,0.8
									c0.3,0.3,0.6,0.4,0.7,0.3c0.1-0.1,0.2-0.6,0.1-0.9c-0.1-0.4-0.2-0.8-0.3-1.1c-0.2-0.7-0.6-1.3-0.9-1.8
									C105,348.9,104.4,348.4,104.5,348.3z"/>
							</g>
						</g>
					</g>
				</g>
			</g>
		</g>
	</g>
	<g>
		<g>
			<g>
				<path fill="#FFBE9D" d="M123.9,91.8c0.3-0.1,1.5,11.1,0.9,12.5c-0.7,1.5-5.1,5.8-6.9,5.8s-4.1,2.7-4.5,3.7l-11.2-2.5l2.5-6.7
					l-0.3-8.5c-0.1-1.8,0.3-3.5,1.1-5.1c0.9-1.7,2.1-3.4,3.3-2.9c2.1,0.9,2.1,1.7,2.1,1.7s2-2,2.7,0.3c0,0,2.6-2.1,3.9,0.6
					c0,0,2.9-1.9,3.7,2.4l0.3,3C121.4,96.1,121.1,92.7,123.9,91.8z"/>
			</g>
		</g>
		<g>
			<g>
				<g>
					<path fill="#EB996E" d="M114.8,105.3c0,0,0.4-0.7,1.2-1.5c0.8-0.8,2.2-1.8,3.9-2.4c0.6-0.2,1.2-0.4,1.8-0.5l-0.2,0.2
						c0-1.4-0.1-2.6-0.2-3.5c0-0.9,0-1.4,0.1-1.4c0,0,0.1,0.5,0.2,1.4c0.1,0.9,0.3,2.1,0.3,3.5l0,0.2l-0.2,0
						c-0.5,0.1-1.1,0.2-1.7,0.5c-1.6,0.6-2.9,1.5-3.8,2.3C115.3,104.7,114.9,105.3,114.8,105.3z"/>
				</g>
			</g>
		</g>
		<g>
			<g>
				<g>
					<path fill="#EB996E" d="M108.1,92.7c0,0,0.1,0.2,0.3,0.7c0.1,0.4,0.4,1.2,0,2c-0.2,0.5-0.6,0.7-0.7,1.1c-0.1,0.4,0,0.9,0.3,1.3
						c0.6,0.7,2,0.8,2.7-0.1c0.3-0.4,0.5-1.1,0.5-1.6c0-0.6,0.1-1.2,0.1-1.7c0-1.1-0.1-2.1-0.2-2.9c-0.1-0.8-0.2-1.5-0.4-1.9
						c-0.2-0.4-0.4-0.5-0.4-0.6c0,0,0.3,0.1,0.5,0.5c0.3,0.4,0.5,1.1,0.6,1.9c0.1,0.8,0.2,1.8,0.2,3c0,0.6,0,1.1,0,1.8
						c-0.1,0.6-0.2,1.3-0.6,1.9c-0.9,1.1-2.5,1.1-3.2,0.1c-0.4-0.5-0.5-1.1-0.4-1.7c0.1-0.3,0.3-0.5,0.4-0.6
						c0.1-0.2,0.3-0.3,0.3-0.5c0.3-0.7,0.1-1.4,0.1-1.9C108.1,93,108,92.7,108.1,92.7z"/>
				</g>
			</g>
		</g>
		<g>
			<g>
				<g>
					<path fill="#EB996E" d="M110.7,98c0,0,0.1,0.2,0.3,0.4c0.2,0.3,0.6,0.6,1.1,0.6c0.5,0.1,1.2-0.2,1.6-0.8
						c0.5-0.6,0.7-1.4,0.8-2.3c0.2-1.9-0.2-3.5-0.5-4.7c-0.4-1.2-0.8-1.8-0.7-1.8c0,0,0.5,0.6,1,1.7c0.5,1.1,0.9,2.9,0.7,4.9
						c-0.1,1-0.4,1.9-1,2.6c-0.5,0.6-1.3,1-1.9,0.8c-0.6-0.1-1-0.5-1.2-0.8C110.7,98.2,110.7,98,110.7,98z"/>
				</g>
			</g>
		</g>
		<g>
			<g>
				<g>
					<path fill="#EB996E" d="M114.1,98.3c0,0,0.1,0.1,0.3,0.3c0.2,0.2,0.5,0.4,1,0.5c0.5,0.1,1.1,0,1.6-0.5c0.5-0.4,0.9-1.1,1-1.9
						c0.3-1.6-0.2-3.2-0.4-4.3c-0.2-1.1-0.3-1.8-0.2-1.8c0.1,0,0.2,0.7,0.5,1.7c0.1,0.5,0.3,1.2,0.4,1.9c0.1,0.7,0.2,1.6,0,2.5
						c-0.2,0.9-0.6,1.7-1.2,2.2c-0.6,0.5-1.3,0.6-1.8,0.5c-0.5-0.1-0.9-0.4-1.1-0.7C114.1,98.5,114.1,98.3,114.1,98.3z"/>
				</g>
			</g>
		</g>
		<g>
			<g>
				<g>
					<path fill="#EB996E" d="M118,98c0,0,0.1,0.2,0.1,0.5c0.1,0.3,0.2,0.8,0.6,1.3c0.3,0.5,1,0.9,1.6,0.7c0.6-0.2,1.1-1.1,1-2
						c0-1.9-0.2-3.6-0.4-4.8c-0.2-1.2-0.4-2-0.3-2c0,0,0.3,0.7,0.6,1.9c0.3,1.2,0.5,3,0.5,4.9c0.1,1-0.4,2.1-1.3,2.3
						c-0.9,0.2-1.6-0.3-1.9-0.9c-0.3-0.6-0.4-1.1-0.5-1.4C118,98.2,118,98,118,98z"/>
				</g>
			</g>
		</g>
	</g>
	<g>
		<g>
			<path fill="#FFBE9D" d="M225.5,210.6c0,0-3.8,6.1-4.8,8.2c-0.8,1.7-3.9,8.6-4,13.1l7.6,9.6c0,0,3.4-2.9,4-3.9
				c0.5-1.1,0-2.6,0-2.6s1.1-1,1.6-1.2c0,0-0.3,1.9,1,2.3c1.3,0.4,5.7-4.7,5.7-4.7s0.3-2.2-0.9-2.3c0,0,0.9-3,0-3.8
				c0,0,1-2.4-0.2-3.5c0,0-0.5-2.8-1.4-3.7c-0.9-1-9.8,1.9-9.8,1.9s2.1-5.1,2.3-6.6S225.5,210.6,225.5,210.6z"/>
		</g>
	</g>
	<g>
		<g>
			<g>
				<path fill="#EB996E" d="M231,229.5c0,0-0.1,0.2-0.2,0.4c-0.2,0.2-0.4,0.5-0.6,1c-0.1,0.3-0.2,0.5-0.2,0.8c0,0.3,0,0.6,0.2,0.9
					c0.2,0.6,1,0.7,1.6,0.3c0.6-0.4,1.1-1,1.6-1.5c0.5-0.4,0.9-0.9,1.3-1.2c0.8-0.7,1.2-1.1,1.3-1.1c0,0-0.4,0.5-1.1,1.3
					c-0.4,0.4-0.8,0.9-1.3,1.3c-0.5,0.5-1,1.1-1.6,1.6c-0.3,0.2-0.8,0.4-1.2,0.3c-0.4,0-0.8-0.4-0.9-0.8c-0.1-0.4-0.2-0.7-0.2-1.1
					c0-0.4,0.2-0.7,0.3-0.9c0.2-0.5,0.6-0.8,0.8-1C230.8,229.6,230.9,229.5,231,229.5z"/>
			</g>
		</g>
	</g>
	<g>
		<g>
			<g>
				<path fill="#EB996E" d="M231.4,220.9c0,0-0.5,0.7-1.4,1.7c-0.4,0.5-1.1,1.1-1.4,1.9c-0.3,0.7,0.4,1.9,1.2,1.9
					c0.4,0,0.8-0.4,1.2-0.7c0.4-0.3,0.7-0.7,1-1c0.6-0.6,1.2-1.2,1.8-1.7c1-0.9,1.7-1.5,1.7-1.5c0,0-0.5,0.7-1.5,1.7
					c-0.5,0.5-1.1,1.1-1.7,1.7c-0.3,0.3-0.7,0.7-1,1c-0.4,0.3-0.8,0.7-1.4,0.8c-0.6,0.1-1.1-0.3-1.4-0.8c-0.3-0.5-0.4-1.1-0.2-1.6
					c0.2-0.5,0.5-0.8,0.8-1.2c0.3-0.3,0.5-0.6,0.8-0.8C230.8,221.4,231.4,220.9,231.4,220.9z"/>
			</g>
		</g>
	</g>
	<g>
		<g>
			<g>
				<path fill="#EB996E" d="M230,226.8c0,0-0.2,0.1-0.4,0.2c-0.2,0.2-0.5,0.5-0.6,1c-0.1,0.5,0.1,1.1,0.7,1.4
					c0.3,0.1,0.6,0.2,0.9,0.1c0.3-0.1,0.6-0.3,0.9-0.6c2.5-2.1,4.1-4.2,4.2-4.1c0,0-0.3,0.6-1,1.5c-0.7,0.8-1.7,1.9-3,3
					c-0.3,0.3-0.7,0.5-1.1,0.7c-0.4,0.1-0.8,0.1-1.2-0.1c-0.7-0.4-1-1.3-0.8-1.9c0.2-0.6,0.5-0.9,0.8-1.1
					C229.8,226.8,230,226.8,230,226.8z"/>
			</g>
		</g>
	</g>
	<g>
		<g>
			<g>
				<path fill="#EB996E" d="M228.5,236.5c-0.1,0-0.1-0.5-0.4-1.3c-0.3-0.8-1-1.9-2.2-2.4l-0.8-0.3l0.9,0l0,0h0h0l0,0l0,0.4l0,0l0,0
					l0,0l0,0l0,0h0h0l0-0.4l0,0h0l0,0l0,0l0,0l-0.2,0.1c0.4-0.7,0.7-1.6,0.8-2.5c0.4-2.1,0-4.1-0.4-5.3c-0.5-1.3-1-2-0.9-2
					c0,0,0.2,0.1,0.4,0.5c0.2,0.3,0.5,0.8,0.8,1.5c0.6,1.3,1,3.4,0.6,5.6c-0.2,1-0.5,1.9-0.9,2.6l-0.1,0.1l-0.1,0l0,0l0,0h0l0,0h0
					l0-0.4h0h0l0,0l0,0l0,0l0,0h0l0,0.4l0,0h0h0l0,0l0.1-0.4c1.4,0.6,2,1.8,2.3,2.7c0.1,0.4,0.2,0.8,0.2,1
					C228.5,236.4,228.5,236.5,228.5,236.5z"/>
			</g>
		</g>
	</g>
	<g>
		<g>
			<g>
				<path fill="#263238" d="M132.7,289.1l-1.1,11.1c-0.5,5.3-0.5,10.6,0,15.9l4.4,41.2l-14.2-18.4c0,0-13.7,9-13.9,17.5
					c0,0,26.9,33.3,33.7,37.9c6.8,4.7,24.3,0,25-14.6c0,0,1.6,13.5,17.2,13.1c15.6-0.4,15.7-41,15.7-41l-6.8-61.1L132.7,289.1z"/>
			</g>
		</g>
		<g>
			<g>
				<g>
					<path fill="#455A64" d="M166.7,380c0,0,0-0.2,0-0.6c0-0.4,0-0.9,0-1.6c0-1.5,0.1-3.5,0.2-5.9c0.2-5.1,0.5-12,0.8-19.6
						c0.2-3.8,0.3-7.5,0.5-10.8c0.2-3.3,0.2-6.3,0.7-8.8c0.5-2.5,1.7-4.3,2.7-5.1c0.5-0.4,1-0.7,1.3-0.8c0.2-0.1,0.3-0.1,0.4-0.1
						c0.1,0,0.1,0,0.1,0c0,0.1-0.7,0.2-1.7,1.1c-1,0.9-2.1,2.6-2.5,5.1c-0.5,2.4-0.4,5.4-0.6,8.8c-0.1,3.3-0.3,7-0.4,10.8
						c-0.3,7.6-0.6,14.5-0.9,19.6c-0.1,2.5-0.2,4.5-0.3,5.9c0,0.7-0.1,1.2-0.1,1.6C166.7,379.9,166.7,380,166.7,380z"/>
				</g>
			</g>
		</g>
		<g>
			<g>
				<g>
					<path fill="#455A64" d="M170.9,290c0,0,0.1,0.4,0.2,1c0.1,0.6,0.2,1.6,0.4,2.7c0.3,2.3,0.6,5.5,0.9,9.1
						c0.2,3.6,0.3,6.8,0.3,9.2c0,1.2,0,2.1,0,2.8c0,0.7,0,1-0.1,1c0,0-0.1-0.4-0.1-1c0-0.7-0.1-1.7-0.1-2.8
						c-0.1-2.3-0.2-5.6-0.5-9.1c-0.2-3.6-0.5-6.8-0.8-9.1c-0.1-1.1-0.2-2-0.3-2.8C170.9,290.3,170.8,290,170.9,290z"/>
				</g>
			</g>
		</g>
		<g>
			<g>
				<g>
					<path fill="#455A64" d="M165.4,292.7c0,0,0.1-0.1,0.4-0.2c0.3-0.1,0.7,0,1.2,0.3c0.2,0.2,0.4,0.4,0.6,0.7
						c0.1,0.3,0.2,0.7,0.1,1.1c-0.2,0.8-0.8,1.5-1.6,1.6c-0.9,0-1.6-0.6-1.8-1.3c-0.3-0.7-0.1-1.5,0.2-1.9c0.3-0.5,0.7-0.7,1-0.8
						c0.3-0.1,0.4-0.1,0.4,0c0,0.1-0.7,0.1-1.2,1c-0.2,0.4-0.4,1-0.1,1.6c0.2,0.6,0.8,1.1,1.5,1c0.7,0,1.2-0.6,1.3-1.2
						c0.2-0.6-0.1-1.2-0.5-1.5c-0.4-0.3-0.7-0.4-1-0.4C165.6,292.7,165.4,292.8,165.4,292.7z"/>
				</g>
			</g>
		</g>
		<g>
			<g>
				<g>
					<path fill="#455A64" d="M136.4,357.1c0.1,0-0.2,1.3-0.5,3.3c-0.3,2-0.4,4.9-0.2,8c0.3,3.1,1,5.9,1.6,7.8
						c0.6,1.9,1.1,3.1,1.1,3.1c0,0-0.2-0.3-0.4-0.8c-0.3-0.5-0.6-1.3-0.9-2.2c-0.7-1.9-1.4-4.7-1.7-7.9c-0.3-3.2-0.1-6,0.3-8.1
						c0.2-1,0.3-1.8,0.5-2.4C136.2,357.4,136.3,357.1,136.4,357.1z"/>
				</g>
			</g>
		</g>
		<g>
			<g>
				<g>
					<path fill="#455A64" d="M136.1,375.2c0,0,0.3-0.1,0.7-0.4c0.4-0.3,1-0.9,1.4-1.9c0.4-1,0.6-2.3,0.7-3.9
						c0.1-1.6,0.1-3.3,0.2-5.3c0-3.9-0.1-8.6-0.5-13.8c-0.4-5.2-1.1-10.8-2-16.8c-0.9-5.9-1.8-11.5-2.4-16.7
						c-0.6-5.2-0.9-9.9-0.8-13.8c0.1-3.9,0.4-7.1,0.8-9.3c0.2-1.1,0.4-1.9,0.5-2.5c0.1-0.3,0.1-0.5,0.1-0.6c0-0.1,0.1-0.2,0.1-0.2
						c0,0,0,0.1,0,0.2c0,0.2-0.1,0.4-0.1,0.6c-0.1,0.6-0.3,1.4-0.4,2.5c-0.3,2.2-0.7,5.3-0.7,9.3c0,3.9,0.2,8.6,0.9,13.7
						c0.6,5.2,1.6,10.8,2.5,16.7c0.9,5.9,1.6,11.6,2,16.8c0.4,5.2,0.5,9.9,0.4,13.8c0,2-0.1,3.7-0.2,5.3c-0.1,1.6-0.3,2.9-0.8,3.9
						c-0.4,1-1,1.7-1.5,1.9C136.4,375.2,136.1,375.2,136.1,375.2z"/>
				</g>
			</g>
		</g>
		<g>
			<g>
				<g>
					<path fill="#455A64" d="M117.1,342.6c0,0,0.3,0.2,0.9,0.8c0.5,0.5,1.3,1.3,2.2,2.2c1.8,1.9,4.1,4.8,6.3,8.2
						c1.1,1.7,2.1,3.4,3,4.9c0.9,1.5,1.7,2.9,2.5,3.9c0.8,1,1.7,1.6,2.3,1.9c0.6,0.3,1,0.4,1,0.4c0,0-0.1,0-0.3,0
						c-0.2,0-0.5-0.1-0.8-0.2c-0.7-0.3-1.6-0.9-2.5-1.9c-0.9-1-1.8-2.4-2.6-3.9c-0.9-1.5-1.9-3.2-3-4.9c-2.2-3.4-4.4-6.3-6.2-8.3
						c-0.9-1-1.6-1.8-2.1-2.3C117.4,342.9,117.1,342.6,117.1,342.6z"/>
				</g>
			</g>
		</g>
	</g>
	<g>
		<g>
			<path fill="#F3CE63" d="M138.4,179.1c0,0-8.8-3.6-12.8-7.2c-4-3.6-15.5-23.6-15.5-23.6l5.8-36.1l-14.1-7.6
				c0,0-16.4,42.9-14.6,50.9c1.8,8,31.4,52.3,31.4,52.3l7.3,31.4l7.7,28.3c0,0-3.3,1.6-1.5,7.2s4.2,8,1.8,9.2
				c-3.8,1.9-1.3,5.2-1.3,5.2l61.6,1.6c0,0-7.9-54.6-6.5-64.5c1.4-10.2,0-27.5,0-27.5l-14-4.7L138.4,179.1z"/>
		</g>
	</g>
	<g>
		<g>
			<path fill="#F3CE63" d="M187.8,198.7c6.4,3.2,13.2,48.7,13.2,48.7l14.9-17.3l9.1,12.5c0,0-12.9,24.7-15.8,27.2
				c-2.5,2.1-10,8.5-15.1,6.3c-5.1-2.2-8.2-41.5-8.2-41.5L187.8,198.7z"/>
		</g>
	</g>
	<g>
		<g>
			<path fill="#F3CE63" d="M145,183c0,0-0.8-5.3,0.9-4.5c0.1,0,22.6,7.8,22.5,9.5c-0.1,1.5,0.2,6.1,0.2,6.1h-14.9L145,183z"/>
		</g>
	</g>
	<g>
		<g>
			<g>
				<path fill="#263238" d="M131,217.6c0,0,0-0.5,0-1.3c0-0.4,0-0.9,0-1.5c0-0.6,0-1.3,0-2c0-1.5-0.2-3.3-0.5-5.3
					c-0.3-2-0.7-4.1-1.3-6.3c-0.6-2.2-1.3-4.3-2.1-6.1c-0.8-1.8-1.5-3.4-2.3-4.7c-0.3-0.7-0.7-1.2-1-1.7c-0.3-0.5-0.6-0.9-0.8-1.3
					c-0.4-0.7-0.7-1.1-0.7-1.1c0,0,0.3,0.3,0.8,1c0.2,0.3,0.5,0.7,0.8,1.2c0.3,0.5,0.7,1.1,1,1.7c0.8,1.3,1.6,2.9,2.4,4.7
					c0.8,1.8,1.5,3.9,2.1,6.1c0.6,2.2,1,4.4,1.3,6.4c0.2,2,0.4,3.8,0.4,5.3c0,0.8,0,1.5,0,2.1c0,0.6,0,1.1-0.1,1.5
					C131,217.1,131,217.6,131,217.6z"/>
			</g>
		</g>
	</g>
	<g>
		<g>
			<g>
				<path fill="#263238" d="M142.7,276.3c0,0-0.7-0.2-1.7-0.8c-1-0.6-2.4-1.5-3.7-2.8c-1.3-1.3-2.4-2.6-3.1-3.6c-0.7-1-1-1.7-1-1.7
					c0.1-0.1,1.6,2.6,4.3,5.1C140.2,274.9,142.8,276.1,142.7,276.3z"/>
			</g>
		</g>
	</g>
	<g>
		<g>
			<g>
				<path fill="#263238" d="M161.6,284c0,0-0.3,0.2-1,0.4c-0.6,0.2-1.6,0.5-2.8,0.8c-1.2,0.3-2.6,0.5-4.2,0.7
					c-1.6,0.1-3.4,0.2-5.2,0c-1.8-0.1-3.6-0.4-5.2-0.8c-1.6-0.4-3-0.8-4.1-1.3c-1.1-0.4-2-0.8-2.7-1.2c-0.6-0.3-0.9-0.5-0.9-0.5
					c0,0,0.4,0.1,1,0.4c0.6,0.3,1.5,0.6,2.7,1c1.1,0.4,2.5,0.8,4.1,1.2c1.6,0.3,3.3,0.6,5.1,0.8c1.8,0.1,3.6,0.1,5.2,0
					c1.6-0.1,3-0.3,4.2-0.6c1.2-0.2,2.1-0.5,2.8-0.6C161.2,284.1,161.6,284,161.6,284z"/>
			</g>
		</g>
	</g>
	<g>
		<g>
			<g>
				<path fill="#263238" d="M182.1,242.6c0,0,0,0.1,0.1,0.4c0,0.3,0.1,0.7,0.1,1.2c0.1,1,0.1,2.5-0.1,4.3c-0.3,3.6-1.7,8.6-4.7,13.1
					c-3,4.5-7,7.4-10,8.8c-1.5,0.7-2.8,1.2-3.7,1.4c-0.4,0.1-0.8,0.2-1,0.3c-0.2,0-0.4,0.1-0.4,0.1c0,0,0.5-0.2,1.4-0.5
					c0.9-0.3,2.1-0.8,3.6-1.5c3-1.5,6.9-4.4,9.8-8.8c3-4.4,4.3-9.3,4.7-12.9c0.2-1.8,0.3-3.2,0.2-4.2
					C182.1,243.2,182.1,242.6,182.1,242.6z"/>
			</g>
		</g>
	</g>
	<g>
		<g>
			<g>
				<path fill="#263238" d="M187.9,213.6c0,0,0,0.3,0,0.7c0,0.5-0.1,1.2-0.1,2.1c-0.1,0.9-0.1,2-0.1,3.3c0,1.3-0.1,2.7,0,4.3
					c0,3.2,0.2,7,0.4,11.3c0.3,4.2,0.7,8.9,1.2,13.8c1,9.7,2.2,18.5,3,24.9c0.4,3.2,0.7,5.8,0.9,7.6c0.1,0.9,0.2,1.5,0.2,2.1
					c0,0.5,0.1,0.7,0,0.7c0,0-0.1-0.2-0.1-0.7c-0.1-0.5-0.2-1.2-0.3-2c-0.2-1.8-0.6-4.4-1-7.5c-0.8-6.4-2.1-15.1-3.1-24.9
					c-0.5-4.9-0.9-9.5-1.1-13.8c-0.2-4.2-0.4-8.1-0.3-11.3c0-1.6,0-3.1,0.1-4.3c0-1.3,0.1-2.4,0.2-3.3c0.1-0.9,0.1-1.6,0.2-2.1
					C187.9,213.9,187.9,213.6,187.9,213.6z"/>
			</g>
		</g>
	</g>
	<g>
		<g>
			<g>
				<path fill="#263238" d="M168.3,191.8c0,0-0.3,0.2-0.9,0.3c-0.6,0.2-1.5,0.3-2.7,0.3c-1.1,0-2.5-0.1-4-0.5
					c-1.5-0.4-3.1-0.9-4.7-1.7c-3.2-1.5-5.9-3.4-7.7-4.8c-0.9-0.7-1.7-1.3-2.2-1.7c-0.5-0.4-0.8-0.7-0.8-0.7c0,0,0.3,0.2,0.9,0.5
					c0.6,0.4,1.4,1,2.3,1.6c1.9,1.3,4.6,3.2,7.7,4.6c1.6,0.7,3.1,1.3,4.6,1.7c1.4,0.4,2.8,0.5,3.9,0.5
					C166.9,192.1,168.3,191.7,168.3,191.8z"/>
			</g>
		</g>
	</g>
	<g>
		<g>
			<g>
				<path fill="#263238" d="M198.9,259.3c-0.1,0,0.3-2.8,0.9-6.2c0.6-3.4,1.2-6.2,1.3-6.2c0.1,0-0.3,2.8-0.9,6.2
					C199.6,256.6,199,259.3,198.9,259.3z"/>
			</g>
		</g>
	</g>
	<g opacity="0.3">
		<g>
			<g>
				<path d="M163.5,271.7c-2.1,0.7-4.2,1.2-6.4,1.5c-1,0.1-2,0.1-2.8-0.5c-0.8-0.7-1-2-0.6-3c0.4-1,1.2-1.8,2.2-2.3
					c3.3-1.7,7.6,0.1,10.7-2c1.6-1.1,2.5-2.9,3.6-4.6c1.9-2.8,4.5-5,7.4-6.2c0.4-0.2,0.9-0.3,1.3-0.2c0.9,0.4,0.7,1.9,0.3,2.9
					C176,264.5,170.7,270.1,163.5,271.7"/>
			</g>
		</g>
	</g>
	<g opacity="0.3">
		<g>
			<g>
				<path d="M187.7,226.3c4.5,12.1,2.9,26.4,8.8,37.9c1.1,2.2,2.5,4.3,2.8,6.7c0.3,2.5-1.2,5.4-3.5,5.4c-1.4,0-2.9-1-3.5-2.3
					c-0.6-1.4-0.6-3.1-0.8-4.6c-1-9.3-2.4-18.7-3.2-28.1C187.9,236.3,188,231.3,187.7,226.3"/>
			</g>
		</g>
	</g>
	<g opacity="0.3">
		<g>
			<g>
				<path d="M146.3,183.8c3.4,4.4,7.6,8.1,12.2,10.9c1.1,0.7,2.3,1.3,3.6,1.6c1.3,0.3,2.7,0.1,3.8-0.7c0.5-0.4,0.9-0.8,1-1.4
					c0.1-0.6,0-1.3-0.5-1.7c-0.3-0.2-0.8-0.3-1.2-0.3C158.4,191.9,151.8,188,146.3,183.8"/>
			</g>
		</g>
	</g>
	<g>
		<g>
			<g>
				<path fill="#263238" d="M152.3,187.8c-0.1,0.1-0.8-1.4-0.7-3.5c0.1-2,0.9-3.5,1-3.4c0.1,0.1-0.5,1.5-0.6,3.4
					C151.9,186.3,152.4,187.8,152.3,187.8z"/>
			</g>
		</g>
	</g>
	<g>
		<g>
			<g>
				<path fill="#263238" d="M160,191.2c-0.1,0,0.2-1.7,0.2-3.7c0-2.1-0.5-3.7-0.3-3.7c0.1,0,0.7,1.6,0.7,3.7
					C160.6,189.6,160.1,191.3,160,191.2z"/>
			</g>
		</g>
	</g>
	<g>
		<g>
			<g>
				<path fill="#263238" d="M165.4,192.6c-0.1,0,0.4-1.3,0.4-2.9c0.1-1.6-0.2-2.9-0.1-3c0.1,0,0.6,1.3,0.5,3
					C166.2,191.5,165.5,192.7,165.4,192.6z"/>
			</g>
		</g>
	</g>
	<g>
		<g>
			<g>
				<path fill="#263238" d="M147.1,184.5c-0.1,0.1-0.8-1.1-0.6-2.8c0.1-0.8,0.3-1.6,0.6-2c0.2-0.2,0.4-0.3,0.5-0.3
					c0.2,0,0.2,0.1,0.2,0.1c0,0.1-0.3,0-0.5,0.4c-0.2,0.4-0.4,1.1-0.5,1.8C146.7,183.3,147.2,184.5,147.1,184.5z"/>
			</g>
		</g>
	</g>
	<g>
		<g>
			<g>
				<path fill="#263238" d="M103.9,151c-0.1-0.1,1.2-1.2,3.1-1.9c1.9-0.8,3.5-0.8,3.5-0.7c0,0.1-1.5,0.4-3.4,1.1
					C105.3,150.2,104,151.1,103.9,151z"/>
			</g>
		</g>
	</g>
	<g>
		<g>
			<g>
				<path fill="#FAFAFA" d="M187,229.6c0,0-0.2,0-0.6-0.2c-0.5-0.1-1.1-0.3-1.8-0.5c-0.8-0.2-1.8-0.5-2.9-0.8
					c-1.1-0.3-2.4-0.6-3.8-0.9c-2.9-0.7-6.3-1.4-10.1-2c-3.8-0.6-8-1.2-12.5-1.7c-4.4-0.4-8.7-0.6-12.5-0.7c-3.9-0.1-7.3,0-10.3,0.1
					c-1.5,0-2.8,0.1-3.9,0.2c-1.2,0.1-2.2,0.1-3,0.2c-0.8,0.1-1.4,0.1-1.9,0.1c-0.4,0-0.7,0-0.7,0s3.6-0.4,9.4-0.7
					c2.9-0.1,6.4-0.2,10.3-0.1c3.9,0.1,8.1,0.3,12.6,0.7c4.4,0.4,8.7,1,12.5,1.7c3.8,0.7,7.2,1.4,10.1,2.1
					C183.6,228.5,187,229.6,187,229.6z"/>
			</g>
		</g>
	</g>
	<g>
		<g>
			<g>
				<path fill="#FAFAFA" d="M180.8,254.3c0,0-0.2,0-0.5-0.1c-0.4-0.1-0.9-0.1-1.5-0.2c-0.6-0.1-1.4-0.2-2.3-0.3
					c-0.9-0.1-1.9-0.2-3.1-0.3c-4.6-0.5-10.9-0.8-17.9-0.7c-7,0-13.3,0.4-17.9,0.7c-2.3,0.2-4.1,0.3-5.4,0.4
					c-0.6,0.1-1.1,0.1-1.5,0.1c-0.3,0-0.5,0-0.5,0s0.2,0,0.5-0.1c0.4,0,0.9-0.1,1.5-0.2c1.3-0.1,3.1-0.3,5.4-0.5
					c4.6-0.4,10.9-0.7,17.9-0.7c7,0,13.4,0.3,17.9,0.8C178,253.7,180.8,254.3,180.8,254.3z"/>
			</g>
		</g>
	</g>
	<g>
		<g>
			<g>
				<path fill="#FAFAFA" d="M189.9,259.2c0,0-0.2,0-0.4,0c-0.4,0-0.7-0.1-1.1-0.1c-1.1-0.1-2.4-0.2-3.8-0.3
					c-1.4-0.1-2.6-0.3-3.8-0.4c-0.4,0-0.8-0.1-1.1-0.1c-0.3,0-0.4-0.1-0.4-0.1c0,0,0.2,0,0.4,0c0.4,0,0.7,0.1,1.1,0.1
					c1.1,0.1,2.4,0.2,3.8,0.3c1.4,0.1,2.6,0.3,3.8,0.4c0.4,0,0.8,0.1,1.1,0.1C189.7,259.2,189.9,259.2,189.9,259.2z"/>
			</g>
		</g>
	</g>
	<g>
		<g>
			<g>
				<path fill="#FAFAFA" d="M193.3,287.2c0,0-0.2,0-0.6-0.1c-0.4-0.1-1-0.2-1.8-0.4c-1.5-0.3-3.8-0.6-6.5-0.6
					c-2.8-0.1-6.1,0.1-9.7,0.5c-3.7,0.3-7.7,0.8-11.9,1.1c-8.5,0.5-16.2,0.1-21.7-0.5c-5.5-0.6-8.9-1.3-8.9-1.3s0.2,0,0.6,0.1
					c0.4,0.1,1,0.2,1.8,0.3c1.5,0.2,3.8,0.5,6.5,0.8c5.5,0.6,13.2,1,21.7,0.5c4.2-0.2,8.3-0.7,11.9-1.1c3.7-0.3,7-0.5,9.8-0.4
					c2.8,0.1,5,0.4,6.6,0.7c0.8,0.1,1.4,0.3,1.8,0.4C193.1,287.1,193.3,287.2,193.3,287.2z"/>
			</g>
		</g>
	</g>
	<g>
		<g>
			<g>
				<path fill="#FAFAFA" d="M191.5,209.7c0,0-0.2-0.1-0.7-0.2c-0.5-0.2-1.1-0.4-1.9-0.6c-1.7-0.6-4.1-1.3-7.1-2.3
					c-6-1.9-14.2-4.5-23.4-7.2c-9.2-2.7-17.5-5-23.6-6.6c-3-0.8-5.4-1.4-7.2-1.9c-0.8-0.2-1.5-0.4-1.9-0.5c-0.4-0.1-0.7-0.2-0.7-0.2
					s0.2,0,0.7,0.2c0.5,0.1,1.1,0.3,2,0.5c1.7,0.4,4.2,1.1,7.2,1.9c6.1,1.6,14.4,3.9,23.6,6.6c9.2,2.7,17.4,5.3,23.4,7.3
					c3,1,5.4,1.8,7.1,2.3c0.8,0.3,1.4,0.5,1.9,0.7C191.3,209.6,191.5,209.7,191.5,209.7z"/>
			</g>
		</g>
	</g>
	<g>
		<g>
			<g>
				<path fill="#FAFAFA" d="M128.8,196.4c0,0,0,0-0.1,0.1c-0.1,0-0.3,0.1-0.4,0.1c-0.4,0.1-0.9,0.3-1.4,0.4c-1.3,0.4-3,0.8-4.8,1.3
					c-0.9,0.3-1.8,0.5-2.6,0.7c-0.8,0.3-1.5,0.6-2,1c-1,0.8-1.2,1.7-1.2,1.7c0,0,0-0.2,0.2-0.6c0.2-0.3,0.5-0.8,1-1.2
					c0.5-0.4,1.2-0.8,2-1.1c0.8-0.3,1.7-0.5,2.6-0.7c1.8-0.5,3.4-0.9,4.8-1.3c0.5-0.1,1-0.3,1.5-0.4c0.1,0,0.3-0.1,0.4-0.1
					C128.7,196.4,128.8,196.4,128.8,196.4z"/>
			</g>
		</g>
	</g>
	<g>
		<g>
			<g>
				<path fill="#FAFAFA" d="M121.9,168.3c0,0-0.1,0-0.2,0c-0.2,0-0.4,0-0.7,0.1c-0.6,0-1.5,0.1-2.6,0.3c-2.2,0.3-5.2,1-8.3,2.3
					c-3.1,1.3-5.8,2.9-7.6,4.2c-0.9,0.7-1.6,1.2-2.1,1.6c-0.2,0.2-0.4,0.3-0.6,0.5c-0.1,0.1-0.2,0.2-0.2,0.2c0,0,1-1,2.9-2.3
					c1.8-1.3,4.5-3,7.7-4.3c3.2-1.3,6.2-2,8.3-2.3C120.6,168.3,121.9,168.3,121.9,168.3z"/>
			</g>
		</g>
	</g>
	<g>
		<g>
			<g>
				<path fill="#FAFAFA" d="M111,144.2c0,0-0.1,0-0.2-0.1c-0.2-0.1-0.3-0.2-0.5-0.4c-0.5-0.3-1.1-0.8-2-1.4
					c-1.7-1.1-4.2-2.4-7.1-3.2c-2.9-0.8-5.7-1-7.6-0.9c-1,0-1.8,0.1-2.3,0.2c-0.2,0-0.4,0.1-0.6,0.1c-0.1,0-0.2,0-0.2,0
					c0,0,1.2-0.3,3.2-0.4c2-0.1,4.7,0,7.7,0.8c2.9,0.8,5.4,2.1,7.1,3.2C110,143.4,111,144.2,111,144.2z"/>
			</g>
		</g>
	</g>
	<g>
		<g>
			<g>
				<path fill="#FAFAFA" d="M113.6,119.5c0,0,0,0-0.1-0.1c-0.1-0.1-0.2-0.2-0.3-0.4c-0.3-0.3-0.7-0.8-1.2-1.3
					c-1.1-1.1-2.7-2.4-4.7-3.5c-2-1.1-3.9-1.7-5.4-2c-0.7-0.2-1.3-0.3-1.7-0.3c-0.2,0-0.3,0-0.5-0.1c-0.1,0-0.2,0-0.2,0
					c0,0,0.1,0,0.2,0c0.1,0,0.3,0,0.5,0c0.4,0,1,0.1,1.7,0.2c1.4,0.3,3.4,0.9,5.4,2c2,1.1,3.6,2.4,4.7,3.5c0.5,0.5,0.9,1,1.2,1.4
					c0.1,0.1,0.2,0.3,0.3,0.4C113.6,119.5,113.7,119.5,113.6,119.5z"/>
			</g>
		</g>
	</g>
	<g>
		<g>
			<g>
				<path fill="#FAFAFA" d="M199.4,239.3c0,0-0.2,0-0.4,0.1c-0.3,0-0.7,0.1-1.2,0.1c-1,0.2-2.4,0.5-3.9,1.1
					c-1.5,0.6-2.7,1.4-3.5,2.1c-0.4,0.3-0.8,0.6-1,0.8c-0.2,0.2-0.4,0.3-0.4,0.3c0,0,0.1-0.1,0.3-0.3c0.2-0.2,0.5-0.5,0.9-0.8
					c0.8-0.7,2.1-1.5,3.5-2.1c1.5-0.6,2.9-1,3.9-1.1c0.5-0.1,0.9-0.1,1.2-0.1C199.2,239.3,199.4,239.3,199.4,239.3z"/>
			</g>
		</g>
	</g>
	<g>
		<g>
			<g>
				<path fill="#FAFAFA" d="M216.2,257.8c0,0-1-0.4-2.5-1.4c-0.7-0.5-1.5-1.2-2.4-2c-0.8-0.9-1.6-1.9-2.4-3.1
					c-0.7-1.2-1.3-2.4-1.7-3.5c-0.4-1.2-0.7-2.2-0.8-3.1c-0.3-1.8-0.2-3-0.2-3c0,0,0,0.1,0,0.2c0,0.2,0,0.4,0,0.6
					c0,0.3,0,0.6,0.1,0.9c0.1,0.4,0.1,0.8,0.2,1.2c0.2,0.9,0.4,2,0.8,3.1c0.4,1.1,1,2.3,1.7,3.5c0.7,1.2,1.5,2.2,2.3,3
					c0.8,0.8,1.6,1.5,2.3,2c0.3,0.3,0.7,0.5,1,0.6c0.3,0.2,0.5,0.3,0.8,0.4c0.2,0.1,0.3,0.2,0.5,0.3
					C216.1,257.8,216.2,257.8,216.2,257.8z"/>
			</g>
		</g>
	</g>
	<g>
		<g>
			<path fill="#F3CE63" d="M299.7,186.1l0.2,0.9c0.1,0.4,0.4,0.7,0.7,0.8l0.8,0.3l-0.8,0.3c-0.3,0.1-0.6,0.4-0.7,0.8l-0.3,0.9
				l-0.3-0.9c-0.1-0.3-0.4-0.6-0.7-0.7l-0.8-0.3l0.7-0.3c0.3-0.1,0.6-0.4,0.7-0.7L299.7,186.1z"/>
		</g>
		<g>
			<path fill="#F3CE63" d="M274.4,147.1l0.2,0.9c0.1,0.4,0.4,0.7,0.7,0.8l0.8,0.3l-0.8,0.3c-0.3,0.1-0.6,0.4-0.7,0.8l-0.3,0.9
				l-0.3-0.9c-0.1-0.3-0.4-0.6-0.7-0.7l-0.8-0.3l0.7-0.3c0.3-0.1,0.6-0.4,0.7-0.7L274.4,147.1z"/>
		</g>
		<g>
			<path fill="#F3CE63" d="M188.2,316l0.2,0.9c0.1,0.4,0.4,0.7,0.7,0.8l0.8,0.3l-0.8,0.3c-0.3,0.1-0.6,0.4-0.7,0.8l-0.3,0.9
				l-0.3-0.9c-0.1-0.3-0.4-0.6-0.7-0.7l-0.8-0.3l0.7-0.3c0.3-0.1,0.6-0.4,0.7-0.7L188.2,316z"/>
		</g>
		<g>
			<path fill="#F3CE63" d="M274.4,288.8l0.2,0.9c0.1,0.4,0.4,0.7,0.7,0.8l0.8,0.3l-0.8,0.3c-0.3,0.1-0.6,0.4-0.7,0.8l-0.3,0.9
				l-0.3-0.9c-0.1-0.3-0.4-0.6-0.7-0.7l-0.8-0.3l0.7-0.3c0.3-0.1,0.6-0.4,0.7-0.7L274.4,288.8z"/>
		</g>
		<g>
			<path fill="#F3CE63" d="M292.5,152.5l1,3.5c0.4,1.6,1.6,2.8,3,3.3l3.2,1.1l-3.2,1.2c-1.3,0.5-2.4,1.6-2.8,3.1l-1.1,3.6l-1.3-3.8
				c-0.5-1.4-1.5-2.5-2.8-3l-3.1-1.1l3.1-1.1c1.3-0.5,2.3-1.5,2.8-2.9L292.5,152.5z"/>
		</g>
		<g>
			<path fill="#F3CE63" d="M218.3,354.3l1,3.5c0.4,1.6,1.6,2.8,3,3.3l3.2,1.1l-3.2,1.2c-1.3,0.5-2.4,1.6-2.8,3.1l-1.1,3.6l-1.3-3.8
				c-0.5-1.4-1.5-2.5-2.8-3l-3.1-1.1l3.1-1.1c1.3-0.5,2.3-1.5,2.8-2.9L218.3,354.3z"/>
		</g>
		<g>
			<path fill="#F3CE63" d="M205,184.7l0.4,1.4c0.2,0.6,0.6,1.1,1.2,1.3l1.3,0.5l-1.3,0.5c-0.5,0.2-1,0.7-1.2,1.3l-0.5,1.5l-0.5-1.6
				c-0.2-0.6-0.6-1-1.2-1.2l-1.3-0.5l1.3-0.5c0.5-0.2,0.9-0.6,1.1-1.2L205,184.7z"/>
		</g>
		<g>
			<path fill="#F3CE63" d="M240,347.1l0.4,1.4c0.2,0.6,0.6,1.1,1.2,1.3l1.3,0.5l-1.3,0.5c-0.5,0.2-1,0.7-1.2,1.3l-0.5,1.5l-0.5-1.6
				c-0.2-0.6-0.6-1-1.2-1.2l-1.3-0.5l1.3-0.5c0.5-0.2,0.9-0.6,1.1-1.2L240,347.1z"/>
		</g>
	</g>
</g>
</svg>
