<?xml version="1.0" encoding="iso-8859-1"?>
<!-- Generator: Adobe Illustrator 24.1.2, SVG Export Plug-In . SVG Version: 6.00 Build 0)  -->
<svg version="1.1" id="&#x421;&#x43B;&#x43E;&#x439;_1"
	 xmlns="http://www.w3.org/2000/svg" xmlns:xlink="http://www.w3.org/1999/xlink" x="0px" y="0px" viewBox="0 0 500 500"
	 enable-background="new 0 0 500 500" xml:space="preserve">
<g>
	<path fill="#EBEBEB" d="M376.8,418.3l3-6.4c5.2-11.6-0.3-25.2-12.3-30.3c-12-5.1-26,0.3-31.2,11.9l-3,6.5
		c-6.2-1.6-12.9,1.4-15.6,7.3l-17,38c-2.9,6.5,0.2,14.1,6.9,17l40.6,17.1c6.7,2.8,14.5-0.2,17.4-6.7l17-38
		C385.3,428.5,382.8,421.4,376.8,418.3z M342.9,451.9l-10.6-4.5l5-6.7c-1.3-1.9-1.7-4.4-0.7-6.6c1.6-3.5,5.7-5.1,9.3-3.6
		c3.6,1.5,5.2,5.5,3.7,9c-1,2.2-3,3.6-5.2,4C343.8,446.7,342.9,451.9,342.9,451.9z M372.1,416.2l-34.1-14.4l2.9-6.3
		c4.1-9.1,15.1-13.3,24.5-9.4c9.4,4,13.7,14.6,9.6,23.7L372.1,416.2z"/>
</g>
<g>
	<path fill="#EBEBEB" d="M475,71.8c0-12.9-14.6-21.1-29.6-14.6c-3.4,1.5-6.2,3.9-7.8,7c-3.8,6.7-2.1,14.5,1.3,20.9l11.6,27.3
		c1.7,3.9,7.7,3.9,9.3,0l11.4-27.5C475.2,76.4,475,71.8,475,71.8z M461,83c-10,5.4-20.2-4.6-14.7-14.5c0.7-1.3,1.9-2.4,3.2-3.1
		c10-5.4,20.2,4.6,14.7,14.5C463.4,81.2,462.3,82.3,461,83z"/>
</g>
<g>
	<g>
		<g>
			<path fill="#E0E0E0" d="M454.2,418.7c-0.1,0,0.9-1.2,1.9-3.7c0.5-1.2,0.9-2.9,1.1-4.8c0.2-1.9,0-4.1-0.7-6.4
				c-0.7-2.3-2-4.7-4-6.7c-2-2-4.7-3.7-7.8-4.5c-1.6-0.4-3.2-0.7-4.9-0.6c-1.7,0-3.4,0.3-5.1,0.8c-3.4,1-6.5,3.2-8.7,6.1
				c-2.2,3-3.3,6.5-3.2,10c0,1.7,0.3,3.4,0.8,5c0.5,1.6,1.2,3,2.2,4.3c1.8,2.6,4.3,4.5,6.9,5.8c2.6,1.2,5.3,1.7,7.8,1.6
				c2.5,0,4.7-0.6,6.5-1.3c1.8-0.8,3.2-1.6,4.3-2.5C453.3,420,454.1,418.7,454.2,418.7c0,0,0,0.1-0.2,0.2c-0.1,0.2-0.3,0.4-0.5,0.7
				c-0.2,0.3-0.5,0.6-0.9,1c-0.4,0.4-0.8,0.8-1.3,1.3c-1,0.9-2.5,1.9-4.3,2.7c-1.8,0.8-4.1,1.4-6.6,1.5c-2.5,0.1-5.3-0.3-8-1.6
				c-2.7-1.2-5.3-3.2-7.2-5.9c-1-1.3-1.7-2.9-2.3-4.5c-0.6-1.6-0.9-3.4-0.9-5.1c-0.1-3.6,1.1-7.2,3.3-10.3c2.3-3,5.5-5.3,9-6.3
				c1.7-0.6,3.5-0.8,5.3-0.8c1.8,0,3.5,0.2,5.1,0.7c3.2,0.9,6,2.7,8,4.7c2.1,2.1,3.4,4.6,4.1,6.9c0.7,2.4,0.9,4.6,0.7,6.5
				c-0.2,1.9-0.7,3.6-1.2,4.8c-0.2,0.6-0.5,1.2-0.8,1.6c-0.2,0.5-0.5,0.8-0.7,1.1c-0.2,0.3-0.4,0.5-0.5,0.7
				C454.3,418.7,454.2,418.7,454.2,418.7z"/>
		</g>
	</g>
	<g>
		<g>
			<path fill="#E0E0E0" d="M456.2,455.3c-0.2,0.1-2.9-6.6-6-14.9c-3.2-8.3-5.6-15.1-5.5-15.1c0.2-0.1,2.9,6.6,6,14.9
				C453.9,448.4,456.4,455.2,456.2,455.3z"/>
		</g>
	</g>
</g>
<g>
	<g>
		<path fill="#EBEBEB" d="M383.8,64.1c0,4.7-3.9,8.6-8.8,8.6c-4.9,0-8.8-3.8-8.8-8.5c0-4.7,3.9-8.6,8.8-8.6
			C379.9,55.5,383.8,59.4,383.8,64.1z"/>
	</g>
	<g>
		<path fill="#EBEBEB" d="M408.4,46.9c0,4.7-3.9,8.6-8.8,8.6c-4.9,0-8.8-3.8-8.8-8.5c0-4.7,3.9-8.6,8.8-8.6
			C404.5,38.4,408.4,42.2,408.4,46.9z"/>
	</g>
	<g>
		<path fill="#EBEBEB" d="M408.5,83.2c0,5.1-3.9,9.3-8.8,9.3c-4.9,0-8.8-4.2-8.8-9.3c0-5.1,3.9-9.3,8.8-9.3
			C404.5,73.9,408.5,78,408.5,83.2z"/>
	</g>
	<g>
		<g>
			<path fill="#EBEBEB" d="M397.1,82.1c-0.4,0.5-6.2-2.7-13.1-7.2c-6.8-4.5-12.1-8.6-11.7-9.2c0.4-0.5,6.2,2.7,13.1,7.2
				C392.2,77.5,397.5,81.6,397.1,82.1z"/>
		</g>
	</g>
	<g>
		<g>
			<path fill="#EBEBEB" d="M397.8,46.4c0.4,0.5-4.1,4.6-10.1,9.1c-6,4.5-11.2,7.7-11.6,7.2c-0.4-0.5,4.1-4.6,10.1-9.1
				C392.2,49.1,397.4,45.8,397.8,46.4z"/>
		</g>
	</g>
</g>
<g>
	<g>
		<g>
			<polygon fill="#FFFFFF" points="387.3,195.9 290.4,204.8 284.2,141.4 381.2,132.4 			"/>
		</g>
		<g>
			<g>
				<path fill="#455A64" d="M387.3,195.9c0,0-0.1-0.4-0.2-1.2c-0.1-0.8-0.2-1.9-0.4-3.4c-0.3-3-0.8-7.3-1.3-12.8
					c-1.1-11-2.7-26.9-4.7-46.1l0.4,0.3c-26.8,2.5-60.4,5.6-96.9,9c-0.1,0.1,0.8-0.9,0.4-0.5l0,0l0,0l0,0.1l0,0.1l0,0.3l0.1,0.5
					l0.1,1.1l0.2,2.1c0.1,1.4,0.3,2.8,0.4,4.2c0.3,2.8,0.5,5.6,0.8,8.3c0.5,5.5,1.1,10.9,1.6,16.2c1,10.6,2,20.8,3,30.5l-0.5-0.4
					c28.5-2.5,52.7-4.7,69.8-6.2c8.5-0.7,15.3-1.3,20-1.7c2.3-0.2,4.1-0.3,5.3-0.4c0.6,0,1-0.1,1.4-0.1
					C387.2,195.9,387.3,195.9,387.3,195.9c0,0-0.1,0-0.4,0.1c-0.3,0-0.8,0.1-1.3,0.1c-1.2,0.1-3,0.3-5.2,0.5
					c-4.7,0.5-11.4,1.1-19.9,1.9c-17.2,1.6-41.4,3.9-70,6.7l-0.4,0l0-0.4c-1-9.7-2-19.9-3-30.5c-0.5-5.3-1.1-10.7-1.6-16.2
					c-0.3-2.8-0.5-5.5-0.8-8.3c-0.1-1.4-0.3-2.8-0.4-4.2l-0.2-2.1l-0.1-1.1l-0.1-0.5l0-0.3l0-0.1l0-0.1l0,0l0,0
					c-0.4,0.4,0.5-0.6,0.4-0.5c36.5-3.3,70.2-6.4,96.9-8.8l0.4,0l0,0.3c1.8,19.4,3.3,35.3,4.3,46.4c0.5,5.5,0.9,9.8,1.1,12.7
					c0.1,1.4,0.2,2.5,0.3,3.3C387.3,195.5,387.3,195.9,387.3,195.9z"/>
			</g>
		</g>
	</g>
	<g>
		<g>
			<path fill="#455A64" d="M381.2,132.4c0,0-0.2,0.3-0.8,0.9c-0.6,0.7-1.3,1.5-2.3,2.6c-2.1,2.3-5,5.5-8.5,9.4
				c-7.4,8-17.4,19-28.7,31.2l-0.3,0.3l-0.3-0.2c-0.8-0.5-1.7-1.1-2.6-1.6c-14.8-9.2-28.2-17.6-37.9-23.7c-4.8-3-8.7-5.5-11.4-7.3
				c-1.3-0.8-2.3-1.5-3.1-2c-0.7-0.5-1.1-0.7-1-0.8c0,0,0.4,0.2,1.1,0.6c0.8,0.5,1.9,1.1,3.2,1.9c2.8,1.7,6.8,4.1,11.6,7
				c9.8,6,23.2,14.3,38.1,23.4c0.9,0.5,1.8,1.1,2.6,1.6l-0.6,0.1c11.3-12.1,21.5-23,28.9-31c3.7-3.9,6.6-7,8.8-9.3
				c1-1,1.8-1.9,2.4-2.5C380.8,132.7,381.1,132.4,381.2,132.4z"/>
		</g>
	</g>
</g>
<g>
	<g>
		<g>
			<g>
				<g>
					<path fill="#263238" d="M276.1,500l-165.3-0.7c-19.9-0.1-35.9-15.8-35.8-35.2l1.8-402.9c0.1-19.3,16.3-34.9,36.2-34.9
						l165.3,0.7C298,27.2,314.1,43,314,62.3l-1.8,402.9C312.2,484.5,296,500.1,276.1,500z"/>
				</g>
				<g>
					<path fill="#EBEBEB" d="M277.9,41l-32.1-0.1c-4.3,0-7.8,3.5-7.8,7.9l0,5.7c0,4.4-3.5,7.9-7.8,7.9L167.7,62
						c-4.3,0-7.8-3.6-7.7-7.9l0-5.7c0-4.4-3.5-7.9-7.8-7.9L141,40.4l-28.1-0.1C99,40.2,87.6,51.2,87.6,64.7l-1.7,393.2
						c-0.1,13.5,11.2,24.6,25.1,24.6l165,0.7c13.9,0.1,25.3-10.9,25.3-24.4L303,65.7C303.1,52.1,291.8,41.1,277.9,41z"/>
				</g>
			</g>
		</g>
	</g>
</g>
<g>
	<path fill="#455A64" d="M187.3,451.8c0,1.9-1.5,3.4-3.4,3.4c-1.9,0-3.4-1.5-3.4-3.4c0-1.9,1.5-3.4,3.4-3.4
		C185.8,448.4,187.3,449.9,187.3,451.8z"/>
</g>
<g>
	<path fill="#455A64" d="M197.8,451.8c0,1.9-1.5,3.4-3.4,3.4c-1.9,0-3.4-1.5-3.4-3.4c0-1.9,1.5-3.4,3.4-3.4
		C196.3,448.4,197.9,449.9,197.8,451.8z"/>
</g>
<g>
	<path fill="#455A64" d="M208.4,451.9c0,1.9-1.5,3.4-3.4,3.4c-1.9,0-3.4-1.5-3.4-3.4c0-1.9,1.5-3.4,3.4-3.4
		C206.9,448.5,208.4,450,208.4,451.9z"/>
</g>
<g>
	<g>
		<g>
			<path fill="#E0E0E0" d="M291.5,234.3c-0.6,0-1.2-0.6-1.2-1.3c0-0.7,0.5-1.3,1.2-1.3c0.6,0,1.2,0.6,1.2,1.3
				C292.7,233.7,292.1,234.3,291.5,234.3z"/>
		</g>
	</g>
	<g>
		<g>
			<path fill="#E0E0E0" d="M290.9,243c-0.6-0.1-1.1-0.7-1-1.4c0.1-0.7,0.7-1.2,1.3-1.2c0.6,0.1,1.1,0.7,1,1.4
				C292.1,242.5,291.5,243,290.9,243z"/>
		</g>
	</g>
	<g>
		<g>
			<path fill="#E0E0E0" d="M289.4,251.6c-0.6-0.1-1-0.8-0.9-1.5c0.1-0.7,0.8-1.2,1.4-1.1c0.6,0.1,1,0.8,0.9,1.5
				C290.7,251.2,290,251.7,289.4,251.6z"/>
		</g>
	</g>
	<g>
		<g>
			<path fill="#E0E0E0" d="M287.2,260c-0.6-0.2-0.9-0.9-0.7-1.6c0.2-0.7,0.9-1.1,1.5-0.9c0.6,0.2,1,0.9,0.7,1.6
				C288.4,259.7,287.8,260.2,287.2,260z"/>
		</g>
	</g>
	<g>
		<g>
			<path fill="#E0E0E0" d="M284.1,268.2c-0.6-0.2-0.9-1-0.6-1.6c0.3-0.7,1-1,1.6-0.8c0.6,0.2,0.9,1,0.6,1.6
				C285.4,268,284.7,268.4,284.1,268.2z"/>
		</g>
	</g>
	<g>
		<g>
			<path fill="#E0E0E0" d="M280.3,276c-0.6-0.3-0.8-1-0.4-1.7c0.3-0.6,1.1-0.9,1.7-0.6c0.6,0.3,0.8,1,0.4,1.7
				C281.6,276,280.9,276.3,280.3,276z"/>
		</g>
	</g>
	<g>
		<g>
			<path fill="#E0E0E0" d="M275.8,283.5c-0.5-0.3-0.7-1.1-0.3-1.7c0.4-0.6,1.2-0.8,1.7-0.5c0.6,0.3,0.7,1.1,0.3,1.7
				C277.1,283.7,276.4,283.9,275.8,283.5z"/>
		</g>
	</g>
	<g>
		<g>
			<path fill="#E0E0E0" d="M270.6,290.6c-0.5-0.4-0.6-1.2-0.1-1.7c0.4-0.6,1.2-0.7,1.7-0.3c0.5,0.4,0.6,1.1,0.1,1.7
				C271.9,290.8,271.1,291,270.6,290.6z"/>
		</g>
	</g>
	<g>
		<g>
			<path fill="#E0E0E0" d="M264.8,297.2c-0.5-0.4-0.4-1.2,0-1.7c0.5-0.5,1.3-0.6,1.8-0.2c0.5,0.4,0.5,1.2,0,1.7
				C266,297.5,265.3,297.6,264.8,297.2z"/>
		</g>
	</g>
	<g>
		<g>
			<path fill="#E0E0E0" d="M258.4,303.2c-0.4-0.5-0.3-1.2,0.2-1.7c0.5-0.5,1.3-0.5,1.8,0c0.4,0.5,0.3,1.2-0.2,1.7
				C259.6,303.7,258.8,303.7,258.4,303.2z"/>
		</g>
	</g>
	<g>
		<g>
			<path fill="#E0E0E0" d="M251.4,308.7c-0.4-0.5-0.2-1.3,0.4-1.7c0.6-0.4,1.4-0.4,1.8,0.1c0.4,0.5,0.2,1.3-0.4,1.7
				C252.6,309.3,251.8,309.2,251.4,308.7z"/>
		</g>
	</g>
	<g>
		<g>
			<path fill="#E0E0E0" d="M244,313.5c-0.3-0.5-0.1-1.3,0.5-1.7c0.6-0.4,1.4-0.3,1.8,0.3c0.3,0.5,0.1,1.3-0.5,1.7
				C245.1,314.2,244.3,314.1,244,313.5z"/>
		</g>
	</g>
	<g>
		<g>
			<path fill="#E0E0E0" d="M236.1,317.7c-0.3-0.6,0-1.3,0.7-1.6c0.7-0.3,1.4-0.1,1.7,0.4c0.3,0.6,0,1.3-0.7,1.6
				C237.2,318.4,236.4,318.2,236.1,317.7z"/>
		</g>
	</g>
	<g>
		<g>
			<path fill="#E0E0E0" d="M227.9,321.1c-0.2-0.6,0.1-1.3,0.8-1.5c0.7-0.3,1.4,0,1.7,0.6c0.2,0.6-0.1,1.3-0.8,1.5
				C228.9,321.9,228.1,321.7,227.9,321.1z"/>
		</g>
	</g>
	<g>
		<g>
			<path fill="#E0E0E0" d="M219.4,323.8c-0.2-0.6,0.3-1.3,1-1.5c0.7-0.2,1.4,0.1,1.6,0.7c0.2,0.6-0.2,1.3-1,1.5
				C220.3,324.7,219.6,324.4,219.4,323.8z"/>
		</g>
	</g>
	<g>
		<g>
			<path fill="#E0E0E0" d="M210.7,325.7c-0.1-0.6,0.4-1.2,1.1-1.4c0.7-0.1,1.4,0.3,1.5,0.9c0.1,0.6-0.4,1.2-1.1,1.4
				C211.5,326.7,210.8,326.3,210.7,325.7z"/>
		</g>
	</g>
	<g>
		<g>
			<path fill="#E0E0E0" d="M201.8,326.8c-0.1-0.6,0.5-1.2,1.2-1.3c0.7-0.1,1.4,0.4,1.5,1c0.1,0.6-0.5,1.2-1.2,1.3
				C202.5,327.9,201.9,327.5,201.8,326.8z"/>
		</g>
	</g>
	<g>
		<g>
			<path fill="#E0E0E0" d="M192.9,327.2c0-0.6,0.6-1.1,1.3-1.1c0.7,0,1.3,0.5,1.4,1.1c0,0.6-0.6,1.1-1.3,1.2
				C193.5,328.3,192.9,327.8,192.9,327.2z"/>
		</g>
	</g>
	<g>
		<g>
			<path fill="#E0E0E0" d="M183.9,326.8c0.1-0.6,0.7-1.1,1.4-1c0.7,0.1,1.3,0.6,1.2,1.2c0,0.6-0.7,1.1-1.4,1
				C184.4,327.9,183.9,327.4,183.9,326.8z"/>
		</g>
	</g>
	<g>
		<g>
			<path fill="#E0E0E0" d="M175.1,325.6c0.1-0.6,0.8-1,1.5-0.9c0.7,0.1,1.2,0.7,1.1,1.3c-0.1,0.6-0.8,1-1.5,0.9
				C175.4,326.8,174.9,326.2,175.1,325.6z"/>
		</g>
	</g>
	<g>
		<g>
			<path fill="#E0E0E0" d="M166.4,323.6c0.2-0.6,0.9-0.9,1.6-0.8c0.7,0.2,1.1,0.8,1,1.4c-0.2,0.6-0.9,0.9-1.6,0.8
				C166.6,324.8,166.2,324.2,166.4,323.6z"/>
		</g>
	</g>
	<g>
		<g>
			<path fill="#E0E0E0" d="M157.9,320.8c0.2-0.6,1-0.9,1.7-0.6c0.7,0.2,1.1,0.9,0.9,1.5c-0.2,0.6-1,0.9-1.7,0.6
				C158,322.1,157.6,321.4,157.9,320.8z"/>
		</g>
	</g>
	<g>
		<g>
			<path fill="#E0E0E0" d="M149.7,317.3c0.3-0.6,1.1-0.8,1.7-0.5c0.7,0.3,1,1,0.7,1.6c-0.3,0.6-1,0.8-1.7,0.5
				C149.7,318.6,149.4,317.9,149.7,317.3z"/>
		</g>
	</g>
	<g>
		<g>
			<path fill="#E0E0E0" d="M141.9,313.1c0.3-0.5,1.1-0.7,1.8-0.3c0.6,0.4,0.9,1.1,0.6,1.6c-0.3,0.5-1.1,0.7-1.8,0.3
				C141.8,314.4,141.5,313.6,141.9,313.1z"/>
		</g>
	</g>
	<g>
		<g>
			<path fill="#E0E0E0" d="M134.5,308.2c0.4-0.5,1.2-0.6,1.8-0.2c0.6,0.4,0.8,1.2,0.4,1.7c-0.4,0.5-1.2,0.6-1.8,0.2
				C134.3,309.5,134.1,308.7,134.5,308.2z"/>
		</g>
	</g>
	<g>
		<g>
			<path fill="#E0E0E0" d="M127.5,302.7c0.4-0.5,1.2-0.5,1.8,0c0.5,0.5,0.7,1.2,0.2,1.7c-0.4,0.5-1.2,0.5-1.8,0
				C127.2,303.9,127.1,303.2,127.5,302.7z"/>
		</g>
	</g>
	<g>
		<g>
			<path fill="#E0E0E0" d="M121.2,296.6c0.5-0.4,1.3-0.4,1.8,0.2c0.5,0.5,0.5,1.3,0.1,1.7c-0.5,0.4-1.3,0.4-1.8-0.2
				C120.7,297.8,120.7,297,121.2,296.6z"/>
		</g>
	</g>
	<g>
		<g>
			<path fill="#E0E0E0" d="M115.4,290c0.5-0.4,1.3-0.2,1.7,0.3c0.5,0.6,0.4,1.3-0.1,1.7c-0.5,0.4-1.3,0.3-1.7-0.3
				C114.9,291.1,114.9,290.3,115.4,290z"/>
		</g>
	</g>
	<g>
		<g>
			<path fill="#E0E0E0" d="M110.3,282.8c0.5-0.3,1.3-0.1,1.7,0.5c0.4,0.6,0.3,1.4-0.2,1.7c-0.5,0.4-1.3,0.1-1.7-0.5
				C109.6,283.9,109.7,283.2,110.3,282.8z"/>
		</g>
	</g>
	<g>
		<g>
			<path fill="#E0E0E0" d="M105.8,275.3c0.6-0.3,1.3,0,1.7,0.6c0.3,0.6,0.2,1.4-0.4,1.7c-0.6,0.3-1.3,0-1.7-0.6
				C105.1,276.3,105.3,275.6,105.8,275.3z"/>
		</g>
	</g>
	<g>
		<g>
			<path fill="#E0E0E0" d="M102.1,267.4c0.6-0.2,1.3,0.1,1.6,0.8c0.3,0.7,0,1.4-0.6,1.6c-0.6,0.3-1.3-0.1-1.6-0.8
				C101.3,268.4,101.5,267.6,102.1,267.4z"/>
		</g>
	</g>
	<g>
		<g>
			<path fill="#E0E0E0" d="M99.1,259.2c0.6-0.2,1.3,0.2,1.5,0.9c0.2,0.7-0.1,1.4-0.7,1.6c-0.6,0.2-1.3-0.2-1.5-0.9
				C98.2,260.1,98.5,259.4,99.1,259.2z"/>
		</g>
	</g>
	<g>
		<g>
			<path fill="#E0E0E0" d="M97,250.8c0.6-0.1,1.3,0.3,1.4,1c0.2,0.7-0.2,1.4-0.9,1.5c-0.6,0.1-1.3-0.3-1.4-1
				C96,251.6,96.3,250.9,97,250.8z"/>
		</g>
	</g>
	<g>
		<g>
			<path fill="#E0E0E0" d="M95.6,242.2c0.6-0.1,1.2,0.5,1.3,1.2c0.1,0.7-0.4,1.3-1,1.4c-0.6,0.1-1.2-0.4-1.3-1.2
				C94.5,242.9,95,242.2,95.6,242.2z"/>
		</g>
	</g>
	<g>
		<g>
			<path fill="#E0E0E0" d="M95,233.5c0.6,0,1.2,0.6,1.2,1.3c0,0.7-0.5,1.3-1.1,1.3c-0.6,0-1.2-0.5-1.2-1.3
				C93.9,234.1,94.4,233.5,95,233.5z"/>
		</g>
	</g>
	<g>
		<g>
			<path fill="#E0E0E0" d="M95.3,224.8c0.6,0,1.1,0.7,1.1,1.4c0,0.7-0.6,1.3-1.2,1.2c-0.6,0-1.1-0.6-1.1-1.4
				C94.1,225.3,94.6,224.8,95.3,224.8z"/>
		</g>
	</g>
	<g>
		<g>
			<path fill="#E0E0E0" d="M96.3,216.2c0.6,0.1,1.1,0.8,1,1.5c-0.1,0.7-0.7,1.2-1.4,1.1c-0.6-0.1-1.1-0.7-1-1.5
				C95.1,216.6,95.7,216.1,96.3,216.2z"/>
		</g>
	</g>
	<g>
		<g>
			<path fill="#E0E0E0" d="M98.1,207.7c0.6,0.2,1,0.8,0.8,1.5c-0.2,0.7-0.8,1.1-1.5,1c-0.6-0.1-1-0.8-0.8-1.5
				C96.9,207.9,97.5,207.5,98.1,207.7z"/>
		</g>
	</g>
	<g>
		<g>
			<path fill="#E0E0E0" d="M100.8,199.3c0.6,0.2,0.9,0.9,0.7,1.6c-0.2,0.7-0.9,1.1-1.5,0.9c-0.6-0.2-0.9-0.9-0.7-1.6
				C99.5,199.5,100.2,199.1,100.8,199.3z"/>
		</g>
	</g>
	<g>
		<g>
			<path fill="#E0E0E0" d="M104.2,191.3c0.6,0.3,0.8,1,0.5,1.7c-0.3,0.6-1,1-1.6,0.7c-0.6-0.2-0.8-1-0.5-1.7
				C102.9,191.4,103.6,191,104.2,191.3z"/>
		</g>
	</g>
	<g>
		<g>
			<path fill="#E0E0E0" d="M108.4,183.6c0.6,0.3,0.7,1.1,0.4,1.7c-0.4,0.6-1.1,0.9-1.7,0.6c-0.6-0.3-0.7-1.1-0.4-1.7
				C107,183.5,107.8,183.3,108.4,183.6z"/>
		</g>
	</g>
	<g>
		<g>
			<path fill="#E0E0E0" d="M113.2,176.3c0.5,0.4,0.6,1.1,0.2,1.7c-0.4,0.6-1.2,0.8-1.7,0.4c-0.5-0.3-0.6-1.1-0.2-1.7
				C111.9,176.1,112.7,175.9,113.2,176.3z"/>
		</g>
	</g>
	<g>
		<g>
			<path fill="#E0E0E0" d="M118.7,169.5c0.5,0.4,0.5,1.2,0,1.7c-0.5,0.5-1.3,0.7-1.8,0.3c-0.5-0.4-0.5-1.2,0-1.7
				C117.5,169.2,118.2,169.1,118.7,169.5z"/>
		</g>
	</g>
	<g>
		<g>
			<path fill="#E0E0E0" d="M124.9,163.1c0.4,0.5,0.4,1.2-0.1,1.7c-0.5,0.5-1.3,0.6-1.8,0.1c-0.5-0.4-0.4-1.2,0.1-1.7
				C123.6,162.7,124.4,162.7,124.9,163.1z"/>
		</g>
	</g>
	<g>
		<g>
			<path fill="#E0E0E0" d="M131.6,157.4c0.4,0.5,0.3,1.3-0.3,1.7c-0.6,0.5-1.4,0.4-1.8,0c-0.4-0.5-0.3-1.2,0.3-1.7
				C130.4,156.9,131.2,156.9,131.6,157.4z"/>
		</g>
	</g>
	<g>
		<g>
			<path fill="#E0E0E0" d="M138.8,152.2c0.4,0.5,0.2,1.3-0.4,1.7c-0.6,0.4-1.4,0.3-1.8-0.2c-0.4-0.5-0.2-1.3,0.4-1.7
				C137.6,151.6,138.4,151.7,138.8,152.2z"/>
		</g>
	</g>
	<g>
		<g>
			<path fill="#E0E0E0" d="M146.4,147.7c0.3,0.6,0,1.3-0.6,1.6c-0.6,0.3-1.4,0.2-1.7-0.4c-0.3-0.5-0.1-1.3,0.6-1.6
				C145.3,147,146.1,147.2,146.4,147.7z"/>
		</g>
	</g>
	<g>
		<g>
			<path fill="#E0E0E0" d="M154.5,143.9c0.3,0.6-0.1,1.3-0.7,1.6c-0.7,0.3-1.4,0.1-1.7-0.5c-0.3-0.6,0.1-1.3,0.7-1.6
				C153.4,143.1,154.2,143.4,154.5,143.9z"/>
		</g>
	</g>
	<g>
		<g>
			<path fill="#E0E0E0" d="M162.8,140.9c0.2,0.6-0.2,1.3-0.9,1.5c-0.7,0.2-1.4-0.1-1.6-0.7c-0.2-0.6,0.2-1.3,0.9-1.5
				C161.9,140,162.6,140.3,162.8,140.9z"/>
		</g>
	</g>
	<g>
		<g>
			<path fill="#E0E0E0" d="M171.4,138.5c0.1,0.6-0.3,1.2-1,1.4c-0.7,0.2-1.4-0.2-1.6-0.8c-0.2-0.6,0.3-1.2,1-1.4
				C170.6,137.6,171.3,137.9,171.4,138.5z"/>
		</g>
	</g>
	<g>
		<g>
			<path fill="#E0E0E0" d="M180.2,137c0.1,0.6-0.4,1.2-1.2,1.3c-0.7,0.1-1.4-0.3-1.5-0.9c-0.1-0.6,0.4-1.2,1.2-1.3
				C179.5,136,180.2,136.4,180.2,137z"/>
		</g>
	</g>
	<g>
		<g>
			<path fill="#E0E0E0" d="M189.2,136.3c0,0.6-0.5,1.2-1.3,1.2c-0.7,0-1.4-0.4-1.4-1.1c0-0.6,0.5-1.2,1.3-1.2
				C188.5,135.2,189.1,135.6,189.2,136.3z"/>
		</g>
	</g>
	<g>
		<g>
			<path fill="#E0E0E0" d="M198.1,136.3c0,0.6-0.7,1.1-1.4,1.1c-0.7,0-1.3-0.6-1.3-1.2c0-0.6,0.6-1.1,1.4-1.1
				C197.6,135.1,198.1,135.7,198.1,136.3z"/>
		</g>
	</g>
	<g>
		<g>
			<path fill="#E0E0E0" d="M207,137.1c-0.1,0.6-0.8,1.1-1.5,1c-0.7-0.1-1.3-0.7-1.2-1.3c0.1-0.6,0.7-1.1,1.5-1
				C206.6,135.9,207.1,136.5,207,137.1z"/>
		</g>
	</g>
	<g>
		<g>
			<path fill="#E0E0E0" d="M215.8,138.7c-0.1,0.6-0.8,1-1.6,0.8c-0.7-0.2-1.2-0.8-1.1-1.4c0.1-0.6,0.8-1,1.6-0.8
				C215.5,137.5,216,138.1,215.8,138.7z"/>
		</g>
	</g>
	<g>
		<g>
			<path fill="#E0E0E0" d="M224.4,141.1c-0.2,0.6-0.9,0.9-1.6,0.7c-0.7-0.2-1.1-0.9-0.9-1.5c0.2-0.6,0.9-0.9,1.6-0.7
				C224.2,139.8,224.6,140.5,224.4,141.1z"/>
		</g>
	</g>
	<g>
		<g>
			<path fill="#E0E0E0" d="M232.8,144.2c-0.3,0.6-1,0.8-1.7,0.5c-0.7-0.3-1-1-0.8-1.6c0.2-0.6,1-0.8,1.7-0.5
				C232.7,142.9,233,143.6,232.8,144.2z"/>
		</g>
	</g>
	<g>
		<g>
			<path fill="#E0E0E0" d="M240.8,148.1c-0.3,0.5-1.1,0.7-1.7,0.4c-0.6-0.3-0.9-1.1-0.6-1.6c0.3-0.6,1.1-0.7,1.7-0.4
				C240.8,146.8,241.1,147.5,240.8,148.1z"/>
		</g>
	</g>
	<g>
		<g>
			<path fill="#E0E0E0" d="M248.4,152.6c-0.4,0.5-1.2,0.6-1.8,0.2c-0.6-0.4-0.8-1.1-0.5-1.7c0.3-0.5,1.1-0.6,1.8-0.2
				C248.5,151.3,248.8,152.1,248.4,152.6z"/>
		</g>
	</g>
	<g>
		<g>
			<path fill="#E0E0E0" d="M255.6,157.8c-0.4,0.5-1.2,0.5-1.8,0.1c-0.6-0.4-0.7-1.2-0.3-1.7c0.4-0.5,1.2-0.5,1.8-0.1
				C255.8,156.6,256,157.3,255.6,157.8z"/>
		</g>
	</g>
	<g>
		<g>
			<path fill="#E0E0E0" d="M262.2,163.6c-0.5,0.4-1.3,0.4-1.8-0.1c-0.5-0.5-0.6-1.3-0.2-1.7c0.4-0.5,1.2-0.4,1.8,0.1
				C262.6,162.4,262.7,163.2,262.2,163.6z"/>
		</g>
	</g>
	<g>
		<g>
			<path fill="#E0E0E0" d="M268.3,170c-0.5,0.4-1.3,0.3-1.8-0.2c-0.5-0.5-0.5-1.3,0-1.7c0.5-0.4,1.3-0.3,1.8,0.2
				C268.8,168.8,268.8,169.6,268.3,170z"/>
		</g>
	</g>
	<g>
		<g>
			<path fill="#E0E0E0" d="M273.8,176.9c-0.5,0.4-1.3,0.2-1.7-0.4c-0.4-0.6-0.4-1.3,0.2-1.7c0.5-0.4,1.3-0.2,1.7,0.4
				C274.4,175.7,274.3,176.5,273.8,176.9z"/>
		</g>
	</g>
	<g>
		<g>
			<path fill="#E0E0E0" d="M278.6,184.2c-0.6,0.3-1.3,0.1-1.7-0.5c-0.4-0.6-0.2-1.4,0.3-1.7c0.5-0.3,1.3-0.1,1.7,0.5
				C279.3,183.1,279.1,183.9,278.6,184.2z"/>
		</g>
	</g>
	<g>
		<g>
			<path fill="#E0E0E0" d="M282.6,191.9c-0.6,0.3-1.3,0-1.6-0.7c-0.3-0.6-0.1-1.4,0.5-1.7c0.6-0.3,1.3,0,1.6,0.7
				C283.5,190.9,283.2,191.7,282.6,191.9z"/>
		</g>
	</g>
	<g>
		<g>
			<path fill="#E0E0E0" d="M286,200c-0.6,0.2-1.3-0.2-1.6-0.8c-0.3-0.7,0-1.4,0.6-1.6c0.6-0.2,1.3,0.1,1.6,0.8
				C286.9,199.1,286.6,199.8,286,200z"/>
		</g>
	</g>
	<g>
		<g>
			<path fill="#E0E0E0" d="M288.6,208.3c-0.6,0.2-1.3-0.3-1.5-1c-0.2-0.7,0.2-1.4,0.8-1.6c0.6-0.2,1.3,0.3,1.5,1
				C289.6,207.5,289.2,208.2,288.6,208.3z"/>
		</g>
	</g>
	<g>
		<g>
			<path fill="#E0E0E0" d="M290.4,216.8c-0.6,0.1-1.3-0.4-1.4-1.1c-0.1-0.7,0.3-1.4,0.9-1.5c0.6-0.1,1.3,0.4,1.4,1.1
				C291.4,216.1,291,216.7,290.4,216.8z"/>
		</g>
	</g>
	<g>
		<g>
			<path fill="#E0E0E0" d="M291.3,225.5c-0.6,0-1.2-0.5-1.3-1.2c-0.1-0.7,0.4-1.3,1.1-1.4c0.6-0.1,1.2,0.5,1.3,1.2
				C292.5,224.8,292,225.4,291.3,225.5z"/>
		</g>
	</g>
</g>
<g>
	<g>
		<g>
			<path fill="#263238" d="M289.3,79.3c0,0.8-0.7,1.5-1.5,1.5c-0.8,0-1.5-0.7-1.5-1.5c0-0.8,0.7-1.5,1.5-1.5
				C288.6,77.8,289.3,78.5,289.3,79.3z"/>
		</g>
	</g>
	<g>
		<g>
			<path fill="#263238" d="M289.3,84.6c0,0.8-0.7,1.5-1.5,1.5c-0.8,0-1.5-0.7-1.5-1.5c0-0.8,0.7-1.5,1.5-1.5
				C288.6,83.1,289.3,83.8,289.3,84.6z"/>
		</g>
	</g>
	<g>
		<g>
			<path fill="#263238" d="M289.3,89.9c0,0.8-0.7,1.5-1.5,1.5c-0.8,0-1.5-0.7-1.5-1.5c0-0.8,0.7-1.5,1.5-1.5
				C288.6,88.4,289.3,89.1,289.3,89.9z"/>
		</g>
	</g>
</g>
<g>
	<g>
		<path fill="#263238" d="M109.2,76.7c0,0,0.2,0.1,0.5,0.4c0.4,0.3,0.9,0.8,1.6,1.3c1.4,1.2,3.4,2.9,5.8,5l0.1,0.1l0,0.1
			c0,2.5,0,5.5,0.1,8.7l0,0.3l-0.3,0c-1.8,0-3.7,0-5.6,0l-0.3,0l0-0.3c0-1.7,0-3.4,0-5.2l0.3,0.3c-0.7,0-1.4,0-2.1,0
			c-0.6,0-1.2,0-1.7,0l0.3-0.3c0,1.8,0,3.5,0,5.2l0,0.3l-0.3,0c-2.1,0-4.1,0-6.1,0l-0.3,0l0-0.3c0-3.2,0-6.2,0.1-8.7l0-0.1l0.1-0.1
			c2.4-2.1,4.4-3.7,5.8-5c0.6-0.5,1.2-1,1.6-1.3C109,76.8,109.2,76.7,109.2,76.7c0,0-0.2,0.2-0.5,0.5c-0.4,0.4-0.9,0.8-1.5,1.4
			c-1.4,1.3-3.3,3-5.6,5.1l0.1-0.2c0,2.5,0,5.5,0.1,8.7l-0.3-0.3c1.9,0,3.9,0,6.1,0l-0.3,0.3c0-1.7,0-3.4,0-5.2l0-0.3l0.3,0
			c0.6,0,1.1,0,1.7,0c0.7,0,1.5,0,2.1,0h0.3l0,0.3c0,1.8,0,3.5,0,5.2l-0.3-0.3c2,0,3.8,0,5.6,0l-0.3,0.3c0-3.2,0-6.2,0.1-8.7
			l0.1,0.2c-2.3-2.1-4.2-3.8-5.6-5.1c-0.6-0.6-1.1-1-1.5-1.4C109.4,76.9,109.2,76.7,109.2,76.7z"/>
	</g>
</g>
<g>
	<g>
		<path fill="#7877A7" d="M176.3,360.9v15.7h-3.7v-6.4h-7.3v6.4h-3.7v-15.7h3.7v6.2h7.3v-6.2H176.3z"/>
		<path fill="#7877A7" d="M192,371.6h-9.4c0.3,1.5,1.7,2.4,3.6,2.4c1.3,0,2.3-0.4,3.1-1.2l1.9,2c-1.2,1.3-2.9,2-5.1,2
			c-4.3,0-7.1-2.6-7.1-6.2c0-3.6,2.8-6.2,6.6-6.2c3.6,0,6.5,2.4,6.5,6.3C192.1,370.9,192,371.3,192,371.6z M182.6,369.5h6.1
			c-0.3-1.5-1.4-2.5-3-2.5C184,367,182.8,368,182.6,369.5z"/>
		<path fill="#7877A7" d="M194.5,360h3.6v16.6h-3.6V360z"/>
		<path fill="#7877A7" d="M201.4,360h3.6v16.6h-3.6V360z"/>
		<path fill="#7877A7" d="M207.4,370.6c0-3.6,2.9-6.2,6.8-6.2c3.9,0,6.8,2.6,6.8,6.2c0,3.6-2.9,6.2-6.8,6.2
			C210.3,376.8,207.4,374.2,207.4,370.6z M217.4,370.6c0-2.1-1.4-3.3-3.2-3.3c-1.8,0-3.2,1.3-3.2,3.3c0,2.1,1.4,3.3,3.2,3.3
			C216.1,373.9,217.4,372.6,217.4,370.6z"/>
		<path fill="#7877A7" d="M222.9,374.7c0-1.1,0.9-2,2.2-2c1.3,0,2.2,0.9,2.2,2c0,1.1-0.9,2-2.2,2
			C223.8,376.8,222.9,375.9,222.9,374.7z M223,360.9h4.3l-0.7,10.2h-2.9L223,360.9z"/>
	</g>
</g>
<g>
	<g>
		<g>
			<path fill="#263238" d="M274.7,400.9c0,0.1-37.5,0.2-83.7,0.2c-46.2,0-83.7-0.1-83.7-0.2c0-0.1,37.5-0.2,83.7-0.2
				C237.3,400.6,274.7,400.7,274.7,400.9z"/>
		</g>
	</g>
	<g>
		<g>
			<path fill="#263238" d="M274.7,417.1c0,0.1-37.5,0.2-83.7,0.2c-46.2,0-83.7-0.1-83.7-0.2c0-0.1,37.5-0.2,83.7-0.2
				C237.3,416.9,274.7,417,274.7,417.1z"/>
		</g>
	</g>
	<g>
		<g>
			<path fill="#263238" d="M227.4,433.4c0,0.1-16.3,0.2-36.3,0.2c-20.1,0-36.3-0.1-36.3-0.2c0-0.1,16.3-0.2,36.3-0.2
				C211.1,433.1,227.4,433.2,227.4,433.4z"/>
		</g>
	</g>
</g>
<g>
	<ellipse fill="#FFFFFF" cx="191.8" cy="231.6" rx="90.5" ry="87.9"/>
</g>
<g>
	<g>
		<path fill="#351A03" d="M247.8,205.9c-0.2-6.5,3.9-13.1,1.4-19.2c-1.8-4.5-6.7-7.2-8.7-11.6c-1.9-4.3-0.7-9.1,0.1-13.7
			c0.8-4.6,1-9.9-2.4-13.2c-2.7-2.7-7.1-3.3-10-5.9c-2.6-2.4-3.6-6-3.8-9.5c-0.2-3.5,0.2-7-0.3-10.4c-0.9-7.1-5.7-13.5-12.2-16.7
			c-6.6-3.2-14.7-3-20.9,3.2l22,81.2C225.4,192.2,236.8,197.9,247.8,205.9z"/>
	</g>
	<g>
		<g>
			<path fill="#351A03" d="M248.2,172.6c0,0,0.3,0,0.7,0.3c0.4,0.3,0.9,0.9,1.1,1.8c0.2,0.9,0.1,2.2-0.9,3.2c-1,1-2.8,1.4-4.5,0.9
				c-1.7-0.5-3.2-2-3.8-3.9c-0.7-1.9-0.5-4.1,0.1-6.2c0.6-2.1,1.6-4.2,2.4-6.5c0.8-2.2,1-4.7,0.5-7.2c-0.9-4.9-4.3-9-8.3-10.8
				c-2-0.9-4.1-1.6-5.9-2.4c-1.8-0.8-3.4-2-4.4-3.4c-1.1-1.3-1.7-2.8-2-4c-0.4-1.3-0.4-2.4-0.4-3.4c0-0.9,0.2-1.6,0.3-2.1
				c0.1-0.5,0.2-0.7,0.3-0.7c0.1,0-0.4,1-0.4,2.8c0,0.9,0.1,2,0.5,3.3c0.4,1.2,1,2.6,2,3.9c1,1.3,2.5,2.4,4.3,3.2
				c1.8,0.8,3.8,1.4,5.9,2.4c4.2,1.8,7.7,6.1,8.6,11.1c0.5,2.5,0.2,5.1-0.5,7.4c-0.8,2.3-1.8,4.4-2.4,6.5c-0.6,2.1-0.8,4.2-0.1,6
				c0.6,1.8,1.9,3.3,3.5,3.7c1.6,0.5,3.2,0.1,4.2-0.8c1-0.9,1.1-2.1,0.9-3c-0.2-0.9-0.6-1.5-1-1.8
				C248.5,172.8,248.2,172.7,248.2,172.6z"/>
		</g>
	</g>
</g>
<g>
	<path fill="#351A03" d="M170.2,116.3c-3.2,8.3-4.6,15.1-7.7,21.7c-1.7,3.8-4.1,7.5-3.9,11.6c0.1,2.8,1.5,5.5,1.4,8.3
		c-0.1,5-4.5,8.7-8.3,12c-3.9,3.3-7.9,7.6-7.1,12.5c0.3,2.1,1.6,4.1,1.8,6.2c0.2,2.6-1.2,5.2-2.8,7.2c-1.7,2.1-3.7,3.9-5,6.2l-0.6,4
		l48.2-14.8"/>
</g>
<g>
	<g>
		<path fill="#FFBE9D" d="M288.3,188.8c-1.2-7.9-0.1-15.8-0.4-19.9c-0.6-7.6-1.3-7.6-2.2-7.4c-2.4,0.5,0.5,13.4-1.8,11
			c-2.3-2.5-1.7-16.2-4.2-15.5c-3.3,0.9,0.1,14.3,0.3,15.5c0.2,1.1-1.5,1.4-1.6,0.4c-0.2-1.5-2.4-17.4-5.6-16.6
			c-1.8,0.4-0.6,3.5-0.6,3.5s3.2,14.7,1.7,15.1c-1.6,0.3-3.7-8.3-4.3-11.2c-0.5-2.9-2.2-3.9-3.3-2.6c-0.8,0.9,0.6,9.9,1.2,12.8
			c0.6,2.9,2.4,10.8-1.8,7.5c-4.2-3.3-8.6-4.4-10-3.9c-1.4,0.5-1.1,2.6,0.5,3c1.3,0.3,3.3,1.6,4.7,2.5c1.2,0.8,2.2,1.9,3.1,2.9
			c1.1,1.1,4.9,5.6,5.8,10.2L288.3,188.8"/>
	</g>
	<g>
		<g>
			<path fill="#EB996E" d="M283.1,184.8c0,0.1-0.5,0.2-1.2,0.7c-0.7,0.5-1.7,1.4-2,2.7l-0.2,0.6l-0.3-0.6c-0.4-0.7-1.1-1.5-1.9-2.1
				c-1.7-1.3-3.7-1.9-5.1-2c-1.4-0.1-2.3,0.1-2.4,0c0,0,0.9-0.5,2.4-0.4c1.5,0,3.6,0.5,5.5,1.9c0.8,0.7,1.5,1.5,2,2.3l-0.5,0.1
				c0.5-1.5,1.6-2.4,2.4-2.9C282.5,184.8,283.1,184.7,283.1,184.8z"/>
		</g>
	</g>
</g>
<g>
	<g>
		<path fill="#7877A7" stroke="#000000" stroke-width="0.5" stroke-miterlimit="10" d="M288.9,187.3l-20.5,7.9l6,44.7l-4.3-6.4
			l-8.1-10.3c-21.7-36.4-49.6-30.6-49.6-30.6l-36.7-2.8c0,0-23.2,0.4-36.6,15.2c-3.4,3.8-23.3,42.5-31.6,58.6
			c5.1,12.7,13.1,23.9,23.2,32.9l20.9-42l3.5,14.7c2.4,8,2.4,16.5,0.1,24.5l-5.6,15.7c12.6,6.5,26.9,10.1,42.2,10.1
			c16.4,0,31.8-4.2,45-11.7l-5.4-12.5c-3.6-8.3-4.5-17.6-2.7-26.4l3.9-19l21.9,20.3c2.6,2.8,5.1,5,7.4,6.9l0,0l0,0
			c10.1,7.8,18.1,8,18.1,8C314.8,283.8,288.9,187.3,288.9,187.3z"/>
	</g>
	<g>
		<path fill="#7877A7" stroke="#000000" stroke-width="0.5" stroke-miterlimit="10" d="M163.8,226.9c0,0.7-0.6,1.3-1.3,1.3
			c-0.7,0-1.3-0.6-1.3-1.3c0-0.7,0.6-1.3,1.3-1.3C163.2,225.6,163.8,226.2,163.8,226.9z"/>
	</g>
	<g>
		<path fill="#7877A7" stroke="#000000" stroke-width="0.5" stroke-miterlimit="10" d="M154.1,240.6c0,0.7-0.6,1.3-1.3,1.3
			c-0.7,0-1.3-0.6-1.3-1.3c0-0.7,0.6-1.3,1.3-1.3C153.5,239.2,154.1,239.8,154.1,240.6z"/>
	</g>
	<g>
		<path fill="#7877A7" stroke="#000000" stroke-width="0.5" stroke-miterlimit="10" d="M184.8,226.9c0,0.7-0.6,1.3-1.3,1.3
			c-0.7,0-1.3-0.6-1.3-1.3c0-0.7,0.6-1.3,1.3-1.3C184.2,225.6,184.8,226.2,184.8,226.9z"/>
	</g>
	<g>
		<path fill="#7877A7" stroke="#000000" stroke-width="0.5" stroke-miterlimit="10" d="M153.8,199.6c0,0.7-0.6,1.3-1.3,1.3
			c-0.7,0-1.3-0.6-1.3-1.3c0-0.7,0.6-1.3,1.3-1.3C153.2,198.3,153.8,198.9,153.8,199.6z"/>
	</g>
	<g>
		<path fill="#7877A7" stroke="#000000" stroke-width="0.5" stroke-miterlimit="10" d="M194.4,242.5c0,0.7-0.6,1.3-1.3,1.3
			c-0.7,0-1.3-0.6-1.3-1.3s0.6-1.3,1.3-1.3C193.8,241.2,194.4,241.8,194.4,242.5z"/>
	</g>
	<g>
		<path fill="#7877A7" stroke="#000000" stroke-width="0.5" stroke-miterlimit="10" d="M211,237c0,0.7-0.6,1.3-1.3,1.3
			c-0.7,0-1.3-0.6-1.3-1.3c0-0.7,0.6-1.3,1.3-1.3C210.4,235.7,211,236.3,211,237z"/>
	</g>
	<g>
		<path fill="#7877A7" stroke="#000000" stroke-width="0.5" stroke-miterlimit="10" d="M237.8,223.9c0,0.7-0.6,1.3-1.3,1.3
			c-0.7,0-1.3-0.6-1.3-1.3c0-0.7,0.6-1.3,1.3-1.3C237.2,222.6,237.8,223.2,237.8,223.9z"/>
	</g>
	<g>
		<path fill="#7877A7" stroke="#000000" stroke-width="0.5" stroke-miterlimit="10" d="M262.6,245.4c0,0.7-0.6,1.3-1.3,1.3
			c-0.7,0-1.3-0.6-1.3-1.3c0-0.7,0.6-1.3,1.3-1.3C262,244.1,262.6,244.7,262.6,245.4z"/>
	</g>
	<g>
		<path fill="#7877A7" stroke="#000000" stroke-width="0.5" stroke-miterlimit="10" d="M275.7,252.7c0,0.7-0.6,1.3-1.3,1.3
			c-0.7,0-1.3-0.6-1.3-1.3c0-0.7,0.6-1.3,1.3-1.3C275.1,251.4,275.7,252,275.7,252.7z"/>
	</g>
	<g>
		<path fill="#7877A7" stroke="#000000" stroke-width="0.5" stroke-miterlimit="10" d="M279.4,271.1c0,0.7-0.6,1.3-1.3,1.3
			c-0.7,0-1.3-0.6-1.3-1.3c0-0.7,0.6-1.3,1.3-1.3C278.8,269.8,279.4,270.4,279.4,271.1z"/>
	</g>
	<g>
		<path fill="#7877A7" stroke="#000000" stroke-width="0.5" stroke-miterlimit="10" d="M292.2,258c0,0.7-0.6,1.3-1.3,1.3
			c-0.7,0-1.3-0.6-1.3-1.3c0-0.7,0.6-1.3,1.3-1.3C291.6,256.7,292.2,257.3,292.2,258z"/>
	</g>
	<g>
		<path fill="#7877A7" stroke="#000000" stroke-width="0.5" stroke-miterlimit="10" d="M283.6,240.6c0,0.7-0.6,1.3-1.3,1.3
			c-0.7,0-1.3-0.6-1.3-1.3c0-0.7,0.6-1.3,1.3-1.3C283,239.2,283.6,239.8,283.6,240.6z"/>
	</g>
	<g>
		<path fill="#7877A7" stroke="#000000" stroke-width="0.5" stroke-miterlimit="10" d="M292.2,225.6c0,0.7-0.6,1.3-1.3,1.3
			c-0.7,0-1.3-0.6-1.3-1.3c0-0.7,0.6-1.3,1.3-1.3C291.6,224.3,292.2,224.9,292.2,225.6z"/>
	</g>
	<g>
		<path fill="#7877A7" stroke="#000000" stroke-width="0.5" stroke-miterlimit="10" d="M281.5,212.6c0,0.7-0.6,1.3-1.3,1.3
			c-0.7,0-1.3-0.6-1.3-1.3c0-0.7,0.6-1.3,1.3-1.3C280.9,211.2,281.5,211.8,281.5,212.6z"/>
	</g>
	<g>
		<path fill="#7877A7" stroke="#000000" stroke-width="0.5" stroke-miterlimit="10" d="M289,198.3c0,0.7-0.6,1.3-1.3,1.3
			c-0.7,0-1.3-0.6-1.3-1.3c0-0.7,0.6-1.3,1.3-1.3C288.4,197,289,197.6,289,198.3z"/>
	</g>
	<g>
		<path fill="#7877A7" stroke="#000000" stroke-width="0.5" stroke-miterlimit="10" d="M259.5,264.5c0,0.7-0.6,1.3-1.3,1.3
			c-0.7,0-1.3-0.6-1.3-1.3c0-0.7,0.6-1.3,1.3-1.3C258.9,263.2,259.5,263.8,259.5,264.5z"/>
	</g>
	<g>
		<path fill="#7877A7" stroke="#000000" stroke-width="0.5" stroke-miterlimit="10" d="M244.6,243.8c0,0.7-0.6,1.3-1.3,1.3
			c-0.7,0-1.3-0.6-1.3-1.3c0-0.7,0.6-1.3,1.3-1.3C244,242.5,244.6,243.1,244.6,243.8z"/>
	</g>
	<g>
		<path fill="#7877A7" stroke="#000000" stroke-width="0.5" stroke-miterlimit="10" d="M262.6,230c0,0.7-0.6,1.3-1.3,1.3
			c-0.7,0-1.3-0.6-1.3-1.3c0-0.7,0.6-1.3,1.3-1.3C262,228.7,262.6,229.3,262.6,230z"/>
	</g>
	<g>
		<ellipse fill="#7877A7" stroke="#000000" stroke-width="0.5" stroke-miterlimit="10" cx="169.8" cy="209.9" rx="1.3" ry="1.3"/>
	</g>
	<g>
		<path fill="#7877A7" stroke="#000000" stroke-width="0.5" stroke-miterlimit="10" d="M134.9,239.2c0,0.7-0.6,1.3-1.3,1.3
			s-1.3-0.6-1.3-1.3c0-0.7,0.6-1.3,1.3-1.3S134.9,238.5,134.9,239.2z"/>
	</g>
	<g>
		<path fill="#7877A7" stroke="#000000" stroke-width="0.5" stroke-miterlimit="10" d="M133.5,273.7c0,0.7-0.6,1.3-1.3,1.3
			c-0.7,0-1.3-0.6-1.3-1.3c0-0.7,0.6-1.3,1.3-1.3C132.9,272.4,133.5,273,133.5,273.7z"/>
	</g>
	<g>
		<ellipse fill="#7877A7" stroke="#000000" stroke-width="0.5" stroke-miterlimit="10" cx="120.6" cy="281.2" rx="1.3" ry="1.3"/>
	</g>
	<g>
		<path fill="#7877A7" stroke="#000000" stroke-width="0.5" stroke-miterlimit="10" d="M166.5,245.4c0,0.7-0.6,1.3-1.3,1.3
			s-1.3-0.6-1.3-1.3c0-0.7,0.6-1.3,1.3-1.3S166.5,244.7,166.5,245.4z"/>
	</g>
	<g>
		<path fill="#7877A7" stroke="#000000" stroke-width="0.5" stroke-miterlimit="10" d="M185.2,254c0,0.7-0.6,1.3-1.3,1.3
			s-1.3-0.6-1.3-1.3c0-0.7,0.6-1.3,1.3-1.3S185.2,253.3,185.2,254z"/>
	</g>
	<g>
		<path fill="#7877A7" stroke="#000000" stroke-width="0.5" stroke-miterlimit="10" d="M218.7,255.3c0,0.7-0.6,1.3-1.3,1.3
			s-1.3-0.6-1.3-1.3c0-0.7,0.6-1.3,1.3-1.3S218.7,254.6,218.7,255.3z"/>
	</g>
	<g>
		<path fill="#7877A7" stroke="#000000" stroke-width="0.5" stroke-miterlimit="10" d="M227.4,237.9c0,0.7-0.6,1.3-1.3,1.3
			s-1.3-0.6-1.3-1.3c0-0.7,0.6-1.3,1.3-1.3S227.4,237.2,227.4,237.9z"/>
	</g>
	<g>
		<path fill="#7877A7" stroke="#000000" stroke-width="0.5" stroke-miterlimit="10" d="M220.9,299c0,0.7-0.6,1.3-1.3,1.3
			s-1.3-0.6-1.3-1.3c0-0.7,0.6-1.3,1.3-1.3S220.9,298.3,220.9,299z"/>
	</g>
	<g>
		<path fill="#7877A7" stroke="#000000" stroke-width="0.5" stroke-miterlimit="10" d="M220.9,312.6c0,0.7-0.6,1.3-1.3,1.3
			s-1.3-0.6-1.3-1.3c0-0.7,0.6-1.3,1.3-1.3S220.9,311.9,220.9,312.6z"/>
	</g>
	<g>
		<path fill="#7877A7" stroke="#000000" stroke-width="0.5" stroke-miterlimit="10" d="M226,276.4c0,0.7-0.6,1.3-1.3,1.3
			c-0.7,0-1.3-0.6-1.3-1.3s0.6-1.3,1.3-1.3C225.4,275,226,275.6,226,276.4z"/>
	</g>
	<g>
		<path fill="#7877A7" stroke="#000000" stroke-width="0.5" stroke-miterlimit="10" d="M203,265.8c0,0.7-0.6,1.3-1.3,1.3
			c-0.7,0-1.3-0.6-1.3-1.3c0-0.7,0.6-1.3,1.3-1.3C202.4,264.5,203,265.1,203,265.8z"/>
	</g>
	<g>
		<path fill="#7877A7" stroke="#000000" stroke-width="0.5" stroke-miterlimit="10" d="M208.3,282.5c0,0.7-0.6,1.3-1.3,1.3
			c-0.7,0-1.3-0.6-1.3-1.3c0-0.7,0.6-1.3,1.3-1.3C207.7,281.2,208.3,281.8,208.3,282.5z"/>
	</g>
	<g>
		<path fill="#7877A7" stroke="#000000" stroke-width="0.5" stroke-miterlimit="10" d="M182.5,275c0,0.7-0.6,1.3-1.3,1.3
			c-0.7,0-1.3-0.6-1.3-1.3c0-0.7,0.6-1.3,1.3-1.3C181.9,273.7,182.5,274.3,182.5,275z"/>
	</g>
	<g>
		<path fill="#7877A7" stroke="#000000" stroke-width="0.5" stroke-miterlimit="10" d="M176.9,305.8c0,0.7-0.6,1.3-1.3,1.3
			c-0.7,0-1.3-0.6-1.3-1.3c0-0.7,0.6-1.3,1.3-1.3C176.3,304.5,176.9,305.1,176.9,305.8z"/>
	</g>
	<g>
		<path fill="#7877A7" stroke="#000000" stroke-width="0.5" stroke-miterlimit="10" d="M189.5,293.5c0,0.7-0.6,1.3-1.3,1.3
			c-0.7,0-1.3-0.6-1.3-1.3c0-0.7,0.6-1.3,1.3-1.3C188.9,292.2,189.5,292.8,189.5,293.5z"/>
	</g>
	<g>
		<path fill="#7877A7" stroke="#000000" stroke-width="0.5" stroke-miterlimit="10" d="M162.7,310c0,0.7-0.6,1.3-1.3,1.3
			c-0.7,0-1.3-0.6-1.3-1.3c0-0.7,0.6-1.3,1.3-1.3C162.1,308.7,162.7,309.3,162.7,310z"/>
	</g>
	<g>
		<ellipse fill="#7877A7" stroke="#000000" stroke-width="0.5" stroke-miterlimit="10" cx="189.5" cy="317.5" rx="1.3" ry="1.3"/>
	</g>
	<g>
		<path fill="#7877A7" stroke="#000000" stroke-width="0.5" stroke-miterlimit="10" d="M204.2,307.1c0,0.7-0.6,1.3-1.3,1.3
			c-0.7,0-1.3-0.6-1.3-1.3c0-0.7,0.6-1.3,1.3-1.3C203.6,305.8,204.2,306.4,204.2,307.1z"/>
	</g>
	<g>
		<path fill="#7877A7" stroke="#000000" stroke-width="0.5" stroke-miterlimit="10" d="M165.2,265.8c0,0.7-0.6,1.3-1.3,1.3
			c-0.7,0-1.3-0.6-1.3-1.3c0-0.7,0.6-1.3,1.3-1.3C164.6,264.5,165.2,265.1,165.2,265.8z"/>
	</g>
	<g>
		<ellipse fill="#7877A7" stroke="#000000" stroke-width="0.5" stroke-miterlimit="10" cx="164.5" cy="290.9" rx="1.3" ry="1.3"/>
	</g>
	<g>
		<path fill="#7877A7" stroke="#000000" stroke-width="0.5" stroke-miterlimit="10" d="M119.6,259.3c0,0.7-0.6,1.3-1.3,1.3
			c-0.7,0-1.3-0.6-1.3-1.3s0.6-1.3,1.3-1.3C119,258,119.6,258.6,119.6,259.3z"/>
	</g>
	<g>
		<path fill="#7877A7" stroke="#000000" stroke-width="0.5" stroke-miterlimit="10" d="M139.4,258c0,0.7-0.6,1.3-1.3,1.3
			c-0.7,0-1.3-0.6-1.3-1.3c0-0.7,0.6-1.3,1.3-1.3C138.8,256.7,139.4,257.3,139.4,258z"/>
	</g>
	<g>
		<path fill="#7877A7" stroke="#000000" stroke-width="0.5" stroke-miterlimit="10" d="M145.9,217.4c0,0.7-0.6,1.3-1.3,1.3
			s-1.3-0.6-1.3-1.3c0-0.7,0.6-1.3,1.3-1.3S145.9,216.7,145.9,217.4z"/>
	</g>
	<g opacity="0.2">
		<path fill="#7877A7" stroke="#000000" stroke-width="0.5" stroke-miterlimit="10" d="M151.6,254.4c0,0,3.6-7.9,3.4-7.7
			c-0.2,0.1,3.4,29.9,1.8,38.4C156.8,285.2,155.4,267.8,151.6,254.4z"/>
	</g>
	<g opacity="0.2">
		<g>
			<path fill="#7877A7" stroke="#000000" stroke-width="0.5" stroke-miterlimit="10" d="M208,208.9l-8.8,9.2
				c-0.3,4.3,2.5,10.6,5.1,14.1c1.2,1.6,2.7,3.2,4.7,3.3c1.1,0.1,2.1-0.3,3.1-0.6c7.8-2.6,15.6-5.2,23.4-7.9c-0.6-1-1.3-2-1.9-3.1
				c2.9,1.9,6.7,2.4,10.1,1.4c3.4-1,6.2-3.5,7.5-6.7c-8-3.5-13.6-10.9-13.6-19.5l-4.3-2.4L208,208.9z"/>
		</g>
	</g>
	<g opacity="0.2">
		<g>
			<path fill="#7877A7" stroke="#000000" stroke-width="0.5" stroke-miterlimit="10" d="M222.7,270.8c0.2,0.6-10.3,4.9-23.2,10.3
				c-12.9,5.3-23.4,9.6-23.7,9c-0.3-0.6,9.8-5.9,22.8-11.2C211.5,273.5,222.4,270.2,222.7,270.8z"/>
		</g>
	</g>
	<g>
		<g>
			<path fill="#7877A7" stroke="#000000" stroke-width="0.5" stroke-miterlimit="10" d="M277.4,257.9c-0.1,0-1-4.1-2-9.1
				c-1-5.1-1.7-9.2-1.5-9.2c0.1,0,1,4.1,2,9.1C276.9,253.7,277.6,257.9,277.4,257.9z"/>
		</g>
	</g>
	<g>
		<g>
			<path fill="#7877A7" stroke="#000000" stroke-width="0.5" stroke-miterlimit="10" d="M282,256c-0.1,0-0.7-0.8-1.6-2.1
				c-0.9-1.4-2-3.3-3.1-5.6c-1-2.3-1.8-4.4-2.3-5.9c-0.5-1.6-0.7-2.5-0.6-2.6c0.1,0,0.4,0.9,0.9,2.4c0.5,1.5,1.4,3.6,2.4,5.8
				c1,2.2,2.1,4.2,2.9,5.6C281.6,255.1,282.1,256,282,256z"/>
		</g>
	</g>
	<g>
		<g>
			<path fill="#7877A7" stroke="#000000" stroke-width="0.5" stroke-miterlimit="10" d="M155.4,240.6c0,0,0-0.2,0-0.4
				c0-0.3,0-0.8,0.1-1.3c0.1-1.2,0.2-2.8,0.3-4.7c0.2-3.9,0.4-9.5-0.9-15.3c-1.3-5.9-4.3-10.7-7.1-13.5c-2.9-2.8-5.3-3.7-5.2-3.9
				c0,0,0.2,0,0.4,0.2c0.3,0.1,0.7,0.3,1.2,0.6c1,0.5,2.4,1.5,3.8,2.9c3,2.7,6.1,7.6,7.4,13.6c1.3,6,1,11.5,0.8,15.5
				c-0.1,2-0.3,3.6-0.4,4.7c-0.1,0.5-0.1,0.9-0.2,1.3C155.4,240.4,155.4,240.6,155.4,240.6z"/>
		</g>
	</g>
	<g>
		<g>
			<path fill="#7877A7" stroke="#000000" stroke-width="0.5" stroke-miterlimit="10" d="M231.7,224.6c0.1,0,0.3,1.1,0.5,2.9
				c0.2,1.8,0.5,4.3,0.5,7.1c0.1,2.8,0,5.3-0.2,7.2c-0.1,1.8-0.3,3-0.4,2.9c-0.1,0,0-1.1,0-3c0.1-1.8,0.1-4.4,0-7.1
				c-0.1-2.8-0.2-5.3-0.4-7.1C231.7,225.7,231.6,224.6,231.7,224.6z"/>
		</g>
	</g>
</g>
<g>
	<path fill="#263238" d="M179.8,188.8c0.7-9.1,11.5-3.6,10.3-12.6c-2.7-20.4-3.7-40.9-3-61.4"/>
</g>
<g>
	<path fill="#FFBE9D" d="M212.6,189.1l4.2-62.1c-10.7-14.2-25-17.2-42.5-12.2c0,0-7.4,30-6.5,44.4c0.9,15,12.4,18,12.4,18
		s-0.4,5.1-1,11.3c-3,0.5-6.1,1.1-9.3,1.9c-1.3,0.3,23.1,34.5,23.1,34.5l30.4-32C223.3,192.8,219.7,190.7,212.6,189.1z"/>
</g>
<g>
	<g>
		<g>
			<g>
				<g>
					<g>
						<g>
							<g>
								<g>
									<path fill="#263238" d="M174.2,138.3c-0.1,1,0.6,1.9,1.7,2.1c1.1,0.2,2-0.5,2.2-1.5c0.1-1-0.6-1.9-1.7-2.1
										C175.4,136.6,174.4,137.3,174.2,138.3z"/>
								</g>
							</g>
							<g>
								<g>
									<g>
										<path fill="#263238" d="M171.9,136.7c0.2,0.3,1.8-0.7,3.9-0.4c2.1,0.2,3.5,1.4,3.8,1.1c0.1-0.1-0.1-0.6-0.7-1.1
											c-0.6-0.5-1.7-1.1-3-1.2c-1.3-0.1-2.5,0.2-3.1,0.7C172.1,136.1,171.8,136.5,171.9,136.7z"/>
									</g>
								</g>
							</g>
						</g>
						<g>
							<g>
								<g>
									<path fill="#263238" d="M195.7,140.7c-0.1,1,0.6,1.9,1.7,2.1c1.1,0.2,2-0.5,2.2-1.5c0.1-1-0.6-1.9-1.7-2.1
										C196.9,139,195.9,139.7,195.7,140.7z"/>
								</g>
							</g>
							<g>
								<g>
									<g>
										<path fill="#263238" d="M193.4,139c0.2,0.3,1.8-0.7,3.9-0.4c2.1,0.2,3.5,1.4,3.8,1.1c0.1-0.1-0.1-0.6-0.7-1.1
											c-0.6-0.5-1.7-1.1-3-1.2c-1.3-0.1-2.5,0.2-3.1,0.7C193.6,138.5,193.3,138.9,193.4,139z"/>
									</g>
								</g>
							</g>
						</g>
						<g>
							<g>
								<g>
									<path fill="#263238" d="M184,153.1c0-0.1-1.3-0.5-3.4-0.9c-0.5-0.1-1-0.3-1.1-0.6c-0.1-0.4,0.2-0.9,0.5-1.5
										c0.6-1.2,1.3-2.5,2-3.8c2.8-5.4,4.8-9.9,4.6-10.1c-0.2-0.1-2.7,4.2-5.4,9.7c-0.7,1.3-1.3,2.6-1.9,3.9
										c-0.3,0.6-0.7,1.2-0.5,2c0.1,0.4,0.5,0.7,0.8,0.8c0.3,0.1,0.6,0.2,0.9,0.2C182.7,153.1,184,153.2,184,153.1z"/>
								</g>
							</g>
						</g>
						<g>
							<g>
								<path fill="#EB996E" d="M180.1,177.2c0,0,10.2,1.6,20.9-3.3c0,0-6,9.7-21.1,6.9L180.1,177.2z"/>
							</g>
						</g>
						<g>
							<g>
								<path fill="#EB996E" d="M184.4,158.1c0.9-0.9,2.2-1.3,3.5-1c0.9,0.2,1.8,0.7,2.3,1.5c0.5,0.8,0.5,1.8-0.1,2.5
									c-0.6,0.7-1.9,0.8-2.8,0.4c-1-0.4-1.8-1.1-2.5-1.8c-0.2-0.2-0.4-0.4-0.5-0.7C184.1,158.7,184.1,158.4,184.4,158.1"/>
							</g>
						</g>
						<g>
							<g>
								<g>
									<path fill="#263238" d="M190,155.1c-0.3-0.1-0.6,2.2-2.7,3.6c-2.1,1.4-4.5,0.9-4.6,1.2c0,0.1,0.5,0.5,1.5,0.6
										c1,0.1,2.5,0,3.8-0.9c1.3-0.9,1.9-2.1,2.1-3C190.4,155.7,190.2,155.1,190,155.1z"/>
								</g>
							</g>
						</g>
					</g>
				</g>
			</g>
		</g>
	</g>
	<g>
		<g>
			<path fill="#263238" d="M179.1,133.7c-0.1,0.3-1.6,0-3.3,0c-1.8,0-3.2,0.2-3.3-0.1c-0.1-0.3,1.3-1.1,3.3-1.1
				C177.8,132.5,179.2,133.4,179.1,133.7z"/>
		</g>
	</g>
	<g>
		<g>
			<path fill="#263238" d="M200.3,134.5c-0.1,0-0.1-0.2,0-0.4L200.3,134.5c-0.5-0.2-1.7-0.7-3.3-0.8c-2-0.2-3.6,0.4-3.7,0.1
				c-0.1-0.1,0.2-0.5,0.9-0.8c0.7-0.3,1.7-0.6,2.9-0.5c1.8,0.1,3.1,1.1,3.4,1.6l0.1,0.2l-0.1,0.1
				C200.5,134.5,200.3,134.6,200.3,134.5z"/>
		</g>
	</g>
	<g>
		<g>
			<path fill="#EB996E" d="M200.8,147.9c-0.2,0-0.3-0.2-0.4-0.5c0-0.3,0.1-0.5,0.2-0.6c0.2,0,0.3,0.2,0.4,0.5
				C201.1,147.6,201,147.8,200.8,147.9z"/>
		</g>
	</g>
	<g>
		<g>
			<path fill="#EB996E" d="M196,147.7c-0.2,0-0.3-0.3-0.2-0.6c0.1-0.3,0.4-0.4,0.5-0.3c0.1,0.1,0.1,0.3,0,0.5
				C196.3,147.5,196.2,147.7,196,147.7z"/>
		</g>
	</g>
	<g>
		<g>
			<path fill="#EB996E" d="M198.6,149.7c-0.2,0-0.3-0.2-0.3-0.4c0-0.2,0.2-0.4,0.3-0.3c0.2,0,0.3,0.2,0.3,0.4
				C198.9,149.5,198.8,149.7,198.6,149.7z"/>
		</g>
	</g>
	<g>
		<g>
			<path fill="#EB996E" d="M171.1,146.7c-0.2,0-0.3-0.3-0.2-0.6c0-0.3,0.2-0.5,0.4-0.5c0.2,0,0.3,0.3,0.2,0.6
				C171.4,146.5,171.2,146.8,171.1,146.7z"/>
		</g>
	</g>
	<g>
		<g>
			<path fill="#EB996E" d="M175.9,146.8c-0.2,0-0.3-0.2-0.3-0.4c0-0.2,0.2-0.4,0.3-0.4c0.2,0,0.3,0.2,0.3,0.4
				C176.2,146.7,176.1,146.8,175.9,146.8z"/>
		</g>
	</g>
	<g>
		<g>
			<path fill="#EB996E" d="M173.6,148.3c-0.2,0-0.3-0.2-0.3-0.5c0-0.3,0.1-0.5,0.3-0.5c0.2,0,0.3,0.2,0.3,0.5
				C173.9,148.1,173.7,148.3,173.6,148.3z"/>
		</g>
	</g>
</g>
<g>
	<g>
		<path fill="#351A03" d="M188.9,107.6c-0.6,7.1-3.7,14-8.6,19.3c-4.9,5.3-10.5,9.9-17.7,11.2c2-6.1,2.4-10.9,4-16
			c1.6-5,3.8-10.1,7.9-13.6c5.1-4.4,12.8-5.6,19-3"/>
	</g>
	<g>
		<g>
			<path fill="#351A03" d="M164.1,132.4c0-0.1,1.8,0.2,4.6-0.6c1.4-0.4,2.9-1.1,4.5-2.2c1.6-1,3.1-2.4,4.7-3.9
				c3.1-3,5.3-6.3,6.9-8.7c0.7-1.1,1.3-2.1,1.8-2.8c0.4-0.7,0.7-1,0.7-1c0,0-0.2,0.4-0.5,1.1c-0.4,0.7-0.9,1.7-1.7,2.9
				c-1.5,2.4-3.7,5.7-6.8,8.8c-1.6,1.5-3.2,2.9-4.8,3.9c-1.6,1.1-3.2,1.8-4.7,2.1c-1.4,0.3-2.6,0.4-3.4,0.4
				C164.5,132.5,164.1,132.4,164.1,132.4z"/>
		</g>
	</g>
	<g>
		<g>
			<path fill="#351A03" d="M168.8,133.1c0,0-0.1,0.2-0.4,0.6c-0.3,0.4-0.7,0.9-1.2,1.6c-1,1.4-2.2,3.7-2.9,6.7
				c-0.3,1.5-0.6,3.2-0.5,5c0.1,1.8,0.5,3.7,0.9,5.7c0.4,2,0.9,4.1,1,6.4c0.1,2.3-0.4,4.7-1.5,6.8c-1.1,2.2-2.6,4.1-4.5,5.4
				c-1.9,1.4-3.9,2.3-5.5,3.6c-1.6,1.3-2.7,3-2.7,4.8c0,1.8,0.9,3.3,1.6,4.7c0.8,1.3,1.6,2.6,2,3.8c0.4,1.2,0.6,2.3,0.5,3.2
				c-0.1,0.9-0.4,1.5-0.6,1.9c-0.3,0.4-0.5,0.5-0.5,0.5c0,0,0.1-0.2,0.4-0.6c0.2-0.4,0.5-1,0.5-1.9c0.1-0.9-0.1-1.9-0.6-3.1
				c-0.4-1.2-1.2-2.3-2-3.7c-0.8-1.3-1.7-2.9-1.7-4.8c0-1,0.3-1.9,0.8-2.8c0.5-0.9,1.2-1.7,2-2.3c1.6-1.4,3.7-2.3,5.5-3.6
				c1.8-1.3,3.3-3.2,4.4-5.3c1-2.1,1.5-4.4,1.5-6.6c-0.1-2.2-0.5-4.3-1-6.3c-0.4-2-0.8-4-0.9-5.8c-0.1-1.9,0.2-3.6,0.5-5.1
				c0.7-3.1,2.1-5.3,3.1-6.7c0.5-0.7,1-1.2,1.3-1.6C168.6,133.2,168.8,133.1,168.8,133.1z"/>
		</g>
	</g>
	<g>
		<g>
			<path fill="#351A03" d="M151.5,164.5c0,0,0.1,0.3,0.4,0.7c0.3,0.4,0.8,1,1.8,1.5c0.9,0.4,2.2,0.7,3.6,0.5
				c1.4-0.2,2.9-1.2,3.9-2.7c0.9-1.5,1.4-3.5,1.1-5.6c-0.3-2.1-1.3-4.2-2.6-6.1c-1.3-2-3.2-3.8-4.6-6c-0.7-1.1-1.3-2.4-1.5-3.8
				c-0.2-1.4-0.2-2.8,0.2-4.2c0.8-2.8,2.9-4.9,5.3-6.2c1.2-0.6,2.6-0.9,3.8-1.2c1.3-0.3,2.5-0.5,3.7-0.8c4.8-1.2,8.2-4.2,11-6.4
				c2.8-2.4,4.8-4.6,5.9-6.3c1.1-1.7,1.4-2.8,1.5-2.8c0,0-0.1,0.3-0.2,0.8c-0.2,0.5-0.5,1.2-1.1,2.1c-1.1,1.7-3,4-5.8,6.4
				c-1.4,1.2-3,2.5-4.8,3.7c-1.8,1.3-4,2.3-6.4,2.9c-1.2,0.3-2.4,0.6-3.7,0.9c-1.3,0.3-2.5,0.5-3.7,1.1c-2.3,1.2-4.3,3.3-5.1,5.9
				c-0.4,1.3-0.4,2.7-0.2,3.9c0.2,1.3,0.8,2.5,1.5,3.6c1.4,2.2,3.2,4,4.6,6c1.4,2,2.4,4.2,2.7,6.3c0.3,2.2-0.2,4.2-1.2,5.8
				c-1,1.6-2.6,2.6-4.1,2.8c-1.5,0.2-2.8-0.1-3.8-0.6c-0.9-0.5-1.5-1.1-1.7-1.6C151.5,164.8,151.5,164.5,151.5,164.5z"/>
		</g>
	</g>
</g>
<g>
	<g>
		<g>
			<path fill="#351A03" d="M241.9,201.3c-0.1,0,0.9-0.9,1.9-2.9c0.5-1,1-2.3,1.2-3.8c0.3-1.5,0.3-3.3-0.1-5.2
				c-0.4-1.9-1.3-3.9-2.7-5.7c-1.5-1.8-3.5-3.4-5.5-5c-2.1-1.6-4.3-3.5-5.9-5.9c-0.8-1.2-1.4-2.6-1.6-4.1c-0.2-1.5,0-3.1,0.6-4.5
				c1.2-2.9,3.3-5.1,4.4-7.7c0.6-1.3,0.8-2.6,0.6-4c-0.2-1.3-0.8-2.5-1.5-3.5c-1.6-2.1-3.7-3.5-5.7-4.7c-2-1.2-3.9-2.4-5.4-3.8
				c-1.5-1.4-2.5-2.9-3.1-4.4c-0.6-1.5-0.7-2.9-0.5-4c0.1-0.6,0.2-1,0.4-1.4c0.2-0.4,0.3-0.7,0.5-1c0.1-0.2,0.3-0.4,0.3-0.6
				c0.1-0.1,0.1-0.2,0.1-0.2c0,0,0,0.1-0.1,0.2c-0.1,0.2-0.2,0.4-0.3,0.6c-0.1,0.3-0.2,0.6-0.4,1c-0.1,0.4-0.3,0.9-0.3,1.4
				c-0.1,1.1,0,2.4,0.6,3.9c0.6,1.4,1.6,2.9,3.1,4.3c1.4,1.4,3.3,2.5,5.4,3.7c2,1.2,4.2,2.6,5.9,4.8c0.8,1.1,1.4,2.3,1.6,3.7
				c0.2,1.4-0.1,2.9-0.7,4.2c-1.2,2.7-3.2,4.9-4.4,7.7c-0.6,1.4-0.8,2.8-0.6,4.2c0.2,1.4,0.8,2.7,1.6,3.9c1.5,2.4,3.7,4.2,5.7,5.8
				c2.1,1.6,4.1,3.2,5.6,5.1c1.5,1.8,2.4,3.9,2.8,5.9c0.4,2,0.3,3.8,0,5.3c-0.3,1.6-0.8,2.8-1.3,3.8c-0.5,1-1,1.7-1.4,2.1
				c-0.2,0.2-0.3,0.4-0.4,0.5C242,201.3,241.9,201.3,241.9,201.3z"/>
		</g>
	</g>
	<g>
		<g>
			<path fill="#351A03" d="M234.1,198.9c-0.8-6.8-2.2-9.6-2.1-16.5c0-6.3-5.9-14.6-2.2-22c-1.2-4.6-3.1-9.1-5.1-13.5
				c-1.2-2.7-5.7-11-6.9-13.7c0.7-5.1,4.5-4.7,3.8-9.8c-0.9-6.1-3.8-12.2-9.2-15.5c-3.3-2.1-7.3-2.9-11.3-3.3
				c-2.7-0.3-5.6-0.3-8.2,0.4c-2.7,0.7-5.2,2.2-6.6,4.6l1.4-1.3c-1.3,5.7,0.8,11.8,4.6,16.2c3.9,4.4,9.4,7.3,15.2,8.7
				c-0.1,1.9,0.4,3.8,1.3,5.5l-0.1,0.2c0.1,0.1,0.2,0.1,0.3,0.2c0.4,0.6,0.8,1.2,1.3,1.8c0.6,0.7,1.4,1.4,2.2,1.9
				c1.1,2.3,1.2,5.1,0,7.4c-1.5,2.6-4.4,4.5-5,7.5c-0.7,3.3,1.9,6.5,1.9,9.8c0,1.8-0.8,3.4-1.7,5c-6.3,7.8-5.2,15.9-1.6,25.3
				c1.3,3.5,3.4,7.1,2.3,10.6c-1,3.4-4.4,5.6-5.5,8.9c-1.5,4.6,2,9.2,5.3,12.9c7-3,14.3-5.4,21.8-7c-0.8-3-1.1-6.2-1.1-9.3
				c0.6,3.3,3.6,6.1,7,6.6c3.4,0.5,7.1-1.3,8.7-4.3C238.1,212.7,234.9,205.7,234.1,198.9z"/>
		</g>
		<g>
			<g>
				<path fill="#351A03" d="M224.1,126.2c0,0-0.1,0.1-0.3,0.3c-0.2,0.2-0.6,0.5-1.1,0.9c-0.9,0.7-2.4,1.7-4.4,2.5
					c-2,0.9-4.5,1.6-7.3,1.8c-2.9,0.2-6.1-0.1-9.2-1.2c-3.1-1.1-5.8-2.9-7.8-4.9c-2-2-3.5-4.1-4.4-6c-1-1.9-1.5-3.5-1.8-4.6
					c-0.2-0.6-0.2-1-0.3-1.3c-0.1-0.3-0.1-0.5-0.1-0.5c0,0,0.2,0.6,0.5,1.7c0.3,1.1,0.9,2.7,1.9,4.5c1,1.8,2.4,3.9,4.4,5.8
					c2,1.9,4.6,3.6,7.6,4.7c3.1,1.1,6.2,1.4,9,1.2c2.8-0.2,5.3-0.9,7.2-1.7C222.1,127.9,224,126,224.1,126.2z"/>
			</g>
		</g>
		<g>
			<g>
				<path fill="#351A03" d="M223,118.6c0,0-0.4,0.2-1.1,0.3c-0.7,0.2-1.8,0.4-3.1,0.5c-2.6,0.2-6.4,0-10.3-1.4
					c-3.8-1.4-6.8-3.7-8.6-5.7c-0.9-1-1.6-1.8-2-2.4c-0.4-0.6-0.6-1-0.6-1c0.1-0.1,1,1.3,2.8,3.1c1.8,1.8,4.8,4,8.5,5.4
					c3.7,1.4,7.4,1.7,10.1,1.5C221.4,118.9,223,118.5,223,118.6z"/>
			</g>
		</g>
		<g>
			<g>
				<path fill="#351A03" d="M224.1,122c0.1,0-1.2,1.9-3.6,3.1c-2.5,1.2-4.8,1.1-4.7,1c0-0.2,2.2-0.3,4.5-1.4
					C222.6,123.5,224,121.9,224.1,122z"/>
			</g>
		</g>
		<g>
			<g>
				<path fill="#351A03" d="M222.3,224.8c0,0-0.1-0.4-0.3-1.1c-0.2-0.7-0.6-1.7-1.7-2.6c-0.5-0.4-1.2-0.8-1.9-1.4
					c-0.7-0.6-1.2-1.3-1.7-2.2c-0.2-0.5-0.4-0.9-0.5-1.5c-0.2-0.5-0.2-1-0.3-1.6c-0.1-1.1,0.2-2.4,0.9-3.4c0.7-1.1,1.8-1.9,3.1-2.5
					c1.2-0.6,2.3-1.5,2.9-2.8c0.3-0.6,0.4-1.3,0.4-2.1c0-0.7-0.2-1.4-0.5-2.1c-0.6-1.4-1.5-2.7-2.4-4.1c-1.8-2.8-2.7-6.3-2.5-9.9
					c0.2-3.6,1.7-7.2,4.3-10c1.2-1.4,2.4-3,2.3-4.8c0-1.8-0.9-3.4-2-4.8c-1-1.4-2.3-2.7-3.3-4.1c-1-1.4-1.7-3.1-1.6-4.8
					c0.1-1.7,1.2-3.1,2.1-4.3c1-1.2,2-2.3,2.5-3.7c1.1-2.6,1-5.5-0.2-7.6c-0.6-1-1.5-1.8-2.4-2.5c-0.9-0.7-1.8-1.2-2.6-1.8
					c-0.8-0.6-1.6-1.2-2.1-1.9c-0.5-0.7-0.9-1.4-1.1-2c-0.5-1.3-0.5-2.4-0.3-3.1c0.2-0.7,0.5-1,0.5-1c0,0-0.2,0.3-0.4,1
					c-0.2,0.7-0.1,1.8,0.4,3.1c0.2,0.6,0.6,1.3,1.1,2c0.5,0.7,1.2,1.2,2,1.8c0.8,0.6,1.7,1.1,2.7,1.8c0.9,0.7,1.9,1.5,2.5,2.6
					c1.3,2.2,1.5,5.2,0.3,7.9c-0.6,1.4-1.6,2.6-2.6,3.8c-1,1.2-1.9,2.5-2,4.1c-0.1,1.6,0.6,3.1,1.5,4.5c0.9,1.4,2.2,2.6,3.3,4.1
					c1.1,1.4,2.1,3.1,2.1,5.1c0,1-0.3,1.9-0.8,2.7c-0.5,0.8-1.1,1.6-1.7,2.3c-2.6,2.8-4,6.3-4.2,9.8c-0.2,3.5,0.6,6.9,2.4,9.6
					c0.9,1.4,1.8,2.7,2.4,4.2c0.3,0.7,0.5,1.5,0.6,2.3c0,0.8-0.2,1.5-0.5,2.2c-0.6,1.4-1.8,2.4-3.1,3c-1.2,0.6-2.3,1.4-2.9,2.4
					c-0.7,1-1,2.1-0.9,3.2c0.1,1.1,0.4,2.1,0.7,3c0.4,0.9,0.9,1.6,1.6,2.2c0.6,0.6,1.3,1,1.8,1.4c1.1,0.9,1.5,2,1.7,2.7
					c0.1,0.3,0.1,0.6,0.2,0.8C222.3,224.7,222.3,224.8,222.3,224.8z"/>
			</g>
		</g>
		<g>
			<g>
				<path fill="#351A03" d="M224.2,124.4c0,0-0.1,0.1-0.3,0.4c-0.2,0.3-0.5,0.6-0.9,1c-0.9,0.9-2.3,2-4.2,3c-2,1-4.6,1.7-7.5,1.8
					c-2.9,0-6.2-0.6-9.2-2.1c-1.5-0.8-2.9-1.7-3.9-2.9c-1.1-1.2-1.9-2.5-2.5-3.8c-1.2-2.6-1.9-5.1-2.7-7c-0.8-2-1.7-3.5-2.4-4.4
					c-0.7-1-1.3-1.4-1.2-1.4c0,0,0.1,0.1,0.4,0.3c0.3,0.2,0.6,0.5,1,1c0.8,0.9,1.7,2.4,2.6,4.4c0.9,2,1.6,4.4,2.8,7
					c0.6,1.3,1.4,2.5,2.4,3.6c1,1.1,2.4,2.1,3.8,2.8c2.9,1.5,6.1,2,9,2.1c2.9,0,5.4-0.7,7.4-1.6c2-0.9,3.4-2,4.3-2.8
					C223.8,124.9,224.2,124.3,224.2,124.4z"/>
			</g>
		</g>
	</g>
</g>
<g>
	<g>
		<g>
			<g>
				<path fill="#455A64" d="M101,328.7c0,0.2-4.1,0.3-9.1,0.3c-5,0-9.1-0.1-9.1-0.3s4.1-0.3,9.1-0.3C97,328.4,101,328.5,101,328.7z"
					/>
			</g>
		</g>
		<g>
			<g>
				<path fill="#455A64" d="M110.7,300.6c0.2,0,0.3,4.7,0.3,10.5c0,5.8-0.1,10.5-0.3,10.5c-0.2,0-0.3-4.7-0.3-10.5
					C110.4,305.3,110.5,300.6,110.7,300.6z"/>
			</g>
		</g>
	</g>
	<g>
		<g>
			<g>
				<path fill="#455A64" d="M121,328c0-0.2,4.1-0.3,9.1-0.3c5,0,9.1,0.1,9.1,0.3c0,0.2-4.1,0.3-9.1,0.3C125,328.3,121,328.2,121,328
					z"/>
			</g>
		</g>
		<g>
			<g>
				<path fill="#455A64" d="M111.3,356.1c-0.2,0-0.3-4.7-0.3-10.5c0-5.8,0.1-10.5,0.3-10.5c0.2,0,0.3,4.7,0.3,10.5
					C111.6,351.4,111.5,356.1,111.3,356.1z"/>
			</g>
		</g>
	</g>
	<g>
		<g>
			<path fill="#455A64" d="M126,344c-0.1,0.1-1.7-1.8-3.5-4.2c-1.8-2.4-3.1-4.5-3-4.6c0.1-0.1,1.7,1.8,3.5,4.2
				C124.8,341.9,126.1,343.9,126,344z"/>
		</g>
	</g>
	<g>
		<g>
			<path fill="#455A64" d="M125.2,312.2c0.1,0.1-1.3,1.9-3.1,4c-1.9,2.1-3.5,3.8-3.6,3.6c-0.1-0.1,1.3-1.9,3.1-4
				C123.4,313.7,125,312.1,125.2,312.2z"/>
		</g>
	</g>
	<g>
		<g>
			<path fill="#455A64" d="M104.3,320.3c-0.1,0.1-1.6-1.1-3.4-2.8c-1.8-1.7-3.1-3.1-3-3.2c0.1-0.1,1.6,1.1,3.4,2.8
				C103.1,318.7,104.5,320.2,104.3,320.3z"/>
		</g>
	</g>
	<g>
		<g>
			<path fill="#455A64" d="M103.5,334.3c0.1,0.1-1.1,1.9-2.8,4c-1.7,2.1-3.2,3.7-3.3,3.6c-0.1-0.1,1.1-1.9,2.8-4
				C101.9,335.8,103.4,334.2,103.5,334.3z"/>
		</g>
	</g>
</g>
<g>
	<g>
		<g>
			<g>
				<path fill="#455A64" d="M424.8,175.9c0,0.2-1.5,0.3-3.4,0.3c-1.9,0-3.4-0.1-3.4-0.3c0-0.2,1.5-0.3,3.4-0.3
					C423.3,175.6,424.8,175.8,424.8,175.9z"/>
			</g>
		</g>
		<g>
			<g>
				<path fill="#455A64" d="M428.4,165.4c0.2,0,0.3,1.8,0.3,3.9c0,2.2-0.1,3.9-0.3,3.9s-0.3-1.8-0.3-3.9
					C428.1,167.2,428.3,165.4,428.4,165.4z"/>
			</g>
		</g>
	</g>
	<g>
		<g>
			<g>
				<path fill="#455A64" d="M432.3,175.7c0-0.2,1.5-0.3,3.4-0.3c1.9,0,3.4,0.1,3.4,0.3c0,0.2-1.5,0.3-3.4,0.3
					C433.8,176,432.3,175.9,432.3,175.7z"/>
			</g>
		</g>
		<g>
			<g>
				<path fill="#455A64" d="M428.7,186.2c-0.2,0-0.3-1.8-0.3-3.9c0-2.2,0.1-3.9,0.3-3.9c0.2,0,0.3,1.8,0.3,3.9
					C429,184.4,428.8,186.2,428.7,186.2z"/>
			</g>
		</g>
	</g>
	<g>
		<g>
			<path fill="#455A64" d="M434.2,181.7c-0.1,0.1-0.8-0.6-1.5-1.5c-0.7-0.9-1.1-1.7-1-1.8c0.1-0.1,0.8,0.6,1.5,1.5
				C433.9,180.8,434.3,181.6,434.2,181.7z"/>
		</g>
	</g>
	<g>
		<g>
			<path fill="#455A64" d="M433.9,169.8c0.1,0.1-0.3,0.8-1,1.6c-0.7,0.8-1.4,1.4-1.5,1.2c-0.1-0.1,0.3-0.8,1-1.6
				C433.1,170.2,433.7,169.7,433.9,169.8z"/>
		</g>
	</g>
	<g>
		<g>
			<path fill="#455A64" d="M426.1,172.8c-0.1,0.1-0.7-0.3-1.4-0.9c-0.7-0.6-1.1-1.2-1-1.3c0.1-0.1,0.7,0.3,1.4,0.9
				C425.7,172.1,426.2,172.7,426.1,172.8z"/>
		</g>
	</g>
	<g>
		<g>
			<path fill="#455A64" d="M425.8,178.1c0.1,0.1-0.3,0.8-0.9,1.6c-0.6,0.8-1.2,1.3-1.4,1.2c-0.1-0.1,0.3-0.8,0.9-1.6
				C425,178.5,425.6,178,425.8,178.1z"/>
		</g>
	</g>
</g>
<g>
	<g>
		<g>
			<g>
				<path fill="#455A64" d="M433.7,354.2c0,0.3-2.9,0.5-6.4,0.5c-3.6,0-6.4-0.2-6.4-0.5c0-0.3,2.9-0.5,6.4-0.5
					C430.8,353.7,433.7,353.9,433.7,354.2z"/>
			</g>
		</g>
		<g>
			<g>
				<path fill="#455A64" d="M440.5,335.2c0.3,0,0.6,3.2,0.6,7.1c0,3.9-0.3,7.1-0.6,7.1c-0.3,0-0.6-3.2-0.6-7.1
					C439.9,338.4,440.2,335.2,440.5,335.2z"/>
			</g>
		</g>
	</g>
	<g>
		<g>
			<g>
				<path fill="#455A64" d="M447.8,353.7c0-0.3,2.9-0.5,6.4-0.5c3.6,0,6.4,0.2,6.4,0.5s-2.9,0.5-6.4,0.5
					C450.7,354.3,447.8,354,447.8,353.7z"/>
			</g>
		</g>
		<g>
			<g>
				<path fill="#455A64" d="M440.9,372.7c-0.3,0-0.6-3.2-0.6-7.1c0-3.9,0.3-7.1,0.6-7.1s0.6,3.2,0.6,7.1
					C441.5,369.6,441.3,372.7,440.9,372.7z"/>
			</g>
		</g>
	</g>
	<g>
		<g>
			<path fill="#455A64" d="M451.3,364.6c-0.3,0.2-1.5-1-2.8-2.7c-1.3-1.6-2.1-3.1-1.8-3.3c0.3-0.2,1.5,1,2.8,2.7
				C450.8,362.9,451.6,364.4,451.3,364.6z"/>
		</g>
	</g>
	<g>
		<g>
			<path fill="#455A64" d="M450.7,343c0.2,0.2-0.6,1.5-1.9,2.9c-1.3,1.4-2.6,2.4-2.8,2.3c-0.2-0.2,0.6-1.5,1.9-2.9
				C449.2,343.9,450.5,342.9,450.7,343z"/>
		</g>
	</g>
	<g>
		<g>
			<path fill="#455A64" d="M436,348.5c-0.2,0.2-1.4-0.5-2.7-1.7c-1.2-1.1-2.1-2.2-1.9-2.4c0.2-0.2,1.4,0.5,2.7,1.7
				C435.4,347.2,436.2,348.3,436,348.5z"/>
		</g>
	</g>
	<g>
		<g>
			<path fill="#455A64" d="M435.4,358c0.3,0.2-0.5,1.5-1.7,2.9c-1.2,1.4-2.4,2.4-2.6,2.2c-0.3-0.2,0.5-1.5,1.7-2.9
				C434,358.8,435.2,357.8,435.4,358z"/>
		</g>
	</g>
</g>
<g>
	<path fill="#455A64" d="M328.5,110.9l0.4,0.8c0.6,1.5,1.8,2.6,3.3,3.2l0.9,0.4l-0.9,0.4c-1.5,0.6-2.7,1.8-3.4,3.3l-0.3,0.6
		l-0.4-0.8c-0.7-1.4-1.9-2.5-3.4-3l-0.8-0.3l1.1-0.5c1.3-0.6,2.4-1.7,3-3L328.5,110.9z"/>
</g>
<g>
	<path fill="#455A64" d="M134.2,0l0.3,0.8c0.6,1.4,1.7,2.5,3.2,3.1l0.9,0.4l-0.9,0.3c-1.5,0.6-2.6,1.7-3.2,3.1l-0.2,0.6l-0.4-0.7
		c-0.7-1.3-1.8-2.4-3.2-2.9l-0.8-0.3l1-0.5c1.3-0.6,2.3-1.6,2.8-2.9L134.2,0z"/>
</g>
<g>
	<path fill="#455A64" d="M399.5,369.1l0.5,1.1c0.9,2,2.5,3.6,4.6,4.4l1.3,0.5l-1.2,0.5c-2.1,0.8-3.7,2.4-4.6,4.5l-0.3,0.8l-0.5-1
		c-0.9-1.9-2.6-3.4-4.7-4.1l-1.1-0.4l1.5-0.7c1.8-0.9,3.3-2.3,4.1-4.2L399.5,369.1z"/>
</g>
<g>
	<g>
		<g>
			<g>
				<path fill="#455A64" d="M334.8,34.8c0,0.2-3,0.3-6.8,0.3c-3.7,0-6.8-0.1-6.8-0.3c0-0.2,3-0.3,6.8-0.3
					C331.8,34.5,334.8,34.7,334.8,34.8z"/>
			</g>
		</g>
		<g>
			<g>
				<path fill="#455A64" d="M342,16.9c0.2,0,0.3,3,0.3,6.7c0,3.7-0.1,6.7-0.3,6.7c-0.2,0-0.3-3-0.3-6.7
					C341.7,19.9,341.8,16.9,342,16.9z"/>
			</g>
		</g>
	</g>
	<g>
		<g>
			<g>
				<path fill="#455A64" d="M349.6,34.4c0-0.2,3-0.3,6.8-0.3c3.7,0,6.8,0.1,6.8,0.3c0,0.2-3,0.3-6.8,0.3
					C352.6,34.7,349.6,34.6,349.6,34.4z"/>
			</g>
		</g>
		<g>
			<g>
				<path fill="#455A64" d="M342.4,52.3c-0.2,0-0.3-3-0.3-6.7c0-3.7,0.1-6.7,0.3-6.7c0.2,0,0.3,3,0.3,6.7
					C342.7,49.3,342.6,52.3,342.4,52.3z"/>
			</g>
		</g>
	</g>
	<g>
		<g>
			<path fill="#455A64" d="M353.4,44.6c-0.1,0.1-1.3-1.1-2.6-2.6c-1.3-1.5-2.3-2.9-2.2-3c0.1-0.1,1.3,1.1,2.6,2.6
				C352.5,43.2,353.5,44.5,353.4,44.6z"/>
		</g>
	</g>
	<g>
		<g>
			<path fill="#455A64" d="M352.7,24.3c0.1,0.1-0.9,1.3-2.3,2.7c-1.4,1.4-2.6,2.4-2.7,2.2c-0.1-0.1,0.9-1.3,2.3-2.7
				C351.4,25.2,352.6,24.2,352.7,24.3z"/>
		</g>
	</g>
	<g>
		<g>
			<path fill="#455A64" d="M337.2,29.5c-0.1,0.1-1.3-0.6-2.6-1.7c-1.3-1.1-2.3-2-2.2-2.2c0.1-0.1,1.3,0.6,2.6,1.7
				C336.4,28.4,337.3,29.4,337.2,29.5z"/>
		</g>
	</g>
	<g>
		<g>
			<path fill="#455A64" d="M336.6,38.4c0.1,0.1-0.8,1.3-2,2.6c-1.3,1.3-2.4,2.3-2.5,2.2c-0.1-0.1,0.8-1.3,2-2.6
				C335.4,39.3,336.5,38.3,336.6,38.4z"/>
		</g>
	</g>
</g>
<g>
	<g>
		<g>
			<g>
				<path fill="#455A64" d="M57.5,29.4c0,0.2-3,0.3-6.8,0.3c-3.7,0-6.8-0.1-6.8-0.3c0-0.2,3-0.3,6.8-0.3
					C54.5,29.1,57.5,29.3,57.5,29.4z"/>
			</g>
		</g>
		<g>
			<g>
				<path fill="#455A64" d="M64.7,11.6c0.2,0,0.3,3,0.3,6.7c0,3.7-0.1,6.7-0.3,6.7c-0.2,0-0.3-3-0.3-6.7
					C64.4,14.6,64.5,11.6,64.7,11.6z"/>
			</g>
		</g>
	</g>
	<g>
		<g>
			<g>
				<path fill="#455A64" d="M72.3,29c0-0.2,3-0.3,6.8-0.3c3.7,0,6.8,0.1,6.8,0.3c0,0.2-3,0.3-6.8,0.3C75.4,29.3,72.3,29.2,72.3,29z"
					/>
			</g>
		</g>
		<g>
			<g>
				<path fill="#455A64" d="M65.2,46.9c-0.2,0-0.3-3-0.3-6.7c0-3.7,0.1-6.7,0.3-6.7c0.2,0,0.3,3,0.3,6.7
					C65.5,43.9,65.3,46.9,65.2,46.9z"/>
			</g>
		</g>
	</g>
	<g>
		<g>
			<path fill="#455A64" d="M76.1,39.2c-0.1,0.1-1.3-1.1-2.6-2.6c-1.3-1.5-2.3-2.9-2.2-3c0.1-0.1,1.3,1.1,2.6,2.6
				C75.3,37.8,76.2,39.1,76.1,39.2z"/>
		</g>
	</g>
	<g>
		<g>
			<path fill="#455A64" d="M75.5,19c0.1,0.1-0.9,1.3-2.3,2.7c-1.4,1.4-2.6,2.4-2.7,2.2c-0.1-0.1,0.9-1.3,2.3-2.7
				C74.1,19.8,75.3,18.8,75.5,19z"/>
		</g>
	</g>
	<g>
		<g>
			<path fill="#455A64" d="M60,24.1c-0.1,0.1-1.3-0.6-2.6-1.7c-1.3-1.1-2.3-2-2.2-2.2c0.1-0.1,1.3,0.6,2.6,1.7
				C59.1,23,60.1,24,60,24.1z"/>
		</g>
	</g>
	<g>
		<g>
			<path fill="#455A64" d="M59.4,33.1c0.1,0.1-0.8,1.3-2,2.6C56.1,37,55,38,54.8,37.9c-0.1-0.1,0.8-1.3,2-2.6
				C58.1,33.9,59.2,32.9,59.4,33.1z"/>
		</g>
	</g>
</g>
</svg>
