<?xml version="1.0" encoding="iso-8859-1"?>
<!-- Generator: Adobe Illustrator 24.1.2, SVG Export Plug-In . SVG Version: 6.00 Build 0)  -->
<svg version="1.1" id="&#x421;&#x43B;&#x43E;&#x439;_1"
	 xmlns="http://www.w3.org/2000/svg" xmlns:xlink="http://www.w3.org/1999/xlink" x="0px" y="0px" viewBox="0 0 500 500"
	 enable-background="new 0 0 500 500" xml:space="preserve">
<g>
	<g>
		<g>
			<g>
				<g>
					<g>
						
							<rect x="173" y="384" transform="matrix(6.123234e-17 -1 1 6.123234e-17 -234.1451 587.3752)" fill="#E0E0E0" width="7.2" height="53.5"/>
					</g>
				</g>
			</g>
		</g>
		<g>
			<g>
				<g>
					<g>
						<g>
							<path fill="#FAFAFA" d="M157.2,407.5c0.2,0,0.3,1.5,0.3,3.4c0,1.9-0.2,3.4-0.3,3.4c-0.2,0-0.3-1.5-0.3-3.4
								C156.8,409,157,407.5,157.2,407.5z"/>
						</g>
					</g>
				</g>
			</g>
		</g>
		<g>
			<g>
				<g>
					<g>
						<g>
							<path fill="#FAFAFA" d="M156,407.3c0.2,0,0.3,1.5,0.3,3.4c0,1.9-0.2,3.4-0.3,3.4c-0.2,0-0.3-1.5-0.3-3.4
								C155.7,408.8,155.8,407.3,156,407.3z"/>
						</g>
					</g>
				</g>
			</g>
		</g>
		<g>
			<g>
				<g>
					<g>
						<g>
							<path fill="#FAFAFA" d="M199.2,407.5c0.2,0,0.3,1.5,0.3,3.4c0,1.9-0.2,3.4-0.3,3.4c-0.2,0-0.3-1.5-0.3-3.4
								C198.9,409,199,407.5,199.2,407.5z"/>
						</g>
					</g>
				</g>
			</g>
		</g>
		<g>
			<g>
				<g>
					<g>
						<g>
							<path fill="#FAFAFA" d="M198.1,407.3c0.2,0,0.3,1.5,0.3,3.4c0,1.9-0.2,3.4-0.3,3.4c-0.2,0-0.3-1.5-0.3-3.4
								C197.7,408.8,197.9,407.3,198.1,407.3z"/>
						</g>
					</g>
				</g>
			</g>
		</g>
		<g>
			<g>
				<g>
					<g>
						<g>
							<path fill="#FAFAFA" d="M191.1,411c0,0.2-6.1,0.3-13.7,0.3c-7.6,0-13.7-0.2-13.7-0.3c0-0.2,6.1-0.3,13.7-0.3
								C184.9,410.6,191.1,410.8,191.1,411z"/>
						</g>
					</g>
				</g>
			</g>
		</g>
	</g>
	<g>
		<g>
			<g>
				<g>
					<g>
						
							<rect x="169.2" y="420" transform="matrix(6.123234e-17 -1 1 6.123234e-17 -270.3362 623.1033)" fill="#E0E0E0" width="14.4" height="53.5"/>
					</g>
				</g>
			</g>
		</g>
		<g>
			<g>
				<g>
					<g>
						<g>
							<path fill="#FAFAFA" d="M203.8,449.9c0,0-0.1,0.1-0.3,0.2c-0.2,0.1-0.5,0.2-0.9,0.4c-0.8,0.3-2,0.8-3.6,1
								c-1.6,0.2-3.8,0.3-5.9-0.8c-1-0.6-2-1.4-2.8-2.5c-0.7-1.1-1.2-2.6-1-4.1c0.1-0.8,0.4-1.5,1-2.1c0.5-0.6,1.4-1.1,2.3-1
								c0.9,0,1.7,0.6,2.3,1.2c0.6,0.7,1,1.5,1,2.5c0.2,1.8-0.6,3.7-1.8,5.1c-1.3,1.4-3.2,2.3-5.1,2.5c-2,0.2-4-0.1-6-0.7
								c-1.9-0.7-3.9-1.8-5.2-3.5c-0.7-0.9-1.1-2-1.2-3.1c-0.1-1.1,0.3-2.4,1.1-3.2c0.4-0.4,1-0.7,1.7-0.7c0.6,0,1.2,0.2,1.7,0.5
								c1,0.6,1.7,1.7,2,2.9c0.5,2.4-0.4,4.8-2.1,6.3c-1.7,1.5-3.9,2.2-6,2.5c-2.1,0.2-4.3,0.1-6.2-0.6c-2-0.7-3.7-2-4.7-3.7
								c-1-1.7-1.4-3.9-0.6-5.7c0.4-0.9,1.2-1.7,2.2-1.9c1-0.2,2,0.1,2.7,0.7c1.5,1.2,1.8,3.3,1.3,4.8c-0.5,1.6-1.6,2.9-2.7,3.8
								c-2.3,1.9-5,2.8-7.3,2.9c-2.4,0.1-4.4-0.6-5.8-1.3c-1.5-0.8-2.4-1.6-3-2.3c-0.3-0.3-0.5-0.6-0.6-0.7
								c-0.1-0.2-0.2-0.3-0.2-0.3c0.1-0.1,1.1,1.6,4,3.1c1.4,0.7,3.4,1.3,5.7,1.2c2.3-0.1,4.9-1,7-2.9c1.1-0.9,2.1-2.1,2.5-3.6
								c0.4-1.4,0.2-3.3-1.1-4.2c-0.6-0.5-1.5-0.7-2.2-0.5c-0.8,0.1-1.4,0.7-1.7,1.5c-0.7,1.6-0.4,3.6,0.6,5.2
								c0.9,1.6,2.6,2.8,4.4,3.4c1.9,0.6,3.9,0.8,6,0.6c2-0.2,4.1-0.9,5.6-2.3c1.5-1.4,2.4-3.6,1.9-5.7c-0.2-1-0.8-1.9-1.7-2.5
								c-0.8-0.6-1.9-0.5-2.6,0.2c-0.7,0.7-1,1.7-0.9,2.7c0.1,1,0.5,2,1.1,2.7c1.2,1.6,3,2.7,4.9,3.3c1.9,0.6,3.8,1,5.7,0.7
								c1.9-0.2,3.6-1,4.8-2.3c1.2-1.3,1.9-3,1.7-4.6c-0.1-1.6-1.3-3.1-2.8-3.2c-0.7,0-1.4,0.3-1.9,0.8c-0.5,0.5-0.8,1.2-0.9,1.9
								c-0.2,1.4,0.2,2.8,0.9,3.8c0.7,1.1,1.6,1.9,2.6,2.5c2,1.1,4.1,1.1,5.7,0.9c1.6-0.2,2.8-0.6,3.6-0.9
								C203.4,450,203.8,449.8,203.8,449.9z"/>
						</g>
					</g>
				</g>
			</g>
		</g>
	</g>
	<g>
		<g>
			<g>
				<g>
					<g>
						
							<rect x="166.3" y="402.7" transform="matrix(6.123234e-17 -1 1 6.123234e-17 -248.2631 605.8055)" fill="#EBEBEB" width="24.9" height="48.7"/>
					</g>
				</g>
			</g>
		</g>
		<g>
			<g>
				<g>
					<g>
						<g>
							<path fill="#E0E0E0" d="M162.5,415.4c0.2,0,0.3,5.4,0.3,12.1c0,6.7-0.2,12.1-0.3,12.1c-0.2,0-0.3-5.4-0.3-12.1
								C162.2,420.8,162.3,415.4,162.5,415.4z"/>
						</g>
					</g>
				</g>
			</g>
		</g>
		<g>
			<g>
				<g>
					<g>
						<g>
							<path fill="#E0E0E0" d="M166.2,415.1c0.2,0,0.3,5.3,0.3,11.9c0,6.6-0.2,11.9-0.3,11.9c-0.2,0-0.3-5.3-0.3-11.9
								C165.9,420.4,166,415.1,166.2,415.1z"/>
						</g>
					</g>
				</g>
			</g>
		</g>
		<g>
			<g>
				<g>
					<g>
						<g>
							<path fill="#E0E0E0" d="M197.6,414.3c0.2,0,0.3,5.6,0.3,12.6c0,6.9-0.2,12.6-0.3,12.6c-0.2,0-0.3-5.6-0.3-12.6
								C197.3,419.9,197.4,414.3,197.6,414.3z"/>
						</g>
					</g>
				</g>
			</g>
		</g>
		<g>
			<g>
				<g>
					<g>
						<g>
							<path fill="#E0E0E0" d="M193.3,414.6c0.2,0,0.3,5.5,0.3,12.2c0,6.8-0.2,12.2-0.3,12.2c-0.2,0-0.3-5.5-0.3-12.2
								C192.9,420.1,193.1,414.6,193.3,414.6z"/>
						</g>
					</g>
				</g>
			</g>
		</g>
	</g>
</g>
<g>
	<g>
		<g>
			<g>
				<g>
					<path fill="#EBEBEB" d="M67,340.7c5.7-2.7,12.4-3.1,18.7-2.1c3.4,0.5,6.9,1.5,9.3,3.8c2.3,2.4,2.7,6.5,0.1,8.5
						c-1.6,1.2-3.8,1.4-5.8,1.4c-5-0.1-10.4-0.9-14.4,1.9c-2.3,1.6-3.8,4.2-6.5,4.9c-2.6,0.8-5.6-0.7-7-2.9
						c-1.4-2.2-1.4-4.9-0.8-7.4C60.5,348.8,61.2,343.4,67,340.7z"/>
				</g>
			</g>
		</g>
		<g>
			<g>
				<g>
					<path fill="#EBEBEB" d="M53.9,317.4c3.5,4.6,10.3,3.1,13.4,0.3c3.1-2.8,4.5-6.9,5.7-10.7c2.8-8.9,5.5-18.1,3.5-27.2
						c-0.6-2.7-1.7-5.4-3.8-7.4c-2.1-2-5.2-3.2-8.1-2.5c-3.4,0.8-5.5,3.9-7.1,6.9c-4.5,8.6-6.9,18.2-6.9,27.8
						C50.6,309,51.2,313.7,53.9,317.4"/>
				</g>
			</g>
		</g>
		<g>
			<g>
				<g>
					<path fill="#EBEBEB" d="M44.4,324c3.8-4.1,4.5-10.2,2.8-15.4c-1.7-5.2-5.5-9.6-9.9-13.2c-5.1-4.2-11.2-7.5-17.7-9.6
						c-2.6-0.8-5.2-1.5-7.9-1.2C9,284.8,6.3,286,5,288.3c-1.9,3.3-0.1,7.2,1.9,10.5c3.4,5.7,7.3,11.2,11.6,16.3
						c3.5,4.1,7.5,8.2,12.8,10.1c5.3,1.9,10.8,1.7,13.6-1.7"/>
				</g>
			</g>
		</g>
		<g>
			<g>
				<g>
					<g>
						<path fill="#E0E0E0" d="M53.7,386.7c0.1,0,0.2-0.7,0.3-2.1c0.2-1.5,0.4-3.4,0.6-5.7c0.3-2.4,0.7-5.2,1.4-8.4
							c0.7-3.1,1.8-6.5,3.3-9.9c1.5-3.4,3.3-6.5,5.5-8.9c2.1-2.5,4.6-4.3,6.9-5.3c2.3-1.1,4.4-1.5,5.8-1.7c1.4-0.1,2.3-0.2,2.3-0.3
							c0-0.1-0.8-0.1-2.3,0c-1.5,0.1-3.6,0.4-6.1,1.5c-2.4,1-5.1,2.8-7.3,5.3c-2.2,2.5-4.1,5.7-5.7,9.1c-1.5,3.5-2.6,6.9-3.3,10
							c-0.7,3.2-1,6-1.2,8.5c-0.2,2.4-0.3,4.4-0.3,5.7C53.6,386,53.6,386.7,53.7,386.7z"/>
					</g>
				</g>
			</g>
		</g>
		<g>
			<g>
				<g>
					<g>
						<path fill="#E0E0E0" d="M54.1,382.3c0,0,0.1-0.3,0.1-1c0-0.7,0-1.6,0-2.8c0-2.4,0-5.9,0.1-10.2c0.2-8.6,1-17.8,2.6-30.9
							c1.5-12.3,3.4-26.5,5.5-35.8c0.4-2.1,0.9-4,1.3-5.7c0.4-1.7,0.7-3.1,1.1-4.3c0.3-1.1,0.5-2,0.7-2.7c0.2-0.6,0.2-0.9,0.2-1
							c0,0-0.2,0.3-0.4,0.9c-0.2,0.7-0.5,1.6-0.9,2.7c-0.4,1.2-0.8,2.6-1.2,4.2c-0.5,1.7-1,3.5-1.5,5.7c-2.1,8.4-4.2,20.1-5.8,33.2
							c-1.6,13.1-2.2,25-2.3,33.6c-0.1,4.3,0,7.8,0.2,10.2c0.1,1.1,0.1,2,0.2,2.8C54,382,54.1,382.3,54.1,382.3z"/>
					</g>
				</g>
			</g>
		</g>
		<g>
			<g>
				<g>
					<g>
						<path fill="#E0E0E0" d="M54.2,359.4c0.1,0,0.1-1,0-2.9c-0.1-1.9-0.4-4.5-1-7.8c-0.6-3.3-1.4-7.2-2.8-11.4
							c-0.6-1.9-1.9-6.6-5.2-13.5c-4.3-9.4-10.1-17.1-15.2-21.8c-1.2-1.3-2.5-2.2-3.6-3.1c-0.5-0.4-1-0.9-1.5-1.2
							c-0.5-0.3-1-0.6-1.4-0.9c-1.7-1.1-2.6-1.6-2.6-1.6c-0.1,0.2,3.7,2.3,8.6,7.1c4.9,4.8,10.6,12.4,14.8,21.8
							c2.4,5.1,4,9.6,5.2,13.4c1.4,4.2,2.3,8.1,2.9,11.3c0.6,3.3,1,5.9,1.2,7.8C54,358.4,54.1,359.4,54.2,359.4z"/>
					</g>
				</g>
			</g>
		</g>
	</g>
	<g>
		<g>
			<g>
				<polygon fill="#EBEBEB" points="28.5,396.4 31,427.9 74.8,427.9 77.3,396.4 				"/>
			</g>
		</g>
	</g>
	<g>
		<g>
			<g>
				<rect x="24.3" y="384" fill="#EBEBEB" width="58.2" height="12.4"/>
			</g>
		</g>
	</g>
	<g>
		<g>
			<g>
				<polygon fill="#E0E0E0" points="24.3,426.7 24.3,430.1 27,430.1 81.5,430.1 81.5,426.7 				"/>
			</g>
		</g>
	</g>
	<g>
		<g>
			<g>
				<polygon fill="#E0E0E0" points="29.7,435.8 27,429.7 79.5,429.7 76.3,435.8 				"/>
			</g>
		</g>
	</g>
	<g>
		<g>
			<g>
				<g>
					<path fill="#F5F5F5" d="M76.5,406.7c0,0-0.1,0.1-0.2,0.3c-0.2,0.2-0.4,0.5-0.7,0.8c-0.6,0.7-1.5,1.7-2.6,3l-0.1,0.1l-0.1-0.1
						c-1.6-2-3.7-4.8-6.3-8h0.4c-1.9,2.4-3.9,5.2-6.2,8.1l-0.2,0.3l-0.2-0.2c-2.3-2.5-4.8-5.2-7.3-8l0.4,0c-0.1,0.1-0.3,0.3-0.4,0.5
						c-2.3,2.6-4.5,5.2-6.5,7.6l-0.2,0.3l-0.2-0.3c-2.2-2.9-4.3-5.6-6.2-8.1l0.4,0c-3,3.2-5.6,5.9-7.6,8l-0.1,0.1l-0.1-0.2
						c-1-1.6-1.8-2.8-2.4-3.7c-0.2-0.4-0.5-0.7-0.6-1c-0.1-0.2-0.2-0.3-0.2-0.4c0,0,0.1,0.1,0.3,0.3c0.2,0.2,0.4,0.6,0.7,0.9
						c0.6,0.9,1.4,2.1,2.5,3.6l-0.2,0c1.9-2.1,4.5-4.9,7.5-8.1l0.2-0.2l0.2,0.2c1.9,2.4,4,5.1,6.2,8l-0.4,0c2.1-2.4,4.3-5,6.5-7.6
						c0.1-0.2,0.3-0.3,0.4-0.5l0.2-0.2l0.2,0.2c2.6,2.8,5,5.6,7.3,8.1l-0.4,0c2.3-2.9,4.4-5.6,6.2-8l0.2-0.2l0.2,0.2
						c2.5,3.3,4.6,6,6.1,8.1l-0.2,0c1.1-1.2,2-2.2,2.7-2.9c0.3-0.3,0.5-0.6,0.7-0.8C76.4,406.7,76.5,406.7,76.5,406.7z"/>
				</g>
			</g>
		</g>
	</g>
	<g>
		<g>
			<g>
				<g>
					<path fill="#F5F5F5" d="M77.9,396.2c0,0.1-11,0.3-24.5,0.3c-13.5,0-24.5-0.1-24.5-0.3c0-0.1,11-0.3,24.5-0.3
						C66.9,395.9,77.9,396,77.9,396.2z"/>
				</g>
			</g>
		</g>
	</g>
</g>
<g>
	<g>
		<g>
			<g>
				<g>
					<g>
						<rect x="407.8" y="306.6" fill="#E0E0E0" width="45.9" height="60.3"/>
					</g>
				</g>
			</g>
		</g>
	</g>
	<g>
		<g>
			<g>
				<g>
					<g>
						<rect x="405.5" y="306.6" fill="#F5F5F5" width="45.9" height="60.3"/>
					</g>
				</g>
			</g>
		</g>
	</g>
	<g>
		<g>
			<g>
				<g>
					<g>
						<g>
							<rect x="411.2" y="313.1" fill="#FFFFFF" width="34.5" height="47.2"/>
						</g>
					</g>
				</g>
			</g>
		</g>
		<g>
			<g>
				<g>
					<g>
						<g>
							<g>
								<path fill="#E0E0E0" d="M445.7,360.3c0,0,0-0.1,0-0.2c0-0.2,0-0.4,0-0.7c0-0.6,0-1.5,0-2.6c0-2.3,0-5.6,0-9.7
									c0-8.3,0-20.1-0.1-34l0.1,0.1c-10.5,0-22.2,0-34.5,0h0l0.1-0.1c0,17.8,0,34.2,0,47.2l-0.1-0.1c10.5,0,19.1,0,25.1,0
									c3,0,5.3,0,6.9,0c0.8,0,1.4,0,1.8,0C445.5,360.3,445.7,360.3,445.7,360.3s-0.2,0-0.6,0c-0.4,0-1,0-1.8,0c-1.6,0-3.9,0-6.9,0
									c-6,0-14.6,0-25.2,0l-0.1,0v-0.1c0-13,0-29.4,0-47.2l0-0.1h0.1h0c12.3,0,23.9,0,34.5,0h0.1l0,0.1c0,13.9,0,25.7-0.1,34.1
									c0,4.2,0,7.4,0,9.7c0,1.1,0,2,0,2.6c0,0.3,0,0.5,0,0.7C445.7,360.2,445.7,360.3,445.7,360.3z"/>
							</g>
						</g>
					</g>
				</g>
			</g>
		</g>
	</g>
	<g>
		<g>
			<g>
				<g>
					<g>
						<g>
							<path fill="none" stroke="#FBFBFB" stroke-width="0.25" stroke-miterlimit="10" d="M444.1,313.4"/>
						</g>
					</g>
				</g>
			</g>
		</g>
	</g>
	<g>
		<g>
			<g>
				<g>
					<g>
						<g>
							<path fill="#E0E0E0" d="M451.6,306.6c0,0-0.3,0.4-0.8,1.1c-0.5,0.6-1.3,1.5-2.2,2.5c-0.9,1-1.7,1.8-2.3,2.4
								c-0.6,0.6-1,1-1,0.9c0,0,0.3-0.4,0.9-1c0.6-0.7,1.4-1.5,2.2-2.4c0.8-0.9,1.6-1.8,2.2-2.4
								C451.2,306.9,451.5,306.5,451.6,306.6z"/>
						</g>
					</g>
				</g>
			</g>
		</g>
	</g>
	<g>
		<g>
			<g>
				<g>
					<g>
						<g>
							<path fill="#FFFFFF" d="M445.9,360.2c1.7,2.5,3.7,4.8,6,6.8"/>
						</g>
					</g>
				</g>
			</g>
		</g>
		<g>
			<g>
				<g>
					<g>
						<g>
							<g>
								<path fill="#E0E0E0" d="M451.9,367c0,0-0.4-0.3-1-0.9c-0.6-0.6-1.4-1.4-2.3-2.3c-0.8-0.9-1.5-1.8-2-2.5
									c-0.5-0.7-0.7-1.1-0.7-1.1c0,0,0.3,0.4,0.8,1c0.5,0.6,1.2,1.5,2,2.5c0.8,0.9,1.6,1.8,2.2,2.4
									C451.6,366.6,451.9,366.9,451.9,367z"/>
							</g>
						</g>
					</g>
				</g>
			</g>
		</g>
	</g>
	<g>
		<g>
			<g>
				<g>
					<g>
						<g>
							<path fill="#FFFFFF" d="M405.5,366.8c2-2.2,4-4.5,6-6.7"/>
						</g>
					</g>
				</g>
			</g>
		</g>
		<g>
			<g>
				<g>
					<g>
						<g>
							<g>
								<path fill="#E0E0E0" d="M411.5,360.1c0.1,0-1.2,1.6-2.9,3.4c-1.7,1.9-3,3.3-3.1,3.3c-0.1,0,1.2-1.6,2.9-3.4
									C410.1,361.5,411.5,360,411.5,360.1z"/>
							</g>
						</g>
					</g>
				</g>
			</g>
		</g>
	</g>
	<g>
		<g>
			<g>
				<g>
					<g>
						<g>
							<path fill="#E0E0E0" d="M405.5,306.6c0.1,0,1.4,1.4,2.9,3.2c1.6,1.8,2.8,3.3,2.7,3.3c-0.1,0-1.4-1.4-2.9-3.2
								C406.7,308.1,405.5,306.6,405.5,306.6z"/>
						</g>
					</g>
				</g>
			</g>
		</g>
	</g>
	<g>
		<g>
			<g>
				<g>
					<g>
						<rect x="423.4" y="322.7" fill="#E0E0E0" width="11.5" height="29.7"/>
					</g>
				</g>
			</g>
		</g>
	</g>
</g>
<g>
	<g>
		<g>
			<g>
				
					<rect x="417.2" y="34.3" transform="matrix(1 -5.391521e-03 5.391521e-03 1 -0.286 2.2714)" fill="#E0E0E0" width="8" height="39.9"/>
			</g>
		</g>
	</g>
	<g>
		<g>
			<g>
				<g>
					
						<rect x="348.2" y="34.4" transform="matrix(1 -5.388102e-03 5.388102e-03 1 -0.2394 1.9321)" fill="#EBEBEB" width="20.6" height="22"/>
				</g>
			</g>
		</g>
		<g>
			<g>
				<g>
					
						<rect x="368.7" y="34.3" transform="matrix(1 -5.388124e-03 5.388124e-03 1 -0.2385 2.0427)" fill="#F5F5F5" width="20.6" height="22"/>
				</g>
			</g>
		</g>
		<g>
			<g>
				<g>
					<g>
						<path fill="#E0E0E0" d="M348.1,40.5c13.7,0.1,27.4,0,41.1-0.2c0.3,0,0.3-0.4,0-0.4c-13.7-0.1-27.4,0-41.1,0.3
							C347.9,40.1,347.9,40.5,348.1,40.5L348.1,40.5z"/>
					</g>
				</g>
			</g>
		</g>
	</g>
	<g>
		<g>
			<g>
				<g>
					
						<rect x="335.3" y="56.1" transform="matrix(1 -5.392798e-03 5.392798e-03 1 -0.3456 1.9101)" fill="#EBEBEB" width="37.4" height="17.9"/>
				</g>
			</g>
		</g>
		<g>
			<g>
				<g>
					
						<rect x="372.6" y="55.9" transform="matrix(1 -5.390232e-03 5.390232e-03 1 -0.3438 2.1101)" fill="#F5F5F5" width="37.4" height="17.9"/>
				</g>
			</g>
		</g>
		<g>
			<g>
				<g>
					<g>
						<path fill="#E0E0E0" d="M335.3,61.2c24.9,0.3,49.8,0,74.7-0.4c0.3,0,0.3-0.4,0-0.4c-24.9-0.1-49.8-0.1-74.7,0.4
							C335,60.8,335,61.2,335.3,61.2L335.3,61.2z"/>
					</g>
				</g>
			</g>
		</g>
	</g>
	<g>
		<g>
			<g>
				<rect x="321.3" y="74.1" fill="#E0E0E0" width="145.1" height="6.4"/>
			</g>
		</g>
		<g>
			<g>
				<rect x="345" y="77.2" fill="#E0E0E0" width="5.9" height="21.9"/>
			</g>
		</g>
		<g>
			<g>
				<rect x="432.9" y="77.2" fill="#E0E0E0" width="5.9" height="21.9"/>
			</g>
		</g>
	</g>
	<g>
		<g>
			<g>
				
					<rect x="425" y="19.4" transform="matrix(1 -5.391514e-03 5.391514e-03 1 -0.2461 2.3134)" fill="#EBEBEB" width="8" height="54.8"/>
			</g>
		</g>
	</g>
	<g>
		<g>
			<g>
				<g>
					
						<rect x="433" y="29.6" transform="matrix(1 -5.394118e-03 5.394118e-03 1 -0.2731 2.3696)" fill="#F5F5F5" width="12.4" height="44.4"/>
				</g>
			</g>
		</g>
		<g>
			<g>
				<g>
					<path fill="#E0E0E0" d="M445.1,38.1c0,0.1-2.8,0.2-6.2,0.2c-3.4,0-6.2-0.1-6.2-0.2s2.8-0.2,6.2-0.2
						C442.4,37.9,445.1,38,445.1,38.1z"/>
				</g>
			</g>
		</g>
		<g>
			<g>
				<g>
					<path fill="#E0E0E0" d="M445.1,36.3c0,0.1-2.8,0.2-6.2,0.2c-3.4,0-6.2-0.1-6.2-0.2c0-0.1,2.8-0.2,6.2-0.2
						C442.4,36,445.1,36.1,445.1,36.3z"/>
				</g>
			</g>
		</g>
		<g>
			<g>
				<g>
					<path fill="#E0E0E0" d="M445.1,67.3c0,0.1-2.8,0.2-6.2,0.2c-3.4,0-6.2-0.1-6.2-0.2c0-0.1,2.8-0.2,6.2-0.2
						C442.4,67.1,445.1,67.2,445.1,67.3z"/>
				</g>
			</g>
		</g>
		<g>
			<g>
				<g>
					<path fill="#E0E0E0" d="M445.1,65.4c0,0.1-2.8,0.2-6.2,0.2c-3.4,0-6.2-0.1-6.2-0.2c0-0.1,2.8-0.2,6.2-0.2
						C442.4,65.2,445.1,65.3,445.1,65.4z"/>
				</g>
			</g>
		</g>
		<g>
			<g>
				<g>
					<path fill="#E0E0E0" d="M439.1,61.4c-0.1,0-0.2-4.5-0.2-10c0-5.5,0.1-10,0.2-10s0.2,4.5,0.2,10
						C439.4,56.9,439.3,61.4,439.1,61.4z"/>
				</g>
			</g>
		</g>
	</g>
	<g>
		<g>
			<g>
				<rect x="445.3" y="40.5" fill="#EBEBEB" width="13.5" height="33.5"/>
			</g>
		</g>
		<g>
			<g>
				<path fill="#FAFAFA" d="M452.4,65.3c-1.8,0-3-1.3-3-3c0-0.9,0.4-1.8,1.1-2.3l0.3,0.4c-0.6,0.4-0.9,1.1-0.9,1.8
					c0,1.4,1,2.4,2.5,2.4s2.5-1,2.5-2.4c0-0.7-0.3-1.4-0.9-1.8l0.3-0.4c0.7,0.5,1.1,1.3,1.1,2.3C455.4,64,454.1,65.3,452.4,65.3z"/>
			</g>
			<g>
				<path fill="#FAFAFA" d="M454.6,59.2l-0.5-0.3c0.4-0.5,0.7-1.3,0.7-2.1c0-1.3-0.4-1.8-1.1-1.8c-1.7,0-0.5,4-2.8,4
					c-0.9,0-1.6-0.8-1.6-2.3c0-0.8,0.2-1.6,0.6-2l0.5,0.3c-0.4,0.5-0.5,1.2-0.5,1.8c0,1.2,0.5,1.7,1.1,1.7c1.8,0,0.5-4,2.8-4
					c1,0,1.6,0.8,1.6,2.4C455.4,57.8,455.1,58.7,454.6,59.2z"/>
			</g>
			<g>
				<path fill="#FAFAFA" d="M454.6,53.7l-0.5-0.3c0.4-0.5,0.7-1.3,0.7-2.1c0-1.3-0.4-1.8-1.1-1.8c-1.7,0-0.5,4-2.8,4
					c-0.9,0-1.6-0.8-1.6-2.3c0-0.8,0.2-1.6,0.6-2l0.5,0.3c-0.4,0.5-0.5,1.2-0.5,1.8c0,1.2,0.5,1.7,1.1,1.7c1.8,0,0.5-4,2.8-4
					c1,0,1.6,0.8,1.6,2.4C455.4,52.3,455.1,53.3,454.6,53.7z"/>
			</g>
		</g>
	</g>
	<g>
		<g>
			<ellipse fill="#E0E0E0" cx="428.7" cy="28.7" rx="2.3" ry="2.3"/>
		</g>
	</g>
	<g>
		<g>
			<rect x="428" y="35.1" fill="#E0E0E0" width="1.4" height="32.6"/>
		</g>
	</g>
</g>
<g opacity="0.24">
	<g>
		<path d="M286.7,384.5c-1.3,1.9-1.8,4.5-0.6,6.5c1.2,2,2.8,3.7,3.4,6c0.8,3.5-1.3,7-2.9,10.2c-2.8,5.8-4.1,12.5-3.1,18.9
			c0.9,6.4,4.2,12.5,9.3,16.5c2.3,1.7,5.2,3.1,7.9,2.2c2.6-0.8,4.2-3.4,4.7-6.1c0.5-2.6,0.1-5.4-0.2-8c-1.5-12.4-1.2-25,0.9-37.3
			c0.4-2.1,0.7-4.4-0.6-6c-0.8-1-2.1-1.5-3.4-2C297.2,383.7,291.8,385.5,286.7,384.5"/>
	</g>
</g>
<g>
	<g>
		<path fill="#263238" d="M201.9,210.2c0,0-0.2-0.2-0.6-0.6c-0.4-0.4-0.9-1-1.6-1.7c-0.7-0.8-1.5-1.6-2.4-2.8
			c-0.9-1.1-1.9-2.4-3-3.8c-1-1.5-2.2-3.1-3.4-4.8c-0.6-0.9-1.1-1.8-1.7-2.8c-0.3-0.5-0.6-1-0.9-1.5c-0.3-0.5-0.6-1-0.8-1.6
			c-2.3-4.1-4.4-9-5.9-14.3c-1.5-5.3-2.2-10.5-2.2-15.3c0-1.2,0.1-2.4,0.1-3.5c0-0.6,0-1.1,0.1-1.7c0.1-0.5,0.1-1.1,0.2-1.6
			c0.1-1.1,0.2-2.1,0.3-3c0.2-1,0.3-1.9,0.5-2.8c0.3-1.8,0.7-3.3,1.1-4.7c0.2-0.7,0.3-1.3,0.5-1.9c0.2-0.6,0.4-1.1,0.5-1.6
			c0.3-0.9,0.6-1.7,0.7-2.2c0.2-0.5,0.3-0.8,0.3-0.8c0,0-0.1,0.3-0.2,0.8c-0.2,0.6-0.4,1.3-0.6,2.2c-0.1,0.5-0.3,1-0.5,1.6
			c-0.2,0.6-0.3,1.2-0.5,1.9c-0.3,1.4-0.8,3-1,4.7c-0.1,0.9-0.3,1.8-0.5,2.8c-0.1,1-0.2,2-0.3,3c-0.1,0.5-0.1,1.1-0.2,1.6
			c-0.1,0.5,0,1.1-0.1,1.7c0,1.1-0.1,2.3-0.1,3.5c0.1,4.7,0.8,9.9,2.3,15.2c1.5,5.3,3.5,10.1,5.8,14.2c0.3,0.5,0.6,1,0.8,1.5
			c0.3,0.5,0.6,1,0.9,1.5c0.6,1,1.2,1.9,1.7,2.8c1.2,1.8,2.3,3.3,3.3,4.8c1.1,1.4,2.1,2.7,3,3.8c0.9,1.1,1.7,2,2.3,2.8
			c0.6,0.7,1.1,1.3,1.5,1.8C201.7,210,201.9,210.2,201.9,210.2z"/>
	</g>
</g>
<g>
	<g>
		<path fill="#263238" d="M200.9,369.1c0,0-0.1,0.2-0.2,0.4c-0.2,0.3-0.4,0.7-0.7,1.2c-0.3,0.5-0.7,1.2-1,1.9
			c-0.4,0.8-0.8,1.6-1.2,2.6c-0.2,0.5-0.4,1-0.7,1.6c-0.2,0.5-0.4,1.1-0.6,1.7c-0.5,1.2-0.8,2.5-1.2,3.9c-0.7,2.8-1.3,5.8-1.7,9.1
			c-0.3,3.3-0.2,6.4,0,9.3c0.2,1.4,0.3,2.8,0.5,4c0.1,0.6,0.2,1.2,0.3,1.8c0.1,0.6,0.3,1.1,0.4,1.7c0.2,1.1,0.5,2,0.8,2.8
			c0.2,0.8,0.5,1.5,0.7,2.1c0.2,0.5,0.3,1,0.4,1.3c0.1,0.3,0.1,0.5,0.1,0.5s-0.1-0.1-0.2-0.4c-0.1-0.3-0.3-0.8-0.5-1.3
			c-0.2-0.6-0.5-1.3-0.8-2.1c-0.3-0.8-0.6-1.7-0.8-2.8c-0.1-0.5-0.3-1.1-0.4-1.7c-0.1-0.6-0.2-1.2-0.3-1.8c-0.3-1.3-0.4-2.6-0.6-4
			c-0.2-2.9-0.3-6,0-9.3c0.3-3.3,0.9-6.4,1.7-9.2c0.4-1.4,0.8-2.7,1.3-3.9c0.2-0.6,0.4-1.2,0.7-1.7c0.2-0.5,0.5-1.1,0.7-1.6
			c0.4-1,0.9-1.8,1.3-2.6c0.4-0.8,0.8-1.4,1.1-1.9c0.3-0.5,0.6-0.9,0.8-1.2C200.7,369.2,200.8,369.1,200.9,369.1z"/>
	</g>
</g>
<g>
	<g>
		<path fill="#263238" d="M497,456.8c0,0.1-91.7,0.2-204.9,0.2c-113.2,0-204.9-0.1-204.9-0.2c0-0.1,91.7-0.2,204.9-0.2
			C405.3,456.5,497,456.6,497,456.8z"/>
	</g>
</g>
<path fill="#263238" d="M329.3,125c-0.1,0-0.2,0.1-0.3,0.1l-160.1-1c0,0-0.6-0.4-1.4-1c-4.6-3.6-2-11,3.8-10.9l155.4,1.3
	C333.1,113.4,335.1,122.2,329.3,125z"/>
<g>
	<g>
		<path fill="#FAFAFA" d="M169.7,124.4c-15.2,24.1-14.2,57.6,2.4,80.7c11.1,15.4,27.8,25.8,41,39.4c13.2,13.6,23.3,33.7,16.3,51.5
			c-7.1,18-27.9,25.4-43.5,36.8c-17,12.4-28.9,31.7-32.5,52.5c-3.7,20.8,1,43,12.7,60.5h161.9c0,0,28.4-54.5-8.1-96.1
			c-36.6-41.6-56.2-42.2-54.8-69.5c1.4-27.2,20.3-36.1,31.1-46.3c10.8-10.2,63.6-34.1,32.5-109.5H169.7z"/>
	</g>
	<g>
		<g>
			<path fill="#263238" d="M169.7,124.4c0,0,0.9,0,2.8,0c1.9,0,4.6,0,8.2,0c7.2,0,17.9,0,31.6,0c27.5,0,67.2,0,116.3-0.1h0.1l0,0.1
				c2.2,5.7,4.4,11.5,6,17.6c1.6,6.1,3,12.5,3.4,19.2c0.5,6.6,0.3,13.4-1,20.2c-1.4,6.8-3.8,13.5-7.3,19.7c-1.8,3.1-3.8,6.1-6.1,8.9
				c-2.3,2.8-4.8,5.5-7.5,8c-2.7,2.5-5.5,4.9-8.5,7.2c-2.9,2.3-6,4.5-9,6.7c-1.5,1.1-2.9,2.4-4.3,3.7c-1.4,1.3-2.9,2.5-4.4,3.7
				c-3,2.4-6,4.8-8.9,7.4c-5.8,5.2-10.6,11.7-13.3,19.2c-1.3,3.8-2.2,7.7-2.5,11.7c-0.1,1-0.2,2-0.3,3c0,1-0.1,2,0,3
				c0,2,0.2,4.1,0.6,6.1c0.8,4,2.4,7.8,4.9,11.2c2.4,3.4,5.3,6.3,8.4,9.1c6.1,5.7,12.7,11.1,18.9,16.9c6.3,5.8,12.4,11.9,18.2,18.3
				c2.9,3.2,5.9,6.5,8.4,10.1c2.6,3.5,4.8,7.4,6.8,11.4c3.8,8,6.2,16.8,7,25.8c0.8,9,0.2,18.2-1.6,27.2c-0.9,4.5-2,8.9-3.5,13.3
				c-1.4,4.4-3.1,8.7-5.1,12.9L328,446h-0.2c-1.3,0-2.7,0-4.2,0c-55.3,0-108.6,0-157.7,0h-0.1l-0.1-0.1c-7.7-11.7-12.3-25-13.6-38.4
				c-1.3-13.4,0.7-26.9,5.6-38.8c4.8-12,12.3-22.5,21.4-30.8c4.5-4.2,9.6-7.6,14.6-10.7c5.1-3.2,10.1-6.1,15-9.3
				c4.8-3.2,9.4-6.6,13.2-10.8c3.8-4.1,6.6-9,8.2-14.2c1.5-5.2,1.5-10.7,0.6-15.9c-0.9-5.2-2.7-10.1-5-14.6
				c-2.3-4.5-5.1-8.7-8.1-12.5c-3.1-3.8-6.4-7.2-9.9-10.4c-6.9-6.3-13.9-11.9-20.2-17.6c-3.2-2.8-6.2-5.7-8.9-8.7
				c-2.7-3-5.2-6-7.4-9.2c-4.3-6.3-7.3-12.9-9.3-19.3c-2-6.4-2.9-12.6-3.2-18.3c-0.1-1.4-0.1-2.8-0.1-4.2c0-1.4,0-2.7,0.1-4
				c0.1-1.3,0.2-2.6,0.3-3.8c0.1-1.2,0.3-2.4,0.5-3.6c1.4-9.2,4.2-16,6.3-20.3c0.5-1.1,1-2.1,1.5-2.8c0.5-0.8,0.8-1.5,1.2-2
				C169.4,124.9,169.7,124.4,169.7,124.4c-0.1,0.1-0.3,0.6-0.9,1.6c-0.3,0.5-0.7,1.2-1.1,2c-0.5,0.8-0.9,1.7-1.4,2.8
				c-2.1,4.3-4.9,11.1-6.3,20.3c-0.2,1.2-0.4,2.3-0.5,3.6c-0.1,1.2-0.2,2.5-0.3,3.8c-0.1,1.3-0.1,2.6-0.1,4c0,1.4,0,2.8,0.1,4.2
				c0.2,5.7,1.2,11.9,3.2,18.2c2,6.4,4.9,13,9.3,19.2c2.1,3.1,4.6,6.2,7.4,9.1c2.8,2.9,5.7,5.8,8.9,8.6c6.3,5.7,13.3,11.2,20.2,17.6
				c3.4,3.2,6.8,6.6,9.9,10.4c3.1,3.8,5.9,8,8.2,12.5c2.3,4.5,4.1,9.5,5,14.7c0.9,5.2,0.9,10.8-0.6,16c-1.5,5.3-4.4,10.2-8.2,14.4
				c-3.8,4.2-8.4,7.6-13.2,10.9c-4.8,3.2-9.9,6.1-15,9.3c-5,3.2-10,6.5-14.5,10.7c-9,8.2-16.5,18.7-21.3,30.6
				c-4.9,11.9-6.9,25.3-5.6,38.6c1.3,13.3,5.8,26.6,13.5,38.2l-0.2-0.1c49.1,0,102.4,0,157.7,0c1.4,0,2.9,0,4.2,0l-0.2,0.1
				c2-4.1,3.7-8.4,5.1-12.8c1.4-4.4,2.6-8.8,3.5-13.3c1.8-8.9,2.4-18.1,1.6-27c-0.8-8.9-3.1-17.7-6.9-25.7c-1.9-4-4.1-7.8-6.7-11.3
				c-2.5-3.6-5.5-6.8-8.4-10c-5.9-6.4-11.9-12.5-18.2-18.3c-6.2-5.8-12.7-11.2-18.9-16.9c-3.1-2.8-6-5.8-8.5-9.2
				c-2.5-3.4-4.2-7.3-4.9-11.3c-0.4-2-0.6-4.1-0.6-6.1c0-1,0-2,0-3.1c0-1,0.2-2,0.3-3c0.3-4.1,1.2-8,2.6-11.8
				c2.7-7.6,7.6-14.2,13.4-19.4c2.9-2.6,5.9-5.1,8.9-7.5c1.5-1.2,3-2.4,4.4-3.7c1.4-1.3,2.8-2.6,4.3-3.7c3-2.3,6.1-4.5,9-6.7
				c2.9-2.3,5.8-4.7,8.4-7.2c2.7-2.5,5.2-5.2,7.4-8c2.2-2.8,4.3-5.8,6.1-8.8c3.5-6.2,5.9-12.8,7.3-19.5c1.3-6.7,1.5-13.5,1-20.1
				c-0.5-6.6-1.8-13-3.4-19.1c-1.6-6.1-3.8-12-6-17.6l0.2,0.1c-49.1,0-88.8-0.1-116.2-0.1c-13.7,0-24.4,0-31.6,0c-3.6,0-6.4,0-8.2,0
				C170.6,124.4,169.7,124.4,169.7,124.4z"/>
		</g>
	</g>
</g>
<g>
	<path fill="#7877A7" d="M326.4,168.6c23.8,3.9-13.7,46.4-35,63.2c-12.3,9.7-25.5,20.2-31.4,34.8c-6.6,16.6-1.7,35.2-4.9,51.9
		c-0.5,2.8-4.6,2.3-4.6-0.5c0.2-10.9-0.1-21.9-1.9-32.6c-2.6-15.3-8.4-30.4-19-41.6c-8.7-9.1-20.1-15.2-29.3-23.8
		c-13.5-12.5-27.4-28.6-28.8-47c0,0,26-21,40.4-18.4c16.8,3.1,33.4,29.3,59.5,26.3C289.6,178.9,298.8,164.1,326.4,168.6z"/>
</g>
<g>
	<path fill="#7877A7" d="M328.5,396c-0.6-6-2.2-12.8-7.5-15.6c-3.2-1.7-7.1-1.5-10.6-0.6c-3.5,0.9-6.8,2.5-10.3,3.6
		c-6.8,2-14.3,1.8-21.1-0.7c-6.5-2.4-12-6.7-18-10.1c-6-3.4-13-5.9-19.7-4.3c-11.5,2.9-17.5,16.9-28.9,20.2
		c-5.1,1.5-10.5,0.7-15.7-0.5c-5.2-1.2-10.3-2.7-15.6-2.5c-4.1,0.2-8.4,1.6-11.3,4.4l0,0c0,0-0.1,0.1-0.1,0.1
		c-0.5,0.5-0.9,1-1.3,1.5c-3.5,4.7-4.1,11.1-3,16.9c1.2,6.5,4.2,12.5,7.5,18.2c3.8,6.8,8.1,13.5,14.4,18c7.8,5.6,17.5,1.7,27,2.5
		c22.2,1.8,46,3,68.2,1.2c11.7-0.9,22.7,0.4,32-6.9c6.5-5.1,10.8-12.7,12.8-20.8C329.4,412.8,329.4,404.3,328.5,396z"/>
</g>
<g>
	<path fill="#263238" d="M158.5,453.2c0,0-0.4-7.5,9.2-11.6H338c0,0,8.9,4.5,10,11.5L158.5,453.2z"/>
</g>
<g opacity="0.24">
	<g>
		<path d="M308.7,186.7c0.3,0.6-0.9,2-3.2,4c-2.3,2.1-5.7,4.9-9.9,8.3c-4.3,3.4-9.5,7.6-16.1,11.4c-3.3,1.9-7,3.7-11.1,5.1
			c-2,0.7-4.1,1.3-6.4,1.8c-2.2,0.5-4.5,0.8-6.9,0.9c-4.7,0.3-9.5-0.4-13.8-1.9c-4.3-1.5-7.9-3.6-11.1-5.7c-3.2-2.1-5.9-4.2-8.5-6.2
			c-2.6-2-4.9-4-7-5.8c-8.4-7.3-12.8-12.7-12-13.8c0.9-1.1,6.8,2.3,16.1,8.1c2.3,1.4,4.9,3,7.6,4.7c2.7,1.7,5.6,3.5,8.6,5.2
			c3,1.7,6.1,3.2,9.4,4.3c3.2,1,6.6,1.4,10.3,1.2c7.3-0.4,14.4-3,20.5-5.9c6.2-3,11.7-6.5,16.5-9.2c4.8-2.7,8.9-4.8,11.9-5.8
			C306.6,186.3,308.4,186.1,308.7,186.7z"/>
	</g>
</g>
<g>
	<path fill="#7877A7" d="M250.6,338.5c1.8-0.6,3.9,1.2,3.5,3c-0.3,1.8-2.9,2.8-4.3,1.7c-1.5-1.2-1.1-3.9,0.6-4.6"/>
</g>
<g>
	<g>
		<path fill="#263238" d="M176.9,355.4c0,0,0.1-0.1,0.2-0.3c0.1-0.2,0.3-0.5,0.6-0.9c0.3-0.4,0.6-0.9,0.9-1.5
			c0.2-0.3,0.4-0.6,0.6-0.9c0.2-0.3,0.5-0.6,0.8-1c0.6-0.7,1.2-1.5,1.9-2.3c0.7-0.8,1.6-1.6,2.4-2.5c1.8-1.8,4-3.6,6.5-5.5
			c5-3.8,11.5-7.7,18.6-12.1c3.5-2.3,7.2-4.7,10.7-7.6c3.5-2.9,6.8-6.2,9.6-10.2c5.4-8,7.5-17.3,7.7-25.6c0.2-8.4-1.6-15.8-3.6-21.8
			c-2.1-6-4.5-10.5-6.3-13.6c-0.9-1.5-1.6-2.7-2.1-3.5c-0.2-0.4-0.4-0.7-0.6-0.9c-0.1-0.2-0.2-0.3-0.2-0.3c0,0,0.1,0.1,0.2,0.3
			c0.1,0.2,0.3,0.5,0.6,0.9c0.5,0.8,1.3,1.9,2.2,3.4c1.8,3,4.3,7.6,6.5,13.6c2.1,6,4,13.5,3.8,21.9c0,2.1-0.2,4.3-0.5,6.4
			c-0.3,2.2-0.8,4.4-1.4,6.6c-1.2,4.4-3.2,8.8-5.9,12.9c-2.8,4-6.2,7.4-9.7,10.3c-3.5,2.9-7.2,5.3-10.7,7.6
			c-7.1,4.4-13.6,8.2-18.6,12c-2.5,1.9-4.7,3.7-6.5,5.4c-0.9,0.9-1.7,1.7-2.5,2.5c-0.7,0.8-1.3,1.6-1.9,2.3c-0.3,0.3-0.6,0.7-0.8,1
			c-0.2,0.3-0.4,0.6-0.6,0.9c-0.4,0.6-0.7,1-1,1.4c-0.3,0.4-0.5,0.7-0.6,0.9C177,355.3,176.9,355.4,176.9,355.4z"/>
	</g>
</g>
<g>
	<path fill="#263238" d="M292.9,395.2c0,0-0.1,0.1-0.2,0.1c-0.2,0.1-0.4,0.2-0.6,0.4c-0.6,0.3-1.3,0.8-2.3,1.4
		c-0.5,0.3-1.1,0.6-1.7,1c-0.6,0.3-1.3,0.7-2.1,1c-1.5,0.7-3.2,1.6-5.1,2.4c-1,0.4-2,0.8-3,1.3c-1.1,0.4-2.2,0.8-3.4,1.2
		c-2.3,0.8-4.9,1.5-7.5,2.2c-5.4,1.2-11.4,2.1-17.8,2.3c-6.4,0.1-12.5-0.4-17.9-1.4c-2.7-0.6-5.3-1-7.6-1.8c-1.2-0.3-2.3-0.6-3.4-1
		c-1.1-0.4-2.1-0.7-3.1-1.1c-2-0.6-3.7-1.5-5.2-2.1c-0.8-0.3-1.5-0.6-2.1-0.9c-0.6-0.3-1.2-0.6-1.7-0.9c-1-0.5-1.8-1-2.4-1.3
		c-0.2-0.1-0.4-0.3-0.6-0.3c-0.1-0.1-0.2-0.1-0.2-0.1c0,0,0.1,0,0.2,0.1c0.2,0.1,0.4,0.2,0.6,0.3c0.6,0.3,1.4,0.7,2.4,1.2
		c0.5,0.3,1.1,0.6,1.7,0.9c0.6,0.3,1.4,0.6,2.1,0.9c1.5,0.6,3.2,1.4,5.2,2c1,0.3,2,0.7,3.1,1.1c1.1,0.4,2.2,0.6,3.4,1
		c2.3,0.7,4.9,1.2,7.6,1.7c5.4,0.9,11.5,1.4,17.8,1.3c6.3-0.2,12.3-1.1,17.7-2.2c2.7-0.7,5.2-1.3,7.5-2.1c1.2-0.4,2.3-0.7,3.4-1.1
		c1.1-0.4,2.1-0.8,3-1.2c2-0.7,3.6-1.6,5.1-2.3c0.7-0.4,1.4-0.7,2.1-1c0.6-0.3,1.2-0.7,1.7-1c1-0.6,1.8-1,2.3-1.3
		c0.2-0.1,0.5-0.2,0.6-0.3C292.9,395.3,292.9,395.2,292.9,395.2z"/>
</g>
<g>
	<path fill="#263238" d="M302.8,193c0,0-0.1,0.1-0.2,0.2c-0.2,0.1-0.4,0.3-0.6,0.5c-0.6,0.5-1.4,1.1-2.4,1.9c-2.1,1.7-5.2,4.1-9,7
		c-3.9,2.9-8.6,6.3-14.1,9.4c-2.8,1.5-5.8,3.1-9.1,4.2c-3.3,1.2-6.8,2.1-10.5,2.4c-7.4,0.5-14.5-1.4-20.2-4.2
		c-2.9-1.4-5.4-3.1-7.8-4.7c-2.3-1.6-4.4-3.2-6.3-4.8c-3.8-3-6.7-5.6-8.8-7.4c-1-0.9-1.8-1.6-2.3-2c-0.2-0.2-0.4-0.4-0.6-0.5
		c-0.1-0.1-0.2-0.2-0.2-0.2c0,0,0.1,0,0.2,0.2c0.2,0.1,0.4,0.3,0.6,0.5c0.6,0.5,1.4,1.1,2.4,2c2.1,1.7,5.1,4.2,8.8,7.2
		c1.9,1.5,4,3.1,6.3,4.7c2.3,1.6,4.9,3.2,7.8,4.6c5.7,2.8,12.6,4.6,19.9,4.1c3.6-0.3,7.1-1.2,10.4-2.3c3.3-1.1,6.2-2.7,9-4.2
		c5.6-3.1,10.3-6.4,14.1-9.3c3.9-2.9,7-5.3,9.1-6.9c1.1-0.8,1.9-1.4,2.5-1.9c0.3-0.2,0.5-0.4,0.7-0.5C302.8,193,302.8,193,302.8,193
		z"/>
</g>
<g>
	<path d="M217.2,403.3c4.5-3.5,10.8-2.6,16.4-1.5c5.6,1.2,11.2,3.1,16.8,2.3c4.2-0.6,8.1-2.7,12.3-3.6c4.2-0.9,9.3-0.2,11.6,3.4
		C255.9,409.9,235.5,409.7,217.2,403.3"/>
</g>
<path fill-rule="evenodd" clip-rule="evenodd" fill="#350A3D" d="M122.4,330.8c-0.1-0.1-0.1-0.3,0-0.3c0.1-0.1,0.3-0.1,0.3,0
	c0.1,0.1,22.9,23.6-3.3,49.9c-0.1,0.1-0.3,0.1-0.3,0s-0.1-0.3,0-0.3C145,354.1,122.5,330.9,122.4,330.8z"/>
<path fill-rule="evenodd" clip-rule="evenodd" fill="#351528" d="M120.3,294.9c-12.2,10.2-6.3,28.8,3.6,38.7
	c11.4,11.4,15.6,29.6-4.7,43.5c-20.3,13.9,11.2,25.5,23.4,10.1c12.2-15.4,16.7-52.9,15.9-62.2c-0.9-9.3-0.5-13.4-7.5-17.4
	C144,303.5,120.3,294.9,120.3,294.9z"/>
<path fill-rule="evenodd" clip-rule="evenodd" fill="#CB6459" d="M89.9,360.6c0,0-1.8-2.3-2.1-2.7c-0.4-0.4-2.7-0.4-4.1-0.5
	c-1.4-0.1-1.7,1.2-1.7,1.7c0,0.5-0.1,1.2-0.1,1.2s-8.1,0.7-8.6,0.8c-0.6,0.1-1.4,2.4-1.5,2.8c-0.2,0.5,0.1,1.5,0.7,1.5
	c0.6,0,1.4-0.3,1.6-0.7c0.2-0.4,0.5,0.1,0.5,0.1s-0.6,1-0.7,1.8c0,0.7,0.1,1.1,0.7,1.4c0.6,0.3,1.5,0.4,1.5,0.4s0,1.2,0.2,1.7
	c0.2,0.5,0.3,0.7,1.2,0.9c0.9,0.3,4.2,1,4.2,1L89.9,360.6z"/>
<path fill-rule="evenodd" clip-rule="evenodd" fill="#B24949" d="M76.1,368.7c-0.1,0-0.2-0.1-0.2-0.2c0-0.1,0.1-0.2,0.2-0.2l1.6,0.3
	c0.1,0,0.2,0.1,0.2,0.2c0,0.1-0.1,0.2-0.2,0.2L76.1,368.7z"/>
<path fill-rule="evenodd" clip-rule="evenodd" fill="#263238" d="M161,439.7c0,0-2.1,16.2-15.6,16.2c-13.5,0-9.6,0-15.2,0
	c-5.6,0-18.5-14.4-28.4-26.9c-9.9-12.5-14.6-21.4-14.6-21.4c-2.4,4.1-27.9,24.5-33.9,29.9c-1.2,1-6.3,7-7.2,7c0,0-6.8,0.5-11.8-3.1
	c0,0,1.6-6.9,2-7.3c15.2-19,32.2-40.5,40.6-49c8.4-8.5,17-3.8,36.5,10C132.8,408.9,161,439.7,161,439.7z"/>
<path fill-rule="evenodd" clip-rule="evenodd" fill="#350A3D" d="M70.1,356.1l0.5-0.5c0.4-0.4,1-0.4,1.4-0.1l14.6,13.6
	c0.4,0.4,0.4,1,0.1,1.4l-0.5,0.5c-0.4,0.4-1,0.4-1.4,0.1l-14.6-13.6C69.8,357.2,69.7,356.5,70.1,356.1z"/>
<path fill-rule="evenodd" clip-rule="evenodd" fill="#E6AD83" d="M101.3,368.4c0,0-1.8-0.8-2.4-1.2c-0.6-0.4-5.4-6.4-6-6.7
	c-0.6-0.3-4.9-0.7-5.5-0.7c-0.6,0-1.5,0.6-1.8,1.2c-0.3,0.7-0.8,2.5-0.8,2.5s-6.2,0.2-8,0.2L75,362c0,0-0.7,0.2-0.9,0.6
	c-0.3,0.4-0.3,1.5-0.2,2.1c0,0.6,1.1,2,1.4,2.3c0.3,0.3,1,0.5,1.6,0.6c0,0,0,1.4,1.1,1.8c1.1,0.5,2.5,1.1,2.5,1.1s0.1,1.1,0.9,1.7
	c0.8,0.5,3,2.2,3,2.2s0.8,0.3,1.3,0.3c0,0,0.6,1.3,1.6,1.7c1,0.4,4.7,2,5.2,2.2c0.5,0.1,2.5-0.2,4.5,0.9c2,1.1,2.2,1.2,2.2,1.2
	l3.7-10.2L101.3,368.4z"/>
<path fill-rule="evenodd" clip-rule="evenodd" fill="#7877A7" d="M36.3,454.4c0,0-30.1,0.7-31.3-1.4c0,0,0-1.7,0-2.9
	c0-1.1,1.4-2.8,5.1-3.9c3.7-1.1,11.7-3.2,14.2-3.9c2.5-0.8,9.5-8.4,10.5-9.4c1-0.9,5.7,2.1,6.7,2.6c1,0.5,0.3,1.7-0.2,3.2
	C40.8,440.1,36.3,454.4,36.3,454.4z"/>
<path fill-rule="evenodd" clip-rule="evenodd" fill="#ECD8DA" d="M5,455.9h48.2c0.6,0,1-0.3,1-0.6v-1.7c0-0.3-0.5-0.6-1-0.6H5
	c-0.6,0-1,0.3-1,0.6v1.7C4,455.6,4.5,455.9,5,455.9z"/>
<path fill-rule="evenodd" clip-rule="evenodd" fill="#847779" d="M5,455.9h16.4c0.6,0,1-0.3,1-0.6v-1.7c0-0.3-0.5-0.6-1-0.6H5
	c-0.6,0-1,0.3-1,0.6v1.7C4,455.6,4.5,455.9,5,455.9z"/>
<path fill-rule="evenodd" clip-rule="evenodd" d="M26.3,443.3c0.2,0.5,1.7,3,0.6,3.6c-1,0.6-4.4,2.8-6.2,2.8c-1.9,0-5.8,0-10.8,0
	c-4.9,0-3.8-1.5-3.8-1.5c-0.8,0.7-1.1,1.4-1.1,1.9c0,1.2,0,2.9,0,2.9h48.2c0,0,2-2.1,2-6.9c0-4.8,0.3-7.6-0.5-8.4
	c-0.8-0.8-1.4-0.4-1.4-0.4c-3.7,2.8-8.3,0.8-10.6-0.3c-0.3-0.1-0.5-0.2-0.7-0.4c-1.9-1-3.1-1.9-4.8-1c-1.9,0.9-8.6,5.1-9.7,5.7
	C26.3,442,26.2,442.8,26.3,443.3z"/>
<path fill-rule="evenodd" clip-rule="evenodd" fill="#020101" d="M5,450.8v2.2h48.2c0,0,2-2.1,2-6.9c0-4.8,0.3-7.6-0.5-8.4
	c0.1,1.5-0.8,3.3-2.5,3.3c-1.7,0-6.1,0-9.6,0c-3.5,0-4.2,1.6-4.2,1.6s-1.8,3-3.1,5.2c-1.3,2.2-3.4,3.6-5,3.6c-1.6,0-20.6,0-23.2,0
	C6.1,451.5,5.4,451.2,5,450.8z"/>
<path fill-rule="evenodd" clip-rule="evenodd" fill="#FFFFFF" d="M36.6,436.8c0.2,0.1,0.4,0.1,0.6-0.1c0.1-0.2,0-0.4-0.2-0.5l-3-2
	l-0.1-0.4l-0.7,0.7l0.1,0.1l1.2,3.1c0.1,0.2,0.3,0.3,0.5,0.3c0.2,0,0.3-0.2,0.2-0.4l-0.9-2.2L36.6,436.8L36.6,436.8z M27.9,439.8
	c0.2-0.2,0.4-0.4,0.6-0.5l0.9,2.2c0.1,0.2,0,0.4-0.2,0.4c-0.2,0-0.4-0.1-0.5-0.3L27.9,439.8L27.9,439.8z M28.5,439.2l2.1,1.4
	c0.2,0.1,0.4,0.1,0.6-0.1c0.1-0.2,0-0.4-0.2-0.5l-2-1.3C28.9,438.9,28.7,439.1,28.5,439.2L28.5,439.2z M30.6,437.2
	c0.3-0.3,0.5-0.5,0.8-0.8l2.6,1.7c0.2,0.1,0.3,0.4,0.2,0.5c-0.1,0.2-0.4,0.2-0.6,0.1l-2.2-1.4l0.9,2.2c0.1,0.2,0,0.4-0.2,0.4
	c-0.2,0-0.4-0.1-0.5-0.3L30.6,437.2z"/>
<path fill-rule="evenodd" clip-rule="evenodd" fill="#D4A037" d="M105.7,370l-3.1-1.8c0,0-0.7-0.2-1.1,0.1c0,0-0.8,8-4.5,11
	c0,0-0.1,0.5,0.2,0.8c0.3,0.3,3.6,2.6,3.6,2.6s1.4,0.3,2.7-0.6c1.3-0.8,4.2-6.5,4.2-7.2C107.6,374.2,105.7,370,105.7,370z"/>
<path fill-rule="evenodd" clip-rule="evenodd" fill="#547FB2" d="M169.5,439.7c0,0-2.1,16.2-15.6,16.2c-13.5,0-9.6,0-15.2,0
	c-5.6,0-18.5-14.4-28.4-26.9c-9.9-12.5-14.6-21.4-14.6-21.4c-2.4,4.1-27.9,24.5-33.9,29.9c-1.2,1-6.3,7-7.2,7c0,0-6.8,0.5-11.8-3.1
	c0,0,1.6-6.9,2-7.3c15.2-19,32.2-40.5,40.6-49c8.4-8.5,17-3.8,36.5,10C141.4,408.9,169.5,439.7,169.5,439.7z"/>
<path fill-rule="evenodd" clip-rule="evenodd" fill="#D4A037" d="M140,357.8l-1.3-1.1c0,0-7.4,16-8.9,25.1c-1.6,9.1,5.3,8.1,5.3,8.1
	s4.9-2.9,5.1-6.5C140.3,379.7,140,357.8,140,357.8z"/>
<path fill-rule="evenodd" clip-rule="evenodd" fill="#E6AD83" d="M147.6,303.4c0,0,7.2,11.4,18.1,16.1c0,0,1.2,7.9-4.2,11.3
	c-5.4,3.4-13.7,0.6-13.7,0.6l-5.5-8.1L147.6,303.4z"/>
<path fill-rule="evenodd" clip-rule="evenodd" fill="#CB6459" d="M143.6,325.2l-0.9-1.3c0.7-3,2-8.3,2-8.7c0-0.5,3.4-5.5,3.4-5.5
	l2.8,0.1l-0.1,11L143.6,325.2z"/>
<path fill-rule="evenodd" clip-rule="evenodd" fill="#F3CE63" d="M174.3,339.2c0,0,20.8,37.1,2.1,92.8c0,0-2,5-1.7,9.1
	c0.3,4.2-14,6.4-20.4-4.7c-6.4-11.1-2.1-10.7-9.1-17.6c-7-6.9-18.1-15.4-18.1-15.4s3-5.5,9-6.5c0,0,0-3.5,2-4.2c0,0-3.3-12-3.1-20.2
	c0.3-8.2,4.9-22.3,12.9-32.7c0,0,1-3.1-0.3-5.4c-1.2-2.3-1.4-3.3-0.8-4.4c0,0,2.3,0,4.3-1.4c2-1.4,6.8-1.6,6.8-1.6L174.3,339.2z"/>
<path fill-rule="evenodd" clip-rule="evenodd" fill="#D4A037" d="M167.6,444.5c-4.5-0.1-10-2.3-13.3-8.1
	c-6.4-11.1-2.1-10.7-9.1-17.6c-7-6.9-18.1-15.4-18.1-15.4s3-5.5,9-6.5c0,0,0-3.5,2-4.2l0-0.2l15.7,5.5l16.7-24.5l2.7,7.5
	c0,0-11.3,34.7-13.7,42C157.3,429.7,156.9,439.2,167.6,444.5z"/>
<path fill-rule="evenodd" clip-rule="evenodd" fill="#F3CE63" d="M149.3,358.9c-3.7,13.4-2.7,27.8-2.7,27.8s-1.3-0.8-1.4,1.2
	c-6-6.7-19.2-5.5-31.6-18c-2.4-2.4-7.8,0.1-7.8,0.1s1.3,7.2-4.9,12.7c0,0-2.1,7.6,10,14.3c12.1,6.8,24.8,8.7,31.9,13.7
	c7,5,12.7,4,16.9-0.4c4.2-4.4,18.3-35.6,16.7-47.3C173.4,343.6,153,345.5,149.3,358.9z"/>
<path fill-rule="evenodd" clip-rule="evenodd" fill="#FFFFFF" d="M147.3,369.5c-0.2,1.3-0.3,2.7-0.4,3.9c5,0.6,15.6,2.4,26.3,7.3
	c0.4-1.3,0.8-2.6,1.1-3.8C163.3,372,152.4,370.2,147.3,369.5L147.3,369.5z M146.6,377c5.4,0.8,15.4,2.6,25.5,7.1
	c-0.4,1.2-0.9,2.5-1.4,3.7c-9.5-4.2-18.9-6.1-24.2-6.8C146.5,379.8,146.6,378.5,146.6,377z"/>
<path fill-rule="evenodd" clip-rule="evenodd" fill="#E6AD83" d="M121.9,295c0,0-3.8,3.4-1.2,10.5c2.6,7.1,4.6,10,2,13.2
	c0,0-0.3,0.6,0.1,1c0.5,0.4,2.1,1,3.1,1.5c0.9,0.5,4.3,5.6,6.4,7.2c2.1,1.6,6.6,0.3,10.5-4.1c3.8-4.5,6.8-15.4,5.5-19.8
	C147,300.1,129.5,293.3,121.9,295z"/>
<path fill-rule="evenodd" clip-rule="evenodd" fill="#3F1017" d="M137.9,305.2c0,0-7.3,2.7-13.8-1.5c-6.5-4.2-8.9-10.4-3.3-15.9
	c5.6-5.5,19-12.6,30.3-4.5c11.4,8.1,5.9,20.4,22.8,27.5c8.9,3.8,15.9,6.4,20.4,11.2c24.3,26.1-22.9,64.5-39.4,29.6
	C144.1,328.9,156.5,310,137.9,305.2z"/>
<path fill-rule="evenodd" clip-rule="evenodd" d="M44.9,454.4c0,0-30.1,0.7-31.3-1.4c0,0,0-1.7,0-2.9c0-1.1,1.4-2.8,5.1-3.9
	c3.7-1.1,11.7-3.2,14.2-3.9c2.5-0.8,9.5-8.4,10.5-9.4c1-0.9,5.7,2.1,6.7,2.6c1,0.5,0.3,1.7-0.2,3.2
	C49.4,440.1,44.9,454.4,44.9,454.4z"/>
<path fill-rule="evenodd" clip-rule="evenodd" fill="#878686" d="M13.6,455.9h48.2c0.6,0,1-0.3,1-0.6v-1.7c0-0.3-0.5-0.6-1-0.6H13.6
	c-0.6,0-1,0.3-1,0.6v1.7C12.6,455.6,13,455.9,13.6,455.9z"/>
<path fill-rule="evenodd" clip-rule="evenodd" fill="#FFFFFF" d="M13.6,455.9H30c0.6,0,1-0.3,1-0.6v-1.7c0-0.3-0.5-0.6-1-0.6H13.6
	c-0.6,0-1,0.3-1,0.6v1.7C12.6,455.6,13,455.9,13.6,455.9z"/>
<path fill-rule="evenodd" clip-rule="evenodd" fill="#7877A7" d="M34.9,443.3c0.2,0.5,1.7,3,0.6,3.6c-1,0.6-4.4,2.8-6.2,2.8
	c-1.9,0-5.8,0-10.8,0c-4.9,0-3.8-1.5-3.8-1.5c-0.8,0.7-1.1,1.4-1.1,1.9c0,1.2,0,2.9,0,2.9h48.2c0,0,2-2.1,2-6.9
	c0-4.8,0.3-7.6-0.5-8.4c-0.8-0.8-1.4-0.4-1.4-0.4c-3.7,2.8-8.3,0.8-10.6-0.3c-0.3-0.1-0.5-0.2-0.7-0.4c-1.9-1-3.1-1.9-4.8-1
	c-1.9,0.9-8.6,5.1-9.7,5.7C34.9,442,34.7,442.8,34.9,443.3z"/>
<path fill-rule="evenodd" clip-rule="evenodd" fill="#160407" d="M13.6,450.8v2.2h48.2c0,0,2-2.1,2-6.9c0-4.8,0.3-7.6-0.5-8.4
	c0.1,1.5-0.8,3.3-2.5,3.3c-1.7,0-6.1,0-9.6,0c-3.5,0-4.2,1.6-4.2,1.6s-1.8,3-3.1,5.2c-1.3,2.2-3.4,3.6-5,3.6c-1.6,0-20.6,0-23.2,0
	C14.6,451.5,14,451.2,13.6,450.8z"/>
<path fill-rule="evenodd" clip-rule="evenodd" fill="#FFFFFF" d="M45.2,436.8c0.2,0.1,0.4,0.1,0.6-0.1c0.1-0.2,0-0.4-0.2-0.5l-3-2
	l-0.1-0.4l-0.7,0.7l0.1,0.1l1.2,3.1c0.1,0.2,0.3,0.3,0.5,0.3c0.2,0,0.3-0.2,0.2-0.4l-0.9-2.2L45.2,436.8L45.2,436.8z M36.4,439.8
	c0.2-0.2,0.4-0.4,0.6-0.5l0.9,2.2c0.1,0.2,0,0.4-0.2,0.4c-0.2,0-0.4-0.1-0.5-0.3L36.4,439.8L36.4,439.8z M37.1,439.2l2.1,1.4
	c0.2,0.1,0.4,0.1,0.6-0.1c0.1-0.2,0-0.4-0.2-0.5l-2-1.3C37.4,438.9,37.3,439.1,37.1,439.2L37.1,439.2z M39.2,437.2
	c0.3-0.3,0.5-0.5,0.8-0.8l2.6,1.7c0.2,0.1,0.3,0.4,0.2,0.5c-0.1,0.2-0.4,0.2-0.6,0.1l-2.2-1.4l0.9,2.2c0.1,0.2,0,0.4-0.2,0.4
	c-0.2,0-0.4-0.1-0.5-0.3L39.2,437.2z"/>
<path fill-rule="evenodd" clip-rule="evenodd" fill="#B24949" d="M81.7,360.2c0-0.1,0.1-0.2,0.2-0.2c0.1,0,0.2,0.1,0.2,0.2
	c0,0-0.1,1-0.2,1.3c0,0.1,0,0.3,0.1,0.5c0.1,0.1,0.2,0.2,0.5,0.3c0.1,0,0.2,0,0.3,0c0.4,0,0.9-0.2,1.4-0.6c0.5-0.4,0.9-0.9,1.1-1.7
	c0.1-0.4,0.1-0.8,0.1-1.3c0-0.1,0.1-0.2,0.2-0.2c0.1,0,0.2,0.1,0.2,0.2c0,0.5,0,1-0.1,1.4c-0.2,0.9-0.7,1.6-1.2,2
	c-0.6,0.4-1.2,0.6-1.6,0.6c-0.2,0-0.3,0-0.4,0c-0.3-0.1-0.5-0.2-0.7-0.4c-0.2-0.3-0.2-0.5-0.2-0.8C81.5,361.3,81.7,360.2,81.7,360.2
	z"/>
<path fill-rule="evenodd" clip-rule="evenodd" fill="#B24949" d="M85.4,360.7c-0.1,0-0.2,0-0.2-0.1c0-0.1,0-0.2,0.1-0.2
	c0,0,0.7-0.2,0.9-1c0-0.1,0.1-0.2,0.2-0.1c0.1,0,0.2,0.1,0.1,0.2C86.3,360.5,85.4,360.7,85.4,360.7z"/>
<path fill-rule="evenodd" clip-rule="evenodd" fill="#CB6459" d="M84.8,363.7c-0.1,0-0.2-0.1-0.2-0.2c0-0.1,0.1-0.2,0.2-0.2l4.4,0
	c0.1,0,0.2,0.1,0.2,0.2c0,0.1-0.1,0.2-0.2,0.2L84.8,363.7z"/>
<path fill-rule="evenodd" clip-rule="evenodd" fill="#CB6459" d="M87.5,363.3c0.1,0,0.2,0.2,0.1,0.3c0,0.1-0.2,0.2-0.3,0.1
	c0,0-1-0.4-1.3-1.4c0-0.1,0-0.2,0.1-0.2c0.1,0,0.2,0,0.2,0.1C86.7,363,87.5,363.3,87.5,363.3z"/>
<path fill-rule="evenodd" clip-rule="evenodd" fill="#CB6459" d="M76.7,367.7c-0.1,0-0.2-0.1-0.2-0.2c0-0.1,0.1-0.2,0.2-0.2l4.7,0.4
	c0.1,0,0.2,0.1,0.2,0.2c0,0.1-0.1,0.2-0.2,0.2L76.7,367.7z"/>
<path fill-rule="evenodd" clip-rule="evenodd" fill="#CB6459" d="M80.2,370.6c-0.1,0-0.1-0.2-0.1-0.3c0-0.1,0.2-0.1,0.3-0.1l2.6,1.1
	c0.1,0,0.1,0.2,0.1,0.3c0,0.1-0.2,0.1-0.3,0.1L80.2,370.6z"/>
<path fill-rule="evenodd" clip-rule="evenodd" fill="#CB6459" d="M85.5,374.7c-0.1,0-0.2-0.1-0.2-0.2c0-0.1,0.1-0.2,0.2-0.2l1,0
	c0.1,0,0.2,0.1,0.2,0.2c0,0.1-0.1,0.2-0.2,0.2L85.5,374.7z"/>
<path fill-rule="evenodd" clip-rule="evenodd" fill="#472055" d="M72.2,357.7l0.1-0.1c0.1-0.1,0.2-0.1,0.3,0l3.4,3.2
	c0.1,0.1,0.1,0.2,0,0.3l-0.1,0.1c-0.1,0.1-0.2,0.1-0.3,0l-3.4-3.2C72.1,357.9,72.1,357.8,72.2,357.7z"/>
<path fill-rule="evenodd" clip-rule="evenodd" fill="#350A3D" d="M151.3,429.9c0.1,0,0.2,0.2,0.2,0.3c0,0.1-0.2,0.2-0.3,0.2
	c-0.7-0.2-1.4-0.5-2.1-0.9c-0.7-0.4-1.4-0.8-2.1-1.4c-8.7-6.6-43.6-34.5-44.1-34.9c-0.3-0.2-4.7-2.5-8.7,0.3
	c-4.3,3-38.6,41.2-38.7,41.3c-0.1,0.1-0.2,0.1-0.3,0c-0.1-0.1-0.1-0.2,0-0.3c0.1-0.1,34.5-38.4,38.8-41.4c4.3-3,8.9-0.5,9.2-0.3
	c0,0,0,0,0,0c0.1,0.1,35.4,28.3,44.1,34.9c0.7,0.5,1.4,1,2,1.3C150,429.4,150.6,429.7,151.3,429.9z"/>
<path fill-rule="evenodd" clip-rule="evenodd" fill="#350A3D" d="M48.4,429.7c-0.1-0.1-0.1-0.2-0.1-0.3c0.1-0.1,0.2-0.1,0.3-0.1
	c0,0,8.4,5.5,10.7,9.3c0.1,0.1,0,0.3-0.1,0.3c-0.1,0.1-0.3,0-0.3-0.1C56.7,435.1,48.4,429.7,48.4,429.7z"/>
<path fill-rule="evenodd" clip-rule="evenodd" fill="#350A3D" d="M95.9,408.2c-0.1,0.1-0.2,0.2-0.3,0.1c-0.1-0.1-0.2-0.2-0.1-0.3
	c0,0,1.2-2.8,1.2-5.8c0-0.1,0.1-0.2,0.2-0.2c0.1,0,0.2,0.1,0.2,0.2C97.1,405.3,95.9,408.2,95.9,408.2z"/>
<path fill-rule="evenodd" clip-rule="evenodd" fill="#D4A037" d="M100.6,382.7c0-0.1,0.2-0.2,0.3-0.2c0.1,0,0.2,0.2,0.2,0.3
	c0,0-2,7.4,9.9,14.1c6.1,3.4,12.3,5.6,17.9,7.5c5.6,2,10.5,3.7,14,6.2c3.3,2.3,6.3,3.4,9,3.3c2.9-0.1,5.4-1.4,7.6-3.7
	c2.2-2.3,7.3-12.3,11.2-22.9c2.9-7.8,5.3-15.8,5.5-21.4c0-0.1,0.1-0.2,0.3-0.2c0.1,0,0.2,0.1,0.2,0.3c-0.2,5.7-2.5,13.8-5.5,21.6
	c-4,10.6-9.1,20.6-11.3,23c-2.2,2.4-4.9,3.7-7.9,3.8c-2.8,0.1-5.9-1-9.3-3.4c-3.5-2.4-8.4-4.2-13.9-6.1c-5.6-2-11.9-4.2-18-7.6
	C98.4,390.4,100.5,382.7,100.6,382.7L100.6,382.7z M146.9,386.5c-0.1-1.2-0.8-14.8,2.7-27.6c0-0.1,0-0.3-0.2-0.3
	c-0.1,0-0.3,0-0.3,0.2c-3.3,12.2-2.9,25.1-2.8,27.5c-0.4-0.1-1.1-0.1-1.3,1c-2.6-2.6-6.4-4-10.8-5.6c-6.1-2.2-13.5-4.9-20.5-12
	c-2.5-2.6-8.1,0.1-8.1,0.1c-0.1,0.1-0.2,0.2-0.1,0.3c0.1,0.1,0.2,0.2,0.3,0.1c0,0,5.2-2.5,7.5-0.2c7.1,7.2,14.5,9.9,20.7,12.1
	c4.6,1.7,8.4,3.1,10.9,5.9c0.1,0.1,0.5,0.8,0.7,1.8c0,0.1,0.2,0.2,0.3,0.2c0.1,0,0.2-0.2,0.2-0.3c-0.2-0.9-0.6-1.7-0.8-1.9
	c0.1-1.3,0.9-1,1-1c0.1,0.2,0.7,0.8,0.8,1.2c0,0.1,0.2,0.2,0.3,0.2c0.1,0,0.2-0.2,0.2-0.3C147.6,387.4,147,386.7,146.9,386.5z"/>
<path fill-rule="evenodd" clip-rule="evenodd" fill="#CB6459" d="M132.2,313c-1.6,0.5-2.4,2.2-1.9,3.8c0.5,1.6,2.2,2.4,3.8,1.9
	c1.6-0.5,2.4-2.2,1.9-3.8C135.4,313.3,133.8,312.4,132.2,313z"/>
<path fill-rule="evenodd" clip-rule="evenodd" fill="#350A3D" d="M127.9,307.5c-1.1-0.1-2.2,0.2-2.9,1c-0.2,0.2-0.5,0.2-0.7,0.1
	c-0.2-0.2-0.2-0.5-0.1-0.7c0.9-1.1,2.4-1.5,3.8-1.4c0.3,0,0.4,0.3,0.4,0.5C128.4,307.4,128.2,307.6,127.9,307.5z"/>
<path fill-rule="evenodd" clip-rule="evenodd" fill="#350A3D" d="M127.1,310.1L127.1,310.1c0.3-0.1,0.5-0.1,0.7,0
	c0.1,0,0.2-0.1,0.2-0.3c0-0.1,0.1-0.2,0.2-0.2c0.1,0,0.2,0.1,0.2,0.2c0,0.2-0.1,0.3-0.2,0.4l0,0c0.1-0.1,0.3-0.2,0.3-0.4
	c0-0.1,0.1-0.1,0.2-0.1c0.1,0,0.1,0.1,0.1,0.2c-0.1,0.2-0.2,0.4-0.4,0.5l0,0c0.2-0.1,0.3-0.2,0.4-0.3c0.1-0.1,0.2-0.1,0.2,0
	c0.1,0.1,0.1,0.2,0,0.2c-0.1,0.2-0.3,0.3-0.4,0.4l-0.2,0.1l0.4,1.3c0.2,0.6-0.1,1.2-0.7,1.4l0,0c-0.6,0.2-1.2-0.1-1.4-0.7l-0.5-1.4
	C126.2,311,126.5,310.3,127.1,310.1z"/>
<path fill-rule="evenodd" clip-rule="evenodd" fill="#E6AD83" d="M137.3,306.6c0.4-8.3,11.4-1.5,5.2,5.1
	C142.4,311.8,138,311.4,137.3,306.6z"/>
<path fill-rule="evenodd" clip-rule="evenodd" fill="#CB6459" d="M137.5,306.6c0,0.1-0.1,0.2-0.3,0.2c-0.1,0-0.2-0.1-0.2-0.3
	c0.1-2.1,0.9-3.3,1.9-3.8c0.9-0.4,2-0.3,3,0.2c1,0.5,1.8,1.4,2.3,2.5c0.7,1.8,0.6,4.1-1.6,6.4c-0.1,0.1-0.2,0.1-0.3,0
	c-0.1-0.1-0.1-0.2,0-0.3c2-2.1,2.2-4.2,1.5-5.8c-0.4-1-1.2-1.8-2.1-2.3c-0.8-0.5-1.8-0.6-2.5-0.2
	C138.3,303.7,137.6,304.7,137.5,306.6z"/>
<path fill-rule="evenodd" clip-rule="evenodd" fill="#472055" d="M157,291.1c-0.1-0.1,0-0.3,0.1-0.3c0.1-0.1,0.3,0,0.3,0.1
	c0,0,4.7,11.3,11.9,15.9c2.3,1.5,5.1,2.8,7.9,4.1c5.9,2.8,11.8,5.5,13.4,9.8c0,0.1,0,0.3-0.1,0.3c-0.1,0-0.3,0-0.3-0.1
	c-1.6-4.1-7.3-6.8-13.2-9.5c-2.8-1.3-5.6-2.6-7.9-4.1C161.7,302.6,157,291.2,157,291.1z"/>
<path fill-rule="evenodd" clip-rule="evenodd" fill="#3F1017" d="M119.1,289.9c0.5-0.7,1-1.4,1.7-2c1.1-1.1,2.6-2.3,4.2-3.3
	c9.8,11.1,24.2,9.7,33.1,7.4c0.3,0.6,0.5,1.2,0.8,1.7C134.1,303,123.3,295.2,119.1,289.9z"/>
<g>
	<g>
		<g>
			<g>
				<g>
					<path fill="#E0E0E0" stroke="#E0E0E0" stroke-miterlimit="10" d="M88.7,147.4c0,0-0.3-0.1-1-0.1c-0.7-0.1-1.7-0.1-3-0.2
						c-0.7,0-1.4-0.1-2.2-0.1c-0.8,0-1.7,0-2.7,0c-1,0-2,0-3.1,0.1c-1.1,0.1-2.3,0.2-3.5,0.3c-4.9,0.6-11,1.7-17.4,4.3
						c-6.4,2.6-13.1,6.6-18.9,12.3c-0.7,0.7-1.4,1.5-2.1,2.2c-0.7,0.8-1.3,1.6-1.9,2.4c-1.4,1.6-2.4,3.4-3.5,5.2
						c-2,3.7-3.8,7.7-4.6,12c-0.6,2.1-0.7,4.4-0.9,6.6c-0.1,1.1,0,2.3,0,3.4l0,1.7c0.1,0.6,0.2,1.2,0.2,1.7
						c0.5,4.7,2.1,9.4,4.4,13.9c4.6,9.1,13.3,17.4,24.5,22.8c5.6,2.7,12,4.6,18.5,5.5c6.6,1.1,13.5,1,20.2,0.1
						c0.9-0.1,1.7-0.3,2.6-0.4l-0.4-0.1c9,4.9,17.8,9.8,26.3,14.4l0.9,0.5l-0.2-0.9c-1.9-7.7-3.6-15.2-5.4-22.3l-0.2,0.4
						c8-4.9,14.2-11.3,18.1-18.2c1.9-3.4,3.3-7,4.2-10.6c0.4-1.8,0.8-3.5,0.9-5.3c0.1-0.9,0.2-1.8,0.2-2.6c0.1-0.9,0-1.7,0-2.6
						c-0.2-6.9-2.1-13.3-5.1-18.7c-3-5.5-7-10-11.2-13.6c-4.2-3.7-8.8-6.2-12.8-8.2c-4.2-1.9-7.9-3.2-11.1-4c-1.6-0.4-3-0.7-4.2-1
						c-1.2-0.2-2.3-0.3-3.1-0.5c-0.8-0.1-1.5-0.2-1.9-0.3C88.9,147.4,88.7,147.4,88.7,147.4s0.2,0.1,0.6,0.1
						c0.5,0.1,1.1,0.2,1.9,0.3c0.8,0.1,1.9,0.3,3.1,0.5c1.2,0.3,2.6,0.6,4.2,1c3.1,0.8,6.9,2.1,11,4.1c4,2.1,8.5,4.6,12.6,8.2
						c4.1,3.6,8.1,8.1,11,13.6c2.9,5.4,4.8,11.7,5,18.5c0,0.8,0.1,1.7,0,2.6c-0.1,0.9-0.2,1.7-0.3,2.6c-0.1,1.7-0.4,3.5-0.9,5.2
						c-0.9,3.5-2.3,7-4.2,10.4c-3.9,6.8-9.9,13.1-17.9,17.9l-0.2,0.1l0.1,0.2c1.7,7.2,3.5,14.6,5.3,22.3l0.7-0.4
						c-8.5-4.7-17.3-9.5-26.3-14.4l-0.2-0.1l-0.2,0c-0.8,0.2-1.7,0.3-2.6,0.4c-6.6,1-13.4,1-19.9-0.1c-6.5-1-12.7-2.7-18.3-5.4
						c-11.1-5.3-19.6-13.4-24.2-22.4c-2.3-4.5-3.9-9.1-4.4-13.7c-0.1-0.6-0.2-1.1-0.2-1.7l0-1.7c0-1.1-0.1-2.3,0-3.4
						c0.2-2.2,0.3-4.4,0.9-6.5c0.8-4.3,2.6-8.2,4.5-11.9c1.1-1.8,2.1-3.6,3.5-5.1c0.6-0.8,1.2-1.6,1.9-2.4c0.7-0.7,1.4-1.5,2.1-2.2
						c5.6-5.7,12.3-9.7,18.6-12.2c6.3-2.6,12.3-3.8,17.2-4.4c1.2-0.1,2.4-0.2,3.5-0.4c1.1-0.1,2.1-0.1,3.1-0.1c1,0,1.8,0,2.7-0.1
						c0.8,0,1.5,0.1,2.2,0.1c1.3,0.1,2.3,0.1,3,0.2C88.4,147.4,88.7,147.4,88.7,147.4z"/>
				</g>
			</g>
		</g>
	</g>
</g>
<g>
	<g>
		<g>
			<g>
				<g>
					<path fill="#E0E0E0" stroke="#E0E0E0" stroke-miterlimit="10" d="M398,143.2c0,0,0.4-0.1,1.1-0.1c0.7-0.1,1.8-0.2,3.1-0.3
						c0.7,0,1.5-0.2,2.3-0.2c0.9,0,1.8,0,2.8,0c1,0,2.1,0,3.2,0.1c1.2,0.1,2.4,0.2,3.7,0.4c5.2,0.6,11.5,1.8,18.2,4.7
						c6.7,2.8,13.7,7.2,19.7,13.4c0.7,0.8,1.5,1.6,2.2,2.4c0.7,0.8,1.3,1.7,2,2.6c1.4,1.7,2.5,3.7,3.7,5.7c2.1,4,4,8.4,4.8,13.1
						c0.6,2.3,0.7,4.8,1,7.2c0.1,1.2,0,2.5,0,3.7l0,1.9c-0.1,0.6-0.2,1.3-0.2,1.9c-0.5,5.1-2.2,10.2-4.6,15.2
						c-4.8,10-13.8,18.9-25.6,24.8c-5.8,3-12.5,5-19.3,6c-6.9,1.2-14.1,1.1-21.1,0.1c-0.9-0.1-1.8-0.3-2.7-0.5l0.4-0.1
						c-9.4,5.4-18.5,10.6-27.4,15.7l-1,0.6l0.2-1c1.9-8.4,3.8-16.5,5.6-24.3l0.2,0.4c-8.4-5.3-14.8-12.3-18.9-19.8
						c-2-3.8-3.5-7.6-4.4-11.5c-0.5-1.9-0.8-3.9-0.9-5.8c-0.1-1-0.2-1.9-0.3-2.9c-0.1-0.9,0-1.9,0-2.8c0.2-7.5,2.2-14.5,5.3-20.4
						c3.1-6,7.3-10.9,11.7-14.9c4.3-4,9.2-6.8,13.4-9c4.3-2.1,8.3-3.5,11.6-4.3c1.6-0.4,3.1-0.8,4.4-1.1c1.3-0.2,2.4-0.4,3.3-0.5
						c0.9-0.1,1.5-0.2,2-0.3C397.7,143.2,398,143.2,398,143.2s-0.2,0.1-0.7,0.1c-0.5,0.1-1.1,0.2-2,0.4c-0.9,0.2-2,0.3-3.2,0.6
						c-1.3,0.3-2.7,0.7-4.3,1.1c-3.3,0.9-7.2,2.3-11.4,4.4c-4.2,2.2-8.9,5-13.2,9c-4.3,3.9-8.4,8.9-11.5,14.8
						c-3.1,5.9-5,12.8-5.2,20.2c0,0.9-0.1,1.9,0,2.8c0.1,0.9,0.2,1.9,0.3,2.8c0.1,1.9,0.5,3.8,0.9,5.7c0.9,3.8,2.4,7.6,4.4,11.3
						c4,7.4,10.4,14.3,18.7,19.5l0.2,0.2l-0.1,0.3c-1.8,7.8-3.6,15.9-5.5,24.3l-0.7-0.4c8.9-5.1,18.1-10.4,27.4-15.7l0.2-0.1l0.2,0
						c0.9,0.2,1.8,0.3,2.7,0.5c6.9,1.1,14,1.1,20.8-0.1c6.8-1,13.3-3,19-5.9c11.5-5.8,20.5-14.6,25.2-24.4c2.4-4.9,4.1-9.9,4.6-14.9
						c0.1-0.6,0.2-1.2,0.2-1.9l0-1.9c0-1.2,0.1-2.5,0-3.7c-0.2-2.4-0.3-4.8-0.9-7.1c-0.8-4.7-2.7-9-4.7-13c-1.2-1.9-2.2-3.9-3.6-5.6
						c-0.7-0.9-1.3-1.8-2-2.6c-0.7-0.8-1.5-1.6-2.2-2.4c-5.9-6.2-12.8-10.6-19.4-13.4c-6.6-2.9-12.9-4.1-18-4.8
						c-1.3-0.1-2.5-0.3-3.7-0.4c-1.1-0.1-2.2-0.1-3.2-0.1c-1,0-1.9,0-2.8-0.1c-0.8,0-1.6,0.1-2.3,0.1c-1.3,0.1-2.4,0.1-3.1,0.2
						C398.3,143.2,398,143.2,398,143.2z"/>
				</g>
			</g>
		</g>
	</g>
</g>
<g>
	
		<ellipse transform="matrix(0.9993 -3.749157e-02 3.749157e-02 0.9993 -6.0286 15.4567)" fill="#F3CE63" cx="409.1" cy="168.5" rx="11" ry="17.8"/>
	
		<ellipse transform="matrix(0.1604 -0.9871 0.9871 0.1604 174.2442 576.0348)" fill="#D4A037" cx="425.7" cy="185.6" rx="23" ry="10.7"/>
	
		<ellipse transform="matrix(0.8803 -0.4744 0.4744 0.8803 -43.2359 211.7436)" fill="#7877A7" cx="398" cy="191.5" rx="17.7" ry="15.5"/>
	<path fill="none" stroke="#000000" stroke-width="0.25" stroke-miterlimit="10" d="M400.4,206.8c0,4.6,3.3,8.3,3.4,12.9
		c0.1,4.4-2.9,8.6-5.9,12.3c-1.4,1.7-2.9,3.5-3.4,5.6"/>
	<path fill="none" stroke="#000000" stroke-width="0.25" stroke-miterlimit="10" d="M421.8,208.3c-3.5,7.9-10.6,14.7-19,18.1
		c-1.8,0.8-3.8,1.4-5.5,2.3c-3.8,2-6.7,5.2-9.4,8.4c-1.6,1.8-3.2,4.4-1.9,6.1"/>
	<path fill="none" stroke="#000000" stroke-width="0.25" stroke-miterlimit="10" d="M411.6,199.6c1.3,3.9,0.8,8.4-0.7,12.5
		s-4.1,8-6.9,11.6c-0.7,0.9-1.4,1.8-2.3,2.6c-1.2,1.1-2.8,1.8-4.3,2.5c-3.2,1.5-6.5,3.1-9.7,4.6c-4.1,2-8.8,4.5-9.8,8.6"/>
	<path fill="none" stroke="#000000" stroke-width="0.25" stroke-miterlimit="10" d="M401.2,226.4c-1.2-0.3-2.3-0.8-3.2-1.5
		c0.4-0.2,0.9-0.4,1.3-0.4c0.4,0.8,0.8,1.5,1.2,2.3"/>
	<path fill="none" stroke="#000000" stroke-width="0.25" stroke-miterlimit="10" d="M400.2,227.6c-0.2-0.5-0.4-1-0.5-1.5
		c-0.5-1.4-0.9-2.9-0.3-4.3c0.6-1.4,2.9-2.3,3.8-1.2c1.3,0.6,1,2.5,0.2,3.8c-0.9,1.3-2.2,2.3-2.7,3.8"/>
</g>
<g>
	<line fill="none" stroke="#FFFFFF" stroke-width="0.75" stroke-miterlimit="10" x1="66.6" y1="198.3" x2="109.5" y2="196.7"/>
	<path fill="none" stroke="#FFFFFF" stroke-width="0.75" stroke-miterlimit="10" d="M74.2,203.2c2.3-1.8,10.2-6.4,11.4-5
		c1.2,1.3-4.9,8.1-7.2,9.9s-5,2.2-6.2,0.9C71,207.6,71.9,205,74.2,203.2z"/>
	<path fill="none" stroke="#FFFFFF" stroke-width="0.75" stroke-miterlimit="10" d="M86.5,209.4c-0.7-2.7-1.4-11.6,0.3-12
		c1.8-0.4,5.4,7.8,6.1,10.5c0.7,2.7-0.2,5.3-1.9,5.7C89.2,214,87.2,212.1,86.5,209.4z"/>
	<g>
		<polygon fill="#F3CE63" stroke="#F3CE63" stroke-width="6" stroke-miterlimit="10" points="100,197.6 91.3,215.9 73,216.4 
			63.3,198.6 72,180.3 90.4,179.8 		"/>
		
			<ellipse transform="matrix(0.9996 -2.738953e-02 2.738953e-02 0.9996 -5.0585 2.2974)" fill="#7877A7" cx="81.3" cy="185.8" rx="17.2" ry="13.3"/>
		
			<ellipse transform="matrix(0.9996 -2.653704e-02 2.653704e-02 0.9996 -4.9814 2.7149)" fill="#7877A7" cx="99.8" cy="189" rx="11.1" ry="12.6"/>
		
			<ellipse transform="matrix(0.9996 -2.653704e-02 2.653704e-02 0.9996 -5.0197 1.7686)" fill="#7877A7" cx="64.1" cy="190" rx="11.7" ry="13.3"/>
		<g>
			<g>
				<path fill="#F3CE63" d="M62.6,190.4c3.2,0,3.2-5,0-5C59.4,185.4,59.4,190.4,62.6,190.4L62.6,190.4z"/>
			</g>
		</g>
		<g>
			<g>
				<path fill="#F3CE63" d="M76.6,183.8c3.2,0,3.2-5,0-5C73.4,178.8,73.4,183.8,76.6,183.8L76.6,183.8z"/>
			</g>
		</g>
		<g>
			<g>
				<path fill="#F3CE63" d="M83.4,193.6c3.2,0,3.2-5,0-5C80.2,188.6,80.2,193.6,83.4,193.6L83.4,193.6z"/>
			</g>
		</g>
		<g>
			<g>
				<path fill="#F3CE63" d="M100.2,188.8c3.2,0,3.2-5,0-5C96.9,183.8,96.9,188.8,100.2,188.8L100.2,188.8z"/>
			</g>
		</g>
	</g>
	<line fill="none" stroke="#263238" stroke-width="0.25" stroke-miterlimit="10" x1="73.3" y1="198.9" x2="79.4" y2="218.5"/>
	<line fill="none" stroke="#263238" stroke-width="0.25" stroke-miterlimit="10" x1="91.2" y1="196.7" x2="87.1" y2="217.3"/>
</g>
<g>
	<g>
		<g>
			<path fill="#547FB2" d="M374.3,377.3l-20.5-23l-0.2,28l6.2,18L298.6,411l-2.6-48.6l-4.4-37.3c-0.5-4.6,2.1-8.9,6.3-10.6l16.8-6.7
				l23.7,4.4l9.5,3.6c4,1.5,7.6,4,10.4,7.3l28.7,33"/>
		</g>
	</g>
	<g>
		<g>
			<path fill="#547FB2" d="M352.4,348.8c0-0.1,1.3,0.1,3.5-0.2c2.1-0.3,5-1.4,7.4-3.6c2.4-2.2,3.6-5,4.1-7.1
				c0.5-2.1,0.4-3.4,0.5-3.4c0,0,0.1,0.3,0.1,0.9c0,0.6,0,1.5-0.3,2.6c-0.4,2.1-1.7,5.1-4.1,7.4c-2.5,2.3-5.5,3.3-7.7,3.6
				c-1.1,0.1-2,0.1-2.6,0.1C352.7,348.9,352.4,348.8,352.4,348.8z"/>
		</g>
	</g>
	<g>
		<g>
			<g>
				<path fill="#547FB2" d="M354.2,381.1c0.1,0,0.2-9.7,0.1-21.7c-0.1-12-0.3-21.7-0.4-21.7c-0.1,0-0.2,9.7-0.1,21.7
					C353.8,371.4,354,381.1,354.2,381.1z"/>
			</g>
		</g>
	</g>
</g>
<g>
	<path fill="#547FB2" d="M351.9,388.2l-37-15c-3-1.2-5-4-5.3-7.2l-2.7-35.7c0,0,0.3-15.2-9.1-15.9l-5.4,2.1
		c-6.9,3.7-8.6,13.8-7.7,21.7c1.3,11.1,1.9,26.9,3.4,36.5c1.2,7.9,5.7,14.8,13.4,16.9l45.5,9.9L351.9,388.2z"/>
</g>
<g>
	<g>
		<path fill="#263238" d="M307.5,335.8c0,0,0.1,0.3,0.1,0.8c0.1,0.6,0.1,1.4,0.2,2.4c0.2,2.1,0.5,5,0.8,8.6c0.3,3.7,0.7,8,1.1,12.8
			c0.1,1.2,0.2,2.4,0.3,3.7c0.1,1.3,0.2,2.6,0.5,3.8c0.3,1.3,0.9,2.4,1.8,3.3c1,0.9,2.2,1.6,3.4,2.1c10.2,4.4,19.6,8.1,26.4,10.7
			c3.4,1.3,6.1,2.3,8.1,3c0.9,0.3,1.7,0.6,2.2,0.8c0.5,0.2,0.8,0.3,0.8,0.3c0,0-0.3-0.1-0.8-0.2c-0.6-0.2-1.3-0.4-2.2-0.7
			c-1.9-0.6-4.7-1.6-8.2-2.9c-6.9-2.5-16.3-6.1-26.5-10.6c-1.3-0.6-2.5-1.3-3.5-2.2c-1-1-1.7-2.3-2-3.6c-0.3-1.3-0.4-2.6-0.5-3.9
			c-0.1-1.3-0.2-2.5-0.3-3.7c-0.4-4.8-0.7-9.2-1-12.8c-0.3-3.6-0.5-6.6-0.6-8.7c-0.1-1-0.1-1.8-0.1-2.4
			C307.5,336.1,307.5,335.8,307.5,335.8z"/>
	</g>
</g>
<g>
	<g>
		<path fill="#263238" d="M286.3,355.2c0,0,0,0.2,0.1,0.5c0,0.4,0.1,0.8,0.1,1.4c0.1,1.3,0.3,3,0.4,5.1c0.2,2.1,0.5,4.7,0.8,7.5
			c0.4,2.8,0.8,5.9,1.7,9c0.4,1.6,1,3.1,1.8,4.3c0.8,1.3,1.8,2.4,2.8,3.4c2,2,4,3.5,5.9,4.5c3.8,2,6.5,2,6.5,2.1c0,0-0.2,0-0.5,0
			c-0.3,0-0.8-0.1-1.4-0.2c-1.2-0.2-2.9-0.7-4.8-1.6c-1.9-1-4.1-2.4-6.1-4.5c-1-1-2-2.2-2.8-3.5c-0.9-1.3-1.5-2.9-1.9-4.4
			c-0.9-3.2-1.3-6.3-1.6-9.1c-0.3-2.8-0.6-5.4-0.7-7.5c-0.2-2.1-0.2-3.9-0.3-5.1c0-0.6,0-1,0-1.4
			C286.3,355.3,286.3,355.2,286.3,355.2z"/>
	</g>
</g>
<g>
	<g>
		<path fill="#263238" d="M302.1,380.1c-0.1,0,0.1-0.8,0.7-2c0.6-1.2,1.6-2.7,3.1-4c1.5-1.3,3.2-2.1,4.4-2.5c1.2-0.4,2-0.4,2.1-0.4
			c0,0.1-0.8,0.2-1.9,0.7c-1.2,0.4-2.7,1.3-4.2,2.5c-1.5,1.3-2.5,2.7-3.1,3.8C302.5,379.4,302.2,380.2,302.1,380.1z"/>
	</g>
</g>
<g>
	<g>
		<path fill="#FFFFFF" d="M309.4,353c0,0,0.1,0,0.2,0.1c0.2,0.1,0.4,0.2,0.7,0.3c0.6,0.3,1.5,0.7,2.6,1.1c2.3,0.8,6,1.6,10.4,0.9
			c4.3-0.7,9.4-3.3,12.9-8.1c1.7-2.4,3.1-5.3,3.4-8.4c0.2-1.6,0-3.2-0.5-4.8c-0.5-1.5-1.4-3-2.7-4.1c-1.2-1.1-2.7-1.9-4.3-2.1
			c-1.6-0.3-3.3,0.2-4.3,1.2c-0.5,0.5-0.9,1.2-0.8,2c0,0.7,0.3,1.5,0.7,2c0.9,1.2,2.4,1.8,3.8,2c2.9,0.4,5.7-0.1,8.1-1.2
			c2.4-1,4.3-2.6,5.7-4.3c1.4-1.7,2.3-3.6,2.8-5.3c0.5-1.7,0.7-3.2,0.7-4.5c0-1.3-0.1-2.2-0.2-2.9c-0.1-0.3-0.1-0.5-0.1-0.7
			c0-0.2,0-0.3,0-0.3c0,0,0.5,1.3,0.6,3.9c0,1.3-0.1,2.8-0.6,4.6c-0.5,1.7-1.4,3.6-2.8,5.4c-1.4,1.8-3.4,3.4-5.8,4.5
			c-2.4,1.1-5.3,1.6-8.3,1.2c-1.5-0.2-3.1-0.8-4.1-2.1c-0.5-0.7-0.8-1.5-0.8-2.3c0-0.9,0.4-1.7,1-2.3c1.2-1.2,3.1-1.6,4.8-1.4
			c1.7,0.2,3.3,1.1,4.6,2.2c1.3,1.2,2.3,2.7,2.8,4.3c0.5,1.6,0.7,3.3,0.5,5c-0.3,3.3-1.7,6.3-3.5,8.7c-3.6,4.9-8.8,7.4-13.2,8.1
			c-4.5,0.7-8.2-0.2-10.5-1.1C310.5,353.9,309.4,353,309.4,353z"/>
	</g>
</g>
<g>
	<g>
		<path fill="#FFFFFF" d="M285.2,343.5c0,0,0.2-0.3,0.6-0.8c0.4-0.5,1.1-1.1,2-1.7c1.8-1.4,4.8-2.6,8.2-2.9c1.7-0.2,3.4-0.1,4.8,0.2
			c1.5,0.3,2.7,0.8,3.7,1.3c1,0.5,1.8,1,2.3,1.4c0.5,0.4,0.8,0.6,0.7,0.6c-0.1,0.1-1.2-0.8-3.2-1.7c-2-0.9-5-1.7-8.3-1.3
			c-3.3,0.3-6.2,1.5-8,2.7C286.2,342.5,285.2,343.6,285.2,343.5z"/>
	</g>
</g>
<g>
	<g>
		<path fill="#FFFFFF" d="M291.1,318c0.1-0.1,0.9,1.1,3,2.2c1,0.5,2.3,1,3.8,1.1c1.5,0.2,3.2,0,4.8-0.7c1.6-0.7,2.9-1.8,3.8-2.9
			c0.9-1.2,1.6-2.4,1.9-3.5c0.7-2.2,0.5-3.7,0.6-3.7c0,0,0.1,0.4,0.1,1c0,0.7-0.1,1.6-0.4,2.8c-0.3,1.1-0.9,2.4-1.9,3.7
			c-1,1.2-2.3,2.4-4,3.1c-1.7,0.7-3.5,0.8-5,0.7c-1.6-0.2-2.9-0.7-3.9-1.3c-1-0.6-1.8-1.2-2.2-1.7C291.3,318.3,291.1,318,291.1,318z
			"/>
	</g>
</g>
<g>
	<g>
		<path fill="#FFFFFF" d="M323.3,376.6c0,0,0-0.2,0.1-0.7c0.1-0.5,0.3-1.1,0.7-1.9c0.7-1.6,2.6-3.6,5.5-4.8
			c2.9-1.3,6.9-1.6,10.9-0.4c2,0.6,4.2,1.3,5.7,3.2c0.7,0.9,1,2.4,0.4,3.5c-0.5,1.2-1.6,1.9-2.6,2.5c-1.1,0.5-2.3,0.8-3.5,0.9
			c-1.2,0-2.4-0.3-3.4-1c-0.9-0.8-1.4-1.9-1.5-3.1c-0.1-1.1,0.1-2.2,0.5-3.2c1.6-4,4.8-6.5,7.6-7.8c2.9-1.3,5.5-1.4,7.3-1.3
			c1.8,0.2,2.7,0.6,2.7,0.6c0,0.1-0.9-0.3-2.7-0.4c-1.7-0.1-4.3,0.1-7.1,1.4c-1.4,0.6-2.8,1.6-4.1,2.8c-1.3,1.3-2.5,2.9-3.2,4.8
			c-0.3,0.9-0.5,2-0.5,3c0.1,1,0.5,2.1,1.3,2.7c0.8,0.7,1.9,1,3,0.9c1.1,0,2.3-0.3,3.3-0.8c1-0.5,2-1.3,2.4-2.3c0.5-1,0.3-2.2-0.4-3
			c-0.6-0.9-1.5-1.5-2.5-2c-0.9-0.5-1.9-0.8-2.9-1.1c-3.9-1.2-7.8-1-10.6,0.3c-2.9,1.2-4.7,3.1-5.5,4.6
			C323.4,375.6,323.4,376.7,323.3,376.6z"/>
	</g>
</g>
<g>
	<g>
		<path fill="#FFFFFF" d="M298.7,390.1c0-0.1,1.4-0.2,3.5-1c2.1-0.7,5-2.3,7.3-4.9c2.3-2.6,3.5-5.6,4.1-7.8c0.5-2.2,0.5-3.7,0.6-3.6
			c0,0,0.1,0.4,0.1,1c0,0.6-0.1,1.6-0.3,2.7c-0.4,2.3-1.7,5.4-4,8c-2.4,2.7-5.3,4.2-7.5,4.9c-1.1,0.3-2,0.5-2.7,0.6
			C299.1,390.1,298.7,390.1,298.7,390.1z"/>
	</g>
</g>
<g>
	<g>
		<path fill="#FFFFFF" d="M286.7,362.4c0,0,0.1-0.1,0.4-0.2c0.3-0.1,0.7-0.2,1.3-0.4c1.2-0.3,2.9-0.7,5-0.5c1.1,0.1,2.3,0.3,3.4,0.9
			c1.2,0.5,2.3,1.3,3.2,2.5c0.8,1.2,1.4,2.7,1.2,4.3c-0.1,0.8-0.3,1.6-0.7,2.3c-0.4,0.7-1.1,1.4-1.9,1.6c-0.8,0.3-1.8,0.1-2.5-0.5
			c-0.7-0.6-0.8-1.5-0.9-2.3c-0.1-1.6,0.3-3.1,0.9-4.4c1.2-2.7,3.4-4.4,5.4-5.1c2-0.8,3.9-0.7,5-0.5c0.6,0.1,1,0.2,1.3,0.3
			c0.3,0.1,0.4,0.2,0.4,0.2c0,0-0.6-0.2-1.8-0.3c-1.2-0.1-2.9-0.1-4.9,0.6c-1.9,0.7-4,2.4-5.1,5c-0.6,1.3-0.9,2.7-0.8,4.2
			c0,0.7,0.2,1.5,0.7,2c0.5,0.5,1.3,0.6,2,0.4c0.7-0.2,1.3-0.8,1.7-1.4c0.4-0.6,0.6-1.4,0.7-2.1c0.1-1.5-0.3-2.9-1.1-4
			c-0.8-1.1-1.9-1.9-3-2.4c-1.1-0.5-2.2-0.8-3.3-0.9c-2.1-0.2-3.8,0.1-5,0.4C287.4,362.2,286.7,362.4,286.7,362.4z"/>
	</g>
</g>
<g opacity="0.3">
	<g>
		<path d="M341.3,384c-4-2.2-7.8-4-12-5.9c-4.1-1.9-8.2-4.3-10.9-8c-5.1-6.9-4.5-16.9-9.7-23.7c0.3,4.6,0.7,9.2,1,13.8
			c0.3,4.2-0.3,8.4,2.4,11.2c2.3,2.4,6.7,4.3,9.8,5.3C328.2,378.8,335,381.9,341.3,384"/>
	</g>
</g>
<g>
	<g>
		<path fill="#547FB2" d="M405.5,436.4c0,0,30.9,8.6,32.2,9.1c1.9,0.7,1.6,7.5-1.3,7.4c-1.4-0.1-23.8,0.8-26.6,0.7
			c-2.8-0.2-11.4-3.6-11.4-3.6L405.5,436.4z"/>
	</g>
</g>
<g>
	<g>
		<g>
			<path fill="#263238" d="M383.5,446.2c0.2,0,0.4-1.6,1.4-3.3c1-1.7,2.3-2.7,2.2-2.9c-0.1-0.1-1.6,0.8-2.6,2.6
				C383.3,444.5,383.4,446.3,383.5,446.2z"/>
		</g>
	</g>
</g>
<g>
	<g>
		<g>
			<path fill="#263238" d="M380.3,444.8c0.2,0,0.5-1.4,1.3-3.1c0.8-1.6,1.8-2.8,1.7-2.9c-0.1-0.1-1.3,0.9-2.1,2.6
				C380.2,443.2,380.1,444.8,380.3,444.8z"/>
		</g>
	</g>
</g>
<g>
	<g>
		<g>
			<path fill="#263238" d="M412.2,446c0.2,0,0-1.6,0.7-3.3c0.7-1.7,1.8-2.8,1.7-2.9c-0.1-0.1-1.4,0.8-2.2,2.7
				C411.7,444.4,412,446,412.2,446z"/>
		</g>
	</g>
</g>
<g>
	<g>
		<g>
			<path fill="#263238" d="M412.7,442c0.1,0,0.3-0.9,0.3-2.3c0-0.7-0.1-1.6-0.3-2.5c-0.1-0.5-0.3-1-0.5-1.4
				c-0.1-0.2-0.2-0.5-0.5-0.8c-0.3-0.3-0.8-0.2-1.1,0.1c-0.3,0.2-0.4,0.6-0.4,0.9c0,0.3,0,0.6,0,0.8c0,0.5,0.1,1,0.2,1.5
				c0.2,1,0.6,1.7,1,2.4c0.7,1.3,1.3,1.9,1.4,1.9c0.1,0-0.4-0.8-1.1-2c-0.3-0.6-0.6-1.4-0.8-2.3c-0.1-0.4-0.1-0.9-0.1-1.4
				c0-0.5,0-1.1,0.3-1.3c0.1-0.1,0.3-0.1,0.4,0c0.1,0.1,0.3,0.3,0.3,0.5c0.2,0.5,0.3,0.9,0.5,1.4c0.2,0.9,0.4,1.7,0.4,2.4
				C412.8,441.1,412.6,442,412.7,442z"/>
		</g>
	</g>
</g>
<g>
	<g>
		<g>
			<path fill="#263238" d="M412.7,441.7c0-0.1-0.7-0.3-2-0.3c-0.6,0-1.4,0.1-2.2,0.3c-0.4,0.1-0.8,0.2-1.3,0.5
				c-0.4,0.2-0.9,0.8-0.7,1.4c0.1,0.6,0.6,1,1.1,1.1c0.5,0.1,1,0.1,1.4,0c0.8-0.2,1.5-0.6,2-1c1-0.8,1.5-1.4,1.4-1.4
				c-0.1-0.1-0.6,0.4-1.6,1.1c-0.5,0.3-1.1,0.7-1.9,0.8c-0.4,0.1-0.8,0.1-1.1,0c-0.4-0.1-0.7-0.4-0.8-0.7c-0.1-0.3,0.1-0.7,0.5-0.9
				c0.3-0.2,0.7-0.3,1.1-0.4c0.8-0.2,1.5-0.3,2.1-0.4C411.9,441.6,412.7,441.7,412.7,441.7z"/>
		</g>
	</g>
</g>
<g>
	<g>
		<g>
			<path fill="#263238" d="M388.2,446.6c0.2,0,0-1.3,0.6-2.8c0.6-1.5,1.6-2.3,1.5-2.4c-0.1-0.1-1.3,0.6-2,2.2
				C387.7,445.2,388.1,446.6,388.2,446.6z"/>
		</g>
	</g>
</g>
<g>
	<g>
		<g>
			<path fill="#263238" d="M401.6,450.1c0,0,0.4,0.2,1.2,0.6c0.8,0.3,2,0.7,3.4,1.1c3,0.8,7.2,1.2,11.8,1.1
				c4.6-0.1,8.8-0.3,11.8-0.4c1.4-0.1,2.6-0.1,3.6-0.2c0.8-0.1,1.3-0.1,1.3-0.1c0,0-0.5-0.1-1.3-0.1c-1,0-2.2,0-3.6,0
				c-3.1,0.1-7.3,0.1-11.8,0.2c-4.6,0-8.8-0.3-11.7-1C403.3,450.7,401.6,450,401.6,450.1z"/>
		</g>
	</g>
</g>
<g>
	<g>
		<g>
			<path fill="#263238" d="M400.7,450.8c0,0.1,0.9-0.4,2.3-1.1c1.4-0.6,3.5-1.3,5.9-1c2.3,0.4,4,1.9,5.1,3c1.1,1.1,1.7,1.9,1.8,1.8
				c0,0-0.5-0.9-1.5-2.1c-0.5-0.6-1.2-1.3-2.1-1.9c-0.9-0.6-2-1.2-3.2-1.4c-2.5-0.4-4.7,0.5-6.1,1.2
				C401.4,450.1,400.6,450.7,400.7,450.8z"/>
		</g>
	</g>
</g>
<g>
	<g>
		<g>
			<path fill="#547FB2" d="M372.7,427.8c0,0-29.3,19.3-30.3,20.1c-1.6,1.2,0.2,6.9,3,5.9c1.3-0.5,25.9-7.3,28.5-8.4
				c2.6-1,9.8-6.9,9.8-6.9L372.7,427.8z"/>
		</g>
	</g>
	<g>
		<g>
			<g>
				<path fill="#263238" d="M364,443.1c0.1,0-0.4-1.7-2-3.2c-1.6-1.4-3.3-1.8-3.3-1.7c-0.1,0.1,1.5,0.7,2.9,2.1
					C363.2,441.6,363.9,443.1,364,443.1z"/>
			</g>
		</g>
	</g>
	<g>
		<g>
			<g>
				<path fill="#263238" d="M366.6,440.7c0.1,0-0.4-1.5-1.8-2.9c-1.3-1.4-2.8-2-2.8-1.9c-0.1,0.1,1.2,0.9,2.5,2.2
					C365.8,439.4,366.5,440.7,366.6,440.7z"/>
			</g>
		</g>
	</g>
	<g>
		<g>
			<g>
				<path fill="#263238" d="M369.3,439c0.1,0,0-1.7-1.3-3.2c-1.3-1.6-2.9-2.1-2.9-1.9c-0.1,0.1,1.3,0.8,2.5,2.3
					C368.8,437.5,369.1,439,369.3,439z"/>
			</g>
		</g>
	</g>
	<g>
		<g>
			<g>
				<path fill="#263238" d="M367.5,435.3c0.1,0-0.3-0.8-0.7-2.2c-0.2-0.7-0.3-1.5-0.3-2.4c0-0.5,0-1,0-1.5c0-0.2,0.1-0.5,0.2-0.6
					c0.1-0.1,0.2-0.2,0.4-0.1c0.3,0.1,0.5,0.7,0.7,1.2c0.1,0.5,0.2,0.9,0.3,1.4c0.1,0.9,0,1.8-0.1,2.5c-0.2,1.4-0.5,2.2-0.4,2.3
					c0.1,0,0.5-0.8,0.8-2.2c0.1-0.7,0.3-1.6,0.2-2.6c0-0.5-0.1-1-0.3-1.5c-0.1-0.3-0.2-0.5-0.3-0.8c-0.1-0.3-0.3-0.6-0.7-0.7
					c-0.3-0.2-0.8-0.1-1,0.3c-0.2,0.3-0.2,0.6-0.2,0.9c0,0.5,0,1,0,1.5c0.1,1,0.3,1.8,0.5,2.5C367,434.6,367.5,435.3,367.5,435.3z"
					/>
			</g>
		</g>
	</g>
	<g>
		<g>
			<g>
				<path fill="#263238" d="M367.5,435c0,0.1,0.7-0.3,1.9-0.6c0.6-0.1,1.3-0.3,2.1-0.3c0.4,0,0.8,0,1.2,0.1c0.4,0.1,0.7,0.3,0.7,0.7
					c0,0.4-0.2,0.7-0.5,0.9c-0.3,0.2-0.7,0.3-1.1,0.4c-0.8,0.1-1.5-0.1-2.1-0.2c-1.2-0.3-1.9-0.6-1.9-0.6c0,0.1,0.6,0.5,1.8,0.9
					c0.6,0.2,1.3,0.4,2.2,0.3c0.4,0,0.9-0.1,1.3-0.4c0.4-0.3,0.8-0.8,0.7-1.4c0-0.6-0.6-1.1-1.1-1.1c-0.5-0.1-0.9-0.1-1.3-0.1
					c-0.8,0.1-1.6,0.2-2.2,0.4C368.1,434.5,367.4,434.9,367.5,435z"/>
			</g>
		</g>
	</g>
	<g>
		<g>
			<g>
				<path fill="#263238" d="M349.1,452.7c0,0,0.5-0.3,0.7-1.1c0.2-0.8,0.1-2.1-0.5-3.2c-0.3-0.6-0.7-1-1-1.5c-0.3-0.4-0.7-0.8-1-1.1
					c-0.3-0.3-0.7-0.4-0.9-0.4c-0.2,0-0.4,0-0.4,0.1c0,0.1,0.5,0,1.1,0.6c0.3,0.3,0.5,0.6,0.8,1.1c0.3,0.4,0.6,0.9,0.9,1.4
					c0.6,1,0.8,2.1,0.6,2.9C349.3,452.3,349,452.7,349.1,452.7z"/>
			</g>
		</g>
	</g>
	<g>
		<g>
			<g>
				<path fill="#263238" d="M359.6,444.8c0.1,0,0.1-1.5-1-2.8c-1.1-1.4-2.6-1.7-2.6-1.5c-0.1,0.1,1.2,0.6,2.2,1.9
					C359.2,443.5,359.4,444.9,359.6,444.8z"/>
			</g>
		</g>
	</g>
	<g>
		<g>
			<g>
				<path fill="#263238" d="M380.6,439.6c0,0-0.5,0.3-1.3,0.9c-0.8,0.6-2,1.4-3.6,2.2c-1.6,0.9-3.5,1.7-5.7,2.6
					c-2.2,0.8-4.7,1.6-7.3,2.4c-5.3,1.5-10,2.9-13.5,4c-1.6,0.5-3,0.9-4.1,1.3c-1,0.3-1.5,0.5-1.5,0.5c0,0,0.6-0.1,1.5-0.3
					c1.1-0.3,2.4-0.7,4.1-1.1c3.5-1,8.2-2.3,13.5-3.8c2.6-0.8,5.1-1.6,7.4-2.4c2.2-0.9,4.2-1.8,5.7-2.7c1.6-0.9,2.8-1.8,3.6-2.4
					C380.2,440,380.6,439.6,380.6,439.6z"/>
			</g>
		</g>
	</g>
	<g>
		<g>
			<g>
				<path fill="#263238" d="M381.7,440c0-0.1-0.9-0.4-2.5-0.7c-1.5-0.2-3.9-0.4-6.2,0.8c-1.1,0.6-2,1.4-2.6,2.3
					c-0.6,0.9-1.1,1.7-1.4,2.5c-0.6,1.5-0.9,2.4-0.8,2.4c0.1,0,0.5-0.9,1.1-2.3c0.7-1.4,1.8-3.4,3.9-4.4c2.1-1.1,4.3-1,5.9-0.9
					C380.7,439.9,381.6,440.1,381.7,440z"/>
			</g>
		</g>
	</g>
</g>
<g>
	<g>
		<g>
			<path fill="#263238" d="M433.5,380.8c0,0,8.8,3.2,8.8,13.1c0.1,19-38.1,39.9-38.1,39.9l-50.8-33.9l-3.2-1.3
				C350.2,398.6,418.8,372.6,433.5,380.8z"/>
		</g>
	</g>
	<g>
		<g>
			<g>
				<path fill="#455A64" d="M379.2,417c0,0,0.5-0.3,1.3-0.9c0.8-0.6,2-1.5,3.5-2.6c2.9-2.3,6.9-5.5,11.1-9.1c4.3-3.7,8-7.1,10.7-9.7
					c1.3-1.3,2.4-2.3,3.1-3.1c0.7-0.7,1.1-1.2,1.1-1.2c0,0-0.5,0.3-1.2,1c-0.8,0.8-1.9,1.7-3.2,2.9c-2.7,2.5-6.5,5.9-10.8,9.6
					c-4.3,3.7-8.2,6.9-11,9.3c-1.4,1.1-2.5,2.1-3.4,2.8C379.6,416.6,379.1,416.9,379.2,417z"/>
			</g>
		</g>
	</g>
	<g>
		<g>
			<g>
				<path fill="#455A64" d="M419.2,387.9c0-0.1-2.2-0.4-4.9,0.4c-2.7,0.8-4.4,2.2-4.4,2.3c0.1,0.1,1.9-1.1,4.5-1.8
					C417,388,419.2,388,419.2,387.9z"/>
			</g>
		</g>
	</g>
	<g>
		<g>
			<g>
				<path fill="#455A64" d="M414.8,384.9c0-0.1-1.7,0.6-3,2.3c-1.4,1.7-1.7,3.4-1.6,3.4c0.1,0.1,0.7-1.5,2-3.1
					C413.5,385.9,414.9,385,414.8,384.9z"/>
			</g>
		</g>
	</g>
	<g>
		<g>
			<g>
				<path fill="#263238" d="M436.3,445c0-0.1-0.6-0.2-1.3,0.4c-0.7,0.6-1.3,1.7-1.5,3c-0.2,1.3,0.1,2.5,0.5,3.3
					c0.4,0.8,0.8,1.1,0.8,1.1c0.1,0-0.2-0.5-0.5-1.2c-0.3-0.8-0.5-1.9-0.3-3.1c0.2-1.2,0.7-2.2,1.2-2.8
					C435.8,445.1,436.3,445.1,436.3,445z"/>
			</g>
		</g>
	</g>
</g>
<g>
	<g>
		<polygon fill="#455A64" points="421.8,349.8 403.7,395.9 325.8,397.2 324.4,393 351.7,392 364.8,351 		"/>
	</g>
	<g>
		<path fill="#EBEBEB" d="M385.5,369.8c1-0.7,2.8-0.4,3.7,0.4c0.9,0.8,1.2,2.2,0.7,3.3c-0.5,1.1-1.6,1.9-2.8,2c-1.3,0.1-2.6-0.7-3-2
			C383.8,372.3,384.2,370.4,385.5,369.8"/>
	</g>
</g>
<g>
	<g>
		<g>
			<path fill="#263238" d="M407.3,434c0,0-71.8-47.4-74.7-48.4c-2.9-1-10-5.7-17.1-3.7c-7.1,2-13.5,8.4-16.7,17.7
				c-1.8,5.4-2.7,14.5-3.1,21.3c-0.5,8.2,2,16.3,7.4,22.6c2.4,2.8,5.4,5.3,9,6.4c0.7,0.2,1.5,0.4,2.3,0.6c13.6,3,27.5-3.2,35.1-14.8
				l1.7-2.6c0,0,47,17.4,47.7,17.1L407.3,434z"/>
		</g>
	</g>
	<g>
		<g>
			<g>
				<path fill="#263238" d="M318.5,421c0,0,0.1,0.1,0.4,0.2c0.3,0.1,0.7,0.3,1.2,0.5c1.1,0.4,2.6,1,4.6,1.8c4,1.5,9.8,3.7,16.9,6.4
					c7.2,2.7,15.8,5.9,25.4,9.4c9.7,3.5,20.4,7.4,31.8,11.3l0.2,0.1l0.1-0.2c1.8-3.4,3.7-7.1,5.6-10.8c1-1.9,2-3.8,2.9-5.5l0.1-0.2
					l-0.2-0.1c-21.6-13.8-40.8-26.1-54.8-35c-6.9-4.4-12.6-8-16.4-10.4c-1.9-1.2-3.4-2.2-4.5-2.8c-0.5-0.3-0.9-0.5-1.2-0.7
					c-0.3-0.2-0.4-0.2-0.4-0.2s0.1,0.1,0.4,0.3c0.3,0.2,0.7,0.4,1.1,0.8c1,0.7,2.5,1.6,4.4,2.9c3.9,2.5,9.4,6.1,16.4,10.6
					c13.9,8.9,33.1,21.3,54.7,35.1l-0.1-0.3c-0.9,1.7-1.9,3.6-2.9,5.5c-1.9,3.7-3.8,7.3-5.6,10.8l0.3-0.1
					c-11.4-3.9-22.1-7.7-31.8-11.2c-9.6-3.5-18.3-6.7-25.5-9.3c-7.2-2.7-13-4.8-17-6.3c-2-0.7-3.5-1.3-4.6-1.7
					c-0.5-0.2-0.9-0.3-1.2-0.4C318.6,421,318.5,421,318.5,421z"/>
			</g>
		</g>
	</g>
</g>
<g>
	<g>
		<path fill="#263238" d="M327.7,254.7c1.2-3.3,3.9-4.8,7.4-5.6c3.4-0.8,7.2,0.2,9.8,2.6c1.7,1.6,3,3.8,5.2,4.8
			c3.5,1.6,8.1-0.7,11.4,1.2c2,1.2,3,3.8,2.2,6c-0.8,2.2-3.2,3.7-5.4,3.3c2.3,1.1,2.7,4.6,1.1,6.6c-1.6,2-4.5,2.6-7,1.9
			c-2.5-0.7-4.5-2.4-6.2-4.3c-1.7-1.9-3.3-4-5.1-5.7c-1.9-1.7-4.2-3.1-6.8-3.2c-3.4-0.1-6.6,2.2-8.4,5.2c-1.8,3-2.5,6.5-3,9.9
			c-0.5,3.4-0.9,6.9-2.2,10.2c-0.2,0.4-0.4,0.8-0.8,0.9c-0.6,0.1-1-0.5-1.2-1.1c-2.6-6.1-4-12.8-4-19.4c0-3.9,0.4-7.5,2.8-10.5
			C319.8,254.4,325.3,252.5,327.7,254.7"/>
	</g>
	<g>
		<g>
			<g>
				<g>
					<g>
						<g>
							<g>
								<g>
									<g>
										<g>
											<g>
												<g>
													<g>
														<g>
															<path fill="#FFBE9D" d="M319.6,270.2l-5.3,38.6c-0.9,6.6,3.8,12.5,10.4,13.1l0,0c6.1,0.5,11.6-3.9,12.4-10
																c0.4-2.9,0.7-5.3,0.8-5.6c0,0,9.9,0.4,11.9-9.2c1-4.7,2.2-14.4,3.3-23.2c1.1-9.5-5.2-18.2-14.5-20.1l-0.9-0.2
																C327.6,252.1,320.7,260,319.6,270.2z"/>
														</g>
													</g>
												</g>
											</g>
										</g>
									</g>
								</g>
							</g>
							<g>
								<g>
									<g>
										<g>
											<g>
												<g>
													<g>
														<g>
															<path fill="#EB996E" d="M338,306.1c0,0-6.2-0.7-11.8-6.1c0,0,1.6,7.5,11.3,8.6L338,306.1z"/>
														</g>
													</g>
												</g>
											</g>
										</g>
									</g>
								</g>
							</g>
						</g>
					</g>
				</g>
				<g>
					<g>
						<g>
							<g>
								<g>
									<g>
										<g>
											<g>
												<g>
													<g>
														<g>
															<g>
																<g>
																	<g>
																		<path fill="#263238" d="M349,279.7c-0.1,0.7-0.8,1.2-1.6,1.1c-0.8-0.1-1.3-0.8-1.2-1.5c0.1-0.7,0.8-1.2,1.6-1.1
																			C348.6,278.3,349.1,279,349,279.7z"/>
																	</g>
																</g>
															</g>
														</g>
													</g>
												</g>
											</g>
										</g>
										<g>
											<g>
												<g>
													<g>
														<g>
															<g>
																<g>
																	<g>
																		<g>
																			<path fill="#263238" d="M350.1,278.2c-0.2,0.1-1.1-0.8-2.6-1.1c-1.5-0.3-2.7,0.2-2.8,0c-0.1-0.1,0.2-0.4,0.7-0.6
																				c0.5-0.3,1.4-0.4,2.3-0.2c0.9,0.2,1.6,0.7,2,1.1C350.1,277.7,350.2,278.1,350.1,278.2z"/>
																		</g>
																	</g>
																</g>
															</g>
														</g>
													</g>
												</g>
											</g>
										</g>
									</g>
									<g>
										<g>
											<g>
												<g>
													<g>
														<g>
															<g>
																<g>
																	<g>
																		<path fill="#263238" d="M334.5,277.3c-0.1,0.7-0.8,1.2-1.6,1.1c-0.8-0.1-1.3-0.8-1.2-1.5c0.1-0.7,0.8-1.2,1.6-1.1
																			C334.1,275.9,334.6,276.6,334.5,277.3z"/>
																	</g>
																</g>
															</g>
														</g>
													</g>
												</g>
											</g>
										</g>
										<g>
											<g>
												<g>
													<g>
														<g>
															<g>
																<g>
																	<g>
																		<g>
																			<path fill="#263238" d="M335.6,275.5c-0.2,0.1-1.1-0.8-2.6-1.1c-1.5-0.3-2.7,0.2-2.8,0c-0.1-0.1,0.2-0.4,0.7-0.6
																				c0.5-0.3,1.4-0.4,2.3-0.2c0.9,0.2,1.6,0.7,2,1.1C335.6,275.1,335.7,275.5,335.6,275.5z"/>
																		</g>
																	</g>
																</g>
															</g>
														</g>
													</g>
												</g>
											</g>
										</g>
									</g>
									<g>
										<g>
											<g>
												<g>
													<g>
														<g>
															<g>
																<g>
																	<g>
																		<path fill="#263238" d="M338.7,287.6c0-0.1,1-0.1,2.5,0c0.4,0,0.8,0,0.9-0.2c0.1-0.3,0.1-0.7,0-1.2
																			c-0.2-1-0.4-2-0.5-3.1c-0.7-4.4-1.2-8-1-8c0.2,0,0.9,3.5,1.6,7.9c0.2,1.1,0.3,2.1,0.5,3.1c0.1,0.5,0.2,1-0.1,1.5
																			c-0.2,0.3-0.5,0.4-0.7,0.4c-0.3,0-0.5,0-0.7,0C339.6,287.9,338.7,287.7,338.7,287.6z"/>
																	</g>
																</g>
															</g>
														</g>
													</g>
												</g>
											</g>
										</g>
									</g>
									<g>
										<g>
											<g>
												<g>
													<g>
														<g>
															<g>
																<g>
																	<g>
																		<path fill="#263238" d="M334.2,287.8c0.2,0-0.1,1.6,1.1,3.1c1.1,1.4,2.9,1.6,2.8,1.8c0,0.1-0.4,0.2-1.2,0.1
																			c-0.7-0.1-1.7-0.6-2.4-1.4c-0.7-0.9-0.9-1.9-0.8-2.5C333.8,288.1,334.1,287.7,334.2,287.8z"/>
																	</g>
																</g>
															</g>
														</g>
													</g>
												</g>
											</g>
										</g>
									</g>
								</g>
							</g>
						</g>
						<g>
							<g>
								<g>
									<g>
										<g>
											<g>
												<g>
													<g>
														<path fill="#263238" d="M337.1,269.8c-0.2,0.4-1.7-0.1-3.4-0.3c-1.8-0.2-3.3,0.1-3.4-0.4c-0.1-0.2,0.3-0.5,0.9-0.8
															c0.6-0.3,1.6-0.5,2.7-0.4c1.1,0.1,2,0.5,2.6,0.8C336.9,269.2,337.2,269.6,337.1,269.8z"/>
													</g>
												</g>
											</g>
										</g>
									</g>
								</g>
							</g>
						</g>
						<g>
							<g>
								<g>
									<g>
										<g>
											<g>
												<g>
													<g>
														<path fill="#263238" d="M350.4,273.8c-0.3,0.3-1.3-0.3-2.5-0.5c-1.2-0.3-2.3-0.2-2.5-0.6c-0.1-0.2,0.2-0.5,0.7-0.7
															c0.5-0.2,1.3-0.3,2.1-0.1c0.8,0.2,1.5,0.6,1.9,1.1C350.5,273.2,350.6,273.6,350.4,273.8z"/>
													</g>
												</g>
											</g>
										</g>
									</g>
								</g>
							</g>
						</g>
					</g>
				</g>
			</g>
		</g>
	</g>
	<g>
		<g>
			<g>
				<g>
					<g>
						<g>
							<g>
								<g>
									<g>
										<path fill="#FFBE9D" d="M319,277.5c-0.1-0.1-6.2-3.3-7.3,3.4c-1.1,6.6,5.8,6.4,5.8,6.2C317.5,286.8,319,277.5,319,277.5z"
											/>
									</g>
								</g>
							</g>
						</g>
					</g>
				</g>
			</g>
		</g>
		<g>
			<g>
				<g>
					<g>
						<g>
							<g>
								<g>
									<g>
										<g>
											<path fill="#EB996E" d="M315.9,284.2c0,0-0.1,0.1-0.3,0.1c-0.2,0.1-0.5,0.1-0.9-0.1c-0.7-0.4-1.1-1.6-0.9-2.8
												c0.1-0.6,0.3-1.2,0.6-1.6c0.3-0.5,0.7-0.7,1-0.7c0.4,0,0.6,0.2,0.6,0.4c0.1,0.2,0,0.3,0,0.3c0,0,0.2-0.1,0.2-0.4
												c0-0.1-0.1-0.3-0.2-0.5c-0.1-0.2-0.4-0.3-0.6-0.3c-0.5,0-1.1,0.3-1.4,0.8c-0.3,0.5-0.6,1.1-0.7,1.8
												c-0.2,1.3,0.3,2.7,1.2,3.1c0.4,0.2,0.9,0.1,1.1,0C315.8,284.3,315.9,284.2,315.9,284.2z"/>
										</g>
									</g>
								</g>
							</g>
						</g>
					</g>
				</g>
			</g>
		</g>
	</g>
	<g>
		<path fill="#263238" d="M355.5,272.2c-4.4,0.3-9-1.7-11.7-5.3c-1.9-2.5-3.2-5.7-5.9-7.2c-1.8-1-4.1-1-6.1-0.4
			c-2,0.6-3.8,1.9-5.3,3.3c0.9,5.3-1.5,10.5-3.7,15.3c-0.3,0.5-0.5,1.1-1.1,1.4c-0.9,0.4-2-0.3-2.5-1.1c-0.9-1.4-1-3.1-0.9-4.7
			c0.1-3.7,0.7-7.3,2.2-10.7c1.5-3.3,3.8-6.3,6.9-8.3c3.8-2.5,8.7-3.2,13.1-2.2c4.4,1,8.5,3.5,11.5,6.9c1.4,1.6,2.6,3.4,3.1,5.5"/>
	</g>
</g>
</svg>
