<?xml version="1.0" encoding="iso-8859-1"?>
<!-- Generator: Adobe Illustrator 24.1.2, SVG Export Plug-In . SVG Version: 6.00 Build 0)  -->
<svg version="1.1" id="&#x421;&#x43B;&#x43E;&#x439;_1"
	 xmlns="http://www.w3.org/2000/svg" xmlns:xlink="http://www.w3.org/1999/xlink" x="0px" y="0px" viewBox="0 0 500 500"
	 enable-background="new 0 0 500 500" xml:space="preserve">
<g>
	<g>
		<g>
			<g>
				<g>
					<rect x="317.6" y="156.8" fill="#E0E0E0" width="55.1" height="84.4"/>
				</g>
			</g>
		</g>
		<g>
			<g>
				<g>
					<rect x="314.8" y="156.8" fill="#F5F5F5" width="55.1" height="84.4"/>
				</g>
			</g>
		</g>
		<g>
			<g>
				<g>
					<g>
						<rect x="321.7" y="165.9" fill="#FFFFFF" width="41.4" height="66.1"/>
					</g>
				</g>
			</g>
			<g>
				<g>
					<g>
						<g>
							<path fill="#E0E0E0" d="M363.1,232c0,0,0-0.1,0-0.3c0-0.2,0-0.5,0-0.9c0-0.8,0-2,0-3.6c0-3.2,0-7.8,0-13.6
								c0-11.7,0-28.2-0.1-47.6l0.1,0.1c-12.7,0-26.7,0-41.4,0h0l0.1-0.2c0,24.9,0,47.9,0,66.1l-0.1-0.1c12.6,0,23,0.1,30.2,0.1
								c3.6,0,6.4,0,8.3,0c1,0,1.7,0,2.2,0C362.8,232,363.1,232,363.1,232s-0.2,0-0.7,0c-0.5,0-1.2,0-2.2,0c-1.9,0-4.7,0-8.3,0
								c-7.2,0-17.6,0-30.2,0.1l-0.1,0V232c0-18.2,0-41.2,0-66.1l0-0.2h0.2h0c14.7,0,28.8,0,41.4,0l0.1,0l0,0.1
								c0,19.5-0.1,36-0.1,47.7c0,5.8,0,10.4,0,13.6c0,1.6,0,2.8,0,3.6c0,0.4,0,0.7,0,0.9C363.1,231.9,363.1,232,363.1,232z"/>
						</g>
					</g>
				</g>
			</g>
		</g>
		<g>
			<g>
				<g>
					<g>
						<path fill="none" stroke="#FBFBFB" stroke-width="0.25" stroke-miterlimit="10" d="M361.2,166.4"/>
					</g>
				</g>
			</g>
		</g>
		<g>
			<g>
				<g>
					<g>
						<path fill="#E0E0E0" d="M370.1,156.8c0,0-0.3,0.6-1,1.5c-0.6,0.9-1.5,2.1-2.6,3.5c-1,1.3-2,2.5-2.7,3.3
							c-0.7,0.8-1.2,1.3-1.2,1.3c0,0,0.4-0.6,1.1-1.5c0.7-0.9,1.6-2.1,2.7-3.4c1-1.3,1.9-2.5,2.7-3.4
							C369.6,157.3,370.1,156.8,370.1,156.8z"/>
					</g>
				</g>
			</g>
		</g>
		<g>
			<g>
				<g>
					<g>
						<path fill="#FFFFFF" d="M363.3,231.8c2.1,3.5,4.5,6.7,7.2,9.5"/>
					</g>
				</g>
			</g>
			<g>
				<g>
					<g>
						<g>
							<path fill="#E0E0E0" d="M370.5,241.4c0,0-0.5-0.4-1.3-1.2c-0.7-0.8-1.7-1.9-2.7-3.2c-1-1.3-1.8-2.6-2.4-3.5
								c-0.6-0.9-0.9-1.5-0.8-1.6c0,0,0.4,0.5,1,1.4c0.6,0.9,1.5,2.1,2.5,3.5c1,1.3,1.9,2.5,2.6,3.3
								C370.1,240.8,370.6,241.3,370.5,241.4z"/>
						</g>
					</g>
				</g>
			</g>
		</g>
		<g>
			<g>
				<g>
					<g>
						<path fill="#FFFFFF" d="M314.8,241.1c2.4-3.1,4.8-6.3,7.2-9.4"/>
					</g>
				</g>
			</g>
			<g>
				<g>
					<g>
						<g>
							<path fill="#E0E0E0" d="M322,231.7c0.1,0.1-1.5,2.2-3.5,4.8c-2,2.6-3.7,4.7-3.7,4.6c-0.1-0.1,1.5-2.2,3.5-4.8
								C320.3,233.7,322,231.6,322,231.7z"/>
						</g>
					</g>
				</g>
			</g>
		</g>
		<g>
			<g>
				<g>
					<g>
						<path fill="#E0E0E0" d="M314.8,156.8c0.1-0.1,1.6,1.9,3.5,4.4c1.9,2.5,3.3,4.6,3.3,4.6c-0.1,0.1-1.6-1.9-3.5-4.4
							C316.2,158.9,314.8,156.8,314.8,156.8z"/>
					</g>
				</g>
			</g>
		</g>
		<g>
			<g>
				<g>
					<rect x="336.3" y="179.3" fill="#E0E0E0" width="13.9" height="41.6"/>
				</g>
			</g>
		</g>
	</g>
	<g>
		<g>
			<g>
				<g>
					<path fill="#F5F5F5" d="M263.1,392.9c-5.1,1.6-9.1,5.8-11.5,10.7c-2.4,5-3.2,10.6-3.3,16.2c-0.1,10.8,4.3,22.2,9.4,31.5
						c9.4-6.7,13-20,14.4-26.9C274.3,413.5,272,392.4,263.1,392.9"/>
				</g>
			</g>
		</g>
		<g>
			<g>
				<g>
					<path fill="#F5F5F5" d="M245.7,467.5c2.1-5.8,0.5-12.7-3.4-17.4c-3.9-4.7-9.7-7.2-15.6-7.5c-2.7-0.1-5.7,0.3-7.5,2.4
						c-1.7,2-1.9,5.1-1,7.6c0.9,2.5,2.7,4.6,4.7,6.3C229.6,464.6,237.1,469,245.7,467.5"/>
				</g>
			</g>
		</g>
		<g>
			<g>
				<g>
					<g>
						<path fill="#E0E0E0" d="M252.7,493.3c0.1,0,0.1-2.7-0.3-7.1c-0.2-2.2-0.8-4.8-1.7-7.6c-0.9-2.7-1.9-5.8-3.4-8.8
							c-2.9-6.1-7-10.7-10.5-13.2c-1.7-1.3-3.3-2-4.4-2.5c-1.1-0.4-1.7-0.6-1.7-0.5c-0.1,0.2,2.4,1.1,5.6,3.7
							c3.3,2.6,7.1,7.1,9.9,13c1.4,2.9,2.4,5.9,3.4,8.6c1,2.7,1.6,5.2,1.9,7.3C252.3,490.6,252.6,493.4,252.7,493.3z"/>
					</g>
				</g>
			</g>
		</g>
		<g>
			<g>
				<g>
					<g>
						<path fill="#E0E0E0" d="M263.4,409.1c-0.1,0-0.3,1.2-0.8,3.5c-0.4,2.3-1,5.6-1.6,9.6c-1.3,8.2-3,19.4-4.6,31.9
							c-1.6,12.5-2.7,23.9-3.4,32.1c-0.3,4.1-0.6,7.5-0.7,9.8c-0.1,2.3-0.1,3.6-0.1,3.6c0.1,0,0.3-1.3,0.5-3.6
							c0.3-2.5,0.6-5.8,1-9.7c0.9-8.2,2.1-19.6,3.7-32.1c1.7-12.4,3.2-23.6,4.3-32c0.5-3.9,1-7.2,1.3-9.7
							C263.4,410.4,263.5,409.1,263.4,409.1z"/>
					</g>
				</g>
			</g>
		</g>
		<g>
			<g>
				<g>
					<path fill="#F5F5F5" d="M258,473.2c5.1-11.9,15.9-21,28.1-23.3c3.1-0.6,6.9-0.5,8.6,2.3c1.7,2.8,0.2,6.5-1.7,9.2
						c-7.8,11.2-22.4,16.5-35.1,12.7"/>
				</g>
			</g>
		</g>
		<g>
			<g>
				<g>
					<g>
						<path fill="#E0E0E0" d="M281.8,458.6c0-0.1-0.6,0.1-1.8,0.4c-1.1,0.3-2.7,0.9-4.6,1.6c-3.8,1.6-9.1,4.1-13.9,8.6
							c-2.3,2.3-4.2,4.9-5.5,7.4c-1.3,2.6-2,5.1-2.5,7.2c-0.4,2.1-0.6,3.9-0.6,5.1c0,1.2,0,1.9,0.1,1.9c0.2,0,0.3-2.7,1.3-6.8
							c0.6-2,1.3-4.5,2.7-6.9c1.3-2.4,3.1-4.9,5.4-7.1c4.5-4.4,9.7-6.9,13.4-8.7C279.5,459.7,281.8,458.7,281.8,458.6z"/>
					</g>
				</g>
			</g>
		</g>
	</g>
	<g>
		<g>
			<g>
				<g>
					<g>
						<path fill="#F5F5F5" d="M472.6,189.5c0,0-11.5-3.6-16.2,24.4c-4.7,28-5,43.4-5,43.4s-1.6,6.1-5.9,3.8
							c-4.3-2.2-11.5-10.2-16.6-6.7c-5.3,3.6-5.2,11.1-1.2,20.8c4,9.7,12.1,31.3,12.8,33.3c0.7,1.9,0.5,5.2-2.6,4.1
							c-3.1-1-23.1-13.7-28.3-3.4c-5.1,10.4,10.3,35.5,11.9,38.3c1.6,2.8,1.5,4.3,0.3,5.4c-1.1,1.2-7.5-3.7-13.3-7.1
							c-5.8-3.4-13.1-6.2-15.6,0.1c-2.5,6.2,2.2,27.3,30.6,54.8l13.9,11.8l16.8-6.5c35.2-16.3,46.2-34.6,45.7-41.4
							c-0.4-6.8-8.2-6.6-14.8-5.4c-6.5,1.2-14,3.7-14.8,2.2s-0.4-3,2-5c2.4-2.1,24.7-20.5,23-32.1c-1.7-11.6-24.5-6.4-27.8-6.5
							c-3.3-0.1-2.5-3.2-1.2-4.8c1.3-1.6,15.6-19.3,22.4-27.1c6.8-7.8,9.2-14.9,5.3-20.1c-3.8-5.1-13.1,0-17.8,0.6
							c-4.7,0.7-4.4-5.6-4.4-5.6s4.4-14.7,8.5-42.8c4.2-28.1-8.1-28.6-8.1-28.6"/>
					</g>
				</g>
			</g>
		</g>
		<g>
			<g>
				<g>
					<g>
						<g>
							<path fill="#E0E0E0" d="M468.3,214.5c0,0,0,0.2-0.1,0.6c-0.1,0.4-0.1,1-0.2,1.7c-0.2,1.5-0.5,3.8-0.9,6.6
								c-0.8,5.8-2.1,14.1-3.6,24.4c-3.1,20.6-7.7,49-12.9,80.4c-5.1,31.4-9.8,59.8-13,80.4c-1.6,10.3-2.9,18.6-3.8,24.4
								c-0.5,2.9-0.8,5.1-1,6.6c-0.1,0.7-0.2,1.3-0.3,1.7c-0.1,0.4-0.1,0.6-0.1,0.6s0-0.2,0.1-0.6c0.1-0.4,0.1-1,0.2-1.7
								c0.2-1.5,0.5-3.8,0.9-6.6c0.8-5.8,2.1-14.1,3.6-24.4c3.1-20.6,7.7-49,12.9-80.4c5.1-31.4,9.8-59.8,13-80.3
								c1.6-10.3,2.9-18.6,3.8-24.4c0.5-2.9,0.8-5.1,1-6.6c0.1-0.7,0.2-1.3,0.3-1.7C468.3,214.7,468.3,214.5,468.3,214.5z"/>
						</g>
					</g>
				</g>
			</g>
		</g>
		<g>
			<g>
				<g>
					<g>
						<g>
							<path fill="#E0E0E0" d="M438.6,265.9c0,0,0.3,0.4,0.8,1.1c0.5,0.7,1.1,1.8,2,3.1c1.6,2.6,3.8,6.3,6,10.5
								c2.2,4.1,4.3,7.7,5.8,10.6c0.7,1.3,1.3,2.3,1.8,3.2c0.4,0.8,0.6,1.2,0.6,1.2c0,0-0.3-0.4-0.8-1.1c-0.5-0.7-1.1-1.8-1.9-3.1
								c-1.6-2.7-3.7-6.4-6-10.5c-2.3-4.1-4.3-7.7-5.9-10.5c-0.7-1.3-1.3-2.3-1.8-3.2C438.7,266.4,438.5,265.9,438.6,265.9z"/>
						</g>
					</g>
				</g>
			</g>
		</g>
		<g>
			<g>
				<g>
					<g>
						<g>
							<path fill="#E0E0E0" d="M457.2,295.3c-0.1-0.1,6.9-5.1,15.7-11.2c8.8-6,15.9-10.8,16-10.6c0.1,0.1-6.9,5.1-15.7,11.2
								C464.5,290.7,457.3,295.5,457.2,295.3z"/>
						</g>
					</g>
				</g>
			</g>
		</g>
		<g>
			<g>
				<g>
					<g>
						<g>
							<path fill="#E0E0E0" d="M447.2,343.1c0,0,0.4-0.2,1.2-0.5c0.9-0.3,2.1-0.7,3.4-1.1c2.9-0.9,6.9-2.2,11.2-3.8
								c4.4-1.6,8.3-3.2,11.1-4.4c1.3-0.5,2.4-1,3.3-1.4c0.8-0.3,1.2-0.5,1.3-0.4c0,0-0.4,0.3-1.2,0.7c-0.8,0.4-1.9,0.9-3.3,1.6
								c-2.8,1.3-6.7,2.9-11,4.5c-4.4,1.6-8.4,2.9-11.3,3.7c-1.5,0.4-2.7,0.7-3.5,0.9C447.7,343.1,447.3,343.2,447.2,343.1z"/>
						</g>
					</g>
				</g>
			</g>
		</g>
		<g>
			<g>
				<g>
					<g>
						<g>
							<path fill="#E0E0E0" d="M424.8,320.4c0,0,0.4,0.2,1,0.8c0.6,0.5,1.4,1.3,2.5,2.3c2.1,2,4.9,4.7,8.1,7.8
								c3.1,3.1,5.9,5.9,7.9,8c1,1,1.8,1.9,2.4,2.5c0.5,0.6,0.8,0.9,0.8,1c0,0-0.4-0.2-1-0.8c-0.6-0.5-1.4-1.3-2.5-2.3
								c-2.1-2-4.9-4.7-8.1-7.8c-3.1-3.1-5.9-5.9-7.9-8c-1-1-1.8-1.9-2.4-2.5C425.1,320.8,424.8,320.5,424.8,320.4z"/>
						</g>
					</g>
				</g>
			</g>
		</g>
		<g>
			<g>
				<g>
					<g>
						<g>
							<path fill="#E0E0E0" d="M411,361.5c0,0,0.5,0.3,1.2,1c0.8,0.8,1.9,1.8,3.2,3c2.7,2.5,6.4,6,10.4,9.9c4,3.9,7.7,7.5,10.3,10.1
								c1.2,1.2,2.3,2.3,3.1,3.1c0.7,0.7,1.1,1.2,1.1,1.2c0,0-0.5-0.3-1.2-1c-0.8-0.8-1.9-1.8-3.2-3c-2.7-2.5-6.4-6-10.4-9.9
								c-4-3.9-7.7-7.5-10.3-10.1c-1.2-1.2-2.3-2.3-3.1-3.1C411.3,361.9,410.9,361.5,411,361.5z"/>
						</g>
					</g>
				</g>
			</g>
		</g>
		<g>
			<g>
				<g>
					<g>
						<g>
							<path fill="#E0E0E0" d="M439.7,388.9c0,0,0.5-0.3,1.6-0.6c1.1-0.4,2.6-0.9,4.3-1.6c3.6-1.3,8.6-3.2,14.1-5.4
								c5.5-2.2,10.4-4.3,13.9-5.9c1.7-0.7,3.1-1.4,4.2-1.8c1-0.4,1.6-0.6,1.6-0.6c0,0-0.5,0.3-1.5,0.8c-1,0.5-2.4,1.2-4.1,2
								c-3.5,1.7-8.4,3.9-13.9,6c-5.5,2.2-10.5,4-14.2,5.2c-1.8,0.6-3.3,1.1-4.4,1.4C440.3,388.8,439.7,388.9,439.7,388.9z"/>
						</g>
					</g>
				</g>
			</g>
		</g>
	</g>
	<g>
		<g>
			<g>
				<g>
					<g>
						<g>
							<path fill="#F5F5F5" d="M85.9,437.4c25.4-15.3,33.6-47.4,35.2-76.9c0.3-4.9,1.2-10-0.6-14.5c-1.8-4.5-6.7-7.9-11.1-6.3
								c-3.6,1.4-5.5,5.5-7.7,8.8c-3,4.4-7.1,7.9-11.8,9.9c-3.1,1.3-6.8,2-9.6,0c-3.8-2.7-3.8-8.6-3.3-13.5
								c0.8-9.1,1.7-18.2,2.5-27.2c0.5-4.9,0.9-9.8-0.1-14.6c-1-4.8-3.8-9.4-8.1-11.1c-4.3-1.7-9.9,0.4-11.3,5.1
								c-0.6,1.9-0.4,4-0.7,6.1c-0.3,2-1.4,4.2-3.3,4.6c-1.9,0.4-3.6-1.2-4.9-2.7c-4.3-5.4-7-12-9.5-18.6
								c-2.5-6.6-4.8-13.3-8.7-19.1c-3.9-5.8-9.5-10.6-16-11.7c-6.6-1-14,2.6-16.3,9.3c-2.3,6.7,0.9,14,4.6,20
								c5.4,8.8,12,16.8,19.6,23.7c1.4,1.2,2.8,2.6,3.2,4.4c0.7,3.3-2.5,6.3-5.6,7.1c-3.5,0.9-7.2,0.1-10.9,0.2
								c-3.6,0.1-7.7,1.4-9.4,4.9c-2.3,4.8,1.2,10.4,4.8,14.2c7.2,7.6,15.6,13.9,24.7,18.4c3.3,1.6,6.8,3.1,9.3,5.9
								c2.5,2.8,3.8,7.3,1.8,10.6c-2,3.3-6.3,4-9.8,2.9c-3.5-1-6.5-3.4-9.8-5.1c-6.1-3.1-14.4-3.5-18.9,1.9c-3,3.5-3.7,8.8-2.7,13.5
								c1,4.7,3.4,8.8,6,12.7c9.1,13.6,21.2,25,35.5,31.8C57.3,438.8,70.8,441.6,85.9,437.4"/>
						</g>
					</g>
				</g>
			</g>
		</g>
		<g>
			<g>
				<g>
					<g>
						<g>
							<g>
								<path fill="#E0E0E0" d="M84.4,459.2c0-11.7-1.2-25.7-4.1-40.9c-2.8-15.2-7.2-31.6-12.3-48.6c-1.3-4.2-2.6-8.4-3.9-12.6
									c-1.3-4.1-2.5-8.2-4-12.1c-2.9-7.8-6.3-15.2-9.7-22c-3.4-6.8-6.9-13.2-10.1-19.1c-3.3-5.9-6.4-11.4-9.5-16.2
									c-6.1-9.7-12-16.9-16.1-21.7c-2.1-2.4-3.8-4.2-4.9-5.4c-0.6-0.6-1-1-1.3-1.4c-0.3-0.3-0.5-0.5-0.5-0.4c0,0,0.1,0.2,0.4,0.5
									c0.3,0.4,0.7,0.8,1.3,1.4c1.1,1.2,2.7,3.1,4.8,5.5c4.1,4.8,9.8,12.1,15.9,21.8c3,4.8,6.2,10.3,9.4,16.2
									c3.2,5.9,6.7,12.3,10,19.1c3.4,6.8,6.7,14.1,9.6,21.9c1.5,3.9,2.7,7.9,4,12.1c1.3,4.1,2.5,8.3,3.8,12.6
									c5.1,17,9.5,33.3,12.4,48.5c2.9,15.1,4.1,29.1,4.2,40.7"/>
							</g>
						</g>
					</g>
				</g>
			</g>
		</g>
		<g>
			<g>
				<g>
					<g>
						<g>
							<g>
								<path fill="#E0E0E0" d="M59.9,344.9c0.1,0,0.3-0.7,0.6-2c0.4-1.3,0.8-3.3,1.4-5.7c1.1-4.8,2.3-11.5,3.7-18.8
									c1.4-7.4,2.7-14,3.9-18.7c0.6-2.4,1-4.3,1.4-5.6c0.3-1.3,0.5-2.1,0.4-2.1c-0.1,0-0.3,0.7-0.8,2c-0.4,1.3-1,3.2-1.6,5.6
									c-1.3,4.7-2.7,11.4-4.1,18.7c-1.3,7.3-2.5,13.8-3.5,18.9c-0.4,2.3-0.8,4.2-1.1,5.7C60,344.1,59.9,344.9,59.9,344.9z"/>
							</g>
						</g>
					</g>
				</g>
			</g>
		</g>
		<g>
			<g>
				<g>
					<g>
						<g>
							<g>
								<path fill="#E0E0E0" d="M1.6,327.5c0,0.1,0.8,0.2,2.3,0.5c1.5,0.3,3.7,0.7,6.4,1.3c5.4,1.1,12.8,3,20.8,5.4
									c8.1,2.4,15.3,5,20.4,7c2.6,1,4.7,1.8,6.1,2.4c1.4,0.6,2.2,0.9,2.3,0.8c0-0.1-0.7-0.5-2.1-1.2c-1.4-0.7-3.4-1.6-6-2.7
									c-5.1-2.2-12.3-4.8-20.4-7.2c-8.1-2.4-15.5-4.2-20.9-5.2c-2.7-0.5-4.9-0.8-6.4-1C2.5,327.5,1.6,327.4,1.6,327.5z"/>
							</g>
						</g>
					</g>
				</g>
			</g>
		</g>
		<g>
			<g>
				<g>
					<g>
						<g>
							<g>
								<path fill="#E0E0E0" d="M79.7,417c0,0,0.2-0.2,0.5-0.7c0.3-0.6,0.7-1.3,1.2-2.2c1-1.9,2.5-4.7,4.2-8.1
									c3.5-6.9,8-16.6,12.9-27.4c4.9-10.8,9.3-20.5,12.6-27.5c1.6-3.4,3-6.2,4-8.2c0.4-0.9,0.8-1.6,1.1-2.2
									c0.2-0.5,0.3-0.8,0.3-0.8c0,0-0.2,0.2-0.5,0.7c-0.3,0.6-0.7,1.3-1.2,2.2c-1,1.9-2.5,4.7-4.2,8.1c-3.5,6.9-8,16.6-12.9,27.4
									c-4.9,10.8-9.3,20.5-12.6,27.5c-1.6,3.4-3,6.2-4,8.2c-0.4,0.9-0.8,1.6-1.1,2.2C79.8,416.8,79.7,417,79.7,417z"/>
							</g>
						</g>
					</g>
				</g>
			</g>
		</g>
		<g>
			<g>
				<g>
					<g>
						<g>
							<g>
								<path fill="#E0E0E0" d="M3.2,382.6c0,0,0.2,0.2,0.8,0.4c0.6,0.3,1.3,0.6,2.2,1c2.1,0.9,4.8,2.2,8.2,3.7
									c6.9,3.1,16.4,7.6,26.9,12.5c10.5,4.9,20.1,9.3,27,12.3c3.5,1.5,6.3,2.7,8.3,3.4c0.9,0.3,1.7,0.6,2.3,0.9
									c0.5,0.2,0.8,0.3,0.8,0.2c0,0-0.2-0.2-0.8-0.4c-0.6-0.3-1.3-0.6-2.2-1c-2.1-0.9-4.8-2.2-8.2-3.7
									c-6.9-3.1-16.4-7.6-26.9-12.5c-10.5-4.9-20.1-9.3-27-12.3c-3.5-1.5-6.3-2.7-8.3-3.4c-0.9-0.4-1.7-0.6-2.3-0.9
									C3.5,382.6,3.2,382.6,3.2,382.6z"/>
							</g>
						</g>
					</g>
				</g>
			</g>
		</g>
	</g>
	<g>
		<g>
			<g>
				<g>
					<polygon fill="#E0E0E0" points="164,87.2 164,183 33.7,183 29,87.9 					"/>
				</g>
			</g>
		</g>
		<g>
			<g>
				<g>
					
						<rect x="46.7" y="70.2" transform="matrix(6.123234e-17 -1 1 6.123234e-17 -41.2378 229.5164)" fill="#FFFFFF" width="94.9" height="130.3"/>
				</g>
			</g>
			<g>
				<g>
					<path fill="#E0E0E0" d="M159.9,183.5H28.4V87.3h131.5V183.5z M29.6,182.2h129.1V88.6H29.6V182.2z"/>
				</g>
			</g>
		</g>
		<g>
			<g>
				<g>
					<g>
						<rect x="43.1" y="99.7" fill="#FFFFFF" width="102.1" height="71.3"/>
					</g>
				</g>
			</g>
			<g>
				<g>
					<g>
						<g>
							<path fill="#E0E0E0" d="M145.2,99.7c0,0-0.2,0-0.5,0c-0.3,0-0.8,0-1.5,0c-1.3,0-3.2,0-5.6,0c-4.9,0-12,0-21,0.1
								c-18,0-43.5,0.1-73.5,0.2l0.3-0.3c0,21.8,0,45.9,0,71.3v0l-0.3-0.3c38.5,0,74,0.1,102.1,0.1l-0.3,0.3
								c0.1-21.7,0.1-39.5,0.1-51.9c0-6.2,0.1-11,0.1-14.4c0-1.6,0-2.9,0-3.8C145.2,100.2,145.2,99.7,145.2,99.7s0,0.4,0,1.3
								c0,0.9,0,2.1,0,3.7c0,3.3,0,8.1,0.1,14.3c0,12.4,0.1,30.3,0.1,52.1l0,0.3l-0.3,0c-28.1,0-63.6,0-102.1,0.1l-0.3,0V171v0
								c0-25.4,0-49.5,0-71.3l0-0.3l0.3,0c30.1,0.1,55.6,0.1,73.7,0.2c9,0,16.1,0.1,21,0.1c2.4,0,4.3,0,5.5,0c0.6,0,1.1,0,1.4,0
								C145,99.7,145.2,99.7,145.2,99.7z"/>
						</g>
					</g>
				</g>
			</g>
		</g>
		<g>
			<g>
				<g>
					<g>
						<path fill="#E0E0E0" d="M29,87.6c0.1-0.1,0.9,0.5,2.2,1.5c1.3,1,3.1,2.5,5.1,4.1c2,1.7,3.7,3.2,4.9,4.4c1.2,1.2,1.9,1.9,1.9,2
							c-0.1,0.1-3.3-2.6-7.2-5.9C32,90.5,28.9,87.8,29,87.6z"/>
					</g>
				</g>
			</g>
		</g>
		<g>
			<g>
				<g>
					<g>
						<path fill="#E0E0E0" d="M159.3,87.9c0.1,0.1-3,2.9-6.9,6.2c-3.9,3.3-7.1,5.8-7.3,5.6c-0.1-0.1,3-2.9,6.9-6.2
							C155.9,90.3,159.2,87.8,159.3,87.9z"/>
					</g>
				</g>
			</g>
		</g>
		<g>
			<g>
				<g>
					<g>
						<path fill="#FFFFFF" d="M159.2,182.9c-4.8-4.1-9.7-8.3-14.5-12.4"/>
					</g>
				</g>
			</g>
			<g>
				<g>
					<g>
						<g>
							<path fill="#E0E0E0" d="M144.7,170.4c0.1-0.1,3.5,2.5,7.5,6c4,3.4,7.2,6.3,7.1,6.5c-0.1,0.1-3.5-2.5-7.5-6
								C147.7,173.5,144.5,170.6,144.7,170.4z"/>
						</g>
					</g>
				</g>
			</g>
		</g>
		<g>
			<g>
				<g>
					<g>
						<path fill="#E0E0E0" d="M29,182.8c-0.1-0.1,2.9-2.9,6.8-6.1c3.9-3.2,7.1-5.7,7.2-5.6c0.1,0.1-2.9,2.9-6.8,6.1
							C32.3,180.5,29.1,183,29,182.8z"/>
					</g>
				</g>
			</g>
		</g>
		<g>
			<g>
				<g>
					
						<rect x="84" y="101.8" transform="matrix(6.123234e-17 -1 1 6.123234e-17 -37.9366 229.8181)" fill="#E0E0E0" width="23.9" height="64.2"/>
				</g>
			</g>
		</g>
	</g>
	<g>
		<g>
			<g>
				<g>
					<rect x="395.2" y="65" fill="#E0E0E0" width="69.7" height="106.6"/>
				</g>
			</g>
		</g>
		<g>
			<g>
				<g>
					<rect x="391.7" y="65" fill="#F5F5F5" width="69.7" height="106.6"/>
				</g>
			</g>
		</g>
		<g>
			<g>
				<g>
					<g>
						<rect x="400.3" y="76.5" fill="#FFFFFF" width="52.4" height="83.5"/>
					</g>
				</g>
			</g>
			<g>
				<g>
					<g>
						<g>
							<path fill="#E0E0E0" d="M452.7,160.1c0,0,0-0.1,0-0.4c0-0.3,0-0.7,0-1.2c0-1,0-2.6,0-4.6c0-4,0-9.8,0-17.2
								c0-14.7-0.1-35.6-0.1-60.2l0.2,0.2c-16,0-33.7,0-52.3,0h0l0.2-0.2c0,31.5,0,60.6,0,83.5l-0.2-0.2c15.9,0,29,0.1,38.1,0.1
								c4.5,0,8.1,0,10.5,0c1.2,0,2.1,0,2.8,0C452.4,160.1,452.7,160.1,452.7,160.1s-0.3,0-0.9,0c-0.6,0-1.5,0-2.7,0
								c-2.4,0-6,0-10.5,0c-9.1,0-22.2,0-38.2,0.1l-0.2,0l0-0.2c0-23,0-52,0-83.5l0-0.2h0.2h0c18.6,0,36.4,0,52.3,0l0.2,0l0,0.2
								c0,24.6-0.1,45.5-0.1,60.3c0,7.4,0,13.2,0,17.2c0,2,0,3.5,0,4.5c0,0.5,0,0.9,0,1.2C452.7,159.9,452.7,160.1,452.7,160.1z"/>
						</g>
					</g>
				</g>
			</g>
		</g>
		<g>
			<g>
				<g>
					<g>
						<path fill="none" stroke="#FBFBFB" stroke-width="0.25" stroke-miterlimit="10" d="M450.3,77.1"/>
					</g>
				</g>
			</g>
		</g>
		<g>
			<g>
				<g>
					<g>
						<path fill="#E0E0E0" d="M461.5,65c0,0-0.4,0.8-1.2,1.9c-0.8,1.1-2,2.7-3.3,4.4c-1.3,1.7-2.5,3.2-3.4,4.2s-1.5,1.7-1.5,1.7
							c0,0,0.5-0.7,1.3-1.8c0.9-1.2,2.1-2.7,3.4-4.3c1.3-1.6,2.4-3.1,3.4-4.3C460.9,65.6,461.5,64.9,461.5,65z"/>
					</g>
				</g>
			</g>
		</g>
		<g>
			<g>
				<g>
					<g>
						<path fill="#FFFFFF" d="M453,159.8c2.6,4.4,5.7,8.4,9.1,12.1"/>
					</g>
				</g>
			</g>
			<g>
				<g>
					<g>
						<g>
							<path fill="#E0E0E0" d="M462.1,171.9c0,0-0.7-0.5-1.6-1.5c-0.9-1-2.2-2.4-3.4-4.1c-1.3-1.7-2.3-3.3-3-4.5
								c-0.7-1.2-1.1-1.9-1.1-2c0,0,0.5,0.7,1.3,1.8c0.8,1.1,1.8,2.7,3.1,4.4c1.3,1.7,2.5,3.1,3.3,4.2
								C461.6,171.2,462.1,171.8,462.1,171.9z"/>
						</g>
					</g>
				</g>
			</g>
		</g>
		<g>
			<g>
				<g>
					<g>
						<path fill="#FFFFFF" d="M391.7,171.5c3-4,6.1-7.9,9.1-11.9"/>
					</g>
				</g>
			</g>
			<g>
				<g>
					<g>
						<g>
							<path fill="#E0E0E0" d="M400.8,159.6c0.1,0.1-1.9,2.8-4.4,6.1c-2.5,3.3-4.6,5.9-4.7,5.8c-0.1-0.1,1.9-2.8,4.4-6.1
								C398.6,162.2,400.7,159.6,400.8,159.6z"/>
						</g>
					</g>
				</g>
			</g>
		</g>
		<g>
			<g>
				<g>
					<g>
						<path fill="#E0E0E0" d="M391.7,65c0.1-0.1,2.1,2.4,4.4,5.6c2.4,3.2,4.2,5.8,4.1,5.8c-0.1,0.1-2.1-2.4-4.4-5.6
							C393.4,67.7,391.6,65,391.7,65z"/>
					</g>
				</g>
			</g>
		</g>
		<g>
			<g>
				<g>
					<rect x="418.8" y="93.5" fill="#E0E0E0" width="17.5" height="52.6"/>
				</g>
			</g>
		</g>
	</g>
	<g>
		<g>
			<g>
				<path fill="#263238" d="M479.5,499.7c0,0.2-107.1,0.3-239.1,0.3c-132.1,0-239.1-0.1-239.1-0.3c0-0.2,107-0.3,239.1-0.3
					C372.5,499.4,479.5,499.5,479.5,499.7z"/>
			</g>
		</g>
	</g>
	<g>
		<g>
			<path fill="#351A03" d="M345.2,298.8c1.7,7-0.6,14.8-5.7,19.6c-3.3,3.1-7.7,4.9-10.8,8.4c-3.9,4.4-5.1,11.2-3.3,17
				c1.7,5.8,6,10.5,11.2,13.2c7.1,3.6,15.8,3.3,22.6-0.8c8.5-5.1,13.4-15.2,14.7-25.5c1.3-10.2-0.7-20.6-3.3-30.5"/>
		</g>
	</g>
	<g>
		<g>
			<path fill="#263238" d="M452.3,479.2c8.8-1.5,17,1.3,25.7,3.4c2.3,0.5,4.8,1,7.1,0.4c3.8-1,6.5-4.9,7-9c0.5-3.5-0.4-7.2-2.2-10.2
				c-0.8-1.3-1.8-2.4-3-3.2c-1.3-0.8-2.7-1.1-4.2-1.2c-5.3-0.5-10.7,0.7-15.5,3.1c-4.8,2.4-9.1,5.9-12.9,9.8
				C452.6,474.3,453.1,476.5,452.3,479.2"/>
		</g>
	</g>
	<g>
		<g>
			<path fill="#263238" d="M274,329.3c-1.4-8.8-1.2-17.9,0.5-26.6c0.8-4.3,2.1-8.5,4.3-12.1c0.8-1.3,1.8-2.6,3.2-3.2
				c1.9-0.8,4.2-0.1,5.7,1.4c2,1.9,2.8,4.9,2.7,7.8c-0.1,2.9-1,5.6-2,8.3C285.2,314,279.8,321.6,274,329.3"/>
		</g>
	</g>
	<g>
		<g>
			<path fill="#F3CE63" d="M444.4,362.8c2,1.5,46.2,102,46.2,102l0,0c-3.5-1.6-7.5-2-11.3-1.2l-2.4,0.7c-4.3,1.2-8.4,3.2-12,5.8
				l-12.6,9l0,0c-1-0.6-1.7-1.7-1.8-2.9l0-0.4l-34.3-62.1L444.4,362.8z"/>
		</g>
	</g>
	<g>
		<g>
			<g>
				<path fill="#FFBE9D" d="M278.6,202.9l11.8,70.7c3.8,9.5,48,67.2,48,67.2l-14.6,49.6l-58.1-83.9c-5.4-6.1-8.3-14.2-8.2-22.5
					l2.3-75.6L278.6,202.9z"/>
			</g>
		</g>
	</g>
	<g>
		<g>
			<path fill="#F3CE63" d="M341.3,329.7l30.3,2.4l26.4,4.3c0,0,46.4,12.9,46.4,18.2c0,1.8-12.7,44.4-19.7,69.9
				c-3,11-4.3,18.8-4.3,18.8l24,56.3H330.3v-51.6c0,0-7.7-67.7-6.3-76.9C325.3,361.9,341.3,329.7,341.3,329.7z"/>
		</g>
	</g>
	<g>
		<g>
			<path fill="#EB996E" d="M264.2,174.3c0.2-7.2,0.9-14.4,2.1-21.5c0.2-1,0.6-2.2,1.5-2.4c1.2-0.2,1.8,1.4,1.9,2.7
				c1.1,8.5,0.7,17.3-1,25.7"/>
		</g>
	</g>
	<g>
		<g>
			<path fill="#F3CE63" d="M277.7,324.1c13-12.3,13.5-33.6,12.3-50.5c-0.1-1.2-0.2-2.6,0.5-3.6c1.2-1.9,4.3-1.2,5.5,0.7
				c1.2,1.9,1.1,4.4,1,6.6c0.7-1.9,3.5-1.9,4.9-0.4c1.3,1.5,1.6,3.7,1.7,5.8c0.1,1.9,0.3,3.8,0.4,5.7l38,38.3c0,0,1-3.4,3.8-1.5
				c2.8,2,4.6,6.2,4.6,6.2l-26.8,61.7L274,329.2C274,329.2,275.6,326.1,277.7,324.1z"/>
		</g>
	</g>
	<g>
		<g>
			<path fill="#F3CE63" d="M329.3,366.8c-3.8,5.4-7.1,11.4-8.7,18s-1.7,13.7,0.6,20c3.2,8.9,11.2,15.7,20.1,17.2"/>
		</g>
	</g>
	<g>
		<g>
			<path fill="#FFBE9D" d="M452.3,479.2l-1.4,20.5h28.2l6.6-36.3l0,0c-8.6-0.5-17,2.3-23.8,7.9L452.3,479.2z"/>
		</g>
	</g>
	<g>
		<g>
			<g>
				<path fill="#263238" d="M290.9,319.5c0,0,0.2-0.6,0.6-1.6c0.4-1,1-2.5,1.7-4.4c0.7-1.9,1.4-4.2,2.1-6.7c0.6-2.6,1.2-5.4,1.7-8.5
					c0.4-3,0.6-5.9,0.7-8.6c0.1-2.7,0-5-0.2-7.1c-0.1-2-0.3-3.6-0.4-4.7c-0.1-1.1-0.2-1.7-0.2-1.7c0,0,0.2,0.6,0.4,1.7
					c0.2,1.1,0.4,2.7,0.6,4.7c0.2,2,0.3,4.4,0.3,7.1c-0.1,2.7-0.2,5.6-0.7,8.7c-0.4,3.1-1,5.9-1.7,8.5c-0.7,2.6-1.4,4.9-2.2,6.7
					c-0.7,1.9-1.4,3.4-1.9,4.4C291.3,319,291,319.5,290.9,319.5z"/>
			</g>
		</g>
	</g>
	<g>
		<g>
			<g>
				<path fill="#263238" d="M299.2,308.7c-0.1,0,0.4-1.1,1.2-2.9c0.7-1.8,1.6-4.4,2.2-7.3c0.6-2.9,0.9-5.6,1-7.6
					c0.1-2,0.1-3.2,0.2-3.2c0.1,0,0.2,1.2,0.2,3.2c0,2-0.2,4.7-0.9,7.7c-0.7,3-1.6,5.5-2.4,7.3C299.9,307.8,299.3,308.8,299.2,308.7
					z"/>
			</g>
		</g>
	</g>
	<g>
		<g>
			<g>
				<path fill="#263238" d="M343.9,340.8c-0.1-0.1,0.4-0.8,0.6-2.2c0.3-1.4,0.3-3.3-0.3-5.4c-0.6-2.1-1.4-3.8-1.9-5.1
					c-0.5-1.3-0.8-2.1-0.8-2.2c0.1,0,0.5,0.7,1.1,2c0.6,1.3,1.5,3,2.1,5.2c0.6,2.1,0.5,4.2,0.1,5.6
					C344.5,340.2,343.9,340.9,343.9,340.8z"/>
			</g>
		</g>
	</g>
	<g>
		<g>
			<g>
				<path fill="#F3CE63" d="M337.2,422.6c0,0-0.2-0.1-0.5-0.3c-0.4-0.2-0.8-0.5-1.3-0.9c-1.1-0.8-2.7-2-4.6-3.6
					c-1.9-1.6-4.1-3.6-6.2-6.2c-2-2.6-3.9-6-4.8-9.8c-0.9-3.8-1-7.6-0.6-11c0.4-3.4,1.1-6.4,1.9-8.8c0.8-2.4,1.5-4.3,2.1-5.7
					c0.3-0.7,0.5-1.2,0.7-1.5c0.2-0.3,0.3-0.5,0.3-0.5c0,0-0.2,0.8-0.7,2.1c-0.5,1.3-1.2,3.3-1.9,5.7c-0.7,2.4-1.4,5.4-1.7,8.7
					c-0.3,3.3-0.2,7.1,0.7,10.8c0.9,3.8,2.6,7,4.6,9.6c2,2.6,4.2,4.6,6,6.3c1.9,1.6,3.4,2.8,4.5,3.7c0.5,0.4,0.9,0.7,1.2,1
					C337.1,422.4,337.3,422.6,337.2,422.6z"/>
			</g>
		</g>
	</g>
	<g>
		<g>
			<g>
				<path fill="#263238" d="M399.5,434.1c0,0-0.2,0.1-0.5,0.2c-0.3,0.1-0.8,0.3-1.4,0.4c-1.2,0.3-3.1,0.6-5.4,0.7
					c-4.6,0.2-11.1-0.9-17.1-4.9c-6-4-9.7-9.8-11.5-14.2c-0.9-2.2-1.5-4.1-1.7-5.4c-0.2-0.7-0.2-1.2-0.3-1.5
					c-0.1-0.4-0.1-0.5-0.1-0.5c0,0,0.2,0.7,0.5,2c0.3,1.3,0.9,3.1,1.9,5.3c1.9,4.3,5.6,10,11.5,13.9c5.9,3.9,12.3,5.1,16.8,5
					c2.3,0,4.1-0.3,5.4-0.5C398.8,434.2,399.5,434,399.5,434.1z"/>
			</g>
		</g>
	</g>
	<g>
		<g>
			<g>
				<path fill="#263238" d="M417,456.6c-0.2,0,1.3-6.5,3.2-14.3c1.9-7.9,3.6-14.2,3.8-14.2c0.2,0-1.3,6.5-3.2,14.3
					C418.9,450.3,417.2,456.7,417,456.6z"/>
			</g>
		</g>
	</g>
	<g>
		<g>
			<g>
				<path fill="#263238" d="M432.4,443c-0.1,0.1-4.6-7.5-9.9-17c-5.3-9.5-9.5-17.3-9.4-17.3c0.1-0.1,4.6,7.5,9.9,17
					C428.3,435.2,432.5,442.9,432.4,443z"/>
			</g>
		</g>
	</g>
	<g>
		<g>
			<g>
				<path fill="#263238" d="M474.5,461.8c0,0.1-1.6,0.3-4.1,0.9c-1.3,0.3-2.7,0.8-4.3,1.5c-1.6,0.7-3.3,1.6-4.9,2.7
					c-1.7,1.1-3.1,2.3-4.4,3.5c-1.3,1.2-2.3,2.4-3.1,3.5c-1.6,2.1-2.5,3.6-2.6,3.5c0,0,0.1-0.4,0.5-1.1c0.3-0.7,0.9-1.6,1.7-2.7
					c0.8-1.1,1.8-2.3,3.1-3.6c1.3-1.2,2.8-2.5,4.5-3.6c1.7-1.1,3.4-2,5-2.7c1.6-0.7,3.1-1.1,4.4-1.4c1.3-0.3,2.3-0.4,3.1-0.5
					C474.1,461.8,474.5,461.8,474.5,461.8z"/>
			</g>
		</g>
	</g>
	<g>
		<g>
			<g>
				<path fill="#263238" d="M479.9,454.8c0,0.1-1.8-0.1-4.6,0.2c-1.4,0.1-3.1,0.4-4.9,0.9c-1.8,0.5-3.7,1.3-5.7,2.3
					c-1.9,1-3.6,2.2-5.1,3.4c-1.5,1.2-2.7,2.5-3.6,3.6c-1.9,2.2-2.8,3.9-2.9,3.8c0,0,0.2-0.4,0.6-1.2c0.2-0.4,0.5-0.8,0.8-1.3
					c0.3-0.5,0.7-1.1,1.2-1.6c0.9-1.2,2.1-2.5,3.6-3.7c1.5-1.3,3.2-2.5,5.2-3.5c2-1,4-1.8,5.8-2.3c1.8-0.5,3.5-0.7,5-0.8
					c0.7-0.1,1.4,0,1.9,0c0.6,0,1.1,0,1.5,0.1C479.5,454.7,479.9,454.8,479.9,454.8z"/>
			</g>
		</g>
	</g>
	<g opacity="0.3">
		<g>
			<g>
				<path d="M362.7,411.2c-2.6,5.2-0.4,11.5,1.9,16.8c1.8,4.1,3.9,8.3,7.2,11.1c3.3,2.8,7.7,4.1,11.9,3.5c4.2-0.6,8.1-3.2,10.5-6.8
					c-14,0.1-27.5-10-32.1-23.9"/>
			</g>
		</g>
	</g>
	<g opacity="0.3">
		<g>
			<g>
				<path d="M413.1,408.6c-2,5-0.5,11.8,1.6,16.7c2.1,4.9,4.3,10.5,2.6,15.6c-0.3,1-0.8,1.9-0.6,2.9c0.1,1,1.1,2,2,1.5
					c0.5-0.3,0.7-0.9,0.9-1.4c1.6-5,3.1-9.9,4.7-14.9"/>
			</g>
		</g>
	</g>
	<g>
		<g>
			<g>
				<path fill="#FAFAFA" d="M309.2,343.1c-0.2,0,0.3-4.2,1.1-9.2c0.8-5.1,1.5-9.2,1.7-9.1c0.2,0-0.3,4.2-1.1,9.2
					C310.1,339,309.3,343.1,309.2,343.1z"/>
			</g>
		</g>
	</g>
	<g>
		<g>
			<g>
				<path fill="#FAFAFA" d="M297.6,340.5c-0.1,0.1-2-2.7-4.6-5.9c-2.6-3.2-4.9-5.6-4.8-5.7c0.1-0.1,2.6,2.1,5.2,5.3
					C296,337.4,297.7,340.4,297.6,340.5z"/>
			</g>
		</g>
	</g>
	<g>
		<g>
			<g>
				<path fill="#FAFAFA" d="M307.5,310.6c0.1,0-0.4,0.9-1.2,2.1c-0.8,1.2-2,2.9-3.5,4.7c-1.4,1.8-2.8,3.3-3.8,4.4
					c-1,1.1-1.7,1.7-1.7,1.6c-0.1-0.1,2.3-2.9,5.1-6.4C305.2,313.5,307.4,310.5,307.5,310.6z"/>
			</g>
		</g>
	</g>
	<g>
		<g>
			<g>
				<path fill="#FAFAFA" d="M303.6,296c-0.2,0.1-0.8-1.4-2-2.9c-1.2-1.5-2.5-2.3-2.4-2.5c0.1-0.1,1.6,0.5,2.8,2.1
					C303.4,294.3,303.8,296,303.6,296z"/>
			</g>
		</g>
	</g>
	<g>
		<g>
			<g>
				<path fill="#FAFAFA" d="M293.6,305c0,0.2-1.3,0.5-2.9,0.8c-1.6,0.3-2.9,0.4-2.9,0.2c0-0.2,1.3-0.5,2.9-0.8
					C292.3,304.9,293.6,304.8,293.6,305z"/>
			</g>
		</g>
	</g>
	<g>
		<g>
			<g>
				<path fill="#FAFAFA" d="M318.9,317.9c-0.2,0,0.3-2.5-0.4-5.4c-0.6-2.9-1.9-5-1.8-5.1c0.1-0.1,1.7,1.9,2.3,4.9
					C319.8,315.4,319,318,318.9,317.9z"/>
			</g>
		</g>
	</g>
	<g>
		<g>
			<g>
				<path fill="#FAFAFA" d="M332.4,333.2c-0.2,0.1-1.3-2.4-3.5-4.7c-2.2-2.4-4.5-3.6-4.4-3.8c0-0.1,2.6,0.9,4.8,3.3
					C331.6,330.5,332.6,333.2,332.4,333.2z"/>
			</g>
		</g>
	</g>
	<g>
		<g>
			<g>
				<path fill="#FAFAFA" d="M310.7,359.9c0.1,0.1-2.2,1-5.1,0.9c-2.9-0.1-5.1-1.1-5-1.2c0.1-0.2,2.2,0.6,5,0.6
					C308.5,360.3,310.7,359.7,310.7,359.9z"/>
			</g>
		</g>
	</g>
	<g>
		<g>
			<g>
				<path fill="#FAFAFA" d="M320.9,365.4c-0.2-0.1,0.7-2.7,1.4-6.1c0.7-3.4,1-6.2,1.2-6.2c0.1,0,0.1,2.9-0.6,6.3
					C322.2,362.8,321.1,365.4,320.9,365.4z"/>
			</g>
		</g>
	</g>
	<g>
		<g>
			<g>
				<path fill="#FAFAFA" d="M343.2,366.3c-0.1,0.1-2.3-2.2-4.8-5.1c-2.5-2.9-4.5-5.4-4.4-5.5c0.1-0.1,2.3,2.2,4.8,5.1
					C341.3,363.7,343.3,366.2,343.2,366.3z"/>
			</g>
		</g>
	</g>
	<g>
		<g>
			<g>
				<path fill="#FAFAFA" d="M353.5,393.4c-0.1,0.1-1.7-1.4-3.6-3.5c-1.9-2-3.3-3.8-3.2-3.9s1.7,1.4,3.6,3.5
					C352.2,391.5,353.6,393.3,353.5,393.4z"/>
			</g>
		</g>
	</g>
	<g>
		<g>
			<g>
				<path fill="#FAFAFA" d="M334.3,396c0.1,0.1-1.7,1.9-4.4,3.5c-2.6,1.6-5,2.4-5.1,2.3c-0.1-0.2,2.2-1.2,4.8-2.8
					C332.2,397.4,334.2,395.8,334.3,396z"/>
			</g>
		</g>
	</g>
	<g>
		<g>
			<g>
				<path fill="#FAFAFA" d="M343.1,421.8c-0.2,0,0.5-3.1,0.8-6.9c0.3-3.8,0.2-6.9,0.4-7c0.1,0,0.5,3.1,0.2,7
					C344.2,418.8,343.3,421.8,343.1,421.8z"/>
			</g>
		</g>
	</g>
	<g>
		<g>
			<g>
				<path fill="#FAFAFA" d="M376.4,400.8c-0.1,0.1-2.4-1.6-4.8-4.4c-2.3-2.8-3.6-5.5-3.5-5.6c0.1-0.1,1.7,2.4,3.9,5.2
					C374.4,398.7,376.5,400.7,376.4,400.8z"/>
			</g>
		</g>
	</g>
	<g>
		<g>
			<g>
				<path fill="#FAFAFA" d="M388.6,411.8c-0.1-0.1,1.5-2.5,3.4-5.6c1.9-3.1,3.2-5.7,3.4-5.6c0.1,0.1-1,2.8-2.9,6
					C390.6,409.6,388.7,411.9,388.6,411.8z"/>
			</g>
		</g>
	</g>
	<g>
		<g>
			<g>
				<path fill="#FAFAFA" d="M386.8,385c0,0.2-2.5-0.4-5.6-1.3c-3-0.9-5.5-1.7-5.4-1.9c0-0.2,2.5,0.4,5.6,1.3
					C384.4,384,386.9,384.8,386.8,385z"/>
			</g>
		</g>
	</g>
	<g>
		<g>
			<g>
				<path fill="#FAFAFA" d="M377.9,432.1c-0.2,0-0.1-2.5,0-5.5c0.2-3,0.4-5.5,0.6-5.5c0.2,0,0.1,2.5,0,5.5
					C378.4,429.7,378.1,432.1,377.9,432.1z"/>
			</g>
		</g>
	</g>
	<g>
		<g>
			<g>
				<path fill="#FAFAFA" d="M385.6,448.3c-0.2-0.1,1-2.5,1.4-5.7c0.4-3.2-0.1-5.9,0.1-5.9c0.1-0.1,0.9,2.6,0.5,6
					C387.2,446,385.7,448.4,385.6,448.3z"/>
			</g>
		</g>
	</g>
	<g>
		<g>
			<g>
				<path fill="#FAFAFA" d="M365.7,444.7c-0.1,0-0.5-2.7,0.1-6c0.6-3.3,1.9-5.7,2-5.6c0.2,0.1-0.9,2.5-1.4,5.7
					C365.8,442,365.9,444.7,365.7,444.7z"/>
			</g>
		</g>
	</g>
	<g>
		<g>
			<g>
				<path fill="#FAFAFA" d="M347.6,452.9c-0.1,0.1-2.3-1.9-5.2-4.2c-2.8-2.4-5.2-4.2-5.1-4.3c0.1-0.1,2.6,1.5,5.4,3.9
					C345.6,450.5,347.7,452.8,347.6,452.9z"/>
			</g>
		</g>
	</g>
	<g>
		<g>
			<g>
				<path fill="#FAFAFA" d="M359.9,430.1c0.1,0.1-2.8,1.9-6.4,4c-3.6,2-6.6,3.6-6.7,3.4c-0.1-0.1,2.8-1.9,6.4-4
					C356.8,431.5,359.8,430,359.9,430.1z"/>
			</g>
		</g>
	</g>
	<g>
		<g>
			<g>
				<path fill="#263238" d="M398,481.2c0,0-0.2,0.1-0.7,0.2c-0.5,0.1-1.2,0.3-2.1,0.4c-1.8,0.3-4.5,0.6-7.7,0.5
					c-3.3-0.1-7.2-0.5-11.4-1.7c-4.2-1.2-8.6-3.1-12.9-5.9c-4.2-2.8-7.8-6.2-10.7-9.7c-2.8-3.5-5-7-6.4-10c-1.5-3.1-2.4-5.7-2.9-7.6
					c-0.3-0.9-0.4-1.7-0.6-2.1c-0.1-0.5-0.2-0.8-0.1-0.8c0,0,0.1,0.2,0.3,0.7c0.2,0.5,0.3,1.2,0.7,2.1c0.6,1.8,1.6,4.4,3.1,7.4
					c1.5,3,3.6,6.5,6.5,9.9c2.8,3.4,6.4,6.7,10.6,9.5c4.2,2.7,8.6,4.7,12.7,5.8c4.1,1.2,8,1.7,11.2,1.8c3.2,0.1,5.9-0.1,7.7-0.3
					c0.9-0.1,1.6-0.2,2.1-0.3C397.8,481.2,398,481.2,398,481.2z"/>
			</g>
		</g>
	</g>
	<g>
		<g>
			<g>
				<path fill="#FAFAFA" d="M365.2,475.2c-0.1,0-0.5-2.5,0.5-5.5c1-3,3-4.6,3-4.5c0.1,0.1-1.5,1.9-2.5,4.7
					C365.2,472.7,365.4,475.2,365.2,475.2z"/>
			</g>
		</g>
	</g>
	<g>
		<g>
			<g>
				<path fill="#FAFAFA" d="M356.1,471.2c0.1,0.2-1.6,1-2.9,2.9c-1.3,1.8-1.6,3.7-1.8,3.7c-0.1,0-0.1-2.1,1.3-4.1
					C354.2,471.7,356.1,471.1,356.1,471.2z"/>
			</g>
		</g>
	</g>
	<g>
		<g>
			<g>
				<path fill="#FAFAFA" d="M390.9,493.1c0,0.1-2.5-0.1-5.1-1.8c-2.6-1.7-3.9-4-3.7-4c0.1-0.1,1.6,1.9,4,3.5
					C388.6,492.4,391,492.9,390.9,493.1z"/>
			</g>
		</g>
	</g>
	<g>
		<g>
			<g>
				<path fill="#FAFAFA" d="M396.3,460.9c0.1,0-0.2,2.4-2,4.6c-1.8,2.2-4,3-4,2.8c-0.1-0.2,1.9-1.1,3.6-3.2
					C395.6,463.1,396.2,460.9,396.3,460.9z"/>
			</g>
		</g>
	</g>
	<g>
		<g>
			<g>
				<path fill="#FAFAFA" d="M411.7,484.9c-0.1-0.1,1.3-2.1,2.7-4.7c1.4-2.7,2.1-5,2.2-5c0.1,0-0.3,2.5-1.7,5.3
					C413.5,483.2,411.8,485,411.7,484.9z"/>
			</g>
		</g>
	</g>
	<g>
		<g>
			<g>
				<path fill="#FAFAFA" d="M432,488.1c0.1,0.2-1.9,1-3.9,2.8c-2,1.7-3.2,3.6-3.4,3.5c-0.1-0.1,0.9-2.2,3-4
					C429.8,488.5,432,487.9,432,488.1z"/>
			</g>
		</g>
	</g>
	<g>
		<g>
			<g>
				<path fill="#FAFAFA" d="M416.5,460.6c-0.2,0.1-1.1-3.3-3.2-7.1c-2-3.8-4.3-6.4-4.1-6.5c0.1-0.1,0.7,0.5,1.6,1.6
					c0.9,1.1,2,2.7,3,4.6c1,1.9,1.7,3.8,2.2,5.1C416.5,459.7,416.6,460.5,416.5,460.6z"/>
			</g>
		</g>
	</g>
	<g>
		<g>
			<g>
				<path fill="#FAFAFA" d="M419.6,426c0,0.2-2.3,0.9-5.2,1.6c-2.9,0.7-5.3,1.2-5.3,1c0-0.2,2.3-0.9,5.2-1.6
					C417.2,426.3,419.5,425.8,419.6,426z"/>
			</g>
		</g>
	</g>
	<g>
		<g>
			<g>
				<path fill="#FAFAFA" d="M410.2,415.7c-0.1,0.1-1.6-1.7-3.4-4.1c-1.7-2.4-3-4.3-2.9-4.5c0.1-0.1,1.6,1.7,3.4,4.1
					C409,413.6,410.4,415.6,410.2,415.7z"/>
			</g>
		</g>
	</g>
	<g>
		<g>
			<g>
				<path fill="#FAFAFA" d="M433.4,409.5c0,0.2-2.4,0-5.3-0.7c-2.9-0.7-5.1-1.7-5-1.9c0.1-0.2,2.3,0.6,5.1,1.3
					C431.1,408.9,433.4,409.3,433.4,409.5z"/>
			</g>
		</g>
	</g>
	<g>
		<g>
			<g>
				<path fill="#FAFAFA" d="M449.9,409.2c-0.1-0.1,0.8-2.2,1.7-4.8c0.9-2.7,1.5-4.9,1.7-4.8c0.1,0-0.2,2.3-1.1,5
					C451.2,407.2,450,409.3,449.9,409.2z"/>
			</g>
		</g>
	</g>
	<g>
		<g>
			<g>
				<path fill="#FAFAFA" d="M446.2,432.8c0,0.1-2.3-0.5-4.8-2c-2.5-1.5-4.1-3.4-4-3.5c0.1-0.1,1.8,1.5,4.3,3
					C444.1,431.7,446.2,432.6,446.2,432.8z"/>
			</g>
		</g>
	</g>
	<g>
		<g>
			<g>
				<path fill="#FAFAFA" d="M456.9,432c-0.2,0,0.4-3.1,1.2-6.9c0.8-3.8,1.6-6.8,1.8-6.8c0.2,0-0.4,3.1-1.2,6.9
					C457.8,429,457,432.1,456.9,432z"/>
			</g>
		</g>
	</g>
	<g>
		<g>
			<g>
				<path fill="#FAFAFA" d="M447.9,458.4c-0.1,0.1-1.9-2.2-3.9-5.1c-2-2.9-3.6-5.4-3.4-5.5c0.1-0.1,1.9,2.2,3.9,5.1
					C446.5,455.9,448.1,458.3,447.9,458.4z"/>
			</g>
		</g>
	</g>
	<g>
		<g>
			<g>
				<path fill="#FAFAFA" d="M463.2,448.3c-0.2,0.1-1.2-2-2.7-4.4c-1.6-2.4-3.1-4-3-4.2c0.1-0.1,1.9,1.4,3.5,3.8
					C462.5,446,463.3,448.3,463.2,448.3z"/>
			</g>
		</g>
	</g>
	<g>
		<g>
			<g>
				<path fill="#FAFAFA" d="M477.5,446.1c-0.1,0.1-1.6-2.2-3.5-4.9c-1.9-2.7-3.6-4.7-3.5-4.9c0.1-0.1,2,1.8,4,4.5
					C476.4,443.5,477.6,446,477.5,446.1z"/>
			</g>
		</g>
	</g>
	<g>
		<g>
			<g>
				<path fill="#FAFAFA" d="M474.1,456.1c-0.2,0-0.1-2-1.3-4c-1.2-2-3-2.7-2.9-2.8c0-0.1,0.5,0,1.2,0.4c0.7,0.4,1.6,1.1,2.2,2.1
					c0.7,1.1,0.9,2.2,1,3C474.3,455.6,474.2,456.1,474.1,456.1z"/>
			</g>
		</g>
	</g>
	<g>
		<g>
			<g>
				<path fill="#FAFAFA" d="M463,469.8c-0.1,0-0.1-0.3-0.1-0.7c-0.1-0.4-0.3-1-0.8-1.3c-0.5-0.4-1-0.5-1.4-0.4c-0.4,0-0.7,0.1-0.7,0
					c0-0.1,0.2-0.3,0.6-0.5c0.5-0.1,1.2-0.1,1.8,0.4c0.6,0.5,0.8,1.3,0.8,1.8C463.2,469.6,463,469.8,463,469.8z"/>
			</g>
		</g>
	</g>
	<g>
		<g>
			<g>
				<path fill="#FAFAFA" d="M348.6,491.8c0,0.1-2.9-1-5.5-3.8c-2.6-2.7-3.7-5.8-3.6-5.8c0.2-0.1,1.4,2.7,4,5.4
					C346.1,490.2,348.7,491.6,348.6,491.8z"/>
			</g>
		</g>
	</g>
	<g>
		<g>
			<path fill="#FFBE9D" d="M278.7,203.7c-1.8-17.7-5-34.3-5.8-51.6c0-0.9-0.1-1.8-0.8-2.4c-0.9-0.7-2.3-0.1-2.8,0.9
				c-0.6,1-0.6,2.3-0.6,3.5c0,9.2-1.4,18.4-4.4,27c-1.9,5.6-4.4,11-5.8,16.8c-1.4,5.8,1.2,7.7,3.7,13.1"/>
		</g>
	</g>
	<g>
		<g>
			<g>
				<g>
					<path fill="#263238" d="M187.7,133.9c-0.2,0.2-10.8-6.8-23.7-15.6c-12.9-8.8-23.3-16-23.1-16.2c0.2-0.2,10.8,6.8,23.7,15.6
						C177.5,126.5,187.9,133.7,187.7,133.9z"/>
				</g>
			</g>
		</g>
		<g>
			<g>
				<g>
					<path fill="#263238" d="M241.6,123.5c-0.3,0-1.3-13.5-2.4-30.2c-1-16.7-1.7-30.2-1.4-30.3c0.3,0,1.3,13.5,2.4,30.2
						C241.2,109.9,241.8,123.5,241.6,123.5z"/>
				</g>
			</g>
		</g>
		<g>
			<g>
				<g>
					<path fill="#263238" d="M207.3,113.8c-0.3,0.1-3.6-7.7-7.4-17.2c-3.8-9.6-6.7-17.4-6.5-17.5c0.3-0.1,3.6,7.7,7.4,17.2
						C204.6,105.9,207.5,113.7,207.3,113.8z"/>
				</g>
			</g>
		</g>
		<g>
			<g>
				<g>
					<path fill="#263238" d="M176.7,148.2c-0.1,0.2-6.6-2-14.6-4.9c-7.9-2.9-14.3-5.5-14.2-5.7c0.1-0.2,6.6,2,14.6,4.9
						C170.5,145.4,176.8,148,176.7,148.2z"/>
				</g>
			</g>
		</g>
		<g>
			<g>
				<g>
					<path fill="#263238" d="M127,130.7c0,0.2-1.6,0.2-3.5,0c-1.9-0.2-3.4-0.5-3.4-0.7c0-0.2,1.6-0.2,3.5,0
						C125.5,130.1,127,130.5,127,130.7z"/>
				</g>
			</g>
		</g>
		<g>
			<g>
				<g>
					<path fill="#263238" d="M194.6,69.3c-0.3,0-0.5-1.2-0.5-2.8c0-1.5,0.2-2.8,0.5-2.8c0.3,0,0.5,1.2,0.5,2.8
						C195.1,68,194.9,69.3,194.6,69.3z"/>
				</g>
			</g>
		</g>
		<g>
			<g>
				<g>
					<path fill="#263238" d="M308.4,90.7c0.2,0.1-8.5,8.2-19.5,18c-11,9.8-20,17.6-20.2,17.5c-0.2-0.1,8.5-8.2,19.5-18
						C299.1,98.4,308.2,90.6,308.4,90.7z"/>
				</g>
			</g>
		</g>
		<g>
			<g>
				<g>
					<path fill="#263238" d="M322.3,79.7c0.2,0.2-0.8,1.2-2.2,2.4c-1.4,1.2-2.7,2-2.9,1.8c-0.2-0.2,0.8-1.2,2.2-2.4
						C320.7,80.3,322.1,79.5,322.3,79.7z"/>
				</g>
			</g>
		</g>
		<g>
			<g>
				<g>
					<path fill="#263238" d="M355.9,118.6c0,0-0.9,0.5-2.6,1.2c-1.7,0.7-4.1,1.8-7.2,3c-6.1,2.5-14.7,5.7-24.4,9
						c-9.7,3.2-18.6,5.8-25.1,7.6c-3.3,0.9-5.9,1.5-7.8,2c-1.8,0.4-2.9,0.6-2.9,0.6c0-0.1,1-0.4,2.8-0.9c2-0.6,4.5-1.3,7.6-2.2
						c6.5-1.9,15.3-4.5,25-7.8c9.7-3.2,18.3-6.4,24.5-8.8c3-1.1,5.4-2.1,7.3-2.8C354.9,118.9,355.9,118.6,355.9,118.6z"/>
				</g>
			</g>
		</g>
		<g>
			<g>
				<g>
					<path fill="#263238" d="M328.3,156.1c0,0.1-1.9,0.6-5,1.3c-3.1,0.7-7.5,1.5-12.4,2.2c-4.9,0.7-9.4,1.1-12.6,1.3
						c-3.3,0.2-5.3,0.2-5.3,0.1c0-0.1,2-0.3,5.2-0.6c3.2-0.3,7.7-0.8,12.5-1.5c4.9-0.7,9.3-1.4,12.4-2
						C326.3,156.3,328.3,156,328.3,156.1z"/>
				</g>
			</g>
		</g>
		<g>
			<g>
				<g>
					<path fill="#263238" d="M353.4,152.4c0,0.2-2.4,0.4-5.4,0.4c-3,0-5.4-0.2-5.4-0.4c0-0.2,2.4-0.4,5.4-0.4
						C351,152,353.4,152.1,353.4,152.4z"/>
				</g>
			</g>
		</g>
	</g>
	<g>
		<g>
			<path fill="#FFBE9D" d="M262.2,210.9c-4.4-3.5-6.7-9.6-5.8-15.3c0.6-3.5,2.2-6.6,3.5-9.9c1.3-3.3,2.3-6.9,1.5-10.3
				c-0.3-1.3-0.9-2.6-0.9-3.9c0-1.4,0.8-2.9,2.1-2.9c1,0,1.8,0.7,2.4,1.5c2.1,2.8,3.9,11,2.8,17.1"/>
		</g>
	</g>
	<g>
		<g>
			<g>
				<path fill="#EB996E" d="M267.8,187.2c-0.1,0,0.1-0.9,0.2-2.6c0.1-1.7,0-4.2-0.6-7.1c-0.3-1.5-0.7-3.1-1.3-4.7
					c-0.3-0.8-0.7-1.6-1.2-2.4c-0.5-0.7-1.2-1.4-2.1-1.5c-0.8-0.1-1.6,0.7-1.8,1.6c-0.3,0.9-0.1,2,0.2,3c0.3,1,0.7,2.1,0.8,3.3
					c0.1,1.2,0.1,2.3-0.1,3.5c-0.8,4.7-3.1,8.5-4.3,12.3c-0.6,1.9-1,3.7-1,5.5c0,1.8,0.3,3.4,0.7,4.8c0.8,2.9,2.2,4.9,3.3,6.2
					c1.1,1.3,1.8,1.8,1.8,1.8c0,0-0.2-0.1-0.5-0.4c-0.3-0.3-0.8-0.7-1.4-1.3c-1.1-1.2-2.6-3.2-3.5-6.2c-0.5-1.5-0.8-3.1-0.8-5
					c0-1.8,0.3-3.8,1-5.7c1.2-3.9,3.6-7.7,4.3-12.2c0.2-1.1,0.2-2.3,0.1-3.3c-0.1-1.1-0.4-2.1-0.7-3.2c-0.3-1-0.5-2.2-0.2-3.3
					c0.2-0.5,0.5-1,0.9-1.4c0.4-0.4,1-0.6,1.5-0.6c1.1,0.1,1.9,1,2.4,1.7c0.6,0.8,1,1.7,1.3,2.5c0.6,1.7,1,3.3,1.3,4.8
					c0.5,3,0.5,5.5,0.4,7.2c-0.1,0.9-0.2,1.5-0.2,2C267.8,187,267.8,187.2,267.8,187.2z"/>
			</g>
		</g>
	</g>
	<g>
		<g>
			<path fill="#351A03" d="M411.5,281.5c0.6,3.3,3.6,5.9,6.8,6.2c3.2,0.3,6.4-1.5,8.3-4.3s2.5-6.3,2.1-9.7c-0.6-4.9-3.7-9.6-8.2-11
				c-4.5-1.5-10,1.1-11.2,5.9l-5.1,7.6L411.5,281.5z"/>
		</g>
	</g>
	<g>
		<g>
			<g>
				<path fill="#FFBE9D" d="M405.4,266.6c2.1-17.6-10-33.7-26.9-35.4c-16-1.6-30.1,10.9-32.5,27.7c-2.1,14.7-3.9,29.5-3.8,34.9
					c0.2,16.2,9.2,22.5,12.8,24.4c0.8,0.4,3.1,0.9,4,1.1l0,0c0.1,0,0.1,0.1,0.1,0.1l-3.4,18.6c-1.5,12.2,4.9,23.1,16.4,24.9
					c11.6,1.8,20.6-7.6,22.4-19.8L405.4,266.6z"/>
			</g>
		</g>
		<g>
			<g>
				<g>
					<g>
						<g>
							<g>
								<g>
									<path fill="#263238" d="M348.6,268.4c0.3,0.4,2.3-0.8,4.9-0.4c2.6,0.4,4.3,2.1,4.6,1.8c0.2-0.1-0.1-0.8-0.8-1.5
										c-0.7-0.8-2-1.6-3.7-1.8c-1.6-0.2-3.1,0.2-3.9,0.7C348.8,267.6,348.5,268.2,348.6,268.4z"/>
								</g>
							</g>
						</g>
					</g>
				</g>
			</g>
		</g>
		<g>
			<g>
				<g>
					<g>
						<g>
							<g>
								<g>
									<path fill="#263238" d="M371.7,273.7c0.3,0.4,2.3-0.8,4.9-0.4c2.6,0.4,4.3,2.1,4.6,1.8c0.2-0.1-0.1-0.8-0.8-1.5
										c-0.7-0.8-2-1.6-3.7-1.8c-1.6-0.2-3.1,0.2-3.9,0.7C372,272.9,371.6,273.5,371.7,273.7z"/>
								</g>
							</g>
						</g>
					</g>
				</g>
			</g>
		</g>
		<g>
			<g>
				<g>
					<g>
						<g>
							<g>
								<path fill="#263238" d="M362.7,286.6c0-0.2-1.5-0.7-4.1-1.5c-0.7-0.2-1.3-0.4-1.3-0.9c-0.1-0.5,0.3-1.2,0.7-2
									c0.9-1.6,1.8-3.3,2.7-5c3.8-7.2,6.6-13.1,6.3-13.3c-0.3-0.2-3.6,5.5-7.3,12.7c-0.9,1.8-1.8,3.5-2.6,5.1
									c-0.4,0.8-0.9,1.6-0.7,2.7c0.1,0.6,0.5,1,1,1.2c0.4,0.2,0.8,0.3,1.1,0.3C361.1,286.5,362.7,286.8,362.7,286.6z"/>
							</g>
						</g>
					</g>
				</g>
			</g>
		</g>
		<g>
			<g>
				<g>
					<g>
						<g>
							<path fill="#EB996E" d="M359.1,319.2c0,0,9.9,2.4,23.6-3.6c0,0-5.9,13.4-24.5,8.6L359.1,319.2z"/>
						</g>
					</g>
				</g>
			</g>
		</g>
		<g>
			<g>
				<g>
					<g>
						<g>
							<path fill="#EB996E" d="M362.9,293.4c1.1-1.2,2.9-1.6,4.5-1.2c1.1,0.3,2.2,1.1,2.7,2.1c0.6,1.1,0.5,2.5-0.2,3.3
								c-0.8,0.9-2.3,0.9-3.5,0.4c-1.2-0.6-2.1-1.6-3-2.6c-0.2-0.3-0.5-0.6-0.6-0.9c-0.1-0.4-0.1-0.8,0.1-1"/>
						</g>
					</g>
				</g>
			</g>
		</g>
		<g>
			<g>
				<g>
					<g>
						<g>
							<g>
								<path fill="#263238" d="M370.1,289.7c-0.4-0.1-0.8,2.9-3.5,4.6c-2.7,1.8-5.7,1-5.7,1.4c-0.1,0.2,0.6,0.7,1.9,0.9
									c1.2,0.2,3.1,0.1,4.8-1c1.7-1.1,2.5-2.7,2.8-3.9C370.5,290.5,370.3,289.7,370.1,289.7z"/>
							</g>
						</g>
					</g>
				</g>
			</g>
		</g>
		<g>
			<g>
				<g>
					<g>
						<g>
							<path fill="#263238" d="M373.5,264.7c0.2,0.8,2.8,0.8,5.8,1.7c3,0.8,5.3,2.1,5.8,1.5c0.2-0.3-0.1-1.1-1-1.9
								c-0.9-0.9-2.4-1.8-4.2-2.3c-1.8-0.5-3.5-0.4-4.7-0.1C374.1,263.8,373.5,264.3,373.5,264.7z"/>
						</g>
					</g>
				</g>
			</g>
		</g>
		<g>
			<g>
				<g>
					<g>
						<g>
							<path fill="#263238" d="M351.2,259.9c0.4,0.7,2.3,0.3,4.4,0.6c2.2,0.2,3.9,1,4.4,0.4c0.2-0.3,0-1-0.7-1.7
								c-0.7-0.7-2-1.4-3.4-1.6c-1.5-0.2-2.8,0.2-3.7,0.7C351.4,259,351.1,259.6,351.2,259.9z"/>
						</g>
					</g>
				</g>
			</g>
		</g>
	</g>
	<g>
		<g>
			<path fill="#351A03" d="M342.9,255.2c3.2,5.1,13.3,2,19.4-1.6c6.4,4.5,15.3,2.5,19.8-4.3c3.5,4.7,10.6,3.1,13.1-2.1
				c2.6-5.3,1.1-12.6-2.4-17.2c-3.5-4.6-8.7-7-13.9-8c-12.1-2.4-25.4,2.6-32.6,14.2C343,241.6,341,248.8,342.9,255.2"/>
		</g>
	</g>
	<g>
		<g>
			<g>
				<path fill="#455A64" d="M376.5,223.9c0,0.2-2.9-0.4-7.4,0.4c-4.4,0.8-10.6,3.2-15.3,8.7c-4.5,5.5-6.6,12.1-7.3,16.8
					c-0.8,4.8-0.2,7.8-0.4,7.8c-0.1,0-0.2-0.7-0.4-2.1c-0.1-1.4-0.2-3.4,0.1-5.8c0.6-4.8,2.6-11.6,7.3-17.4
					c4.8-5.7,11.3-8.1,15.9-8.7c2.3-0.3,4.2-0.3,5.5-0.1C375.8,223.7,376.5,223.9,376.5,223.9z"/>
			</g>
		</g>
	</g>
	<g>
		<g>
			<g>
				<path fill="#455A64" d="M360.1,247.7c-0.1,0-0.2-0.6-0.2-1.8c-0.1-1.2,0-2.9,0.5-5c0.9-4.1,3.7-9.8,9.1-13.2
					c5.5-3.4,11.5-3.2,15.4-2c1.9,0.6,3.4,1.3,4.4,2c1,0.6,1.4,1.1,1.4,1.1c-0.1,0.2-2.1-1.4-6-2.4c-3.7-1-9.5-1-14.7,2.2
					c-5.1,3.2-7.9,8.6-8.9,12.5C360,245.1,360.3,247.8,360.1,247.7z"/>
			</g>
		</g>
	</g>
	<g>
		<g>
			<path fill="#351A03" d="M389.2,242.2c-1,4.6-2,9.2-2,13.9c0,4.7,1.1,9.5,4,13.2c4.2,5.4,11.3,7,17.9,8.4c3.5-9.2,4.6-19.3,3-29.1
				c-0.7-4.8-2.2-9.6-5.4-13.1c-4.6-5-12.6-6-18.1-2.3"/>
		</g>
	</g>
	<g>
		<g>
			<path fill="#351A03" d="M392.9,264.7c-1.7,3.9-1.6,8.5-1,12.7c0.6,4.3,1.6,8.5,1.6,12.8c0,4.3-1.3,8.9-4.6,11.6
				c-0.9,0.8-2,1.4-2.7,2.3c-0.8,0.9-1.2,2.3-0.6,3.4c0.6,1,2.5,1,2.7-0.2l-0.2,0.3c-0.7,1.3,0.2,2.9,1.5,2.9c2.2,0,4.4-1.3,5.9-3
				c2.1-2.6,2.9-6,3.5-9.3c1.7-10.3,1.4-20.9,4-30.9"/>
		</g>
	</g>
	<g>
		<g>
			<path fill="#F3CE63" d="M355.6,332c1.5,7,6,13.1,12,16.5c6,3.3,13.3,3.8,19.6,1.2c5.7-2.3,10.3-6.9,14.7-11.3
				c1.6,10-1.1,20.7-7.1,28.7c-6,8-15.3,13-24.9,13.6c-7.3,0.5-15.1-1.9-19.7-7.9c-3.2-4.2-4.5-9.7-4.4-15.1
				c0.1-5.4,1.3-10.6,2.9-15.8c1.3-4.4,3.4-9.3,7.6-10.5"/>
		</g>
	</g>
	<g>
		<g>
			<path fill="#351A03" d="M407.7,278c4.4,2.5,6.7,7.7,7.6,12.9c0.8,5.2,0.4,10.4,0.6,15.7c0.2,5.2,1.2,10.7,4.3,14.7
				c3.3,4.3,8.5,6.4,13.2,9c10.2,5.8,18.7,15.7,21.8,27.6c3.1,11.9,0.3,25.6-8.1,34.1c-7.7,7.7-18.8,10.5-29.4,10.4
				c-7.6,0-15.9-1.7-20.6-8c-4.7-6.2-4.4-15-2.7-22.6c1.7-7.7,4.7-15.2,4.8-23c-1.1,4.9-3.1,9.5-5.8,13.6c-0.8,1.2-2.1,2.4-3.3,1.8
				c-1.3-0.7-0.8-2.8-0.2-4.3c9.1-21.4,5.9-64.5,11.3-88.1"/>
		</g>
	</g>
	<g>
		<g>
			<g>
				<g>
					<g>
						<g>
							<g>
								<g>
									<g>
										<g>
											<path fill="#FFBE9D" d="M400.2,275.5c0.3-0.1,10.9-2.2,9.5,8.9c-1.4,11.1-11.6,7.4-11.6,7
												C398.2,291.1,400.2,275.5,400.2,275.5z"/>
										</g>
									</g>
								</g>
							</g>
						</g>
					</g>
				</g>
			</g>
		</g>
		<g>
			<g>
				<g>
					<g>
						<g>
							<g>
								<g>
									<g>
										<g>
											<g>
												<path fill="#EB996E" d="M401.9,287.7c0.1,0,0.2,0.2,0.5,0.4c0.3,0.2,0.8,0.4,1.4,0.2c1.2-0.3,2.3-2,2.6-4
													c0.2-1,0.1-2-0.2-2.8c-0.2-0.9-0.6-1.5-1.2-1.7c-0.5-0.2-1,0.1-1.1,0.4c-0.2,0.3-0.1,0.5-0.2,0.5c0,0-0.2-0.2-0.1-0.7
													c0.1-0.2,0.2-0.5,0.5-0.6c0.3-0.2,0.7-0.2,1-0.1c0.8,0.2,1.4,1.1,1.7,2c0.3,0.9,0.4,2,0.3,3.2c-0.3,2.2-1.7,4.2-3.3,4.4
													c-0.8,0.1-1.4-0.2-1.6-0.5C401.9,288,401.8,287.7,401.9,287.7z"/>
											</g>
										</g>
									</g>
								</g>
							</g>
						</g>
					</g>
				</g>
			</g>
		</g>
	</g>
	<g>
		<g>
			<g>
				<path fill="#263238" d="M344.7,355.9c-0.1,0,0.6-1.3,1.8-3.4c1.1-2.1,2.7-5,3.8-8.5c1.1-3.5,1.3-6.8,0.9-9.2
					c-0.3-2.4-0.9-3.7-0.8-3.8c0,0,0.2,0.3,0.5,0.9c0.3,0.6,0.6,1.6,0.8,2.8c0.4,2.4,0.3,5.9-0.8,9.4c-1.1,3.5-2.8,6.5-4,8.5
					c-0.6,1-1.1,1.8-1.5,2.4C345,355.6,344.8,355.9,344.7,355.9z"/>
			</g>
		</g>
	</g>
	<g>
		<g>
			<g>
				<path fill="#FAFAFA" d="M350.1,343.1c-0.2,0-0.5-0.9-1.4-1.6c-0.9-0.7-1.9-0.7-1.9-0.8c0-0.1,0.2-0.2,0.7-0.2
					c0.4,0,1,0.1,1.6,0.5c0.5,0.4,0.9,0.9,1,1.4C350.2,342.8,350.2,343.1,350.1,343.1z"/>
			</g>
		</g>
	</g>
	<g>
		<g>
			<g>
				<path fill="#FAFAFA" d="M356.9,343.1c-0.1,0.1-1-1.5-2.7-2.7c-1.7-1.2-3.4-1.4-3.4-1.6c0-0.2,1.9-0.2,3.7,1.1
					C356.3,341.2,357,343,356.9,343.1z"/>
			</g>
		</g>
	</g>
	<g>
		<g>
			<g>
				<path fill="#FAFAFA" d="M361.1,366.6c-0.2,0,0.1-2.2,0.6-4.7c0.5-2.6,1-4.7,1.2-4.6s-0.1,2.2-0.6,4.7
					C361.8,364.6,361.3,366.7,361.1,366.6z"/>
			</g>
		</g>
	</g>
	<g>
		<g>
			<g>
				<path fill="#FAFAFA" d="M378.3,370.2c-0.2,0-0.2-2.2-0.1-5c0.1-2.8,0.3-5,0.4-5c0.2,0,0.2,2.2,0.1,5
					C378.6,367.9,378.4,370.2,378.3,370.2z"/>
			</g>
		</g>
	</g>
	<g>
		<g>
			<polygon fill="#B78876" points="28.2,421.7 11.3,499.7 47.1,499.8 63.7,431.3 			"/>
		</g>
	</g>
	<g>
		<g>
			<path fill="#263238" d="M204.2,326c-3.4-4.8-7.3-9.5-9.1-15.2c-0.9-2.8-1.2-5.7-2.1-8.4c-0.9-2.7-2.6-5.4-5.2-6.4
				c-2.6-1-4.5,0-6.2,1.9l-12.3,38l7.1,29.2c7.1-1.7,15.9-3.7,22.6-6.8c6.6-3.1,11-8.2,11.5-15.8C210.7,336.4,207.6,330.8,204.2,326
				z"/>
		</g>
	</g>
	<g>
		<g>
			<path fill="#7877A7" d="M92.3,319.3c0,0-42.8,19.7-48.1,28.5c-5.3,8.9-22.9,72.1-22.9,72.1l45,14l-0.7,65.8H176l-0.9-116
				l-13.9-64.1c0,0-24.4-1.7-26.6-2.8C132.4,315.5,92.3,319.3,92.3,319.3z"/>
		</g>
	</g>
	<g>
		<g>
			<g>
				<path fill="#B78876" d="M244.2,158.4c0.4-2.7-1.4-5.6-0.1-7.9c0.7-1.3,2.1-1.9,3.4-2.4c0.7-0.3,1.4-0.6,2.1-0.5
					c0.7,0,1.5,0.4,1.7,1.2c0.3,0.8-0.2,1.8-0.8,2.4c-0.6,0.6-1.3,1.2-1.7,2c-0.4,1.1,0,4.6,0.4,5.7c0.8,1.9,3.4,10.4,3.6,12.4"/>
			</g>
		</g>
		<g>
			<g>
				<path fill="#B78876" d="M235.2,159.3c0.2-4,3.3-19.9,3.4-23.9c2.6,0.8,4.1,3.7,4.6,6.5c0.5,2.8,0.2,5.7,0.7,8.5
					c0.6,3.8,2.5,7.2,4.3,10.5c1.9,3.3,3.8,6.6,4.7,10.3c0.8,3.7,4,13.4,1.5,16.2"/>
			</g>
		</g>
		<g>
			<g>
				<path fill="#B78876" d="M234.5,186.5l-15.3,76.7c-0.5,3.5-58,56.3-58,56.3l11.3,47.8l74.8-77.2c5.4-6.1,8.3-14.2,8.2-22.5
					l-1.3-72L234.5,186.5z"/>
			</g>
		</g>
		<g>
			<g>
				<path fill="#B78876" d="M231.9,159.8l2.6,26.7l19.8,9.2c0,0,0.2-1.9,1.1-11.1c0.9-10.2-9.4-14.6-14.1-22.1
					c-2-3.2-1.5-9.1-3-16.5c-0.2-0.8-1.3-6-1.9-8.7c-0.3-1.5-1.1-2.9-2.4-3.8c-0.9-0.6-1.9-0.9-2.6,0
					C230.7,134.4,231.9,159.8,231.9,159.8z"/>
			</g>
		</g>
		<g>
			<g>
				<path fill="#B78876" d="M244.2,190.9c2.3-2,2.7-5.6,1.9-8.6c-0.8-3-2.7-5.5-4.7-7.8c-1.9-2.4-4-4.7-5.2-7.5
					c-0.8-2-1.2-4.2-2.1-6.2c-0.9-2-2.6-3.8-4.7-3.8c1.7,11,1.6,17.4,5,29.5"/>
			</g>
		</g>
		<g>
			<g>
				<g>
					<path fill="#7C5142" d="M231.5,169.5c0,0-0.1-0.3-0.2-0.9c-0.1-0.7-0.3-1.5-0.5-2.5c-0.5-2.3-1.1-5.3-1.7-8.7l-0.1-0.3l0.3,0
						c1.3-0.1,2.7,0.5,3.7,1.5c1.7,1.6,2.5,3.7,3.1,5.6c0.6,1.9,1.1,3.6,1.7,4.8c0.6,1.3,1.5,2.1,1.9,2.8c0.5,0.7,0.7,1.1,0.7,1.1
						c0,0-0.3-0.3-0.8-1c-0.5-0.6-1.4-1.4-2.1-2.8c-0.7-1.3-1.3-3-1.9-4.9c-0.6-1.8-1.4-3.9-3-5.3c-1-0.9-2.2-1.4-3.3-1.3l0.3-0.4
						C230.9,164.3,231.7,169.5,231.5,169.5z"/>
				</g>
			</g>
		</g>
		<g>
			<g>
				<g>
					<path fill="#7C5142" d="M240.4,162.7c-0.2,0-1-4.9-1.8-10.9c-0.9-6-1.4-11-1.3-11c0.2,0,1,4.9,1.8,10.9
						C240,157.8,240.5,162.7,240.4,162.7z"/>
				</g>
			</g>
		</g>
		<g>
			<g>
				<g>
					<path fill="#7C5142" d="M246.7,163.6c0,0,0.1,0.1,0.1,0.4l-0.2,0c-0.4-1-1.2-4-2-7.6c-0.5-2.2-0.8-4.3-1-5.8
						c-0.2-1.5-0.3-2.4-0.2-2.4c0.2,0,0.8,3.6,1.8,8.1c0.8,3.6,1.5,6.6,1.6,7.7l-0.2,0C246.6,163.8,246.7,163.6,246.7,163.6z"/>
				</g>
			</g>
		</g>
		<g>
			<g>
				<g>
					<path fill="#7C5142" d="M250.6,178.3c-0.1,0.1-0.5-0.6-1.3-1.5c-0.8-0.9-2-2-3.6-2.8c-1.6-0.8-3.2-1.2-4.3-1.3
						c-1.2-0.1-1.9,0-1.9-0.1c0-0.1,0.7-0.3,1.9-0.3c1.2,0,2.9,0.3,4.6,1.1c1.7,0.9,2.9,2.1,3.7,3.1
						C250.4,177.6,250.6,178.3,250.6,178.3z"/>
				</g>
			</g>
		</g>
		<g>
			<g>
				<g>
					<path fill="#7C5142" d="M236.3,188.6c-0.1,0-0.6-1.2-1.3-3.2c-0.7-2-1.6-4.8-2.3-8c-0.7-3.2-1.2-6.1-1.4-8.2
						c-0.2-2.1-0.3-3.4-0.2-3.4c0.1,0,0.3,1.3,0.6,3.4c0.3,2.1,0.8,5,1.5,8.1c0.7,3.1,1.5,5.9,2.1,8
						C236,187.3,236.4,188.5,236.3,188.6z"/>
				</g>
			</g>
		</g>
	</g>
	<g>
		<g>
			<path fill="#7877A7" d="M147.8,320.9c1.8-3.2,6.4-4.3,9.4-2.3c8.1-6.9,16.3-13.7,24.4-20.7c-2.6,13.9-4.4,33.4,1.5,46.1
				c0,0,7.4,14.6,19.3,12.4l-10.6,11l-16.7,16.3"/>
		</g>
	</g>
	<g>
		<g>
			<g>
				<path fill="#263238" d="M145.2,327.4c-0.1,0,0-2.6,1.6-5.2c1.5-2.7,3.6-4,3.7-3.9c0.1,0.1-1.8,1.6-3.2,4.2
					C145.8,325,145.4,327.4,145.2,327.4z"/>
			</g>
		</g>
	</g>
	<g>
		<g>
			<g>
				<path fill="#263238" d="M153.9,335.9c-0.1,0-0.5-0.9-0.9-2.5c-0.4-1.6-0.6-4-0.2-6.6c0.4-2.6,1.4-4.7,2.3-6.1
					c0.9-1.4,1.6-2.1,1.7-2c0.1,0.1-0.6,0.9-1.3,2.3c-0.8,1.4-1.7,3.5-2.1,6c-0.4,2.5-0.3,4.8,0,6.4
					C153.7,334.9,154,335.9,153.9,335.9z"/>
			</g>
		</g>
	</g>
	<g>
		<g>
			<g>
				<path fill="#FAFAFA" d="M194.3,365.8c0,0-0.8,0.6-2.6,1.1c-1.8,0.5-4.5,0.7-7.7-0.2c-3.2-0.9-6.6-3.4-9.3-7
					c-2.7-3.6-4.5-8.4-5.5-13.6c-1.9-10.4-1.8-20-1.3-26.8c0.3-3.4,0.6-6.2,0.9-8.1c0.1-1,0.3-1.7,0.4-2.2c0.1-0.5,0.2-0.8,0.2-0.8
					c0,0,0,0.3-0.1,0.8c-0.1,0.6-0.2,1.3-0.3,2.2c-0.2,1.9-0.5,4.7-0.7,8.1c-0.4,6.8-0.4,16.4,1.5,26.7c1,5.1,2.8,9.8,5.4,13.4
					c2.6,3.6,5.9,6,9,6.9c3.1,1,5.8,0.8,7.5,0.4C193.4,366.3,194.3,365.7,194.3,365.8z"/>
			</g>
		</g>
	</g>
	<g>
		<g>
			<g>
				<path fill="#263238" d="M66.5,453.4c-0.2,0-0.3-16.5-0.3-36.8c0-20.4,0.1-36.9,0.3-36.9c0.2,0,0.3,16.5,0.3,36.9
					C66.8,436.9,66.7,453.4,66.5,453.4z"/>
			</g>
		</g>
	</g>
	<g>
		<g>
			<g>
				<path fill="#263238" d="M65.7,367c-0.1,0-0.1-1.7-0.6-4.2c-0.3-1.3-0.7-2.8-1.4-4.4c-0.7-1.6-1.6-3.2-2.7-4.8
					c-1.2-1.6-2.4-2.9-3.7-4c-1.3-1.1-2.5-1.9-3.6-2.5c-2.2-1.2-3.7-1.6-3.7-1.7c0,0,0.4,0,1.1,0.2c0.3,0.1,0.8,0.2,1.2,0.4
					c0.5,0.2,1,0.4,1.6,0.7c1.2,0.6,2.4,1.4,3.8,2.5c1.3,1.1,2.6,2.5,3.8,4.1c1.2,1.6,2.1,3.4,2.7,5c0.6,1.6,1.1,3.2,1.3,4.5
					c0.1,0.7,0.2,1.3,0.2,1.8c0.1,0.5,0.1,1,0.1,1.4C65.7,366.6,65.7,367,65.7,367z"/>
			</g>
		</g>
	</g>
	<g>
		<g>
			<g>
				<path fill="#263238" d="M140.9,318.8c0,0,0.1,0.3,0.2,1c0.1,0.6,0.2,1.6,0.3,2.8c0.1,2.5-0.1,6.1-1.4,10.4c-1.3,4.2-3.8,9-8,13
					c-4.1,4-10.1,6.8-16.5,7.3c-6.5,0.5-12.7-1.3-17.4-4.6c-4.7-3.3-7.8-7.7-9.7-11.6c-1.9-4-2.6-7.6-2.8-10.1
					c-0.1-1.2-0.2-2.2-0.1-2.9c0-0.7,0-1,0-1c0,0,0,0.3,0.1,1c0,0.7,0.1,1.6,0.2,2.8c0.3,2.4,1.1,6,3,9.9c1.9,3.9,5,8.2,9.6,11.4
					c4.6,3.2,10.7,4.9,17,4.5c6.3-0.5,12.1-3.2,16.2-7.1c4.1-3.9,6.6-8.6,7.9-12.7c1.3-4.2,1.6-7.8,1.5-10.2c0-1.2-0.1-2.2-0.2-2.8
					C141,319.1,140.9,318.8,140.9,318.8z"/>
			</g>
		</g>
	</g>
	<g>
		<g>
			<g>
				<path fill="#FAFAFA" d="M65.6,419.5c0,0.2-9.1-2.9-20.3-6.8c-11.1-3.9-20.1-7.2-20.1-7.3c0-0.2,9.1,2.9,20.3,6.8
					C56.7,416,65.6,419.3,65.6,419.5z"/>
			</g>
		</g>
	</g>
	<g>
		<g>
			<g>
				<path fill="#FAFAFA" d="M174.1,403.4c0,0.2-24.2,0.4-54.1,0.5C90,404,65.8,404,65.8,403.8c0-0.2,24.2-0.4,54.1-0.5
					C149.8,403.2,174,403.2,174.1,403.4z"/>
			</g>
		</g>
	</g>
	<g>
		<g>
			<g>
				<path fill="#FAFAFA" d="M174.6,413.5c0,0.2-24.4,0.3-54.4,0.3c-30.1,0-54.4-0.1-54.4-0.3c0-0.2,24.4-0.3,54.4-0.3
					C150.2,413.2,174.6,413.3,174.6,413.5z"/>
			</g>
		</g>
	</g>
	<g>
		<g>
			<g>
				<path fill="#263238" d="M159.7,425.8c0,0-0.1,0.3-0.3,0.9c-0.2,0.7-0.6,1.5-1,2.6c-0.2,0.6-0.5,1.2-0.7,1.9
					c-0.3,0.7-0.6,1.4-1,2.2c-0.7,1.6-1.5,3.4-2.5,5.3c-0.5,1-1,2-1.6,3c-0.6,1.1-1.2,2.1-1.9,3.2c-1.2,2.2-2.8,4.5-4.4,6.9
					c-3.3,4.7-7.2,9.6-11.8,14.4c-4.6,4.7-9.3,8.8-13.9,12.1c-2.3,1.6-4.5,3.2-6.6,4.5c-1.1,0.7-2.1,1.3-3.1,1.9
					c-1,0.6-2,1.1-2.9,1.6c-1.8,1.1-3.6,1.8-5.1,2.6c-0.8,0.4-1.5,0.7-2.1,1c-0.7,0.3-1.3,0.5-1.8,0.7c-1.1,0.4-1.9,0.7-2.5,1
					c-0.6,0.2-0.9,0.3-0.9,0.3c0,0,0.3-0.2,0.9-0.4c0.6-0.3,1.4-0.6,2.5-1.1c0.5-0.2,1.1-0.5,1.8-0.8c0.7-0.3,1.3-0.7,2.1-1
					c1.5-0.8,3.2-1.5,5.1-2.6c0.9-0.5,1.9-1.1,2.9-1.6c1-0.6,2-1.3,3-1.9c2.1-1.3,4.3-2.9,6.6-4.5c4.5-3.4,9.2-7.4,13.8-12.1
					c4.5-4.7,8.4-9.6,11.7-14.3c1.6-2.4,3.1-4.6,4.4-6.8c0.6-1.1,1.3-2.1,1.9-3.2c0.6-1,1.1-2.1,1.6-3c1.1-1.9,1.8-3.7,2.6-5.3
					c0.4-0.8,0.7-1.5,1-2.2c0.3-0.7,0.5-1.3,0.8-1.9c0.5-1.1,0.8-2,1.1-2.6C159.5,426.1,159.7,425.8,159.7,425.8z"/>
			</g>
		</g>
	</g>
	<g opacity="0.3">
		<g>
			<g>
				<path d="M155.2,435.9c-7.4,9.5-15.1,16.4-26,20.8c-5.2,2.1-10.6,3.6-15.7,6.1c-5,2.5-9.8,6.3-12,11.7
					c-1.7,4.2-0.9,10.4,3.3,11.3c1.6,0.4,3.2-0.2,4.8-0.8C131.1,476.8,145.2,456,155.2,435.9"/>
			</g>
		</g>
	</g>
	<g>
		<g>
			<g>
				<g>
					<path fill="#263238" d="M78.4,229.3c-4.6,3.8-5,11-4.7,17.3c0.2,6.2,0.3,13.3-4,17.6C66.1,267.7,60,269,59,274
						c-0.5,2.3,0.6,4.9,2.5,6.2c1.9,1.3,4.6,1.1,6.4-0.4c-1.5,3.9-0.8,9,2.4,11.6c3.2,2.6,8.7,1.4,9.9-2.7c-0.7,2.7,1,5.8,3.6,6.4
						c2.6,0.6,5.4-1.4,5.9-4.1"/>
				</g>
			</g>
			<g>
				<g>
					<path fill="#263238" d="M145.7,274.3c1,3.1,4.6,5,7.6,3.9c2.9-1.1,4.6-5,3.4-8.1c-0.9-2.4-3.2-4.2-3.4-6.8
						c-0.1-3.1,3-5.2,5.7-6.4c2.7-1.2,5.9-2.8,6.4-5.9c0.4-3-2-5.5-4.1-7.6c-2-2.1-4-5.3-2.6-8c0.7-1.3,2.2-2.1,3.1-3.2
						c2.1-2.6,1.3-6.9-1.2-9.2c-2.5-2.2-6-2.7-9.2-2.3c-3.2,0.4-6.3,1.7-9.5,2.5c-10.4,2.7-21.9,0.5-30.7-5.9"/>
				</g>
			</g>
			<g>
				<g>
					<g>
						<g>
							<g>
								<g>
									<g>
										<g>
											<g>
												<g>
													<g>
														<g>
															<g>
																<path fill="#B78876" d="M81.5,253.2l11.3,69.2c2,12.2,13,20.3,24.5,18.1l0,0c10.8-2,18.3-12.4,17.3-23.9
																	c-0.5-6.1-1-11.2-1-11.2s16.4-4.5,15-22.1c-0.7-8.5-3.5-25.9-6.1-41.7c-2.9-16.9-17.6-28.6-33.7-27l-1.6,0.2
																	C89.9,217.8,78.3,235.1,81.5,253.2z"/>
															</g>
														</g>
													</g>
												</g>
											</g>
										</g>
									</g>
								</g>
							</g>
						</g>
					</g>
				</g>
				<g>
					<g>
						<g>
							<g>
								<g>
									<g>
										<g>
											<g>
												<g>
													<g>
														<g>
															<g>
																<g>
																	<g>
																		<g>
																			<path fill="#263238" d="M139,253.1c0.2,1.3-0.8,2.6-2.1,2.8c-1.3,0.2-2.5-0.7-2.7-2c-0.2-1.3,0.8-2.6,2.1-2.8
																				C137.7,250.9,138.9,251.8,139,253.1z"/>
																		</g>
																	</g>
																</g>
															</g>
														</g>
													</g>
												</g>
											</g>
										</g>
										<g>
											<g>
												<g>
													<g>
														<g>
															<g>
																<g>
																	<g>
																		<g>
																			<g>
																				<path fill="#263238" d="M139.7,250.7c-0.3,0.4-2.2-0.9-4.8-0.6c-2.6,0.2-4.3,1.8-4.6,1.5
																					c-0.2-0.1,0.1-0.8,0.9-1.5c0.7-0.7,2.1-1.5,3.7-1.6c1.6-0.2,3,0.3,3.8,0.9C139.6,250,139.9,250.6,139.7,250.7z"
																					/>
																			</g>
																		</g>
																	</g>
																</g>
															</g>
														</g>
													</g>
												</g>
											</g>
										</g>
									</g>
									<g>
										<g>
											<g>
												<g>
													<g>
														<g>
															<g>
																<g>
																	<g>
																		<g>
																			<path fill="#263238" d="M114,256.2c0.2,1.3-0.8,2.6-2.1,2.8c-1.3,0.2-2.5-0.7-2.7-2c-0.2-1.3,0.8-2.6,2.1-2.8
																				C112.6,254,113.8,254.9,114,256.2z"/>
																		</g>
																	</g>
																</g>
															</g>
														</g>
													</g>
												</g>
											</g>
										</g>
										<g>
											<g>
												<g>
													<g>
														<g>
															<g>
																<g>
																	<g>
																		<g>
																			<g>
																				<path fill="#263238" d="M114.6,253.8c-0.3,0.4-2.2-0.9-4.8-0.6c-2.6,0.2-4.3,1.8-4.6,1.5
																					c-0.1-0.1,0.1-0.8,0.9-1.5c0.7-0.7,2.1-1.5,3.7-1.6c1.6-0.2,3,0.3,3.8,0.9C114.4,253.1,114.7,253.6,114.6,253.8
																					z"/>
																			</g>
																		</g>
																	</g>
																</g>
															</g>
														</g>
													</g>
												</g>
											</g>
										</g>
									</g>
									<g>
										<g>
											<g>
												<g>
													<g>
														<g>
															<g>
																<g>
																	<g>
																		<g>
																			<path fill="#263238" d="M125.8,272.9c0-0.2,1.5-0.6,4.1-1.2c0.6-0.1,1.3-0.3,1.3-0.8c0.1-0.5-0.2-1.2-0.6-2
																				c-0.8-1.6-1.6-3.3-2.4-5.1c-3.4-7.2-5.9-13.2-5.6-13.3c0.3-0.1,3.2,5.6,6.6,12.8c0.8,1.8,1.6,3.5,2.3,5.1
																				c0.3,0.8,0.8,1.6,0.6,2.7c-0.1,0.5-0.6,1-1,1.1c-0.4,0.2-0.8,0.2-1.1,0.3C127.4,272.9,125.8,273.1,125.8,272.9z"
																				/>
																		</g>
																	</g>
																</g>
															</g>
														</g>
													</g>
												</g>
											</g>
										</g>
									</g>
								</g>
							</g>
						</g>
						<g>
							<g>
								<g>
									<g>
										<g>
											<g>
												<g>
													<g>
														<g>
															<path fill="#263238" d="M114.3,243.1c-0.2,0.8-2.8,0.7-5.7,1.4c-3,0.6-5.3,1.8-5.8,1.2c-0.2-0.3,0.2-1,1.1-1.8
																c0.9-0.8,2.4-1.6,4.2-2c1.8-0.4,3.5-0.3,4.6,0.1C113.8,242.3,114.4,242.8,114.3,243.1z"/>
														</g>
													</g>
												</g>
											</g>
										</g>
									</g>
								</g>
							</g>
						</g>
						<g>
							<g>
								<g>
									<g>
										<g>
											<g>
												<g>
													<g>
														<g>
															<path fill="#263238" d="M138.1,243c-0.4,0.7-2.2,0.2-4.3,0.4c-2.1,0.1-3.9,0.8-4.4,0.2c-0.2-0.3,0-0.9,0.7-1.6
																c0.7-0.7,2-1.3,3.4-1.4c1.5-0.1,2.8,0.3,3.6,0.9C137.9,242.1,138.3,242.7,138.1,243z"/>
														</g>
													</g>
												</g>
											</g>
										</g>
									</g>
								</g>
							</g>
						</g>
					</g>
				</g>
				<g>
					<g>
						<g>
							<path fill="#263238" d="M97.8,232.1C97.8,232.1,97.8,232.1,97.8,232.1c-2.5,2.6-4,6-4.1,9.5c0,0.1,0,0.2,0,0.4
								c-0.2,5.1,0.4,10.2,0.2,15.3c-0.2,5.1-1.4,10.4-4.6,14.2c-1.3,1.6-3.8,2.8-5.1,1.3c-0.5-0.6-0.7-1.4-0.8-2.2
								c-2-12-6.1-22.5-7.3-35.1c-0.3-3.5,0.9-6.8,3.4-9.1c2.3-2.2,5.2-4.4,8.1-3.3c2.9,1.1,7.1,6.3,9.4,8.4"/>
						</g>
					</g>
				</g>
				<g>
					<g>
						<g>
							<g>
								<g>
									<g>
										<g>
											<g>
												<g>
													<g>
														<path fill="#B78876" d="M87.9,260.6c-0.3-0.1-11.8-2.4-10.3,9.6c1.5,12,12.6,8,12.6,7.6
															C90.1,277.5,87.9,260.6,87.9,260.6z"/>
													</g>
												</g>
											</g>
										</g>
									</g>
								</g>
							</g>
						</g>
					</g>
					<g>
						<g>
							<g>
								<g>
									<g>
										<g>
											<g>
												<g>
													<g>
														<g>
															<path fill="#7C5142" d="M86.1,273.8c-0.1,0-0.2,0.2-0.5,0.4c-0.3,0.2-0.9,0.4-1.5,0.2c-1.3-0.3-2.5-2.2-2.8-4.3
																c-0.2-1.1-0.1-2.2,0.2-3.1c0.2-0.9,0.7-1.6,1.3-1.8c0.6-0.2,1.1,0.1,1.2,0.4c0.2,0.3,0.2,0.6,0.2,0.6
																c0,0,0.2-0.2,0.1-0.7c-0.1-0.2-0.2-0.5-0.5-0.7c-0.3-0.2-0.7-0.3-1.1-0.2c-0.9,0.2-1.6,1.1-1.8,2.1
																c-0.3,1-0.5,2.2-0.3,3.4c0.4,2.4,1.8,4.5,3.5,4.8c0.8,0.1,1.5-0.2,1.8-0.6C86.1,274,86.1,273.8,86.1,273.8z"/>
														</g>
													</g>
												</g>
											</g>
										</g>
									</g>
								</g>
							</g>
						</g>
					</g>
				</g>
				<g>
					<g>
						<g>
							<path fill="#263238" d="M87.4,224.7c-3.3-4.5,3.8-12.2,9.3-14.7c5.5-2.5,13.1-0.3,18.9,1.1c3.6,0.9,7.3,2.2,11,1.7
								c2.5-0.4,4.8-1.6,7-2.7c2.3-1.1,4.6-2.2,7.2-2.3c2.5-0.1,5.2,1.1,6.4,3.4c1.2,2.3,0.1,5.8-2.3,6.4c3-2.2,7.8-0.2,8.6,3.5
								c0.9,3.7-2.5,7.8-6.1,7.3c1.5-1.5,4.2,0.4,4.2,2.6c0,2.2-1.7,3.9-3.5,5c-4.5,2.7-10.2,2.6-15.2,1.3
								c-5.1-1.2-9.9-3.5-14.9-4.9c-5.1-1.4-13.5-3.9-18.3-1.6c-3.5,1.7-5.6,6.6-7.7,5.8c-2.1-0.8-3.5-2.8-4.1-5
								C87.2,229.4,87.3,227,87.4,224.7"/>
						</g>
					</g>
				</g>
			</g>
		</g>
		<g>
			<g>
				<path fill="#263238" d="M88,262.7c0.3,6.4,0.7,12.8,2.1,19c1.4,6.2,4,12.2,8.2,16.8c5.5,6,12.7,11.7,20.5,13
					c8.5,1.5,18.9-0.4,25.9-5.8c3.3-2.6,5.7-8.1,4.7-12.3c2.8-1.4,4.8-4.4,4.9-7.7c0.2-3.2-1.7-7.3-4.1-7.7c1.8-0.3,2.3-3.4,1.7-5.1
					c-0.7-1.8-3.1-2.3-4.9-1.9c-1.8,0.4-3.4,1.5-4.9,2.7c-1.5,1.2-3,2.4-4.8,3c-5.9,2-11.9-3.5-18.1-3.2c-5.6,0.2-10.6,5.1-16.1,4.3
					c-3.1-0.5-5.8-2.7-7.5-5.5c-1.7-2.8-1-13-1.6-16.2"/>
			</g>
		</g>
		<g>
			<g>
				<g opacity="0.6">
					<g>
						<path fill="#455A64" d="M132.9,290.3c0,0.1-0.5-0.2-1.4-0.4c-0.8-0.2-2-0.4-3.3-0.2c-1.3,0.2-2.3,0.9-3,1.4
							c-0.7,0.5-1.1,1-1.1,0.9c-0.1,0,0.2-0.6,0.9-1.2c0.7-0.6,1.8-1.4,3.2-1.6c1.4-0.3,2.7,0,3.5,0.4
							C132.5,289.8,132.9,290.2,132.9,290.3z"/>
					</g>
				</g>
			</g>
		</g>
		<g>
			<g>
				<g>
					<g>
						<g>
							<g>
								<g>
									<g>
										<g>
											<g>
												<path fill="#FFFFFF" d="M120.9,277c0.4-0.1,0.7,2.9,3.3,4.7c2.6,1.8,5.5,1.2,5.6,1.6c0.1,0.2-0.6,0.6-1.9,0.8
													c-1.2,0.2-3.1-0.1-4.6-1.2c-1.6-1.1-2.4-2.8-2.6-4C120.4,277.7,120.7,277,120.9,277z"/>
											</g>
										</g>
									</g>
								</g>
							</g>
						</g>
					</g>
				</g>
			</g>
		</g>
		<g>
			<g>
				<g>
					<path fill="#455A64" d="M112.6,309.4c0,0,0.3,0.1,0.7,0.3c0.5,0.2,1.2,0.4,2.1,0.7c1.8,0.5,4.5,1.1,7.9,1.3
						c1.7,0.1,3.5,0.1,5.5-0.1c2-0.2,4.1-0.6,6.2-1.3c2.1-0.7,4.3-1.7,6.3-3c2-1.4,4-3.1,5.5-5.3c1.8-2.6,2.6-5.8,2.2-8.7l0-0.2
						l0.2-0.1c1.4-0.6,2.6-1.8,3.4-3c0.4-0.6,0.8-1.3,1.1-1.9c0.3-0.7,0.4-1.4,0.5-2.1c0.3-2.9-1-5.5-2.6-7l-0.2-0.1l0.1-0.2
						c1.1-1.5,1.2-3.4,0.7-4.8c-0.5-1.4-1.6-2.2-2.5-2.6c-0.9-0.4-1.8-0.4-2.3-0.3c-0.5,0.1-0.8,0.2-0.8,0.1c0,0,0.3-0.2,0.8-0.3
						c0.5-0.1,1.4-0.1,2.4,0.2c1,0.4,2.2,1.2,2.8,2.7c0.6,1.5,0.6,3.5-0.7,5.2l0-0.3c1.8,1.6,3.1,4.4,2.9,7.4
						c-0.1,0.8-0.2,1.5-0.5,2.3c-0.3,0.7-0.7,1.4-1.2,2.1c-0.9,1.3-2.1,2.5-3.6,3.2l0.2-0.3c0.5,3.1-0.4,6.5-2.2,9.2
						c-1.5,2.3-3.6,4-5.7,5.4c-2.1,1.4-4.3,2.4-6.5,3.1c-2.2,0.7-4.3,1.1-6.3,1.2c-2,0.2-3.9,0.2-5.6,0c-3.4-0.2-6.1-0.9-7.9-1.5
						c-0.9-0.3-1.6-0.6-2.1-0.8C112.8,309.6,112.6,309.5,112.6,309.4z"/>
				</g>
			</g>
		</g>
		<g>
			<g>
				<g>
					<path fill="#455A64" d="M62.8,278.8c0,0-0.2,0-0.6-0.3c-0.4-0.2-0.8-0.7-1.2-1.5c-0.3-0.8-0.5-1.9-0.2-3.1
						c0.2-1.2,1.1-2.4,2.2-3.4c1.1-1,2.6-1.7,4.2-2.3c1.6-0.6,3.3-1.2,4.9-2.2c1.6-1,2.8-2.6,3.7-4.5c0.8-1.9,1.2-4.1,1.3-6.4
						c0.1-4.5-0.9-8.8-1-12.9c-0.2-4,0.6-7.7,2.3-10.2c1.7-2.5,4-3.7,5.5-4c0.8-0.2,1.4-0.1,1.8-0.1c0.4,0.1,0.6,0.1,0.6,0.1
						c0,0.1-0.9-0.2-2.4,0.2c-1.5,0.4-3.7,1.5-5.3,4c-1.6,2.4-2.3,6.1-2.1,10c0.1,3.9,1.1,8.2,1.1,12.9c-0.1,2.3-0.5,4.6-1.4,6.6
						c-0.9,2-2.2,3.7-3.9,4.8c-1.7,1.1-3.4,1.6-5,2.2c-1.6,0.6-3,1.3-4.1,2.2c-1.1,0.9-1.9,2-2.1,3.1c-0.3,1.1-0.1,2.2,0.1,2.9
						C61.8,278.5,62.8,278.8,62.8,278.8z"/>
				</g>
			</g>
		</g>
		<g>
			<g>
				<g>
					<path fill="#455A64" d="M145.2,217.4c0,0,0.2-0.1,0.5-0.2c0.2-0.1,0.4-0.2,0.6-0.2c0.3-0.1,0.6-0.2,0.9-0.2
						c1.4-0.2,3.7,0.1,5.6,2.1l0,0l0,0c1.3,1.7,2.1,4.3,1.7,7.2c-0.3,2.9-1.9,5.8-4.5,7.9c-2.6,2.1-6,3.3-9.6,3.5
						c-3.6,0.2-7.4-0.3-11.1-1.3c-6.1-1.6-11.6-4.3-16.1-7.5c-2.3-1.6-4.4-3-6.6-4.1c-2.2-1.1-4.4-1.6-6.4-1.7
						c-4.1-0.3-7.3,0.8-9.3,1.8c-2.1,1-3,1.9-3.1,1.8c0,0,0.9-0.9,3-2.1c2-1.1,5.3-2.3,9.5-2c2.1,0.1,4.3,0.6,6.5,1.7
						c2.2,1,4.4,2.5,6.7,4c4.5,3.1,9.9,5.9,16,7.4c3.7,0.9,7.4,1.5,10.9,1.3c3.5-0.2,6.8-1.4,9.3-3.3c2.5-2,4.1-4.8,4.4-7.5
						c0.4-2.7-0.3-5.3-1.5-6.9l0,0c-1.8-1.9-4-2.3-5.3-2.2C145.9,217.1,145.2,217.5,145.2,217.4z"/>
				</g>
			</g>
		</g>
		<g>
			<g>
				<g>
					<path fill="#455A64" d="M139.3,207.2c0,0,0.1,1-0.5,2.7c-0.6,1.6-2.1,3.8-4.7,5.4c-1.3,0.8-2.8,1.4-4.6,1.7
						c-1.7,0.3-3.6,0.3-5.6,0c-3.9-0.5-8-2.1-12.2-3.5c-4.3-1.4-8.6-2.2-12.3-1.4c-3.8,0.8-6.7,3.1-8.7,5.3c-2,2.3-3,4.6-3.5,6.2
						c-0.5,1.6-0.6,2.6-0.7,2.6c0,0,0-0.2,0.1-0.7c0-0.5,0.2-1.1,0.4-2c0.5-1.7,1.5-4.1,3.4-6.4c1.9-2.4,5-4.7,8.9-5.6
						c3.9-0.9,8.3-0.1,12.6,1.3c4.3,1.4,8.3,3,12.2,3.6c1.9,0.3,3.8,0.3,5.4,0c1.7-0.3,3.2-0.9,4.5-1.6c2.6-1.5,4-3.6,4.7-5.1
						C139.3,208.2,139.3,207.2,139.3,207.2z"/>
				</g>
			</g>
		</g>
	</g>
	<g>
		<g>
			<g>
				<path fill="#547FB2" d="M236.4,435.8c3.1,0.4,5.9,2.5,7.7,5.2c1.8,2.7,2.8,5.9,3.3,9.2c1,6.3-0.6,13.5-2.8,19.5
					c-6.1-3-9.4-10.5-10.8-14.4C231.5,449.1,231,436.4,236.4,435.8"/>
			</g>
		</g>
	</g>
	<g>
		<g>
			<g>
				<path fill="#547FB2" d="M253.5,478.6c-1.9-3.1-1.9-7.3-0.2-10.6c1.7-3.3,4.7-5.6,8.1-6.6c1.6-0.5,3.4-0.6,4.7,0.4
					c1.2,0.9,1.7,2.7,1.5,4.3c-0.2,1.6-1,3-1.9,4.3C262.6,474.7,258.7,478.3,253.5,478.6"/>
			</g>
		</g>
	</g>
	<g>
		<g>
			<g>
				<g>
					<path fill="#263238" d="M252,498.6c0,0-0.1-0.5-0.2-1.3c-0.1-0.9-0.2-2.1-0.3-3.6c-0.1-3.1-0.3-7.4,0.7-12.1
						c1-4.7,3.1-8.5,5.2-10.8c1-1.1,2-1.9,2.7-2.3c0.7-0.5,1.1-0.6,1.1-0.6c0.1,0.1-1.6,1-3.5,3.3c-1.9,2.2-3.9,6-4.9,10.6
						c-0.9,4.6-0.9,8.8-0.9,11.9C252.1,496.7,252.1,498.6,252,498.6z"/>
				</g>
			</g>
		</g>
	</g>
	<g>
		<g>
			<g>
				<g>
					<path fill="#263238" d="M237.8,445.4c0,0,0.3,0.7,0.8,2.1c0.5,1.3,1.1,3.3,1.8,5.7c1.5,4.9,3.5,11.6,5.5,19.1
						c2,7.5,3.7,14.3,4.8,19.3c0.6,2.5,1,4.5,1.3,5.9c0.3,1.4,0.4,2.2,0.4,2.2c0,0-0.3-0.7-0.6-2.1c-0.4-1.5-0.9-3.5-1.5-5.8
						c-1.2-4.9-3-11.7-5-19.2c-2-7.5-3.9-14.2-5.3-19.1c-0.7-2.4-1.2-4.3-1.6-5.8C237.9,446.2,237.7,445.4,237.8,445.4z"/>
				</g>
			</g>
		</g>
	</g>
	<g>
		<g>
			<g>
				<path fill="#547FB2" d="M245.4,484.6c-3-7.1-9.4-12.6-16.7-14c-1.8-0.4-4.1-0.3-5.2,1.3c-1,1.7-0.1,3.9,1,5.5
					c4.6,6.7,13.3,9.9,20.9,7.7"/>
			</g>
		</g>
	</g>
	<g>
		<g>
			<g>
				<g>
					<path fill="#263238" d="M230.8,476.2c0,0,0.4,0,1.2,0.1c0.4,0.1,0.9,0.1,1.4,0.3c0.5,0.2,1.2,0.3,1.8,0.6
						c1.3,0.5,2.9,1.2,4.5,2.2c1.6,1,3.3,2.3,4.8,3.9c1.5,1.6,2.8,3.3,3.8,5c1,1.7,1.7,3.3,2.2,4.7c0.3,0.7,0.4,1.3,0.6,1.9
						c0.2,0.6,0.3,1.1,0.3,1.5c0.1,0.8,0.2,1.3,0.2,1.3c-0.1,0-0.5-1.8-1.6-4.5c-0.5-1.3-1.3-2.9-2.3-4.5c-1-1.6-2.3-3.2-3.8-4.8
						c-1.5-1.5-3.1-2.8-4.7-3.8c-1.6-1-3-1.8-4.3-2.3C232.5,476.6,230.8,476.3,230.8,476.2z"/>
				</g>
			</g>
		</g>
	</g>
</g>
</svg>
