<?xml version="1.0" encoding="iso-8859-1"?>
<!-- Generator: Adobe Illustrator 24.1.2, SVG Export Plug-In . SVG Version: 6.00 Build 0)  -->
<!DOCTYPE svg PUBLIC "-//W3C//DTD SVG 1.1//EN" "http://www.w3.org/Graphics/SVG/1.1/DTD/svg11.dtd" [
	<!ENTITY st0 "fill:none;stroke:#FFFFFF;stroke-width:6;stroke-miterlimit:10;">
	<!ENTITY st1 "fill:#FFFFFF;">
]>
<svg version="1.1" id="&#x421;&#x43B;&#x43E;&#x439;_1"
	 xmlns="http://www.w3.org/2000/svg" xmlns:xlink="http://www.w3.org/1999/xlink" x="0px" y="0px" viewBox="0 0 500 500"
	 style="enable-background:new 0 0 500 500;" xml:space="preserve">
<g>
	<path style="&st0;" d="M433.9,106.5c-20.3,32.4-52.6,55.9-84.2,48.3c-31.6-7.6-36-41.2-30.3-75.9c5.9-35.7,49.5-47,81.2-39.4
		S454.4,73.9,433.9,106.5z"/>
	<polygon style="&st0;" points="357.2,190.7 317.5,180.9 344.7,156.3 357.3,159.3 	"/>
	
		<ellipse transform="matrix(1.793814e-02 -0.9998 0.9998 1.793814e-02 311.6893 353.0286)" style="&st0;" cx="335.6" cy="17.8" rx="10.8" ry="14.8"/>
	
		<ellipse transform="matrix(1.793814e-02 -0.9998 0.9998 1.793814e-02 265.54 357.7629)" style="&st0;" cx="314.9" cy="43.7" rx="5.4" ry="7.4"/>
	
		<ellipse transform="matrix(1.793814e-02 -0.9998 0.9998 1.793814e-02 266.4509 579.3725)" style="&st0;" cx="428.2" cy="154" rx="5.4" ry="7.4"/>
	
		<ellipse transform="matrix(1.793814e-02 -0.9998 0.9998 1.793814e-02 311.482 601.7435)" style="&st0;" cx="462.1" cy="142.3" rx="10.8" ry="14.8"/>
	<g>
		<g>
			<path style="&st1;" d="M351,50.5c-11.6,7.8-21.6,19.5-24,33.7c-0.4,2.5-0.4,4.7,0.9,6.9c1.1,1.9,3.2,3.6,5.4,4.1
				c2.3,0.5,4.9,0.4,6.9-0.9c1.9-1.2,3.8-3.1,4.1-5.4c0.4-2.7,1.2-5.3,2.3-7.9c-0.3,0.7-0.6,1.4-0.9,2.1c1.4-3.3,3.3-6.4,5.5-9.3
				c-0.5,0.6-0.9,1.2-1.4,1.8c2.6-3.4,5.7-6.3,9.1-9c-0.6,0.5-1.2,0.9-1.8,1.4c1-0.8,2-1.5,3.1-2.2c2-1.3,3.5-3.1,4.1-5.4
				c0.6-2.2,0.3-5-0.9-6.9C360.8,49.8,355.2,47.7,351,50.5L351,50.5z"/>
		</g>
	</g>
	<ellipse transform="matrix(1 -8.308281e-03 8.308281e-03 1 -1.2444 2.5389)" style="&st0;" cx="305" cy="151" rx="8.2" ry="6.3"/>
	<g>
		<path style="&st0;" d="M204.6,225.2h-51.8c-21.9,0-39.7-17.8-39.7-39.7V87.4c0-2.4,1.9-4.3,4.3-4.3H240c2.4,0,4.3,1.9,4.3,4.3
			v98.1C244.3,207.5,226.5,225.2,204.6,225.2z"/>
		<path style="&st0;" d="M111.9,92.7c0-5.9,5.4-10.7,12.2-10.7h23V28.5c0-3.5-3.2-6.3-7.2-6.3H23.2c-4,0-7.2,2.8-7.2,6.3v78.1
			c0,31.9,29.4,57.7,65.6,57.7h0c11,0,21.3-2.4,30.4-6.6V92.7z"/>
	</g>
	<path style="&st0;" d="M166.6,134.4c-0.5-8.3-8.7-15-18.8-15c-10.1,0-18.3,6.6-18.8,15H166.6z"/>
	<path style="&st0;" d="M178.1,185.1c-10.7,0-20.3-3-26.9-7.9c3.2,8.8,14.1,15.3,26.9,15.3c12.9,0,23.7-6.5,26.9-15.3
		C198.4,182.1,188.8,185.1,178.1,185.1z"/>
	<path style="&st0;" d="M81.1,113.1c8.9,0,17,3.1,22.6,8c-2.7-9-11.8-15.6-22.6-15.6s-19.9,6.6-22.6,15.6
		C64.1,116.2,72.1,113.1,81.1,113.1z"/>
	<path style="&st0;" d="M221.8,135.4c-0.5-8.3-8.7-15-18.8-15c-10.1,0-18.3,6.6-18.8,15H221.8z"/>
	<path style="&st0;" d="M71.5,67c-0.5-8.3-8.7-15-18.8-15S34.5,58.7,34,67H71.5z"/>
	<path style="&st0;" d="M129.2,68.1c-0.5-8.3-8.7-15-18.8-15s-18.3,6.6-18.8,15H129.2z"/>
	<line style="&st0;" x1="152.5" y1="325.2" x2="152.9" y2="467.7"/>
	<g>
		<path style="&st0;" d="M151.6,267.3C138,246.7,96.2,268,108.8,290c12.8,22.3,32.9,35.6,44.9,29.6c0.3-0.2,0.7-0.4,1-0.5
			C144.7,312.9,143.4,291.2,151.6,267.3z"/>
		<path style="&st0;" d="M153.4,262.4c-0.7,1.7-1.3,3.3-1.8,5c0.2,0.3,0.4,0.7,0.6,1c12.5,21.7,13.5,44,2.5,50.7
			c0.7,0.4,1.5,0.8,2.2,1.1c12.8,4.4,31.9-14.4,42.7-42C210.4,250.6,164.2,234.8,153.4,262.4z"/>
	</g>
	<line style="&st0;" x1="69.8" y1="376" x2="69.9" y2="407.9"/>
	<path style="&st0;" d="M221.7,400.3H257l-0.1-38.1l5.4,0c6.5,0,11.7-4.5,11.7-10.1l-0.1-19.8c0-5.5-5.3-10-11.8-10l-217.9,0.4
		c-6.5,0-11.7,4.5-11.7,10.1l0.1,19.8c0,5.5,5.3,10,11.8,10l6.8,0l0.2,92.8c0,6.9,6.6,12.4,14.6,12.4l155.6-0.3V400.3z"/>
	<line style="&st0;" x1="51.7" y1="363" x2="262.2" y2="362"/>
	<rect x="221.7" y="400.3" style="&st0;" width="78.5" height="76.7"/>
	<line style="&st0;" x1="221.7" y1="438.7" x2="300.2" y2="438.7"/>
	<line style="&st0;" x1="274" y1="400.3" x2="274" y2="477"/>
	<path style="&st0;" d="M254,429.6c-6.2-6.9,7.2-16,13.4-9.1c6.2,6.9,8.2,14.5,4.5,17S260.1,436.5,254,429.6z"/>
	<path style="&st0;" d="M255,457.3c-12.1,7.6-19.9-1.9-7.8-9.5c12.1-7.6,23.6-11.6,25.8-9C275.1,441.4,267.1,449.7,255,457.3z"/>
	<path style="&st0;" d="M462.1,292.2C462.1,292.2,462.1,292.2,462.1,292.2c0.1-23.1-28.1-42-63-42.2s-63.4,18.5-63.5,41.6
		c0,0.2,0,0.3,0,0.5c-6.6,1.5-11.6,6.9-11.6,13.3c0,7.6,6.9,13.8,15.4,13.9l11.6,0.1c11.5,8.8,28.5,14.4,47.5,14.5
		c19,0.1,36-5.4,47.7-14.1l15.1,0.1c8.6,0,15.6-6.1,15.6-13.7C477,298.6,470.4,292.6,462.1,292.2z"/>
	<line style="&st0;" x1="453.9" y1="319.8" x2="405.9" y2="474.7"/>
	<line style="&st0;" x1="343.5" y1="319.3" x2="403.6" y2="472.7"/>
	
		<ellipse transform="matrix(1 -1.006635e-03 1.006635e-03 1 -0.4756 0.4076)" style="&st0;" cx="404.7" cy="472.7" rx="2.3" ry="2"/>
	
		<ellipse transform="matrix(1 -1.006635e-03 1.006635e-03 1 -0.2966 0.3611)" style="&st0;" cx="358.6" cy="294.8" rx="5.8" ry="5.1"/>
	
		<ellipse transform="matrix(1 -1.006635e-03 1.006635e-03 1 -0.3065 0.3848)" style="&st0;" cx="382.1" cy="304.6" rx="10.9" ry="9.7"/>
	
		<ellipse transform="matrix(9.174297e-02 -0.9958 0.9958 9.174297e-02 55.6156 624.5762)" style="&st0;" cx="370.2" cy="281.8" rx="7.3" ry="8.1"/>
	
		<ellipse transform="matrix(1 -1.006635e-03 1.006635e-03 1 -0.2712 0.4342)" style="&st0;" cx="431.2" cy="269.6" rx="5.8" ry="5.1"/>
	
		<ellipse transform="matrix(9.174297e-02 -0.9958 0.9958 9.174297e-02 102.3334 693.06)" style="&st0;" cx="431.1" cy="290.4" rx="7.3" ry="8.1"/>
	<line style="&st0;" x1="411.2" y1="343" x2="402.9" y2="389"/>
	<line style="&st0;" x1="436.5" y1="348.3" x2="436.5" y2="348.3"/>
	<line style="&st0;" x1="407.7" y1="353.2" x2="407.7" y2="353.2"/>
	<line style="&st0;" x1="427.3" y1="343.1" x2="419" y2="392.1"/>
	<line style="&st0;" x1="444.5" y1="353.4" x2="395.4" y2="350.6"/>
	<line style="&st0;" x1="438.8" y1="374" x2="389.7" y2="371.2"/>
	<line style="&st0;" x1="415.4" y1="413.5" x2="383.7" y2="417.7"/>
	<line style="&st0;" x1="411.9" y1="425.7" x2="386.7" y2="428.2"/>
	<line style="&st0;" x1="394.3" y1="403.6" x2="402.6" y2="434.9"/>
</g>
</svg>
