<?xml version="1.0" encoding="iso-8859-1"?>
<!-- Generator: Adobe Illustrator 24.1.2, SVG Export Plug-In . SVG Version: 6.00 Build 0)  -->
<svg version="1.1" id="&#x421;&#x43B;&#x43E;&#x439;_1"
	 xmlns="http://www.w3.org/2000/svg" xmlns:xlink="http://www.w3.org/1999/xlink" x="0px" y="0px" viewBox="0 0 500 500"
	 enable-background="new 0 0 500 500" xml:space="preserve">
<g>
	<g>
		<path fill="#7877A7" d="M157.6,450.2l-10.5-55.8c0,0-6.2-26.9-27.4-36.2l-1.5-0.5c0,0-2-0.7-2-0.7c-0.9-0.4-4.3-1.6-5.3-1.9
			c-28.6-11-36.2-8.2-66,3.2c0,0-13.2,4-19.7,23.2c-6.4,19.2-18.7,49.3-18.7,49.3l29.7,11.7L42,433v34.8v29.7h35.3h46.5l-2.3-29.7
			l-0.4-36.6"/>
	</g>
	<g>
		<g>
			<path fill="#FAFAFA" d="M74.3,361.7c0,0-0.2,0.3-0.7,0.7c-0.2,0.2-0.5,0.5-0.9,0.8c-0.3,0.3-0.7,0.6-1.2,0.9
				c-0.9,0.7-2,1.3-3.3,1.9c-1.3,0.6-2.8,1.1-4.4,1.5c-1.6,0.3-3.2,0.5-4.6,0.5c-1.4,0-2.7-0.2-3.8-0.4c-0.5-0.1-1-0.2-1.4-0.3
				c-0.4-0.1-0.8-0.2-1.1-0.3c-0.6-0.2-0.9-0.3-0.9-0.4c0-0.1,1.3,0.4,3.4,0.8c1,0.2,2.3,0.3,3.7,0.3c1.4,0,2.9-0.2,4.5-0.5
				c1.6-0.4,3.1-0.9,4.4-1.4c1.3-0.6,2.4-1.2,3.3-1.8C73.3,362.6,74.3,361.6,74.3,361.7z"/>
		</g>
	</g>
	<g opacity="0.3">
		<polygon points="42,457.6 48.7,466.2 55.3,466.2 55.3,475.6 123.5,493.1 122.9,485.8 58.7,461.3 48,461.3 42.8,456.7 		"/>
	</g>
	<g>
		<path fill="#FFBE9D" d="M62,449.9l-5.7-1.2c0,0-13.5-16.4-16-16.6c-2.1-0.2-13.5-0.1-17.5,0c-0.8,0-1.4,0.7-1.4,1.5l0,0
			c0,0.8,0.6,1.5,1.3,1.5l13.5,0.6l0.1,1.2l-13.6,0.2c-1.4,0.1-2.3,2.6,2.2,3l11.3,0.4v0.8l-11.5,1.8c-0.6,0.1-2.1,0.4-2.1,1.1
			c0,0-0.7,1.6,2.6,2.1c1.1,0.2,11.1-0.2,11.1-0.2l-0.4,1l-10.3,2.5c-0.8,0.2-1.3,1-1.1,1.8l0,0c0.1,0.9,0.8,1.5,1.6,1.4l11.1-1.1
			l10.8,9.6h14.5L62,449.9z"/>
	</g>
	<g>
		<polyline fill="#7877A7" points="157.6,450.2 124.5,457.4 121.1,431.3 		"/>
	</g>
	<g>
		<path fill="#7877A7" d="M120.1,451.2L58.7,449l0,23.6l40.7,9l28.6,5.1c17.8,0,32-18.1,29.2-37.7l-0.1,0L120.1,451.2z"/>
	</g>
	<g>
		<g>
			<path fill="#1A2E35" d="M137,450.8c0,0-0.3,0-0.8,0.1c-0.6,0-1.3,0-2.3,0.1c-2,0-4.9,0.1-8.4,0.2c-7.1,0.1-16.9,0.2-27.7,0.1
				c-10.8-0.1-20.6-0.6-27.7-1.1c-3.5-0.3-6.4-0.5-8.4-0.7c-1-0.1-1.7-0.2-2.3-0.3c-0.5-0.1-0.8-0.1-0.8-0.1c0,0,0.3,0,0.8,0
				c0.6,0,1.3,0.1,2.3,0.2c2,0.2,4.8,0.4,8.4,0.6c7.1,0.4,16.8,0.8,27.7,0.9c10.8,0.1,20.6,0,27.7,0c3.5,0,6.4,0,8.4,0
				c1,0,1.7,0,2.3,0C136.7,450.7,137,450.8,137,450.8z"/>
		</g>
	</g>
	<g>
		<g>
			<path fill="#1A2E35" d="M58.8,449.2c0,0,0,0.1,0,0.4c0,0.3,0,0.7,0,1.2c0,1.1,0,2.7,0,4.6c0,4,0,9.8,0.1,16.7l-0.1-0.2
				c6.9,1.7,15.2,3.7,24.2,5.8c12.3,2.9,23.4,5.2,31.5,6.6c4.1,0.7,7.3,1.2,9.6,1.5c1.1,0.2,2,0.3,2.6,0.4c0.3,0,0.5,0.1,0.7,0.1
				c0.2,0,0.2,0,0.2,0.1c0,0-0.1,0-0.2,0c-0.2,0-0.4,0-0.7-0.1c-0.6-0.1-1.5-0.2-2.6-0.3c-2.3-0.3-5.6-0.8-9.6-1.4
				c-8.1-1.3-19.3-3.6-31.6-6.4c-8.9-2.1-17.2-4.2-24.2-5.9l-0.1,0l0-0.1c0-6.9,0-12.6,0.1-16.7c0-2,0-3.6,0-4.6c0-0.5,0-0.9,0-1.2
				C58.7,449.4,58.7,449.2,58.8,449.2z"/>
		</g>
	</g>
	<g>
		<g>
			<path fill="#1A2E35" d="M53.5,384.7c0,0,0-0.4,0-1.2c0-0.7,0.1-1.8,0.1-3.1c0.1-2.6,0-6.3-0.6-10.3c-0.6-4-1.4-7.6-2.7-9.8
				c-0.6-1.1-1.3-1.9-1.8-2.3c-0.5-0.4-0.9-0.6-0.9-0.6c0,0,0.1,0,0.3,0.1c0.2,0.1,0.4,0.2,0.7,0.4c0.6,0.4,1.3,1.1,2,2.3
				c0.7,1.1,1.2,2.6,1.7,4.3c0.4,1.7,0.8,3.6,1.1,5.6c0.6,4,0.7,7.7,0.5,10.3c-0.1,1.3-0.2,2.4-0.2,3.1
				C53.6,384.3,53.5,384.7,53.5,384.7z"/>
		</g>
	</g>
	<g>
		<g>
			<path fill="#1A2E35" d="M121,364c0.1,0,0.2,15.7,0.2,35c0,19.3-0.1,35-0.2,35c-0.1,0-0.2-15.7-0.2-35
				C120.8,379.6,120.9,364,121,364z"/>
		</g>
	</g>
	<g>
		<g>
			<path fill="#1A2E35" d="M142.1,442.7c0,0.1-1,0-2.7,0.3c-0.8,0.1-1.8,0.3-2.9,0.6c-1.1,0.3-2.2,0.8-3.4,1.3
				c-1.2,0.6-2.2,1.3-3.1,1.9c-0.9,0.7-1.7,1.4-2.3,2c-1.2,1.2-1.9,2.1-2,2.1c0,0,0.1-0.3,0.4-0.7c0.3-0.4,0.8-1,1.4-1.6
				c0.6-0.7,1.4-1.4,2.3-2.1c0.9-0.7,2-1.4,3.2-2c1.2-0.6,2.4-1,3.4-1.3c1.1-0.3,2.1-0.5,2.9-0.5c0.8-0.1,1.5-0.1,2-0.1
				C141.9,442.7,142.1,442.7,142.1,442.7z"/>
		</g>
	</g>
	<g opacity="0.3">
		<g>
			<path d="M54.1,446c10.3-6.9,16.8-18.2,23.1-29.7c6.3-11.4,12.2-23.4,20.9-32.6c4-4.2,8.7-7.8,10.2-13.7l-15.7,13.9l-43.8,56
				L54.1,446z"/>
		</g>
	</g>
	<g>
		<g>
			<path fill="#1A2E35" d="M25.7,415.9c0,0.2-2.5,0-5.3,1.1c-1.4,0.5-2.6,1.2-3.5,1.7c-0.9,0.5-1.4,0.8-1.4,0.8c0,0,0.5-0.4,1.3-1
				c0.8-0.6,2.1-1.3,3.5-1.8c1.4-0.5,2.8-0.8,3.8-0.8C25.1,415.8,25.7,415.9,25.7,415.9z"/>
		</g>
	</g>
	<g>
		<g>
			<path fill="#1A2E35" d="M25.7,415.9c0,0.2-2.5,0-5.3,1.1c-1.4,0.5-2.6,1.2-3.5,1.7c-0.9,0.5-1.4,0.8-1.4,0.8c0,0,0.5-0.4,1.3-1
				c0.8-0.6,2.1-1.3,3.5-1.8c1.4-0.5,2.8-0.8,3.8-0.8C25.1,415.8,25.7,415.9,25.7,415.9z"/>
		</g>
	</g>
	<g>
		<g>
			<path fill="#FAFAFA" d="M120.7,441.1c0,0.1-0.7-0.7-2.4-1.2c-1.6-0.6-4.2-0.6-7.1,0.5c-2.9,1-6,3.3-9.7,5c-1.9,0.8-4,1.5-6.2,1.3
				c-2.2-0.1-4.4-1.1-6.5-2.2c-2.1-1.2-4-2.5-6-3.5c-2-1-4-1.7-6-1.9c-4-0.4-7.6,0.6-10.3,2.1c-2.8,1.4-4.6,3.3-5.8,4.7
				c-0.3,0.4-0.5,0.7-0.8,0.9c-0.2,0.3-0.4,0.5-0.5,0.7c-0.1,0.2-0.2,0.3-0.3,0.4c-0.1,0.1-0.1,0.1-0.1,0.1c0,0,0-0.1,0.1-0.2
				c0.1-0.1,0.2-0.3,0.3-0.5c0.1-0.2,0.3-0.5,0.5-0.8c0.2-0.3,0.5-0.6,0.7-1c1.1-1.4,3-3.4,5.8-4.9c1.4-0.8,3-1.4,4.7-1.8
				c1.8-0.4,3.7-0.6,5.7-0.4c2,0.2,4.1,0.9,6.1,1.9c2,1,4,2.3,6,3.5c2.1,1.1,4.2,2.1,6.4,2.2c2.2,0.2,4.2-0.5,6.1-1.3
				c3.7-1.7,6.8-4,9.8-4.9c2.9-1,5.5-1,7.2-0.4c0.8,0.3,1.4,0.6,1.8,0.9c0.2,0.1,0.3,0.2,0.4,0.3C120.7,441,120.7,441,120.7,441.1z"
				/>
		</g>
	</g>
	<g>
		<g>
			<path fill="#FAFAFA" d="M150.7,412.6c0,0.1-0.4-0.2-1.2-0.3c-0.8-0.1-2,0.3-3.2,1.1c-1.3,0.8-2.5,2.2-4.2,3.3
				c-0.9,0.5-1.9,0.9-3,0.8c-1.1-0.1-2.2-0.6-3.2-1.1c-1-0.6-2-1.2-2.9-1.6c-1-0.4-2-0.7-2.9-0.9c-1-0.2-1.9-0.2-2.7-0.2
				c-0.9,0-1.7,0.2-2.4,0.3c-1.4,0.4-2.5,0.9-3.3,1.3c-0.7,0.4-1.1,0.7-1.1,0.7c0,0,0.1-0.1,0.3-0.2c0.2-0.1,0.4-0.4,0.8-0.6
				c0.7-0.5,1.8-1,3.3-1.4c0.7-0.2,1.5-0.4,2.4-0.4c0.9-0.1,1.8,0,2.8,0.1c1,0.2,2,0.5,3,0.9c1,0.4,2,1.1,3,1.6c1,0.6,2,1,3,1.1
				c1,0.1,2-0.3,2.8-0.8c1.7-1,2.9-2.5,4.3-3.2c1.3-0.8,2.5-1.1,3.4-1c0.4,0,0.7,0.2,0.9,0.2C150.6,412.6,150.7,412.6,150.7,412.6z"
				/>
		</g>
	</g>
	<g>
		<g>
			<path fill="#FAFAFA" d="M120.3,402.1c0,0-0.2,0-0.5-0.1c-0.2,0-0.3-0.1-0.6-0.1c-0.2,0-0.5-0.1-0.8-0.1c-1.2-0.1-2.9-0.1-4.9,0.6
				c-2,0.6-4.3,1.8-6.7,3.4c-2.4,1.6-5,3.5-8,4.8c-1.5,0.7-3,1.2-4.6,1.4c-1.5,0.2-3,0.1-4.4-0.3c-1.4-0.4-2.6-1-3.7-1.7
				c-1.1-0.6-2.1-1.2-3.1-1.7c-1.9-1-3.6-1.5-4.7-1.6c-0.6,0-1,0-1.4,0c-0.3,0-0.5,0-0.5,0s0.2-0.1,0.5-0.1c0.3-0.1,0.8-0.1,1.4-0.1
				c1.2,0,2.9,0.5,4.8,1.5c1,0.5,2,1.1,3.1,1.7c1.1,0.6,2.3,1.2,3.7,1.6c1.3,0.4,2.8,0.5,4.3,0.3c1.5-0.2,3-0.7,4.5-1.4
				c3-1.4,5.6-3.2,8-4.8c2.4-1.6,4.8-2.7,6.8-3.3c2.1-0.6,3.8-0.6,5-0.4c0.3,0.1,0.5,0.1,0.8,0.2c0.2,0.1,0.4,0.1,0.6,0.2
				C120.2,402.1,120.3,402.1,120.3,402.1z"/>
		</g>
	</g>
	<g>
		<g>
			<path fill="#FAFAFA" d="M141.7,378.5c0,0-0.3,0.2-0.7,0.5c-0.5,0.3-1.2,0.7-2.1,1.1c-0.9,0.4-2,0.9-3.3,1.3
				c-1.3,0.4-2.7,0.5-4.2,0.3c-1.5-0.2-2.9-0.5-4.2-0.7c-1.3-0.2-2.4-0.2-3.4-0.1c-1.9,0.3-2.9,1.3-2.9,1.2c0,0,0-0.1,0.2-0.2
				c0.1-0.1,0.3-0.3,0.5-0.4c0.5-0.3,1.2-0.7,2.2-0.9c1-0.2,2.2-0.2,3.5,0c1.3,0.2,2.7,0.5,4.2,0.7c3,0.4,5.6-0.7,7.4-1.4
				c0.9-0.4,1.6-0.8,2.1-1C141.4,378.6,141.7,378.5,141.7,378.5z"/>
		</g>
	</g>
	<g>
		<g>
			<path fill="#FAFAFA" d="M52.4,391.3c0,0.1-0.4-0.3-1.2-0.3c-0.8,0-2,0.3-3.2,1.3c-0.6,0.5-1.2,1.1-2,1.6c-0.7,0.5-1.6,1-2.6,1.2
				c-2,0.4-4.2,0-6.3-0.8c-2.1-0.9-4.1-2-5.9-2.7c-0.9-0.4-1.8-0.6-2.6-0.8c-0.8-0.2-1.6-0.2-2.4-0.2c-1.5,0.1-2.6,0.5-3.3,1
				c-0.7,0.4-1,0.8-1.1,0.8c0,0,0.1-0.1,0.2-0.3c0.2-0.2,0.4-0.4,0.8-0.6c0.7-0.5,1.9-1,3.4-1.1c0.7-0.1,1.6,0,2.4,0.1
				c0.9,0.2,1.8,0.4,2.7,0.8c1.9,0.7,3.8,1.8,5.9,2.6c2.1,0.8,4.3,1.2,6.2,0.9c0.9-0.2,1.8-0.6,2.5-1.1c0.7-0.5,1.4-1.1,2-1.5
				c1.2-1,2.5-1.3,3.3-1.2c0.4,0,0.7,0.2,0.9,0.3C52.3,391.2,52.4,391.3,52.4,391.3z"/>
		</g>
	</g>
	<g>
		<g>
			<path fill="#FAFAFA" d="M91.3,450.1c0,0,0.1,0.1,0.2,0.2c0.1,0.1,0.3,0.4,0.5,0.7c0.4,0.7,0.9,1.7,1.1,3.2c0.2,1.4,0,3.3-0.9,4.9
				c-0.9,1.7-2.5,3-3.4,4.9c-0.4,1-0.5,2-0.3,3c0.2,1,0.5,1.9,0.9,2.7c0.8,1.7,1.5,3.3,1.4,4.8c0,1.5-0.7,2.6-1.3,3.1
				c-0.3,0.2-0.6,0.4-0.8,0.4c-0.2,0-0.3,0-0.3,0c0,0,0.4-0.1,1-0.6c0.5-0.5,1.1-1.5,1.1-2.9c0-1.4-0.7-3-1.5-4.7
				c-0.4-0.9-0.8-1.8-0.9-2.8c-0.2-1-0.1-2.2,0.4-3.2c0.5-1,1.1-1.8,1.7-2.6c0.6-0.8,1.2-1.5,1.7-2.3c0.9-1.6,1.1-3.3,0.9-4.7
				c-0.2-1.4-0.6-2.5-1-3.1C91.6,450.5,91.3,450.2,91.3,450.1z"/>
		</g>
	</g>
	<g>
		<g>
			<path fill="#FAFAFA" d="M120.3,483.9c0,0-0.1-0.1-0.3-0.3c-0.2-0.2-0.4-0.5-0.5-0.9c-0.4-0.9-0.4-2.4,0.2-4
				c0.3-0.8,0.7-1.6,1.3-2.4c0.6-0.8,1.3-1.5,2-2.3c0.7-0.8,1.4-1.6,1.9-2.7c0.5-1,0.8-2.2,0.9-3.5c0.2-2.5-0.2-5-0.3-7.2
				c-0.1-2.2,0-4.3,0.7-5.9c0.6-1.6,1.5-2.6,2.3-3.1c0.4-0.3,0.7-0.4,0.9-0.5c0.2-0.1,0.3-0.1,0.3-0.1c0,0-0.5,0.2-1.1,0.7
				c-0.7,0.5-1.5,1.5-2.1,3.1c-0.6,1.5-0.7,3.5-0.6,5.8c0.1,2.2,0.6,4.6,0.3,7.3c-0.1,1.3-0.4,2.6-1,3.6c-0.5,1.1-1.3,2-2,2.8
				c-1.4,1.6-2.8,2.9-3.3,4.5c-0.6,1.5-0.6,2.9-0.3,3.8C119.9,483.5,120.3,483.8,120.3,483.9z"/>
		</g>
	</g>
	<g>
		<g>
			<path fill="#FAFAFA" d="M123.8,494c0,0-0.2,0.2-0.8,0.5c-0.5,0.3-1.4,0.7-2.5,0.8c-1.1,0.1-2.5,0-4.1-0.5c-1.6-0.5-3.2-1.4-5-2.6
				c-1.8-1.1-3.6-2.4-5.9-3.3c-2.2-0.8-4.8-0.9-7.4-0.3c-2.6,0.6-5.2,1.8-7.9,3c-2.7,1.2-5.5,2.6-8.5,3.3c-1.5,0.4-3.1,0.5-4.6,0.3
				c-1.5-0.2-3-0.7-4.3-1.4c-2.6-1.5-4.8-3.6-6.9-5.3c-1.1-0.9-2.2-1.7-3.3-2.3c-0.3-0.2-0.6-0.3-0.8-0.4c-0.3-0.1-0.6-0.2-0.9-0.4
				c-0.6-0.3-1.2-0.4-1.7-0.6c-2.3-0.6-4.5-0.6-6.5-0.3c-2,0.3-3.7,0.9-5.2,1.7c-0.4,0.2-0.7,0.4-1,0.6c-0.3,0.2-0.6,0.4-0.9,0.6
				c-0.3,0.2-0.6,0.4-0.8,0.6c-0.2,0.2-0.5,0.4-0.7,0.6c-0.5,0.4-0.8,0.8-1.1,1.1c-0.3,0.3-0.6,0.6-0.8,0.9
				c-0.2,0.2-0.3,0.4-0.5,0.6c-0.1,0.1-0.2,0.2-0.2,0.2c0,0,0-0.1,0.1-0.2c0.1-0.1,0.2-0.3,0.4-0.6c0.2-0.3,0.4-0.6,0.7-0.9
				c0.3-0.3,0.7-0.8,1.1-1.1c0.2-0.2,0.5-0.4,0.7-0.6c0.3-0.2,0.5-0.4,0.8-0.6c0.3-0.2,0.6-0.4,0.9-0.6c0.3-0.2,0.7-0.4,1-0.6
				c1.4-0.8,3.2-1.4,5.2-1.8c2-0.3,4.3-0.4,6.6,0.3c0.6,0.2,1.2,0.3,1.8,0.6c0.3,0.1,0.6,0.2,0.9,0.4c0.3,0.1,0.6,0.3,0.9,0.5
				c1.2,0.6,2.3,1.4,3.3,2.3c2.2,1.7,4.3,3.8,6.9,5.3c1.3,0.7,2.7,1.2,4.2,1.4c1.5,0.2,3,0.1,4.5-0.3c3-0.7,5.8-2,8.5-3.2
				c2.7-1.2,5.3-2.4,7.9-3c2.6-0.6,5.3-0.5,7.6,0.3c2.3,0.9,4.2,2.2,5.9,3.3c1.7,1.1,3.4,2.1,4.9,2.6c1.5,0.5,2.9,0.7,4,0.6
				c1.1-0.1,2-0.4,2.5-0.7C123.6,494.2,123.8,494,123.8,494z"/>
		</g>
	</g>
	<g>
		<g>
			<g>
				<path fill="#FFBE9D" d="M85.4,365.9L85.4,365.9c7.7,0.4,14.3-6,15-14.6c0.4-5.1,0.7-9.4,0.7-9.4s11.8-0.3,13.4-13.1
					c1.6-12.8,3.1-42.6,3.1-42.6l0,0c-12.6-8.3-28.3-8.4-40.9-0.2l-1.9,1.2l-3,61.8C71.3,357.9,77.5,365.5,85.4,365.9z"/>
			</g>
		</g>
	</g>
	<g>
		<g>
			<g>
				<g>
					<path fill="#1A2E35" d="M102.8,319.9c0-0.1,1-0.2,2.6-0.2c0.4,0,0.8,0,0.8-0.3c0.1-0.3,0-0.8-0.1-1.4c-0.3-1.2-0.5-2.5-0.8-3.8
						c-1.1-5.4-1.9-9.8-1.6-9.8c0.2-0.1,1.4,4.2,2.5,9.6c0.3,1.3,0.5,2.6,0.8,3.8c0.1,0.6,0.3,1.2,0,2c-0.2,0.4-0.5,0.6-0.8,0.6
						c-0.3,0.1-0.5,0-0.7,0C103.8,320.2,102.8,320.1,102.8,319.9z"/>
				</g>
			</g>
		</g>
	</g>
	<g>
		<g>
			<g>
				<path fill="#EB996E" d="M101.2,341.7c0,0-7.4-0.4-14.5-6.9c0,0,2.5,9.7,14.1,10.3L101.2,341.7z"/>
			</g>
		</g>
	</g>
	<g>
		<g>
			<path fill="#1A2E35" d="M117.5,289.5c0,0-7.3,3.4-16.2-2.3c-5.9-3.7-12.8-5.8-14.4-4.5c-1.6,1.3-2.3,8.2-8.4,9.8
				c0,0-0.2,13.2-4.9,12.5c-4.7-0.8-0.7-21-0.7-21l11.9-5.6l12.8-1.9l11.8,2.6l9.1,3.4L117.5,289.5z"/>
		</g>
	</g>
	<g>
		<g>
			<g>
				<g>
					<path fill="#FFBE9D" d="M74.7,300.8c-0.2-0.1-7.6-3.8-8.4,5.1c-0.8,8.8,7.3,7.9,7.4,7.6C73.7,313.2,74.7,300.8,74.7,300.8z"/>
				</g>
			</g>
		</g>
		<g>
			<g>
				<g>
					<g>
						<path fill="#EB996E" d="M71.5,309.8c0,0-0.1,0.1-0.4,0.2c-0.2,0.1-0.6,0.1-1-0.1c-0.8-0.4-1.4-2-1.3-3.6
							c0-0.8,0.3-1.6,0.6-2.2c0.3-0.6,0.7-1,1.1-1.1c0.4-0.1,0.7,0.3,0.8,0.5c0.1,0.3,0,0.4,0.1,0.4c0,0,0.2-0.1,0.2-0.5
							c0-0.2-0.1-0.4-0.3-0.6c-0.2-0.2-0.4-0.3-0.7-0.3c-0.6,0-1.2,0.5-1.6,1.2c-0.4,0.7-0.6,1.5-0.7,2.4c-0.1,1.8,0.6,3.5,1.7,4
							c0.5,0.2,1,0.1,1.3-0.1C71.5,310,71.6,309.8,71.5,309.8z"/>
					</g>
				</g>
			</g>
		</g>
	</g>
	<g>
		<path fill="#351709" d="M83.7,284.1c-1.6,1.9-3.3,3.9-5.3,5.2c-2,1.4-4.5,2.2-6.8,1.6c-2.3-0.6-4.3-2.8-4.4-5.4
			c-0.1-2.6,2.2-5.2,4.5-4.6c-1.6,0-2.9-1.9-2.4-3.6c0.5-1.7,2.6-2.4,3.8-1.3c-2-0.4-2.2-4-0.6-5.4c1.6-1.4,3.9-1.1,5.8-0.2
			c1.9,0.9,3.6,2.2,5.6,2.7c3.1,0.7,6.3-0.7,9.1-2.5c2.8-1.8,5.4-4,8.5-4.9c3.8-1.2,7.9-0.3,11.5,1.4c3,1.4,5.9,3.4,7.8,6.3
			c2,2.9,2.9,6.8,2.1,10.3c-0.9,3.5-3.8,6.4-7.1,6.4c0,0-7.3,0.8-13.3-4.1c-6-4.9-18.5-4.3-18.5-4.3L83.7,284.1z"/>
	</g>
	<g>
		<g>
			<path fill="#455A64" d="M72.7,273.8c0,0,0.1,0.2,0.5,0.4c0.3,0.2,0.8,0.6,1.4,1c1.3,0.8,3.2,1.8,5.7,2.5c2.5,0.8,5.6,1.2,9.1,1
				c3.5-0.3,7.1-1.5,10.9-2.5c3.8-1,7.5-1.5,10.8-0.7c3.2,0.8,5.8,3,6.9,5.5c1.1,2.5,1,4.9,0.6,6.4c-0.4,1.5-1,2.2-0.9,2.2
				c0,0,0.2-0.1,0.4-0.5c0.2-0.3,0.6-0.9,0.8-1.6c0.5-1.5,0.8-4.1-0.4-6.8c-1.1-2.7-3.9-5.1-7.3-6c-3.4-1-7.3-0.5-11.2,0.6
				c-3.8,1-7.4,2.3-10.8,2.6c-3.3,0.3-6.4-0.1-8.9-0.7C75.5,275.7,72.8,273.6,72.7,273.8z"/>
		</g>
	</g>
	<g>
		<g>
			<path fill="#455A64" d="M69.2,287.4c-0.1,0.1,0.2,0.9,1,2c0.8,1.1,2.4,2.3,4.3,2.8c2,0.5,3.8,0,5-0.6c1.2-0.6,1.7-1.3,1.7-1.4
				c-0.1-0.1-0.7,0.3-1.9,0.7c-1.1,0.4-2.8,0.7-4.6,0.3c-1.8-0.4-3.2-1.5-4.1-2.4C69.7,288.1,69.3,287.4,69.2,287.4z"/>
		</g>
	</g>
	<g>
		<g>
			<path fill="#455A64" d="M71.6,283.1c-0.2,0.1,0.4,1.7,1.9,2.9c1.5,1.2,3.1,1.3,3.1,1c0-0.3-1.3-0.7-2.6-1.8
				C72.7,284.1,71.8,282.9,71.6,283.1z"/>
		</g>
	</g>
	<g>
		<g>
			<path fill="#1A2E35" d="M121.4,295.4c0.1,0,0.3-0.4,0.4-1.2c0.1-0.8-0.1-1.9-0.7-3c-0.6-1-1.5-1.7-2.1-1.9
				c-0.7-0.3-1.1-0.2-1.1-0.1c-0.1,0.3,1.6,0.8,2.6,2.5C121.4,293.5,121.1,295.3,121.4,295.4z"/>
		</g>
	</g>
	<g>
		<g>
			<path fill="#455A64" d="M125.5,282.7c-0.2-0.1-1.1,2.2-3.2,4.1c-2,2-4.2,2.5-4.2,2.8c0,0.2,2.5,0,4.7-2.1
				C125.1,285.5,125.7,282.8,125.5,282.7z"/>
		</g>
	</g>
	<g>
		<g>
			<g>
				<path fill="#1A2E35" d="M113.5,305.8c-0.1,1-1,1.8-1.9,1.7c-1-0.1-1.7-1-1.6-2c0.1-1,1-1.8,1.9-1.7
					C112.8,303.8,113.6,304.7,113.5,305.8z"/>
			</g>
		</g>
		<g>
			<g>
				<g>
					<path fill="#1A2E35" d="M114.9,305.6c-0.2,0.2-1.5-1.1-3.4-1.3c-1.9-0.3-3.4,0.6-3.6,0.3c-0.1-0.1,0.2-0.6,0.9-1
						c0.7-0.4,1.7-0.7,2.9-0.6c1.2,0.2,2.1,0.8,2.6,1.4C114.8,305,115,305.5,114.9,305.6z"/>
				</g>
			</g>
		</g>
	</g>
	<g>
		<g>
			<g>
				<path fill="#1A2E35" d="M96.2,303.1c-0.1,1-1,1.8-1.9,1.7c-1-0.1-1.7-1-1.6-2c0.1-1,1-1.8,1.9-1.7
					C95.5,301.1,96.3,302,96.2,303.1z"/>
			</g>
		</g>
		<g>
			<g>
				<g>
					<path fill="#1A2E35" d="M97.4,303c-0.2,0.2-1.5-1.1-3.4-1.3c-1.9-0.3-3.4,0.6-3.6,0.3c-0.1-0.1,0.2-0.6,0.9-1
						c0.7-0.4,1.7-0.7,2.9-0.6c1.2,0.2,2.1,0.8,2.6,1.4C97.4,302.4,97.5,302.9,97.4,303z"/>
				</g>
			</g>
		</g>
	</g>
	<g>
		<g>
			<path fill="#1A2E35" d="M96.7,297.2c-0.4,0.4-1.8-0.8-3.7-1c-1.9-0.3-3.5,0.5-3.8,0.1c-0.1-0.2,0.1-0.8,0.8-1.3
				c0.7-0.5,1.9-1,3.2-0.8c1.3,0.2,2.4,0.9,3,1.5C96.7,296.4,96.8,297,96.7,297.2z"/>
		</g>
	</g>
	<g>
		<g>
			<path fill="#1A2E35" d="M114.7,300.7c0.1,0.3-0.2,0.7-0.9,1c-0.7,0.3-1.7,0.5-2.9,0.3c-1.1-0.2-2.1-0.7-2.6-1.3
				c-0.6-0.6-0.8-1.1-0.6-1.3c0.3-0.4,1.7,0.3,3.5,0.6C113,300.4,114.5,300.2,114.7,300.7z"/>
		</g>
	</g>
	<g>
		<g>
			<path fill="#1A2E35" d="M101.3,323.5c0.2,0,0.3,0.4,0.3,0.9c0,0.5-0.2,0.9-0.4,0.8c-0.2,0-0.3-0.4-0.3-0.9
				C100.9,323.8,101.1,323.4,101.3,323.5z"/>
		</g>
	</g>
	<g>
		<g>
			<path fill="#455A64" d="M73.3,316.8c0,0,0,0.2-0.2,0.5c-0.2,0.3-0.5,0.7-1,1c-0.5,0.3-1.3,0.4-2,0.1c-0.7-0.3-1.4-1-1.7-2
				c-0.3-1-0.1-2,0.2-2.7c0.4-0.8,1-1.3,1.5-1.5c0.5-0.3,1-0.3,1.3-0.3c0.3,0,0.5,0.1,0.5,0.1c0,0.1-0.7-0.1-1.7,0.5
				c-0.5,0.3-1,0.7-1.3,1.4c-0.3,0.7-0.5,1.6-0.2,2.4c0.3,0.8,0.9,1.5,1.5,1.7c0.6,0.3,1.3,0.2,1.8,0
				C73,317.5,73.2,316.7,73.3,316.8z"/>
		</g>
	</g>
	<g>
		<g>
			<path fill="#FFBE9D" d="M80.9,369.4c0,0,3.9-6.1,6.3-9.5c2.9-4.1,4.7-7.7,4.7-9.6c0-1.9,0-10.2,0-10.2s3.7-1,4.2,3.7
				c0.5,4.6,0,5.8,0,5.8s15.3-11.5,16.4-10.7c1.8,1.5-1.6,4.5-1.6,4.5l-9.3,9.4l5.3-1.9c1.3-0.5,2.7,0.3,3.1,1.7l0,0
				c0.4,1.2,0,2.5-1,3.2l-3.1,3l1.6-0.7c1.2-0.5,2.5,0,3.1,1.3l0,0c0.5,1,0.3,2.2-0.4,3l-2.9,3.4l1.3-0.8c0.9-0.5,1.9-0.1,2.4,0.8
				l0,0c0.4,0.8,0.2,1.8-0.5,2.4l-17.2,15.1L80.9,369.4z"/>
		</g>
		<g>
			<g>
				<path fill="#EB996E" d="M93.3,383.4c0,0-0.1-0.1-0.2-0.2c-0.2-0.2-0.4-0.4-0.6-0.7c-0.6-0.6-1.4-1.5-2.4-2.7
					c-2.1-2.4-5.2-5.9-9.1-10.3l-0.1-0.1l0.1-0.1c1.1-1.8,2.3-3.7,3.7-5.7c0.7-1,1.4-2,2.1-3.1c0.7-1,1.5-2.1,2.2-3.2
					c0.7-1.1,1.4-2.3,2-3.6c0.6-1.3,1.1-2.7,1-4.2c0-3,0-6.2,0-9.4l0-0.2l0.1,0c0.9-0.2,1.9-0.1,2.8,0.5c0.4,0.3,0.7,0.7,1,1.2
					c0.2,0.5,0.4,1,0.5,1.5c0.2,1.1,0.3,2.1,0.3,3.2c0,0.5,0,1.1,0,1.6c0,0.6,0,1.1-0.2,1.7l-0.3-0.2c2.4-1.8,4.8-3.6,7.4-5.3
					c1.3-0.9,2.6-1.8,3.9-2.6c1.3-0.9,2.6-1.7,4.1-2.4c0.2-0.1,0.4-0.2,0.6-0.2c0.1,0,0.2-0.1,0.3-0.1c0.1,0,0.1,0,0.2,0
					c0.1,0,0.2,0.1,0.2,0.1c0.4,0.3,0.6,0.9,0.5,1.4c-0.1,1-0.7,1.7-1.2,2.4c-0.6,0.7-1.2,1.2-1.8,1.8c-0.6,0.6-1.2,1.2-1.7,1.8
					c-2.3,2.3-4.6,4.6-6.8,6.8l-0.2-0.3c1-0.4,2.1-0.7,3.1-1.1c0.5-0.2,1-0.4,1.5-0.5c0.3-0.1,0.5-0.2,0.8-0.3
					c0.3-0.1,0.6-0.1,0.8-0.1c1.1,0,2.2,1,2.4,2.2c0.3,1.2-0.2,2.5-1.1,3.2l0,0c-1.1,1-2.1,2-3.2,3l-0.2-0.3c0.5-0.2,1-0.5,1.5-0.7
					c0.5-0.2,1.1-0.3,1.7-0.1c1.1,0.3,1.9,1.5,1.9,2.8c0,0.6-0.2,1.2-0.5,1.7c-0.3,0.5-0.7,0.8-1,1.2c-0.7,0.8-1.4,1.6-2,2.4
					l-0.2-0.2c0.5-0.3,1-0.6,1.4-0.8c0.5-0.3,1.1-0.2,1.6,0c0.5,0.3,0.9,0.8,1,1.4c0.1,0.6,0,1.2-0.4,1.7c-0.2,0.2-0.4,0.4-0.6,0.6
					c-0.2,0.2-0.4,0.3-0.6,0.5c-0.4,0.3-0.8,0.7-1.1,1c-0.7,0.6-1.4,1.3-2.1,1.9c-2.8,2.4-5.1,4.5-7.1,6.2c-1.9,1.7-3.5,3-4.5,3.9
					c-0.5,0.4-0.9,0.8-1.2,1C93.4,383.3,93.3,383.4,93.3,383.4s0.1-0.1,0.4-0.4c0.3-0.2,0.7-0.6,1.2-1.1c1-0.9,2.5-2.3,4.5-4
					c1.9-1.7,4.3-3.8,7-6.2c0.7-0.6,1.4-1.2,2.1-1.9c0.4-0.3,0.7-0.6,1.1-1c0.2-0.2,0.4-0.3,0.6-0.5c0.2-0.2,0.4-0.3,0.5-0.5
					c0.3-0.4,0.4-1,0.3-1.5c-0.1-0.5-0.4-1-0.8-1.2c-0.4-0.2-1-0.3-1.4,0c-0.5,0.3-0.9,0.6-1.4,0.8l-0.7,0.4l0.6-0.7
					c0.7-0.8,1.3-1.6,2-2.4c0.3-0.4,0.7-0.8,1-1.2c0.3-0.4,0.5-1,0.5-1.5c0-1.1-0.7-2.2-1.7-2.5c-0.5-0.1-1-0.1-1.5,0.1
					c-0.5,0.2-1,0.5-1.5,0.7l-0.9,0.4l0.7-0.7c1-1,2.1-2,3.1-3l0,0l0,0c0.8-0.6,1.2-1.8,0.9-2.8c-0.2-1-1.1-1.9-2.1-1.9
					c-0.5,0-1,0.2-1.5,0.4c-0.5,0.2-1,0.4-1.5,0.5c-1,0.4-2.1,0.7-3.1,1.1l-0.8,0.3l0.6-0.6c2.2-2.2,4.5-4.5,6.8-6.9
					c0.6-0.6,1.2-1.2,1.8-1.8c0.6-0.6,1.2-1.1,1.7-1.8c0.5-0.6,1-1.4,1.1-2.2c0-0.4-0.1-0.8-0.4-1c0-0.1-0.2-0.1-0.4,0
					c-0.2,0.1-0.4,0.1-0.5,0.2c-1.4,0.7-2.7,1.6-4,2.4c-1.3,0.9-2.6,1.8-3.9,2.6c-2.5,1.8-5,3.6-7.4,5.3l-0.4,0.3l0.2-0.6
					c0.1-0.4,0.2-1,0.2-1.5c0-0.5,0-1.1,0-1.6c-0.1-1.1-0.1-2.1-0.3-3.1c-0.1-0.5-0.3-1-0.5-1.4c-0.2-0.4-0.5-0.8-0.9-1.1
					c-0.7-0.5-1.7-0.6-2.5-0.5l0.1-0.2c0,3.2,0,6.4,0,9.4c0,0.4,0,0.7,0,1.1c0,0.4-0.1,0.8-0.2,1.1c-0.2,0.7-0.5,1.4-0.8,2.1
					c-0.6,1.3-1.3,2.5-2,3.6c-0.7,1.1-1.5,2.2-2.2,3.2c-0.7,1-1.4,2.1-2.1,3.1c-1.3,2-2.6,3.9-3.7,5.6l0-0.2c3.8,4.4,6.9,7.9,9,10.4
					c1,1.2,1.9,2.1,2.4,2.8c0.3,0.3,0.5,0.6,0.6,0.7C93.2,383.3,93.3,383.4,93.3,383.4z"/>
			</g>
		</g>
	</g>
	<g>
		<path fill="#7877A7" d="M93.3,383.4l-47,69.1c-7.1,10.5-20,14.3-30.7,8.6C7.7,457,2,448.3,6.8,430.3L51.8,396l27.4-29.4
			L93.3,383.4z"/>
	</g>
	<g>
		<g>
			<path fill="#1A2E35" d="M15.5,461.2c0,0,0.2,0.1,0.5,0.3c0.3,0.2,0.8,0.5,1.5,0.9c1.3,0.6,3.4,1.5,6.1,1.8
				c1.4,0.1,2.9,0.2,4.6-0.1c0.8-0.1,1.7-0.3,2.6-0.5c0.4-0.1,0.9-0.3,1.3-0.4c0.5-0.1,0.9-0.3,1.4-0.5c1.9-0.7,3.8-1.7,5.7-3.1
				c1.9-1.3,3.7-3,5.3-5.2c3.2-4.2,6.5-9.1,10.1-14.2c3.6-5.2,7.4-10.7,11.3-16.6c7.9-11.7,16.6-24.6,25.7-38.2
				c0.5-0.7,1-1.4,1.4-2.2l0,0.3c-4.8-5.8-9.5-11.4-14-16.9l0.2,0c-9.6,8.8-18.5,17.2-26.5,24.7c-8,7.5-15.2,14.1-21.3,19.4
				c-6.1,5.4-11,9.5-14.5,12.4c-1.7,1.4-3.1,2.5-4,3.2c-0.4,0.4-0.8,0.6-1,0.8c-0.2,0.2-0.4,0.3-0.4,0.3s0.1-0.1,0.3-0.3
				c0.2-0.2,0.6-0.5,1-0.8c0.9-0.7,2.2-1.8,3.9-3.2c3.4-2.8,8.4-7,14.4-12.4c6.1-5.4,13.3-12,21.3-19.5c8-7.5,16.9-15.9,26.5-24.7
				l0.1-0.1l0.1,0.1c4.5,5.4,9.2,11.1,14,16.9l0.1,0.1l-0.1,0.1c-0.5,0.7-1,1.4-1.4,2.2c-9.1,13.6-17.8,26.5-25.7,38.2
				c-4,5.8-7.8,11.4-11.4,16.5c-3.6,5.1-6.9,10-10.2,14.2c-1.6,2.2-3.5,3.8-5.4,5.2c-1.9,1.4-3.8,2.4-5.7,3.1
				c-0.5,0.2-0.9,0.4-1.4,0.5c-0.5,0.1-0.9,0.3-1.4,0.4c-0.9,0.2-1.8,0.4-2.6,0.5c-1.7,0.3-3.3,0.2-4.6,0.1
				c-2.8-0.3-4.8-1.3-6.2-1.9c-0.6-0.4-1.1-0.7-1.5-0.9C15.7,461.3,15.5,461.2,15.5,461.2z"/>
		</g>
	</g>
	<g>
		<g>
			<path fill="#FAFAFA" d="M51.2,443.2c0,0-0.5-0.5-1.6-1c-1.1-0.6-2.9-1-5.1-0.7c-1.1,0.1-2.3,0.4-3.5,0.8c-1.2,0.4-2.5,1-3.9,1.6
				c-1.4,0.6-2.8,1.2-4.3,1.7c-1.5,0.5-3.2,0.7-4.9,0.5c-1.7-0.2-3.3-0.8-4.8-1.5c-1.5-0.7-2.8-1.4-4.2-2.1
				c-2.6-1.4-5.2-2.2-7.3-2.1c-2.2,0.1-3.8,1-4.7,1.9c-0.9,0.9-1.2,1.6-1.3,1.6c0,0,0.1-0.2,0.2-0.5c0.2-0.3,0.5-0.7,0.9-1.2
				c0.9-0.9,2.6-1.9,4.8-2.1c2.2-0.2,4.9,0.7,7.5,2c1.3,0.7,2.7,1.4,4.2,2.1c1.5,0.7,3,1.2,4.7,1.4c1.6,0.2,3.3-0.1,4.8-0.5
				c1.5-0.4,2.9-1.1,4.3-1.6c1.4-0.6,2.6-1.2,3.9-1.6c1.2-0.4,2.4-0.7,3.6-0.8c2.2-0.2,4,0.2,5.1,0.8
				C50.7,442.6,51.2,443.2,51.2,443.2z"/>
		</g>
	</g>
	<g>
		<g>
			<path fill="#FAFAFA" d="M67.8,420c-0.1,0,0.3-0.5,0.2-1.4c-0.1-0.9-0.7-2.2-2.1-2.8c-0.7-0.3-1.4-0.6-2.3-0.8
				c-0.8-0.2-1.8-0.5-2.7-1c-1.8-0.9-3.5-2.6-5-4.4c-1.6-1.8-2.9-3.7-4.4-5.1c-1.5-1.4-3-2.4-4.4-2.8c-1.4-0.4-2.6-0.4-3.4-0.3
				c-0.8,0.2-1.2,0.4-1.2,0.3c0,0,0.1-0.1,0.3-0.2c0.2-0.1,0.5-0.2,0.9-0.3c0.8-0.2,2.1-0.3,3.5,0.1c1.5,0.4,3.1,1.4,4.6,2.8
				c1.5,1.4,2.9,3.3,4.5,5.1c1.5,1.8,3.2,3.4,4.9,4.3c1.7,1,3.6,1,4.9,1.8c1.4,0.7,2,2.1,2.1,3c0,0.5-0.1,0.8-0.1,1.1
				C67.9,419.9,67.8,420,67.8,420z"/>
		</g>
	</g>
</g>
<g>
	<g>
		<g>
			<g>
				<path fill="#E0E0E0" d="M336.8,110.1c-1.1-3.8-6.2-3.5-6.2-3.5l0.1,2.7c2.9-0.5,4.8,2.9,4.8,2.9L336.8,110.1z"/>
			</g>
		</g>
		<g>
			<g>
				<path fill="#E0E0E0" d="M411.7,65.9c5.9,1.7,9.6-4.9,9.6-4.9l-3.6-2c-1.8,4.1-7.7,3.6-7.7,3.6L411.7,65.9z"/>
			</g>
		</g>
		<g>
			<g>
				<path fill="#E0E0E0" d="M460.7,101.6c-1.1-3.2-5.4-2.6-5.4-2.6l0.3,2.2c2.5-0.6,4.2,2.2,4.2,2.2L460.7,101.6z"/>
			</g>
		</g>
		<g>
			<g>
				<path fill="#E0E0E0" d="M392.9,27c-1.1-3.2-5.4-2.6-5.4-2.6l0.3,2.2c2.5-0.6,4.2,2.2,4.2,2.2L392.9,27z"/>
			</g>
		</g>
		<g>
			<g>
				<path fill="#EBEBEB" d="M341.7,67.8c-1.1-3.2-5.4-2.6-5.4-2.6l0.3,2.2c2.5-0.6,4.2,2.2,4.2,2.2L341.7,67.8z"/>
			</g>
		</g>
		<g>
			<g>
				<path fill="#EBEBEB" d="M331,38c-3.4,0.5-3.6,4.8-3.6,4.8l2.3,0.1c-0.1-2.5,2.9-3.7,2.9-3.7L331,38z"/>
			</g>
		</g>
		<g>
			<g>
				<path fill="#EBEBEB" d="M306.4,137c5.9,1.7,9.6-4.9,9.6-4.9l-3.6-2c-1.8,4.1-7.7,3.6-7.7,3.6L306.4,137z"/>
			</g>
		</g>
		<g>
			<g>
				<path fill="#E0E0E0" d="M474.8,66.2c0.4-2.7-2.9-3.8-2.9-3.8l-0.7,1.7c2,0.5,2.1,3.1,2.1,3.1L474.8,66.2z"/>
			</g>
		</g>
		<g>
			<g>
				<path fill="#EBEBEB" d="M455.1,36.9c-2.3,1.5-1,4.6-1,4.6l1.7-0.6c-0.9-1.8,0.9-3.6,0.9-3.6L455.1,36.9z"/>
			</g>
		</g>
	</g>
	<g>
		<g>
			<path fill="#263238" d="M492.9,272.8c0,0.1-61.5,0.2-137.5,0.2c-75.9,0-137.5-0.1-137.5-0.2s61.5-0.2,137.5-0.2
				C431.4,272.6,492.9,272.7,492.9,272.8z"/>
		</g>
	</g>
	<g>
		<path fill="#FFBE9D" d="M470.6,167.2c0,0,7.3-4.3,8.9-3.1c2.4,1.8,3.2,4.9,3.2,4.9s3.8-14.3,7.5-13.8c2.1,0.3,1.1,1.9,0.1,3.9
			c-0.9,1.9-2.4,8.7-2.4,8.7s7-8.1,9-7.9c1.6,0.1,1.8,1.5-0.5,3.7c-2.3,2.2-6.1,9-6.1,9s4.9-4.4,6.9-4.5c1.6,0,2.6,1.1,0.6,2.8
			c-2.1,1.8-5.2,3.1-6.9,6.3c-2.1,3.9-6.5,13.7-6.5,13.7l-15.4-5.3c0,0-2.5-10-2.6-12.4c0,0,0.2-5.1,0.2-6c0-0.9,2.5-1.1,3.2,0.6
			c0.8,1.8,0.4,3.6,0.7,4.8c0.3,1.2,0.8,2.2,1.7,2.8c0.9,0.5,3.1,0.6,3.7-0.1c0.6-0.6,1.3-2.5,1.4-3.7c0.1-1.2,0-3,0-3
			S470.9,171.3,470.6,167.2z"/>
	</g>
	<g>
		<g>
			<g>
				<path fill="#FFBE9D" d="M297.2,213.9l-10.7-3.9c0,0-10.9-6.2-12.9-4c0,0-2.2-1-3.1,1.2c-0.6,1.3,1.3,3.2,1.3,3.2
					s-0.6,0.6,0.3,2.5c0.9,1.9,11.3,8,11.3,8s13.5,7.2,18.9,10.6l9.4-12.5l-1.3-0.5c0,0-0.8-6.2-3.4-7.9c-2.8-1.8-6.3-6.7-7-8.6
					c-0.8-1.9-4.4-1-3.8,2.9c0.6,4,3.8,5,3.5,7.7C299.3,215.2,297.2,213.9,297.2,213.9z"/>
			</g>
			<g>
				<g>
					<path fill="#EB996E" d="M280.7,215.4c0,0.1-2.1-1-4.7-2.4c-2.5-1.4-4.6-2.6-4.5-2.6c0-0.1,2.1,1,4.7,2.4
						C278.8,214.1,280.8,215.3,280.7,215.4z"/>
				</g>
			</g>
			<g>
				<g>
					<path fill="#EB996E" d="M286,212.4c0,0-0.8-0.3-1.9-0.7c-1.2-0.5-2.8-1.2-4.5-2.1c-1.7-0.9-3.3-1.7-4.3-2.4
						c-0.5-0.3-1-0.6-1.2-0.8c-0.3-0.2-0.4-0.3-0.4-0.4c0,0,0.7,0.4,1.8,1c1.1,0.6,2.6,1.5,4.4,2.3c1.7,0.9,3.3,1.6,4.5,2.2
						C285.3,212,286,212.4,286,212.4z"/>
				</g>
			</g>
			<g>
				<g>
					<path fill="#EB996E" d="M288.2,218.2c0,0-0.3-0.2-1-0.5c-0.6-0.4-1.5-0.9-2.5-1.5l0,0l0,0c-0.5-1-1.1-2.2-1.8-3.4
						c-0.4-0.6-0.8-1.3-1.4-1.8c-0.6-0.5-1.4-0.6-2.1-0.2c-0.1,0.1-0.3,0.2-0.3,0.3c0,0,0,0,0,0.1l0,0.1c0,0.1,0.1,0.2,0.1,0.3
						c0.1,0.3,0.3,0.7,0.4,1c0.3,0.7,0.6,1.3,0.8,2c0.5,1.2,1,2.4,1.5,3.4l0,0c0.9,1,1.6,1.8,2.2,2.5c0.2,0.3,0.4,0.5,0.6,0.7
						c0.1,0.2,0.2,0.2,0.2,0.3c0,0-0.1-0.1-0.2-0.2c-0.2-0.2-0.4-0.4-0.6-0.6c-0.6-0.6-1.3-1.4-2.2-2.4l0,0l0,0
						c-0.4-1-1-2.1-1.5-3.4c-0.3-0.6-0.5-1.3-0.8-2c-0.1-0.3-0.3-0.7-0.4-1c0-0.1-0.1-0.2-0.1-0.3l0-0.1c0-0.1,0-0.1,0-0.2
						c0.1-0.2,0.1-0.2,0.2-0.3c0.1-0.1,0.2-0.1,0.3-0.2c0.4-0.2,0.8-0.4,1.3-0.3c0.5,0,0.9,0.2,1.2,0.5c0.6,0.6,1,1.2,1.4,1.8
						c0.8,1.3,1.3,2.4,1.8,3.5l0,0c1,0.6,1.8,1.2,2.5,1.6C287.9,218,288.2,218.2,288.2,218.2z"/>
				</g>
			</g>
		</g>
		<g>
			<g>
				<path fill="#EB996E" d="M299,218.3c0,0-0.5-0.1-1.3-0.3c-0.8-0.2-1.9-0.5-3.2-0.5c-1.3,0-2.4,0.3-3.1,0.7
					c-0.7,0.4-1,0.8-1.1,0.8c0,0,0.2-0.5,0.9-1c0.7-0.5,1.9-0.9,3.2-0.9c1.3,0,2.4,0.4,3.2,0.6C298.5,218,299,218.2,299,218.3z"/>
			</g>
		</g>
		<g>
			<g>
				<path fill="#EB996E" d="M298.2,215.5c0.1,0.1-0.2,0.5-0.5,1.1c-0.3,0.6-0.4,1.1-0.5,1.1c-0.1,0-0.1-0.6,0.2-1.2
					C297.7,215.9,298.1,215.5,298.2,215.5z"/>
			</g>
		</g>
	</g>
	<g>
		<g>
			<path fill="#351A03" d="M360,165.7c0.7-4.9,6.6-12,11.8-12c-3-4.2-3-10.2-0.1-14.4c2-2.9,5.3-5.1,6.6-8.4
				c1.6-3.7,0.4-7.8,0.5-11.8c0.2-5.8,3.3-11.1,6.3-16.2c2.8-4.6,6.1-9.7,11.6-10.8c3.4-0.7,7,0.3,10.2,1.7
				c15.4,6.4,27.5,20,31.6,35.6c1,3.7,1.6,7.8,4.3,10.7c2.8,3.1,7.8,4.7,8.6,8.7c0.6,2.9-1.3,5.8-1,8.7c0.2,2.4,4.9,9.6,6,11.8
				c1.9,3.8,1.2,8-0.7,11.8c-1.9,3.8-6.7,7.5-11,8.6l-47.9-15.6c-4.5,2.5-9,12.2-14.2,12.8c-5.2,0.6-11.5,2.8-16.5-2.5
				C361.1,178.8,359.3,170.7,360,165.7z"/>
		</g>
		<g>
			<path fill="#351A03" d="M439.4,119.2c-0.5,3.9,0.6,10.4,2.8,13.7c1.5,2.2,3.9,3.7,6.3,5c2.4,1.3,5,2.5,6.8,4.5
				c1.8,2,2.8,5,1.6,7.3c4.3,1.6,6.2,6.9,4.7,11.1c-1.6,4.2-5.9,6.9-10.5,7.8l-19.8-5.8l-4.3-24.6l11.4-19"/>
		</g>
		<g>
			<g>
				<path fill="#351A03" d="M441.8,144.3c0,0,0.1,0,0.4,0.2c0.2,0.1,0.6,0.3,1.1,0.5c0.9,0.5,2.2,1.4,3.5,2.8
					c0.7,0.7,1.3,1.5,1.8,2.5c0.5,1,1.1,2.1,1.4,3.3c0.8,2.4,0.9,5.3,0.1,8.2l-0.1-0.2c1.1,0.6,2.2,1.4,3.2,2.4
					c2.5,2.4,4,5.6,4.3,8.6c0.3,3-0.4,5.7-1.4,7.7c-1,2-2.3,3.4-3.2,4.3c-0.5,0.4-0.9,0.7-1.1,0.9c-0.3,0.2-0.4,0.3-0.4,0.3
					c0,0,0.1-0.1,0.4-0.3c0.3-0.2,0.6-0.5,1.1-1c0.9-0.9,2.1-2.3,3.1-4.3c1-2,1.7-4.7,1.3-7.6c-0.4-2.9-1.8-6-4.2-8.4
					c-1-0.9-2-1.7-3.1-2.3l-0.1-0.1l0-0.1c0.9-2.8,0.7-5.7,0-8c-0.3-1.2-0.9-2.3-1.4-3.2c-0.6-0.9-1.2-1.8-1.8-2.5
					c-1.2-1.4-2.5-2.3-3.4-2.9c-0.4-0.3-0.8-0.4-1-0.6C441.9,144.4,441.8,144.3,441.8,144.3z"/>
			</g>
		</g>
	</g>
	<g>
		<path fill="#7877A7" d="M383.4,169.8c0,0-8.8,2.6-11.9,7c-2.2,3.1-24.6,50.5-24.6,50.5l-34-10L300.7,233l37.8,20.5
			c7,3.8,15.5,3.8,22.5-0.1l0,0c3.9-2.1,7-5.3,9.1-9.2l9.6-18L383.4,169.8z"/>
	</g>
	<g>
		<g>
			<path fill="#7877A7" d="M374.4,273l5.3-22.4l-4-16.2c-2.6-8.4-4.8-22-2-32.9l9.4-31.5l10.3-4.6l23.7-4c0.9,0.3,24.7,6.9,24.7,6.9
				c3.3,0.7,4.6,1.3,4.6,1.3l2.7,17.3l-8.2,28.5l-3.6,28.3l7.9,29.5H374.4z"/>
		</g>
		<g>
			<g>
				<path fill="#7877A7" stroke="#FFFFFF" stroke-width="2.000000e-02" stroke-miterlimit="10" d="M372.6,203.5"/>
			</g>
		</g>
		<g>
			<g>
				<path fill="#7877A7" stroke="#FFFFFF" stroke-width="2.000000e-02" stroke-miterlimit="10" d="M428.1,205.5"/>
			</g>
		</g>
	</g>
	<g>
		<path fill="#FFBE9D" d="M388,167.7l6.9-3l30.9,0.4l7.3,4.1c0,0-25.6,27.5-32,28.5C385.1,200,388,167.7,388,167.7z"/>
	</g>
	<g>
		<path fill="#7877A7" d="M445.8,169.2c0,0,4.6,1,8.6,9.3c4,8.3,10.4,31.3,10.4,31.3l2.7-24.4l22.4,2.4l-4.3,58.3
			c0,0-7.9,11.2-21.2,10.2c-13.2-1-30-41.9-30-41.9L445.8,169.2z"/>
	</g>
	<g>
		<g>
			<path fill="#263238" d="M461.3,239.6c0,0,0,0,0-0.1c0-0.1,0-0.2,0-0.4c0-0.4,0.1-0.9,0.1-1.6c0.1-1.4,0.3-3.4,0.5-5.8
				c0.5-4.9,1.3-11.7,2.4-19.2c1-7.5,1.9-14.2,2.5-19.1c0.3-2.5,0.5-4.4,0.6-5.8c0.1-0.7,0.1-1.2,0.2-1.6c0-0.2,0-0.3,0-0.4
				c0-0.1,0-0.1,0-0.1c0,0,0,0,0,0.1c0,0.1,0,0.2,0,0.4c0,0.4-0.1,0.9-0.1,1.6c-0.1,1.4-0.3,3.4-0.5,5.8c-0.5,4.9-1.3,11.7-2.4,19.2
				c-1,7.5-1.9,14.2-2.5,19.1c-0.3,2.5-0.5,4.4-0.6,5.8c-0.1,0.7-0.1,1.2-0.2,1.6c0,0.2,0,0.3,0,0.4
				C461.3,239.6,461.3,239.6,461.3,239.6z"/>
		</g>
	</g>
	<g>
		<g>
			<path fill="#263238" d="M347.3,239.9c0,0-0.1-0.1-0.2-0.4c-0.1-0.3-0.3-0.7-0.5-1.3c-0.4-1.1-0.8-2.6-1-4.4
				c-0.2-1.7-0.1-3.3,0.1-4.5c0.1-0.6,0.2-1,0.3-1.3c0.1-0.3,0.1-0.5,0.2-0.5c0.1,0-0.1,0.7-0.2,1.8c-0.1,1.1-0.2,2.7,0,4.4
				c0.2,1.7,0.5,3.2,0.9,4.3C347,239.2,347.3,239.9,347.3,239.9z"/>
		</g>
	</g>
	<g>
		<g>
			<path fill="#263238" d="M351,240.4c0,0-0.2-0.1-0.4-0.4c-0.2-0.3-0.6-0.7-0.9-1.3c-0.7-1.1-1.6-2.8-2.3-4.7
				c-0.7-1.9-1-3.8-1.2-5.1c-0.1-0.7-0.1-1.2-0.1-1.6c0-0.4,0-0.6,0-0.6c0.1,0,0.1,0.8,0.3,2.1c0.2,1.3,0.6,3.1,1.2,5
				c0.7,1.9,1.5,3.5,2.2,4.7C350.6,239.7,351.1,240.4,351,240.4z"/>
		</g>
	</g>
	<g>
		<g>
			<path fill="#263238" d="M377.5,188.3c0,0,0,0.2-0.1,0.5c-0.1,0.3-0.2,0.8-0.4,1.3c-0.3,1.2-0.8,2.9-1.4,4.9
				c-1.2,4.2-2.8,9.9-3.6,16.5c-0.4,3.3-0.5,6.4-0.1,9.2c0.3,2.8,0.9,5.3,1.6,7.4c0.6,2.1,1.2,3.7,1.6,4.8c0.2,0.5,0.4,1,0.5,1.3
				c0.1,0.3,0.2,0.5,0.1,0.5c0,0-0.1-0.1-0.2-0.4c-0.1-0.3-0.3-0.8-0.5-1.3c-0.4-1.1-1.1-2.8-1.7-4.8c-0.7-2.1-1.3-4.6-1.7-7.4
				c-0.4-2.8-0.3-6,0.1-9.3c0.8-6.6,2.4-12.3,3.7-16.5c0.6-2.1,1.1-3.7,1.5-4.9c0.2-0.6,0.3-1,0.4-1.3
				C377.4,188.5,377.5,188.3,377.5,188.3z"/>
		</g>
	</g>
	<g>
		<g>
			<path fill="#263238" d="M440,226.7c0,0,0,0-0.1-0.1c-0.1-0.1-0.1-0.3-0.2-0.4c-0.2-0.4-0.4-1-0.8-1.7c-0.3-0.7-0.8-1.6-1.2-2.7
				c-0.4-1.1-0.9-2.3-1.5-3.6c-0.5-1.3-1-2.8-1.6-4.4c-0.3-0.8-0.5-1.6-0.8-2.5c-0.1-0.4-0.3-0.9-0.4-1.3c-0.1-0.4-0.2-0.9-0.4-1.4
				c-1-3.7-1.9-7.8-2.1-12.1c-0.3-4.4,0.2-8.6,1.3-12.2c1.1-3.7,2.9-6.7,5-8.8c2-2.1,4.1-3.3,5.6-4c0.8-0.3,1.4-0.5,1.8-0.6
				c0.2-0.1,0.3-0.1,0.5-0.1c0.1,0,0.2,0,0.2,0c0,0-0.1,0-0.2,0.1c-0.1,0-0.3,0.1-0.5,0.2c-0.4,0.1-1,0.4-1.7,0.7
				c-1.5,0.7-3.5,1.9-5.5,4c-2,2.1-3.8,5.1-4.8,8.7c-1.1,3.6-1.5,7.8-1.3,12.1c0.3,4.3,1.1,8.4,2.1,12.1c0.1,0.5,0.2,0.9,0.4,1.4
				c0.1,0.4,0.3,0.9,0.4,1.3c0.3,0.9,0.5,1.7,0.8,2.5c0.6,1.6,1.1,3.1,1.6,4.4c0.5,1.3,1,2.5,1.4,3.6c0.4,1.1,0.8,1.9,1.2,2.7
				c0.3,0.7,0.6,1.3,0.7,1.7c0.1,0.2,0.1,0.3,0.2,0.4C440,226.7,440.1,226.7,440,226.7z"/>
		</g>
	</g>
	<g opacity="0.3">
		<g>
			<path d="M431.5,200.3c-2.9,13.5-3,27.4,2.1,40.3c0.3,0.7,1.4,3.4,2.3,3.4c1,0,1.5-1.2,1.7-2.2c0.4-2.1,0.6-5.4,1-7.5
				c0.5-2.6,1.1-8.5,1.1-8.5s-2.4-5.4-3.5-8.3c-2-5.4-3.6-10.5-4.6-16.8"/>
		</g>
	</g>
	<g>
		<g>
			<path fill="#263238" d="M429.1,252.7c0,0-0.1,0.1-0.2,0.4c-0.2,0.2-0.4,0.6-0.7,1c-0.2,0.2-0.3,0.4-0.5,0.7
				c-0.2,0.3-0.4,0.5-0.7,0.8c-0.5,0.6-1,1.2-1.7,1.9c-0.3,0.3-0.7,0.7-1.1,1c-0.4,0.4-0.8,0.7-1.2,1c-0.8,0.7-1.8,1.4-2.9,2.1
				c-2.1,1.4-4.6,2.7-7.3,3.7c-2.7,1-5.5,1.7-8,2.1c-1.3,0.1-2.5,0.3-3.6,0.3c-0.6,0-1.1,0.1-1.6,0.1c-0.5,0-1,0-1.5,0
				c-1,0-1.8-0.1-2.6-0.2c-0.4,0-0.7-0.1-1.1-0.1c-0.3-0.1-0.6-0.1-0.9-0.2c-0.5-0.1-0.9-0.2-1.2-0.2c-0.3-0.1-0.4-0.1-0.4-0.1
				c0,0,0.2,0,0.4,0c0.3,0,0.7,0.1,1.2,0.2c0.3,0,0.6,0.1,0.9,0.1c0.3,0,0.7,0.1,1.1,0.1c0.8,0.1,1.6,0.2,2.6,0.2c0.5,0,1,0,1.5,0
				c0.5,0,1.1,0,1.6-0.1c1.1,0,2.3-0.2,3.6-0.4c2.5-0.4,5.2-1.1,7.9-2.1c2.7-1,5.1-2.3,7.2-3.7c1-0.7,2-1.4,2.9-2.1
				c0.4-0.4,0.9-0.7,1.2-1c0.4-0.3,0.7-0.7,1.1-1c0.7-0.6,1.3-1.3,1.8-1.8c0.3-0.3,0.5-0.5,0.7-0.8c0.2-0.2,0.4-0.5,0.5-0.7
				c0.3-0.4,0.6-0.7,0.8-0.9C429,252.8,429.1,252.6,429.1,252.7z"/>
		</g>
	</g>
	<g>
		<g>
			<path fill="#263238" d="M424.3,243.7c0,0,0,0.2-0.1,0.6c-0.1,0.4-0.2,1-0.4,1.7c-0.4,1.4-1.2,3.3-2.5,5.3
				c-1.3,1.9-2.7,3.4-3.9,4.4c-0.6,0.5-1.1,0.8-1.4,1.1c-0.4,0.2-0.6,0.4-0.6,0.3c0,0,0.7-0.6,1.8-1.6c1.1-1,2.5-2.5,3.8-4.4
				c1.2-1.9,2.1-3.8,2.5-5.2C424,244.6,424.2,243.7,424.3,243.7z"/>
		</g>
	</g>
	<g>
		<g>
			<path fill="#F3CE63" stroke="#000000" stroke-width="0.5" stroke-miterlimit="10" d="M413.4,88.3c8.4,0.1,16.6,4.7,20.8,11.7
				c4.2,7.1,4.4,16.3,0.3,23.5c-1.4,2.4-3.4,4.8-6.1,5.6c0.9-14-4.8-28.3-15.2-38"/>
		</g>
		<g>
			<path fill="#F3CE63" stroke="#000000" stroke-width="0.5" stroke-miterlimit="10" d="M423.2,90.5c-1.2-2.5,0.1-5.7,2.3-7.5
				c2.2-1.8,5.1-2.5,7.9-3.1c2.8-0.7,5.7-1.3,7.9-3c-0.3,4.4-1.4,8.9-4.4,12.3c-2.9,3.4-7.9,5.2-12.1,3.5"/>
		</g>
		<g>
			<path fill="#F3CE63" stroke="#000000" stroke-width="0.5" stroke-miterlimit="10" d="M426,93.4c-1.9,0.8-4.2,0.3-5.9-0.8
				c-1.7-1.1-2.9-2.9-3.9-4.6c-1.2-2.2-2.2-4.5-2.5-7c-0.3-2.5,0-5.1,1.3-7.2c3.3,3.4,6.9,6.3,8.8,10.6c1.1,2.5,1,6.6-0.2,9.1"/>
		</g>
		<g>
			<g>
				<path fill="#F3CE63" stroke="#000000" stroke-width="0.5" stroke-miterlimit="10" d="M435.3,107.6c0,0,0.1,0.3,0.2,0.8
					c0,0.3,0.1,0.6,0.1,1c0,0.4,0.1,0.8,0.1,1.3c0.1,1,0,2.1-0.1,3.4c-0.1,1.3-0.3,2.6-0.7,4.1c-0.4,1.4-0.8,2.7-1.3,3.9
					c-0.5,1.2-1,2.2-1.5,3c-0.2,0.4-0.5,0.8-0.7,1.1c-0.2,0.3-0.4,0.6-0.6,0.8c-0.3,0.4-0.5,0.7-0.5,0.7c0,0,0.1-0.3,0.4-0.7
					c0.1-0.2,0.3-0.5,0.5-0.8c0.2-0.3,0.4-0.7,0.6-1.1c0.5-0.8,0.9-1.9,1.4-3c0.5-1.2,0.9-2.5,1.2-3.9c0.3-1.4,0.5-2.8,0.7-4
					c0.1-1.2,0.2-2.4,0.1-3.3c0-0.5,0-0.9-0.1-1.3c0-0.4,0-0.7-0.1-1C435.3,107.9,435.3,107.6,435.3,107.6z"/>
			</g>
		</g>
		<g>
			<g>
				<path fill="#F3CE63" stroke="#000000" stroke-width="0.5" stroke-miterlimit="10" d="M433.5,91.9c0,0-0.2,0.2-0.7,0.5
					c-0.5,0.3-1.2,0.6-2.2,0.8c-1.9,0.4-4.7,0.3-7.7-0.4l-0.1,0l0-0.1c0-0.2-0.1-0.4-0.1-0.6c-0.3-1.5-0.4-3-0.2-4.4
					c0.2-1.3,0.6-2.5,1.3-3.3c0.6-0.9,1.3-1.3,1.8-1.7c0.5-0.3,0.8-0.4,0.8-0.4c0,0-0.3,0.2-0.7,0.5c-0.4,0.3-1.1,0.8-1.7,1.7
					c-0.6,0.8-1,2-1.2,3.3c-0.2,1.3-0.1,2.8,0.2,4.3c0,0.2,0.1,0.4,0.1,0.5l-0.1-0.1c2.9,0.8,5.6,0.9,7.5,0.5c1-0.2,1.7-0.5,2.2-0.7
					C433.2,92,433.5,91.8,433.5,91.9z"/>
			</g>
		</g>
		<g>
			<g>
				<path fill="#F3CE63" stroke="#000000" stroke-width="0.5" stroke-miterlimit="10" d="M435.9,84.3c0,0.1-0.9,0.2-2.3,0.6
					c-0.7,0.2-1.5,0.5-2.4,0.9c-0.9,0.4-1.8,0.9-2.7,1.4c-0.9,0.6-1.7,1.2-2.4,1.8c-0.7,0.6-1.3,1.2-1.7,1.8
					c-0.9,1.1-1.4,1.8-1.4,1.8c0,0,0.1-0.2,0.3-0.5c0.2-0.3,0.5-0.8,1-1.4c0.4-0.6,1-1.2,1.7-1.8c0.7-0.6,1.5-1.3,2.5-1.9
					c0.9-0.6,1.9-1.1,2.8-1.4c0.9-0.4,1.7-0.6,2.4-0.8c0.7-0.2,1.3-0.3,1.7-0.3C435.7,84.3,435.9,84.2,435.9,84.3z"/>
			</g>
		</g>
		<g>
			<g>
				<path fill="#F3CE63" stroke="#000000" stroke-width="0.5" stroke-miterlimit="10" d="M425.9,93.3c0,0,0,0.1,0,0.2
					c0,0.1-0.1,0.3-0.2,0.5c-0.2,0.4-0.5,1-1.2,1.5c-0.6,0.5-1.6,0.9-2.7,0.9c-1.1,0-2.3-0.7-3-1.7c-0.7-1-0.9-2.3-0.6-3.3
					c0.3-1,1.1-1.7,1.8-2.1c0.7-0.4,1.4-0.5,1.8-0.6c0.2,0,0.4,0,0.5,0c0.1,0,0.2,0,0.2,0c0,0-0.3,0-0.7,0c-0.4,0-1.1,0.2-1.7,0.6
					c-0.6,0.4-1.3,1.1-1.6,2.1c-0.3,0.9-0.1,2.1,0.5,3.1c0.7,0.9,1.7,1.6,2.7,1.6c1,0.1,1.9-0.3,2.5-0.7c0.6-0.5,1-1,1.2-1.3
					C425.8,93.5,425.9,93.3,425.9,93.3z"/>
			</g>
		</g>
		<g>
			<g>
				<path fill="#F3CE63" stroke="#000000" stroke-width="0.5" stroke-miterlimit="10" d="M418.6,93.4c0,0-0.2-0.3,0.1-0.8
					c0.1-0.2,0.4-0.4,0.7-0.5c0.3-0.1,0.7-0.1,1.1-0.1c1.5,0.1,2.6,0.7,2.5,0.7c0,0.1-1.1-0.3-2.6-0.4c-0.7-0.1-1.3,0.1-1.6,0.5
					C418.6,93.1,418.7,93.4,418.6,93.4z"/>
			</g>
		</g>
		<g>
			<g>
				<path fill="#F3CE63" stroke="#000000" stroke-width="0.5" stroke-miterlimit="10" d="M415,73.7c0.1,0-0.7,0.9-0.9,2.5
					c-0.1,0.8-0.2,1.8-0.1,2.9c0,1.1,0.1,2.3,0.3,3.5c0.6,2.5,1.6,4.6,2.6,5.9c0.5,0.7,0.9,1.2,1.2,1.6c0.3,0.4,0.5,0.5,0.5,0.6
					c0,0-0.9-0.6-1.9-2c-1-1.4-2.1-3.5-2.7-6c-0.3-1.3-0.3-2.5-0.3-3.6c0-1.1,0-2.1,0.2-2.9c0.2-0.8,0.4-1.5,0.7-1.9
					C414.8,73.8,414.9,73.7,415,73.7z"/>
			</g>
		</g>
		<g>
			<g>
				<path fill="#F3CE63" stroke="#000000" stroke-width="0.5" stroke-miterlimit="10" d="M418.1,80.6c0,0,0.4,0.3,0.8,1
					c0.5,0.7,1.1,1.6,1.6,2.7c0.5,1.1,0.9,2.2,1.1,3c0.2,0.8,0.2,1.3,0.2,1.3c-0.1,0-0.5-1.9-1.5-4.1
					C419.2,82.3,418,80.7,418.1,80.6z"/>
			</g>
		</g>
		<g>
			<g>
				<path fill="#F3CE63" stroke="#000000" stroke-width="0.5" stroke-miterlimit="10" d="M417,84.3c0.1-0.1,1.1,0.9,2.4,2.1
					c1.3,1.2,2.4,2.1,2.3,2.2c-0.1,0.1-1.2-0.8-2.5-2C417.9,85.4,417,84.3,417,84.3z"/>
			</g>
		</g>
		<g>
			<g>
				<path fill="#F3CE63" stroke="#000000" stroke-width="0.5" stroke-miterlimit="10" d="M432.8,98C432.8,98,432.7,98.1,432.8,98
					c-0.2,0.2-0.3,0.2-0.4,0.3c-0.2,0.2-0.6,0.4-1,0.7c-0.9,0.6-2.2,1.3-3.8,1.8c-1.6,0.5-3.1,0.7-4.1,0.7c-0.5,0-1,0-1.3,0
					c-0.1,0-0.2,0-0.3,0c-0.1,0-0.1,0-0.1,0c0,0,0,0,0.1,0c0.1,0,0.2,0,0.3,0c0.3,0,0.7,0,1.3,0c1.1-0.1,2.5-0.3,4.1-0.8
					c1.6-0.5,2.9-1.2,3.8-1.8c0.4-0.3,0.8-0.5,1-0.7c0.1-0.1,0.2-0.1,0.3-0.2C432.7,98,432.8,98,432.8,98z"/>
			</g>
		</g>
		<g>
			<g>
				<path fill="#F3CE63" stroke="#000000" stroke-width="0.5" stroke-miterlimit="10" d="M436.3,105.1
					C436.3,105.1,436.3,105.1,436.3,105.1c-0.2,0.2-0.3,0.2-0.4,0.3c-0.2,0.2-0.6,0.4-1,0.7c-0.9,0.6-2.2,1.3-3.8,1.9
					c-1.6,0.5-3,0.8-4.1,0.9c-0.5,0.1-1,0.1-1.3,0.1c-0.1,0-0.2,0-0.3,0c-0.1,0-0.1,0-0.1,0c0,0,0,0,0.1,0c0.1,0,0.2,0,0.3,0
					c0.3,0,0.7,0,1.3-0.1c1.1-0.1,2.5-0.4,4.1-0.9c1.5-0.5,2.9-1.2,3.8-1.8c0.5-0.3,0.8-0.5,1-0.7c0.1-0.1,0.2-0.1,0.3-0.2
					C436.2,105.1,436.3,105.1,436.3,105.1z"/>
			</g>
		</g>
		<g>
			<g>
				<path fill="#F3CE63" stroke="#000000" stroke-width="0.5" stroke-miterlimit="10" d="M435.3,115.5c0,0-0.1,0.1-0.3,0.2
					c-0.2,0.1-0.4,0.3-0.7,0.4c-0.6,0.3-1.6,0.7-2.6,1c-1.1,0.3-2.1,0.4-2.8,0.4c-0.4,0-0.7,0-0.9,0c-0.2,0-0.3,0-0.3,0s0.1,0,0.3,0
					c0.2,0,0.5,0,0.9,0c0.7,0,1.7-0.1,2.8-0.4c1.1-0.3,2-0.7,2.6-1c0.3-0.2,0.6-0.3,0.8-0.4C435.2,115.5,435.3,115.5,435.3,115.5z"
					/>
			</g>
		</g>
		<g>
			<g>
				<path fill="#F3CE63" stroke="#000000" stroke-width="0.5" stroke-miterlimit="10" d="M437.3,113.9c0,0-0.4,0.1-0.8,0.2
					c-0.5,0.1-0.8,0.1-0.8,0.1c0,0,0.4-0.1,0.8-0.2C437,113.9,437.3,113.8,437.3,113.9z"/>
			</g>
		</g>
		<g>
			<g>
				<path fill="#F3CE63" stroke="#000000" stroke-width="0.5" stroke-miterlimit="10" d="M431.4,126c0,0-0.6,0.1-1.4,0.1
					c-0.8-0.1-1.4-0.2-1.3-0.3c0,0,0.6,0.1,1.4,0.1C430.8,126,431.4,126,431.4,126z"/>
			</g>
		</g>
		<g>
			<g>
				<path fill="#F3CE63" stroke="#000000" stroke-width="0.5" stroke-miterlimit="10" d="M420,95.4c0,0-0.3,0.3-0.8,0.5
					c-0.5,0.2-0.8,0.4-0.9,0.4s0.3-0.3,0.8-0.5C419.6,95.5,420,95.4,420,95.4z"/>
			</g>
		</g>
		<g>
			<g>
				<path fill="#F3CE63" stroke="#000000" stroke-width="0.5" stroke-miterlimit="10" d="M417,89.2c0,0-0.9,0.3-1.8,0.9
					c-0.9,0.6-1.4,1.4-1.5,1.3c0,0,0.1-0.2,0.3-0.5c0.2-0.3,0.6-0.6,1.1-0.9c0.5-0.3,0.9-0.5,1.3-0.7C416.8,89.3,417,89.2,417,89.2z
					"/>
			</g>
		</g>
		<g>
			<g>
				<path fill="#F3CE63" stroke="#000000" stroke-width="0.5" stroke-miterlimit="10" d="M422.4,96.1c0,0,0.2-0.8,0-1.8
					c-0.1-1-0.5-1.7-0.5-1.7c0,0,0.1,0.2,0.3,0.5c0.1,0.3,0.3,0.7,0.3,1.2c0.1,0.5,0,1,0,1.3C422.5,95.9,422.4,96.1,422.4,96.1z"/>
			</g>
		</g>
		<g>
			<g>
				<path fill="#F3CE63" stroke="#000000" stroke-width="0.5" stroke-miterlimit="10" d="M441,76.9c0,0-0.2,0.3-0.7,0.7
					c-0.4,0.4-1.1,1-2.1,1.6c-0.9,0.6-2.1,1.2-3.5,1.7c-1.3,0.6-2.8,1.1-4.4,1.9c-1.5,0.7-2.9,1.5-4,2.5c-1.1,0.9-1.9,2-2.3,3
					c-0.5,1-0.7,1.8-0.7,2.4c-0.1,0.6,0,0.9,0,0.9c0,0,0-0.1,0-0.2c0-0.2,0-0.4,0-0.7c0-0.6,0.2-1.5,0.7-2.5c0.5-1,1.3-2.1,2.3-3
					c1.1-1,2.5-1.8,4-2.5c1.5-0.7,3-1.3,4.4-1.9c1.3-0.6,2.5-1.1,3.5-1.7c0.9-0.6,1.6-1.1,2.1-1.5c0.2-0.2,0.4-0.4,0.5-0.5
					C440.9,77,441,76.9,441,76.9z"/>
			</g>
		</g>
		<g>
			<g>
				<path fill="#F3CE63" stroke="#000000" stroke-width="0.5" stroke-miterlimit="10" d="M439.4,83.9c0,0,0,0-0.1,0.1
					c-0.1,0.1-0.2,0.2-0.2,0.4c-0.2,0.3-0.6,0.8-1,1.3c-0.9,1.1-2.2,2.5-3.9,3.7c-1.7,1.3-3.4,2.2-4.7,2.8c-0.6,0.3-1.2,0.5-1.5,0.6
					c-0.2,0.1-0.3,0.1-0.4,0.1c-0.1,0-0.2,0-0.2,0c0,0,0,0,0.1-0.1c0.1-0.1,0.3-0.1,0.4-0.2c0.4-0.1,0.9-0.4,1.5-0.6
					c1.3-0.6,3-1.5,4.6-2.8c1.7-1.3,3-2.7,3.9-3.7c0.4-0.5,0.8-1,1-1.3c0.1-0.1,0.2-0.2,0.3-0.4C439.3,83.9,439.4,83.9,439.4,83.9z"
					/>
			</g>
		</g>
		<g>
			<g>
				<path fill="#F3CE63" stroke="#000000" stroke-width="0.5" stroke-miterlimit="10" d="M414.3,75.7c0,0,0.7,0.3,1.8,0.9
					c1.1,0.7,2.5,1.8,3.7,3.2c1.2,1.5,2,3.1,2.4,4.2c0.4,1.2,0.5,1.9,0.5,1.9c0,0,0,0,0-0.1c0-0.1-0.1-0.2-0.1-0.4
					c-0.1-0.3-0.2-0.8-0.5-1.4c-0.4-1.2-1.2-2.7-2.4-4.2c-1.2-1.5-2.6-2.6-3.6-3.3c-0.5-0.3-1-0.6-1.3-0.8c-0.1-0.1-0.2-0.1-0.4-0.2
					C414.4,75.7,414.3,75.7,414.3,75.7z"/>
			</g>
		</g>
	</g>
	<g>
		<g>
			<path fill="#351A03" d="M384.2,97.7c0.2,3.1-1.9,5.9-4,8.2c-2.1,2.3-4.5,4.8-4.9,7.8c-0.8,5.5,4.7,10.5,3.5,15.9
				c-0.6,2.9-3,5.2-3.5,8.2c-0.4,2.8,1.1,5.6,3.1,7.8c1.9,2.2,4.2,1.8,5.9,4.2c1.8,2.5,4.7,5,7.4,6.4c6.1,3.3,13.5-1.5,16.5-2.3"/>
		</g>
	</g>
	<g>
		<g>
			<path fill="#351A03" d="M430.6,110.4c2.8-1.2,3.1-11.1-4-12.2c-2.8-0.5-5.2-1.8-7.6-3.4c-2.1-1.4-2.7-4.9-4.5-6.7
				c-4.4-4.4-11.3-6.2-17.3-4.6c-6,1.6-11,6.6-12.6,12.5c-1,4-0.3,8.8,2.9,11.4c3.8,3.1,9.3,2.4,14.1,1.4c4.8-1,10.3-1.9,14.3,0.8
				c2.4,1.7,3.8,4.4,5.3,6.9c1.5,2.5,3.3,5.1,6.1,6c0,0,2.1,4.9,0.4,8.3c-1.7,3.4,2-2.4,2-2.4S436.7,116.6,430.6,110.4"/>
		</g>
	</g>
	<g>
		<g>
			<g>
				<g>
					<g>
						<g>
							<g>
								<g>
									<g>
										<g>
											<g>
												<g>
													<g>
														<g>
															<g>
																<path fill="#FFBE9D" d="M394.7,179.9c0-6.5,0-24.6,0-24.6c0,0-10.5-1.7-12.7-15.1c-1.1-6.7-0.7-17.6-0.1-26.5
																	c0.5-8,6-17.9,14.2-17l25.6,6.4c2.5,0.3,4.4,2.3,4.3,4.8l0,0l-1.6,62.1L394.7,179.9z"/>
															</g>
														</g>
													</g>
												</g>
											</g>
										</g>
									</g>
								</g>
								<g>
									<g>
										<g>
											<g>
												<g>
													<g>
														<g>
															<g>
																<g>
																	<path fill="#263238" d="M386.3,121.3c0,0.9,0.7,1.7,1.7,1.7c1,0.1,1.8-0.6,1.8-1.5c0-0.9-0.7-1.7-1.7-1.7
																		C387.1,119.7,386.3,120.4,386.3,121.3z"/>
																</g>
															</g>
														</g>
													</g>
												</g>
											</g>
										</g>
									</g>
									<g>
										<g>
											<g>
												<g>
													<g>
														<g>
															<g>
																<g>
																	<g>
																		<path fill="#263238" d="M384.3,119.4c0.2,0.2,1.6-0.7,3.4-0.7c1.9,0,3.3,0.9,3.5,0.7c0.1-0.1-0.1-0.5-0.7-0.9
																			c-0.6-0.4-1.6-0.8-2.8-0.8c-1.2,0-2.2,0.4-2.7,0.9C384.4,118.9,384.2,119.3,384.3,119.4z"/>
																	</g>
																</g>
															</g>
														</g>
													</g>
												</g>
											</g>
										</g>
									</g>
								</g>
								<g>
									<g>
										<g>
											<g>
												<g>
													<g>
														<g>
															<g>
																<g>
																	<g>
																		<path fill="#263238" d="M403,122.3c0.2,0.2,1.6-0.7,3.4-0.7c1.9,0,3.3,0.9,3.5,0.7c0.1-0.1-0.1-0.5-0.7-0.9
																			c-0.6-0.4-1.6-0.8-2.8-0.8c-1.2,0-2.2,0.4-2.7,0.9C403,121.8,402.8,122.2,403,122.3z"/>
																	</g>
																</g>
															</g>
														</g>
													</g>
												</g>
											</g>
										</g>
									</g>
								</g>
								<g>
									<g>
										<g>
											<g>
												<g>
													<g>
														<g>
															<g>
																<g>
																	<path fill="#263238" d="M396,133.5c0-0.1-1.2-0.3-3.1-0.5c-0.5,0-0.9-0.1-1-0.5c-0.1-0.3,0.1-0.9,0.3-1.4
																		c0.5-1.1,0.9-2.3,1.4-3.6c2-5.1,3.4-9.3,3.2-9.4c-0.2-0.1-2,4-4,9.1c-0.5,1.3-0.9,2.5-1.4,3.6
																		c-0.2,0.5-0.5,1.1-0.3,1.9c0.1,0.4,0.5,0.6,0.8,0.7c0.3,0.1,0.6,0.1,0.8,0.1C394.8,133.5,396,133.6,396,133.5z"/>
																</g>
															</g>
														</g>
													</g>
												</g>
											</g>
										</g>
									</g>
								</g>
								<g>
									<g>
										<g>
											<g>
												<g>
													<g>
														<g>
															<g>
																<path fill="#EB996E" d="M394.7,155.3c0,0,9.2,0.6,18.4-4.7c-0.2,0-5.1,9.3-18.2,7.9L394.7,155.3z"/>
															</g>
														</g>
													</g>
												</g>
											</g>
										</g>
									</g>
								</g>
								<g>
									<path fill="#EB996E" d="M396.6,138.8c-0.2-1.1,1.1-1.5,2.2-2.1c1-0.6,1.6-1.4,2.5-0.7c0.5,0.4,0.9,1,1.2,1.6
										c0.2,0.4,0.3,0.9,0.2,1.3c-0.1,0.5-0.4,1-0.8,1.4c-0.6,0.5-1.3,0.9-2.1,1.1c-0.8,0.1-1.6,0-2.2-0.5
										C396.9,140.3,396.5,139.5,396.6,138.8"/>
								</g>
								<g>
									<g>
										<g>
											<g>
												<g>
													<g>
														<g>
															<g>
																<g>
																	<path fill="#263238" d="M401.6,134.7c-0.3,0-0.3,2-2.1,3.4c-1.8,1.4-4,1.2-4,1.5c0,0.1,0.5,0.4,1.4,0.4
																		c0.9,0,2.2-0.2,3.3-1.1c1.1-0.9,1.5-2,1.6-2.9C402,135.2,401.8,134.7,401.6,134.7z"/>
																</g>
															</g>
														</g>
													</g>
												</g>
											</g>
										</g>
									</g>
								</g>
							</g>
						</g>
					</g>
					<g>
						<g>
							<g>
								<g>
									<g>
										<g>
											<g>
												<g>
													<path fill="#263238" d="M402.7,118.2c0.2,0.5,2.1,0.3,4.3,0.5c2.2,0.2,4,0.9,4.3,0.4c0.1-0.2-0.2-0.7-0.9-1.2
														c-0.7-0.5-1.9-1-3.2-1.1c-1.3-0.1-2.6,0.1-3.4,0.4C403,117.5,402.6,117.9,402.7,118.2z"/>
												</g>
											</g>
										</g>
									</g>
								</g>
							</g>
						</g>
					</g>
					<g>
						<g>
							<g>
								<g>
									<g>
										<g>
											<g>
												<g>
													<path fill="#263238" d="M384.6,113c0.3,0.4,1.6,0,3.2,0c1.6-0.1,2.9,0.3,3.2-0.2c0.1-0.2-0.1-0.6-0.7-1
														c-0.6-0.4-1.5-0.7-2.6-0.7c-1.1,0-2,0.4-2.6,0.8C384.6,112.3,384.5,112.8,384.6,113z"/>
												</g>
											</g>
										</g>
									</g>
								</g>
							</g>
						</g>
					</g>
				</g>
			</g>
		</g>
	</g>
	<g>
		<g>
			<path fill="#351A03" d="M427.5,147.9c-3.8,0.7-4.1-1.1-6.9-3.7c-2.8-2.6-4.3-6.5-3.8-10.2c0.4-3.3,2.2-6.6,1.1-9.8
				c-1.5-4.1-7.5-5.4-9-9.5c-0.9-2.4-0.1-5.2-1.1-7.5c-1-2.2-3.3-3.5-5.7-4.3c-2.3-0.8-4.8-1.4-6.7-2.8c-1.9-1.5-3.1-4.2-1.9-6.3
				c10.2,1.2,20.3,3.6,30,7.1c2.2,0.8,4.6,1.8,5.9,3.7c1.4,2.1,1.3,4.7,1.2,7.2c-0.6,12-1.2,24.1-1.7,36.1"/>
		</g>
	</g>
	<g>
		<g>
			<g>
				<path fill="#455A64" d="M436.3,143.4c0,0,0.1-0.1,0.2-0.2c0.1-0.1,0.2-0.3,0.4-0.5c0.3-0.5,0.7-1.3,0.9-2.3
					c0.2-1.1,0.2-2.5-0.2-4c-0.4-1.5-1.5-3.1-3.2-4.2c-1.6-1.1-3.7-1.9-5.1-3.7c-0.7-0.9-1-2-0.7-3.1c0.2-1.1,0.7-2.3,1.2-3.5
					c1-2.4,1.1-5.4-0.2-8c-0.6-1.3-1.5-2.5-2.8-3.4c-1.2-0.9-2.7-1.4-4.2-1.7c-1.5-0.3-3-0.5-4.3-0.9c-1.4-0.4-2.7-1-3.6-1.9
					c-1-0.9-1.4-2.2-1.6-3.5c-0.2-1.3-0.3-2.6-0.6-3.9c-0.7-2.5-2-4.7-3.7-6.3c-1.7-1.6-3.8-2.5-5.8-2.8c-2-0.3-3.9,0.1-5.3,0.8
					c-1.4,0.7-2.4,1.7-3.1,2.6c-0.6,0.9-0.9,1.7-1.1,2.3c-0.1,0.6-0.1,0.9-0.1,0.9c0.1,0,0.1-1.3,1.4-3c0.6-0.8,1.6-1.8,3-2.4
					c1.4-0.7,3.2-1,5.1-0.7c1.9,0.3,3.9,1.2,5.5,2.8c1.6,1.5,2.9,3.7,3.5,6.1c0.3,1.2,0.4,2.5,0.6,3.8c0.2,1.3,0.6,2.8,1.7,3.8
					c1.1,1,2.5,1.7,3.9,2.1c1.4,0.4,2.9,0.6,4.4,0.9c1.4,0.3,2.9,0.8,4,1.6c1.1,0.8,2,1.9,2.6,3.1c1.2,2.5,1.2,5.3,0.2,7.6
					c-0.5,1.2-1,2.3-1.2,3.6c-0.2,1.2,0.1,2.6,0.9,3.5c1.5,1.9,3.7,2.7,5.3,3.7c1.6,1,2.7,2.5,3.1,3.9c0.5,1.4,0.5,2.8,0.3,3.8
					C437.1,142.4,436.2,143.3,436.3,143.4z"/>
			</g>
		</g>
	</g>
	<g>
		<g>
			<g>
				<path fill="#351A03" d="M418.4,130c-3.1,7-3.7,15-1.6,22.4c0.6,2.2,1.5,4.5,0.9,6.7c-0.6,2.4-2.6,4.1-4.1,6.1
					c-2.6,3.4-3.6,7.9-2.7,12.1c0.9,4.1,3.7,7.9,7.4,10c0.4-2.2,2.5-3.7,4.6-4.7c2.1-1,4.4-1.7,5.9-3.3c1.6-1.6,2-4.6,0.2-5.9
					c5.3-1.3,8.3-7.5,7.2-12.7c-1.1-5.2-5.5-9.3-10.4-11.6"/>
			</g>
			<g>
				<path fill="#351A03" d="M424.1,182.1c-0.9,0.5-1.9,1-2,2c-0.1,1.2,1.1,3.4,1.5,4.5c0.8,2.3,0.2,5-1.6,6.7
					c-1.8,1.7-4.6,2.2-6.9,1.3c1.7,0.1,3.1-1.5,3.3-3.1c0.2-1.6-0.7-3.2-1.7-4.6c-1-1.3-2.2-2.5-3.1-3.9c-1.7-2.9-4.3-10.8-2.3-15.3
					"/>
			</g>
		</g>
		<g>
			<g>
				<path fill="#351A03" d="M428.9,173.6c0,0,0.1-0.1,0.3-0.3c0.2-0.2,0.5-0.4,0.9-0.7c0.8-0.7,1.9-1.7,3.1-3.1
					c1.1-1.4,2.3-3.4,2.9-5.7c0.6-2.3,0.6-5.1-0.4-7.7c-0.5-1.3-1.3-2.4-2.2-3.4c-0.9-1-1.8-1.9-2.7-2.7c-0.9-0.8-1.8-1.7-2.5-2.5
					c-0.7-0.8-1.2-1.7-1.6-2.6c-0.8-1.7-0.8-3.3-0.5-4.3c0.1-0.5,0.3-0.9,0.4-1.1c0.1-0.2,0.2-0.4,0.2-0.3c0,0-0.3,0.5-0.6,1.5
					c-0.2,1-0.2,2.5,0.6,4.2c0.4,0.8,0.9,1.7,1.6,2.5c0.7,0.8,1.6,1.6,2.5,2.5c0.9,0.8,1.9,1.7,2.8,2.7c0.9,1,1.7,2.2,2.2,3.5
					c1.1,2.7,1,5.5,0.4,7.9c-0.6,2.4-1.8,4.3-3,5.8c-1.2,1.4-2.4,2.4-3.2,3.1c-0.4,0.3-0.7,0.6-1,0.7
					C429,173.5,428.9,173.6,428.9,173.6z"/>
			</g>
		</g>
	</g>
	<g>
		<g>
			<path fill="#7877A7" d="M421.7,41c-2.8,0.3-3.1,3.7-3.1,3.7l1.8,0.2c0-2,2.5-2.8,2.5-2.8L421.7,41z"/>
		</g>
	</g>
	<g>
		<g>
			<path fill="#7877A7" d="M375.2,49.8c1.7,4.2,7.4,3.2,7.4,3.2l-0.5-3c-3.2,0.9-5.7-2.7-5.7-2.7L375.2,49.8z"/>
		</g>
	</g>
	<g>
		<g>
			<path fill="#7877A7" d="M347.2,25.8c0.4-2.7-2.9-3.8-2.9-3.8l-0.7,1.7c2,0.5,2.1,3.1,2.1,3.1L347.2,25.8z"/>
		</g>
	</g>
	<g>
		<g>
			<path fill="#7877A7" d="M360.1,81.1c2.8,0.2,3.6-3.1,3.6-3.1l-1.8-0.5c-0.3,2-2.9,2.4-2.9,2.4L360.1,81.1z"/>
		</g>
	</g>
</g>
</svg>
