<?xml version="1.0" encoding="utf-8"?>
<!-- Generator: Adobe Illustrator 24.1.3, SVG Export Plug-In . SVG Version: 6.00 Build 0)  -->
<svg version="1.1" id="Слой_1" xmlns="http://www.w3.org/2000/svg" xmlns:xlink="http://www.w3.org/1999/xlink" x="0px" y="0px"
	 viewBox="0 0 1100 500" style="enable-background:new 0 0 1100 500;" xml:space="preserve">
<style type="text/css">
	.st0{fill:#455A64;}
	.st1{fill:#F3CE63;}
	.st2{opacity:0.3;}
	.st3{fill:#7776A3;}
	.st4{fill:#263238;}
	.st5{fill:#FFFFFF;}
	.st6{fill:#7877A7;}
	.st7{fill:#FCE9EA;}
	.st8{fill:#FEF8F8;}
	.st9{fill:#E0E0E0;}
	.st10{fill:#FAFAFA;}
	.st11{fill:#D6D6E5;}
	.st12{fill:#B6B6CE;}
	.st13{fill:#547FB2;stroke:#263238;stroke-miterlimit:10;}
	.st14{fill:#FFBE9D;}
	.st15{fill:#050010;}
	.st16{fill:#070008;}
	.st17{fill:#000002;}
	.st18{fill:#352A25;}
	.st19{fill:#B78876;}
	.st20{fill:#A36957;}
	.st21{fill:#281F07;}
	.st22{fill:#547FB2;}
	.st23{fill:#506287;}
</style>
<g>
	<rect x="720.4" y="34.4" class="st0" width="59.9" height="4.6"/>
</g>
<g>
	<g>
		<g>
			<g>
				<g>
					<path class="st1" d="M1047.7,406.1c-0.2-0.5-0.6-1.3-1-2.3c-0.7-2.1-1.9-5.3-2.7-9.7c-1.9-8.6-2.6-21.9-0.1-37.8
						c1.1-8,3-16.5,5.2-25.4s4.9-18.5,7-28.7s3.7-21.2,3.4-32.7s-3-23-5.9-34.6s-6-23.1-6.9-34.7c-1-11.6,0.9-23.1,5-32.4
						c4-9.4,8.9-17.3,12.5-25.4c3.7-8.1,6-16.4,7.5-24.1c2.7-15.6,2-28.8,0.7-37.6c-0.6-4.4-1.4-7.9-1.9-10.1
						c-0.2-1.2-0.5-1.9-0.6-2.6c-0.1-0.6-0.1-0.9-0.1-0.9s1.6,4.6,3,13.4c1.2,8.8,2.2,22.1-0.5,37.8c-1.4,7.7-3.6,16.3-7.4,24.4
						c-3.6,8.3-8.5,16.1-12.3,25.4c-4,9.2-5.9,20.4-4.9,31.8c1,11.5,4,22.8,6.9,34.5c2.9,11.6,5.5,23.2,5.9,35
						c0.2,11.6-1.4,22.8-3.5,33c-2.1,10.3-4.7,19.9-7,28.8c-2.4,8.9-4.2,17.3-5.4,25.2c-2.5,15.7-2,28.9-0.2,37.6
						c0.9,4.3,1.9,7.5,2.6,9.7c0.4,1,0.6,1.8,0.9,2.5c0.1,0.6,0.2,0.9,0.2,0.9S1047.9,406.8,1047.7,406.1z"/>
				</g>
			</g>
		</g>
		<g>
			<g>
				<g>
					<path class="st1" d="M1052.7,102.7c0.1-0.9,0.9-1.2,1.4-0.5c13.2,18.1,5.9,48.8,5.9,48.8C1051,123.2,1051.9,107.8,1052.7,102.7
						z"/>
				</g>
			</g>
			<g>
				<g>
					<g>
						<path class="st1" d="M1056.5,117.9c0.6,3.5,1.4,8.3,2,13.6c0.6,5.3,1.1,10.2,1.4,13.7c0.2,3.5,0.2,5.7,0.1,5.7
							s-0.4-2.2-0.7-5.7c-0.5-3.9-1-8.5-1.6-13.6c-0.6-5-1.1-9.7-1.6-13.6c-0.4-3.5-0.6-5.7-0.5-5.7S1056,114.5,1056.5,117.9z"/>
					</g>
				</g>
			</g>
		</g>
		<g>
			<g>
				<g>
					<path class="st1" d="M1027.7,185.4c-0.2-0.8,0.4-1.5,1-1.3c18.1,7.7,22.6,39.5,22.6,39.5
						C1033.6,204.5,1028.8,190.2,1027.7,185.4z"/>
				</g>
			</g>
			<g>
				<g>
					<g>
						<path class="st1" d="M1036.7,196.4c1.7,2.6,4.1,6.5,6.6,10.7c2.5,4.3,4.6,8.3,6.1,11.2c1.4,3,2.2,4.9,2.1,5s-1.1-1.7-2.7-4.5
							c-1.9-3.1-4-6.8-6.4-11s-4.5-7.9-6.4-11c-1.6-2.8-2.6-4.6-2.5-4.8C1033.7,192.1,1034.8,193.7,1036.7,196.4z"/>
					</g>
				</g>
			</g>
		</g>
		<g>
			<g>
				<g>
					<path class="st1" d="M1042.1,257.6c0-0.9,0.7-1.4,1.2-0.9c15.6,14.5,12.8,46.5,12.8,46.5
						C1043.4,278.1,1042.1,262.7,1042.1,257.6z"/>
				</g>
			</g>
			<g>
				<g>
					<g>
						<path class="st1" d="M1048.2,271.5c1,3.2,2.5,7.7,3.9,12.8c1.5,5,2.6,9.7,3.4,13c0.7,3.4,1.1,5.6,1,5.6
							c-0.1,0.1-0.7-1.9-1.6-5.3c-1-3.7-2.2-8.1-3.6-12.9s-2.6-9.2-3.6-12.9c-1-3.2-1.5-5.4-1.4-5.4
							C1046.3,266.3,1047.1,268.3,1048.2,271.5z"/>
					</g>
				</g>
			</g>
		</g>
		<g>
			<g>
				<g>
					<path class="st1" d="M1027.2,338.2c0-0.9,0.7-1.4,1.2-0.9c16,13.7,14.1,45.8,14.1,45.8C1029.1,358.7,1027.3,343.4,1027.2,338.2
						z"/>
				</g>
			</g>
			<g>
				<g>
					<g>
						<path class="st1" d="M1033.7,352c1.1,3.2,2.6,7.6,4.2,12.6s2.9,9.6,3.7,12.9c0.9,3.4,1.2,5.6,1.1,5.6s-0.7-2.1-1.7-5.3
							c-1.1-3.7-2.5-8-4-12.8s-2.9-9.2-4-12.8c-1-3.4-1.6-5.3-1.5-5.4C1031.7,346.7,1032.5,348.7,1033.7,352z"/>
					</g>
				</g>
			</g>
		</g>
		<g>
			<g>
				<g>
					<path class="st1" d="M1091.6,83.2c0.5-0.5,1.2,0,1.2,0.9c-0.5,24.9-22.3,39.9-22.3,39.9C1079.2,96.2,1088.3,86,1091.6,83.2z"/>
				</g>
			</g>
			<g>
				<g>
					<g>
						<path class="st1" d="M1086.2,97.5c-1.5,3-3.6,7-6,11.4c-2.5,4.4-4.7,8.3-6.5,11c-1.7,2.7-2.9,4.3-3,4.1
							c-0.1-0.1,0.9-1.8,2.5-4.6c1.9-3.2,3.9-7,6.2-11.1c2.2-4.1,4.4-7.9,6.1-11.1c1.6-2.8,2.6-4.6,2.7-4.5
							C1088.3,92.7,1087.6,94.5,1086.2,97.5z"/>
					</g>
				</g>
			</g>
		</g>
		<g>
			<g>
				<g>
					<path class="st1" d="M1069.9,150.9c0.6-0.4,1.2,0.1,1.2,1c-1.5,24.9-24.1,38.1-24.1,38.1C1057,163.1,1066.5,153.7,1069.9,150.9
						z"/>
				</g>
			</g>
			<g>
				<g>
					<g>
						<path class="st1" d="M1063.8,165c-1.6,2.8-3.9,6.7-6.5,10.8c-2.5,4.3-5,7.9-6.9,10.5s-3.1,4-3.2,3.9c0-0.1,1-1.8,2.7-4.5
							c2-3.1,4.2-6.6,6.7-10.6c2.5-3.9,4.9-7.5,6.7-10.6c1.6-2.7,2.7-4.4,2.9-4.3C1066.3,160.2,1065.4,162,1063.8,165z"/>
					</g>
				</g>
			</g>
		</g>
		<g>
			<g>
				<g>
					<path class="st1" d="M1066.8,215.3c0.4-0.8,1.2-0.6,1.5,0.1c7.2,23.1-8.2,48.3-8.2,48.3
						C1059.5,233.7,1064.6,219.7,1066.8,215.3z"/>
				</g>
			</g>
			<g>
				<g>
					<g>
						<path class="st1" d="M1066.1,231.4c-0.5,3.5-1.1,8.3-2,13.6s-1.7,10.1-2.5,13.4c-0.7,3.5-1.4,5.4-1.5,5.4s0.2-2.1,0.9-5.6
							c0.6-3.9,1.4-8.4,2.2-13.4c0.9-5,1.6-9.6,2.2-13.4c0.6-3.5,1-5.6,1.1-5.6C1066.8,225.8,1066.6,228,1066.1,231.4z"/>
					</g>
				</g>
			</g>
		</g>
		<g>
			<g>
				<g>
					<path class="st1" d="M1067,310.9c0.6-0.4,1.2,0.1,1.2,1c-1.2,24.9-23.6,38.6-23.6,38.6C1054.4,323.3,1063.6,313.7,1067,310.9z"
						/>
				</g>
			</g>
			<g>
				<g>
					<g>
						<path class="st1" d="M1061.1,325.1c-1.6,2.8-3.9,6.7-6.4,11s-4.9,8-6.7,10.6c-1.7,2.6-3,4.1-3.1,4s0.9-1.8,2.6-4.5
							c2-3.1,4.1-6.7,6.6-10.7c2.4-4.1,4.6-7.7,6.5-10.8c1.7-2.7,2.7-4.4,2.9-4.3C1063.5,320.3,1062.6,322.2,1061.1,325.1z"/>
					</g>
				</g>
			</g>
		</g>
		<g>
			<g>
				<g>
					<g>
						<path class="st1" d="M1000.3,224.6c0,0.5,0,1.3,0.1,2.1c0.1,1.9,0.2,4.5,0.5,7.7c0.4,6.8,0.9,16.4,1.5,27.9v-0.1
							c1.6,11.5,6.1,24.1,12.2,36.7c4.4,9.3,9.1,17.7,13.1,25.6c4.1,7.9,7.5,15.2,9.9,21.7c2.4,6.6,3.6,12.1,4.4,16
							c0.4,1.9,0.6,3.5,0.7,4.5s0.1,1.5,0.1,1.5c-0.1,0-0.2-0.5-0.4-1.5c-0.1-1-0.5-2.6-0.9-4.5c-0.7-3.9-2.2-9.3-4.6-15.7
							c-2.5-6.5-5.9-13.7-10-21.4c-4-7.7-8.7-16.1-13.2-25.4c-6.1-12.5-10.6-25.6-12.2-37.2l0,0l0,0c-0.4-11.4-0.9-21-1.1-27.9
							c-0.1-3.4-0.1-5.9-0.2-7.9c0-0.8,0-1.5,0-2.1c0-0.5,0-0.8,0-0.8S1000.2,224,1000.3,224.6z"/>
					</g>
				</g>
			</g>
			<g>
				<g>
					<g>
						<path class="st1" d="M1017.4,248.1c-0.1-0.9-1-1-1.4-0.4c-12,19.5-2.5,49.3-2.5,49.3C1020.4,268.4,1018.4,253.2,1017.4,248.1z
							"/>
					</g>
				</g>
				<g>
					<g>
						<g>
							<path class="st1" d="M1015.1,264c-0.2,3.9-0.5,8.5-0.7,13.7c-0.2,5-0.5,9.7-0.7,13.7c-0.1,3.5-0.2,5.7-0.4,5.7
								s-0.2-2.2-0.2-5.7c0-3.6,0.1-8.4,0.4-13.8c0.2-5.3,0.6-10.2,1-13.7s0.6-5.7,0.7-5.7C1015.2,258.2,1015.2,260.4,1015.1,264z"
								/>
						</g>
					</g>
				</g>
				<g class="st2">
					<g>
						<path class="st1" d="M1017.4,248.1c-0.1-0.9-1-1-1.4-0.4c-12,19.5-2.5,49.3-2.5,49.3C1020.4,268.4,1018.4,253.2,1017.4,248.1z
							"/>
					</g>
				</g>
			</g>
			<g>
				<g>
					<g>
						<path class="st1" d="M1049.7,320.4c-0.1-0.9-0.9-1.2-1.4-0.5c-13.1,18.2-5.5,48.9-5.5,48.9
							C1051.4,341.1,1050.4,325.6,1049.7,320.4z"/>
					</g>
				</g>
				<g>
					<g>
						<g>
							<path class="st1" d="M1046.4,335.9c-0.5,3.9-1,8.5-1.6,13.6c-0.5,5-1,9.7-1.5,13.6c-0.4,3.5-0.6,5.7-0.7,5.7
								s-0.1-2.2,0.1-5.7c0.1-3.5,0.6-8.4,1.2-13.7c0.6-5.3,1.4-10.1,1.9-13.6c0.6-3.5,1-5.6,1.1-5.6S1046.8,332.4,1046.4,335.9z"/>
						</g>
					</g>
				</g>
				<g class="st2">
					<g>
						<path class="st1" d="M1049.7,320.4c-0.1-0.9-0.9-1.2-1.4-0.5c-13.1,18.2-5.5,48.9-5.5,48.9
							C1051.4,341.1,1050.4,325.6,1049.7,320.4z"/>
					</g>
				</g>
			</g>
			<g>
				<g>
					<g>
						<path class="st1" d="M984.6,216.6c-0.5-0.6-1.2-0.3-1.4,0.6c-2,24.9,18.2,43.4,18.2,43.4C995.4,231.6,987.6,220.1,984.6,216.6
							z"/>
					</g>
				</g>
				<g class="st2">
					<g>
						<path class="st1" d="M984.6,216.6c-0.5-0.6-1.2-0.3-1.4,0.6c-2,24.9,18.2,43.4,18.2,43.4C995.4,231.6,987.6,220.1,984.6,216.6
							z"/>
					</g>
				</g>
				<g>
					<g>
						<g>
							<path class="st1" d="M989.1,231.5c1.4,3.5,3.1,7.6,5,12.1c1.9,4.4,3.5,8.5,5,12c1.2,3.1,2.1,4.9,2,5s-1.1-1.7-2.6-4.6
								c-1.4-3-3.2-7.1-5.2-11.9c-1.9-4.8-3.6-9-4.7-12.3c-1.1-3.2-1.7-5.2-1.6-5.3C986.9,226.6,987.8,228.4,989.1,231.5z"/>
						</g>
					</g>
				</g>
			</g>
			<g>
				<g>
					<g>
						<path class="st1" d="M1004.6,308.5c-0.6-0.3-1.2,0.6-1,1.4c6.5,23.5,30.9,28.4,30.9,28.4
							C1019.5,315.8,1008.5,310,1004.6,308.5z"/>
					</g>
				</g>
				<g class="st2">
					<g>
						<path class="st1" d="M1004.6,308.5c-0.6-0.3-1.2,0.6-1,1.4c6.5,23.5,30.9,28.4,30.9,28.4
							C1019.5,315.8,1008.5,310,1004.6,308.5z"/>
					</g>
				</g>
				<g>
					<g>
						<g>
							<path class="st1" d="M1013.8,319.2c2.5,2.3,5.4,5,8.6,8c3.2,3,6.1,5.6,8.6,7.9c2.2,1.9,3.6,3.2,3.5,3.4
								c0,0.1-1.5-0.9-3.9-2.7c-2.2-1.8-5.4-4.5-8.7-7.6c-3.4-3.1-6.4-6.1-8.5-8.3c-2.1-2.2-3.4-3.6-3.2-3.7
								C1010.1,316,1011.6,317.3,1013.8,319.2z"/>
						</g>
					</g>
				</g>
			</g>
		</g>
	</g>
	<g>
		<g>
			<polygon class="st3" points="1021.5,397.1 1015.6,459.5 1060,459.5 1052.9,397.1 			"/>
		</g>
	</g>
	<g>
		<g>
			<g>
				<path class="st4" d="M1037.5,442.4c9.9,0,17.8,0.3,17.8,0.6c0,0.4-8,0.6-17.8,0.6c-9.9,0-17.8-0.3-17.8-0.6
					C1019.7,442.7,1027.8,442.4,1037.5,442.4z"/>
			</g>
		</g>
	</g>
	<g>
		<g>
			<g>
				<path class="st4" d="M1038.2,425.6c10.2,0,18.5,0.3,18.5,0.6c0,0.4-8.2,0.6-18.5,0.6c-10.2,0-18.5-0.3-18.5-0.6
					C1019.8,426,1028.1,425.8,1038.2,425.6z"/>
			</g>
		</g>
	</g>
	<g>
		<g>
			<g>
				<g>
					<path class="st0" d="M547.8,254.7L547.2,82c0-8.3,5.7-15.1,13-15.1l59.9-0.3c7.2,0,13.1,6.7,13.1,15l0.6,172.6
						c0,8.3-5.7,15.1-13,15.1l-59.9,0.3C553.6,269.7,547.8,263,547.8,254.7z"/>
				</g>
			</g>
			<g>
				<g>
					<path class="st5" d="M550.9,83.7l0.6,168.4c0.1,5.8,4.2,10.5,9.2,10.5l59.7-0.3c5.1,0,9.1-4.8,9.1-10.6L629,83.3
						c-0.1-5.8-4.2-10.5-9.2-10.5h-10.1h-4.1c-1.5,0-2.7,1.5-2.7,3.4v2.5c0.1,1.8-1.2,3.4-2.7,3.4l-22.6,0.1c-1.6,0-2.9-1.5-2.9-3.4
						v-2.5c0-1.8-1.4-3.4-2.9-3.4h-11.6C555.1,73,551,77.8,550.9,83.7z"/>
				</g>
			</g>
		</g>
	</g>
	<g>
		<rect x="561.1" y="187.6" class="st0" width="59.1" height="4.5"/>
	</g>
	<g>
		<g>
			<path class="st0" d="M591.4,205.3c15.6,0,28.2,0.1,28.2,0.3c0,0.1-12.6,0.3-28.2,0.3s-28.2-0.1-28.2-0.3
				C563.2,205.4,575.8,205.3,591.4,205.3z"/>
		</g>
	</g>
	<g>
		<g>
			<path class="st0" d="M591.4,213.7c15.6,0,28.2,0.1,28.2,0.3c0,0.1-12.6,0.3-28.2,0.3s-28.2-0.1-28.2-0.3
				C563.2,213.7,575.8,213.5,591.4,213.7z"/>
		</g>
	</g>
	<g>
		<g>
			<path class="st0" d="M592.7,228c15.6,0,28.2,0.1,28.2,0.3c0,0.1-12.6,0.3-28.2,0.3c-15.6,0-28.2-0.1-28.2-0.3
				S577.1,228,592.7,228z"/>
		</g>
	</g>
	<g>
		<g>
			<path class="st0" d="M591.9,237.4c15.6,0,28.2,0.1,28.2,0.3c0,0.1-12.6,0.3-28.2,0.3c-15.6,0-28.2-0.1-28.2-0.3
				C563.8,237.5,576.3,237.4,591.9,237.4z"/>
		</g>
	</g>
	<g>
		<g>
			<g>
				<rect x="560.4" y="106.8" class="st6" width="59.2" height="66.1"/>
			</g>
		</g>
	</g>
	<g>
		<g>
			<g>
				<polygon class="st7" points="565,167.3 577.1,143.5 585.2,155.1 598.7,133.3 615,167.3 				"/>
			</g>
		</g>
	</g>
	<g>
		<g>
			<g>
				<path class="st8" d="M583.7,121.8c2.4,0,4.2,2.2,4.2,4.9s-1.9,4.9-4.2,4.9c-2.4,0-4.2-2.2-4.2-4.9S581.5,121.8,583.7,121.8z"/>
			</g>
		</g>
	</g>
	<g>
		<g>
			<g>
				<g>
					<path class="st0" d="M564.9,167.3c0-0.3,0-0.5,0-0.8c0-0.8,0-1.7,0-3c-0.1-2.7-0.1-6.5-0.1-11.2c0-9.7-0.1-23.5-0.1-40.1V112
						h0.2c14.5,0,31.7,0,50,0c-0.1,0,0.5,0.6,0.2,0.4l0,0l0,0l0,0v0.1v0.3v0.5v0.9v1.9c0,1.3,0,2.5,0,3.7c0,2.5,0,4.9,0,7.4
						c0,4.8,0,9.6,0,14.2c0,9.3,0,18.1,0,26.1v0.3h-0.2c-15,0-27.4-0.1-36.3-0.1c-4.2-0.1-7.7-0.1-10.1-0.1c-1.1,0-2,0-2.6,0
						c-0.2,0-0.5,0-0.6,0s-0.2,0-0.2,0s0,0,0.1,0c0.2,0,0.5,0,0.7,0c0.6,0,1.6,0,2.7,0c2.4-0.1,5.9-0.1,10.2-0.1
						c8.7,0,21.2-0.1,36.2-0.1l-0.2,0.3c0-8,0-16.8,0-26.1c0-4.5,0-9.3,0-14.2c0-2.5,0-4.9,0-7.4c0-1.3,0-2.5,0-3.7v-1.9v-0.9V113
						v-0.3v-0.1l0,0l0,0l0,0c-0.2-0.4,0.4,0.4,0.2,0.3c-18.3,0-35.5,0-50,0l0.2-0.3c0,16.5-0.1,30.2-0.1,39.9
						c-0.1,4.8-0.1,8.6-0.1,11.2c0,1.3,0,2.3,0,3c0,0.4,0,0.5,0,0.8c0,0.1,0,0.3,0,0.3S565,167.5,564.9,167.3z"/>
				</g>
			</g>
		</g>
	</g>
	<g>
		<g>
			<path class="st0" d="M676.1,22h193.7c7.9,0,14.3,6.6,14.3,14.8v149.1c0,8.1-6.4,14.8-14.3,14.8H676.1c-7.9,0-14.3-6.6-14.3-14.8
				V36.8C661.8,28.7,668.1,22,676.1,22z"/>
		</g>
		<g>
			<rect x="683.2" y="27.6" class="st5" width="185.8" height="167.7"/>
		</g>
		<g>
			<path class="st4" d="M678.9,111.4c0,3.7-2.7,6.8-6,6.8c-3.4,0-6-3.1-6-6.8c0-3.7,2.7-6.8,6-6.8S678.9,107.7,678.9,111.4z"/>
		</g>
		<g>
			<path class="st4" d="M876.7,84.5L876.7,84.5c0.7,0,1.2,0.6,1.2,1.3v51.4c0,0.8-0.6,1.3-1.2,1.3l0,0c-0.7,0-1.2-0.6-1.2-1.3V85.8
				C875.4,85.1,875.9,84.5,876.7,84.5z"/>
		</g>
	</g>
	<g>
		<rect x="802.1" y="118.7" class="st0" width="59.1" height="4.5"/>
	</g>
	<g>
		<g>
			<path class="st0" d="M747.6,57c20.3,0,36.8,0.1,36.8,0.3s-16.5,0.3-36.8,0.3s-36.8-0.1-36.8-0.3S727.3,57,747.6,57z"/>
		</g>
	</g>
	<g>
		<g>
			<path class="st0" d="M747.6,66.9c20.3,0,36.8,0.1,36.8,0.3c0,0.1-16.5,0.3-36.8,0.3s-36.8-0.1-36.8-0.3S727.3,66.9,747.6,66.9z"
				/>
		</g>
	</g>
	<g>
		<g>
			<path class="st0" d="M747.6,76.9c20.3,0,36.8,0.1,36.8,0.3s-16.5,0.3-36.8,0.3s-36.8-0.1-36.8-0.3S727.3,76.9,747.6,76.9z"/>
		</g>
	</g>
	<g>
		<g>
			<path class="st0" d="M747.6,86.8c20.3,0,36.8,0.1,36.8,0.3s-16.5,0.3-36.8,0.3s-36.8-0.1-36.8-0.3S727.3,86.8,747.6,86.8z"/>
		</g>
	</g>
	<g>
		<g>
			<path class="st0" d="M747.6,96.9c20.3,0,36.8,0.1,36.8,0.3c0,0.1-16.5,0.3-36.8,0.3s-36.8-0.1-36.8-0.3
				C710.8,96.9,727.3,96.7,747.6,96.9z"/>
		</g>
	</g>
	<g>
		<g>
			<path class="st0" d="M755.6,106.8c15.8,0,28.7,0.1,28.7,0.3c0,0.1-12.8,0.3-28.7,0.3c-15.8,0-28.7-0.1-28.7-0.3
				C726.9,106.8,739.7,106.7,755.6,106.8z"/>
		</g>
	</g>
	<g>
		<g>
			<path class="st0" d="M812.3,136.4c26.7,0,48.3,0.1,48.3,0.3c0,0.1-21.6,0.3-48.3,0.3c-26.6,0-48.1-0.1-48.1-0.3
				S785.8,136.4,812.3,136.4z"/>
		</g>
	</g>
	<g>
		<g>
			<path class="st0" d="M812.3,144.6c26.7,0,48.3,0.1,48.3,0.3c0,0.1-21.6,0.3-48.3,0.3c-26.6,0-48.1-0.1-48.1-0.3
				C764.2,144.7,785.8,144.6,812.3,144.6z"/>
		</g>
	</g>
	<g>
		<g>
			<path class="st0" d="M812.3,153c26.7,0,48.3,0.1,48.3,0.3c0,0.1-21.6,0.3-48.3,0.3c-26.6,0-48.1-0.1-48.1-0.3
				C764.2,153,785.8,152.9,812.3,153z"/>
		</g>
	</g>
	<g>
		<g>
			<path class="st0" d="M812.3,161.3c26.7,0,48.3,0.1,48.3,0.3c0,0.1-21.6,0.3-48.3,0.3c-26.6,0-48.1-0.1-48.1-0.3
				C764.2,161.4,785.8,161.3,812.3,161.3z"/>
		</g>
	</g>
	<g>
		<g>
			<path class="st0" d="M812.3,169.5c26.7,0,48.3,0.1,48.3,0.3c0,0.1-21.6,0.3-48.3,0.3c-26.6,0-48.1-0.1-48.1-0.3
				S785.8,169.5,812.3,169.5z"/>
		</g>
	</g>
	<g>
		<g>
			<g>
				<g>
					<rect x="801.3" y="37.9" class="st6" width="59.2" height="66.1"/>
				</g>
			</g>
		</g>
		<g>
			<g>
				<g>
					<polygon class="st9" points="806,98.4 818.1,74.5 826.2,86.1 839.6,64.3 856,98.4 					"/>
				</g>
			</g>
		</g>
		<g>
			<g>
				<g>
					<path class="st9" d="M824.8,52.8c2.4,0,4.2,2.2,4.2,4.9s-1.9,4.9-4.2,4.9s-4.2-2.2-4.2-4.9S822.4,52.8,824.8,52.8z"/>
				</g>
			</g>
		</g>
		<g>
			<g>
				<g>
					<g>
						<path class="st0" d="M805.8,98.4c0-0.3,0-0.5,0-0.8c0-0.8,0-1.7,0-3c-0.1-2.7-0.1-6.5-0.1-11.2c0-9.7-0.1-23.5-0.1-40.1V43
							h0.2c14.5,0,31.7,0,50,0c-0.1,0,0.5,0.6,0.2,0.4l0,0l0,0l0,0v0.1v0.3v0.5v0.9v1.9c0,1.3,0,2.5,0,3.7c0,2.5,0,4.9,0,7.4
							c0,4.8,0,9.6,0,14.2c0,9.3,0,18.1,0,26.1v0.3h-0.2c-15,0-27.4-0.1-36.3-0.1c-4.2-0.1-7.7-0.1-10.1-0.1c-1.1,0-2,0-2.6,0
							c-0.2,0-0.5,0-0.6,0s-0.2,0-0.2,0h0.1c0.2,0,0.5,0,0.7,0c0.6,0,1.6,0,2.7,0c2.4-0.1,5.9-0.1,10.2-0.1c8.7,0,21.2-0.1,36.2-0.1
							l-0.2,0.3c0-8,0-16.8,0-26.1c0-4.5,0-9.3,0-14.2c0-2.5,0-4.9,0-7.4c0-1.3,0-2.5,0-3.7v-1.9v-0.9V44v-0.3v-0.1l0,0l0,0l0,0
							c-0.2-0.4,0.4,0.4,0.2,0.3c-18.3,0-35.5,0-50,0l0.2-0.3c0,16.5-0.1,30.2-0.1,39.9c0,4.6,0,8.5,0,11c0,1.3,0,2.3,0,3
							c0,0.4,0,0.5,0,0.8c0,0.1,0,0.3,0,0.3S806,98.5,805.8,98.4z"/>
					</g>
				</g>
			</g>
		</g>
	</g>
	<g>
		<g>
			<g>
				<rect x="709.1" y="127.5" class="st6" width="41.9" height="46.9"/>
			</g>
		</g>
	</g>
	<g>
		<g>
			<g>
				<polygon class="st9" points="712.2,170.2 720.8,153.4 726.5,161.5 736,146.2 747.6,170.2 				"/>
			</g>
		</g>
	</g>
	<g>
		<g>
			<g>
				<path class="st9" d="M725.5,138c1.6,0,3,1.5,3,3.5s-1.4,3.5-3,3.5s-3-1.5-3-3.5S723.9,138,725.5,138z"/>
			</g>
		</g>
	</g>
	<g>
		<g>
			<g>
				<g>
					<path class="st0" d="M712,170.2c0-0.1,0-0.3,0-0.5c0-0.5,0-1.2,0-2.1c0-1.8,0-4.5,0-7.9c0-6.8-0.1-16.7-0.1-28.4V131h0.1
						c10.2,0,22.5,0,35.4,0c0,0,0.4,0.5,0.2,0.3l0,0l0,0l0,0v0.1v0.1v0.4v0.6v1.3c0,0.8,0,1.7,0,2.6c0,1.7,0,3.5,0,5.2
						c0,3.5,0,6.8,0,10.1c0,6.6,0,12.8,0,18.5v0.3h-0.1c-10.6-0.1-19.5-0.1-25.7-0.1c-3.1,0-5.6,0-7.2,0c-0.7,0-1.4,0-1.9,0
						c-0.2,0-0.4,0-0.5,0s-0.1,0-0.1,0s0.1,0,0.1-0.3c0.1,0,0.2,0,0.5,0c0.4,0,1,0,1.9,0c1.7,0,4.1,0,7.2,0c6.1,0,15-0.1,25.6-0.1
						l-0.1,0.3c0-5.7,0-11.9,0-18.5c0-3.2,0-6.6,0-10.1c0-1.7,0-3.4,0-5.2c0-0.8,0-1.7,0-2.6v-1.3V132v-0.4v-0.1v-0.1l0,0l0,0l0,0
						c-0.1-0.1,0.2,0.3,0.2,0.3c-13,0-25.2,0-35.4,0l0.1-0.3c-0.1,11.7-0.1,21.4-0.1,28.3c0,3.5,0,6.2,0,8c0,0.9,0,1.5,0,2.1
						c0,0.3,0,0.4,0,0.5v0.1C712.2,170.3,712.2,170.3,712,170.2z"/>
				</g>
			</g>
		</g>
	</g>
	<g>
		<g>
			<g>
				<path class="st4" d="M676.7,458.1V258.5c0-10.5,8.2-18.8,18.2-18.8h274.8c10.1,0,18.2,8.5,18.2,18.8v199.7
					c0,10.5-8.2,18.8-18.2,18.8H695C685,477,676.7,468.6,676.7,458.1z"/>
			</g>
			<g>
				<path class="st4" d="M663.9,459.4L663.9,459.4h337l0,0c0,11.5-9,20.8-20.1,20.8H684C672.9,480.2,663.9,470.9,663.9,459.4z"/>
			</g>
			<g>
				<rect x="686" y="249" class="st9" width="293.5" height="200.4"/>
			</g>
			<g>
				<polygon class="st0" points="796.1,459.4 800,467 858.8,467 863,459.4 				"/>
			</g>
		</g>
		<g>
			<rect x="699.6" y="262.5" class="st10" width="270.2" height="187"/>
		</g>
		<g>
			<path class="st0" d="M960.4,269c1.2,0,2.2,1.2,2.2,2.6s-1,2.6-2.2,2.6s-2.2-1.2-2.2-2.6C958.1,270.2,959.2,269,960.4,269z"/>
		</g>
		<g>
			<path class="st0" d="M951.1,269c1.2,0,2.2,1.2,2.2,2.6s-1,2.6-2.2,2.6s-2.2-1.2-2.2-2.6C948.9,270.2,949.9,269,951.1,269z"/>
		</g>
		<g>
			<path class="st0" d="M941.9,269c1.2,0,2.2,1.2,2.2,2.6s-1,2.6-2.2,2.6s-2.2-1.2-2.2-2.6S940.7,269,941.9,269z"/>
		</g>
		<g>
			<g>
				<path class="st0" d="M834.6,282.9c74.6,0,135.1,0.1,135.1,0.3c0,0.1-60.5,0.3-135.1,0.3s-135.1-0.1-135.1-0.3
					C699.6,282.9,760.1,282.7,834.6,282.9z"/>
			</g>
		</g>
		<g>
			<rect x="676.7" y="459.5" class="st0" width="311.1" height="1.2"/>
		</g>
	</g>
	<g>
		<rect x="888.4" y="374" class="st0" width="59.1" height="4.5"/>
	</g>
	<g>
		<rect x="812.1" y="310.6" class="st0" width="59.1" height="4.5"/>
	</g>
	<g>
		<g>
			<path class="st0" d="M797.7,327.4c40.5,0,73.5,0.1,73.5,0.3c0,0.1-32.8,0.3-73.5,0.3c-40.5,0-73.5-0.1-73.5-0.3
				C724.3,327.4,757.2,327.3,797.7,327.4z"/>
		</g>
	</g>
	<g>
		<g>
			<path class="st0" d="M797.7,337.3c40.5,0,73.5,0.1,73.5,0.3c0,0.1-32.8,0.3-73.5,0.3c-40.5,0-73.5-0.1-73.5-0.3
				C724.3,337.3,757.2,337.2,797.7,337.3z"/>
		</g>
	</g>
	<g>
		<g>
			<path class="st0" d="M797.7,347.3c40.5,0,73.5,0.1,73.5,0.3c0,0.1-32.8,0.3-73.5,0.3c-40.5,0-73.5-0.1-73.5-0.3
				C724.3,347.4,757.2,347.3,797.7,347.3z"/>
		</g>
	</g>
	<g>
		<g>
			<path class="st0" d="M797.7,357.2c40.5,0,73.5,0.1,73.5,0.3c0,0.1-32.8,0.3-73.5,0.3c-40.5,0-73.5-0.1-73.5-0.3
				C724.3,357.3,757.2,357.2,797.7,357.2z"/>
		</g>
	</g>
	<g>
		<g>
			<path class="st0" d="M797.7,367.1c40.5,0,73.5,0.1,73.5,0.3s-32.8,0.3-73.5,0.3c-40.5,0-73.5-0.1-73.5-0.3
				S757.2,367.1,797.7,367.1z"/>
		</g>
	</g>
	<g>
		<g>
			<path class="st0" d="M842.5,377.1c15.8,0,28.7,0.1,28.7,0.3c0,0.1-12.8,0.3-28.7,0.3s-28.7-0.1-28.7-0.3S826.7,377.1,842.5,377.1
				z"/>
		</g>
	</g>
	<g>
		<g>
			<path class="st0" d="M773.5,396.4c26.7,0,48.3,0.1,48.3,0.3c0,0.1-21.6,0.3-48.3,0.3s-48.3-0.1-48.3-0.3S747,396.4,773.5,396.4z"
				/>
		</g>
	</g>
	<g>
		<g>
			<path class="st0" d="M773.5,407c26.7,0,48.3,0.1,48.3,0.3c0,0.1-21.6,0.3-48.3,0.3s-48.3-0.1-48.3-0.3
				C725.3,407.1,747,407,773.5,407z"/>
		</g>
	</g>
	<g>
		<g>
			<path class="st0" d="M773.5,417.6c26.7,0,48.3,0.1,48.3,0.3c0,0.1-21.6,0.3-48.3,0.3s-48.3-0.1-48.3-0.3
				C725.3,417.7,747,417.6,773.5,417.6z"/>
		</g>
	</g>
	<g>
		<g>
			<path class="st0" d="M773.5,428.2c26.7,0,48.3,0.1,48.3,0.3s-21.6,0.3-48.3,0.3s-48.3-0.1-48.3-0.3S747,428.2,773.5,428.2z"/>
		</g>
	</g>
	<g>
		<g>
			<path class="st0" d="M917.1,395.4c16,0,28.8,0.1,28.8,0.3c0,0.1-12.8,0.3-28.8,0.3s-28.8-0.1-28.8-0.3S901.3,395.4,917.1,395.4z"
				/>
		</g>
	</g>
	<g>
		<g>
			<path class="st0" d="M917.1,403.8c16,0,28.8,0.1,28.8,0.3c0,0.1-12.8,0.3-28.8,0.3s-28.8-0.1-28.8-0.3
				C888.3,403.8,901.3,403.7,917.1,403.8z"/>
		</g>
	</g>
	<g>
		<g>
			<path class="st0" d="M917.1,412.1c16,0,28.8,0.1,28.8,0.3c0,0.1-12.8,0.3-28.8,0.3s-28.8-0.1-28.8-0.3S901.3,412.1,917.1,412.1z"
				/>
		</g>
	</g>
	<g>
		<g>
			<path class="st0" d="M917.1,420.3c16,0,28.8,0.1,28.8,0.3s-12.8,0.3-28.8,0.3s-28.8-0.1-28.8-0.3S901.3,420.3,917.1,420.3z"/>
		</g>
	</g>
	<g>
		<g>
			<path class="st0" d="M917.1,428.7c16,0,28.8,0.1,28.8,0.3c0,0.1-12.8,0.3-28.8,0.3s-28.8-0.1-28.8-0.3
				C888.3,428.7,901.3,428.6,917.1,428.7z"/>
		</g>
	</g>
	<g>
		<g>
			<g>
				<rect x="888.3" y="295.8" class="st6" width="59.2" height="66.1"/>
			</g>
		</g>
	</g>
	<g>
		<g>
			<g>
				<polygon class="st11" points="892.9,356.2 905,332.3 913.2,343.9 926.6,322.1 943,356.2 				"/>
			</g>
		</g>
	</g>
	<g>
		<g>
			<g>
				<path class="st12" d="M911.7,310.6c2.4,0,4.2,2.2,4.2,4.9c0,2.7-1.9,4.9-4.2,4.9s-4.2-2.2-4.2-4.9
					C907.5,312.8,909.4,310.6,911.7,310.6z"/>
			</g>
		</g>
	</g>
	<g>
		<g>
			<g>
				<g>
					<path class="st6" d="M892.8,356.2c0-0.3,0-0.5,0-0.8c0-0.8,0-1.7,0-3c-0.1-2.7-0.1-6.5-0.1-11.2c0-9.7-0.1-23.5-0.1-40.1v-0.3
						h0.2c14.5,0,31.7,0,50,0c-0.1,0,0.5,0.6,0.2,0.4l0,0l0,0l0,0v0.1v0.3v0.5v0.9v1.9c0,1.3,0,2.5,0,3.7c0,2.5,0,4.9,0,7.4
						c0,4.8,0,9.6,0,14.2c0,9.3,0,18.1,0,26.1v0.3h-0.2c-15,0-27.4-0.1-36.3-0.1c-4.2-0.1-7.7-0.1-10.1-0.1c-1.1,0-2,0-2.6,0
						c-0.2,0-0.5,0-0.6,0s-0.2,0-0.2,0h0.1c0.2,0,0.5,0,0.7,0c0.6,0,1.6,0,2.7,0c2.4-0.1,5.9-0.1,10.2-0.1c8.7,0,21.2-0.1,36.2-0.1
						l-0.2,0.3c0-8,0-16.8,0-26.1c0-4.5,0-9.3,0-14.2c0-2.5,0-4.9,0-7.4c0-1.3,0-2.5,0-3.7V303v-0.9v-0.5v-0.3v-0.1l0,0l0,0l0,0
						c-0.2-0.4,0.4,0.4,0.2,0.3c-18.3,0-35.5,0-50,0l0.2-0.3c0,16.5-0.1,30.2-0.1,39.9c-0.1,4.8-0.1,8.6-0.1,11.2c0,1.3,0,2.3,0,3
						c0,0.4,0,0.5,0,0.8c0,0.1,0,0.3,0,0.3S892.9,356.3,892.8,356.2z"/>
				</g>
			</g>
		</g>
	</g>
	<g>
		<g>
			<g>
				<g>
					<rect x="829.4" y="391.7" class="st6" width="41.9" height="46.9"/>
				</g>
			</g>
		</g>
		<g>
			<g>
				<g>
					<polygon class="st6" points="832.5,434.5 841.1,417.6 846.9,425.7 856.5,410.4 868.1,434.5 					"/>
				</g>
			</g>
		</g>
		<g>
			<g>
				<g>
					<path class="st6" d="M845.9,402.2c1.6,0,3,1.5,3,3.5s-1.4,3.5-3,3.5s-3-1.5-3-3.5S844.3,402.2,845.9,402.2z"/>
				</g>
			</g>
		</g>
		<g>
			<g>
				<g>
					<g>
						<path class="st6" d="M832.4,434.5c0-0.1,0-0.3,0-0.5c0-0.5,0-1.2,0-2.1c0-1.8,0-4.5,0-7.9c0-6.8-0.1-16.7-0.1-28.4v-0.3h0.1
							c10.2,0,22.5,0,35.4,0c0,0,0.4,0.5,0.2,0.3l0,0l0,0l0,0v0.1v0.1v0.4v0.6v1.3c0,0.8,0,1.7,0,2.6c0,1.7,0,3.5,0,5.2
							c0,3.5,0,6.8,0,10.1c0,6.6,0,12.8,0,18.5v0.3h-0.1c-10.6-0.1-19.5-0.1-25.7-0.1c-3.1,0-5.6,0-7.2,0c-0.7,0-1.4,0-1.9,0
							c-0.2,0-0.4,0-0.5,0s-0.1,0-0.1,0c0.1,0,0.1,0,0.1-0.3c0.1,0,0.2,0,0.5,0c0.4,0,1,0,1.9,0c1.7,0,4.1,0,7.2,0
							c6.1,0,15-0.1,25.6-0.1l-0.1,0.3c0-5.7,0-11.9,0-18.5c0-3.2,0-6.6,0-10.1c0-1.7,0-3.4,0-5.2c0-0.8,0-1.7,0-2.6V397v-0.6V396
							v-0.1v-0.1l0,0l0,0l0,0c-0.1-0.1,0.2,0.3,0.2,0.3c-13,0-25.2,0-35.4,0l0.1-0.3c-0.1,11.7-0.1,21.4-0.1,28.3c0,3.5,0,6.2,0,8
							c0,0.9,0,1.5,0,2.1c0,0.3,0,0.4,0,0.5v0.1C832.5,434.6,832.5,434.5,832.4,434.5z"/>
					</g>
				</g>
			</g>
		</g>
	</g>
	<g>
		<g>
			<g>
				<path class="st13" d="M473.1,446.6c-0.6,4.1,2.9,28.1,3.7,34.1l0.2,1.3l14.5-2.2l-2.4-21.4l-10,1.4
					C479.2,459.8,473.7,442.1,473.1,446.6z"/>
			</g>
		</g>
		<g>
			<g>
				<g>
					<path class="st13" d="M475.9,463.2c1,9.8,1.6,17.9,1.5,17.9s-1.1-8-2.1-17.9c-1-9.8-1.6-17.9-1.5-17.9
						C474.1,445.2,475.1,453.2,475.9,463.2z"/>
				</g>
			</g>
		</g>
		<g>
			<g>
				<g>
					<path class="st13" d="M477.8,457.7c0.5-0.5,0.9-0.9,1-0.8s0,0.8-0.5,1.3c-0.5,0.6-1,0.8-1.1,0.6
						C477.1,458.6,477.4,458.3,477.8,457.7z"/>
				</g>
			</g>
		</g>
		<g>
			<g>
				<g>
					<path class="st13" d="M477.2,456.5c0.5-0.4,1-0.8,1.1-0.6s-0.1,0.8-0.7,1.3s-1.1,0.6-1.2,0.5
						C476.3,457.4,476.7,457,477.2,456.5z"/>
				</g>
			</g>
		</g>
		<g>
			<g>
				<g>
					<path class="st13" d="M478.1,474.9c0.5,0.4,1.4,0.9,2,1.7c0.6,0.8,1,1.8,1,2.6c0,0.8-0.1,1.2-0.2,1.2s-0.1-0.4-0.2-1
						c-0.2-0.6-0.5-1.4-1.1-2.2c-0.6-0.8-1.2-1.3-1.7-1.7c-0.5-0.4-0.7-0.6-0.7-0.8C477.1,474.5,477.4,474.7,478.1,474.9z"/>
				</g>
			</g>
		</g>
		<g>
			<g>
				<g>
					<path class="st13" d="M479.1,459.7c-0.1,0.5-0.4,1-0.5,1s-0.2-0.5-0.1-1.2c0.1-0.6,0.5-1.2,0.6-1
						C479.2,458.6,479.2,459.2,479.1,459.7z"/>
				</g>
			</g>
		</g>
		<g>
			<g>
				<g>
					<path class="st13" d="M480.4,460.1c0,0.6-0.1,1.3-0.2,1.3s-0.2-0.5-0.4-1.3c0-0.6,0.1-1.3,0.2-1.3
						C480.2,458.8,480.4,459.3,480.4,460.1z"/>
				</g>
			</g>
		</g>
	</g>
	<g>
		<polygon class="st4" points="481.3,456.3 547.9,445.7 624,450 654.3,478.1 540.3,475.3 485.3,481.6 		"/>
	</g>
	<g>
		<g>
			<path class="st0" d="M602.2,463.8c13.2,0,23.9,0.1,23.9,0.3c0,0.1-10.7,0.3-23.9,0.3s-23.9-0.1-23.9-0.3
				C578.2,463.9,588.9,463.8,602.2,463.8z"/>
		</g>
	</g>
	<g>
		<polygon points="577.8,447.4 572.1,476.1 579.6,476.1 583.6,447.7 		"/>
	</g>
	<g>
		<g>
			<g>
				<path class="st13" d="M542,480.6c3.2,1.5,24.4,3.2,29.6,3.5h1.1l1.5-16.8l-18.6-2.3l-1.1,11.5
					C554.5,476.5,538.3,478.7,542,480.6z"/>
			</g>
		</g>
		<g>
			<g>
				<g>
					<path class="st13" d="M557.3,481.1c8.5,1,15.5,2.1,15.5,2.3c0,0.1-7-0.5-15.6-1.7c-8.5-1-15.5-2.1-15.5-2.3
						S548.7,479.9,557.3,481.1z"/>
				</g>
			</g>
		</g>
		<g>
			<g>
				<g>
					<path class="st13" d="M553.3,477.7c-0.2-0.6-0.5-1.2-0.4-1.3c0.1-0.1,0.5,0.3,0.9,0.9s0.4,1.3,0.2,1.4
						C553.8,478.9,553.5,478.4,553.3,477.7z"/>
				</g>
			</g>
		</g>
		<g>
			<g>
				<g>
					<path class="st13" d="M551.9,478.1c-0.2-0.6-0.4-1.3-0.2-1.4c0.1-0.1,0.6,0.4,0.9,1.2c0.2,0.8,0.2,1.5,0.1,1.5
						C552.5,479.4,552.3,478.9,551.9,478.1z"/>
				</g>
			</g>
		</g>
		<g>
			<g>
				<g>
					<path class="st13" d="M567.9,481.6c0.4-0.6,1-1.4,1.9-1.9s1.9-0.6,2.5-0.5s0.9,0.4,0.9,0.5c-0.1,0.1-0.4,0-1,0
						s-1.4,0.1-2.1,0.6c-0.7,0.5-1.4,1.2-1.9,1.5c-0.5,0.4-0.7,0.8-0.9,0.6C567.1,482.5,567.4,482.1,567.9,481.6z"/>
				</g>
			</g>
		</g>
		<g>
			<g>
				<g>
					<path class="st13" d="M555.1,476.8c0.5,0.3,0.7,0.5,0.7,0.8c0,0.1-0.5,0.1-1-0.1c-0.6-0.3-0.9-0.8-0.7-0.9
						C554.3,476.5,554.6,476.6,555.1,476.8z"/>
				</g>
			</g>
		</g>
		<g>
			<g>
				<g>
					<path class="st13" d="M555.6,475.3c0.6,0.1,1.1,0.3,1.1,0.5c0,0.3-0.5,0.4-1.1,0.3s-1.1-0.3-1.1-0.5
						C554.5,475.3,555,475.2,555.6,475.3z"/>
				</g>
			</g>
		</g>
	</g>
	<g>
		<g>
			<path class="st14" d="M664,304l-1-0.8c-6.9-5.3-15.8-5.9-23.2-1.7l0,0c0,0-0.2,17.4,0.2,25c0.5,7.5,7.1,8.3,7.1,8.3
				s0.2,8.3,0.5,10.3l15.8,0.4L664,304z"/>
		</g>
		<g>
			<g>
				<path class="st15" d="M640.6,314.3c-0.4-0.4-0.4-1.2,0-1.5c0.4-0.4,1-0.4,1.4,0s0.4,1.2,0,1.5
					C641.6,314.9,641,314.9,640.6,314.3z"/>
			</g>
			<g>
				<g>
					<path class="st15" d="M640.6,312.3c0.2-0.3,0.6-0.6,1.2-0.6c0.6,0,1.1,0.1,1.4,0.4c0.2,0.3,0.4,0.5,0.4,0.5
						c-0.1,0.1-0.9-0.4-1.7-0.3c-0.9,0-1.5,0.6-1.6,0.5C640.2,312.7,640.3,312.5,640.6,312.3z"/>
				</g>
			</g>
		</g>
		<g>
			<g>
				<path d="M652.2,313.2c0.2,0.5,0.1,1.2-0.2,1.5c-0.5,0.4-1.1,0.3-1.4-0.3s-0.1-1.2,0.2-1.5S651.8,312.7,652.2,313.2z"/>
			</g>
			<g>
				<g>
					<path d="M650.6,312.5c0.2-0.3,0.6-0.6,1.2-0.6c0.6,0,1.1,0.1,1.4,0.4c0.2,0.3,0.4,0.5,0.4,0.5c-0.1,0.1-0.9-0.4-1.7-0.3
						c-0.9,0-1.5,0.6-1.6,0.5C650.1,312.9,650.2,312.7,650.6,312.5z"/>
				</g>
			</g>
		</g>
		<g>
			<g>
				<path class="st16" d="M645.2,322c-0.1,0-0.2,0-0.4,0s-0.2-0.1-0.4-0.4c-0.1-0.5,0-0.9,0.1-1.2c0.2-0.8,0.4-1.4,0.6-2.2
					c0.9-3.1,1.6-5.6,1.7-5.6c0.1,0-0.4,2.6-1.2,5.7c-0.2,0.8-0.4,1.5-0.6,2.2c-0.1,0.3-0.1,0.6-0.1,0.8c0.1,0.3,0.2,0.3,0.5,0.3
					c0.9,0.1,1.5,0.1,1.5,0.3C646.9,322,646.4,322.1,645.2,322z"/>
			</g>
		</g>
		<g>
			<path class="st17" d="M648.6,325.6c-1.9,1-3-0.9-3-0.9c1.9,0,5.2-2.6,4.4-1.8C649.9,322.9,650.6,324.7,648.6,325.6z"/>
		</g>
		<g>
			<path class="st17" d="M647.3,336.7c6.6,0.1,8.4-5.4,8.4-5.4c-4.2,3.6-8.5,3.5-8.5,3.5L647.3,336.7z"/>
		</g>
	</g>
	<g>
		<path class="st18" d="M637.2,300.8c-0.1,1.3,0.5,2.6,1.5,3.4c1,0.6,2.1,0.9,3.2,1c7,1.2,11.7-3.5,15.3-3.9
			c3.5-0.4,3.2,4.4,3.2,4.4l-0.2,11.4l3,0.1l0.7-5.4c0,0,0.2-0.4,0.6-1.5l0,0c0.5-1.9,1.2-4,1.2-6.1c0-2.2-0.7-4.4-2.1-5.7
			c-1.7-1.5-4.1-1.4-6.2-1.2c0.1-2.1-0.7-3.9-2.1-5.2c-1.4-1.3-3-1.8-4.7-1.9c-1.6-0.1-3.1,0.3-4.6-0.4c-1.5-0.5-2.6-1.9-4-2.6
			c-1-0.4-2.1-0.5-2.9,0.3s-0.9,2.2-0.5,3.2s1.1,1.9,1.9,2.7c-1.2-0.9-3.2,0-3.6,1.7c-0.5,1.7,0.7,3.6,2.2,3.6
			C638.1,298.5,637.1,299.6,637.2,300.8z"/>
	</g>
	<g>
		<g>
			<path class="st19" d="M661.2,320c0,0.1,5.5,2.8,6-3.6c0.4-6.5-4.4-5.7-4.5-5.7C662.7,310.7,661.2,319.8,661.2,320z"/>
		</g>
		<g>
			<g>
				<path class="st20" d="M663.3,318c0.1,0.1,0.5,0.4,0.9,0.3c0.9-0.3,1.5-1.4,1.6-2.7c0-0.6-0.1-1.3-0.2-1.8c-0.2-0.5-0.6-0.9-1-1
					c-0.1,0-0.4,0-0.5,0.1s-0.2,0.3-0.2,0.4c-0.1,0.3,0,0.4,0,0.4c0.1,0,0-0.1,0.1-0.3c0.1-0.1,0.4-0.4,0.6-0.3
					c0.2,0,0.5,0.4,0.6,0.9s0.1,1,0.1,1.7c-0.1,1.2-0.6,2.2-1.2,2.5C663.7,318.1,663.4,318.1,663.3,318c-0.1,0-0.2-0.1-0.2-0.1
					S663,318.1,663.3,318z"/>
			</g>
		</g>
	</g>
	<g>
		<path class="st0" d="M636,423c-55.3-50.2-61.7-51-68.7-42.3c-6.2,7.7-16.2,93.2-16.2,93.2l25.6,1.5l8.1-57.4
			c0,0,21.7,25.4,49.1,54.5c21.5,22.7,39.5-8.5,42.5-13.7L636,423z"/>
	</g>
	<g>
		<polygon class="st21" points="577,361.3 555.8,339.1 557.3,337.2 578.6,359.1 		"/>
	</g>
	<g>
		<path class="st14" d="M569.5,372.7c0,0-3.2-3.9-5.5-8c-2-3.7,1.6-16.3,1.6-16.3l4.6,3.7c0,0,4.7,3.7,2.6-2.3
			c-2.1-6.1-0.5-6.5,0-6.3c0.4,0.1,1.6,3.6,2.4,5.7c0.6,2.1,3.9,11.6,3.9,11.6L569.5,372.7z"/>
	</g>
	<g>
		<path class="st22" d="M567.4,374.5c0,0,39,40.5,50.1,42.5c4.5,0.8,7.1-1.3,15.6-11.2l1.2,17.6l40.5,38.6c2.2,0.8,3.4-5,3.9-10.6
			c0.5-4.8,0.5-9.6,0.2-14.3l-1.4-22.5c-3.4-33.2-3.5-50.3-9.7-65.7c-3.7-9.2-17.7-10.7-22.8-3.2c-8,11.5-11.6,18.2-11.6,18.2
			l-17.7,26.6c-6.1-1-36.4-32-36.9-30.7C578.5,360.9,567.4,374.5,567.4,374.5z"/>
	</g>
	<g>
		<g>
			<path class="st4" d="M574.5,378c1.2-1.3,2.9-3.2,4.5-5.6c1.7-2.3,3.1-4.5,4.1-6.1c1-1.7,1.5-2.6,1.6-2.6c0,0.1-0.5,1.2-1.4,2.8
				c-0.9,1.7-2.2,3.9-4,6.2c-1.6,2.3-3.4,4.3-4.6,5.6c-1.2,1.3-2.1,1.9-2.1,1.9C572.6,380.2,573.4,379.4,574.5,378z"/>
		</g>
	</g>
	<g>
		<g>
			<path class="st4" d="M616.4,395.8c-0.4-2.8-0.6-5.3-0.5-5.3c0.2-0.1,0.6,2.2,1.1,5.2c0.4,2.8,0.6,5.3,0.5,5.3
				C617.3,401,616.9,398.6,616.4,395.8z"/>
		</g>
	</g>
	<g>
		<g>
			<path class="st4" d="M614.5,395c0.6-2.5,1.2-4.5,1.4-4.5c0.1,0.1-0.2,2.2-0.9,4.8c-0.6,2.5-1.2,4.5-1.4,4.5
				C613.5,399.8,613.9,397.7,614.5,395z"/>
		</g>
	</g>
	<g>
		<g>
			<path class="st4" d="M656.5,370c-0.5,1-1.4,2.5-2.5,4.3c-2.1,3.6-5.2,8.4-8.7,13.7c-3.5,5.3-6.7,9.9-9.1,13.3
				c-1.2,1.7-2.2,3.1-2.9,4s-1.1,1.4-1.1,1.4s0.4-0.5,1-1.5c0.7-1,1.6-2.5,2.7-4.1c2.4-3.5,5.5-8.3,9-13.4
				c3.5-5.3,6.6-10.1,8.9-13.6C654.8,372.4,655.8,371,656.5,370c0.5-0.9,0.9-1.4,0.9-1.4S657.2,369.1,656.5,370z"/>
		</g>
	</g>
	<g>
		<g>
			<path class="st4" d="M665,388.2c1.5-1.5,2.7-2.7,2.9-2.6c0.1,0.1-1,1.4-2.5,3c-1.5,1.5-2.7,2.7-2.9,2.6
				C662.5,391,663.7,389.6,665,388.2z"/>
		</g>
	</g>
	<g>
		<g>
			<path class="st4" d="M668.3,407.3c1.1,1.9,1.9,3.5,1.7,3.6c-0.1,0.1-1.1-1.3-2.2-3.2s-1.9-3.5-1.7-3.6
				C666.1,403.9,667.1,405.3,668.3,407.3z"/>
		</g>
	</g>
	<g>
		<g>
			<path class="st4" d="M662.8,419c1-1.4,1.9-2.5,2-2.3c0.1,0.1-0.6,1.3-1.6,2.7c-1,1.4-1.9,2.5-2,2.3
				C661,421.7,661.8,420.4,662.8,419z"/>
		</g>
	</g>
	<g>
		<g>
			<path class="st4" d="M673.1,434.8c1.4,1,2.4,1.9,2.2,2.1c-0.1,0.1-1.2-0.5-2.5-1.5c-1.4-1-2.4-1.9-2.2-2.1
				C670.8,433.1,671.9,433.7,673.1,434.8z"/>
		</g>
	</g>
	<g>
		<g>
			<path class="st4" d="M659.7,433.3c1.1-1.5,1.9-3.1,2-3c0.1,0-0.4,1.7-1.6,3.4c-1.2,1.7-2.5,2.6-2.6,2.5
				C657.3,436.1,658.5,435,659.7,433.3z"/>
		</g>
	</g>
	<g>
		<g>
			<path class="st4" d="M647.9,427.9c1.5,1.4,2.6,2.7,2.5,2.8c-0.1,0.1-1.4-1-2.9-2.5c-1.5-1.4-2.6-2.7-2.5-2.8
				C645.2,425.3,646.4,426.4,647.9,427.9z"/>
		</g>
	</g>
	<g>
		<g>
			<path class="st4" d="M672.3,444.1c1-1.2,1.7-2.3,1.9-2.2c0.1,0-0.4,1.3-1.5,2.6c-1.1,1.3-2.1,1.9-2.2,1.8
				C670.4,446.1,671.3,445.2,672.3,444.1z"/>
		</g>
	</g>
	<g>
		<g>
			<path class="st4" d="M645.8,415.9c1.5,0.4,2.7,0.6,2.7,0.8s-1.2,0.1-2.9-0.3c-1.6-0.4-2.7-1-2.7-1.2S644.2,415.5,645.8,415.9z"/>
		</g>
	</g>
	<g>
		<g>
			<path class="st4" d="M653.5,407.3c0.5,1.9,0.7,3.6,0.7,4h-0.1c0-0.1,0-0.1,0-0.1c0.1,0,0.1,0,0.1,0.1h-0.1
				c-0.1-0.4-0.6-1.9-1.1-3.9c-0.6-2.3-1.1-4.1-1-4.1C652.2,403.1,652.9,404.8,653.5,407.3z"/>
		</g>
	</g>
	<g>
		<g>
			<path class="st4" d="M650.8,392.9c1.6-1.3,2.9-2.2,3-2.1s-1.1,1.3-2.6,2.6c-1.6,1.3-2.9,2.2-3,2.1
				C648.2,395.4,649.3,394.2,650.8,392.9z"/>
		</g>
	</g>
	<g>
		<g>
			<path class="st4" d="M658,381.5c0.9,1.5,1.7,2.8,1.6,3c-0.1,0.1-1.1-1-2.1-2.6c-1-1.5-1.6-3-1.5-3.1
				C656.2,378.6,657,379.9,658,381.5z"/>
		</g>
	</g>
	<g>
		<g>
			<path class="st4" d="M667.8,372.6c-0.1-2.1-0.1-3.9,0-3.9s0.4,1.8,0.5,3.9s0.1,3.9,0,3.9C668,376.4,667.9,374.8,667.8,372.6z"/>
		</g>
	</g>
	<g>
		<g>
			<path class="st4" d="M672.6,397.6c0.1-2.3,0.2-4.1,0.4-4.1s0.2,1.8,0.2,4.1c-0.1,2.3-0.2,4.1-0.4,4.1S672.8,399.8,672.6,397.6z"
				/>
		</g>
	</g>
	<g>
		<g>
			<path class="st4" d="M674,423.2c0.4-1.4,0.7-2.5,0.9-2.5c0.1,0.1,0,1.3-0.4,2.7c-0.4,1.4-0.7,2.5-0.9,2.5
				C673.5,425.9,673.6,424.7,674,423.2z"/>
		</g>
	</g>
	<g>
		<g>
			<path class="st4" d="M659.8,360c1.5,1.7,2.4,3.2,2.2,3.4c-0.1,0.1-1.2-1.3-2.6-2.8c-1.4-1.7-2.6-2.8-2.5-3
				C656.9,357.5,658.4,358.5,659.8,360z"/>
		</g>
	</g>
	<g>
		<g>
			<path class="st4" d="M663.7,351.1c-0.1-2.1,0-3.7,0.1-3.7s0.2,1.7,0.4,3.7c0.1,2.1,0,3.7-0.1,3.7
				C663.8,354.9,663.7,353.2,663.7,351.1z"/>
		</g>
	</g>
	<g>
		<g>
			<path class="st4" d="M648.9,349.6c1.6-1.2,2.9-1.8,3-1.7c0.1,0.1-1.1,1-2.6,2.2s-2.6,2.2-2.7,2.1
				C646.6,352,647.6,350.7,648.9,349.6z"/>
		</g>
	</g>
	<g>
		<g>
			<path class="st4" d="M650.2,362.4c0.1-2.2,0.2-4,0.4-4s0.2,1.8,0.2,4c-0.1,2.2-0.2,4-0.4,4S650.2,364.6,650.2,362.4z"/>
		</g>
	</g>
	<g>
		<g>
			<path class="st4" d="M643.1,373.3c1.7-0.4,3.1-0.4,3.1-0.3s-1.4,0.4-3,0.9s-3,0.9-3,0.8S641.5,373.8,643.1,373.3z"/>
		</g>
	</g>
	<g>
		<g>
			<path class="st4" d="M639.2,362.9c0-1.8,0.1-3.4,0.2-3.4c0.1,0,0.2,1.5,0.2,3.4c0,1.8-0.1,3.4-0.2,3.4
				C639.3,366.2,639.2,364.7,639.2,362.9z"/>
		</g>
	</g>
	<g>
		<g>
			<path class="st4" d="M631.6,376.3c0-2.3,0.2-4.3,0.4-4.3c0.1,0,0.2,1.9,0.1,4.3c0,2.3-0.2,4.3-0.4,4.3
				C631.6,380.6,631.6,378.6,631.6,376.3z"/>
		</g>
	</g>
	<g>
		<g>
			<path class="st4" d="M639.1,383c0.9-1.2,1.6-2.1,1.7-1.9c0.1,0.1-0.5,1.2-1.4,2.3s-1.6,2.1-1.7,1.9
				C637.6,385.3,638.2,384.3,639.1,383z"/>
		</g>
	</g>
	<g>
		<g>
			<path class="st4" d="M633.2,391.9c1.6,0.1,2.9,0.4,2.9,0.5c-0.1,0.1-1.4,0.1-3,0s-2.9-0.4-2.9-0.5S631.5,391.8,633.2,391.9z"/>
		</g>
	</g>
	<g>
		<g>
			<path class="st4" d="M624.4,391.5c0-2.1,0.2-3.7,0.4-3.7c0.1,0,0.2,1.7,0.1,3.7c0,2.1-0.2,3.7-0.4,3.7
				C624.4,395.3,624.2,393.6,624.4,391.5z"/>
		</g>
	</g>
	<g>
		<g>
			<path class="st4" d="M622.4,407.3c2-0.3,3.6-0.5,3.6-0.4s-1.5,0.6-3.5,0.9s-3.6,0.1-3.6,0C618.9,407.7,620.5,407.5,622.4,407.3z"
				/>
		</g>
	</g>
	<g>
		<g>
			<path class="st4" d="M610.6,405.7c0.6,1.9,1,3.7,0.9,3.7s-0.7-1.5-1.4-3.6c-0.6-1.9-1-3.7-0.9-3.7
				C609.4,402,610,403.7,610.6,405.7z"/>
		</g>
	</g>
	<g>
		<g>
			<path class="st4" d="M605.2,390.6c1.7-0.5,3.1-0.8,3.1-0.6c0.1,0.3-1.2,0.8-2.9,1.3s-3.1,0.8-3.1,0.6S603.7,391.3,605.2,390.6z"
				/>
		</g>
	</g>
	<g>
		<g>
			<path class="st4" d="M599.3,398c1.2,1.3,2.2,2.5,2.1,2.6c-0.1,0.1-1.2-0.9-2.5-2.2c-1.2-1.3-2.2-2.5-2.1-2.6
				C596.9,395.7,598,396.7,599.3,398z"/>
		</g>
	</g>
	<g>
		<g>
			<path class="st4" d="M595.1,382.6c0.2-2.1,0.5-3.7,0.6-3.7s0.2,1.8-0.1,3.9c-0.2,2.1-0.9,3.6-1,3.6
				C594.4,386.2,594.8,384.6,595.1,382.6z"/>
		</g>
	</g>
	<g>
		<g>
			<path class="st4" d="M587.4,387.3c1.7,1.9,2.9,3.7,2.7,3.9c-0.1,0.1-1.4-1.5-3.1-3.5c-1.7-1.9-3.2-3.4-3.1-3.5
				C584,384,585.7,385.3,587.4,387.3z"/>
		</g>
	</g>
	<g>
		<g>
			<path class="st4" d="M585.9,378.1c1.7-0.8,3.2-1.3,3.2-1.2c0,0.1-1.4,0.9-3.1,1.7c-1.7,0.8-3.2,1.3-3.2,1.2
				C582.8,379.7,584.2,378.9,585.9,378.1z"/>
		</g>
	</g>
	<g>
		<g>
			<path class="st4" d="M584.5,371.8c0.4-1.8,0.9-3.1,1-3.1s0,1.4-0.5,3.2c-0.4,1.8-0.9,3.1-1,3.1C583.7,375,584,373.6,584.5,371.8z
				"/>
		</g>
	</g>
	<g>
		<g>
			<path class="st4" d="M641,405.2c0.9-1.5,1.7-2.7,1.9-2.6c0.1,0.1-0.6,1.3-1.5,2.8s-1.7,2.7-1.9,2.6S640,406.6,641,405.2z"/>
		</g>
	</g>
	<g>
		<g>
			<path class="st4" d="M564.1,465.5c0-0.4,0.1-0.8,0.1-1.4c0.1-1.3,0.2-3.1,0.5-5.6c0.5-4.8,1.2-11.7,2.4-20.4
				c1.2-8.5,2.7-18.7,5-29.9c0.2-1.3,0.6-2.8,1.2-4.1c0.6-1.3,1.5-2.5,2.5-3.5c2.1-1.9,4.9-3.1,7.6-2.8c1.4,0.1,2.7,0.5,4,1.3
				c1.2,0.8,2.4,1.8,3.5,2.7c2.2,1.9,4.6,3.9,6.9,5.8c9.2,8,17.8,15.7,25.4,23.1c7.7,7.2,14.3,14.2,20,20c2.9,2.8,5.7,5,8.7,5.4
				c1.4,0.3,2.7,0,4-0.5c1.1-0.5,2.1-1.3,3-1.9c1.7-1.4,2.9-2.8,3.6-3.7c0.4-0.4,0.6-0.8,0.9-1c0.1-0.3,0.2-0.4,0.2-0.4
				s-0.1,0.1-0.2,0.4c-0.2,0.3-0.5,0.5-0.9,1c-0.7,0.9-1.9,2.3-3.6,3.7c-0.9,0.6-1.9,1.4-3.1,1.9c-1.1,0.4-2.6,0.8-4.1,0.5
				c-3.1-0.4-6.1-2.6-9-5.4c-5.6-5.8-12.2-12.8-20-20c-7.6-7.4-16.2-15.1-25.4-23.1c-2.4-1.9-4.6-3.9-6.9-5.8
				c-1.1-1-2.1-2.1-3.4-2.7c-1.2-0.6-2.5-1-3.9-1.2c-2.6-0.3-5.2,0.9-7.2,2.7c-1,1-1.7,2.1-2.4,3.4c-0.6,1.3-1,2.6-1.2,4
				c-2.4,11.2-3.9,21.4-5.1,29.9c-1.2,8.6-2.1,15.6-2.6,20.4c-0.2,2.5-0.5,4.3-0.6,5.6c0,0.6-0.1,1-0.1,1.4
				c-0.1,0.4-0.1,0.5-0.1,0.5S563.7,465.5,564.1,465.5z"/>
		</g>
	</g>
	<g>
		<g>
			<path class="st4" d="M553.1,464.8c0.7,0.1,1.6,0.1,2.7,0.1c2.4,0.1,5.5,0.3,9,0.4c3.5,0.3,6.7,0.4,9,0.6c1.1,0,2.1,0.1,2.7,0.3
				c0.6,0.1,1,0.3,1,0.3s-0.4,0-1,0c-0.7,0-1.6-0.1-2.7-0.1c-2.4,0-5.5-0.3-9-0.4s-6.7-0.4-9-0.5c-1.1-0.1-2.1-0.3-2.7-0.3
				c-0.6,0-1-0.1-1-0.1C552.1,465,552.5,465,553.1,464.8z"/>
		</g>
	</g>
	<g>
		<g>
			<path class="st4" d="M581.8,414.6c2.4,3.1,4.5,5.3,4.4,5.4c0,0-2.4-1.9-4.7-5s-4-5.8-3.9-5.9C577.7,409,579.5,411.5,581.8,414.6z
				"/>
		</g>
	</g>
	<g>
		<g>
			<path class="st4" d="M581.2,415.3c2.4,1.7,4.2,3.4,4.1,3.5c-0.1,0.1-2-1.3-4.4-3s-4.4-3.1-4.2-3.2
				C576.7,412.3,578.8,413.5,581.2,415.3z"/>
		</g>
	</g>
	<g>
		<g>
			<path class="st0" d="M493.8,467.8c0.5,0,1-0.1,1.7-0.3c1.6-0.3,3.7-0.5,6.4-0.9c5.5-0.8,12.8-1.7,21-2.7c8.1-0.9,15.6-1.9,21-2.2
				c2.6-0.1,4.9,0,6.4,0.1c0.7,0.1,1.4,0.1,1.7,0.3c0.4,0.1,0.6,0.1,0.6,0.1s-0.2,0-0.6,0c-0.5,0-1-0.1-1.7-0.1
				c-1.5,0-3.6,0-6.4,0.1c-5.4,0.4-12.7,1.4-21,2.5c-8.2,0.9-15.6,1.8-21,2.5c-2.6,0.3-4.7,0.5-6.4,0.6c-0.7,0-1.2,0.1-1.7,0.1
				c-0.4,0-0.6,0-0.6,0S493.3,467.9,493.8,467.8z"/>
		</g>
	</g>
	<g>
		<g>
			<path class="st0" d="M492.9,468.1c-0.7-7-1.1-12.8-1-12.8s0.7,5.7,1.5,12.8c0.7,7,1.1,12.8,1,12.8S493.5,475,492.9,468.1z"/>
		</g>
	</g>
</g>
<g>
	<g>
		<path class="st23" d="M17.1,154.4h3.5v23h-3.5V154.4z M19.3,154.4H33v3.1H19.3V154.4z M31.2,154.4h3.5v23h-3.5V154.4z"/>
		<path class="st23" d="M43.2,176.7c-1.1-0.6-1.9-1.4-2.5-2.4c-0.6-1.1-0.9-2.3-0.9-3.9v-2.7c0-1.5,0.3-2.8,0.9-3.8
			c0.6-1,1.5-1.8,2.5-2.4c1.1-0.6,2.4-0.8,4-0.8c1.5,0,2.8,0.3,4,0.8c1.2,0.5,1.9,1.4,2.5,2.4c0.6,1.1,0.9,2.3,0.9,3.8v2.7
			c0,1.5-0.3,2.8-0.9,3.9c-0.6,1.1-1.5,1.8-2.5,2.4c-1.1,0.6-2.4,0.8-4,0.8C45.7,177.5,44.3,177.4,43.2,176.7z M50,173.5
			c0.7-0.7,1-1.7,1-3v-2.7c0-1.3-0.3-2.2-1-3c-0.7-0.7-1.6-1.1-2.8-1.1c-1.2,0-2.1,0.4-2.8,1.1c-0.7,0.7-1,1.7-1,3v2.7
			c0,1.3,0.3,2.2,1,3c0.7,0.7,1.6,1.1,2.8,1.1C48.4,174.6,49.3,174.2,50,173.5z"/>
		<path class="st23" d="M58.1,174.4c0.9,0,1.6-0.4,2.1-1.2c0.5-0.8,0.8-1.8,0.8-3.2v-9h3.5v9.5c0,1.5-0.2,2.8-0.7,3.8
			c-0.5,1-1.2,1.8-2,2.4c-0.9,0.6-1.9,0.8-3.3,0.8h-0.4C58.1,177.6,58.1,174.4,58.1,174.4z M63.2,161.1h8.6v3.1h-8.6
			C63.2,164.1,63.2,161.1,63.2,161.1z M70,161.1h3.5v16.3H70V161.1z"/>
		<path class="st23" d="M77.1,161.1h3.6l5.4,14.3l-1.9,3.5L77.1,161.1z M92.7,161.1l-7.5,20.2c-0.3,0.7-0.7,1.4-1.1,1.8
			c-0.4,0.5-1,0.7-1.6,0.9c-0.7,0.2-1.5,0.3-2.4,0.3h-0.7v-3.1H80c0.7,0,1.2-0.1,1.5-0.4c0.4-0.3,0.7-0.6,1-1.3l6.6-18.5H92.7
			L92.7,161.1z"/>
		<path class="st23" d="M98.6,171.5c-1-0.6-1.7-1.3-2.2-2.2s-0.8-2.1-0.8-3.5v-4.6h3.5v4.8c0,1,0.3,1.8,0.9,2.3s1.4,0.8,2.3,0.8
			c1.4,0,2.4-0.3,3.1-0.9s1.1-1.4,1.1-2.6V164h1.1v1.5c0,2.1-0.5,3.9-1.5,5s-2.3,1.8-4.1,1.8C100.7,172.3,99.5,172,98.6,171.5z
			 M106.4,161.1h3.5v16.3h-3.5V161.1z"/>
		<path class="st23" d="M126.4,177.4v-11.7l0.4,0.5l-8.5,11.2h-3v-16.3h3.5V173l-0.4-0.5l8.5-11.5h3v16.3L126.4,177.4L126.4,177.4z"
			/>
		<path class="st23" d="M146.9,177c-1-0.4-1.6-0.9-2.2-1.7s-1-1.6-1.1-2.6h3.4c0.1,0.6,0.5,1.1,1.1,1.4c0.6,0.4,1.3,0.6,2.1,0.6
			c1,0,1.7-0.2,2.3-0.6s0.8-1,0.8-1.7l0,0c0-0.6-0.2-1-0.6-1.4c-0.4-0.4-1-0.5-1.6-0.5h-2.8v-2.8h2.8c0.6,0,1-0.2,1.3-0.5
			c0.3-0.3,0.5-0.8,0.5-1.4l0,0c0-0.7-0.2-1.3-0.7-1.6c-0.5-0.4-1.2-0.6-2-0.6c-0.8,0-1.5,0.2-2,0.6c-0.6,0.4-0.9,0.8-1.1,1.4h-3.4
			c0.3-1.5,1.1-2.8,2.2-3.6c1.2-0.8,2.6-1.3,4.4-1.3c1.9,0,3.4,0.4,4.4,1.2s1.5,1.8,1.5,3.2l0,0c0,0.9-0.2,1.7-0.7,2.3
			c-0.5,0.6-1.2,1.2-1.9,1.4c1.1,0.2,1.8,0.6,2.4,1.2c0.6,0.6,0.9,1.4,0.9,2.4l0,0c0,1.6-0.6,2.9-1.7,3.8c-1.2,0.9-2.7,1.4-4.8,1.4
			C149,177.7,147.9,177.5,146.9,177z"/>
		<path class="st23" d="M162,176.4c-1.1-0.8-1.6-2-1.6-3.8c0-1.6,0.5-2.9,1.5-3.7c1-0.8,2.5-1.3,4.4-1.3h5l0.2,2.6h-5.1
			c-0.9,0-1.5,0.2-2,0.6c-0.5,0.4-0.7,1-0.7,1.7c0,0.8,0.3,1.4,0.9,1.8c0.6,0.4,1.5,0.6,2.7,0.6c1.4,0,2.3-0.1,3-0.4
			c0.7-0.3,1-0.7,1-1.3l0.4,2.3c-0.3,0.5-0.7,0.8-1.2,1.1c-0.5,0.3-1,0.6-1.5,0.6c-0.6,0-1.3,0.2-2,0.2
			C164.7,177.7,163.1,177.2,162,176.4z M171.2,167c0-1.1-0.3-1.8-1-2.5c-0.7-0.6-1.5-0.9-2.6-0.9c-0.7,0-1.4,0.1-2,0.3
			c-0.7,0.2-1.3,0.5-1.8,0.8l-2.5-1.6c0.7-0.7,1.5-1.4,2.6-1.7c1.1-0.4,2.3-0.6,3.7-0.6c1.5,0,2.7,0.3,3.8,0.7
			c1.1,0.4,1.8,1.2,2.4,2s0.8,1.9,0.8,3.3v10.6h-3.3V167z"/>
		<path class="st23" d="M178.5,174.5h17v2.9h-17V174.5z M178.5,174.5h3.5v7h-3.5V174.5z M179.2,174.5h0.4c0.7,0,1.3-0.2,1.6-0.6
			c0.4-0.4,0.6-0.9,0.8-1.6c0.2-0.7,0.2-1.7,0.2-3.1V161h3.5v9.4c0,1.8-0.4,3.3-1.3,4.3c-0.9,1.1-2,1.4-3.6,1.4h-0.4L179.2,174.5z
			 M184.3,161.1h7.8v2.9h-7.8V161.1z M190.9,161.1h3.5v16.3h-3.5V161.1z M194.1,174.5h3.5v7h-3.5V174.5z"/>
		<path class="st23" d="M202.4,176.4c-1.1-0.8-1.6-2-1.6-3.8c0-1.6,0.5-2.9,1.5-3.7c1-0.8,2.5-1.3,4.4-1.3h5l0.2,2.6h-5.2
			c-0.9,0-1.5,0.2-2,0.6c-0.5,0.4-0.7,1-0.7,1.7c0,0.8,0.3,1.4,0.9,1.8c0.6,0.4,1.5,0.6,2.7,0.6c1.4,0,2.3-0.1,3-0.4
			c0.7-0.3,1-0.7,1-1.3l0.4,2.3c-0.3,0.5-0.7,0.8-1.2,1.1c-0.5,0.3-1,0.6-1.5,0.6c-0.6,0-1.3,0.2-2,0.2
			C205.1,177.7,203.5,177.2,202.4,176.4z M211.6,167c0-1.1-0.3-1.8-1-2.5c-0.7-0.6-1.5-0.9-2.6-0.9c-0.7,0-1.4,0.1-2,0.3
			c-0.7,0.2-1.3,0.5-1.8,0.8l-2.5-1.6c0.7-0.7,1.5-1.4,2.6-1.7c1.1-0.4,2.3-0.6,3.7-0.6c1.5,0,2.7,0.3,3.8,0.7
			c1.1,0.4,1.8,1.2,2.4,2c0.6,0.9,0.8,1.9,0.8,3.3v10.6h-3.3V167z"/>
		<path class="st23" d="M220.2,161.1h3.5v16.3h-3.5V161.1z M222.4,167.8h10.8v2.9h-10.8V167.8z M231.4,161.1h3.5v16.3h-3.5V161.1z"
			/>
		<path class="st23" d="M251.4,177.4v-11.7l0.4,0.5l-8.5,11.2h-3v-16.3h3.5V173l-0.4-0.5l8.5-11.5h3v16.3L251.4,177.4L251.4,177.4z"
			/>
		<path class="st23" d="M263.3,176.7c-1.2-0.6-2-1.4-2.6-2.5c-0.6-1.1-0.9-2.4-0.9-4v-1.8c0-1.6,0.3-3,0.9-4.2s1.5-2,2.5-2.6
			c1.1-0.6,2.4-0.9,4-0.9c1.5,0,2.7,0.4,3.8,1c1.1,0.6,1.8,1.7,2.4,3c0.6,1.3,0.9,2.9,0.9,4.6v1.1h-11.9v-2.6h8.6
			c-0.1-1.4-0.5-2.3-1.2-3.1c-0.7-0.8-1.5-1.1-2.6-1.1c-1.4,0-2.3,0.4-3.1,1.2c-0.8,0.8-1.1,1.9-1.1,3.4v2c0,1.4,0.4,2.4,1.2,3.1
			c0.8,0.7,1.8,1.1,3.3,1.1c0.7,0,1.4-0.1,2.1-0.4s1.4-0.6,1.8-1.1l2.3,2.1c-0.9,0.8-1.8,1.4-2.9,1.8c-1.1,0.5-2.2,0.6-3.3,0.6
			C265.8,177.7,264.4,177.3,263.3,176.7z"/>
		<path class="st23" d="M288.2,161.1h3.5v16.3h-3.5V161.1z M290.3,167.8h10.8v2.9h-10.8V167.8z M299.3,161.1h3.5v16.3h-3.5V161.1z"
			/>
		<path class="st23" d="M309,176.4c-1.1-0.8-1.6-2-1.6-3.8c0-1.6,0.5-2.9,1.5-3.7c1-0.8,2.5-1.3,4.4-1.3h5l0.2,2.6h-5.1
			c-0.9,0-1.5,0.2-2,0.6c-0.5,0.4-0.7,1-0.7,1.7c0,0.8,0.3,1.4,0.9,1.8c0.6,0.4,1.5,0.6,2.7,0.6c1.4,0,2.3-0.1,3-0.4s1-0.7,1-1.3
			l0.4,2.3c-0.3,0.5-0.7,0.8-1.2,1.1c-0.5,0.3-1,0.6-1.5,0.6c-0.6,0-1.3,0.2-2,0.2C311.7,177.7,310.2,177.2,309,176.4z M318.3,167
			c0-1.1-0.3-1.8-1-2.5c-0.7-0.6-1.5-0.9-2.6-0.9c-0.7,0-1.4,0.1-2,0.3c-0.7,0.2-1.3,0.5-1.8,0.8l-2.5-1.6c0.7-0.7,1.5-1.4,2.6-1.7
			c1.1-0.4,2.3-0.6,3.7-0.6c1.5,0,2.7,0.3,3.8,0.7c1.1,0.4,1.8,1.2,2.4,2c0.6,0.9,0.8,1.9,0.8,3.3v10.6h-3.3L318.3,167L318.3,167z"
			/>
		<path class="st23" d="M336.2,161.1h3.5v16.3h-3.5V161.1z M337.8,167.7h6.4v3.1h-6.4V167.7z M341.3,167.9l4.8-7h4.2l-7.4,9.8
			L341.3,167.9z M341.5,170.4l2.7-1.6l7.2,8.5h-4.6L341.5,170.4z"/>
		<path class="st23" d="M356.9,176.7c-1.1-0.6-1.9-1.4-2.5-2.4s-0.9-2.3-0.9-3.9v-2.7c0-1.5,0.3-2.8,0.9-3.8c0.6-1,1.5-1.8,2.5-2.4
			c1.1-0.6,2.4-0.8,4-0.8c1.5,0,2.8,0.3,4,0.8c1.2,0.5,1.9,1.4,2.5,2.4c0.6,1.1,0.9,2.3,0.9,3.8v2.7c0,1.5-0.3,2.8-0.9,3.9
			s-1.5,1.8-2.5,2.4c-1.1,0.6-2.4,0.8-4,0.8C359.3,177.5,358,177.4,356.9,176.7z M363.7,173.5c0.7-0.7,1-1.7,1-3v-2.7
			c0-1.3-0.3-2.2-1-3c-0.7-0.7-1.6-1.1-2.8-1.1c-1.2,0-2.1,0.4-2.8,1.1c-0.7,0.7-1,1.7-1,3v2.7c0,1.3,0.3,2.2,1,3
			c0.7,0.7,1.6,1.1,2.8,1.1C362,174.6,363,174.2,363.7,173.5z"/>
		<path class="st23" d="M386.6,161.1h3.1v16.3h-3.1v-11.6l0.2,1l-4.3,7.3h-2l-4.3-7.3l0.2-1v11.6h-3.1v-16.3h3.1l5.2,9.1
			L386.6,161.1z"/>
		<path class="st23" d="M395.1,161.1h3.5v16.3h-3.5V161.1z M397.2,161.1H408v3.1h-10.8V161.1z M406.2,161.1h3.5v16.3h-3.5V161.1z"/>
		<path class="st23" d="M415.2,161.1h3.5v16.3h-3.5V161.1z M416.8,174.3h6.2c0.7,0,1.3-0.2,1.6-0.6c0.4-0.4,0.7-1,0.7-1.6
			c0-0.5-0.1-0.8-0.3-1.2c-0.2-0.4-0.5-0.6-0.8-0.8c-0.3-0.2-0.8-0.3-1.3-0.3h-6.2v-3.1h6.1c1.3,0,2.3,0.2,3.2,0.6
			c0.9,0.4,1.6,1.1,2.1,1.8c0.5,0.8,0.8,1.7,0.8,2.8c0,1.1-0.3,1.9-0.8,2.8c-0.5,0.9-1.3,1.4-2.1,1.8c-0.9,0.4-2,0.6-3.2,0.6h-6.1
			V174.3z"/>
		<path class="st23" d="M433.6,161.1h3.5v16.3h-3.5V161.1z M435.6,167.7h7.5v2.8h-7.5V167.7z M444.5,176.7c-1.1-0.6-1.9-1.4-2.5-2.4
			s-0.9-2.3-0.9-3.9v-2.7c0-1.5,0.3-2.8,0.9-3.8c0.6-1,1.5-1.8,2.5-2.4c1.1-0.6,2.4-0.8,4-0.8c1.5,0,2.8,0.3,4,0.8
			c1.2,0.5,1.9,1.4,2.5,2.4c0.6,1.1,0.9,2.3,0.9,3.8v2.7c0,1.5-0.3,2.8-0.9,3.9s-1.5,1.8-2.5,2.4c-1.1,0.6-2.4,0.8-4,0.8
			C446.9,177.5,445.6,177.4,444.5,176.7z M451.2,173.5c0.7-0.7,1-1.7,1-3v-2.7c0-1.3-0.3-2.2-1-3c-0.7-0.7-1.6-1.1-2.8-1.1
			s-2.1,0.4-2.8,1.1c-0.7,0.7-1,1.7-1,3v2.7c0,1.3,0.3,2.2,1,3c0.7,0.7,1.6,1.1,2.8,1.1S450.6,174.2,451.2,173.5z"/>
		<path class="st23" d="M459.8,161.1h13.7v2.9h-13.7V161.1z M464.9,162.7h3.5v14.6h-3.5V162.7z"/>
		<path class="st23" d="M481.1,176.7c-1.2-0.6-2-1.4-2.6-2.5c-0.6-1.1-0.9-2.4-0.9-4v-1.8c0-1.6,0.3-3,0.9-4.2
			c0.6-1.2,1.5-2,2.5-2.6c1.1-0.6,2.4-0.9,4-0.9c1.5,0,2.7,0.4,3.8,1c1.1,0.6,1.8,1.7,2.4,3c0.6,1.3,0.9,2.9,0.9,4.6v1.1h-11.9v-2.6
			h8.6c-0.1-1.4-0.5-2.3-1.2-3.1c-0.7-0.8-1.5-1.1-2.6-1.1c-1.4,0-2.3,0.4-3.1,1.2c-0.8,0.8-1.1,1.9-1.1,3.4v2
			c0,1.4,0.4,2.4,1.2,3.1c0.8,0.7,1.8,1.1,3.3,1.1c0.7,0,1.4-0.1,2.1-0.4s1.4-0.6,1.8-1.1l2.3,2.1c-0.9,0.8-1.8,1.4-2.9,1.8
			c-1.1,0.5-2.2,0.6-3.3,0.6C483.7,177.7,482.2,177.3,481.1,176.7z"/>
		<path class="st23" d="M496.7,161.1h3.5v23h-3.5V161.1z M501.8,176.8c-0.8-0.5-1.5-1.2-1.8-2l0.2-3.4c0,0.7,0.1,1.4,0.4,1.8
			c0.3,0.5,0.7,0.9,1.2,1.2c0.5,0.3,1.2,0.4,1.8,0.4c1.2,0,2-0.4,2.7-1c0.7-0.6,1-1.5,1-2.7v-3.6c0-1.2-0.3-2.1-1-2.8
			c-0.7-0.6-1.5-1-2.7-1c-0.8,0-1.4,0.1-1.8,0.4c-0.5,0.3-0.9,0.6-1.2,1.1c-0.3,0.5-0.4,1.1-0.4,1.8l-0.4-3.1c0.6-1,1.3-1.7,2.1-2.2
			c0.9-0.6,1.8-0.8,2.9-0.8c1.3,0,2.3,0.3,3.2,0.8c0.9,0.6,1.5,1.3,2,2.2c0.5,1,0.7,2.2,0.7,3.6v3.6c0,1.4-0.2,2.6-0.7,3.6
			c-0.5,1-1.2,1.7-2.1,2.2c-1,0.5-2,0.8-3.3,0.8C503.5,177.7,502.5,177.4,501.8,176.8z"/>
		<path class="st23" d="M518.7,176.7c-1.2-0.6-2-1.4-2.6-2.5s-0.9-2.4-0.9-4v-1.8c0-1.6,0.3-3,0.9-4.2c0.6-1.2,1.5-2,2.5-2.6
			c1.1-0.6,2.4-0.9,4-0.9c1.5,0,2.7,0.4,3.8,1c1.1,0.6,1.8,1.7,2.4,3s0.9,2.9,0.9,4.6v1.1h-11.9v-2.6h8.6c-0.1-1.4-0.5-2.3-1.2-3.1
			c-0.7-0.8-1.5-1.1-2.6-1.1c-1.4,0-2.3,0.4-3.1,1.2c-0.8,0.8-1.1,1.9-1.1,3.4v2c0,1.4,0.4,2.4,1.2,3.1c0.8,0.7,1.8,1.1,3.3,1.1
			c0.7,0,1.4-0.1,2.1-0.4s1.4-0.6,1.8-1.1l2.3,2.1c-0.9,0.8-1.8,1.4-2.9,1.8c-1.1,0.5-2.2,0.6-3.3,0.6
			C521.3,177.7,519.8,177.3,518.7,176.7z"/>
		<path class="st23" d="M533.8,174h3.7v5.1l-3.7,3.5V174z"/>
		<path class="st23" d="M88.7,215.2c-1.1-0.8-1.6-2-1.6-3.8c0-1.6,0.5-2.9,1.5-3.7s2.5-1.3,4.4-1.3h5l0.2,2.6H93
			c-0.9,0-1.5,0.2-2,0.6c-0.5,0.4-0.7,1-0.7,1.7c0,0.8,0.3,1.4,0.9,1.8c0.6,0.4,1.5,0.6,2.7,0.6c1.4,0,2.3-0.1,3-0.4
			c0.7-0.3,1-0.7,1-1.3l0.4,2.3c-0.3,0.5-0.7,0.8-1.2,1.1c-0.5,0.3-1,0.6-1.5,0.6s-1.3,0.2-2,0.2C91.4,216.4,89.8,216,88.7,215.2z
			 M97.9,205.7c0-1.1-0.3-1.8-1-2.5c-0.7-0.6-1.5-0.9-2.6-0.9c-0.7,0-1.4,0.1-2,0.3c-0.7,0.2-1.3,0.5-1.8,0.8l-2.5-1.6
			c0.7-0.7,1.5-1.4,2.6-1.7c1.1-0.4,2.3-0.6,3.7-0.6c1.5,0,2.7,0.3,3.8,0.7c1.1,0.4,1.8,1.2,2.4,2c0.6,0.9,0.8,1.9,0.8,3.3V216h-3.3
			C97.9,216,97.9,205.7,97.9,205.7z"/>
		<path class="st23" d="M118.1,215.8c-1-0.4-1.6-0.9-2.2-1.7c-0.6-0.9-1-1.6-1.1-2.6h3.4c0.1,0.6,0.5,1.1,1.1,1.4
			c0.6,0.4,1.3,0.6,2.1,0.6c1,0,1.7-0.2,2.3-0.6c0.6-0.4,0.8-1,0.8-1.7l0,0c0-0.6-0.2-1-0.6-1.4c-0.4-0.4-1-0.5-1.6-0.5h-2.8v-2.8
			h2.8c0.6,0,1-0.2,1.3-0.5c0.3-0.3,0.5-0.8,0.5-1.4l0,0c0-0.7-0.2-1.3-0.7-1.6s-1.2-0.6-2-0.6c-0.8,0-1.5,0.2-2,0.6
			c-0.6,0.4-0.9,0.8-1.1,1.4h-3.4c0.3-1.5,1.1-2.8,2.2-3.6c1.2-0.8,2.6-1.3,4.4-1.3c1.9,0,3.4,0.4,4.4,1.2c1.1,0.8,1.5,1.8,1.5,3.2
			l0,0c0,0.9-0.2,1.7-0.7,2.3c-0.5,0.6-1.2,1.2-1.9,1.4c1.1,0.2,1.8,0.6,2.4,1.2c0.6,0.6,0.9,1.4,0.9,2.4l0,0c0,1.6-0.6,2.9-1.7,3.8
			c-1.2,0.9-2.7,1.4-4.8,1.4C120.1,216.4,119,216.2,118.1,215.8z"/>
		<path class="st23" d="M133.1,215.2c-1.1-0.8-1.6-2-1.6-3.8c0-1.6,0.5-2.9,1.5-3.7c1-0.8,2.5-1.3,4.4-1.3h5l0.2,2.6h-5.2
			c-0.9,0-1.5,0.2-2,0.6c-0.5,0.4-0.7,1-0.7,1.7c0,0.8,0.3,1.4,0.9,1.8c0.6,0.4,1.5,0.6,2.7,0.6c1.4,0,2.3-0.1,3-0.4
			c0.7-0.3,1-0.7,1-1.3l0.4,2.3c-0.3,0.5-0.7,0.8-1.2,1.1c-0.5,0.3-1,0.6-1.5,0.6c-0.6,0-1.3,0.2-2,0.2
			C135.8,216.4,134.2,216,133.1,215.2z M142.3,205.7c0-1.1-0.3-1.8-1-2.5c-0.7-0.6-1.5-0.9-2.6-0.9c-0.7,0-1.4,0.1-2,0.3
			c-0.7,0.2-1.3,0.5-1.8,0.8l-2.5-1.6c0.7-0.7,1.5-1.4,2.6-1.7c1.1-0.4,2.3-0.6,3.7-0.6c1.5,0,2.7,0.3,3.8,0.7
			c1.1,0.4,1.8,1.2,2.4,2c0.6,0.9,0.8,1.9,0.8,3.3V216h-3.3V205.7L142.3,205.7z"/>
		<path class="st23" d="M150.9,199.8h3.5v16.3h-3.5V199.8z M152.5,206.5h6.4v3.1h-6.4V206.5z M156.1,206.7l4.8-7h4.2l-7.4,9.8
			L156.1,206.7z M156.2,209.2l2.7-1.6l7.2,8.5h-4.6L156.2,209.2z"/>
		<path class="st23" d="M171.7,215.5c-1.1-0.6-1.9-1.4-2.5-2.4c-0.6-1.1-0.9-2.3-0.9-3.9v-2.7c0-1.5,0.3-2.8,0.9-3.8
			c0.6-1,1.5-1.8,2.5-2.4c1.1-0.6,2.4-0.8,4-0.8s2.8,0.3,4,0.8c1.2,0.5,1.9,1.4,2.5,2.4c0.6,1.1,0.9,2.3,0.9,3.8v2.7
			c0,1.5-0.3,2.8-0.9,3.9c-0.6,1.1-1.5,1.8-2.5,2.4c-1.1,0.6-2.4,0.8-4,0.8S172.7,216.1,171.7,215.5z M178.4,212.3
			c0.7-0.7,1-1.7,1-3v-2.7c0-1.3-0.3-2.2-1-3c-0.7-0.7-1.6-1.1-2.8-1.1c-1.2,0-2.1,0.4-2.8,1.1c-0.7,0.7-1,1.7-1,3v2.7
			c0,1.3,0.3,2.2,1,3c0.7,0.7,1.6,1.1,2.8,1.1C176.7,213.3,177.7,213,178.4,212.3z"/>
		<path class="st23" d="M187.7,199.8h3.5v16.3h-3.5V199.8z M190,206.7h10.8v2.9H190V206.7z M199,199.8h3.5v16.3H199V199.8z"/>
		<path class="st23" d="M210.7,210.3c-1-0.6-1.7-1.3-2.2-2.2c-0.5-1-0.8-2.1-0.8-3.5v-4.7h3.5v4.8c0,1,0.3,1.8,0.9,2.3
			c0.6,0.5,1.4,0.8,2.3,0.8c1.4,0,2.4-0.3,3.1-0.9c0.7-0.6,1.1-1.4,1.1-2.6v-1.6h1.1v1.5c0,2.1-0.5,3.9-1.5,5
			c-1,1.2-2.3,1.8-4.1,1.8C212.8,211,211.6,210.7,210.7,210.3z M218.5,199.8h3.5v16.3h-3.5V199.8z"/>
		<path class="st23" d="M238.5,216.1v-11.7l0.4,0.5l-8.5,11.2h-3v-16.3h3.5v11.9l-0.4-0.5l8.5-11.5h3V216L238.5,216.1L238.5,216.1z"
			/>
		<path class="st23" d="M256.7,199.8h3.5v16.3h-3.5V199.8z M258.9,206.7h10.8v2.9h-10.8V206.7z M267.9,199.8h3.5v16.3h-3.5V199.8z"
			/>
		<path class="st23" d="M277.6,215.2c-1.1-0.8-1.6-2-1.6-3.8c0-1.6,0.5-2.9,1.5-3.7c1-0.8,2.5-1.3,4.4-1.3h5l0.2,2.6h-5.2
			c-0.9,0-1.5,0.2-2,0.6c-0.5,0.4-0.7,1-0.7,1.7c0,0.8,0.3,1.4,0.9,1.8c0.6,0.4,1.5,0.6,2.7,0.6c1.4,0,2.3-0.1,3-0.4
			c0.7-0.3,1-0.7,1-1.3l0.4,2.3c-0.3,0.5-0.7,0.8-1.2,1.1c-0.5,0.3-1,0.6-1.5,0.6c-0.6,0-1.3,0.2-2,0.2
			C280.3,216.4,278.6,216,277.6,215.2z M286.8,205.7c0-1.1-0.3-1.8-1-2.5c-0.7-0.6-1.5-0.9-2.6-0.9c-0.7,0-1.4,0.1-2,0.3
			s-1.3,0.5-1.8,0.8l-2.5-1.6c0.7-0.7,1.5-1.4,2.6-1.7c1.1-0.4,2.3-0.6,3.7-0.6c1.5,0,2.7,0.3,3.8,0.7c1.1,0.4,1.8,1.2,2.4,2
			c0.6,0.9,0.8,1.9,0.8,3.3V216h-3.3L286.8,205.7L286.8,205.7z"/>
		<path class="st23" d="M303.8,199.8h13.7v2.9h-13.7V199.8z M308.9,201.6h3.5v14.6h-3.5V201.6z"/>
		<path class="st23" d="M325.2,215.5c-1.2-0.6-2-1.4-2.6-2.5c-0.6-1.1-0.9-2.4-0.9-4v-1.8c0-1.6,0.3-3,0.9-4.2
			c0.6-1.2,1.5-2,2.5-2.6c1.1-0.6,2.4-0.9,4-0.9c1.5,0,2.7,0.4,3.8,1c1.1,0.6,1.8,1.7,2.4,3s0.9,2.9,0.9,4.6v1.1h-11.9v-2.6h8.6
			c-0.1-1.4-0.5-2.3-1.2-3.1c-0.7-0.8-1.5-1.1-2.6-1.1c-1.4,0-2.3,0.4-3.1,1.2c-0.8,0.8-1.1,1.9-1.1,3.4v2c0,1.4,0.4,2.4,1.2,3.1
			c0.8,0.7,1.8,1.1,3.3,1.1c0.7,0,1.4-0.1,2.1-0.4c0.8-0.3,1.4-0.6,1.8-1.1l2.3,2.1c-0.9,0.8-1.8,1.4-2.9,1.8
			c-1.1,0.5-2.2,0.6-3.3,0.6C327.7,216.4,326.3,216,325.2,215.5z"/>
		<path class="st23" d="M339.6,213.1c0.9,0,1.6-0.4,2.1-1.2c0.5-0.8,0.8-1.8,0.8-3.2v-9.1h3.5v9.5c0,1.5-0.2,2.8-0.7,3.8
			c-0.5,1-1.2,1.8-2,2.4c-0.9,0.6-1.9,0.8-3.3,0.8h-0.4V213.1z M344.6,199.8h8.6v3.1h-8.6V199.8z M351.5,199.8h3.5v16.3h-3.5V199.8z
			"/>
		<path class="st23" d="M363.4,215.5c-1.2-0.6-2-1.4-2.6-2.5c-0.6-1.1-0.9-2.4-0.9-4v-1.8c0-1.6,0.3-3,0.9-4.2
			c0.6-1.2,1.5-2,2.5-2.6c1.1-0.6,2.4-0.9,4-0.9c1.5,0,2.7,0.4,3.8,1c1.1,0.6,1.8,1.7,2.4,3c0.6,1.3,0.9,2.9,0.9,4.6v1.1h-11.9v-2.6
			h8.6c-0.1-1.4-0.5-2.3-1.2-3.1c-0.7-0.8-1.5-1.1-2.6-1.1c-1.4,0-2.3,0.4-3.1,1.2c-0.8,0.8-1.1,1.9-1.1,3.4v2
			c0,1.4,0.4,2.4,1.2,3.1c0.8,0.7,1.8,1.1,3.3,1.1c0.7,0,1.4-0.1,2.1-0.4c0.8-0.3,1.4-0.6,1.8-1.1l2.3,2.1c-0.9,0.8-1.8,1.4-2.9,1.8
			c-1.1,0.5-2.2,0.6-3.3,0.6C366,216.4,364.5,216,363.4,215.5z"/>
		<path class="st23" d="M379.8,214.5c-0.9-1.1-1.4-2.6-1.4-4.4v-4.2c0-1.9,0.5-3.4,1.4-4.4c0.9-1.1,2.1-1.6,3.8-1.6
			c1.5,0,2.5,0.6,3.3,1.6c0.8,1.1,1.2,2.6,1.2,4.4v4.2c0,1.9-0.4,3.5-1.2,4.5c-0.8,1.1-1.8,1.6-3.3,1.6
			C382,216.1,380.8,215.6,379.8,214.5z M386.3,212.3c0.5-0.6,0.7-1.3,0.7-2.2v-4.2c0-1-0.2-1.7-0.7-2.2c-0.5-0.6-1.2-0.8-1.9-0.8
			s-1.4,0.3-1.7,0.8c-0.4,0.6-0.6,1.3-0.6,2.2v4.2c0,1,0.2,1.7,0.6,2.2c0.4,0.6,1,0.8,1.7,0.8C385.2,213.1,385.9,212.9,386.3,212.3z
			 M387.1,195.1h3.5v25.8h-3.5V195.1z M390.5,214.5c-0.8-1.1-1.2-2.6-1.2-4.5v-4.1c0-1.9,0.4-3.4,1.2-4.4c0.8-1.1,1.8-1.6,3.3-1.6
			c1.6,0,2.9,0.6,3.8,1.6c0.9,1.1,1.4,2.6,1.4,4.4v4.2c0,1.9-0.5,3.4-1.4,4.4c-0.9,1.1-2.1,1.6-3.8,1.6
			C392.5,216.1,391.3,215.6,390.5,214.5z M394.9,212.3c0.4-0.6,0.6-1.3,0.6-2.2v-4.2c0-1-0.2-1.7-0.6-2.2c-0.4-0.6-1-0.8-1.7-0.8
			c-0.9,0-1.5,0.3-1.9,0.8c-0.4,0.6-0.7,1.3-0.7,2.2v4.2c0,1,0.2,1.7,0.7,2.2c0.5,0.6,1.2,0.8,1.9,0.8S394.5,212.9,394.9,212.3z"/>
		<path class="st23" d="M406.8,215.5c-1.1-0.6-1.9-1.4-2.5-2.4c-0.6-1.1-0.9-2.3-0.9-3.9v-2.7c0-1.5,0.3-2.8,0.9-3.8
			c0.6-1,1.5-1.8,2.5-2.4c1.1-0.6,2.4-0.8,4-0.8c1.5,0,2.8,0.3,4,0.8c1.2,0.5,1.9,1.4,2.5,2.4s0.9,2.3,0.9,3.8v2.7
			c0,1.5-0.3,2.8-0.9,3.9c-0.6,1.1-1.5,1.8-2.5,2.4c-1.1,0.6-2.4,0.8-4,0.8C409.2,216.2,407.9,216.1,406.8,215.5z M413.6,212.3
			c0.7-0.7,1-1.7,1-3v-2.7c0-1.3-0.3-2.2-1-3c-0.7-0.7-1.6-1.1-2.8-1.1c-1.2,0-2.1,0.4-2.8,1.1c-0.7,0.7-1,1.7-1,3v2.7
			c0,1.3,0.3,2.2,1,3c0.7,0.7,1.6,1.1,2.8,1.1C411.9,213.3,412.9,213,413.6,212.3z"/>
		<path class="st23" d="M422.9,199.8h3.5v16.3h-3.5V199.8z M425.1,206.7h10.8v2.9h-10.8V206.7z M434.1,199.8h3.5v16.3h-3.5V199.8z"
			/>
		<path class="st23" d="M446.1,215.5c-1.2-0.6-2-1.4-2.6-2.5c-0.6-1.1-0.9-2.4-0.9-4v-1.8c0-1.6,0.3-3,0.9-4.2s1.5-2,2.5-2.6
			c1.1-0.6,2.4-0.9,4-0.9c1.5,0,2.7,0.4,3.8,1c1.1,0.6,1.8,1.7,2.4,3c0.6,1.3,0.9,2.9,0.9,4.6v1.1h-11.9v-2.6h8.6
			c-0.1-1.4-0.5-2.3-1.2-3.1c-0.7-0.8-1.5-1.1-2.6-1.1c-1.4,0-2.3,0.4-3.1,1.2c-0.8,0.8-1.1,1.9-1.1,3.4v2c0,1.4,0.4,2.4,1.2,3.1
			c0.8,0.7,1.8,1.1,3.3,1.1c0.7,0,1.4-0.1,2.1-0.4c0.8-0.3,1.4-0.6,1.8-1.1l2.3,2.1c-0.9,0.8-1.8,1.4-2.9,1.8
			c-1.1,0.5-2.2,0.6-3.3,0.6C448.6,216.4,447.2,216,446.1,215.5z"/>
		<path class="st23" d="M461.8,212.8h3.7v3.4h-3.7V212.8z M461.9,193.1h3.5v17h-3.5V193.1z"/>
		<path class="st23" d="M83.7,270.7h3.4v23h-3.5L83.7,270.7L83.7,270.7z M85.8,270.7h13.7v3.1H85.8V270.7z M97.7,270.7h3.5v23h-3.5
			V270.7z"/>
		<path class="st23" d="M106.9,277.3h3.5v23.1h-3.5V277.3z M111.9,293.2c-0.8-0.5-1.5-1.2-1.8-2l0.2-3.4c0,0.7,0.1,1.4,0.4,1.8
			c0.3,0.5,0.7,0.9,1.2,1.2c0.5,0.3,1.2,0.4,1.8,0.4c1.2,0,2-0.4,2.7-1c0.7-0.6,1-1.5,1-2.7v-3.6c0-1.2-0.3-2.1-1-2.8
			c-0.7-0.7-1.5-1-2.7-1c-0.8,0-1.4,0.1-1.8,0.4c-0.5,0.3-0.9,0.7-1.2,1.1c-0.3,0.5-0.4,1.1-0.4,1.8l-0.4-3.1c0.6-1,1.3-1.7,2.1-2.2
			c0.9-0.6,1.8-0.8,2.9-0.8c1.3,0,2.3,0.3,3.2,0.8c0.9,0.6,1.5,1.3,2,2.2c0.5,1,0.7,2.2,0.7,3.6v3.6c0,1.4-0.2,2.6-0.7,3.6
			c-0.5,1-1.2,1.7-2.1,2.2c-1,0.6-2,0.8-3.3,0.8C113.8,293.9,112.8,293.6,111.9,293.2z"/>
		<path class="st23" d="M137,293.6v-11.7l0.4,0.5l-8.5,11.2h-3v-16.3h3.5v11.9l-0.4-0.5l8.5-11.5h3v16.3L137,293.6L137,293.6z"/>
		<path class="st23" d="M144.6,290.7c0.9,0,1.6-0.4,2.1-1.2c0.5-0.8,0.8-1.8,0.8-3.2v-9.1h3.5v9.5c0,1.5-0.2,2.8-0.7,3.8
			c-0.5,1-1.2,1.8-2,2.4c-0.9,0.6-1.9,0.8-3.3,0.8h-0.4L144.6,290.7L144.6,290.7z M149.6,277.3h8.6v3.1h-8.6V277.3z M156.5,277.3
			h3.5v16.3h-3.5V277.3z"/>
		<path class="st23" d="M168.2,293.1c-1.1-0.6-1.9-1.4-2.5-2.4s-0.9-2.3-0.9-3.9v-2.7c0-1.5,0.3-2.8,0.9-3.8c0.6-1,1.5-1.8,2.5-2.4
			c1.1-0.6,2.4-0.8,4-0.8s2.8,0.3,4,0.8c1.2,0.6,1.9,1.4,2.5,2.4c0.6,1.1,0.9,2.3,0.9,3.8v2.7c0,1.5-0.3,2.8-0.9,3.9
			s-1.5,1.8-2.5,2.4c-1.1,0.6-2.4,0.8-4,0.8S169.3,293.6,168.2,293.1z M175,289.8c0.7-0.7,1-1.7,1-3v-2.7c0-1.3-0.3-2.2-1-3
			c-0.7-0.8-1.6-1.1-2.8-1.1c-1.2,0-2.1,0.4-2.8,1.1s-1,1.7-1,3v2.7c0,1.3,0.3,2.2,1,3c0.7,0.8,1.6,1.1,2.8,1.1
			C173.3,290.8,174.3,290.5,175,289.8z"/>
		<path class="st23" d="M188.3,284.9l2.5,1.6l-4.7,7.1h-4.4L188.3,284.9z M182.7,277.3h4l4.3,6.9l-1.5,2.8L182.7,277.3z
			 M188.2,283.9h11.6v2.9h-11.6V283.9z M192.4,277.3h3.5v16.3h-3.5V277.3z M197.2,284.1l4.3-6.9h4l-6.9,9.6L197.2,284.1z
			 M197.3,286.6l2.5-1.6l6.7,8.7h-4.4L197.3,286.6z"/>
		<path class="st23" d="M212.3,293.1c-1.2-0.6-2-1.4-2.6-2.5s-0.9-2.4-0.9-4v-1.8c0-1.6,0.3-3,0.9-4.2c0.6-1.2,1.5-2,2.5-2.6
			c1.1-0.6,2.4-0.9,4-0.9c1.5,0,2.7,0.4,3.8,1s1.8,1.7,2.4,3c0.6,1.3,0.9,2.9,0.9,4.6v1.1h-11.9v-2.6h8.6c-0.1-1.4-0.5-2.3-1.2-3.1
			c-0.7-0.8-1.5-1.1-2.6-1.1c-1.4,0-2.3,0.4-3.1,1.2c-0.8,0.8-1.1,1.9-1.1,3.4v2c0,1.4,0.4,2.4,1.2,3.1c0.8,0.7,1.8,1.1,3.3,1.1
			c0.7,0,1.4-0.1,2.1-0.4c0.8-0.3,1.4-0.7,1.8-1.1l2.3,2.1c-0.9,0.8-1.8,1.4-2.9,1.8s-2.2,0.6-3.3,0.6
			C214.8,293.9,213.5,293.5,212.3,293.1z"/>
		<path class="st23" d="M227.9,277.3h3.5v16.3h-3.5V277.3z M230.1,284.2h10.8v2.9h-10.8V284.2z M239.1,277.3h3.5v16.3h-3.5V277.3z"
			/>
		<path class="st23" d="M259,293.6v-11.7l0.4,0.5l-8.5,11.2h-3v-16.3h3.5v11.9l-0.4-0.5l8.5-11.5h3v16.3L259,293.6L259,293.6z"/>
		<path class="st23" d="M271,293.1c-1.2-0.6-2-1.4-2.6-2.5c-0.6-1.1-0.9-2.4-0.9-4v-1.8c0-1.6,0.3-3,0.9-4.2c0.6-1.2,1.5-2,2.5-2.6
			c1.1-0.6,2.4-0.9,4-0.9c1.5,0,2.7,0.4,3.8,1s1.8,1.7,2.4,3c0.6,1.3,0.9,2.9,0.9,4.6v1.1H270v-2.6h8.6c-0.1-1.4-0.5-2.3-1.2-3.1
			c-0.7-0.8-1.5-1.1-2.6-1.1c-1.4,0-2.3,0.4-3.1,1.2c-0.8,0.8-1.1,1.9-1.1,3.4v2c0,1.4,0.4,2.4,1.2,3.1c0.8,0.7,1.8,1.1,3.3,1.1
			c0.7,0,1.4-0.1,2.1-0.4c0.8-0.3,1.4-0.7,1.8-1.1l2.3,2.1c-0.9,0.8-1.8,1.4-2.9,1.8s-2.2,0.6-3.3,0.6
			C273.5,293.9,272.2,293.5,271,293.1z"/>
		<path class="st23" d="M294.8,290.8h17v2.9h-17V290.8z M294.8,290.8h3.5v7h-3.5V290.8z M295.4,290.8h0.4c0.7,0,1.3-0.2,1.6-0.6
			c0.4-0.4,0.6-0.9,0.8-1.6c0.2-0.7,0.2-1.7,0.2-3.1v-8.2h3.5v9.4c0,1.8-0.4,3.3-1.3,4.3c-0.9,1.1-2,1.4-3.6,1.4h-0.4L295.4,290.8z
			 M300.5,277.3h7.8v2.9h-7.8V277.3z M307.2,277.3h3.5v16.3h-3.5V277.3z M310.4,290.8h3.5v7h-3.5V290.8z"/>
		<path class="st23" d="M320.7,293.1c-1.1-0.6-1.9-1.4-2.5-2.4c-0.6-1.1-0.9-2.3-0.9-3.9v-2.7c0-1.5,0.3-2.8,0.9-3.8
			c0.6-1,1.5-1.8,2.5-2.4c1.1-0.6,2.4-0.8,4-0.8c1.5,0,2.8,0.3,4,0.8c1.2,0.6,1.9,1.4,2.5,2.4c0.6,1.1,0.9,2.3,0.9,3.8v2.7
			c0,1.5-0.3,2.8-0.9,3.9c-0.6,1.1-1.5,1.8-2.5,2.4c-1.1,0.6-2.4,0.8-4,0.8C323.1,293.8,321.8,293.6,320.7,293.1z M327.5,289.8
			c0.7-0.7,1-1.7,1-3v-2.7c0-1.3-0.3-2.2-1-3c-0.7-0.8-1.6-1.1-2.8-1.1s-2.1,0.4-2.8,1.1s-1,1.7-1,3v2.7c0,1.3,0.3,2.2,1,3
			c0.7,0.8,1.6,1.1,2.8,1.1S326.8,290.5,327.5,289.8z"/>
		<path class="st23" d="M339.9,293.1c-1.2-0.6-2-1.4-2.6-2.4s-0.9-2.3-0.9-3.9v-2.7c0-1.5,0.3-2.8,0.9-3.8c0.6-1,1.5-1.8,2.6-2.4
			c1.2-0.6,2.5-0.8,4.2-0.8c0.9,0,1.7,0.1,2.6,0.3c0.9,0.2,1.5,0.6,2.2,0.9c0.7,0.4,1.2,0.9,1.6,1.4l-2.5,2
			c-0.5-0.6-1.1-0.9-1.7-1.3c-0.7-0.4-1.4-0.5-2.1-0.5c-1.4,0-2.4,0.4-3.1,1.1s-1.1,1.7-1.1,3v2.7c0,1.3,0.4,2.3,1.1,3
			c0.7,0.6,1.7,1.1,3.1,1.1c0.8,0,1.5-0.2,2.1-0.5c0.7-0.3,1.3-0.7,1.7-1.3l2.5,2.2c-0.5,0.6-1,1-1.6,1.4s-1.4,0.7-2.2,0.9
			c-0.9,0.2-1.6,0.3-2.6,0.3C342.4,293.9,341,293.6,339.9,293.1z"/>
		<path class="st23" d="M353.3,277.3H367v2.9h-13.7V277.3z M358.4,279h3.5v14.6h-3.5V279z"/>
		<path class="st23" d="M369.8,277.3h3.6l5.4,14.3l-1.9,3.5L369.8,277.3z M385.4,277.3l-7.5,20.2c-0.3,0.7-0.7,1.4-1.1,1.8
			s-1,0.7-1.6,0.9c-0.7,0.2-1.5,0.3-2.4,0.3h-0.7v-3.1h0.7c0.7,0,1.2-0.1,1.5-0.4c0.4-0.3,0.7-0.6,1-1.3l6.6-18.5L385.4,277.3
			L385.4,277.3z"/>
		<path class="st23" d="M388.4,277.3h3.5v16.3h-3.5V277.3z M390.6,277.3h10.8v3.1h-10.8V277.3z M399.6,277.3h3.5v16.3h-3.5V277.3z"
			/>
		<path class="st23" d="M408.5,277.3h3.5v16.3h-3.5V277.3z M410.7,284.2h10.8v2.9h-10.8V284.2z M419.7,277.3h3.5v16.3h-3.5V277.3z"
			/>
		<path class="st23" d="M431.4,293.1c-1.1-0.6-1.9-1.4-2.5-2.4c-0.6-1.1-0.9-2.3-0.9-3.9v-2.7c0-1.5,0.3-2.8,0.9-3.8
			c0.6-1,1.5-1.8,2.5-2.4s2.4-0.8,4-0.8c1.5,0,2.8,0.3,4,0.8c1.2,0.6,1.9,1.4,2.5,2.4c0.6,1.1,0.9,2.3,0.9,3.8v2.7
			c0,1.5-0.3,2.8-0.9,3.9c-0.6,1.1-1.5,1.8-2.5,2.4c-1.1,0.6-2.4,0.8-4,0.8C433.8,293.8,432.5,293.6,431.4,293.1z M438.1,289.8
			c0.7-0.7,1-1.7,1-3v-2.7c0-1.3-0.3-2.2-1-3c-0.7-0.8-1.6-1.1-2.8-1.1c-1.2,0-2.1,0.4-2.8,1.1s-1,1.7-1,3v2.7c0,1.3,0.3,2.2,1,3
			c0.7,0.8,1.6,1.1,2.8,1.1C436.5,290.8,437.4,290.5,438.1,289.8z"/>
		<path class="st23" d="M456.9,277.3h3.5v16.3h-3.5V277.3z M458.9,290.8h6.6c0.7,0,1.3-0.2,1.6-0.6c0.4-0.4,0.6-0.9,0.6-1.5v-0.1
			c0-0.7-0.2-1.3-0.6-1.6c-0.4-0.4-0.9-0.6-1.6-0.6h-6.6v-2.9h6.6c0.6,0,1.1-0.2,1.4-0.5c0.3-0.3,0.5-0.6,0.5-1.2s-0.2-1-0.5-1.4
			c-0.3-0.4-0.8-0.5-1.4-0.5h-6.6v-2.9h6.7c1.6,0,2.9,0.4,3.9,1.1c1,0.7,1.4,1.7,1.4,3c0,1-0.3,1.8-1,2.5s-1.6,1.1-2.8,1.3
			c1.4,0.3,2.3,0.7,3.1,1.5c0.8,0.9,1.1,1.7,1.1,2.9v0.1c0,1.4-0.5,2.3-1.5,3.1c-1,0.8-2.3,1.1-4.1,1.1H459v-3.1h-0.1V290.8z"/>
		<path class="st23" d="M60.6,309.5h2.3l5,18l4.4-18h3.6l-5.9,23h-3.6l-4.5-16l-4.7,15.9h-3.6l-6-23h3.6l4.4,18L60.6,309.5z"/>
		<path class="st23" d="M82.2,331.8c-1.2-0.6-2-1.4-2.6-2.5c-0.6-1.1-0.9-2.4-0.9-4v-1.8c0-1.6,0.3-3,0.9-4.2c0.6-1.2,1.5-2,2.5-2.6
			s2.4-0.9,4-0.9c1.5,0,2.7,0.4,3.8,1c1.1,0.6,1.8,1.7,2.4,3c0.6,1.3,0.9,2.9,0.9,4.6v1.1h-12v-2.6h8.6c-0.1-1.4-0.5-2.3-1.2-3.1
			c-0.7-0.8-1.5-1.1-2.6-1.1c-1.4,0-2.3,0.4-3.1,1.2s-1.1,1.9-1.1,3.4v2c0,1.4,0.4,2.4,1.2,3.1c0.8,0.7,1.8,1.1,3.3,1.1
			c0.7,0,1.4-0.1,2.1-0.4c0.8-0.3,1.4-0.7,1.8-1.1l2.3,2.1c-0.9,0.8-1.8,1.4-2.9,1.8c-1.1,0.5-2.2,0.7-3.3,0.7
			C84.7,332.7,83.4,332.3,82.2,331.8z"/>
		<path class="st23" d="M97.9,309.5h3.5v23h-3.5V309.5z M102.9,331.9c-0.8-0.5-1.5-1.2-1.8-2l0.2-3.4c0,0.7,0.1,1.4,0.4,1.8
			s0.7,0.9,1.2,1.2c0.5,0.3,1.2,0.4,1.8,0.4c1.2,0,2-0.4,2.7-1c0.7-0.6,1-1.5,1-2.7v-3.6c0-1.2-0.3-2.1-1-2.8c-0.7-0.7-1.5-1-2.7-1
			c-0.8,0-1.4,0.1-1.8,0.4c-0.5,0.3-0.9,0.7-1.2,1.1c-0.3,0.5-0.4,1.1-0.4,1.8l-0.4-3.1c0.6-1,1.3-1.7,2.1-2.2
			c0.9-0.6,1.8-0.8,2.9-0.8c1.3,0,2.3,0.3,3.2,0.8c0.9,0.6,1.5,1.3,2,2.2c0.5,1,0.7,2.2,0.7,3.6v3.6c0,1.4-0.2,2.6-0.7,3.6
			c-0.5,1-1.2,1.7-2.1,2.2c-1,0.6-2,0.8-3.3,0.8C104.7,332.7,103.7,332.4,102.9,331.9z"/>
		<path class="st23" d="M128.3,322.6v3.1h-11.4v-3.1H128.3z"/>
		<path class="st23" d="M133.5,316.1h3.5v16.3h-3.5V316.1z M135.5,329.6h6.6c0.7,0,1.3-0.2,1.6-0.6c0.4-0.4,0.6-0.9,0.6-1.5v-0.1
			c0-0.7-0.2-1.3-0.6-1.6c-0.4-0.4-0.9-0.6-1.6-0.6h-6.6v-2.9h6.6c0.6,0,1.1-0.2,1.4-0.5c0.3-0.3,0.5-0.6,0.5-1.2
			c0-0.6-0.2-1-0.5-1.4c-0.3-0.4-0.8-0.5-1.4-0.5h-6.6v-2.9h6.7c1.6,0,2.9,0.4,3.9,1.1c1,0.7,1.4,1.7,1.4,3c0,1-0.3,1.8-1,2.5
			s-1.6,1.1-2.8,1.3c1.4,0.3,2.3,0.7,3.1,1.5c0.8,0.9,1.1,1.7,1.1,2.9v0.1c0,1.4-0.5,2.3-1.5,3.1c-1,0.8-2.3,1.1-4.1,1.1h-6.7v-3.1
			h-0.1V329.6z"/>
		<path class="st23" d="M155.3,331.8c-1.2-0.6-2-1.4-2.6-2.5c-0.6-1.1-0.9-2.4-0.9-4v-1.8c0-1.6,0.3-3,0.9-4.2
			c0.6-1.2,1.5-2,2.5-2.6s2.4-0.9,4-0.9c1.5,0,2.7,0.4,3.8,1c1.1,0.6,1.8,1.7,2.4,3c0.6,1.3,0.9,2.9,0.9,4.6v1.1h-11.9v-2.6h8.6
			c-0.1-1.4-0.5-2.3-1.2-3.1s-1.5-1.1-2.6-1.1c-1.4,0-2.3,0.4-3.1,1.2c-0.8,0.8-1.1,1.9-1.1,3.4v2c0,1.4,0.4,2.4,1.2,3.1
			c0.8,0.7,1.8,1.1,3.3,1.1c0.7,0,1.4-0.1,2.1-0.4c0.8-0.3,1.4-0.7,1.8-1.1l2.3,2.1c-0.9,0.8-1.8,1.4-2.9,1.8
			c-1.1,0.5-2.2,0.7-3.3,0.7C157.9,332.7,156.5,332.3,155.3,331.8z"/>
		<path class="st23" d="M171,316.1h3.5v23.1H171V316.1z M176,331.9c-0.8-0.5-1.5-1.2-1.8-2l0.2-3.4c0,0.7,0.1,1.4,0.4,1.8
			c0.3,0.5,0.7,0.9,1.2,1.2c0.5,0.3,1.2,0.4,1.8,0.4c1.2,0,2-0.4,2.7-1s1-1.5,1-2.7v-3.6c0-1.2-0.3-2.1-1-2.8c-0.7-0.7-1.5-1-2.7-1
			c-0.8,0-1.4,0.1-1.8,0.4c-0.5,0.3-0.9,0.7-1.2,1.1c-0.3,0.5-0.4,1.1-0.4,1.8l-0.4-3.1c0.6-1,1.3-1.7,2.1-2.2
			c0.9-0.6,1.8-0.8,2.9-0.8c1.3,0,2.3,0.3,3.2,0.8c0.9,0.6,1.5,1.3,2,2.2c0.5,1,0.7,2.2,0.7,3.6v3.6c0,1.4-0.2,2.6-0.7,3.6
			c-0.5,1-1.2,1.7-2.1,2.2c-1,0.6-2,0.8-3.3,0.8C177.8,332.7,176.8,332.4,176,331.9z"/>
		<path class="st23" d="M192.9,331.8c-1.2-0.6-2-1.4-2.6-2.4c-0.6-1.1-0.9-2.3-0.9-3.9v-2.7c0-1.5,0.3-2.8,0.9-3.8
			c0.6-1,1.5-1.8,2.6-2.4c1.2-0.6,2.5-0.8,4.2-0.8c0.9,0,1.7,0.1,2.6,0.3s1.5,0.6,2.2,0.9c0.7,0.4,1.2,0.9,1.6,1.4l-2.5,2
			c-0.5-0.6-1.1-0.9-1.7-1.3c-0.7-0.4-1.4-0.5-2.1-0.5c-1.4,0-2.4,0.4-3.1,1.1c-0.7,0.7-1.1,1.7-1.1,3v2.7c0,1.3,0.4,2.3,1.1,3
			c0.7,0.6,1.7,1.1,3.1,1.1c0.8,0,1.5-0.2,2.1-0.5c0.7-0.3,1.3-0.7,1.7-1.3l2.5,2.2c-0.5,0.6-1,1-1.6,1.4s-1.4,0.7-2.2,0.9
			s-1.6,0.3-2.6,0.3C195.4,332.7,194,332.4,192.9,331.8z"/>
		<path class="st23" d="M218.3,332.4v-11.7l0.4,0.5l-8.5,11.2h-3v-16.3h3.5v11.9l-0.4-0.5l8.5-11.5h3v16.4H218.3z"/>
		<path class="st23" d="M238.3,332.4v-11.7l0.4,0.5l-8.5,11.2h-3v-16.3h3.5v11.9l-0.4-0.5l8.5-11.5h3v16.4H238.3z"/>
		<path class="st23" d="M267.6,332.4v-11.7l0.4,0.5l-8.5,11.2h-3v-16.3h3.5v11.9l-0.4-0.5l8.5-11.5h3v16.4H267.6z"/>
		<path class="st23" d="M285.8,316.1h3.5v16.3h-3.5V316.1z M288,322.9h10.8v2.9H288V322.9z M296.9,316.1h3.5v16.3h-3.5V316.1z"/>
		<path class="st23" d="M306.7,331.4c-1.1-0.8-1.6-2-1.6-3.8c0-1.6,0.5-2.9,1.5-3.7c1-0.8,2.5-1.3,4.4-1.3h5l0.2,2.6h-5.2
			c-0.9,0-1.5,0.2-2,0.6c-0.5,0.4-0.7,1-0.7,1.7c0,0.8,0.3,1.4,0.9,1.8c0.6,0.5,1.5,0.7,2.7,0.7c1.4,0,2.3-0.1,3-0.4
			c0.7-0.3,1-0.7,1-1.3l0.4,2.3c-0.3,0.5-0.7,0.8-1.2,1.1c-0.5,0.3-1,0.6-1.5,0.7c-0.6,0.1-1.3,0.2-2,0.2
			C309.3,332.7,307.8,332.3,306.7,331.4z M315.9,322c0-1.1-0.3-1.8-1-2.5c-0.7-0.6-1.5-0.9-2.6-0.9c-0.7,0-1.4,0.1-2,0.3
			c-0.7,0.2-1.3,0.5-1.8,0.8l-2.5-1.6c0.7-0.7,1.5-1.4,2.6-1.7s2.3-0.6,3.7-0.6c1.5,0,2.7,0.3,3.8,0.7c1.1,0.5,1.8,1.2,2.4,2
			s0.8,1.9,0.8,3.3v10.6h-3.3L315.9,322L315.9,322z"/>
		<path class="st23" d="M337.7,331.6c-1.4-0.7-2.3-1.7-3.1-3c-0.8-1.3-1.1-2.8-1.1-4.3v-6.5c0-1.7,0.4-3.1,1.1-4.3
			c0.7-1.3,1.7-2.2,3.1-3s2.8-1.1,4.5-1.1s3.3,0.4,4.5,1.1c1.3,0.7,2.3,1.7,3.1,3c0.8,1.3,1.1,2.8,1.1,4.3v6.5
			c0,1.7-0.4,3.1-1.1,4.3s-1.7,2.2-3.1,3c-1.4,0.8-2.8,1.1-4.5,1.1S339,332.3,337.7,331.6z M345,328.8c0.8-0.5,1.4-1,1.8-1.8
			c0.5-0.9,0.7-1.7,0.7-2.7v-6.8c0-1-0.2-1.9-0.7-2.7c-0.5-0.8-1.1-1.4-1.8-1.8s-1.6-0.6-2.7-0.6s-1.9,0.2-2.7,0.6
			c-0.8,0.5-1.4,1-1.8,1.8c-0.5,0.9-0.7,1.7-0.7,2.7v6.8c0,1,0.2,1.9,0.7,2.7c0.5,0.8,1.1,1.4,1.8,1.8c0.8,0.5,1.6,0.6,2.7,0.6
			S344.2,329.3,345,328.8z"/>
		<path class="st23" d="M360.2,331.6c-1.3-0.7-2.3-1.7-3-3c-0.7-1.3-1.1-2.8-1.1-4.4v-6.3c0-1.7,0.4-3.2,1.1-4.4
			c0.7-1.3,1.7-2.3,3-3c1.3-0.6,2.8-1.1,4.5-1.1c1.5,0,2.7,0.3,3.9,0.8c1.2,0.6,2.2,1.4,3,2.4c0.8,1.1,1.4,2.2,1.6,3.6h-3.6
			c-0.2-0.7-0.6-1.4-1.1-1.8c-0.5-0.6-1.1-1-1.7-1.4c-0.7-0.4-1.4-0.5-2.1-0.5c-1,0-1.9,0.3-2.6,0.7c-0.7,0.5-1.4,1.1-1.7,1.8
			c-0.4,0.8-0.7,1.8-0.7,2.9v6.3c0,1.1,0.2,2,0.7,2.9s1,1.4,1.7,1.8c0.8,0.5,1.6,0.6,2.6,0.6c0.8,0,1.5-0.2,2.1-0.5
			c0.7-0.3,1.3-0.7,1.7-1.3c0.5-0.6,0.9-1.3,1.1-1.9h3.6c-0.3,1.4-0.9,2.5-1.6,3.6s-1.8,1.8-3,2.4c-1.2,0.6-2.5,0.8-3.9,0.8
			C363,332.7,361.4,332.3,360.2,331.6z"/>
		<path class="st23" d="M394.2,309.5h3l9.1,23h-3.8l-6.9-18.5l-6.9,18.5H385L394.2,309.5z M389.3,324.4h13v3.1h-13V324.4z"/>
		<path class="st23" d="M409.7,316.1h3.5v16.3h-3.5V316.1z M420.3,322.4c0-1.2-0.3-2-1-2.7c-0.7-0.7-1.5-1-2.7-1s-2,0.3-2.6,0.8
			c-0.6,0.6-1,1.4-1,2.3l-0.4-3.1c0.6-1,1.3-1.8,2.1-2.2c0.9-0.5,1.8-0.8,2.9-0.8c1.9,0,3.4,0.6,4.4,1.7s1.5,2.8,1.5,4.9v10h-3.5
			L420.3,322.4L420.3,322.4z"/>
		<path class="st23" d="M431.4,331.9c-0.9-0.6-1.6-1.3-2.1-2.2c-0.5-1-0.7-2.1-0.7-3.6v-3.6c0-1.4,0.2-2.6,0.7-3.6
			c0.5-1,1.2-1.8,2-2.2c0.9-0.5,1.9-0.8,3.2-0.8c1.1,0,2,0.3,2.9,0.7c0.9,0.5,1.5,1.3,2.1,2.1l-0.4,3.3c0-0.7-0.1-1.3-0.4-1.8
			c-0.3-0.6-0.7-0.9-1.2-1.2c-0.5-0.3-1.2-0.4-1.8-0.4c-1.2,0-2,0.4-2.7,1c-0.7,0.6-1,1.6-1,2.8v3.6c0,1.2,0.3,2,1,2.8
			c0.7,0.8,1.5,1,2.7,1c0.8,0,1.4-0.1,1.8-0.4c0.5-0.3,0.9-0.6,1.2-1.2c0.3-0.6,0.4-1.1,0.4-1.8l0.2,3.4c-0.4,0.8-1,1.5-1.7,2
			c-0.8,0.6-1.7,0.8-2.9,0.8C433.4,332.7,432.3,332.4,431.4,331.9z M439.2,309.5h3.5v23h-3.5V309.5z"/>
		<path class="st23" d="M447.9,316.1h3.5v16.3h-3.5V316.1z M456.4,319.1c-0.5-0.2-1-0.3-1.6-0.3c-1.1,0-1.9,0.3-2.5,0.8
			c-0.6,0.6-0.9,1.4-0.9,2.3l-0.4-3.1c0.6-1,1.3-1.7,2.1-2.2c0.9-0.5,1.8-0.8,2.9-0.8c0.8,0,1.5,0.1,2.2,0.4c0.7,0.3,1.3,0.6,1.7,1
			l-2.2,2.9C457.3,319.6,456.9,319.3,456.4,319.1z"/>
		<path class="st23" d="M465.6,331.8c-1.1-0.6-1.9-1.4-2.5-2.4c-0.6-1.1-0.9-2.3-0.9-3.9v-2.7c0-1.5,0.3-2.8,0.9-3.8
			c0.6-1,1.5-1.8,2.5-2.4c1.1-0.6,2.4-0.8,4-0.8c1.5,0,2.8,0.3,4,0.8c1.2,0.6,1.9,1.4,2.5,2.4c0.6,1.1,0.9,2.3,0.9,3.8v2.7
			c0,1.5-0.3,2.8-0.9,3.9c-0.6,1.1-1.5,1.8-2.5,2.4c-1.1,0.6-2.4,0.8-4,0.8C468,332.6,466.7,332.4,465.6,331.8z M472.4,328.5
			c0.7-0.7,1-1.7,1-3v-2.7c0-1.3-0.3-2.2-1-3c-0.7-0.8-1.6-1.1-2.8-1.1c-1.2,0-2.1,0.4-2.8,1.1c-0.7,0.7-1,1.7-1,3v2.7
			c0,1.3,0.3,2.2,1,3s1.6,1.1,2.8,1.1C470.7,329.6,471.7,329.3,472.4,328.5z"/>
		<path class="st23" d="M481.7,309.5h3.5v3.2h-3.5V309.5z M481.7,316.1h3.5v16.3h-3.5V316.1z"/>
		<path class="st23" d="M492.8,331.9c-0.9-0.6-1.6-1.3-2.1-2.2c-0.5-1-0.7-2.1-0.7-3.6v-3.6c0-1.4,0.2-2.6,0.7-3.6
			c0.5-1,1.2-1.8,2-2.2c0.9-0.5,1.9-0.8,3.2-0.8c1.1,0,2,0.3,2.9,0.7c0.9,0.5,1.5,1.3,2.1,2.1l-0.4,3.3c0-0.7-0.1-1.3-0.4-1.8
			c-0.3-0.6-0.7-0.9-1.2-1.2s-1.2-0.4-1.8-0.4c-1.2,0-2,0.4-2.7,1c-0.7,0.6-1,1.6-1,2.8v3.6c0,1.2,0.3,2,1,2.8c0.7,0.8,1.5,1,2.7,1
			c0.8,0,1.4-0.1,1.8-0.4s0.9-0.6,1.2-1.2c0.3-0.6,0.4-1.1,0.4-1.8l0.2,3.4c-0.4,0.8-1,1.5-1.7,2c-0.8,0.6-1.7,0.8-2.9,0.8
			C494.8,332.7,493.6,332.4,492.8,331.9z M500.5,309.5h3.5v23h-3.5V309.5L500.5,309.5z"/>
		<path class="st23" d="M509.4,329h3.7v3.4h-3.7V329z M509.5,309.5h3.5v17h-3.5V309.5z"/>
	</g>
</g>
</svg>
